<svg width="21" height="21" viewBox="0 0 21 21" fill="none" xmlns="http://www.w3.org/2000/svg">
<mask id="mask0_106_2083" style="mask-type:alpha" maskUnits="userSpaceOnUse" x="0" y="0" width="21" height="21">
<rect x="0.133301" y="0.15332" width="20" height="20" fill="#D9D9D9"/>
</mask>
<g mask="url(#mask0_106_2083)">
<path d="M3.50806 17.6533C3.25806 17.6533 3.04972 17.57 2.88306 17.4033C2.71639 17.2367 2.63306 17.0283 2.63306 16.7783V13.4033C2.63306 13.2228 2.69556 13.0596 2.82056 12.9137C2.94556 12.7679 3.10528 12.6672 3.29972 12.6117L6.17472 12.0283C6.36917 12.0005 6.56708 12.0179 6.76847 12.0804C6.96986 12.1429 7.13306 12.2367 7.25806 12.3617L9.21639 14.32C9.74417 14.0144 10.2442 13.6776 10.7164 13.3096C11.1886 12.9415 11.64 12.5422 12.0706 12.1117C12.5289 11.6672 12.949 11.2054 13.331 10.7262C13.7129 10.2471 14.0428 9.75054 14.3206 9.23665L12.2997 7.19499C12.1886 7.08388 12.1122 6.95193 12.0706 6.79915C12.0289 6.64638 12.0219 6.45888 12.0497 6.23665L12.5914 3.31999C12.6192 3.13943 12.7094 2.98318 12.8622 2.85124C13.015 2.71929 13.1886 2.65332 13.3831 2.65332H16.7581C17.0081 2.65332 17.2164 2.73665 17.3831 2.90332C17.5497 3.06999 17.6331 3.27832 17.6331 3.52832C17.6331 5.26443 17.2546 6.97971 16.4976 8.67415C15.7407 10.3686 14.6678 11.9103 13.2789 13.2992C11.89 14.688 10.3483 15.761 8.65389 16.5179C6.95944 17.2748 5.24417 17.6533 3.50806 17.6533Z" fill="white"/>
</g>
</svg>
