<svg width="21" height="21" viewBox="0 0 21 21" fill="none" xmlns="http://www.w3.org/2000/svg">
<g clip-path="url(#clip0_106_2073)">
<path d="M5.03082 7.13989C4.65077 7.13989 4.34277 7.44789 4.34277 7.82794C4.34277 8.20799 4.65077 8.5174 5.03082 8.5174C5.41087 8.5174 5.71887 8.2094 5.71887 7.82794C5.71887 7.44648 5.41087 7.13989 5.03082 7.13989Z" fill="white"/>
<path d="M11.8338 7.06787C11.4241 7.06787 11.092 7.39989 11.092 7.80961C11.092 8.21933 11.4241 8.55134 11.8338 8.55134C12.2435 8.55134 12.5755 8.21933 12.5755 7.80961C12.5755 7.39989 12.2435 7.06787 11.8338 7.06787Z" fill="white"/>
<path d="M17.9923 0.2948H3.34265C1.86483 0.2948 0.666748 1.49288 0.666748 2.9707V11.6652C0.666748 13.1431 1.86483 14.3411 3.34265 14.3411H8.51642L10.2768 18.4878C10.2768 18.4878 10.3983 18.8466 10.6908 18.8466C10.9846 18.8466 11.1047 18.4878 11.1047 18.4878L12.8651 14.3411H17.9923C19.4701 14.3411 20.6682 13.1431 20.6682 11.6652V2.9707C20.6682 1.49288 19.4701 0.2948 17.9923 0.2948ZM6.9496 7.98059C6.94112 9.57002 5.298 9.61523 5.298 9.61523C4.66223 9.61523 4.30337 9.19421 4.30337 9.19421V9.48101H3.1067V4.54459C3.1067 4.54459 3.10105 4.54318 3.1067 4.54176V4.54459C3.18158 4.55589 4.30337 4.54176 4.30337 4.54176V6.4293C4.58452 5.94894 5.39831 5.95742 5.39831 5.95742C7.17 6.12272 6.94818 7.98059 6.94818 7.98059H6.9496ZM9.05754 6.11V9.48949H7.8863V6.14391C7.8863 5.68898 7.32117 5.56182 7.32117 5.56182V4.38211C9.19176 4.45841 9.05754 6.11 9.05754 6.11ZM11.8337 9.61805C10.7487 9.61805 9.86991 8.8085 9.86991 7.81105C9.86991 6.81359 10.7487 6.00404 11.8337 6.00404C12.9188 6.00404 13.7976 6.81359 13.7976 7.81105C13.7976 8.8085 12.9188 9.61805 11.8337 9.61805ZM18.2508 9.61805C18.2508 9.61805 18.2678 11.3346 16.5229 11.3346H15.9917V10.2227H16.3124C16.3124 10.2227 17.0457 10.2906 17.0372 9.1603C17.0372 9.1603 16.8945 9.61805 15.866 9.61805C15.866 9.61805 14.4079 9.51351 14.4079 8.09079V7.55109C14.4079 7.55109 14.4418 6.07609 16.0426 5.95883C16.0426 5.95883 16.6741 5.89101 17.0626 6.41376V6.05208H18.2508V9.61947V9.61805Z" fill="white"/>
<path d="M16.3886 7.08484C15.9888 7.08484 15.6638 7.40979 15.6638 7.80962C15.6638 8.20945 15.9888 8.5344 16.3886 8.5344C16.7884 8.5344 17.1134 8.20945 17.1134 7.80962C17.1134 7.40979 16.7884 7.08484 16.3886 7.08484Z" fill="white"/>
</g>
<defs>
<clipPath id="clip0_106_2073">
<rect width="20" height="20" fill="white" transform="translate(0.666748 0.15332)"/>
</clipPath>
</defs>
</svg>
