<svg width="20" height="20" viewBox="0 0 20 20" fill="none" xmlns="http://www.w3.org/2000/svg">
<g clip-path="url(#clip0_952_3758)">
<path fill-rule="evenodd" clip-rule="evenodd" d="M17.0711 2.89536C14.9346 1.95227 12.3198 1.60266 10 1.60266C7.68023 1.60266 5.06543 1.95227 2.92891 2.89536C1.70797 3.43434 0 4.48797 0 6.01692C0 6.51817 0.620352 7.85879 0.827461 8.33356L0.840664 8.36383C0.937181 8.59018 1.11259 8.77379 1.3343 8.88054C1.556 8.98729 1.80892 9.00992 2.04605 8.94422L4.84988 8.19301C5.11235 8.12218 5.33604 7.95021 5.47195 7.71477C5.60786 7.47934 5.64492 7.19963 5.575 6.93692L5.52371 6.74528C5.46159 6.51334 5.44937 6.27087 5.48786 6.03386C5.52635 5.79686 5.61467 5.57071 5.74699 5.37035C5.87931 5.16999 6.05263 4.99998 6.2555 4.87153C6.45836 4.74308 6.68617 4.65913 6.92387 4.6252C8.96483 4.34139 11.0352 4.34139 13.0762 4.6252C13.3139 4.6591 13.5418 4.74303 13.7446 4.87146C13.9475 4.99989 14.1209 5.1699 14.2532 5.37026C14.3856 5.57062 14.4739 5.79677 14.5124 6.03379C14.5509 6.2708 14.5387 6.51329 14.4766 6.74524L14.4253 6.93688C14.3553 7.19958 14.3924 7.47928 14.5283 7.71473C14.6642 7.95017 14.8878 8.12216 15.1503 8.19301L17.9541 8.94422C18.043 8.96823 18.1347 8.98049 18.2268 8.98067C18.4256 8.98055 18.62 8.92201 18.7858 8.81233C18.9516 8.70264 19.0816 8.54664 19.1595 8.36372L19.1729 8.33305C19.3799 7.8586 20.0002 6.51766 20.0002 6.01692C20.0002 4.48793 18.2923 3.43434 17.0713 2.89536H17.0711ZM18.2599 13.3262C18.6904 13.597 18.842 14.0793 18.842 14.5681V17.2923C18.8414 17.5853 18.7248 17.8661 18.5175 18.0732C18.3103 18.2803 18.0295 18.3969 17.7365 18.3973H2.2634C1.97046 18.3968 1.68965 18.2802 1.48249 18.0731C1.27533 17.866 1.1587 17.5852 1.15816 17.2923V14.5681C1.15816 14.0793 1.30969 13.5969 1.7402 13.3262L7.87691 9.46715V7.87672C7.87718 7.7482 7.92835 7.62502 8.01923 7.53414C8.1101 7.44326 8.23328 7.39208 8.3618 7.3918H11.6386C11.7671 7.39205 11.8903 7.44322 11.9812 7.5341C12.0721 7.62499 12.1232 7.74819 12.1235 7.87672V9.46715L18.2602 13.3262H18.2599ZM10 10.5932C9.37873 10.5932 8.77142 10.7774 8.25486 11.1226C7.73831 11.4678 7.33571 11.9584 7.09798 12.5324C6.86025 13.1064 6.79806 13.738 6.91928 14.3473C7.0405 14.9566 7.33969 15.5163 7.779 15.9556C8.21832 16.3949 8.77803 16.6941 9.38736 16.8152C9.9967 16.9364 10.6283 16.8742 11.2023 16.6365C11.7762 16.3987 12.2668 15.9961 12.612 15.4795C12.9571 14.9629 13.1413 14.3556 13.1413 13.7343C13.1404 12.9015 12.8091 12.1031 12.2202 11.5142C11.6313 10.9253 10.8328 10.5941 10 10.5932ZM10 15.5424C10.3575 15.5423 10.707 15.4363 11.0043 15.2376C11.3016 15.039 11.5333 14.7566 11.6701 14.4263C11.8069 14.0959 11.8426 13.7324 11.7729 13.3818C11.7031 13.0311 11.5309 12.709 11.2781 12.4562C11.0252 12.2034 10.7031 12.0312 10.3524 11.9615C10.0017 11.8917 9.63826 11.9276 9.30794 12.0644C8.97762 12.2012 8.69529 12.4329 8.49665 12.7302C8.29801 13.0275 8.19199 13.377 8.19199 13.7346C8.19256 14.2139 8.38324 14.6734 8.7222 15.0123C9.06115 15.3511 9.5207 15.5417 10 15.5422V15.5424Z" fill="white"/>
</g>
<defs>
<clipPath id="clip0_952_3758">
<rect width="20" height="20" fill="white"/>
</clipPath>
</defs>
</svg>
