<svg width="22" height="22" viewBox="0 0 22 22" fill="none" xmlns="http://www.w3.org/2000/svg">
<path d="M11 0.915771C4.92525 0.915771 0 4.7731 0 9.53151C0 12.6078 2.05883 15.3074 5.15624 16.8309C3.9655 20.9101 3.93433 20.9284 4.136 21.0467C4.389 21.1943 4.71716 21.0421 9.04657 18.0116C9.68091 18.1005 10.3336 18.1473 11 18.1473C17.0747 18.1473 22 14.2899 22 9.53151C22 4.7731 17.0747 0.915771 11 0.915771ZM5.55316 11.9368C5.55316 12.2687 5.26808 12.5391 4.91883 12.5391C4.56958 12.5391 4.2845 12.2687 4.2845 11.9368V8.19135H3.2945C2.95075 8.19135 2.67208 7.91451 2.67208 7.57443C2.67208 7.23435 2.94983 6.9566 3.29358 6.9566H6.54316C6.88691 6.9566 7.16558 7.23343 7.16558 7.57351C7.16558 7.9136 6.88599 8.19135 6.54316 8.19135H5.55316V11.9368ZM10.483 12.5308C9.82299 12.5308 9.94491 12.0129 9.64057 11.4354H7.70549C7.40391 12.0083 7.52216 12.5308 6.86308 12.5308C6.22783 12.5318 6.11599 12.1449 6.30941 11.5491L7.82741 7.57993C7.93466 7.27743 8.25916 6.96668 8.67257 6.95752C9.08691 6.96668 9.41232 7.27743 9.51866 7.57993C10.5206 10.6874 11.9515 12.5318 10.483 12.5308ZM14.0937 12.4465H12.0578C10.9954 12.4465 11.6417 11.0119 11.4501 7.58726C11.4501 7.23985 11.7407 6.9566 12.0982 6.9566C12.4557 6.9566 12.7462 7.23893 12.7462 7.58726V11.2906H14.0947C14.4302 11.2906 14.7024 11.55 14.7024 11.8681C14.7015 12.1871 14.4292 12.4465 14.0937 12.4465ZM19.0611 11.9717C19.0382 12.1376 18.9493 12.287 18.8146 12.3878C17.9391 13.0488 17.292 11.1219 16.4376 10.3061L16.2176 10.5252V11.9002C16.2176 12.2485 15.9335 12.5308 15.5824 12.5308C15.2322 12.5308 14.9481 12.2485 14.9481 11.9002V7.58726C14.9481 7.23985 15.2322 6.9566 15.5824 6.9566C15.9326 6.9566 16.2167 7.23893 16.2167 7.58726V8.9421C17.3873 8.06393 18.0363 6.4946 18.7761 7.22885C19.5021 7.94935 17.9987 8.58001 17.3763 9.44901C18.8466 11.4767 19.1262 11.5271 19.0611 11.9717Z" fill="white"/>
</svg>
