<svg width="21" height="21" viewBox="0 0 21 21" fill="none" xmlns="http://www.w3.org/2000/svg">
<path d="M10.1667 6.95349C8.45495 6.95349 7 8.40845 7 10.1202C7 11.8319 8.45495 13.2868 10.1667 13.2868C11.8784 13.2868 13.3333 11.8319 13.3333 10.1202C13.3333 8.40845 11.8784 6.95349 10.1667 6.95349Z" fill="white"/>
<path d="M14.2256 0.619873H6.19378C3.08469 0.619873 0.666504 3.03805 0.666504 6.06078V14.0926C0.666504 17.2017 3.08469 19.6199 6.19378 19.6199H14.2256C17.2483 19.6199 19.6665 17.2017 19.6665 14.0926V6.06078C19.6665 3.03805 17.2483 0.619873 14.2256 0.619873ZM10.1665 15.129C7.40287 15.129 5.24378 12.8835 5.24378 10.2062C5.24378 7.52896 7.40287 5.19715 10.1665 5.19715C12.9301 5.19715 15.0892 7.4426 15.0892 10.1199C15.0892 12.7971 12.9301 15.129 10.1665 15.129ZM15.262 6.23351C14.6574 6.23351 14.1392 5.71533 14.1392 5.11078C14.1392 4.50624 14.6574 3.98805 15.262 3.98805C15.8665 3.98805 16.3847 4.50624 16.3847 5.11078C16.3847 5.71533 15.8665 6.23351 15.262 6.23351Z" fill="white"/>
</svg>
