<svg width="70" height="70" viewBox="0 0 70 70" fill="none" xmlns="http://www.w3.org/2000/svg">
<rect width="70" height="70" rx="35" fill="#EB5945" fill-opacity="0.1"/>
<mask id="mask0_491_1313" style="mask-type:alpha" maskUnits="userSpaceOnUse" x="15" y="15" width="40" height="40">
<rect x="15" y="15" width="40" height="40" fill="#D9D9D9"/>
</mask>
<g mask="url(#mask0_491_1313)">
<path d="M30.8054 40.8612L45.5971 26.0696C45.8802 25.7918 46.2102 25.6529 46.5871 25.6529C46.9643 25.6529 47.2918 25.7922 47.5696 26.0708C47.8474 26.3497 47.9863 26.6807 47.9863 27.0637C47.9863 27.4471 47.8474 27.7776 47.5696 28.0554L31.7779 43.8612C31.5002 44.139 31.176 44.2779 30.8054 44.2779C30.4352 44.2779 30.1111 44.139 29.8334 43.8612L22.3888 36.4166C22.111 36.1378 21.979 35.8064 21.9929 35.4225C22.0068 35.0389 22.1532 34.7082 22.4321 34.4304C22.7107 34.1526 23.0417 34.0137 23.425 34.0137C23.8084 34.0137 24.1389 34.1526 24.4167 34.4304L30.8054 40.8612Z" fill="#EB5945"/>
</g>
</svg>
