<svg width="25" height="24" viewBox="0 0 25 24" fill="none" xmlns="http://www.w3.org/2000/svg">
<mask id="mask0_426_2677" style="mask-type:alpha" maskUnits="userSpaceOnUse" x="0" y="0" width="25" height="24">
<rect x="0.931641" width="24" height="24" fill="#D9D9D9"/>
</mask>
<g mask="url(#mask0_426_2677)">
<path d="M12.9316 14.1535C12.7253 14.1535 12.5455 14.077 12.3921 13.9238C12.239 13.7706 12.1624 13.5908 12.1624 13.3843C12.1624 13.178 12.239 12.9982 12.3921 12.845C12.5455 12.6919 12.7253 12.6153 12.9316 12.6153C13.138 12.6153 13.3178 12.6919 13.4711 12.845C13.6243 12.9982 13.7009 13.178 13.7009 13.3843C13.7009 13.5908 13.6243 13.7706 13.4711 13.9238C13.3178 14.077 13.138 14.1535 12.9316 14.1535ZM8.93164 14.1535C8.72531 14.1535 8.54547 14.077 8.39214 13.9238C8.23897 13.7706 8.16239 13.5908 8.16239 13.3843C8.16239 13.178 8.23897 12.9982 8.39214 12.845C8.54547 12.6919 8.72531 12.6153 8.93164 12.6153C9.13797 12.6153 9.31781 12.6919 9.47114 12.845C9.62431 12.9982 9.70089 13.178 9.70089 13.3843C9.70089 13.5908 9.62431 13.7706 9.47114 13.9238C9.31781 14.077 9.13797 14.1535 8.93164 14.1535ZM16.9316 14.1535C16.7253 14.1535 16.5455 14.077 16.3921 13.9238C16.239 13.7706 16.1624 13.5908 16.1624 13.3843C16.1624 13.178 16.239 12.9982 16.3921 12.845C16.5455 12.6919 16.7253 12.6153 16.9316 12.6153C17.138 12.6153 17.3178 12.6919 17.4711 12.845C17.6243 12.9982 17.7009 13.178 17.7009 13.3843C17.7009 13.5908 17.6243 13.7706 17.4711 13.9238C17.3178 14.077 17.138 14.1535 16.9316 14.1535ZM12.9316 17.9998C12.7253 17.9998 12.5455 17.9232 12.3921 17.77C12.239 17.6169 12.1624 17.437 12.1624 17.2305C12.1624 17.0242 12.239 16.8444 12.3921 16.691C12.5455 16.5379 12.7253 16.4613 12.9316 16.4613C13.138 16.4613 13.3178 16.5379 13.4711 16.691C13.6243 16.8444 13.7009 17.0242 13.7009 17.2305C13.7009 17.437 13.6243 17.6169 13.4711 17.77C13.3178 17.9232 13.138 17.9998 12.9316 17.9998ZM8.93164 17.9998C8.72531 17.9998 8.54547 17.9232 8.39214 17.77C8.23897 17.6169 8.16239 17.437 8.16239 17.2305C8.16239 17.0242 8.23897 16.8444 8.39214 16.691C8.54547 16.5379 8.72531 16.4613 8.93164 16.4613C9.13797 16.4613 9.31781 16.5379 9.47114 16.691C9.62431 16.8444 9.70089 17.0242 9.70089 17.2305C9.70089 17.437 9.62431 17.6169 9.47114 17.77C9.31781 17.9232 9.13797 17.9998 8.93164 17.9998ZM16.9316 17.9998C16.7253 17.9998 16.5455 17.9232 16.3921 17.77C16.239 17.6169 16.1624 17.437 16.1624 17.2305C16.1624 17.0242 16.239 16.8444 16.3921 16.691C16.5455 16.5379 16.7253 16.4613 16.9316 16.4613C17.138 16.4613 17.3178 16.5379 17.4711 16.691C17.6243 16.8444 17.7009 17.0242 17.7009 17.2305C17.7009 17.437 17.6243 17.6169 17.4711 17.77C17.3178 17.9232 17.138 17.9998 16.9316 17.9998ZM6.54714 20.9998C6.08681 20.9998 5.70247 20.8456 5.39414 20.5373C5.08581 20.229 4.93164 19.8446 4.93164 19.3843V6.61529C4.93164 6.15496 5.08581 5.77063 5.39414 5.46229C5.70247 5.15396 6.08681 4.99979 6.54714 4.99979H8.31614V2.76904H9.39314V4.99979H16.5471V2.76904H17.5471V4.99979H19.3161C19.7765 4.99979 20.1608 5.15396 20.4691 5.46229C20.7775 5.77063 20.9316 6.15496 20.9316 6.61529V19.3843C20.9316 19.8446 20.7775 20.229 20.4691 20.5373C20.1608 20.8456 19.7765 20.9998 19.3161 20.9998H6.54714ZM6.54714 19.9998H19.3161C19.4701 19.9998 19.6112 19.9357 19.7394 19.8075C19.8676 19.6794 19.9316 19.5383 19.9316 19.3843V10.6153H5.93164V19.3843C5.93164 19.5383 5.99572 19.6794 6.12389 19.8075C6.25206 19.9357 6.39314 19.9998 6.54714 19.9998Z" fill="#262626"/>
</g>
</svg>
