<svg width="25" height="25" viewBox="0 0 25 25" fill="none" xmlns="http://www.w3.org/2000/svg">
<path d="M12.4514 15.0715L9.30016 11.9205C9.25682 11.877 9.22266 11.8284 9.19766 11.7747C9.17266 11.7212 9.16016 11.6638 9.16016 11.6025C9.16016 11.48 9.20157 11.3735 9.28441 11.283C9.36724 11.1926 9.47641 11.1475 9.61191 11.1475H16.2504C16.3859 11.1475 16.4951 11.1931 16.5779 11.2845C16.6607 11.3756 16.7022 11.482 16.7022 11.6037C16.7022 11.6342 16.6554 11.7398 16.5619 11.9205L13.4109 15.0715C13.3386 15.144 13.2637 15.1969 13.1864 15.2302C13.1091 15.2635 13.024 15.2802 12.9312 15.2802C12.8383 15.2802 12.7532 15.2635 12.6759 15.2302C12.5986 15.1969 12.5237 15.144 12.4514 15.0715Z" fill="#5F6368"/>
</svg>
