<svg width="25" height="24" viewBox="0 0 25 24" fill="none" xmlns="http://www.w3.org/2000/svg">
<mask id="mask0_426_2787" style="mask-type:alpha" maskUnits="userSpaceOnUse" x="0" y="0" width="25" height="24">
<rect x="0.0683594" width="24" height="24" fill="#D9D9D9"/>
</mask>
<g mask="url(#mask0_426_2787)">
<path d="M6.26461 17.4845C7.11461 16.873 8.01653 16.3894 8.97036 16.0337C9.92419 15.6779 10.9569 15.5 12.0684 15.5C13.1799 15.5 14.2125 15.6779 15.1664 16.0337C16.1202 16.3894 17.0221 16.873 17.8721 17.4845C18.5324 16.8012 19.0635 15.9942 19.4654 15.0635C19.8674 14.1327 20.0684 13.1115 20.0684 12C20.0684 9.78333 19.2892 7.89583 17.7309 6.3375C16.1725 4.77917 14.285 4 12.0684 4C9.85169 4 7.96419 4.77917 6.40586 6.3375C4.84753 7.89583 4.06836 9.78333 4.06836 12C4.06836 13.1115 4.26936 14.1327 4.67136 15.0635C5.07319 15.9942 5.60428 16.8012 6.26461 17.4845ZM12.0684 12.5C11.226 12.5 10.5154 12.2106 9.93661 11.6318C9.35778 11.0529 9.06836 10.3423 9.06836 9.5C9.06836 8.65767 9.35778 7.94708 9.93661 7.36825C10.5154 6.78942 11.226 6.5 12.0684 6.5C12.9107 6.5 13.6213 6.78942 14.2001 7.36825C14.7789 7.94708 15.0684 8.65767 15.0684 9.5C15.0684 10.3423 14.7789 11.0529 14.2001 11.6318C13.6213 12.2106 12.9107 12.5 12.0684 12.5ZM12.0684 21C10.8132 21 9.63819 20.7663 8.54336 20.299C7.44853 19.8317 6.49594 19.1929 5.68561 18.3828C4.87544 17.5724 4.23669 16.6198 3.76936 15.525C3.30203 14.4302 3.06836 13.2552 3.06836 12C3.06836 10.7448 3.30203 9.56983 3.76936 8.475C4.23669 7.38017 4.87544 6.42758 5.68561 5.61725C6.49594 4.80708 7.44853 4.16833 8.54336 3.701C9.63819 3.23367 10.8132 3 12.0684 3C13.3235 3 14.4985 3.23367 15.5934 3.701C16.6882 4.16833 17.6408 4.80708 18.4511 5.61725C19.2613 6.42758 19.9 7.38017 20.3674 8.475C20.8347 9.56983 21.0684 10.7448 21.0684 12C21.0684 13.2552 20.8347 14.4302 20.3674 15.525C19.9 16.6198 19.2613 17.5724 18.4511 18.3828C17.6408 19.1929 16.6882 19.8317 15.5934 20.299C14.4985 20.7663 13.3235 21 12.0684 21Z" fill="#262626"/>
</g>
</svg>
