<svg width="24" height="24" viewBox="0 0 24 24" fill="none" xmlns="http://www.w3.org/2000/svg">
<path d="M10.2568 2C14.2643 2.00019 17.5127 5.24931 17.5127 9.25684C17.5126 11.1512 16.7856 12.8748 15.5967 14.167L20.6963 19.2676C21.101 19.6724 21.1011 20.3286 20.6963 20.7334C20.2915 21.138 19.6352 21.1381 19.2305 20.7334L14.0996 15.6025C14.0603 15.5632 14.0258 15.5202 13.9941 15.4766C12.9025 16.134 11.624 16.5126 10.2568 16.5127C6.24931 16.5127 3.00019 13.2643 3 9.25684C3 5.24919 6.24919 2 10.2568 2ZM10.2568 4.07324C7.39424 4.07324 5.07324 6.39424 5.07324 9.25684C5.07344 12.1193 7.39436 14.4395 10.2568 14.4395C13.1192 14.4393 15.4393 12.1192 15.4395 9.25684C15.4395 6.39436 13.1193 4.07344 10.2568 4.07324Z" fill="#262626"/>
</svg>
