<svg width="23" height="23" viewBox="0 0 23 23" fill="none" xmlns="http://www.w3.org/2000/svg">
<path d="M19.1511 10.0108C19.1506 10.0104 19.1502 10.0099 19.1498 10.0095L12.5885 3.44843C12.3088 3.16863 11.937 3.01462 11.5415 3.01462C11.1459 3.01462 10.7741 3.16863 10.4943 3.44843L3.9364 10.0062C3.93419 10.0084 3.93186 10.0108 3.92978 10.013C3.35546 10.5906 3.35644 11.5278 3.9326 12.104C4.19583 12.3673 4.54336 12.5197 4.91508 12.5358C4.93029 12.5373 4.94551 12.538 4.96085 12.538H5.22224V17.3665C5.22224 18.3221 5.99978 19.0995 6.95538 19.0995H9.52239C9.78268 19.0995 9.99363 18.8884 9.99363 18.6282V14.8426C9.99363 14.4066 10.3484 14.052 10.7844 14.052H12.2985C12.7345 14.052 13.0892 14.4066 13.0892 14.8426V18.6282C13.0892 18.8884 13.3001 19.0995 13.5604 19.0995H16.1274C17.0832 19.0995 17.8606 18.3221 17.8606 17.3665V12.538H18.1031C18.4985 12.538 18.8703 12.384 19.1502 12.1041C19.727 11.5271 19.7272 10.5881 19.1511 10.0108ZM18.4837 11.4377C18.382 11.5395 18.2468 11.5955 18.1031 11.5955H17.3893C17.1291 11.5955 16.9181 11.8065 16.9181 12.0668V17.3665C16.9181 17.8024 16.5634 18.157 16.1274 18.157H14.0317V14.8426C14.0317 13.887 13.2542 13.1095 12.2985 13.1095H10.7844C9.82869 13.1095 9.05115 13.887 9.05115 14.8426V18.157H6.95538C6.51949 18.157 6.16471 17.8024 6.16471 17.3665V12.0668C6.16471 11.8065 5.95376 11.5955 5.69347 11.5955H4.99202C4.98466 11.595 4.97742 11.5947 4.96993 11.5946C4.82954 11.5921 4.69787 11.5364 4.5992 11.4376C4.38935 11.2277 4.38935 10.8862 4.5992 10.6763C4.59932 10.6763 4.59932 10.6761 4.59945 10.676L4.59981 10.6756L11.1609 4.11478C11.2625 4.01305 11.3976 3.95709 11.5415 3.95709C11.6852 3.95709 11.8203 4.01305 11.922 4.11478L18.4816 10.6743C18.4826 10.6753 18.4837 10.6763 18.4847 10.6772C18.6935 10.8875 18.6931 11.2282 18.4837 11.4377Z" fill="white"/>
</svg>
