<svg width="120" height="120" viewBox="0 0 120 120" fill="none" xmlns="http://www.w3.org/2000/svg">
<g clip-path="url(#clip0_291_149)">
<path d="M62.614 75.0222C62.7077 76.7495 63.6316 78.2893 64.9706 78.9722C65.533 79.2534 66.1355 79.4007 66.738 79.4007C67.3272 79.4007 67.9163 79.2668 68.4787 78.999C69.8712 78.3295 70.929 76.9236 71.2772 75.2231C71.4646 74.3527 71.4512 73.4824 71.2504 72.6656C70.9826 71.5543 71.0094 70.2019 71.3307 68.6487L71.3709 68.4746C71.5851 67.4838 71.8663 66.6938 72.2546 66.0779C72.5626 65.5825 72.7768 65.0469 72.8973 64.4711C73.1383 63.3464 72.9777 62.2216 72.4956 61.2977C72.7099 61.204 72.9241 61.0969 73.1249 60.9764C74.156 60.3069 74.812 59.2223 74.9326 58.0039C74.9995 57.2942 74.879 56.5712 74.5844 55.9285C74.2363 55.1786 74.1158 54.2414 74.2363 53.0229C74.3032 52.3266 74.4639 51.7776 74.7049 51.3492C74.9459 50.9207 75.0932 50.4521 75.1468 49.97C75.2405 49.0997 74.9727 48.2428 74.4639 47.5599C74.5041 47.5331 74.5443 47.5197 74.5844 47.4929C75.6154 46.8234 76.2715 45.7389 76.392 44.5204C76.459 43.8107 76.3385 43.0877 76.0439 42.445C75.6958 41.6952 75.5753 40.7579 75.6958 39.5394C75.7627 38.8432 75.9234 38.2942 76.1644 37.8657C76.4054 37.4372 76.5527 36.9686 76.6063 36.4866C76.6866 35.6832 76.4858 34.8932 76.0573 34.2371C76.218 34.1434 76.3653 34.0496 76.4992 33.9291C77.3829 33.2195 77.8783 32.1617 77.8783 31.0369C77.8783 30.3675 77.7042 29.7247 77.3695 29.1624C77.008 28.5464 76.8205 27.7431 76.8205 26.6585C76.8205 26.056 76.9008 25.5605 77.0883 25.1722C77.2758 24.7572 77.3695 24.3019 77.3695 23.86C77.3695 22.8826 76.9276 21.9587 76.1644 21.3428C75.4012 20.7268 74.4104 20.4992 73.4329 20.7134C72.3349 20.9545 71.4244 21.7712 71.0763 22.8692C70.8353 23.6324 70.8889 24.4492 71.2102 25.1588C71.3843 25.5471 71.478 26.0426 71.478 26.6451V27.3681C71.478 27.9305 71.2905 28.5331 70.9156 29.1892C70.38 30.113 70.2863 31.1842 70.6211 32.2152C70.7416 32.5901 70.9424 32.9383 71.1834 33.2462C70.6478 33.6078 70.206 34.1166 69.9382 34.7325C69.6034 35.5359 69.5633 36.4196 69.8445 37.223C70.0051 37.6916 70.0453 38.254 69.9784 38.9503L69.898 39.7537C69.8311 40.4098 69.5499 41.0659 69.0545 41.7755C68.385 42.7128 68.1573 43.8643 68.4118 45.0158C68.5724 45.7523 68.9607 46.4084 69.4963 46.9306C69.0812 47.2787 68.7197 47.7072 68.5055 48.2294C68.1707 49.0327 68.1306 49.9165 68.4118 50.7199C68.5724 51.1885 68.6126 51.7643 68.5457 52.4471L68.4653 53.2371C68.3984 53.8932 68.1172 54.5493 67.6084 55.2724C66.9389 56.2096 66.7113 57.3612 66.9657 58.5127C67.0728 59.0215 67.3272 59.4901 67.6352 59.9186C66.9791 60.3203 66.4167 60.9362 66.0418 61.6994C65.5865 62.6367 65.4125 63.6677 65.5597 64.6586C65.6669 65.3682 65.6133 66.2118 65.3991 67.2026L65.1714 68.2604C64.9706 69.2111 64.5153 70.1618 63.7789 71.1258C62.9487 72.2238 62.5337 73.6029 62.614 75.0222ZM72.6697 30.1934C73.2321 29.2159 73.4999 28.292 73.4999 27.3681V26.6451C73.4999 25.748 73.3526 24.9982 73.058 24.3287C72.9375 24.0609 72.9241 23.7529 73.0044 23.4583C73.1249 23.0567 73.4731 22.7487 73.8748 22.655C73.9685 22.6282 74.0756 22.6282 74.1693 22.6282C74.4505 22.6282 74.7049 22.7219 74.9192 22.896C75.2137 23.137 75.3744 23.4851 75.3744 23.8466C75.3744 24.0073 75.3342 24.1814 75.2673 24.3421C74.9727 24.9982 74.8254 25.748 74.8254 26.7656C74.8254 28.0912 75.1066 29.2427 75.6556 30.18C75.8029 30.4344 75.8832 30.729 75.8832 31.0369C75.8832 31.5591 75.6556 32.0412 75.2405 32.3625C74.8254 32.6973 74.2898 32.8178 73.7409 32.6973C73.1919 32.5768 72.6965 32.1349 72.5224 31.5993C72.3349 30.9834 72.509 30.488 72.6697 30.1934ZM70.688 42.9404C71.4111 41.9362 71.7994 40.9453 71.9065 39.9411L71.9868 39.1377C72.0805 38.1603 72.0136 37.3167 71.7592 36.5669C71.6387 36.2322 71.6521 35.8572 71.7994 35.5091C72.0002 35.0405 72.4555 34.7057 72.9509 34.6388C73.0178 34.6254 73.0848 34.6254 73.1517 34.6254C73.5534 34.6254 73.9149 34.7727 74.1961 35.0405C74.5175 35.3618 74.6782 35.7903 74.6246 36.2455C74.5978 36.4464 74.5443 36.6472 74.4371 36.8347C74.0488 37.5176 73.8078 38.321 73.7007 39.4323C73.5534 40.8918 73.7409 42.1772 74.2363 43.2618C74.3836 43.5831 74.4505 43.9313 74.4104 44.2928C74.3568 44.9087 74.0221 45.4443 73.4999 45.7924C72.9643 46.1406 72.3216 46.2209 71.6922 46.0201C71.0361 45.8058 70.5273 45.2435 70.38 44.574C70.206 43.8375 70.447 43.2885 70.688 42.9404ZM69.2285 56.4507C69.9516 55.4464 70.3399 54.4556 70.447 53.4514L70.5273 52.6614C70.6211 51.6839 70.5541 50.8404 70.2997 50.0905C70.1792 49.7424 70.1926 49.3809 70.3399 49.0327C70.5407 48.5641 70.996 48.2294 71.4914 48.1624C71.5583 48.149 71.6253 48.149 71.6922 48.149C72.0939 48.149 72.4555 48.2963 72.7366 48.5641C73.058 48.8855 73.2187 49.3139 73.1651 49.7692C73.1517 49.97 73.0848 50.1709 72.9777 50.3583C72.5894 51.0412 72.3483 51.8446 72.2412 52.9559C72.0939 54.4154 72.2814 55.7008 72.7768 56.7854C72.9241 57.1068 72.991 57.4549 72.9509 57.8164C72.8973 58.4323 72.5626 58.9679 72.0404 59.3161C71.6521 59.5705 71.1968 59.6776 70.7282 59.6374C70.5006 59.5437 70.2595 59.4767 70.0185 59.4366C69.4695 59.1822 69.0545 58.6867 68.9206 58.0976C68.7465 57.3478 68.9875 56.7854 69.2285 56.4507ZM65.3723 72.3577C66.2828 71.1392 66.8585 69.9475 67.1263 68.7023L67.3406 67.6311C67.6084 66.3992 67.6619 65.3414 67.528 64.3774C67.4343 63.7882 67.5414 63.1723 67.8226 62.5965C68.1707 61.9003 68.8001 61.4049 69.3758 61.3781H69.4562C69.4695 61.3781 69.4829 61.3915 69.4963 61.3915C69.5365 61.4049 69.5633 61.4316 69.6034 61.445C69.7641 61.4986 69.9248 61.5254 70.0855 61.5655C70.2328 61.6459 70.3667 61.7396 70.4872 61.8869C70.9424 62.4091 71.1031 63.2526 70.929 64.0828C70.8621 64.4176 70.7282 64.7523 70.5407 65.0469C70.0319 65.8636 69.657 66.8545 69.4026 68.0863L69.3624 68.2604C68.9741 70.1082 68.9473 71.7551 69.2955 73.1744C69.4294 73.6966 69.4294 74.259 69.3089 74.8348C69.0812 75.906 68.4251 76.8164 67.6084 77.2048C67.2067 77.4056 66.5774 77.5529 65.8811 77.2048C65.1714 76.8566 64.676 75.9461 64.6225 74.9419C64.5689 73.9778 64.8367 73.0673 65.3723 72.3577Z" fill="black"/>
<path d="M43.5069 36.0043C43.0383 36.6336 42.7972 37.4102 42.824 38.2136C42.8374 38.6956 42.9713 39.1643 43.1855 39.6195C43.4132 40.0614 43.5337 40.6238 43.5605 41.4405C43.6006 42.5519 43.4399 43.4758 43.0516 44.1988C42.7169 44.8415 42.5562 45.5244 42.5964 46.2474C42.65 47.4793 43.2391 48.5907 44.2299 49.3271C44.2701 49.3539 44.3103 49.3673 44.3371 49.394C43.7881 50.0501 43.4801 50.8937 43.5203 51.7774C43.5471 52.2594 43.6676 52.7415 43.8818 53.1833C44.1094 53.6252 44.2299 54.1876 44.2567 55.0043C44.2969 56.1157 44.1362 57.0396 43.7479 57.7626C43.4132 58.4053 43.2525 59.0882 43.2793 59.8246C43.3328 61.0565 43.922 62.1678 44.9128 62.9043C45.0735 63.0248 45.2342 63.1185 45.4082 63.2122C44.9128 63.9755 44.712 64.886 44.8459 65.7965C44.9262 66.3053 45.1137 66.8007 45.3948 67.2559C45.7028 67.7246 45.9037 68.3271 46.0242 69.1171L46.0509 69.251C46.2384 70.4695 46.1581 71.5273 45.8099 72.3976C45.5154 73.1206 45.435 73.8839 45.5555 74.6471C45.7564 75.9459 46.5196 77.084 47.6711 77.7401C48.3406 78.1284 49.1038 78.3293 49.867 78.3293C50.416 78.3293 50.965 78.2355 51.4872 78.0213C52.5182 77.6196 53.3751 76.8028 53.8438 75.812C54.299 76.4279 54.8614 76.9233 55.5309 77.2045C56.0129 77.4054 56.4949 77.4991 56.9904 77.4991C57.6465 77.4991 58.3026 77.325 58.9185 76.9635C60.3244 76.1467 61.3152 74.5266 61.5429 72.6386C61.65 71.7147 61.583 70.8176 61.3152 69.9741C60.9537 68.7958 60.8734 67.3363 61.0742 65.6224L61.101 65.4349C61.2349 64.337 61.4625 63.4667 61.8107 62.757C62.0785 62.208 62.2391 61.6323 62.3195 61.0297C62.4668 59.7979 62.2124 58.6196 61.6366 57.6957C61.8508 57.5752 62.0651 57.4547 62.2659 57.294C63.23 56.5308 63.7923 55.3926 63.8057 54.1742C63.8191 53.4511 63.6317 52.7549 63.2835 52.1389C62.8685 51.4159 62.6676 50.5054 62.681 49.2735C62.6944 48.5773 62.7881 48.0149 63.0023 47.5596C63.2166 47.1044 63.3237 46.6357 63.3237 46.1403C63.3371 45.2566 63.0024 44.4398 62.4266 43.7971C62.4668 43.7703 62.5069 43.757 62.5337 43.7302C63.4978 42.967 64.0601 41.8288 64.0735 40.6104C64.0869 39.8873 63.8995 39.1911 63.5513 38.5751C63.1362 37.8655 62.9354 36.9416 62.9488 35.7097C62.9622 35.0135 63.0559 34.4511 63.2701 33.9958C63.4844 33.5406 63.5915 33.0719 63.5915 32.5765C63.6049 31.7731 63.3371 30.9965 62.8417 30.3806C62.989 30.2735 63.1362 30.1664 63.2701 30.0459C64.0869 29.2693 64.502 28.1713 64.3949 27.0466C64.3413 26.3771 64.1137 25.7611 63.7254 25.2256C63.3237 24.623 63.0827 23.8464 62.9756 22.7618C62.922 22.1593 62.9622 21.6639 63.1095 21.2622C63.2568 20.8337 63.3103 20.3785 63.2701 19.9366C63.1898 18.9592 62.6676 18.0888 61.8508 17.5398C61.0475 16.9909 60.0432 16.8436 59.0792 17.1515C58.008 17.4863 57.1778 18.3834 56.9234 19.5081C56.7493 20.2981 56.8699 21.1015 57.2582 21.7844C57.4724 22.1593 57.5929 22.628 57.6465 23.2439L57.7134 23.9535C57.767 24.5159 57.6331 25.1318 57.3117 25.8281C56.8699 26.7922 56.8565 27.8767 57.2715 28.8676C57.4322 29.2291 57.6598 29.5504 57.9276 29.845C57.4188 30.2601 57.0305 30.7957 56.8163 31.4384C56.5485 32.2686 56.5887 33.1523 56.9368 33.9289C57.1376 34.3841 57.2314 34.9465 57.218 35.6428L57.2046 36.4462C57.1912 37.1023 56.977 37.7851 56.5351 38.5483C55.946 39.5526 55.8255 40.7175 56.1736 41.8288C56.4012 42.5385 56.8431 43.1678 57.4188 43.6498C57.0305 44.0248 56.7226 44.4934 56.5485 45.029C56.2807 45.8591 56.3209 46.7429 56.669 47.5195C56.8699 47.9747 56.9636 48.5371 56.9502 49.2334L56.9368 50.0367C56.9234 50.6928 56.7092 51.3757 56.2673 52.1389C55.6782 53.1432 55.5443 54.3081 55.9058 55.4194C56.0665 55.9282 56.361 56.3835 56.7092 56.7852C56.0799 57.2806 55.5443 57.9902 55.2229 58.8606C54.848 59.8916 54.7677 60.9628 54.9819 61.9804C55.1426 62.7436 55.156 63.6541 55.0221 64.7521L54.8882 65.9036C54.7543 66.9614 54.3794 68.0192 53.7099 69.1573C53.3885 69.7063 53.1743 70.2954 53.027 70.9247C52.5985 70.2954 52.3307 69.6929 52.237 69.0903L52.1031 68.22C51.9826 67.4434 51.996 66.8007 52.1433 66.2651C52.3977 65.3814 52.3039 64.4441 51.8889 63.5872C51.5809 62.9712 51.1123 62.4624 50.5499 62.1143C50.8445 61.726 51.0989 61.2975 51.2328 60.8289C51.5541 59.6907 51.3934 58.5392 50.7775 57.5618C50.3089 56.812 50.0679 56.1425 50.0411 55.4864L50.0009 54.6428C49.9741 53.9465 50.0411 53.3842 50.2285 52.9289C50.5499 52.1389 50.5633 51.2552 50.2687 50.425C50.0813 49.9028 49.7465 49.4476 49.3582 49.0861C49.9072 48.5907 50.3357 47.9479 50.5365 47.2383C50.8579 46.1136 50.6972 44.9486 50.0813 43.9712C49.6126 43.2348 49.3716 42.5519 49.3448 41.8958L49.3047 41.0924C49.2779 40.3961 49.3448 39.8338 49.5323 39.3785C49.8536 38.5885 49.867 37.7048 49.5724 36.8746C49.3448 36.2453 48.9297 35.7231 48.4075 35.3214C48.6619 35.0268 48.8896 34.6921 49.0235 34.3306C49.4118 33.3264 49.3716 32.2418 48.8896 31.2911C48.5548 30.6082 48.3941 30.0057 48.4343 29.4299L48.4745 28.7203C48.5147 28.1177 48.6218 27.6357 48.8092 27.2608C49.1708 26.5645 49.2779 25.7478 49.077 24.9578C48.7958 23.8598 47.9389 22.9761 46.8543 22.6815C45.8903 22.4137 44.886 22.5878 44.096 23.1635C43.306 23.7393 42.8106 24.623 42.7571 25.6005C42.7303 26.0423 42.8106 26.4976 42.9713 26.9261C43.1186 27.3277 43.1855 27.8098 43.1454 28.5328C43.0918 29.4969 42.8642 30.2869 42.4625 30.8894C42.101 31.4384 41.8867 32.0677 41.8466 32.7238C41.7796 33.8485 42.2349 34.9331 43.065 35.6829C43.2123 35.8035 43.3596 35.8972 43.5069 36.0043ZM61.8107 54.1474C61.8107 54.7633 61.5161 55.3257 61.0341 55.714C60.6725 56.0086 60.2307 56.1425 59.7754 56.1559C59.5344 56.0755 59.2666 56.022 59.0122 56.0086C58.4632 55.7943 58.008 55.3525 57.8205 54.7767C57.5929 54.0403 57.7937 53.4645 57.9946 53.1164C58.6239 52.0452 58.9319 51.041 58.9453 50.0234L58.9587 49.22C58.972 48.2291 58.8248 47.399 58.5034 46.6759C58.3561 46.3412 58.3427 45.9797 58.4498 45.6181C58.6105 45.1361 59.0256 44.7478 59.521 44.6541C59.6281 44.6273 59.7486 44.6139 59.8558 44.6139C60.2039 44.6139 60.5253 44.721 60.793 44.9486C61.1412 45.2298 61.342 45.6583 61.3286 46.1136C61.3286 46.3144 61.2751 46.5152 61.1947 46.7161C60.86 47.4257 60.6993 48.2559 60.6859 49.3673C60.6725 50.8401 60.9671 52.0988 61.5563 53.1298C61.7303 53.4377 61.8107 53.7859 61.8107 54.1474ZM58.7846 33.0987C58.6373 32.764 58.6239 32.4025 58.731 32.0409C58.8917 31.5589 59.3068 31.184 59.8022 31.0769C59.9093 31.0501 60.0298 31.0367 60.1369 31.0367C60.4851 31.0367 60.8064 31.1438 61.0742 31.3714C61.4224 31.6526 61.6232 32.0811 61.6098 32.5364C61.6098 32.7372 61.5563 32.938 61.4759 33.1389C61.1412 33.8486 60.9805 34.6787 60.9671 35.7901C60.9537 37.2629 61.2349 38.5216 61.8374 39.5526C62.0115 39.8605 62.1052 40.2087 62.1052 40.5702C62.1052 41.1861 61.8107 41.7619 61.3286 42.1368C60.8332 42.5385 60.2039 42.6724 59.5478 42.5117C58.8783 42.3644 58.3159 41.8422 58.1151 41.1861C57.8875 40.4497 58.0883 39.8739 58.2892 39.5258C58.9185 38.4546 59.2264 37.4504 59.2398 36.4328L59.2532 35.6294C59.2398 34.6519 59.0925 33.8218 58.7846 33.0987ZM58.8917 19.9366C58.9854 19.5349 59.2934 19.1868 59.6817 19.0663C59.8156 19.0261 59.9495 18.9993 60.07 18.9993C60.311 18.9993 60.5386 19.0663 60.7395 19.2002C61.0474 19.401 61.2483 19.7358 61.2751 20.0973C61.2885 20.258 61.2617 20.432 61.2081 20.5927C60.9671 21.2622 60.9002 22.0388 60.9805 23.043C61.101 24.3686 61.4759 25.4934 62.1052 26.3637C62.2793 26.6047 62.3864 26.8859 62.4132 27.1939C62.4534 27.7027 62.2659 28.2115 61.891 28.573C61.5027 28.9479 60.9805 29.1086 60.4315 29.0416C59.8692 28.9747 59.347 28.573 59.1327 28.0508C58.8783 27.4616 58.9988 26.9528 59.1461 26.6449C59.6147 25.6273 59.8022 24.6766 59.7219 23.7661L59.6549 23.0564C59.5746 22.1593 59.3737 21.4229 59.0122 20.7936C58.8649 20.5392 58.8248 20.2312 58.8917 19.9366ZM55.4505 70.1347C56.2539 68.769 56.7226 67.4434 56.8832 66.1044L57.0171 64.9529C57.1778 63.6273 57.151 62.516 56.9502 61.5117C56.8029 60.869 56.8699 60.1728 57.1109 59.5167C57.4054 58.7133 58.008 58.1108 58.5837 58.017C58.6239 58.017 58.6507 58.017 58.6909 58.0036C58.731 58.017 58.7578 58.0304 58.798 58.0438C58.9453 58.084 59.0925 58.0706 59.2532 58.0974C59.3871 58.1643 59.521 58.2447 59.6415 58.3652C60.1771 58.874 60.4449 59.8246 60.3244 60.7887C60.2842 61.1636 60.1637 61.5519 60.003 61.8867C59.5612 62.7972 59.28 63.8817 59.1193 65.1939L59.0925 65.3814C58.8515 67.3765 58.9587 69.1171 59.4005 70.5632C59.5746 71.1256 59.6281 71.7415 59.5478 72.3842C59.4005 73.6295 58.7712 74.714 57.9142 75.2094C57.392 75.5174 56.8565 75.5576 56.3209 75.33C55.5844 75.022 55.0087 74.0847 54.8748 73.0001C54.7543 71.9959 54.9551 70.9649 55.4505 70.1347ZM51.755 72.5315C52.0495 72.9064 52.3709 73.5223 52.2236 74.4061C52.1031 75.1827 51.5407 75.8655 50.8043 76.1467C50.0946 76.4145 49.3448 76.3744 48.7155 75.9994C48.0996 75.6379 47.6845 75.0354 47.5774 74.3391C47.5104 73.924 47.564 73.5223 47.7113 73.134C48.1933 71.9424 48.3138 70.523 48.0594 68.9431L48.0326 68.8092C47.8719 67.7514 47.564 66.881 47.1087 66.1714C46.9748 65.9571 46.8811 65.7295 46.8543 65.5019C46.774 64.9797 46.9347 64.4575 47.2828 64.0692C47.4836 63.8416 47.7514 63.7077 48.0326 63.6139C48.1665 63.5872 48.3004 63.6005 48.4209 63.5604C48.4745 63.547 48.5147 63.5202 48.5548 63.5068H48.5682H48.6887C49.2779 63.547 49.8269 63.9085 50.0813 64.4441C50.2821 64.8458 50.3223 65.2743 50.2018 65.6893C49.9741 66.5195 49.9474 67.43 50.108 68.4878L50.2419 69.3581C50.4294 70.4427 50.9114 71.4871 51.755 72.5315ZM49.3047 60.2531C49.144 60.8423 48.6753 61.3109 48.113 61.5385C47.8853 61.5653 47.6577 61.6189 47.4435 61.6992C46.9748 61.726 46.5196 61.5787 46.1313 61.2975C45.6359 60.936 45.3279 60.3736 45.3011 59.7577C45.2877 59.3962 45.3681 59.048 45.5287 58.7267C46.0911 57.6823 46.3321 56.4103 46.2652 54.8169C46.225 53.826 46.0376 53.0093 45.676 52.313C45.5823 52.1255 45.5287 51.9247 45.5154 51.7239C45.502 51.2686 45.676 50.8401 46.0242 50.5456C46.292 50.3045 46.6267 50.184 46.9882 50.184C47.082 50.184 47.1757 50.1974 47.2694 50.2108C47.7648 50.2911 48.1933 50.6661 48.3674 51.1347C48.5013 51.4962 48.4879 51.8711 48.354 52.2059C48.0594 52.9289 47.9389 53.7725 47.9791 54.7499L48.0192 55.5533C48.0594 56.5709 48.4075 57.5618 49.0636 58.6196C49.3047 58.9409 49.5189 59.5033 49.3047 60.2531ZM48.6084 46.6893C48.4209 47.3454 47.8853 47.881 47.2158 48.0551C46.5731 48.2291 45.9438 48.1086 45.4216 47.7337C44.9262 47.3722 44.6182 46.8098 44.5915 46.1939C44.5781 45.8324 44.6584 45.4842 44.8191 45.1629C45.3815 44.1185 45.6225 42.8465 45.5555 41.2531C45.5154 40.2622 45.3279 39.4455 44.9798 38.7492C44.886 38.5617 44.8325 38.3475 44.8191 38.1467C44.8057 37.6914 44.9798 37.2629 45.3145 36.9684C45.6493 36.6738 46.1045 36.5533 46.5731 36.6336C47.0686 36.714 47.497 37.0889 47.6711 37.5575C47.805 37.919 47.7916 38.2939 47.6577 38.6287C47.3631 39.3517 47.2426 40.1953 47.2828 41.1727L47.323 41.9761C47.3631 42.9937 47.7113 43.9846 48.3674 45.0424C48.595 45.3771 48.8226 45.9395 48.6084 46.6893ZM44.1362 31.9874C44.7387 31.0903 45.0735 29.9655 45.1538 28.5194C45.2074 27.6223 45.1003 26.8591 44.8459 26.1896C44.7789 26.0289 44.7521 25.8549 44.7655 25.6942C44.7923 25.3193 44.9664 24.9845 45.2743 24.7703C45.5823 24.5561 45.9572 24.4891 46.3321 24.5962C46.7204 24.7034 47.0552 25.0381 47.1489 25.4398C47.2292 25.7478 47.1891 26.0423 47.0418 26.3235C46.707 26.9662 46.533 27.7027 46.4794 28.5998L46.4392 29.3228C46.3857 30.2467 46.6133 31.184 47.1087 32.1882C47.2694 32.4962 47.4033 32.9916 47.1623 33.5941C46.9614 34.1163 46.4526 34.5314 45.8903 34.6118C45.3279 34.6921 44.8191 34.5448 44.4174 34.1967C44.0291 33.8485 43.8282 33.3531 43.855 32.8309C43.8684 32.523 43.9621 32.2418 44.1362 31.9874Z" fill="black"/>
<path d="M41.9269 79.0926C43.2792 78.5436 44.2701 77.2582 44.4843 75.8255C44.6584 74.607 44.3236 73.4154 43.547 72.4781C42.9445 71.755 42.583 71.0588 42.4625 70.3491L42.3018 69.5055C42.1679 68.7557 42.1679 68.1398 42.3018 67.631C42.5294 66.774 42.4223 65.8501 41.9938 65.02C41.7126 64.471 41.2842 64.0291 40.7888 63.7078C41.3243 63.1053 41.6993 62.3688 41.8198 61.5654C41.9938 60.347 41.6591 59.1553 40.8825 58.218C40.2799 57.495 39.9184 56.7987 39.7979 56.089L39.6506 55.2455C39.5167 54.509 39.5167 53.8931 39.6506 53.3709C39.8783 52.514 39.7711 51.5901 39.3427 50.7599C39.0079 50.1172 38.4723 49.6218 37.8564 49.2737C38.0974 48.9121 38.3117 48.5238 38.4188 48.0954C38.6866 46.9974 38.4857 45.8727 37.8698 44.9488C37.4012 44.2659 37.1601 43.6366 37.1066 43.0206L37.053 42.2574C36.9995 41.6013 37.053 41.0657 37.2137 40.6373C37.4949 39.8607 37.4815 39.0037 37.1735 38.2137C36.7317 37.1158 35.714 36.3258 34.5491 36.1517C33.5181 36.0178 32.4871 36.3258 31.7507 37.022C31.0009 37.7183 30.6126 38.7092 30.6929 39.7402C30.7331 40.2088 30.867 40.6641 31.0946 41.0925C31.3222 41.4942 31.4561 42.0164 31.5097 42.793C31.59 43.8374 31.4561 44.7211 31.1214 45.4174C30.8134 46.0333 30.6795 46.7296 30.7331 47.4125C30.8268 48.5908 31.4293 49.6486 32.4068 50.3314C32.5808 50.452 32.7817 50.5591 32.9691 50.6528C32.5273 51.3892 32.3666 52.2462 32.5273 53.1031C32.621 53.5985 32.8085 54.0806 33.103 54.509C33.411 54.9509 33.6119 55.5401 33.7458 56.2765L33.7725 56.4104C33.9868 57.5887 33.9332 58.6063 33.6119 59.4365C33.3441 60.1461 33.2771 60.8826 33.411 61.6458C33.6386 62.9178 34.4152 64.0024 35.54 64.6183C35.6069 64.6585 35.6739 64.6719 35.7408 64.6986C35.2186 65.4752 35.0044 66.4125 35.1651 67.3498C35.2588 67.8452 35.4462 68.3273 35.7408 68.7557C36.0488 69.1976 36.2496 69.7867 36.3835 70.5232L36.4103 70.6571C36.6245 71.8354 36.571 72.853 36.2496 73.6831C35.9818 74.3794 35.9149 75.1426 36.0488 75.8925C36.2764 77.1645 37.053 78.249 38.1778 78.865C38.8205 79.2131 39.5167 79.3872 40.2264 79.3872C40.8155 79.4139 41.3779 79.3068 41.9269 79.0926ZM33.478 42.5252C33.3976 41.5746 33.1968 40.798 32.8353 40.1419C32.7415 39.9678 32.688 39.7803 32.6746 39.5929C32.6478 39.1778 32.7951 38.7761 33.103 38.4949C33.3575 38.2539 33.6788 38.1334 34.0403 38.1334C34.1073 38.1334 34.1876 38.1334 34.2546 38.1468C34.7098 38.2137 35.1249 38.5351 35.299 38.9636C35.4329 39.2983 35.4329 39.633 35.3124 39.9544C35.0579 40.6641 34.9642 41.4674 35.0446 42.4181L35.0981 43.1813C35.1785 44.1588 35.54 45.1094 36.1961 46.0869C36.4103 46.4083 36.6379 46.9305 36.4639 47.6267C36.3166 48.2426 35.8212 48.7515 35.2052 48.9389C34.6161 49.113 34.0135 49.0326 33.5315 48.6979C33.0629 48.3765 32.7549 47.8543 32.7147 47.292C32.688 46.9572 32.7549 46.6359 32.9022 46.3279C33.3976 45.2835 33.5985 44.0517 33.478 42.5252ZM35.3927 61.2976C35.3257 60.8959 35.3525 60.5076 35.4998 60.1461C35.9417 58.9678 36.022 57.6021 35.7542 56.0623L35.7274 55.9284C35.54 54.8973 35.232 54.0672 34.7634 53.3843C34.6295 53.1835 34.5357 52.9692 34.4956 52.755C34.4019 52.2596 34.5491 51.7641 34.8705 51.3758C35.1918 51.0143 35.6337 50.8135 36.1291 50.8135H36.2095C36.7718 50.8403 37.294 51.175 37.5618 51.6704C37.7627 52.0453 37.8028 52.4604 37.7091 52.8621C37.5083 53.6655 37.4949 54.5626 37.6823 55.5802L37.8296 56.4238C38.0171 57.4816 38.5125 58.4858 39.3561 59.49C39.6506 59.8382 39.972 60.4273 39.8515 61.2709C39.7444 62.0073 39.2355 62.6768 38.5259 62.958C37.8564 63.2391 37.1334 63.199 36.5308 62.8642C35.9149 62.5429 35.5132 61.9671 35.3927 61.2976ZM39.1686 77.1377C38.5661 76.803 38.1644 76.2406 38.0439 75.5711C37.9769 75.1694 38.0037 74.7811 38.151 74.4196C38.5928 73.2413 38.6732 71.8755 38.4054 70.3357L38.3786 70.2018C38.1911 69.1708 37.8832 68.3406 37.4145 67.6578C37.2806 67.4569 37.1869 67.2427 37.1467 67.0284C37.053 66.533 37.2003 66.0376 37.535 65.6493C37.8698 65.2744 38.3384 65.1003 38.874 65.0869C39.4364 65.1137 39.9586 65.4485 40.2264 65.9439C40.4272 66.3188 40.4674 66.7339 40.3603 67.1222C40.1594 67.9256 40.146 68.8227 40.3335 69.8403L40.4808 70.6838C40.6682 71.7416 41.1637 72.7459 42.0072 73.7501C42.3018 74.0982 42.6232 74.6874 42.5026 75.5309C42.3955 76.2808 41.8867 76.9369 41.1771 77.218C40.4942 77.4992 39.7845 77.4724 39.1686 77.1377Z" fill="black"/>
<path d="M101.23 55.2186C100.976 54.2277 100.293 53.411 99.3421 52.9691C98.2709 52.4737 96.9989 52.6076 96.0215 53.3038C95.3386 53.7993 94.8699 54.5089 94.6959 55.3123C94.5888 55.7675 94.3477 56.2496 93.9594 56.7718L93.5042 57.3877C93.1293 57.8831 92.5803 58.2848 91.8305 58.6062C90.7995 59.048 90.0362 59.8782 89.6747 60.9494C89.5274 61.3645 89.5007 61.8063 89.5007 62.2482C88.791 62.1946 88.0813 62.3285 87.4386 62.7034C86.6486 63.1587 86.0595 63.8817 85.7917 64.7253C85.6176 65.2341 85.2829 65.7563 84.7741 66.3187L84.1983 66.948C83.7163 67.4702 83.0468 67.8719 82.1363 68.1531C80.9714 68.5146 80.0609 69.3447 79.5521 70.4695C79.2039 71.2327 79.137 72.0762 79.2709 72.893C77.1285 72.8395 76.285 74.4864 75.6958 75.6513C75.4147 76.2137 75.1335 76.7359 74.7987 77.0438C71.6655 78.4096 69.6838 80.5921 69.4562 82.8952C69.3357 84.2475 69.8847 85.4794 70.9291 86.1756C71.5584 86.5907 72.2948 86.805 73.125 86.805C74.1292 86.805 75.254 86.497 76.4055 85.8945C76.6733 85.7606 76.8607 85.5062 76.9143 85.225C77.3829 83.0558 78.9228 81.6499 80.2885 80.4047C81.5605 79.2398 82.779 78.1418 82.8326 76.602C82.8326 76.535 82.8192 76.4681 82.8192 76.4011C82.9397 76.4145 83.0602 76.4547 83.1807 76.4681C83.2744 76.4681 83.3682 76.4815 83.4619 76.4815C84.6536 76.4815 85.7783 75.986 86.5817 75.1157C87.0905 74.5533 87.452 73.8839 87.5993 73.1474C87.7868 72.2771 88.2956 71.3934 89.099 70.5096L89.1793 70.4159C89.6881 69.8535 90.1835 69.4786 90.6923 69.2644C91.1744 69.0502 91.5895 68.7556 91.9242 68.3941C92.5133 67.7514 92.8481 66.9346 92.8749 66.0776C93.0489 66.1044 93.2096 66.1312 93.3837 66.1312H93.5176C94.7093 66.091 95.7938 65.5287 96.5035 64.578C96.9186 64.0156 97.1864 63.3729 97.2533 62.69C97.347 61.9134 97.7086 61.0967 98.4048 60.1728C98.8065 59.6506 99.1948 59.2757 99.6099 59.048C100.025 58.8204 100.387 58.499 100.668 58.1241C101.284 57.2538 101.484 56.2094 101.23 55.2186ZM78.9228 78.905C77.5034 80.2038 75.7628 81.7972 75.0531 84.3011C73.8079 84.8768 72.6831 84.9572 72.0137 84.5019C71.5718 84.2073 71.3709 83.6985 71.4245 83.0692C71.545 81.8374 72.7233 80.0833 75.6824 78.8247C75.7628 78.7979 75.8297 78.7443 75.8967 78.7042C76.6465 78.1284 77.075 77.2982 77.4499 76.5618C77.9855 75.5174 78.3068 74.8881 79.1772 74.8881C79.4182 74.8881 79.7128 74.9416 80.0609 75.0354C80.5697 75.6111 80.8241 76.1066 80.8107 76.4949C80.7839 77.2045 79.9136 77.9945 78.9228 78.905ZM90.4379 66.9881C90.2906 67.1488 90.0898 67.2827 89.8756 67.3764C89.1124 67.6978 88.4027 68.2334 87.693 69.01L87.6127 69.1037C86.5549 70.2552 85.8988 71.4469 85.631 72.6788C85.5507 73.0671 85.3632 73.4018 85.0954 73.7098C84.6402 74.2052 83.9841 74.4596 83.3012 74.4328C82.6049 74.3927 81.989 74.0311 81.5605 73.442C81.1187 72.8261 81.0383 71.9825 81.3597 71.2996C81.7078 70.5364 82.297 70.2017 82.7254 70.0678C83.9707 69.6661 84.9348 69.0903 85.6578 68.3003L86.2336 67.671C86.9432 66.9078 87.4118 66.1446 87.6796 65.3546C87.8002 64.9663 88.0679 64.6583 88.4295 64.4441C88.6839 64.2968 88.9651 64.2299 89.2462 64.2299C89.5274 64.2299 89.8086 64.2968 90.0362 64.4441C90.4915 64.7119 90.7861 65.127 90.8664 65.6358C90.9334 66.1178 90.7727 66.6132 90.4379 66.9881ZM99.0475 56.8789C98.9404 57.0262 98.7931 57.1467 98.6191 57.2404C97.963 57.6019 97.3604 58.1509 96.7177 59.0079C95.8742 60.1326 95.3787 61.2841 95.2449 62.4089C95.2047 62.7436 95.0842 63.0382 94.8833 63.3194C94.5352 63.7746 94.013 64.0558 93.4372 64.0692C92.8213 64.1094 92.2991 63.8416 91.884 63.3729C91.4689 62.8909 91.335 62.1946 91.5359 61.5921C91.7635 60.9092 92.2322 60.5879 92.5803 60.4406C93.6649 59.9719 94.4816 59.3694 95.0708 58.5794L95.526 57.9635C96.1018 57.2002 96.4499 56.4772 96.624 55.7274C96.6909 55.406 96.8918 55.1114 97.1596 54.9106C97.3872 54.7499 97.6684 54.6696 97.9496 54.6696C98.137 54.6696 98.3111 54.7098 98.4852 54.7767C98.8869 54.9642 99.168 55.2855 99.2618 55.6872C99.3957 56.1157 99.3019 56.5308 99.0475 56.8789Z" fill="black"/>
<path d="M63.9262 83.1897C62.7881 82.9085 61.7437 83.029 60.8734 83.4709C60.7662 82.9085 60.5922 82.3997 60.2708 81.9713C58.8247 80.003 54.5266 79.8423 53.2546 79.8423C52.0495 79.8423 48.1665 80.003 46.5196 81.6767C45.3413 80.2038 43.8684 80.2306 43.1855 80.3377C40.9762 80.726 38.9678 83.096 38.874 85.4258C38.8339 86.2828 39.0749 88.2109 41.4984 89.2419C40.0389 91.6654 39.4766 95.1869 40.936 97.3695C41.4449 98.1327 42.4759 99.1235 44.4308 99.1235C45.1404 99.1235 45.9572 98.9896 46.9213 98.6683C47.4568 100.623 48.7423 101.668 49.7867 102.19C50.8712 102.739 52.1433 102.993 53.4956 102.993C57.392 102.993 61.8642 100.891 63.8057 97.6908C64.1137 97.182 64.4886 96.4054 64.6627 95.4413C69.2955 94.5041 70.1123 92.0002 70.1658 90.5675C70.2863 87.3004 66.9121 83.9128 63.9262 83.1897ZM47.8451 83.1763C48.3138 82.547 50.3624 81.8641 53.2412 81.8641C56.12 81.8641 58.182 82.5336 58.6373 83.1763C59.3603 84.1538 58.9051 86.8585 57.5795 89.4829C56.2807 92.0537 54.4998 93.8479 53.2546 93.8479C51.996 93.8479 50.2017 92.0403 48.9029 89.4561C47.5907 86.8317 47.1355 84.1404 47.8451 83.1763ZM40.8825 85.5195C40.936 84.1404 42.2482 82.5604 43.5337 82.3328C44.3638 82.1989 45.0199 82.7077 45.4886 83.8592C45.5019 83.8994 45.5421 83.9262 45.5555 83.9663C45.4752 84.7429 45.5555 85.5999 45.743 86.4702C44.7387 86.4166 43.7345 86.8049 42.8374 87.5949C41.5118 87.22 40.8423 86.5238 40.8825 85.5195ZM42.5964 96.2715C41.5118 94.6513 42.2081 91.0763 43.9487 89.2954C45.0333 88.1841 45.9304 88.4519 46.3991 88.7063C46.6133 89.282 46.8543 89.8444 47.1087 90.3532C47.256 90.6478 47.497 91.0763 47.805 91.5851C47.015 93.6069 46.6802 95.2807 46.6668 96.6464C45.2208 97.182 43.4265 97.5033 42.5964 96.2715ZM62.0918 96.6598C60.0298 100.061 53.9509 102.069 50.6972 100.422C48.1799 99.1503 48.4879 96.0305 49.2377 93.5668C50.3089 94.7852 51.688 95.8564 53.2546 95.8564C56.3744 95.8564 58.731 91.6788 59.3737 90.3934C59.5076 90.1256 59.6415 89.831 59.7754 89.5365C61.9579 91.3039 63.8057 93.8346 62.0918 96.6598ZM64.676 93.4061C64.3949 91.6788 63.2835 89.6436 60.4984 87.5548C60.619 87.1665 60.7127 86.7782 60.7796 86.3899C60.793 86.3765 60.8064 86.3631 60.8064 86.3497C61.3286 85.2384 62.1989 84.85 63.4442 85.158C65.8008 85.7338 68.2243 88.4787 68.144 90.5139C68.0904 92.1742 66.3899 92.991 64.676 93.4061Z" fill="black"/>
<rect x="1" y="1" width="118" height="118" rx="7" stroke="black" stroke-width="2"/>
<line x1="110" y1="59" x2="120" y2="59" stroke="black" stroke-width="2"/>
<line y1="59" x2="10" y2="59" stroke="black" stroke-width="2"/>
<line x1="61.005" y1="110.005" x2="61.005" y2="120.005" stroke="black" stroke-width="2"/>
<line x1="61.005" y1="0.00488286" x2="61.005" y2="10.0049" stroke="black" stroke-width="2"/>
</g>
<defs>
<clipPath id="clip0_291_149">
<rect width="120" height="120" fill="white"/>
</clipPath>
</defs>
</svg>
