<svg width="125" height="231" viewBox="0 0 125 231" fill="none" xmlns="http://www.w3.org/2000/svg">
<path d="M57.7899 230.85L55.5677 231C55.5677 231 47.8047 139.711 41.5357 115.599C35.2667 91.4874 28.4647 75.3405 28.4647 75.3405L29.3206 75.4305C29.3206 75.4305 39.1708 99.8649 42.4141 112.611C45.5373 124.855 48.2326 153.553 51.4985 167.028C54.7643 180.502 57.6773 230.767 57.7824 230.842L57.7899 230.85Z" fill="#E0E59B"/>
<path d="M29.178 74.342C29.9963 74.6648 30.0639 66.3623 27.3536 61.5655C24.6358 56.7687 18.5095 51.3939 17.2932 52.7451C16.077 54.0963 17.5785 62.7441 20.1086 66.047C22.6312 69.35 28.3897 74.0342 29.1855 74.342H29.178Z" fill="#E0E59B"/>
<path d="M30.7621 83.6804C31.6405 83.5978 27.9768 76.1512 23.397 73.0809C18.8173 70.0107 10.9267 67.9538 10.4462 69.7104C9.9657 71.467 15.1911 78.5158 18.9224 80.3324C22.6613 82.149 29.9062 83.7555 30.7546 83.6804H30.7621Z" fill="#E0E59B"/>
<path d="M38.2699 104.782C39.2609 104.452 31.9634 98.9115 26.1674 96.8622C20.3714 94.8204 12.736 93.274 12.4883 95.3083C12.2405 97.3502 20.424 102.672 25.0337 103.596C29.6435 104.519 37.3089 105.097 38.2699 104.774V104.782Z" fill="#E0E59B"/>
<path d="M34.8463 94.2799C35.5596 94.0698 30.7246 89.2054 26.3926 87.3963C22.0607 85.5872 13.8247 83.8381 13.7121 85.3845C13.6069 86.9309 20.2062 90.5191 23.6298 91.4274C27.0533 92.3357 34.1481 94.4826 34.8463 94.2799Z" fill="#E0E59B"/>
<path d="M42.1889 125.673C43.2024 125.29 37.399 120.043 31.7907 118.504C26.1749 116.965 15.2286 116.147 14.8232 118.084C14.4253 120.021 22.8415 123.406 27.3611 123.969C31.8808 124.532 41.2129 126.041 42.1889 125.673Z" fill="#E0E59B"/>
<path d="M43.1273 137.391C43.9832 137.121 38.465 131.716 33.4273 129.809C28.3896 127.902 18.7347 126.213 18.547 128C18.3593 129.787 26.0097 133.653 30.0113 134.561C34.0129 135.462 42.3015 137.661 43.1348 137.398L43.1273 137.391Z" fill="#E0E59B"/>
<path d="M46.0704 149.432C47.1966 148.974 41.1603 143.794 35.1091 142.511C29.0579 141.227 17.1131 141.009 16.5575 143.074C16.0019 145.138 25.0187 148.193 29.9363 148.516C34.8463 148.839 44.9743 149.875 46.0704 149.432Z" fill="#E0E59B"/>
<path d="M46.7836 162.298C47.9098 161.84 42.2339 153.14 36.1827 151.856C30.1314 150.573 17.8338 153.876 17.2782 155.94C16.7226 158.005 25.7394 161.06 30.657 161.383C35.567 161.705 45.695 162.741 46.7911 162.298H46.7836Z" fill="#E0E59B"/>
<path d="M49.2011 174.594C50.1771 174.272 44.0132 168.311 38.3224 166.262C32.6315 164.213 21.6927 162.501 21.445 164.505C21.1972 166.51 29.5458 172.215 34.073 173.153C38.6002 174.091 48.2551 174.902 49.2011 174.587V174.594Z" fill="#E0E59B"/>
<path d="M50.8078 189.645C51.7838 189.323 45.62 183.362 39.9291 181.313C34.2383 179.264 23.2995 177.552 23.0517 179.556C22.804 181.561 32.8643 189.315 37.3915 190.253C41.9187 191.192 49.8619 189.953 50.8078 189.638V189.645Z" fill="#E0E59B"/>
<path d="M51.2507 202.88C52.2267 202.557 46.0629 196.597 40.372 194.547C34.6811 192.498 23.7424 190.786 23.4946 192.791C23.2469 194.795 31.8657 198.999 36.3929 199.937C40.9201 200.875 50.3047 203.187 51.2432 202.872L51.2507 202.88Z" fill="#E0E59B"/>
<path d="M40.6649 114.548C41.6334 114.203 35.8674 108.835 30.3943 107.139C24.9211 105.442 14.3127 104.301 13.9899 106.208C13.6595 108.115 21.903 111.718 26.28 112.409C30.6645 113.107 39.7264 114.878 40.6649 114.548Z" fill="#E0E59B"/>
<path d="M31.2351 79.9422C31.4228 80.6628 36.4455 76.0011 38.3975 71.7298C40.3495 67.466 42.3766 59.2911 40.8375 59.126C39.2984 58.9684 35.4845 65.4392 34.4635 68.8322C33.4424 72.2177 31.0549 79.2365 31.2351 79.9422Z" fill="#E0E59B"/>
<path d="M57.0242 201.041C56.9641 202.234 67.2647 197.205 72.4826 191.462C77.693 185.719 84.9455 173.986 82.5655 173.078C80.1856 172.17 70.9285 180.51 67.6326 185.299C64.3367 190.088 57.0842 199.885 57.0242 201.041Z" fill="#E0E59B"/>
<path d="M44.3661 116.012C44.5538 116.733 49.5765 112.071 51.5285 107.8C53.4805 103.536 55.5076 95.3608 53.9685 95.1957C52.4294 95.0381 48.6155 101.509 47.5944 104.902C46.5734 108.287 44.1859 115.306 44.3661 116.012Z" fill="#E0E59B"/>
<path d="M35.9124 90.3465C36.1001 91.0671 44.4186 87.8693 46.3706 83.5979C48.3227 79.3341 47.0539 69.6954 45.5148 69.5303C43.9757 69.3727 40.1617 75.8435 39.1407 79.2365C38.1196 82.622 35.7322 89.6408 35.9124 90.3465Z" fill="#E0E59B"/>
<path d="M50.9279 137.083C50.7777 137.811 59.6669 138.555 63.2856 135.567C66.9044 132.579 69.96 123.346 68.6462 122.535C67.3323 121.717 61.0784 125.891 58.6834 128.496C56.2884 131.1 51.0781 136.378 50.9354 137.091L50.9279 137.083Z" fill="#E0E59B"/>
<path d="M45.3496 126.371C45.3046 127.039 56.904 123.188 60.9732 118.932C65.0424 114.676 67.1371 105.6 65.2752 105.6C63.4132 105.6 56.1833 112.138 53.6231 115.471C51.063 118.804 45.3947 125.726 45.3496 126.379V126.371Z" fill="#E0E59B"/>
<path d="M41.0101 104.414C41.1978 105.135 47.7821 99.7974 49.7341 95.5336C51.6862 91.2697 52.1591 83.763 50.6125 83.6054C49.0735 83.4477 45.2595 89.9185 44.2385 93.3116C43.2174 96.6971 40.83 103.716 41.0101 104.422V104.414Z" fill="#E0E59B"/>
<path d="M54.7419 179.061C54.7944 179.736 68.421 176.726 71.8595 171.974C75.298 167.223 76.8822 158.522 75.0353 158.74C73.1959 158.958 63.9388 163.499 61.8592 167.148C59.7795 170.788 54.6893 178.4 54.7419 179.061Z" fill="#E0E59B"/>
<path d="M49.3363 150.685C49.1335 151.406 57.5047 150.092 61.3411 147.383C65.1776 144.673 69.3519 138.427 68.0981 137.511C66.8443 136.595 60.2976 140.281 57.7074 142.698C55.1247 145.115 49.5315 149.987 49.3363 150.678V150.685Z" fill="#E0E59B"/>
<path d="M51.7537 162.186C51.6336 162.921 61.0483 162.366 64.5394 159.228C68.0305 156.09 70.1852 147.668 68.8338 146.91C67.4824 146.151 61.4087 150.58 59.1263 153.283C56.844 155.985 51.8588 161.48 51.7462 162.193L51.7537 162.186Z" fill="#E0E59B"/>
<path d="M17.3308 52.6777C22.0307 59.7415 26.1374 67.1432 29.7261 74.8301C29.8988 75.1979 30.4468 74.8751 30.2742 74.5073C26.6554 66.8354 22.3985 59.5163 17.5936 52.5201C17.481 52.3624 17.2182 52.5126 17.3308 52.6777Z" fill="#AFD186"/>
<path d="M30.7696 83.0498C24.3881 78.2155 17.7888 73.7339 10.8366 69.7479C10.5062 69.5602 10.221 70.0557 10.5438 70.2508C17.3533 74.4396 24.0127 78.8611 30.4168 83.6503C30.7771 83.9206 31.13 83.3125 30.7696 83.0423V83.0498Z" fill="#AFD186"/>
<path d="M34.1781 93.0112C28.72 89.5656 22.9391 87.0659 16.6776 85.4895C16.3398 85.4069 16.1971 85.9249 16.535 86.0074C22.6913 87.6139 28.5248 90.0686 33.9679 93.3715C34.2007 93.5142 34.4109 93.1539 34.1781 93.0037V93.0112Z" fill="#AFD186"/>
<path d="M34.6436 102.958C28.5022 100.465 22.436 97.7855 16.3547 95.1656C16.0319 95.023 15.7391 95.4959 16.0694 95.6536C22.1207 98.4536 28.3221 100.923 34.5535 103.303C34.7637 103.385 34.8538 103.048 34.6436 102.965V102.958Z" fill="#AFD186"/>
<path d="M40.1018 113.925C32.564 110.892 24.9737 107.89 17.2407 105.382C16.8503 105.255 16.6926 105.855 17.0755 105.99C24.7184 108.768 32.4063 111.388 39.9967 114.308C40.2369 114.398 40.3345 114.015 40.1018 113.925Z" fill="#AFD186"/>
<path d="M42.6394 124.614C35.477 123.676 28.6149 121.702 21.903 119.06C21.6552 118.962 21.4826 119.382 21.7228 119.487C28.3822 122.49 35.3869 124.202 42.6394 124.99C42.8796 125.012 42.8721 124.645 42.6394 124.614Z" fill="#AFD186"/>
<path d="M43.24 136.828C35.5596 133.127 27.3912 130.717 18.8774 130.034C18.4795 130.004 18.4945 130.597 18.8774 130.642C27.2786 131.596 35.3194 133.675 42.9923 137.256C43.2776 137.391 43.5253 136.971 43.24 136.828Z" fill="#AFD186"/>
<path d="M39.8991 146.707C33.7652 145.438 27.6164 144.387 21.4 143.599C21.0096 143.546 20.912 144.237 21.3099 144.29C27.4737 145.153 33.6151 146.159 39.7189 147.36C40.1468 147.442 40.327 146.789 39.8991 146.707Z" fill="#AFD186"/>
<path d="M45.3571 160.962C37.1962 156.12 27.6389 157.014 18.5395 156.075C17.9238 156.015 17.9314 156.969 18.5395 157.036C27.5037 158.012 36.8283 157.231 45.1544 161.307C45.3796 161.42 45.5824 161.097 45.3571 160.962Z" fill="#AFD186"/>
<path d="M47.9699 174.204C40.2369 169.662 31.7757 167.133 22.7964 166.93C22.4886 166.93 22.4961 167.38 22.7964 167.395C31.603 167.966 40.0417 170.263 47.8347 174.444C47.9924 174.527 48.135 174.294 47.9774 174.204H47.9699Z" fill="#AFD186"/>
<path d="M46.3556 186.973C40.1693 184.623 33.9754 182.296 27.759 180.014C27.2184 179.819 26.9857 180.675 27.5187 180.877C33.7276 183.152 39.9515 185.374 46.183 187.581C46.5734 187.716 46.731 187.116 46.3481 186.973H46.3556Z" fill="#AFD186"/>
<path d="M50.0119 201.679C44.2685 198.856 38.3674 196.417 32.2786 194.45C31.9333 194.337 31.7906 194.878 32.1285 194.99C38.1497 197.01 44.0282 199.367 49.7416 202.144C50.0495 202.294 50.3272 201.829 50.0119 201.679Z" fill="#AFD186"/>
<path d="M80.3207 175.503C75.4858 182.341 69.9 188.452 63.9088 194.284C63.601 194.585 64.059 195.028 64.3743 194.75C70.6883 189.202 76.0038 182.679 80.6285 175.683C80.7562 175.495 80.4559 175.322 80.3282 175.503H80.3207Z" fill="#AFD186"/>
<path d="M72.5652 161.946C67.8429 167.996 62.3247 172.763 56.7014 177.912C56.4611 178.138 56.7765 178.558 57.0542 178.37C63.2106 174.189 68.436 168.094 72.8956 162.201C73.0382 162.013 72.7079 161.758 72.5652 161.946Z" fill="#AFD186"/>
<path d="M67.6026 149.161C64.4418 153.155 60.7105 156.556 56.4311 159.326C56.1158 159.528 56.4086 160.039 56.7239 159.829C61.0183 156.968 64.7572 153.485 67.9179 149.402C68.0531 149.222 67.7452 148.981 67.6026 149.161Z" fill="#AFD186"/>
<path d="M65.2977 140.011C61.4313 144.515 56.9191 148.111 51.934 151.301C51.6412 151.489 51.9039 151.939 52.2042 151.766C57.3771 148.891 61.8517 144.883 65.6431 140.356C65.8458 140.116 65.5005 139.763 65.2977 140.011Z" fill="#AFD186"/>
<path d="M67.7151 123.601C64.4643 130.958 58.6458 136.092 51.2582 139.088C50.7101 139.305 50.9278 140.191 51.5059 139.996C59.1713 137.369 65.1025 131.213 68.1431 123.789C68.2407 123.549 67.8203 123.368 67.7151 123.609V123.601Z" fill="#AFD186"/>
<path d="M64.2166 109.391C58.8486 115.073 52.8123 119.743 46.3106 124.059C46.0103 124.254 46.2806 124.727 46.5959 124.547C53.3078 120.606 59.239 115.374 64.4719 109.639C64.622 109.473 64.3818 109.226 64.2241 109.391H64.2166Z" fill="#AFD186"/>
<path d="M53.5256 96.0438C51.8739 102.725 49.509 109.098 46.4533 115.269C46.2431 115.689 46.8738 116.057 47.084 115.636C50.1246 109.413 52.407 102.912 53.9761 96.1714C54.0436 95.8787 53.5932 95.751 53.5256 96.0438Z" fill="#AFD186"/>
<path d="M50.0645 87.5237C47.8798 93.1913 45.5073 98.7688 42.9547 104.279C42.797 104.624 43.3075 104.917 43.4577 104.572C45.9503 98.994 48.2476 93.3414 50.3573 87.6063C50.4249 87.4186 50.1321 87.3436 50.0645 87.5237Z" fill="#AFD186"/>
<path d="M44.3661 72.4129C42.1063 78.9738 39.2459 85.1818 36.2503 91.4274C36.1151 91.7127 36.5206 91.9604 36.6782 91.6751C39.9741 85.5947 42.5117 79.0488 44.7115 72.503C44.7866 72.2853 44.4487 72.1952 44.3737 72.4129H44.3661Z" fill="#AFD186"/>
<path d="M39.7114 61.926C37.6918 67.4735 35.5972 72.9984 33.7202 78.5909C33.5626 79.0714 34.2983 79.259 34.4635 78.7936C36.5131 73.2612 38.36 67.6536 40.2745 62.0761C40.3946 61.7158 39.839 61.5657 39.7114 61.9185V61.926Z" fill="#AFD186"/>
<path d="M91.9804 76.2713C91.9804 76.2713 82.7383 68.1716 77.9109 75.1678C73.0834 82.1641 86.0718 86.1877 86.0718 86.1877C86.0718 86.1877 72.2125 95.3159 81.6722 99.3395C91.1245 103.363 94.3603 91.2623 94.3603 91.2623C94.3603 91.2623 93.0314 109.594 103.565 103.633C114.098 97.6805 105.87 87.9593 105.87 87.9593C105.87 87.9593 117.304 89.6708 116.996 81.2933C116.688 72.9158 100.712 79.8896 100.712 79.8896C100.712 79.8896 112.476 71.7673 103.948 67.7887C95.4189 63.8102 91.9804 76.2713 91.9804 76.2713Z" fill="#FFC74C"/>
<path d="M89.0748 81.2933C90.1784 82.0215 91.1244 82.9598 92.2281 83.6805C92.701 83.9882 93.114 83.3277 92.7986 82.9448C91.9353 81.9089 90.6589 81.2258 89.4727 80.6252C89.0298 80.4 88.6619 81.0156 89.0823 81.2933H89.0748Z" fill="#010101"/>
<path d="M89.4202 87.749C90.9067 86.7882 92.3557 85.8348 93.5945 84.5587C93.9098 84.2284 93.5044 83.6579 93.099 83.9131C91.6425 84.8289 90.3512 85.9399 88.9773 86.9758C88.5343 87.3136 88.9322 88.0643 89.4277 87.749H89.4202Z" fill="#010101"/>
<path d="M93.8872 86.578C93.6695 87.4263 93.4368 88.252 93.3467 89.1303C93.3016 89.5882 93.9698 89.6183 94.1049 89.2354C94.3827 88.4397 94.5179 87.629 94.6755 86.8032C94.7731 86.2928 94.0148 86.0676 93.8872 86.5855V86.578Z" fill="#010101"/>
<path d="M95.6665 86.8934C96.2596 88.1996 96.6801 89.7835 97.6711 90.842C97.9414 91.1347 98.4519 90.8345 98.3393 90.4516C97.9113 89.0479 96.8828 87.8693 96.2746 86.5331C96.0869 86.1202 95.4788 86.4806 95.6665 86.8859V86.8934Z" fill="#010101"/>
<path d="M96.4624 84.7314C98.7448 85.4971 101.177 86.2103 103.602 85.8875C104.285 85.7974 104.308 84.8816 103.602 84.8065C101.267 84.5663 98.955 84.6114 96.6576 84.0258C96.1997 83.9057 96.0195 84.5813 96.4624 84.7239V84.7314Z" fill="#010101"/>
<path d="M96.8528 82.9974C98.3694 82.9524 99.8934 82.6371 101.162 81.7813C101.68 81.436 101.237 80.6929 100.674 80.9481C99.4354 81.5186 98.2117 82.0215 96.8453 82.1717C96.3348 82.2317 96.3047 83.0049 96.8453 82.9899L96.8528 82.9974Z" fill="#010101"/>
<path d="M95.2236 76.9093C94.8557 77.6749 94.5028 78.4556 94.18 79.2438C93.8872 79.9495 93.4593 80.7377 93.6319 81.5109C93.6845 81.7586 94.0524 81.8637 94.2175 81.6685C94.668 81.128 94.7055 80.4224 94.8857 79.7618C95.126 78.8985 95.4413 78.0803 95.8317 77.2696C96.0269 76.8642 95.4188 76.5039 95.2236 76.9168V76.9093Z" fill="#010101"/>
<path d="M87.2729 87.8091C84.0671 88.9651 81.1466 91.4799 80.3733 94.9105C80.1856 95.7437 81.4169 96.3668 81.8223 95.5185C83.1812 92.6585 84.7804 90.1437 87.5582 88.4847C87.9036 88.2745 87.6784 87.659 87.2729 87.8091Z" fill="#FFDD99"/>
<path d="M81.0414 74.5897C83.1736 74.7849 85.3358 75.0926 87.2278 76.1586C88.6918 76.9843 89.5252 78.2229 90.6438 79.4015C91.1318 79.9195 91.8225 79.364 91.7324 78.7709C91.0192 74.2594 84.525 73.6889 81.0339 73.4336C80.2831 73.3811 80.2981 74.5296 81.0339 74.5972L81.0414 74.5897Z" fill="#FFDD99"/>
<path d="M98.5271 69.6729C96.6051 71.3394 94.9384 73.1936 93.5194 75.3105C92.9939 76.0987 94.2852 76.8644 94.7957 76.0536C96.0871 74.0193 97.5511 72.0976 99.2253 70.3711C99.6683 69.9131 99.0076 69.26 98.5271 69.6729Z" fill="#FFDD99"/>
<path d="M105.209 82.592C107.904 81.3009 110.577 81.3909 113.475 81.3684C114.511 81.3609 114.609 79.9797 113.708 79.6419C110.607 78.4858 107.123 79.5593 104.421 81.2558C103.565 81.7888 104.308 83.0199 105.201 82.592H105.209Z" fill="#FFDD99"/>
<path d="M96.5675 91.7501C96.2072 96.0665 97.4159 100.713 101.883 102.455C102.806 102.815 103.617 101.404 102.859 100.781C100.149 98.5362 97.2357 95.586 97.4159 91.7501C97.4384 91.2021 96.6126 91.2171 96.5751 91.7501H96.5675Z" fill="#FFDD99"/>
<path d="M83.5266 230.152L80.2232 229.341C80.2232 229.341 76.5143 190.058 87.7159 155.129C98.9174 120.201 90.3886 92.0054 90.3886 92.0054L92.7235 91.2322C92.7235 91.2322 94.5404 95.8038 95.9894 115.276C96.9579 128.255 95.2536 135.109 93.8272 144.755C92.4458 154.056 87.7759 161.668 84.7954 177.064C84.2173 180.052 83.1587 189.788 82.9635 197.97C82.6031 213.569 83.5266 230.159 83.5266 230.159V230.152Z" fill="#A2C199"/>
<path d="M91.4322 92.208C97.6936 115.892 93.4367 139.613 86.4771 162.621C79.9529 184.195 78.6615 206.243 80.4333 228.673C80.4934 229.416 81.6196 229.439 81.6046 228.673C81.3793 217.082 80.9514 205.552 81.8298 193.977C82.7607 181.756 85.7413 170.481 89.0447 158.748C95.1936 136.903 98.1066 114.248 91.9277 92.0729C91.8376 91.7501 91.3421 91.8853 91.4322 92.208Z" fill="#010101"/>
<path d="M78.8492 190.081C78.8492 190.081 67.475 194.112 61.3637 191.53C55.2524 188.947 51.3634 178.46 51.3634 178.46C51.3634 178.46 61.9793 178.295 67.017 181.005C72.0622 183.708 78.8492 190.081 78.8492 190.081Z" fill="#C4DBAD"/>
<path d="M77.7606 188.865C69.397 186.53 61.1535 184.526 53.7959 179.706C53.1427 179.279 52.5872 180.292 53.1953 180.742C60.3877 186.095 69.0141 187.618 77.5429 189.683C78.0684 189.81 78.2937 189.015 77.7681 188.872L77.7606 188.865Z" fill="#010101"/>
<path d="M80.7487 169.843C80.7487 169.843 72.1674 169.565 68.0531 164.363C63.9314 159.161 63.1431 149.327 63.1431 149.327C63.1431 149.327 71.4166 152.907 74.5398 157.704C77.663 162.501 80.7562 169.835 80.7562 169.835L80.7487 169.843Z" fill="#A2C199"/>
<path d="M79.5549 169.212C75.0653 164.55 71.0937 159.453 67.3623 154.169C67.017 153.681 66.2287 154.124 66.5515 154.642C70.0501 160.219 74.292 165.173 79.0068 169.76C79.3672 170.105 79.9003 169.572 79.5549 169.212Z" fill="#010101"/>
<path d="M89.6453 132.827C89.6453 132.827 75.0653 130.47 69.6147 124.547C64.1716 118.624 65.8308 109.121 65.8308 109.121C65.8308 109.121 78.8717 114.533 82.7382 119.833C86.6047 125.133 89.6453 132.827 89.6453 132.827Z" fill="#A2C199"/>
<path d="M85.7488 128.135C78.8491 122.453 72.3174 116.62 68.1356 108.573C67.7752 107.875 66.7992 108.49 67.0995 109.173C70.7933 117.491 78.1509 123.256 85.1331 128.743C85.5611 129.081 86.1842 128.488 85.7488 128.128V128.135Z" fill="#010101"/>
<path d="M87.8134 151.414C87.8134 151.414 72.1298 150.993 65.7257 146.091C59.3216 141.182 60.0648 132.039 60.0648 132.039C60.0648 132.039 74.4497 135.522 79.112 140.033C83.7743 144.545 87.8209 151.414 87.8209 151.414H87.8134Z" fill="#C4DBAD"/>
<path d="M82.2202 148.689C75.726 145.07 69.93 140.619 64.5169 135.537C64.0064 135.064 63.2782 135.792 63.7512 136.303C68.894 141.775 75.1254 146.009 81.7472 149.499C82.2802 149.777 82.7532 148.981 82.2202 148.689Z" fill="#010101"/>
<path d="M84.9304 192.483C84.9304 192.483 93.0613 180.112 101.335 177.8C109.601 175.488 118.798 181.366 118.798 181.366C118.798 181.366 108.099 190.922 101.102 192.055C94.1049 193.189 84.9379 192.476 84.9379 192.476L84.9304 192.483Z" fill="#A2C199"/>
<path d="M116.35 180.082C107.071 182.409 97.6485 184.751 89.4426 189.848C88.8569 190.216 89.3825 191.124 89.9906 190.779C98.3392 186.095 107.349 183.25 116.5 180.622C116.846 180.525 116.703 179.992 116.35 180.082Z" fill="#010101"/>
<path d="M93.9098 152.847C93.9098 152.847 101.733 140.319 109.308 137.594C116.883 134.869 124.992 140.078 124.992 140.078C124.992 140.078 114.954 150.01 108.565 151.519C102.183 153.028 93.9098 152.847 93.9098 152.847Z" fill="#C4DBAD"/>
<path d="M119.939 142C111.38 144.042 102.844 147.195 95.3963 151.947C94.9383 152.239 95.3512 152.953 95.8242 152.675C103.557 148.223 111.388 144.643 120.097 142.563C120.465 142.473 120.307 141.91 119.939 142Z" fill="#010101"/>
<path d="M96.6801 126.829C96.6801 126.829 100.051 118.767 106.005 115.839C111.958 112.904 121.741 114.203 121.741 114.203C121.741 114.203 116.493 121.537 111.147 123.579C105.802 125.62 96.6801 126.837 96.6801 126.837V126.829Z" fill="#A2C199"/>
<path d="M119.173 114.984C111.823 116.995 104.653 120.051 98.4219 124.472C97.8738 124.855 98.3768 125.756 98.9549 125.38C105.389 121.244 112.018 117.911 119.399 115.794C119.917 115.644 119.699 114.833 119.173 114.984Z" fill="#010101"/>
<path d="M89.0823 166.36C89.0823 166.36 96.59 158.703 103.174 159.491C109.759 160.279 117.259 166.697 117.259 166.697C117.259 166.697 108.467 170.886 102.761 170.533C95.614 170.09 89.0823 166.36 89.0823 166.36Z" fill="#A2C199"/>
<path d="M114.076 166.457C106.598 165.594 97.9339 162.786 90.6889 166.014C90.1934 166.232 90.5538 167.095 91.0568 166.892C98.3468 163.965 106.575 166.427 114.068 167.185C114.533 167.23 114.526 166.51 114.068 166.457H114.076Z" fill="#010101"/>
<path d="M77.6255 32.1692C75.4483 26.6818 74.1344 20.4062 76.0939 20.5488C78.046 20.6914 79.1646 32.6121 79.1646 32.6121C79.1646 32.6121 80.4184 19.8507 82.5806 20.4062C84.7429 20.9617 81.462 32.7472 81.462 32.7472C81.462 32.7472 86.6198 20.9617 88.782 22.6357C90.9443 24.3097 83.0611 34.1435 83.0611 34.1435C83.0611 34.1435 91.0794 25.9837 92.6185 27.3124C94.1501 28.6335 84.2473 35.6073 84.2473 35.6073C84.2473 35.6073 94.7056 30.24 95.6816 32.0491C96.6576 33.8657 84.8705 37.4164 85.0807 37.4164C85.2909 37.4164 96.3723 34.1135 96.3048 37.2062C96.2672 39.0829 85.5687 39.3231 85.5687 39.3231C85.5687 39.3231 95.9819 40.7269 95.8393 43.1666C95.6967 45.6063 85.2534 41.425 85.2534 41.425C85.2534 41.425 91.4323 49.187 89.728 50.1178C86.2519 52.017 82.7758 42.1682 82.7758 42.1682C82.7758 42.1682 84.9381 51.0862 81.7998 51.8519C78.6616 52.6175 80.6211 42.3784 80.6211 42.3784C80.6211 42.3784 77.7006 53.4208 74.5624 52.2272C71.6644 51.1237 78.6165 41.2749 78.1961 41.2749C77.7757 41.2749 69.9526 52.3173 67.7153 49.3296C66.2513 47.3778 75.4558 40.5317 75.4558 40.5317C75.4558 40.5317 65.0801 45.8465 65.0801 43.0615C65.0801 40.2765 74.8777 37.9569 74.8777 37.9569C74.8777 37.9569 63.7662 39.5333 63.9765 36.5381C64.1867 33.543 75.0879 35.87 75.0879 35.5923C75.0879 35.3145 65.3429 33.8657 65.4104 31.4936C65.478 29.1215 75.8762 33.6931 75.8762 33.6931C75.8762 33.6931 66.2138 27.7252 68.0306 25.0003C69.8475 22.2829 77.618 32.1617 77.618 32.1617L77.6255 32.1692Z" fill="#F5F4F4"/>
<path d="M83.7819 37.0335C83.7819 39.0378 82.1527 40.6668 80.1481 40.6668C78.1436 40.6668 76.5144 39.0378 76.5144 37.0335C76.5144 35.0292 78.1436 33.4003 80.1481 33.4003C82.1527 33.4003 83.7819 35.0292 83.7819 37.0335Z" fill="#FFC74C"/>
<path d="M13.6445 147.195C11.4673 141.707 10.1534 135.432 12.1129 135.574C14.0649 135.717 15.1836 147.638 15.1836 147.638C15.1836 147.638 16.4374 134.876 18.5996 135.432C20.7618 135.987 17.481 147.773 17.481 147.773C17.481 147.773 22.6388 135.987 24.801 137.661C26.9632 139.335 19.0801 149.169 19.0801 149.169C19.0801 149.169 27.0984 141.009 28.6375 142.338C30.169 143.659 20.2663 150.633 20.2663 150.633C20.2663 150.633 30.7246 145.266 31.7006 147.075C32.6766 148.891 20.8895 152.442 21.0997 152.442C21.3099 152.442 32.3913 149.139 32.3313 152.232C32.2937 154.101 21.5952 154.349 21.5952 154.349C21.5952 154.349 32.0084 155.753 31.8658 158.192C31.7231 160.632 21.2799 156.451 21.2799 156.451C21.2799 156.451 27.4587 164.213 25.7545 165.143C22.2784 167.043 18.8023 157.194 18.8023 157.194C18.8023 157.194 20.9646 166.112 17.8263 166.878C14.6881 167.643 16.6476 157.404 16.6476 157.404C16.6476 157.404 13.7271 168.446 10.5889 167.253C7.69087 166.149 14.643 156.301 14.2226 156.301C13.8022 156.301 5.97911 167.343 3.7418 164.355C2.27779 162.403 11.4823 155.557 11.4823 155.557C11.4823 155.557 1.10658 160.872 1.10658 158.087C1.10658 155.302 10.9042 152.983 10.9042 152.983C10.9042 152.983 -0.207271 154.559 0.00294562 151.564C0.213162 148.569 11.1144 150.896 11.1144 150.618C11.1144 150.34 1.36935 148.891 1.43692 146.519C1.50449 144.147 11.9027 148.719 11.9027 148.719C11.9027 148.719 2.24025 142.751 4.05712 140.026C5.874 137.301 13.6445 147.187 13.6445 147.187V147.195Z" fill="#F5F4F4"/>
<path d="M19.8008 152.059C19.8008 154.071 18.1716 155.692 16.1671 155.692C14.1625 155.692 12.5333 154.063 12.5333 152.059C12.5333 150.055 14.1625 148.426 16.1671 148.426C18.1716 148.426 19.8008 150.055 19.8008 152.059Z" fill="#FFC74C"/>
<path d="M26.5128 8.97335C26.5128 8.97335 18.7123 -1.55108 10.1159 4.7846C1.51957 11.1203 13.8247 19.7005 13.8247 19.7005C13.8247 19.7005 -4.89955 26.3815 4.68783 35.0292C14.2677 43.677 22.2409 32.3418 22.2409 32.3418C22.2409 32.3418 18.2618 51.2963 33.2548 48.7815C44.9368 46.8223 38.2624 32.3418 38.2624 32.3418C38.2624 32.3418 50.9655 38.137 54.0287 28.0555C57.0918 17.9814 40.6274 19.19 40.6274 19.19C40.6274 19.19 49.7943 10.7074 41.2956 2.49504C32.7968 -5.71732 26.5128 8.97335 26.5128 8.97335Z" fill="#FFC74C"/>
<path d="M25.4767 15.4591C25.5593 17.0731 25.5593 18.7996 26.0698 20.346C26.1975 20.7363 26.8206 20.6838 26.8056 20.2484C26.7681 18.6194 26.3101 16.998 26.0774 15.384C26.0248 15.0462 25.4617 15.1213 25.4767 15.4666V15.4591Z" fill="white"/>
<path d="M21.9181 19.6703C22.6238 19.8054 23.3296 19.9631 24.0278 20.1357C24.6584 20.2934 25.3191 20.6011 25.9723 20.5486C26.3552 20.5186 26.5053 20.0381 26.1675 19.8279C25.5819 19.4526 24.7786 19.4301 24.1029 19.3325C23.4046 19.2274 22.6989 19.1448 22.0007 19.0698C21.6628 19.0322 21.5803 19.6027 21.9181 19.6703Z" fill="white"/>
<path d="M26.4077 20.4587C24.5533 20.4737 22.5112 20.6389 20.7694 21.3145C20.1537 21.5547 20.3865 22.5306 21.0471 22.3354C22.849 21.8099 24.5232 21.2469 26.4077 21.0442C26.7755 21.0067 26.7906 20.4512 26.4077 20.4587Z" fill="white"/>
<path d="M26.0172 21.2393C25.4542 22.05 24.9136 22.8682 24.4031 23.7015C23.9451 24.4446 23.3295 25.2479 23.1718 26.1186C23.0967 26.509 23.5847 26.8918 23.9001 26.539C24.4932 25.8784 24.786 24.9476 25.1839 24.1594C25.6268 23.2811 26.0998 22.4253 26.5878 21.5696C26.8055 21.2017 26.2575 20.894 26.0172 21.2393Z" fill="white"/>
<path d="M26.4001 21.6447C25.9046 23.9718 25.5367 26.434 25.6869 28.8212C25.7319 29.5944 26.9257 29.6094 26.9031 28.8212C26.8506 26.4641 26.798 24.1895 27.1209 21.8399C27.1809 21.3745 26.4977 21.1568 26.4001 21.6372V21.6447Z" fill="white"/>
<path d="M25.8971 21.4645C27.6013 23.649 29.5984 25.8559 31.9258 27.3948C32.4513 27.7401 33.1195 26.9069 32.609 26.509C30.3792 24.7675 28.2695 23.101 26.4451 20.9165C26.1223 20.5262 25.5968 21.0817 25.8971 21.4645Z" fill="white"/>
<path d="M27.1509 21.8399C29.4858 22.508 31.7982 23.2287 34.1031 23.9943C34.7037 24.197 34.974 23.2287 34.3659 23.041C32.046 22.3354 29.7111 21.6823 27.3612 21.0742C26.8656 20.9466 26.6554 21.7048 27.1509 21.8399Z" fill="white"/>
<path d="M28.2395 21.457C29.9513 20.4436 31.7982 19.678 33.4499 18.567C34.028 18.1766 33.525 17.3133 32.9018 17.6361C31.13 18.5444 29.5684 19.7981 27.8566 20.8115C27.4437 21.0592 27.8191 21.7048 28.232 21.457H28.2395Z" fill="white"/>
<path d="M27.9618 20.4436C28.5174 19.7004 29.0504 18.9347 29.561 18.1615C30.0114 17.4784 30.6421 16.6902 30.7622 15.872C30.8298 15.4216 30.2817 14.9336 29.8988 15.369C29.3357 16.0071 29.103 16.9079 28.7126 17.6661C28.2846 18.4994 27.7816 19.265 27.2336 20.0157C26.9107 20.4586 27.639 20.8715 27.9618 20.4436Z" fill="white"/>
<path d="M5.4761 30.6529C7.90861 28.1081 11.1069 26.7118 14.6055 26.4566C15.2887 26.404 15.2737 25.3231 14.6055 25.3981C10.8742 25.8185 7.63833 27.515 5.04816 30.225C4.78539 30.5027 5.20582 30.9306 5.46859 30.6454L5.4761 30.6529Z" fill="#FFDD99"/>
<path d="M14.8833 9.18352C17.2107 11.3905 19.0576 13.9653 21.2574 16.2849C21.8055 16.8629 22.7815 16.1197 22.361 15.4291C20.6943 12.6741 18.1942 10.3921 15.8744 8.18512C15.2212 7.56207 14.2227 8.55295 14.8758 9.18352H14.8833Z" fill="#FFDD99"/>
<path d="M35.8675 6.28582C34.7188 7.80218 33.5626 9.31854 32.4139 10.8349C31.8583 11.5631 33.1272 12.3362 33.6602 11.5631C34.7263 10.0017 35.7999 8.43275 36.866 6.87135C37.2939 6.24078 36.3029 5.70781 35.86 6.28582H35.8675Z" fill="#FFDD99"/>
<path d="M40.0417 25.5857C42.9697 25.9235 45.7176 26.8694 48.608 27.3423C49.2012 27.4399 49.6441 26.6442 49.0435 26.3139C46.3407 24.8125 43.0899 24.4072 40.0492 24.1069C39.0957 24.0168 39.1183 25.4806 40.0492 25.5857H40.0417Z" fill="#FFDD99"/>
<path d="M29.133 34.2335C29.7261 36.463 30.0715 38.6925 30.2066 40.9971C30.2742 42.1156 32.0535 42.0856 31.9334 40.9971C31.6556 38.5799 31.1901 36.1928 30.5595 33.8432C30.3117 32.9273 28.8853 33.3177 29.133 34.2335Z" fill="#FFDD99"/>
</svg>
