<svg width="818" height="818" viewBox="0 0 818 818" fill="none" xmlns="http://www.w3.org/2000/svg">
<g filter="url(#filter0_f_291_108)">
<circle cx="209" cy="209" r="209" transform="matrix(-1 0 0 1 618 200)" fill="url(#paint0_linear_291_108)" fill-opacity="0.5"/>
</g>
<g clip-path="url(#clip0_291_108)">
<path d="M519.922 516.409C506.694 517.616 491.217 520.441 478.968 524.466L478.946 524.473L478.922 524.469L478.726 524.436C478.051 528.456 477.301 532.461 476.801 536.469L476.913 536.485L476.976 536.492L476.993 536.554C480.99 550.586 484.369 567.457 487.518 582.028L487.528 582.026L487.614 582.008L487.639 582.092C488.04 583.387 488.367 584.71 488.601 586.046L488.622 586.17L488.497 586.158C486.068 585.935 483.605 585.897 481.119 585.975L480.053 586.015C476.294 586.18 472.49 586.587 468.69 587.017C465.365 587.393 462.041 587.786 458.754 588.05L457.348 588.156H457.347C446.141 588.914 434.945 587.824 423.767 587.327L423.768 587.326C418.363 587.094 412.95 586.94 407.555 587.229L406.476 587.293C399.193 587.761 392.333 588.593 385.112 587.254L384.411 587.117C378.199 585.844 372.277 584.054 365.956 583.673L365.861 583.668L365.866 583.573L365.869 583.523C364.217 583.307 362.547 583.212 360.882 583.238C358.072 589.244 353.95 595.047 347.735 596.905L347.124 597.072C340.565 598.722 333.773 595.446 328.601 591.076L328.106 590.65C325.744 588.585 323.631 586.327 321.72 583.913C320.621 584.39 319.52 584.861 318.428 585.33L318.433 585.359L318.453 585.455L318.356 585.472C310.838 586.792 303.392 588.555 296.077 590.755L294.616 591.2C292.737 591.777 290.82 592.428 289.398 593.725L289.12 593.992C288.289 594.851 287.718 596.086 288.058 597.167L288.138 597.381C288.52 598.257 289.486 598.769 290.47 598.881L290.666 598.899H290.667C291.449 598.95 292.225 598.787 293.001 598.582L293.777 598.37C299.488 596.782 305.412 595.978 311.331 595.987L312.515 595.998C316.38 596.073 320.216 596.49 324.035 597.035L324.083 597.042L324.107 597.085C324.296 597.435 324.452 597.808 324.558 598.189L324.582 598.277L324.496 598.306C323.726 598.569 322.956 598.832 322.187 599.098L319.878 599.9C318.226 600.474 316.558 601.051 315.101 601.989V601.988C313.836 602.803 312.754 603.871 311.731 604.998L311.295 605.485C310.029 606.914 308.826 608.401 307.686 609.933L307.2 610.592C306.269 611.881 305.37 613.223 304.948 614.722L304.869 615.024V615.025C304.506 616.551 304.738 618.288 305.742 619.441L305.953 619.663C306.265 619.964 306.635 620.202 307.038 620.31L307.214 620.348C307.839 620.449 308.414 620.227 308.95 619.849C309.354 619.565 309.73 619.197 310.082 618.823L310.427 618.45C314.224 614.3 319.4 611.431 324.939 610.426L325.004 610.413L325.038 610.471L325.286 610.885L325.336 610.967L325.254 611.017C321.838 613.07 318.717 615.614 316.031 618.557L315.5 619.151C313.395 621.549 311.504 624.531 311.888 627.623L311.933 627.923C312.049 628.595 312.286 629.256 312.755 629.705L312.853 629.792C313.474 630.311 314.258 630.373 315.067 630.173C315.775 629.998 316.493 629.623 317.114 629.196L317.372 629.01C318.683 628.032 319.895 626.929 321.121 625.833C322.193 624.876 323.275 623.925 324.44 623.075L324.944 622.718C327.653 620.853 331.11 619.607 334.292 620.565L334.449 620.612L334.33 620.726L322.932 631.668C322.306 632.27 321.675 633.084 321.358 633.89C321.061 634.645 321.047 635.371 321.541 635.922L321.647 636.03V636.031C322.171 636.526 322.954 636.588 323.72 636.523L324.046 636.488C326.61 636.151 328.988 635.19 331.308 634.007L332.299 633.488C334.291 632.417 336.267 631.215 338.274 630.159L339.136 629.717C342.2 628.191 345.442 627.062 348.693 625.999L350.086 625.547C361.708 621.812 373.391 618.27 385.136 614.941L385.409 614.863L385.374 614.909C387.538 614.569 389.719 614.365 391.908 614.287L392.88 614.261L393.64 614.258C393.894 614.261 394.15 614.268 394.406 614.282L394.501 614.287L394.497 614.382L394.488 614.657C423.332 622.697 452.971 627.848 482.831 630.024L485.725 630.225C492.598 630.685 499.477 630.985 506.361 631.126L509.311 631.178C512.544 631.22 515.872 631.202 518.783 629.854H518.784C522.431 628.156 524.578 624.887 525.824 621.02C526.993 617.393 527.366 613.248 527.443 609.405L527.454 608.641V608.64C527.755 580.808 525.872 552.948 521.838 525.408L521.441 522.744C521.218 521.232 520.988 519.726 520.744 518.221L520.012 518.229L519.916 518.23L519.915 518.134C519.908 517.561 519.909 516.982 519.922 516.409Z" fill="#FFF6F3" stroke="#6B432F" stroke-width="0.192518"/>
<path d="M344.652 409.19C334.399 412.698 324.72 416.462 314.035 418.745L312.997 418.96C306.011 420.384 300.071 422.212 295.671 428.101L295.25 428.684C293.436 431.282 292.218 434.173 291.419 437.215L291.468 437.242L291.556 437.288L291.507 437.375C289.666 440.611 288.696 444.345 288.738 448.076L288.641 448.078L288.739 448.076L288.737 448.089C287.131 460.7 287.849 475.748 288.683 488.622L289.042 493.992C289.165 495.763 289.299 497.577 290.085 499.126L290.251 499.433V499.434C291.178 501.055 293.118 502.222 294.861 501.662L294.89 501.752L294.861 501.661L294.873 501.659L295.77 501.493L295.884 501.472V501.582C295.968 502.037 296.052 502.49 296.135 502.939L296.204 502.926C296.082 502.132 296.33 501.312 296.742 500.642H296.741C297.185 499.91 297.809 499.321 298.426 498.75L298.212 498.295L298.172 498.208L298.259 498.167C302.663 496.113 308.351 494.444 314.105 493.558C319.858 492.673 325.685 492.569 330.365 493.653L330.458 493.674L330.436 493.767L330.416 493.862C331.423 494.117 332.324 494.726 332.958 495.545L332.973 495.565L332.977 495.588C333.119 496.458 333.26 497.33 333.402 498.202C333.543 499.073 333.684 499.946 333.826 500.816L333.841 500.908L333.75 500.925L333.602 500.955C333.697 501.426 333.777 501.898 333.839 502.374C334.314 500.404 334.794 498.434 335.276 496.465L336.806 490.237C339.623 478.776 342.447 467.314 345.271 455.847L345.291 455.771L345.369 455.774L345.606 455.784C345.688 454.091 345.835 452.393 346.046 450.706L345.858 450.683L345.769 450.672L345.773 450.583C346.203 441.848 349.144 434.02 353.187 427.152L353.582 426.491L353.583 426.489L353.862 426.035C351.226 422.834 349.071 419.237 347.478 415.406L347.462 415.368L347.479 415.331C347.874 414.411 348.52 413.606 349.322 413.018L349.289 412.969L349.237 412.89L349.315 412.836C349.689 412.58 350.323 412.107 351.11 411.504C350.83 411.316 350.551 411.127 350.272 410.938C349.961 410.727 349.65 410.516 349.337 410.305L344.652 409.19Z" fill="#FCEFBB" stroke="#6B432F" stroke-width="0.192518"/>
<mask id="path-4-inside-1_291_108" fill="white">
<path d="M395.92 417.045C396.045 417.08 396.176 417.107 396.307 417.142C399.049 417.804 401.617 418.992 403.723 420.705C404.041 420.967 404.345 421.231 404.634 421.514L403.79 421.645C403.163 423.185 402.292 424.634 401.228 425.918C400.91 426.298 400.558 426.685 400.088 426.837C399.632 426.989 399.129 426.906 398.687 426.733C397.243 426.18 396.257 424.771 395.911 423.267C395.585 421.824 395.78 420.312 396.194 418.89C396.063 418.281 395.966 417.667 395.918 417.045H395.92ZM371.715 395.277C371.688 397.018 371.341 398.75 370.887 400.456L370.577 400.373C368.906 404.274 367.221 408.209 364.784 411.689C363.252 413.878 361.442 415.867 359.758 417.944C357.721 420.457 355.761 423.15 353.986 426.022C353.882 426.196 353.778 426.367 353.668 426.54C349.429 433.556 346.316 441.591 345.873 450.588L346.156 450.622C345.935 452.368 345.783 454.13 345.7 455.884L345.369 455.87C342.545 467.339 339.72 478.799 336.904 490.26C335.881 494.409 334.859 498.565 333.858 502.722L333.789 502.708C333.719 502.094 333.616 501.486 333.492 500.879L333.735 500.831C333.452 499.091 333.169 497.345 332.886 495.604C332.243 494.776 331.325 494.168 330.304 493.933L330.347 493.746C321.019 491.584 307.092 494.154 298.304 498.255L298.546 498.773C297.911 499.36 297.276 499.953 296.827 500.692C296.406 501.376 296.165 502.211 296.317 503.005L296.061 503.053C298.408 515.813 300.466 525.029 303.56 538.072C307.371 554.132 311.707 571.102 321.753 583.799C323.672 586.228 325.799 588.5 328.173 590.579C333.392 595.149 340.381 598.671 347.105 596.98C353.637 595.336 357.925 589.359 360.824 583.144C361.163 582.426 361.481 581.7 361.777 580.982C370.546 559.938 367.728 540.234 367.949 517.434C368.163 496.28 369.343 472.929 368.611 451.725C369.047 449.945 369.474 448.17 369.909 446.389C371.463 445.457 374.223 443.696 376.399 442.128L376.978 442.902C379.541 445.161 382.55 446.914 385.782 448.018L385.755 448.108C396.775 454.066 409.797 455.351 422.285 454.392C429.984 453.805 437.731 452.376 444.614 448.89C451.181 445.555 460.431 437.464 463.504 430.414C463.573 429.64 463.4 428.825 463.055 428.121C462.572 427.141 461.819 426.332 461.018 425.58C459.561 425.062 458.146 424.448 456.765 423.77C452.091 421.485 447.79 418.433 443.647 415.222C440.478 412.764 437.51 409.968 435.444 406.536C432.081 400.957 431.384 394.093 432.219 387.638C432.585 384.808 433.234 382.038 434.021 379.304C435.044 375.791 436.314 372.331 437.577 368.893L437.75 368.948C438.578 366.18 439.662 363.481 440.989 360.905C443.661 361.148 446.429 360.331 448.541 358.676L448.859 359.063C449.791 358.753 450.461 357.958 451.075 357.199C452.185 355.798 453.256 354.361 454.286 352.898C454.478 352.629 454.673 352.332 454.756 352.015V352.007C454.817 351.972 454.873 351.932 454.929 351.882C454.742 350.99 454.542 350.211 454.376 349.57C452.796 343.473 447.369 338.827 446.242 332.634L447.182 332.516C445.532 330.776 444.275 328.568 443.488 326.302C442.329 322.981 441.907 319.467 441.32 315.994C440.367 314.551 439.497 313.047 438.725 311.513C435.569 305.298 433.671 298.533 431.399 291.939C430.102 288.17 428.637 284.371 426.194 281.224C423.743 278.068 420.152 275.591 416.169 275.34L414.981 275.396C413.532 274.387 411.778 273.816 410.016 273.581C408.69 273.402 407.344 273.402 406.004 273.477L405.991 273.138C400.895 272.564 395.807 274.077 390.988 275.824C388.289 276.804 385.561 277.895 383.38 279.759C381.716 281.181 380.438 282.997 379.183 284.791C377.188 287.637 375.157 290.549 374.218 293.897L374.549 294.042C373.299 296.976 372.367 300.056 371.78 303.196C371.311 305.729 371.062 308.298 370.606 310.831C369.867 314.932 368.583 318.936 366.788 322.713L367.347 322.975C363.163 332.097 362.237 342.508 364.53 352.207C364.813 353.387 365.138 354.562 365.51 355.721C366.186 356.722 366.663 357.979 366.967 359.111C367.071 359.504 367.175 359.898 367.285 360.291C366.609 358.799 366.014 357.274 365.51 355.721C365.206 355.258 364.861 354.858 364.467 354.54C363.858 354.065 363.148 353.809 362.326 353.897C360.897 354.063 359.813 355.374 359.453 356.77C359.093 358.166 359.309 359.634 359.523 361.057C360.233 365.745 360.945 370.433 361.65 375.121C361.698 375.404 361.74 375.687 361.781 375.97C362.064 377.799 362.347 379.651 363.017 381.376C363.66 383.033 364.64 384.539 365.62 386.029C366.124 386.803 366.629 387.569 367.139 388.341C368.65 390.647 370.163 392.959 371.674 395.266H371.717L371.715 395.277ZM372.604 317.19C371.23 316.589 372.57 312.55 373.613 312.999C373.834 313.089 374.069 313.883 374.11 314.221C374.214 315.147 373.571 317.604 372.604 317.19ZM405.282 320.103C403.659 319.398 405.483 313.869 407.45 315.124C407.685 315.276 407.858 315.559 407.906 315.967C408.031 317.051 406.414 320.594 405.282 320.103Z"/>
</mask>
<path d="M395.92 417.045C396.045 417.08 396.176 417.107 396.307 417.142C399.049 417.804 401.617 418.992 403.723 420.705C404.041 420.967 404.345 421.231 404.634 421.514L403.79 421.645C403.163 423.185 402.292 424.634 401.228 425.918C400.91 426.298 400.558 426.685 400.088 426.837C399.632 426.989 399.129 426.906 398.687 426.733C397.243 426.18 396.257 424.771 395.911 423.267C395.585 421.824 395.78 420.312 396.194 418.89C396.063 418.281 395.966 417.667 395.918 417.045H395.92ZM371.715 395.277C371.688 397.018 371.341 398.75 370.887 400.456L370.577 400.373C368.906 404.274 367.221 408.209 364.784 411.689C363.252 413.878 361.442 415.867 359.758 417.944C357.721 420.457 355.761 423.15 353.986 426.022C353.882 426.196 353.778 426.367 353.668 426.54C349.429 433.556 346.316 441.591 345.873 450.588L346.156 450.622C345.935 452.368 345.783 454.13 345.7 455.884L345.369 455.87C342.545 467.339 339.72 478.799 336.904 490.26C335.881 494.409 334.859 498.565 333.858 502.722L333.789 502.708C333.719 502.094 333.616 501.486 333.492 500.879L333.735 500.831C333.452 499.091 333.169 497.345 332.886 495.604C332.243 494.776 331.325 494.168 330.304 493.933L330.347 493.746C321.019 491.584 307.092 494.154 298.304 498.255L298.546 498.773C297.911 499.36 297.276 499.953 296.827 500.692C296.406 501.376 296.165 502.211 296.317 503.005L296.061 503.053C298.408 515.813 300.466 525.029 303.56 538.072C307.371 554.132 311.707 571.102 321.753 583.799C323.672 586.228 325.799 588.5 328.173 590.579C333.392 595.149 340.381 598.671 347.105 596.98C353.637 595.336 357.925 589.359 360.824 583.144C361.163 582.426 361.481 581.7 361.777 580.982C370.546 559.938 367.728 540.234 367.949 517.434C368.163 496.28 369.343 472.929 368.611 451.725C369.047 449.945 369.474 448.17 369.909 446.389C371.463 445.457 374.223 443.696 376.399 442.128L376.978 442.902C379.541 445.161 382.55 446.914 385.782 448.018L385.755 448.108C396.775 454.066 409.797 455.351 422.285 454.392C429.984 453.805 437.731 452.376 444.614 448.89C451.181 445.555 460.431 437.464 463.504 430.414C463.573 429.64 463.4 428.825 463.055 428.121C462.572 427.141 461.819 426.332 461.018 425.58C459.561 425.062 458.146 424.448 456.765 423.77C452.091 421.485 447.79 418.433 443.647 415.222C440.478 412.764 437.51 409.968 435.444 406.536C432.081 400.957 431.384 394.093 432.219 387.638C432.585 384.808 433.234 382.038 434.021 379.304C435.044 375.791 436.314 372.331 437.577 368.893L437.75 368.948C438.578 366.18 439.662 363.481 440.989 360.905C443.661 361.148 446.429 360.331 448.541 358.676L448.859 359.063C449.791 358.753 450.461 357.958 451.075 357.199C452.185 355.798 453.256 354.361 454.286 352.898C454.478 352.629 454.673 352.332 454.756 352.015V352.007C454.817 351.972 454.873 351.932 454.929 351.882C454.742 350.99 454.542 350.211 454.376 349.57C452.796 343.473 447.369 338.827 446.242 332.634L447.182 332.516C445.532 330.776 444.275 328.568 443.488 326.302C442.329 322.981 441.907 319.467 441.32 315.994C440.367 314.551 439.497 313.047 438.725 311.513C435.569 305.298 433.671 298.533 431.399 291.939C430.102 288.17 428.637 284.371 426.194 281.224C423.743 278.068 420.152 275.591 416.169 275.34L414.981 275.396C413.532 274.387 411.778 273.816 410.016 273.581C408.69 273.402 407.344 273.402 406.004 273.477L405.991 273.138C400.895 272.564 395.807 274.077 390.988 275.824C388.289 276.804 385.561 277.895 383.38 279.759C381.716 281.181 380.438 282.997 379.183 284.791C377.188 287.637 375.157 290.549 374.218 293.897L374.549 294.042C373.299 296.976 372.367 300.056 371.78 303.196C371.311 305.729 371.062 308.298 370.606 310.831C369.867 314.932 368.583 318.936 366.788 322.713L367.347 322.975C363.163 332.097 362.237 342.508 364.53 352.207C364.813 353.387 365.138 354.562 365.51 355.721C366.186 356.722 366.663 357.979 366.967 359.111C367.071 359.504 367.175 359.898 367.285 360.291C366.609 358.799 366.014 357.274 365.51 355.721C365.206 355.258 364.861 354.858 364.467 354.54C363.858 354.065 363.148 353.809 362.326 353.897C360.897 354.063 359.813 355.374 359.453 356.77C359.093 358.166 359.309 359.634 359.523 361.057C360.233 365.745 360.945 370.433 361.65 375.121C361.698 375.404 361.74 375.687 361.781 375.97C362.064 377.799 362.347 379.651 363.017 381.376C363.66 383.033 364.64 384.539 365.62 386.029C366.124 386.803 366.629 387.569 367.139 388.341C368.65 390.647 370.163 392.959 371.674 395.266H371.717L371.715 395.277ZM372.604 317.19C371.23 316.589 372.57 312.55 373.613 312.999C373.834 313.089 374.069 313.883 374.11 314.221C374.214 315.147 373.571 317.604 372.604 317.19ZM405.282 320.103C403.659 319.398 405.483 313.869 407.45 315.124C407.685 315.276 407.858 315.559 407.906 315.967C408.031 317.051 406.414 320.594 405.282 320.103Z" fill="#FFF6F3"/>
<path d="M395.92 417.045V416.853H395.946L395.972 416.86L395.92 417.045ZM396.307 417.142L396.262 417.329L396.258 417.328L396.307 417.142ZM403.723 420.705L403.844 420.556L403.845 420.556L403.723 420.705ZM404.634 421.514L404.768 421.376L405.043 421.645L404.663 421.704L404.634 421.514ZM403.79 421.645L403.612 421.572L403.653 421.471L403.761 421.454L403.79 421.645ZM401.228 425.918L401.376 426.041L401.375 426.042L401.228 425.918ZM400.088 426.837L400.027 426.654L400.029 426.654L400.088 426.837ZM398.687 426.733L398.755 426.553L398.757 426.553L398.687 426.733ZM395.911 423.267L395.723 423.311L395.723 423.31L395.911 423.267ZM396.194 418.89L396.382 418.849L396.392 418.897L396.378 418.943L396.194 418.89ZM395.918 417.045L395.726 417.06L395.71 416.853H395.918V417.045ZM371.715 395.277L371.522 395.274L371.523 395.26L371.525 395.246L371.715 395.277ZM370.887 400.456L371.073 400.506L371.023 400.692L370.837 400.642L370.887 400.456ZM370.577 400.373L370.4 400.297L370.466 400.144L370.627 400.187L370.577 400.373ZM364.784 411.689L364.626 411.579L364.626 411.579L364.784 411.689ZM359.758 417.944L359.608 417.823L359.608 417.823L359.758 417.944ZM353.986 426.022L353.821 425.923L353.822 425.921L353.986 426.022ZM353.668 426.54L353.503 426.441L353.506 426.437L353.668 426.54ZM345.873 450.588L345.85 450.779L345.672 450.757L345.681 450.578L345.873 450.588ZM346.156 450.622L346.18 450.431L346.371 450.455L346.347 450.647L346.156 450.622ZM345.7 455.884L345.892 455.893L345.883 456.084L345.692 456.076L345.7 455.884ZM345.369 455.87L345.182 455.824L345.219 455.672L345.377 455.678L345.369 455.87ZM336.904 490.26L337.091 490.306L337.091 490.306L336.904 490.26ZM333.858 502.722L334.045 502.767L334.002 502.946L333.821 502.911L333.858 502.722ZM333.789 502.708L333.752 502.897L333.613 502.87L333.597 502.73L333.789 502.708ZM333.492 500.879L333.304 500.917L333.265 500.728L333.455 500.69L333.492 500.879ZM333.735 500.831L333.925 500.8L333.955 500.984L333.772 501.02L333.735 500.831ZM332.886 495.604L333.038 495.486L333.068 495.525L333.076 495.573L332.886 495.604ZM330.304 493.933L330.261 494.121L330.074 494.078L330.116 493.891L330.304 493.933ZM330.347 493.746L330.39 493.559L330.577 493.602L330.534 493.789L330.347 493.746ZM298.304 498.255L298.13 498.337L298.048 498.162L298.222 498.081L298.304 498.255ZM298.546 498.773L298.721 498.691L298.781 498.819L298.677 498.914L298.546 498.773ZM296.827 500.692L296.992 500.792L296.991 500.793L296.827 500.692ZM296.317 503.005L296.506 502.968L296.543 503.158L296.353 503.194L296.317 503.005ZM296.061 503.053L295.872 503.087L295.837 502.899L296.025 502.863L296.061 503.053ZM303.56 538.072L303.372 538.116V538.116L303.56 538.072ZM321.753 583.799L321.904 583.679L321.904 583.679L321.753 583.799ZM328.173 590.579L328.046 590.724L328.046 590.724L328.173 590.579ZM347.105 596.98L347.152 597.167H347.152L347.105 596.98ZM360.824 583.144L360.65 583.063L360.65 583.062L360.824 583.144ZM361.777 580.982L361.599 580.909L361.599 580.908L361.777 580.982ZM367.949 517.434L367.757 517.432V517.432L367.949 517.434ZM368.611 451.725L368.419 451.732L368.418 451.706L368.424 451.68L368.611 451.725ZM369.909 446.389L369.722 446.343L369.741 446.265L369.81 446.224L369.909 446.389ZM376.399 442.128L376.286 441.972L376.44 441.862L376.553 442.013L376.399 442.128ZM376.978 442.902L376.851 443.047L376.836 443.034L376.824 443.018L376.978 442.902ZM385.782 448.018L385.844 447.835L386.02 447.895L385.967 448.073L385.782 448.018ZM385.755 448.108L385.664 448.277L385.526 448.203L385.571 448.053L385.755 448.108ZM422.285 454.392L422.271 454.2H422.271L422.285 454.392ZM444.614 448.89L444.701 449.061L444.701 449.061L444.614 448.89ZM463.504 430.414L463.695 430.431L463.693 430.462L463.68 430.491L463.504 430.414ZM463.055 428.121L463.228 428.036L463.228 428.036L463.055 428.121ZM461.018 425.58L461.083 425.398L461.121 425.412L461.15 425.439L461.018 425.58ZM456.765 423.77L456.85 423.597L456.85 423.597L456.765 423.77ZM443.647 415.222L443.529 415.374L443.529 415.374L443.647 415.222ZM435.444 406.536L435.609 406.436L435.609 406.436L435.444 406.536ZM432.219 387.638L432.41 387.663L432.41 387.663L432.219 387.638ZM434.021 379.304L433.836 379.251L433.837 379.25L434.021 379.304ZM437.577 368.893L437.396 368.826L437.46 368.653L437.636 368.709L437.577 368.893ZM437.75 368.948L437.935 369.004L437.879 369.192L437.691 369.132L437.75 368.948ZM440.989 360.905L440.817 360.817L440.877 360.702L441.006 360.713L440.989 360.905ZM448.541 358.676L448.422 358.524L448.57 358.408L448.69 358.554L448.541 358.676ZM448.859 359.063L448.92 359.245L448.794 359.287L448.71 359.185L448.859 359.063ZM451.075 357.199L451.226 357.319L451.224 357.32L451.075 357.199ZM454.286 352.898L454.128 352.787L454.129 352.786L454.286 352.898ZM454.756 352.015H454.948V352.039L454.942 352.063L454.756 352.015ZM454.756 352.007H454.563V351.894L454.661 351.839L454.756 352.007ZM454.929 351.882L455.117 351.842L455.14 351.951L455.057 352.025L454.929 351.882ZM454.376 349.57L454.563 349.521L454.563 349.521L454.376 349.57ZM446.242 332.634L446.053 332.668L446.017 332.468L446.219 332.443L446.242 332.634ZM447.182 332.516L447.322 332.384L447.584 332.66L447.206 332.707L447.182 332.516ZM443.488 326.302L443.669 326.238L443.669 326.239L443.488 326.302ZM441.32 315.994L441.48 315.888L441.503 315.922L441.51 315.962L441.32 315.994ZM438.725 311.513L438.896 311.425L438.897 311.426L438.725 311.513ZM431.399 291.939L431.217 292.002L431.217 292.002L431.399 291.939ZM426.194 281.224L426.346 281.106L426.346 281.106L426.194 281.224ZM416.169 275.34L416.16 275.148L416.171 275.148L416.181 275.148L416.169 275.34ZM414.981 275.396L414.99 275.589L414.925 275.592L414.871 275.554L414.981 275.396ZM410.016 273.581L409.991 273.772L409.991 273.772L410.016 273.581ZM406.004 273.477L406.015 273.669L405.82 273.68L405.812 273.484L406.004 273.477ZM405.991 273.138L406.012 272.947L406.177 272.965L406.183 273.13L405.991 273.138ZM390.988 275.824L390.922 275.643L390.922 275.643L390.988 275.824ZM383.38 279.759L383.254 279.612L383.254 279.612L383.38 279.759ZM379.183 284.791L379.34 284.901L379.34 284.902L379.183 284.791ZM374.218 293.897L374.141 294.074L373.987 294.007L374.032 293.845L374.218 293.897ZM374.549 294.042L374.626 293.865L374.801 293.941L374.726 294.117L374.549 294.042ZM371.78 303.196L371.591 303.161L371.591 303.16L371.78 303.196ZM370.606 310.831L370.795 310.865L370.795 310.865L370.606 310.831ZM366.788 322.713L366.707 322.888L366.531 322.805L366.614 322.631L366.788 322.713ZM367.347 322.975L367.428 322.801L367.601 322.882L367.522 323.055L367.347 322.975ZM364.53 352.207L364.343 352.252L364.343 352.251L364.53 352.207ZM366.967 359.111L367.153 359.061L367.153 359.062L366.967 359.111ZM367.285 360.291L367.47 360.239L367.11 360.37L367.285 360.291ZM364.467 354.54L364.585 354.389L364.587 354.39L364.467 354.54ZM362.326 353.897L362.304 353.706L362.305 353.706L362.326 353.897ZM359.523 361.057L359.332 361.086L359.332 361.086L359.523 361.057ZM361.65 375.121L361.46 375.153L361.46 375.149L361.65 375.121ZM361.781 375.97L361.591 375.999L361.59 375.997L361.781 375.97ZM363.017 381.376L363.196 381.306L363.196 381.306L363.017 381.376ZM365.62 386.029L365.781 385.923L365.781 385.924L365.62 386.029ZM367.139 388.341L367.299 388.235L367.3 388.235L367.139 388.341ZM371.674 395.266V395.458H371.57L371.513 395.371L371.674 395.266ZM371.717 395.266V395.073H371.944L371.907 395.297L371.717 395.266ZM372.604 317.19L372.528 317.367L372.527 317.366L372.604 317.19ZM373.613 312.999L373.54 313.177L373.537 313.176L373.613 312.999ZM374.11 314.221L374.301 314.199L374.301 314.2L374.11 314.221ZM405.282 320.103L405.206 320.279L405.206 320.279L405.282 320.103ZM407.45 315.124L407.554 314.962L407.555 314.963L407.45 315.124ZM407.906 315.967L408.098 315.945L408.098 315.945L407.906 315.967ZM395.92 417.045L395.972 416.86C396.03 416.876 396.091 416.891 396.156 416.906C396.22 416.921 396.288 416.937 396.356 416.955L396.307 417.142L396.258 417.328C396.195 417.311 396.132 417.296 396.067 417.281C396.002 417.265 395.935 417.249 395.869 417.231L395.92 417.045ZM396.307 417.142L396.352 416.954C399.118 417.622 401.713 418.822 403.844 420.556L403.723 420.705L403.601 420.854C401.521 419.162 398.98 417.985 396.262 417.329L396.307 417.142ZM403.723 420.705L403.845 420.556C404.165 420.82 404.474 421.088 404.768 421.376L404.634 421.514L404.499 421.651C404.215 421.373 403.916 421.114 403.6 420.854L403.723 420.705ZM404.634 421.514L404.663 421.704L403.82 421.835L403.79 421.645L403.761 421.454L404.604 421.323L404.634 421.514ZM403.79 421.645L403.969 421.717C403.333 423.276 402.453 424.742 401.376 426.041L401.228 425.918L401.08 425.796C402.132 424.526 402.992 423.094 403.612 421.572L403.79 421.645ZM401.228 425.918L401.375 426.042C401.061 426.418 400.677 426.849 400.147 427.02L400.088 426.837L400.029 426.654C400.439 426.521 400.76 426.177 401.08 425.795L401.228 425.918ZM400.088 426.837L400.149 427.019C399.633 427.191 399.081 427.094 398.616 426.912L398.687 426.733L398.757 426.553C399.178 426.718 399.631 426.786 400.027 426.654L400.088 426.837ZM398.687 426.733L398.618 426.913C397.099 426.331 396.08 424.859 395.723 423.311L395.911 423.267L396.098 423.224C396.434 424.683 397.386 426.029 398.755 426.553L398.687 426.733ZM395.911 423.267L395.723 423.31C395.388 421.822 395.59 420.276 396.009 418.836L396.194 418.89L396.378 418.943C395.969 420.349 395.783 421.825 396.098 423.225L395.911 423.267ZM396.194 418.89L396.005 418.93C395.873 418.315 395.775 417.692 395.726 417.06L395.918 417.045L396.11 417.03C396.158 417.642 396.252 418.248 396.382 418.849L396.194 418.89ZM395.918 417.045V416.853H395.92V417.045V417.238H395.918V417.045ZM371.715 395.277L371.907 395.28C371.88 397.043 371.529 398.793 371.073 400.506L370.887 400.456L370.701 400.406C371.154 398.707 371.496 396.992 371.522 395.274L371.715 395.277ZM370.887 400.456L370.837 400.642L370.527 400.559L370.577 400.373L370.627 400.187L370.937 400.27L370.887 400.456ZM370.577 400.373L370.754 400.449C369.084 404.346 367.393 408.3 364.942 411.8L364.784 411.689L364.626 411.579C367.05 408.117 368.728 404.201 370.4 400.297L370.577 400.373ZM364.784 411.689L364.942 411.8C363.405 413.996 361.582 416 359.907 418.066L359.758 417.944L359.608 417.823C361.302 415.734 363.099 413.761 364.626 411.579L364.784 411.689ZM359.758 417.944L359.907 418.066C357.875 420.573 355.92 423.259 354.15 426.124L353.986 426.022L353.822 425.921C355.602 423.041 357.567 420.341 359.608 417.823L359.758 417.944ZM353.986 426.022L354.151 426.121C354.047 426.295 353.942 426.468 353.831 426.643L353.668 426.54L353.506 426.437C353.614 426.266 353.717 426.096 353.821 425.923L353.986 426.022ZM353.668 426.54L353.833 426.64C349.606 433.635 346.506 441.64 346.065 450.597L345.873 450.588L345.681 450.578C346.126 441.542 349.252 433.476 353.503 426.441L353.668 426.54ZM345.873 450.588L345.897 450.397L346.18 450.431L346.156 450.622L346.133 450.813L345.85 450.779L345.873 450.588ZM346.156 450.622L346.347 450.647C346.126 452.388 345.975 454.144 345.892 455.893L345.7 455.884L345.508 455.875C345.591 454.116 345.743 452.349 345.965 450.598L346.156 450.622ZM345.7 455.884L345.692 456.076L345.361 456.063L345.369 455.87L345.377 455.678L345.708 455.691L345.7 455.884ZM345.369 455.87L345.556 455.916C342.731 467.385 339.907 478.845 337.091 490.306L336.904 490.26L336.717 490.214C339.533 478.753 342.358 467.293 345.182 455.824L345.369 455.87ZM336.904 490.26L337.091 490.306C336.068 494.455 335.046 498.611 334.045 502.767L333.858 502.722L333.671 502.676C334.672 498.519 335.695 494.363 336.717 490.214L336.904 490.26ZM333.858 502.722L333.821 502.911L333.752 502.897L333.789 502.708L333.826 502.519L333.895 502.533L333.858 502.722ZM333.789 502.708L333.597 502.73C333.529 502.123 333.426 501.52 333.304 500.917L333.492 500.879L333.681 500.841C333.805 501.451 333.91 502.065 333.98 502.686L333.789 502.708ZM333.492 500.879L333.455 500.69L333.697 500.642L333.735 500.831L333.772 501.02L333.53 501.068L333.492 500.879ZM333.735 500.831L333.545 500.862C333.403 499.992 333.262 499.12 333.12 498.248C332.979 497.377 332.837 496.505 332.696 495.635L332.886 495.604L333.076 495.573C333.217 496.443 333.359 497.315 333.5 498.187C333.642 499.058 333.783 499.93 333.925 500.8L333.735 500.831ZM332.886 495.604L332.734 495.722C332.117 494.927 331.236 494.345 330.261 494.121L330.304 493.933L330.347 493.745C331.413 493.991 332.369 494.625 333.038 495.486L332.886 495.604ZM330.304 493.933L330.116 493.891L330.159 493.704L330.347 493.746L330.534 493.789L330.492 493.976L330.304 493.933ZM330.347 493.746L330.303 493.934C325.672 492.86 319.885 492.96 314.152 493.843C308.421 494.725 302.761 496.388 298.385 498.43L298.304 498.255L298.222 498.081C302.636 496.021 308.332 494.349 314.094 493.462C319.853 492.575 325.694 492.47 330.39 493.559L330.347 493.746ZM298.304 498.255L298.478 498.173L298.721 498.691L298.546 498.773L298.372 498.855L298.13 498.337L298.304 498.255ZM298.546 498.773L298.677 498.914C298.039 499.504 297.424 500.08 296.992 500.792L296.827 500.692L296.663 500.593C297.127 499.826 297.783 499.216 298.416 498.632L298.546 498.773ZM296.827 500.692L296.991 500.793C296.587 501.449 296.366 502.236 296.506 502.968L296.317 503.005L296.128 503.041C295.964 502.187 296.225 501.303 296.663 500.591L296.827 500.692ZM296.317 503.005L296.353 503.194L296.097 503.242L296.061 503.053L296.025 502.863L296.282 502.815L296.317 503.005ZM296.061 503.053L296.25 503.018C298.596 515.773 300.654 524.986 303.747 538.027L303.56 538.072L303.372 538.116C300.278 525.071 298.219 515.852 295.872 503.087L296.061 503.053ZM303.56 538.072L303.747 538.027C307.56 554.093 311.889 571.021 321.904 583.679L321.753 583.799L321.602 583.918C311.525 571.183 307.183 554.17 303.372 538.116L303.56 538.072ZM321.753 583.799L321.904 583.679C323.816 586.1 325.936 588.363 328.3 590.434L328.173 590.579L328.046 590.724C325.663 588.636 323.528 586.356 321.602 583.918L321.753 583.799ZM328.173 590.579L328.3 590.434C333.503 594.991 340.427 598.461 347.058 596.794L347.105 596.98L347.152 597.167C340.335 598.881 333.281 595.308 328.046 590.724L328.173 590.579ZM347.105 596.98L347.058 596.794C353.501 595.172 357.755 589.267 360.65 583.063L360.824 583.144L360.999 583.225C358.094 589.45 353.774 595.5 347.152 597.167L347.105 596.98ZM360.824 583.144L360.65 583.062C360.987 582.347 361.304 581.624 361.599 580.909L361.777 580.982L361.955 581.056C361.658 581.776 361.339 582.505 360.998 583.226L360.824 583.144ZM361.777 580.982L361.599 580.908C370.35 559.909 367.535 540.267 367.757 517.432L367.949 517.434L368.142 517.436C367.921 540.201 370.743 559.966 361.955 581.056L361.777 580.982ZM367.949 517.434L367.757 517.432C367.971 496.266 369.15 472.931 368.419 451.732L368.611 451.725L368.804 451.719C369.536 472.928 368.355 496.294 368.142 517.436L367.949 517.434ZM368.611 451.725L368.424 451.68C368.642 450.79 368.858 449.901 369.073 449.012C369.289 448.123 369.504 447.234 369.722 446.343L369.909 446.389L370.096 446.435C369.879 447.325 369.663 448.214 369.447 449.103C369.232 449.991 369.016 450.881 368.798 451.771L368.611 451.725ZM369.909 446.389L369.81 446.224C371.36 445.294 374.116 443.535 376.286 441.972L376.399 442.128L376.511 442.285C374.331 443.856 371.565 445.62 370.008 446.554L369.909 446.389ZM376.399 442.128L376.553 442.013L377.132 442.787L376.978 442.902L376.824 443.018L376.245 442.244L376.399 442.128ZM376.978 442.902L377.106 442.758C379.649 445 382.636 446.74 385.844 447.835L385.782 448.018L385.72 448.2C382.463 447.088 379.432 445.322 376.851 443.047L376.978 442.902ZM385.782 448.018L385.967 448.073L385.94 448.163L385.755 448.108L385.571 448.053L385.598 447.963L385.782 448.018ZM385.755 448.108L385.847 447.939C396.822 453.873 409.802 455.157 422.271 454.2L422.285 454.392L422.3 454.584C409.792 455.544 396.728 454.26 385.664 448.277L385.755 448.108ZM422.285 454.392L422.271 454.2C429.958 453.614 437.676 452.188 444.527 448.718L444.614 448.89L444.701 449.061C437.786 452.564 430.011 453.996 422.3 454.584L422.285 454.392ZM444.614 448.89L444.527 448.718C447.79 447.061 451.73 444.216 455.237 440.905C458.746 437.592 461.806 433.828 463.327 430.337L463.504 430.414L463.68 430.491C462.129 434.05 459.027 437.856 455.501 441.185C451.973 444.516 448.004 447.384 444.701 449.061L444.614 448.89ZM463.504 430.414L463.312 430.397C463.378 429.661 463.213 428.882 462.882 428.205L463.055 428.121L463.228 428.036C463.586 428.769 463.768 429.618 463.695 430.431L463.504 430.414ZM463.055 428.121L462.882 428.206C462.415 427.258 461.683 426.469 460.886 425.72L461.018 425.58L461.15 425.439C461.955 426.196 462.729 427.024 463.228 428.036L463.055 428.121ZM461.018 425.58L460.954 425.761C459.488 425.24 458.066 424.623 456.681 423.943L456.765 423.77L456.85 423.597C458.225 424.272 459.633 424.883 461.083 425.398L461.018 425.58ZM456.765 423.77L456.681 423.943C451.989 421.649 447.676 418.588 443.529 415.374L443.647 415.222L443.765 415.07C447.905 418.279 452.194 421.32 456.85 423.597L456.765 423.77ZM443.647 415.222L443.529 415.374C440.352 412.909 437.362 410.097 435.279 406.635L435.444 406.536L435.609 406.436C437.657 409.84 440.605 412.618 443.765 415.07L443.647 415.222ZM435.444 406.536L435.279 406.635C431.886 401.007 431.189 394.095 432.029 387.613L432.219 387.638L432.41 387.663C431.578 394.091 432.275 400.906 435.609 406.436L435.444 406.536ZM432.219 387.638L432.029 387.613C432.396 384.771 433.047 381.99 433.836 379.251L434.021 379.304L434.206 379.357C433.421 382.085 432.775 384.845 432.41 387.663L432.219 387.638ZM434.021 379.304L433.837 379.25C434.861 375.729 436.134 372.264 437.396 368.826L437.577 368.893L437.758 368.959C436.495 372.398 435.226 375.852 434.206 379.358L434.021 379.304ZM437.577 368.893L437.636 368.709L437.81 368.765L437.75 368.948L437.691 369.132L437.518 369.076L437.577 368.893ZM437.75 368.948L437.566 368.893C438.397 366.114 439.486 363.403 440.817 360.817L440.989 360.905L441.16 360.993C439.839 363.558 438.759 366.246 437.935 369.004L437.75 368.948ZM440.989 360.905L441.006 360.713C443.629 360.951 446.349 360.15 448.422 358.524L448.541 358.676L448.66 358.827C446.509 360.513 443.692 361.344 440.971 361.097L440.989 360.905ZM448.541 358.676L448.69 358.554L449.008 358.941L448.859 359.063L448.71 359.185L448.392 358.798L448.541 358.676ZM448.859 359.063L448.798 358.88C449.668 358.591 450.305 357.843 450.925 357.078L451.075 357.199L451.224 357.32C450.616 358.072 449.913 358.915 448.92 359.245L448.859 359.063ZM451.075 357.199L450.924 357.079C452.032 355.681 453.1 354.248 454.128 352.787L454.286 352.898L454.443 353.009C453.411 354.475 452.339 355.914 451.226 357.319L451.075 357.199ZM454.286 352.898L454.129 352.786C454.322 352.517 454.496 352.246 454.569 351.966L454.756 352.015L454.942 352.063C454.849 352.419 454.635 352.741 454.443 353.01L454.286 352.898ZM454.756 352.015H454.563V352.007H454.756H454.948V352.015H454.756ZM454.756 352.007L454.661 351.839C454.71 351.812 454.754 351.78 454.8 351.738L454.929 351.882L455.057 352.025C454.992 352.084 454.925 352.133 454.85 352.175L454.756 352.007ZM454.929 351.882L454.74 351.921C454.555 351.035 454.355 350.259 454.19 349.618L454.376 349.57L454.563 349.521C454.728 350.163 454.93 350.946 455.117 351.842L454.929 351.882ZM454.376 349.57L454.19 349.618C453.409 346.604 451.676 343.946 449.976 341.24C448.283 338.546 446.624 335.806 446.053 332.668L446.242 332.634L446.432 332.599C446.987 335.654 448.605 338.335 450.302 341.035C451.992 343.725 453.763 346.438 454.563 349.521L454.376 349.57ZM446.242 332.634L446.219 332.443L447.158 332.325L447.182 332.516L447.206 332.707L446.266 332.825L446.242 332.634ZM447.182 332.516L447.042 332.649C445.371 330.886 444.101 328.653 443.306 326.365L443.488 326.302L443.669 326.239C444.449 328.483 445.693 330.666 447.322 332.384L447.182 332.516ZM443.488 326.302L443.306 326.365C442.14 323.024 441.715 319.487 441.13 316.027L441.32 315.994L441.51 315.962C442.099 319.448 442.517 322.937 443.669 326.238L443.488 326.302ZM441.32 315.994L441.159 316.1C440.202 314.65 439.328 313.14 438.553 311.599L438.725 311.513L438.897 311.426C439.665 312.954 440.532 314.451 441.48 315.888L441.32 315.994ZM438.725 311.513L438.553 311.6C435.39 305.37 433.484 298.581 431.217 292.002L431.399 291.939L431.581 291.877C433.858 298.485 435.749 305.227 438.896 311.425L438.725 311.513ZM431.399 291.939L431.217 292.002C429.92 288.233 428.463 284.462 426.042 281.342L426.194 281.224L426.346 281.106C428.81 284.281 430.283 288.106 431.581 291.877L431.399 291.939ZM426.194 281.224L426.042 281.342C423.613 278.215 420.068 275.778 416.157 275.533L416.169 275.34L416.181 275.148C420.236 275.403 423.873 277.922 426.346 281.106L426.194 281.224ZM416.169 275.34L416.178 275.533L414.99 275.589L414.981 275.396L414.972 275.204L416.16 275.148L416.169 275.34ZM414.981 275.396L414.871 275.554C413.453 274.567 411.73 274.004 409.991 273.772L410.016 273.581L410.042 273.39C411.826 273.628 413.611 274.208 415.091 275.238L414.981 275.396ZM410.016 273.581L409.991 273.772C408.681 273.595 407.348 273.594 406.015 273.669L406.004 273.477L405.993 273.285C407.34 273.209 408.699 273.209 410.042 273.39L410.016 273.581ZM406.004 273.477L405.812 273.484L405.798 273.146L405.991 273.138L406.183 273.13L406.197 273.469L406.004 273.477ZM405.991 273.138L405.969 273.329C400.921 272.761 395.87 274.259 391.053 276.005L390.988 275.824L390.922 275.643C395.743 273.896 400.868 272.368 406.012 272.947L405.991 273.138ZM390.988 275.824L391.054 276.005C388.354 276.985 385.656 278.067 383.505 279.905L383.38 279.759L383.254 279.612C385.465 277.724 388.224 276.622 390.922 275.643L390.988 275.824ZM383.38 279.759L383.505 279.905C381.863 281.309 380.598 283.104 379.34 284.901L379.183 284.791L379.025 284.681C380.278 282.89 381.569 281.054 383.254 279.612L383.38 279.759ZM379.183 284.791L379.34 284.902C377.342 287.752 375.332 290.638 374.403 293.949L374.218 293.897L374.032 293.845C374.982 290.46 377.034 287.521 379.025 284.681L379.183 284.791ZM374.218 293.897L374.295 293.721L374.626 293.865L374.549 294.042L374.472 294.218L374.141 294.074L374.218 293.897ZM374.549 294.042L374.726 294.117C373.482 297.038 372.554 300.105 371.97 303.231L371.78 303.196L371.591 303.16C372.181 300.007 373.117 296.913 374.372 293.966L374.549 294.042ZM371.78 303.196L371.97 303.231C371.736 304.493 371.557 305.764 371.379 307.04C371.201 308.315 371.024 309.594 370.795 310.865L370.606 310.831L370.416 310.797C370.644 309.535 370.819 308.263 370.997 306.987C371.175 305.712 371.355 304.432 371.591 303.161L371.78 303.196ZM370.606 310.831L370.795 310.865C370.053 314.983 368.764 319.003 366.962 322.796L366.788 322.713L366.614 322.631C368.401 318.869 369.68 314.881 370.416 310.797L370.606 310.831ZM366.788 322.713L366.87 322.539L367.428 322.801L367.347 322.975L367.265 323.149L366.707 322.888L366.788 322.713ZM367.347 322.975L367.522 323.055C363.357 332.137 362.434 342.504 364.717 352.163L364.53 352.207L364.343 352.251C362.04 342.512 362.97 332.057 367.172 322.895L367.347 322.975ZM364.53 352.207L364.717 352.162C364.999 353.338 365.323 354.508 365.693 355.662L365.51 355.721L365.327 355.779C364.954 354.615 364.627 353.436 364.343 352.252L364.53 352.207ZM365.51 355.721L365.67 355.613C366.362 356.638 366.846 357.918 367.153 359.061L366.967 359.111L366.781 359.161C366.48 358.04 366.01 356.805 365.35 355.828L365.51 355.721ZM366.967 359.111L367.153 359.062C367.258 359.455 367.361 359.848 367.47 360.239L367.285 360.291L367.1 360.343C366.989 359.948 366.885 359.552 366.781 359.16L366.967 359.111ZM367.285 360.291L367.11 360.37C366.431 358.872 365.834 357.341 365.327 355.78L365.51 355.721L365.693 355.661C366.195 357.208 366.787 358.726 367.46 360.212L367.285 360.291ZM365.51 355.721L365.349 355.826C365.053 355.377 364.722 354.993 364.346 354.69L364.467 354.54L364.587 354.39C365.001 354.723 365.358 355.14 365.671 355.615L365.51 355.721ZM364.467 354.54L364.348 354.692C363.773 354.243 363.111 354.006 362.346 354.089L362.326 353.897L362.305 353.706C363.184 353.611 363.943 353.887 364.585 354.389L364.467 354.54ZM362.326 353.897L362.348 354.089C361.026 354.242 359.988 355.468 359.64 356.818L359.453 356.77L359.267 356.722C359.639 355.28 360.768 353.884 362.304 353.706L362.326 353.897ZM359.453 356.77L359.64 356.818C359.291 358.169 359.498 359.599 359.713 361.029L359.523 361.057L359.332 361.086C359.12 359.67 358.896 358.162 359.267 356.722L359.453 356.77ZM359.523 361.057L359.713 361.028C360.423 365.716 361.136 370.404 361.84 375.092L361.65 375.121L361.46 375.149C360.755 370.462 360.043 365.774 359.332 361.086L359.523 361.057ZM361.65 375.121L361.84 375.088C361.888 375.374 361.931 375.659 361.972 375.942L361.781 375.97L361.59 375.997C361.55 375.715 361.508 375.433 361.46 375.153L361.65 375.121ZM361.781 375.97L361.971 375.94C362.255 377.773 362.535 379.604 363.196 381.306L363.017 381.376L362.837 381.445C362.159 379.697 361.873 377.824 361.591 375.999L361.781 375.97ZM363.017 381.376L363.196 381.306C363.831 382.941 364.799 384.431 365.781 385.923L365.62 386.029L365.459 386.134C364.48 384.647 363.489 383.125 362.837 381.445L363.017 381.376ZM365.62 386.029L365.781 385.924C366.285 386.697 366.789 387.463 367.299 388.235L367.139 388.341L366.978 388.447C366.468 387.675 365.963 386.908 365.458 386.134L365.62 386.029ZM367.139 388.341L367.3 388.235C368.055 389.389 368.812 390.543 369.568 391.698C370.324 392.852 371.08 394.007 371.835 395.16L371.674 395.266L371.513 395.371C370.758 394.218 370.002 393.063 369.245 391.909C368.489 390.754 367.733 389.599 366.978 388.446L367.139 388.341ZM371.674 395.266V395.073H371.717V395.266V395.458H371.674V395.266ZM371.717 395.266L371.907 395.297L371.905 395.309L371.715 395.277L371.525 395.246L371.527 395.234L371.717 395.266ZM372.604 317.19L372.527 317.366C372.09 317.175 371.898 316.723 371.844 316.24C371.789 315.752 371.866 315.178 372.017 314.648C372.168 314.119 372.399 313.612 372.67 313.262C372.804 313.088 372.957 312.941 373.126 312.854C373.3 312.765 373.495 312.739 373.689 312.822L373.613 312.999L373.537 313.176C373.47 313.147 373.395 313.149 373.302 313.197C373.203 313.248 373.09 313.347 372.974 313.498C372.743 313.797 372.53 314.255 372.387 314.754C372.245 315.253 372.179 315.774 372.227 316.197C372.275 316.627 372.432 316.904 372.681 317.014L372.604 317.19ZM373.613 312.999L373.686 312.821C373.751 312.847 373.802 312.893 373.84 312.935C373.879 312.979 373.914 313.03 373.945 313.084C374.007 313.19 374.062 313.32 374.11 313.451C374.205 313.714 374.279 314.011 374.301 314.199L374.11 314.221L373.919 314.244C373.901 314.093 373.836 313.824 373.748 313.583C373.705 313.462 373.658 313.356 373.612 313.277C373.589 313.238 373.569 313.21 373.553 313.192C373.535 313.172 373.53 313.173 373.54 313.177L373.613 312.999ZM374.11 314.221L374.301 314.2C374.358 314.703 374.214 315.581 373.937 316.279C373.799 316.628 373.619 316.955 373.395 317.17C373.282 317.279 373.15 317.365 373 317.405C372.847 317.446 372.687 317.435 372.528 317.367L372.604 317.19L372.68 317.013C372.763 317.048 372.834 317.051 372.901 317.033C372.971 317.015 373.047 316.97 373.129 316.892C373.294 316.734 373.449 316.466 373.579 316.137C373.84 315.479 373.966 314.665 373.918 314.243L374.11 314.221ZM405.282 320.103L405.206 320.279C404.693 320.057 404.495 319.475 404.467 318.86C404.439 318.23 404.583 317.485 404.84 316.81C405.095 316.137 405.472 315.508 405.93 315.126C406.16 314.933 406.419 314.797 406.699 314.758C406.983 314.719 407.272 314.783 407.554 314.962L407.45 315.124L407.347 315.287C407.136 315.152 406.938 315.114 406.752 315.14C406.562 315.166 406.368 315.261 406.177 315.421C405.789 315.745 405.443 316.306 405.2 316.947C404.957 317.585 404.827 318.277 404.852 318.843C404.878 319.422 405.06 319.796 405.359 319.926L405.282 320.103ZM407.45 315.124L407.555 314.963C407.848 315.153 408.044 315.494 408.098 315.945L407.906 315.967L407.715 315.99C407.672 315.625 407.522 315.4 407.345 315.286L407.45 315.124ZM407.906 315.967L408.098 315.945C408.134 316.259 408.045 316.717 407.892 317.198C407.736 317.687 407.505 318.228 407.234 318.719C406.964 319.207 406.648 319.659 406.317 319.959C405.994 320.251 405.598 320.45 405.206 320.279L405.282 320.103L405.359 319.926C405.532 320.001 405.763 319.941 406.058 319.674C406.345 319.414 406.637 319.004 406.897 318.533C407.156 318.064 407.377 317.546 407.525 317.082C407.675 316.609 407.741 316.217 407.715 315.99L407.906 315.967Z" fill="#6B432F" mask="url(#path-4-inside-1_291_108)"/>
<path d="M488.304 650.352C485.978 650.573 483.658 650.906 481.366 651.354L481.271 651.372L481.254 651.277L481.118 650.551C474.602 650.943 468.185 652.177 461.772 653.526C455.736 654.795 449.702 656.168 443.6 657.034L442.38 657.201C438.047 657.761 433.684 658.049 429.32 658.265L424.958 658.465L406.93 659.266C390.939 659.975 374.875 660.683 358.933 659.146L357.39 658.99C348.535 658.05 339.531 656.321 331.73 651.91V651.919L331.586 651.835C331.237 651.633 330.887 651.423 330.544 651.215L330.374 651.233C329.662 652.834 329.134 654.508 328.787 656.23L328.768 656.323L328.676 656.305L328.384 656.251C327.994 657.644 327.651 660.164 327.351 663.267C327.046 666.429 326.785 670.187 326.561 673.952C326.17 680.539 325.891 687.153 325.683 690.631L325.598 691.92V692.092H494.871C494.838 690.117 494.458 683.79 493.933 677.507C493.666 674.313 493.362 671.131 493.049 668.54C492.892 667.245 492.733 666.098 492.575 665.171C492.456 664.475 492.34 663.906 492.225 663.493L492.112 663.134C491.185 660.628 490.265 658.121 489.346 655.615C489.127 655.529 488.991 655.311 488.9 655.127L488.899 655.128C488.146 653.667 488.113 651.979 488.304 650.352Z" fill="#B3DDCE" stroke="#6B432F" stroke-width="0.192518"/>
<path d="M392.884 614.456C390.302 614.504 387.728 614.723 385.181 615.135C374.906 618.047 364.68 621.122 354.5 624.348L350.14 625.74C346.657 626.866 343.168 628.009 339.873 629.579L339.217 629.899C336.926 631.044 334.71 632.413 332.433 633.639C332.41 634.531 332.313 635.415 332.137 636.294L332.116 636.396L332.097 636.39C331.752 638.903 331.406 641.412 331.061 643.924L331.2 644.063H331.049C330.698 646.681 330.489 649.422 331.707 651.681C339.013 655.844 347.395 657.631 355.741 658.616L357.411 658.802C371.788 660.324 386.272 659.955 400.728 659.347L406.922 659.078L424.949 658.276C430.4 658.036 435.859 657.791 441.272 657.148L442.354 657.014C448.863 656.166 455.29 654.696 461.733 653.34C468.175 651.985 474.631 650.744 481.19 650.358L481.275 650.353L481.291 650.436L481.425 651.15C483.705 650.707 486.013 650.378 488.326 650.16C488.338 650.053 488.351 649.947 488.366 649.841L488.427 649.454C488.728 647.579 489.201 645.738 489.047 643.878L488.947 643.883L488.848 643.887L488.847 643.788C488.835 642.163 488.319 640.513 487.692 638.956L487.418 638.294C486.811 636.883 486.145 635.432 485.716 633.94L485.713 633.928V633.916C485.686 632.751 485.658 631.578 485.625 630.412C454.78 628.357 424.146 623.132 394.362 614.826L394.289 614.805L394.292 614.729L394.302 614.471C394.08 614.461 393.859 614.456 393.639 614.454L392.884 614.456Z" fill="#FCEFBB" stroke="#6B432F" stroke-width="0.192518"/>
<path d="M367.17 388.579C366.872 389.701 366.743 390.867 366.787 392.028L366.82 392.035L366.915 392.054L366.896 392.148C366.154 395.968 363.684 400.352 361.269 403.135L360.788 403.67C360.193 404.307 358.592 405.695 356.764 407.215C355.39 408.356 353.884 409.576 352.57 410.612L351.332 411.579C350.549 412.181 349.905 412.661 349.5 412.942L349.53 412.99L349.46 413.036L349.51 413.12C348.713 413.682 348.07 414.468 347.675 415.369C349.249 419.149 351.375 422.699 353.972 425.862C355.508 423.386 357.18 421.043 358.92 418.836L359.681 417.884C361.159 416.061 362.724 414.317 364.117 412.445L364.703 411.635C367.133 408.164 368.815 404.238 370.486 400.336L370.519 400.259L370.599 400.28L370.816 400.338C371.251 398.695 371.577 397.033 371.613 395.365L371.59 395.33C370.834 394.177 370.078 393.023 369.322 391.868C368.604 390.772 367.887 389.674 367.17 388.579Z" fill="#FFF6F3" stroke="#6B432F" stroke-width="0.192518"/>
<path d="M425.137 261.295C411.258 255.207 394.402 259.061 382.347 268.305L381.776 268.75C370.044 278.031 362.533 291.709 357.721 305.923L357.263 307.3C351.308 325.597 350.904 352.083 353.031 371.618C354.388 372.32 355.842 372.83 357.309 373.333C358.733 373.822 360.168 374.309 361.525 374.962L359.423 361.078C359.223 359.748 359.019 358.354 359.294 357.019L359.356 356.752C359.697 355.424 360.693 354.15 362.037 353.855L362.311 353.809L362.469 353.795C363.191 353.753 363.825 353.974 364.379 354.367C364.436 353.656 364.455 352.939 364.429 352.223C362.142 342.536 363.058 332.144 367.215 323.029L366.741 322.807L366.654 322.766L366.696 322.679C368.374 319.145 369.605 315.412 370.361 311.587L370.505 310.821C370.733 309.556 370.909 308.283 371.087 307.007C371.221 306.051 371.355 305.093 371.513 304.138L371.68 303.185C372.263 300.067 373.185 297.013 374.418 294.099L374.173 293.992L374.096 293.959L374.119 293.878C374.946 290.933 376.61 288.323 378.35 285.813L379.098 284.742C380.275 283.062 381.476 281.351 383.001 279.965L383.311 279.693C385.232 278.051 387.573 277.006 389.936 276.115L390.949 275.74C395.769 273.993 400.876 272.473 405.995 273.049L406.077 273.059L406.081 273.141L406.091 273.383C407.234 273.322 408.383 273.317 409.522 273.433L410.024 273.492C411.786 273.727 413.543 274.299 415.004 275.305L416.158 275.251L416.163 275.347L416.158 275.25L416.169 275.251C420.063 275.494 423.576 277.848 426.03 280.876L426.264 281.171C428.719 284.332 430.187 288.145 431.485 291.914C433.688 298.309 435.535 304.849 438.513 310.893L438.805 311.476C439.577 313.005 440.445 314.508 441.394 315.948L441.406 315.965L441.408 315.986C441.96 319.247 442.364 322.528 443.365 325.654L443.573 326.277C444.307 328.389 445.452 330.453 446.943 332.127L447.245 332.457C448.878 334.178 450.903 335.427 453.245 335.783L453.26 335.785L453.273 335.792L454.255 336.274C456.596 336.287 458.526 338.334 459.175 340.575L459.235 340.793C459.626 342.352 459.534 343.969 459.279 345.555L459.263 345.649L459.169 345.634L458.943 345.6C458.497 348.123 457.04 350.455 454.98 351.97L454.835 352.076C454.743 352.399 454.548 352.695 454.361 352.955V352.956C453.589 354.055 452.793 355.138 451.974 356.203L451.146 357.262V357.263C450.534 358.018 449.848 358.836 448.885 359.156L448.823 359.178L448.781 359.126L448.522 358.811C446.418 360.431 443.686 361.231 441.043 361.008C439.732 363.562 438.659 366.236 437.839 368.979L437.811 369.073L437.717 369.043L437.632 369.015C436.392 372.392 435.148 375.787 434.141 379.233L436.011 379.606L436.029 379.609L436.043 379.617C437.772 380.678 439.592 381.601 441.472 382.365L442.281 382.682C442.519 382.77 442.762 382.865 442.997 382.959H443.02L443.045 382.979C449.465 387.924 458.019 389.976 465.979 388.471V388.453L466.071 388.448C468.783 388.296 471.486 387.904 474.136 387.277L475.269 386.993C477.461 386.416 479.607 385.671 481.686 384.766C480.403 382.286 479.567 379.578 478.944 376.85L478.686 375.665C476.167 363.612 476.58 351.056 476.507 338.662C476.437 326.651 475.911 314.789 471.832 303.653L471.426 302.577C469.574 297.813 467.089 293.326 464.397 288.972L463.232 287.114C459.881 281.831 456.257 276.653 451.643 272.457L451.194 272.054C446.38 267.803 440.367 264.674 433.967 264.3L433.754 264.67L433.706 264.753L433.623 264.705C431.002 263.205 428.145 262.125 425.186 261.513L425.089 261.492L425.113 261.397L425.137 261.295Z" fill="#F2BA9C" stroke="#6B432F" stroke-width="0.192518"/>
<path d="M463.478 422.509C461.603 422.214 459.35 422.146 457.761 423.013L457.694 423.049L457.644 422.993L457.614 422.961C457.357 423.197 457.121 423.456 456.911 423.734C458.255 424.388 459.631 424.985 461.047 425.488L461.065 425.495L461.08 425.509C461.783 426.169 462.454 426.879 462.94 427.713L463.138 428.078C463.489 428.797 463.667 429.629 463.596 430.422L463.594 430.438L463.588 430.452C462.044 433.994 458.952 437.79 455.431 441.114C452.128 444.232 448.439 446.943 445.278 448.648L444.653 448.976C438.184 452.252 430.96 453.713 423.733 454.367L422.289 454.487C409.789 455.449 396.747 454.163 385.705 448.193L385.637 448.155L385.659 448.08L385.66 448.077C382.451 446.967 379.46 445.219 376.911 442.975L376.903 442.968L376.897 442.96L376.374 442.261C374.225 443.804 371.534 445.521 369.99 446.448C369.776 447.326 369.562 448.203 369.35 449.079C369.135 449.963 368.921 450.848 368.705 451.734C369.39 471.611 368.395 493.379 368.092 513.444L368.041 517.435C367.823 539.859 370.551 559.333 362.265 580.032L361.862 581.019C361.584 581.692 361.287 582.372 360.972 583.046C362.645 583.027 364.324 583.124 365.982 583.345L366.071 583.357L366.066 583.445L366.064 583.488C371.973 583.856 377.548 585.449 383.292 586.687L384.45 586.931C390.967 588.264 397.165 587.765 403.66 587.296L406.464 587.102C411.507 586.775 416.566 586.857 421.613 587.049L423.775 587.137C434.618 587.618 445.444 588.657 456.285 588.03L457.334 587.965C461.074 587.71 464.867 587.257 468.669 586.827C472.442 586.4 476.223 585.995 479.963 585.827C480.026 585.285 480.071 584.745 480.091 584.196C478.49 577.177 477.497 570.011 477.137 562.818C477.007 562.428 476.92 562.024 476.854 561.621L476.792 561.214C476.595 559.854 476.461 558.488 476.345 557.121L476.233 555.754C476.06 553.661 475.888 551.576 475.723 549.491L475.716 549.398L475.809 549.388L476.254 549.342C475.884 545.607 476.022 541.876 476.416 538.151L476.602 536.541C477.106 532.465 477.873 528.387 478.556 524.31L478.571 524.215L478.666 524.231L478.936 524.275C491.231 520.237 506.761 517.408 520.015 516.207L520.121 516.197L520.119 516.306C520.106 516.881 520.106 517.461 520.111 518.035L520.829 518.028L520.911 518.027L520.925 518.109C521.168 519.61 521.398 521.111 521.621 522.619L521.808 522.589C522.711 521.96 523.528 521.203 524.229 520.354H524.171L524.369 520.185C524.781 519.832 525.275 519.461 525.787 519.075C526.301 518.689 526.834 518.287 527.331 517.869C528.267 517.083 529.055 516.256 529.337 515.395L529.386 515.222C529.827 513.394 529.638 511.481 529.297 509.609L529.143 508.809C528.683 506.554 528.098 504.329 527.482 502.111L526.859 499.895L516.8 464.157C514.417 455.712 511.757 446.824 505.444 440.862L504.821 440.294C500.493 436.484 494.972 434.415 489.43 432.639L487.057 431.892C484.253 431.016 480.583 429.304 476.923 427.597C473.487 425.995 470.059 424.398 467.346 423.489L466.813 423.317L466.81 423.316H466.809C466.808 423.315 466.807 423.315 466.806 423.315C466.803 423.314 466.799 423.312 466.794 423.31C466.783 423.306 466.766 423.3 466.744 423.293C466.701 423.279 466.637 423.258 466.554 423.232C466.387 423.179 466.146 423.105 465.846 423.023C465.245 422.857 464.412 422.656 463.478 422.509Z" fill="#FCEFBB" stroke="#6B432F" stroke-width="0.192518"/>
<path d="M396.034 417.172C396.084 417.743 396.173 418.309 396.294 418.87L396.318 418.986H396.271C395.899 420.291 395.716 421.661 395.954 422.979L396.008 423.247C396.327 424.637 397.2 425.933 398.466 426.533L398.725 426.643C399.103 426.791 399.516 426.867 399.899 426.789L400.061 426.746H400.062C400.392 426.639 400.664 426.406 400.914 426.136L401.158 425.857C402.214 424.58 403.079 423.139 403.705 421.608L403.725 421.558L403.779 421.549L404.426 421.449C404.182 421.219 403.931 420.999 403.667 420.779L403.666 420.78C401.703 419.185 399.335 418.047 396.797 417.366L396.289 417.235H396.287C396.223 417.218 396.158 417.203 396.093 417.187C396.074 417.182 396.054 417.176 396.034 417.172Z" fill="#FFF6F3" stroke="#6B432F" stroke-width="0.192518"/>
<path d="M446.354 332.715C446.93 335.75 448.539 338.417 450.216 341.087C451.803 343.613 453.45 346.143 454.305 348.975L454.465 349.545C454.621 350.152 454.809 350.882 454.987 351.711C456.967 350.205 458.364 347.925 458.773 345.464L458.788 345.37L458.882 345.385L459.105 345.418C459.333 343.973 459.414 342.519 459.116 341.116L459.049 340.829C458.484 338.581 456.596 336.515 454.33 336.457V336.517L454.192 336.449L453.203 335.964C450.832 335.602 448.787 334.34 447.143 332.618L446.354 332.715Z" fill="#FFF6F3" stroke="#6B432F" stroke-width="0.192518"/>
<path d="M407.906 315.969C407.858 315.561 407.684 315.278 407.45 315.126C405.482 313.869 403.659 319.4 405.282 320.105C406.414 320.595 408.029 317.053 407.906 315.969Z" stroke="#6B432F" stroke-width="2.52199" stroke-linecap="round" stroke-linejoin="round"/>
<path d="M374.109 314.221C374.067 313.882 373.834 313.089 373.612 312.998C372.569 312.55 371.231 316.589 372.604 317.19C373.57 317.603 374.213 315.145 374.109 314.221Z" stroke="#6B432F" stroke-width="2.52199" stroke-linecap="round" stroke-linejoin="round"/>
<path d="M388.036 315.617C387.857 317.005 387.601 318.393 387.013 319.664C386.434 320.926 385.487 322.066 384.232 322.659C383.452 323.025 382.539 323.198 381.946 323.826C381.201 324.605 381.207 325.828 381.332 326.904C381.442 327.863 381.615 328.824 381.842 329.769" stroke="#6B432F" stroke-width="2.52199" stroke-linecap="round" stroke-linejoin="round"/>
<path d="M386.669 352.596C384.066 351.822 381.381 351.346 378.674 351.186" stroke="#6B432F" stroke-width="2.52199" stroke-linecap="round" stroke-linejoin="round"/>
<path d="M418.338 303.879C415.425 301.455 412.318 300.502 408.832 300.931" stroke="#6B432F" stroke-width="2.52199" stroke-linecap="round" stroke-linejoin="round"/>
<path d="M381.538 298.363C379.937 296.817 378.273 297.087 376.402 297.921" stroke="#6B432F" stroke-width="2.52199" stroke-linecap="round" stroke-linejoin="round"/>
<path d="M446.238 332.635C447.364 338.828 452.789 343.476 454.372 349.571C454.537 350.214 454.738 350.994 454.924 351.883C455.6 355.142 456.139 359.803 454.455 363.904" stroke="#6B432F" stroke-width="2.52199" stroke-linecap="round" stroke-linejoin="round"/>
<path d="M449.705 357.601C449.347 357.994 448.953 358.354 448.539 358.677C446.427 360.335 443.656 361.149 440.986 360.906C440.351 360.858 439.723 360.741 439.109 360.562" stroke="#6B432F" stroke-width="2.52199" stroke-linecap="round" stroke-linejoin="round"/>
<path d="M458.694 347.969C458.873 347.169 459.052 346.354 459.185 345.532C459.441 343.952 459.53 342.35 459.143 340.81C458.563 338.503 456.601 336.363 454.233 336.363H454.129" stroke="#6B432F" stroke-width="2.52199" stroke-linecap="round" stroke-linejoin="round"/>
<path d="M416.163 275.344C420.146 275.592 423.736 278.072 426.187 281.227C428.632 284.375 430.095 288.173 431.393 291.943C433.664 298.537 435.563 305.304 438.718 311.516C439.492 313.049 440.362 314.554 441.313 315.998C444.241 320.41 448.011 324.249 452.733 326.554" stroke="#6B432F" stroke-width="2.52199" stroke-linecap="round" stroke-linejoin="round"/>
<path d="M405.986 273.141C400.89 272.567 395.802 274.081 390.983 275.827C388.284 276.807 385.556 277.898 383.375 279.762C381.712 281.185 380.433 283 379.178 284.794C377.184 287.64 375.153 290.553 374.213 293.9" stroke="#6B432F" stroke-width="2.52199" stroke-linecap="round" stroke-linejoin="round"/>
<path d="M420.741 266.265C417.978 266.644 415.41 268.259 413.878 270.587" stroke="#6B432F" stroke-width="2.52199" stroke-linecap="round" stroke-linejoin="round"/>
<path d="M425.25 261.246C411.096 254.997 393.848 259.084 381.718 268.681C369.587 278.278 361.965 292.563 357.173 307.277C351.207 325.609 350.807 352.141 352.942 371.688C353.004 372.24 353.067 372.793 353.129 373.338" stroke="#6B432F" stroke-width="2.52199" stroke-linecap="round" stroke-linejoin="round"/>
<path d="M367.344 322.982C363.16 332.104 362.234 342.515 364.527 352.214C364.81 353.394 365.136 354.569 365.507 355.728C366.012 357.281 366.605 358.806 367.282 360.298C367.525 360.85 367.787 361.395 368.056 361.934C370.285 366.374 373.427 370.627 377.979 372.968C382.68 375.384 388.307 375.488 393.63 375.045C401.446 374.402 409.172 372.717 416.503 370.053" stroke="#6B432F" stroke-width="2.52199" stroke-linecap="round" stroke-linejoin="round"/>
<path d="M433.915 264.206C440.364 264.564 446.419 267.714 451.259 271.988C456.099 276.262 459.855 281.612 463.314 287.068C466.449 292.004 469.398 297.092 471.518 302.548C480.431 325.477 473.747 351.569 478.781 375.651C479.438 378.807 480.327 381.968 481.819 384.821C482.206 385.587 482.647 386.326 483.138 387.037" stroke="#6B432F" stroke-width="2.52199" stroke-linecap="round" stroke-linejoin="round"/>
<path d="M476.5 387.905C476.086 387.649 475.685 387.38 475.291 387.091C472.453 384.992 470.291 381.981 469.236 378.612" stroke="#6B432F" stroke-width="2.52199" stroke-linecap="round" stroke-linejoin="round"/>
<path d="M442.981 383.058C442.871 382.975 442.759 382.892 442.649 382.802" stroke="#6B432F" stroke-width="2.52199" stroke-linecap="round" stroke-linejoin="round"/>
<path d="M466.075 388.554C458.066 390.094 449.449 388.036 442.986 383.057" stroke="#6B432F" stroke-width="2.52199" stroke-linecap="round" stroke-linejoin="round"/>
<path d="M437.575 368.896C436.312 372.334 435.041 375.794 434.019 379.307C433.231 382.041 432.583 384.81 432.217 387.641C431.381 394.097 432.078 400.96 435.441 406.539C437.505 409.97 440.474 412.767 443.645 415.225C447.788 418.437 452.089 421.488 456.763 423.773C458.143 424.449 459.558 425.065 461.016 425.583C461.285 425.687 461.56 425.783 461.838 425.874" stroke="#6B432F" stroke-width="2.52199" stroke-linecap="round" stroke-linejoin="round"/>
<path d="M385.508 387.953C389.94 386.635 394.483 385.695 399.075 385.158C401.912 384.819 404.841 384.64 407.58 385.42C410.453 386.234 412.924 388.036 415.292 389.859C417.185 391.309 431.483 403.364 421.894 403.674C420.423 403.723 419.022 402.556 417.903 401.728C415.708 400.099 413.519 398.476 411.323 396.853C410.308 396.108 409.272 395.348 408.085 394.942C407.091 394.611 406.034 394.534 404.985 394.52C402.79 394.486 400.594 394.693 398.447 395.129C397.232 395.377 396.023 395.702 394.843 396.103" stroke="#6B432F" stroke-width="2.52199" stroke-linecap="round" stroke-linejoin="round"/>
<path d="M381.428 386.344C378.204 384.451 374.842 382.43 372.929 379.211C371.88 377.449 371.335 375.441 370.809 373.46C369.629 369.077 368.455 364.685 367.28 360.3C367.171 359.907 367.067 359.513 366.963 359.12C366.658 357.988 366.183 356.731 365.505 355.73C365.201 355.267 364.857 354.867 364.462 354.549C363.853 354.074 363.143 353.818 362.321 353.906C360.893 354.072 359.809 355.383 359.449 356.779C359.089 358.175 359.304 359.643 359.518 361.066C360.228 365.754 360.941 370.442 361.645 375.13C361.693 375.413 361.736 375.696 361.776 375.979C362.059 377.807 362.342 379.66 363.012 381.384C363.655 383.042 364.635 384.548 365.615 386.038C366.119 386.812 366.624 387.578 367.134 388.35C368.645 390.656 370.158 392.968 371.67 395.275" stroke="#6B432F" stroke-width="2.52199" stroke-linecap="round" stroke-linejoin="round"/>
<path d="M386.088 395.099C389.478 395.155 392.778 395.927 396.01 397.005C398.039 397.668 400.035 398.455 402.011 399.264C404.897 400.438 408.1 402.026 408.901 405.029C409.398 406.858 408.845 408.785 408.3 410.601" stroke="#6B432F" stroke-width="2.52199" stroke-linecap="round" stroke-linejoin="round"/>
<path d="M403.792 421.646C403.164 423.186 402.294 424.636 401.229 425.92C400.912 426.299 400.559 426.686 400.09 426.838C399.633 426.99 399.131 426.908 398.688 426.734C397.244 426.182 396.258 424.773 395.912 423.269C395.587 421.825 395.781 420.314 396.195 418.891C396.208 418.829 396.222 418.774 396.243 418.712" stroke="#6B432F" stroke-width="2.52199" stroke-linecap="round" stroke-linejoin="round"/>
<path d="M388.367 404.779C392.959 405.684 397.481 406.92 401.899 408.474C404.011 409.219 406.181 410.089 407.7 411.739C409.176 413.354 409.862 415.53 410.489 417.628C410.965 419.216 411.442 420.797 411.912 422.385C412.078 422.938 412.243 423.517 412.12 424.083C411.823 425.464 409.939 425.933 408.639 425.354C407.347 424.774 406.493 423.552 405.561 422.481C405.264 422.143 404.96 421.825 404.635 421.515C404.344 421.232 404.042 420.97 403.724 420.706C401.618 418.995 399.05 417.807 396.308 417.143C396.177 417.108 396.047 417.081 395.921 417.047C392.013 416.184 391.282 417.386 388.687 420.341C386.249 423.737 384.503 427.583 383.094 431.512C382.079 434.35 381.196 437.313 379.317 439.673C378.847 440.266 377.736 441.165 376.396 442.132C374.221 443.699 371.46 445.46 369.906 446.392C369.631 446.558 369.396 446.696 369.21 446.806" stroke="#6B432F" stroke-width="2.52199" stroke-linecap="round" stroke-linejoin="round"/>
<path d="M370.575 400.375C368.904 404.275 367.219 408.21 364.782 411.691C363.249 413.88 361.44 415.869 359.755 417.946C357.718 420.458 355.758 423.152 353.983 426.024C353.879 426.197 353.775 426.369 353.666 426.542C349.426 433.557 346.313 441.593 345.871 450.589" stroke="#6B432F" stroke-width="2.52199" stroke-linecap="round" stroke-linejoin="round"/>
<path d="M463.899 429.407C463.782 429.738 463.651 430.077 463.499 430.415C460.426 437.465 451.174 445.557 444.609 448.891C437.725 452.378 429.98 453.806 422.281 454.394C409.79 455.354 396.77 454.068 385.751 448.11" stroke="#6B432F" stroke-width="2.52199" stroke-linecap="round" stroke-linejoin="round"/>
<path d="M368.58 450.907C368.588 451.182 368.601 451.452 368.607 451.729C369.338 472.933 368.158 496.283 367.945 517.437C367.723 540.235 370.54 559.939 361.772 580.985C361.476 581.703 361.158 582.429 360.819 583.147C357.92 589.362 353.633 595.34 347.101 596.984C340.376 598.676 333.39 595.155 328.168 590.582C325.793 588.505 323.667 586.233 321.748 583.802C311.702 571.105 307.367 554.135 303.555 538.075C300.461 525.032 298.405 515.816 296.056 503.056C295.966 502.573 295.877 502.082 295.787 501.593C295.739 501.345 295.696 501.096 295.648 500.84" stroke="#6B432F" stroke-width="2.52199" stroke-linecap="round" stroke-linejoin="round"/>
<path d="M345.366 455.87C342.542 467.338 339.718 478.799 336.901 490.259C335.879 494.408 334.857 498.564 333.856 502.721C330.182 518.055 326.848 533.479 325.142 549.145" stroke="#6B432F" stroke-width="2.52199" stroke-linecap="round" stroke-linejoin="round"/>
<path d="M291.305 437.271C292.106 434.192 293.334 431.264 295.171 428.634C299.631 422.248 305.761 420.342 312.977 418.872C324.079 416.613 334.048 412.721 344.646 409.096L349.376 410.222L350.833 410.566" stroke="#6B432F" stroke-width="2.52199" stroke-linecap="round" stroke-linejoin="round"/>
<path d="M367.026 389.956C367.026 390.647 366.951 391.378 366.805 392.131C366.018 396.184 363.27 400.885 360.721 403.605C359.541 404.868 354.341 409.142 351.276 411.504C350.441 412.147 349.765 412.65 349.371 412.919H349.363" stroke="#6B432F" stroke-width="2.52199" stroke-linecap="round" stroke-linejoin="round"/>
<path d="M353.97 426.016C351.325 422.812 349.165 419.208 347.569 415.37C347.369 414.9 347.182 414.424 347.003 413.947" stroke="#6B432F" stroke-width="2.52199" stroke-linecap="round" stroke-linejoin="round"/>
<path d="M326.933 455.774C328.777 469.071 330.764 482.349 332.883 495.606C333.166 497.346 333.449 499.092 333.732 500.833" stroke="#6B432F" stroke-width="2.52199" stroke-linecap="round" stroke-linejoin="round"/>
<path d="M331.682 494.1C331.247 493.969 330.798 493.852 330.342 493.748C321.014 491.586 307.088 494.156 298.299 498.257C297.824 498.47 297.36 498.699 296.911 498.932" stroke="#6B432F" stroke-width="2.52199" stroke-linecap="round" stroke-linejoin="round"/>
<path d="M294.89 501.756C293.088 502.336 291.107 501.129 290.167 499.485C289.222 497.848 289.076 495.888 288.945 494.002C288.005 480.11 286.804 462.504 288.641 448.08C288.827 446.604 289.049 445.152 289.303 443.751" stroke="#6B432F" stroke-width="2.52199" stroke-linecap="round" stroke-linejoin="round"/>
<path d="M523.967 520.681C524.106 520.542 524.264 520.405 524.429 520.259C526.066 518.858 529.007 517.16 529.477 515.246C529.987 513.134 529.664 510.916 529.234 508.791C528.62 505.78 527.785 502.825 526.949 499.87C523.601 487.96 520.246 476.044 516.89 464.132C514.432 455.419 511.671 446.201 504.883 440.224C499.918 435.853 493.393 433.768 487.083 431.801C481.49 430.055 472.432 424.967 466.839 423.226C466.839 423.226 460.95 421.162 457.712 422.93" stroke="#6B432F" stroke-width="2.52199" stroke-linecap="round" stroke-linejoin="round"/>
<path d="M522.795 516.076C521.884 516.145 520.958 516.22 520.019 516.303C506.762 517.504 491.227 520.334 478.937 524.373" stroke="#6B432F" stroke-width="2.52199" stroke-linecap="round" stroke-linejoin="round"/>
<path d="M481.548 474.762C481.217 484.442 480.885 494.121 480.554 503.809C480.416 507.938 480.271 512.066 479.829 516.174C479.532 518.895 479.11 521.615 478.648 524.327C477.965 528.409 477.199 532.481 476.694 536.554C476.163 540.842 475.92 545.137 476.356 549.43C476.377 549.721 476.411 550.009 476.446 550.3" stroke="#6B432F" stroke-width="2.52199" stroke-linecap="round" stroke-linejoin="round"/>
<path d="M480.187 584.194C480.229 584.387 480.277 584.573 480.318 584.768" stroke="#6B432F" stroke-width="2.52199" stroke-linecap="round" stroke-linejoin="round"/>
<path d="M477.081 557.55C477.095 559.304 477.143 561.05 477.233 562.804C477.591 569.998 478.587 577.166 480.188 584.187" stroke="#6B432F" stroke-width="2.52199" stroke-linecap="round" stroke-linejoin="round"/>
<path d="M520.827 518.126C521.075 519.659 521.31 521.191 521.538 522.731C525.846 551.143 527.862 579.905 527.552 608.642C527.469 616.755 526.185 626.518 518.825 629.943C515.891 631.302 512.541 631.317 509.311 631.275C501.441 631.165 493.576 630.847 485.72 630.322C454.851 628.272 424.195 623.045 394.389 614.732" stroke="#6B432F" stroke-width="2.52199" stroke-linecap="round" stroke-linejoin="round"/>
<path d="M476.9 536.581C480.905 550.639 484.287 567.548 487.442 582.142C487.643 583.068 487.843 583.987 488.043 584.89" stroke="#6B432F" stroke-width="2.52199" stroke-linecap="round" stroke-linejoin="round"/>
<path d="M500.79 589.165C496.861 587.363 492.739 586.437 488.507 586.066C485.725 585.81 482.901 585.796 480.05 585.921C472.524 586.253 464.826 587.55 457.342 588.062C446.144 588.821 434.958 587.731 423.773 587.234C418.007 586.986 412.23 586.826 406.471 587.2C398.946 587.683 391.896 588.553 384.432 587.027C378.231 585.756 372.294 583.962 365.964 583.58C365.419 583.538 364.866 583.519 364.306 583.505" stroke="#6B432F" stroke-width="2.52199" stroke-linecap="round" stroke-linejoin="round"/>
<path d="M387.753 614.304C386.89 614.547 386.02 614.795 385.158 615.044C373.414 618.372 361.732 621.913 350.112 625.65C346.398 626.851 342.669 628.073 339.175 629.814C336.868 630.967 334.626 632.355 332.34 633.583C329.703 634.998 327.004 636.207 324.055 636.594C323.192 636.704 322.21 636.712 321.577 636.111C320.293 634.91 321.598 632.825 322.861 631.61C326.665 627.964 330.463 624.312 334.26 620.667C331.118 619.722 327.693 620.95 324.994 622.808C322.287 624.672 320.058 627.138 317.426 629.098C316.067 630.112 314.092 630.969 312.786 629.877C312.228 629.407 311.959 628.676 311.833 627.95C311.275 624.704 313.248 621.578 315.424 619.098C318.235 615.895 321.548 613.14 325.2 610.945C325.635 610.689 326.07 610.435 326.511 610.192C327.437 609.682 328.382 609.205 329.349 608.77" stroke="#6B432F" stroke-width="2.52199" stroke-linecap="round" stroke-linejoin="round"/>
<path d="M324.952 610.527C319.436 611.529 314.278 614.387 310.493 618.523C309.596 619.503 308.512 620.663 307.194 620.45C306.697 620.367 306.248 620.092 305.883 619.739C304.668 618.565 304.377 616.659 304.772 615.009C305.159 613.365 306.125 611.915 307.119 610.543C308.403 608.776 309.77 607.062 311.219 605.428C312.372 604.122 313.587 602.852 315.045 601.914C316.515 600.969 318.192 600.387 319.842 599.816C321.382 599.277 322.92 598.745 324.461 598.222C325.123 597.987 325.793 597.76 326.455 597.531" stroke="#6B432F" stroke-width="2.52199" stroke-linecap="round" stroke-linejoin="round"/>
<path d="M325.745 597.388C325.171 597.298 324.591 597.215 324.018 597.132C320.2 596.587 316.367 596.172 312.509 596.097C306.206 595.971 299.882 596.772 293.798 598.465C292.77 598.748 291.721 599.065 290.656 598.996C289.586 598.934 288.475 598.403 288.046 597.421C287.528 596.241 288.15 594.853 289.047 593.927C290.51 592.429 292.581 591.724 294.584 591.11C302.371 588.7 310.312 586.788 318.335 585.379C319.37 585.192 320.406 585.021 321.442 584.854" stroke="#6B432F" stroke-width="2.52199" stroke-linecap="round" stroke-linejoin="round"/>
<path d="M485.387 630.709C485.331 631.801 485.512 632.871 485.808 633.913C486.236 635.397 486.9 636.841 487.506 638.256C488.251 640.002 488.929 641.908 488.942 643.787C488.95 644.513 488.852 645.223 488.632 645.928" stroke="#6B432F" stroke-width="2.52199" stroke-linecap="round" stroke-linejoin="round"/>
<path d="M488.376 652.712C488.721 653.657 489.073 654.604 489.42 655.542C490.346 658.062 491.27 660.582 492.202 663.102C493.424 666.437 494.93 688.468 494.97 692.19V692.238" stroke="#6B432F" stroke-width="2.52199" stroke-linecap="round" stroke-linejoin="round"/>
<path d="M481.195 650.456C468.091 651.229 455.394 655.413 442.366 657.111C436.595 657.856 430.767 658.12 424.953 658.374C418.947 658.643 412.932 658.913 406.926 659.175C390.417 659.906 373.84 660.638 357.401 658.899C348.495 657.954 339.45 656.214 331.634 651.753C331.276 651.545 330.916 651.332 330.564 651.118" stroke="#6B432F" stroke-width="2.52199" stroke-linecap="round" stroke-linejoin="round"/>
<path d="M332.261 634.444C332.179 635.052 332.096 635.658 332.013 636.267C331.661 638.835 331.309 641.397 330.956 643.966C330.866 644.609 330.777 645.257 330.687 645.898" stroke="#6B432F" stroke-width="2.52199" stroke-linecap="round" stroke-linejoin="round"/>
<path d="M328.313 656.145C326.703 661.681 325.931 686.164 325.502 691.916" stroke="#6B432F" stroke-width="2.52199" stroke-linecap="round" stroke-linejoin="round"/>
<path d="M442.986 383.058H442.978C442.736 382.961 442.487 382.865 442.247 382.774C440.071 381.952 437.973 380.917 435.992 379.702" stroke="#6B432F" stroke-width="2.52199" stroke-linecap="round" stroke-linejoin="round"/>
<path d="M480.186 584.187V584.196" stroke="#6B432F" stroke-width="2.52199" stroke-linecap="round" stroke-linejoin="round"/>
<rect width="292.455" height="105.851" transform="matrix(-1 0 0 1 555.025 588.194)" fill="url(#paint1_linear_291_108)"/>
</g>
<defs>
<filter id="filter0_f_291_108" x="0" y="0" width="818" height="818" filterUnits="userSpaceOnUse" color-interpolation-filters="sRGB">
<feFlood flood-opacity="0" result="BackgroundImageFix"/>
<feBlend mode="normal" in="SourceGraphic" in2="BackgroundImageFix" result="shape"/>
<feGaussianBlur stdDeviation="100" result="effect1_foregroundBlur_291_108"/>
</filter>
<linearGradient id="paint0_linear_291_108" x1="9.5413e-07" y1="89.5065" x2="411.345" y2="143.593" gradientUnits="userSpaceOnUse">
<stop offset="1" stop-color="#D7D4C1"/>
</linearGradient>
<linearGradient id="paint1_linear_291_108" x1="146.227" y1="0" x2="146.227" y2="105.851" gradientUnits="userSpaceOnUse">
<stop stop-color="white" stop-opacity="0"/>
<stop offset="1" stop-color="white"/>
</linearGradient>
<clipPath id="clip0_291_108">
<rect width="244.579" height="436.5" fill="white" transform="matrix(-1 0 0 1 531 257)"/>
</clipPath>
</defs>
</svg>
