<svg width="121" height="120" viewBox="0 0 121 120" fill="none" xmlns="http://www.w3.org/2000/svg">
<path d="M104.513 106.728C101.803 106.728 99.4387 104.894 98.7662 102.265C98.379 100.736 98.6031 99.1262 99.3979 97.7608C100.193 96.3954 101.497 95.4173 103.025 95.0301L103.453 94.9282V87.0415L103.025 86.9396C100.417 86.2671 98.5827 83.9031 98.5624 81.2131C98.5624 80.4998 98.705 79.8069 98.9496 79.1548L99.1126 78.7268L92.3671 73.9989L92.0207 74.3046C90.961 75.242 89.5956 75.7515 88.1894 75.7515C86.7833 75.7515 85.4179 75.242 84.3582 74.3046L84.0117 73.9989L77.2663 78.7268L77.4293 79.1548C77.6942 79.8273 77.8165 80.5202 77.8165 81.2334C77.8165 84.5145 75.1468 87.1637 71.8658 87.1637C68.5848 87.1637 65.9151 84.4941 65.9151 81.2131C65.9151 80.4998 66.0578 79.8069 66.3023 79.1548L66.4654 78.7268L59.7199 73.9989L59.3734 74.2842C58.6806 74.8752 57.845 75.3235 56.9483 75.5477C56.4796 75.67 55.9905 75.7311 55.5014 75.7311C52.791 75.7311 50.427 73.897 49.7545 71.2477C49.3673 69.7193 49.5915 68.1093 50.4067 66.7643C51.2218 65.3989 52.5057 64.4411 54.0545 64.0539L54.4825 63.952V59.326L54.0545 59.2241C53.0356 58.9591 52.0981 58.4293 51.3441 57.6956C50.2233 56.5748 49.5915 55.0871 49.5915 53.5179C49.5915 51.9284 50.2029 50.4407 51.3033 49.3198C52.4242 48.1786 53.9322 47.5672 55.5218 47.5672C57.1114 47.5672 58.5787 48.1786 59.6995 49.2791L60.0256 49.5848L66.3227 45.8146L66.18 45.3867C66.017 44.8365 65.9151 44.2862 65.9151 43.7156C65.9151 41.0256 67.7492 38.6616 70.3781 37.9891L70.8061 37.8872V33.2612L70.3578 33.1593C70.1132 33.0981 69.889 33.0166 69.6649 32.9351C68.1976 32.3645 67.0564 31.2844 66.4246 29.8375C65.7929 28.4109 65.7521 26.8214 66.3227 25.3541L66.4857 24.9261L59.7403 20.1982L59.3938 20.5039C58.3341 21.4413 56.9687 21.9508 55.5626 21.9508C54.1564 21.9508 52.791 21.4413 51.7313 20.5039L51.3849 20.1982L44.6394 24.9261L44.8024 25.3541C45.0674 26.0674 45.21 26.801 45.1896 27.555C45.1489 30.8361 42.4588 33.5057 39.1778 33.5057H39.1167C35.7949 33.4649 33.1252 30.7342 33.166 27.4327C33.2067 24.1517 35.8968 21.4821 39.1778 21.4821H39.2389C40.6451 21.4821 42.0105 21.9915 43.0702 22.929L43.4166 23.2347L50.1621 18.5067L49.9991 18.0788C49.4692 16.7134 49.4692 15.2053 49.9991 13.8399C50.8754 11.5575 53.0967 10.0087 55.5422 10.0087C57.9877 10.0087 56.9891 10.1513 57.6616 10.3959C59.1493 10.9665 60.3109 12.0669 60.963 13.5139C61.6151 14.9608 61.6559 16.5707 61.0853 18.0584L60.9223 18.4863L67.6677 23.2143L68.0142 22.9086C69.0739 21.9712 70.4393 21.4617 71.8454 21.4617C73.2516 21.4617 74.617 21.9712 75.6767 22.9086L76.0231 23.2143L82.7686 18.4863L82.6056 18.0584C82.0757 16.693 82.0757 15.1849 82.6056 13.8195C83.4819 11.5371 85.7032 9.98828 88.1487 9.98828C90.5942 9.98828 89.5956 10.1309 90.2681 10.3755C91.7558 10.9461 92.9174 12.0466 93.5695 13.4935C94.2216 14.9404 94.2624 16.5503 93.6918 18.038L93.5287 18.466L100.274 23.1939L100.621 22.9086C101.314 22.3176 102.149 21.8693 103.046 21.6451C103.514 21.5228 104.004 21.4617 104.493 21.4617C107.203 21.4617 109.567 23.2958 110.24 25.9451C111.034 29.1038 109.119 32.3441 105.94 33.1389L105.512 33.2408V37.8668L105.94 37.9687C108.568 38.6412 110.403 41.0052 110.382 43.7156C110.382 46.9763 107.713 49.6459 104.452 49.6459C102.883 49.6459 101.395 49.0345 100.295 47.9341L99.9685 47.6284L95.0979 50.5426L95.261 50.9909C95.5463 51.7857 95.7093 52.6416 95.7093 53.4976C95.7093 57.0639 93.1619 60.2023 89.6567 60.9155L89.188 61.0174V63.952L89.616 64.0539C92.2245 64.7264 94.0586 67.0904 94.079 69.7804C94.079 70.4937 93.9363 71.1866 93.6918 71.8387L93.5287 72.2667L100.274 76.9946L100.621 76.7093C101.314 76.1183 102.149 75.67 103.046 75.4458C103.514 75.3235 104.004 75.2624 104.493 75.2624C107.203 75.2624 109.567 77.0965 110.24 79.7458C111.034 82.9045 109.119 86.1448 105.94 86.9396L105.512 87.0415V94.9282L105.94 95.0301C108.039 95.5803 109.669 97.2106 110.199 99.2893C110.586 100.818 110.362 102.428 109.567 103.793C108.772 105.158 107.468 106.137 105.94 106.524C105.45 106.646 104.941 106.707 104.452 106.707L104.513 106.728ZM104.513 96.9253C102.394 96.9253 100.682 98.6371 100.682 100.757C100.682 102.876 102.394 104.588 104.513 104.588C106.632 104.588 108.344 102.876 108.344 100.757C108.344 98.6371 106.632 96.9253 104.513 96.9253ZM104.513 77.3614C102.394 77.3614 100.682 79.0733 100.682 81.1927C100.682 83.3121 102.394 85.0239 104.513 85.0239C106.632 85.0239 108.344 83.3121 108.344 81.1927C108.344 79.0733 106.632 77.3614 104.513 77.3614ZM71.9066 77.3614C69.7871 77.3614 68.0753 79.0733 68.0753 81.1927C68.0753 83.3121 69.7871 85.0239 71.9066 85.0239C74.026 85.0239 75.7378 83.3121 75.7378 81.1927C75.7378 79.0733 74.026 77.3614 71.9066 77.3614ZM71.9066 75.242C73.3127 75.242 74.6781 75.7515 75.7378 76.6889L76.0843 76.9946L82.8297 72.2667L82.6667 71.8387C82.4018 71.1662 82.2795 70.4733 82.2795 69.7804C82.2795 67.0904 84.1136 64.7264 86.7425 64.0539L87.1705 63.952V61.0174L86.7018 60.9155C83.1966 60.2023 80.6492 57.0639 80.6492 53.4976C80.6492 52.6416 80.8122 51.8061 81.0975 51.0113L81.2605 50.563L76.39 47.6488L76.0639 47.9544C74.943 49.0549 73.4758 49.6663 71.9066 49.6663C70.3374 49.6663 68.8701 49.0549 67.7492 47.9544L67.4232 47.6488L61.1464 51.4189L61.2891 51.8468C61.4521 52.3971 61.554 52.9473 61.554 53.5179C61.554 56.208 59.7199 58.5719 57.091 59.2444L56.663 59.3463V63.9724L57.091 64.0743C59.6995 64.7468 61.5336 67.1108 61.554 69.8008C61.554 70.5141 61.4114 71.2069 61.1668 71.8591L61.0038 72.287L67.7492 77.015L68.0957 76.7093C69.1554 75.7719 70.5208 75.2624 71.9269 75.2624L71.9066 75.242ZM88.2098 65.9492C86.0904 65.9492 84.3785 67.661 84.3785 69.7804C84.3785 71.8998 86.0904 73.6117 88.2098 73.6117C90.3292 73.6117 92.0411 71.8998 92.0411 69.7804C92.0411 67.661 90.3292 65.9492 88.2098 65.9492ZM55.6033 65.9492C53.4839 65.9492 51.7721 67.661 51.7721 69.7804C51.7721 71.8998 53.4839 73.6117 55.6033 73.6117C57.7227 73.6117 59.4346 71.8998 59.4346 69.7804C59.4346 67.661 57.7227 65.9492 55.6033 65.9492ZM88.2098 48.0156C85.1937 48.0156 82.7482 50.4611 82.7482 53.4772C82.7482 56.4933 85.1937 58.9388 88.2098 58.9388C91.2259 58.9388 93.6714 56.4933 93.6714 53.4772C93.6714 50.4611 91.2259 48.0156 88.2098 48.0156ZM55.6033 49.6459C53.4839 49.6459 51.7721 51.3577 51.7721 53.4772C51.7721 55.5966 53.4839 57.3084 55.6033 57.3084C57.7227 57.3084 59.4346 55.5966 59.4346 53.4772C59.4346 51.3577 57.7227 49.6459 55.6033 49.6459ZM77.2866 24.9057L77.4497 25.3337C77.5312 25.5579 77.6127 25.8024 77.6738 26.0266C78.4482 29.165 76.5326 32.3441 73.3942 33.1185L72.9459 33.2204V37.8464L73.3739 37.9483C75.9824 38.6208 77.8165 40.9848 77.8369 43.6748C77.8369 44.2251 77.735 44.7957 77.5719 45.3256L77.4293 45.7535L82.3203 48.6881L82.6463 48.3417C84.0729 46.7725 86.0904 45.8758 88.2098 45.8758C90.3292 45.8758 92.3468 46.7725 93.7733 48.3417L94.0993 48.6881L98.9903 45.7535L98.8477 45.3256C98.8069 45.2033 98.7662 45.0606 98.7458 44.9384C97.9918 41.8204 99.9278 38.682 103.025 37.928L103.474 37.8261V33.2L103.025 33.0981C102.781 33.037 102.557 32.9555 102.332 32.874C100.865 32.3033 99.724 31.2233 99.0922 29.7763C98.4605 28.3498 98.4197 26.7602 98.9903 25.2929L99.1534 24.865L92.4079 20.137L92.0614 20.4427C91.0017 21.3802 89.6363 21.8896 88.2302 21.8896C86.824 21.8896 85.4586 21.3802 84.3989 20.4427L84.0525 20.137L77.307 24.865L77.2866 24.9057ZM104.513 39.864C102.394 39.864 100.682 41.5758 100.682 43.6952C100.682 45.8147 102.394 47.5265 104.513 47.5265C106.632 47.5265 108.344 45.8147 108.344 43.6952C108.344 41.5758 106.632 39.864 104.513 39.864ZM71.9066 39.864C69.7871 39.864 68.0753 41.5758 68.0753 43.6952C68.0753 45.8147 69.7871 47.5265 71.9066 47.5265C74.026 47.5265 75.7378 45.8147 75.7378 43.6952C75.7378 41.5758 74.026 39.864 71.9066 39.864ZM104.513 23.5607C102.394 23.5607 100.682 25.2726 100.682 27.392C100.682 29.5114 102.394 31.2233 104.513 31.2233C106.632 31.2233 108.344 29.5114 108.344 27.392C108.344 25.2726 106.632 23.5607 104.513 23.5607ZM71.9066 23.5607C69.7871 23.5607 68.0753 25.2726 68.0753 27.392C68.0753 29.5114 69.7871 31.2233 71.9066 31.2233C74.026 31.2233 75.7378 29.5114 75.7378 27.392C75.7378 25.2726 74.026 23.5607 71.9066 23.5607ZM39.3001 23.5607C37.1807 23.5607 35.4688 25.2726 35.4688 27.392C35.4688 29.5114 37.1807 31.2233 39.3001 31.2233C41.4195 31.2233 43.1313 29.5114 43.1313 27.392C43.1313 25.2726 41.4195 23.5607 39.3001 23.5607ZM88.2098 12.1485C86.0904 12.1485 84.3785 13.8603 84.3785 15.9797C84.3785 18.0991 86.0904 19.811 88.2098 19.811C90.3292 19.811 92.0411 18.0991 92.0411 15.9797C92.0411 13.8603 90.3292 12.1485 88.2098 12.1485ZM55.6033 12.1485C53.4839 12.1485 51.7721 13.8603 51.7721 15.9797C51.7721 18.0991 53.4839 19.811 55.6033 19.811C57.7227 19.811 59.4346 18.0991 59.4346 15.9797C59.4346 13.8603 57.7227 12.1485 55.6033 12.1485Z" fill="black"/>
<path d="M19.4306 109.968C15.0695 109.968 11.3605 106.748 10.6269 102.305C10.2193 99.8803 10.7695 97.4348 12.1553 95.4377C13.5411 93.4405 15.5994 92.0955 17.943 91.6879L18.4117 91.6064V77.2188L12.6444 83.1695L11.1975 81.6818L18.7174 73.9378C18.9008 73.734 19.1657 73.6321 19.4306 73.6321C19.6956 73.6321 19.9605 73.734 20.1439 73.9378L27.6638 81.6818L26.2169 83.1695L20.4496 77.2188V91.6064L20.9183 91.6879C24.6681 92.34 27.6026 95.3765 28.2344 99.2282C28.642 101.653 28.0917 104.099 26.706 106.096C25.3202 108.093 23.2619 109.438 20.9183 109.846C20.4292 109.927 19.9197 109.968 19.4103 109.968H19.4306ZM19.451 93.6647C15.6605 93.6647 12.5629 96.8438 12.5629 100.757C12.5629 104.669 15.6605 107.849 19.451 107.849C23.2415 107.849 26.3391 104.669 26.3391 100.757C26.3391 96.8438 23.2415 93.6647 19.451 93.6647Z" fill="black"/>
<path d="M39.8708 109.968V105.077H34.9799V102.978H39.8708V91.9935L39.4021 91.912C35.0206 91.1376 31.8211 87.3471 31.7803 82.9044C31.76 77.83 35.8562 73.6727 40.9305 73.6523C45.3732 73.6727 49.1637 76.8722 49.9381 81.2741C50.8144 86.267 47.4518 91.0561 42.459 91.9324L41.9903 92.0139V102.998H46.8812V105.097H41.9903V109.988H39.8912L39.8708 109.968ZM40.9305 75.731C37.0178 75.731 33.8386 78.9101 33.8386 82.8229C33.8386 86.7357 37.0178 89.9148 40.9305 89.9148C44.8433 89.9148 48.0225 86.7357 48.0225 82.8229C48.0225 78.9101 44.8433 75.731 40.9305 75.731Z" fill="black"/>
</svg>
