<svg width="120" height="120" viewBox="0 0 120 120" fill="none" xmlns="http://www.w3.org/2000/svg">
<path d="M78.1086 49.9394H70.0604V41.8911H62.0121V49.9394H53.9638V57.9877H62.0121V66.036H70.0604V57.9877H78.1086V49.9394Z" stroke="black" stroke-width="2.06036" stroke-linecap="round" stroke-linejoin="round"/>
<path d="M53.9638 72.0723H78.1086" stroke="black" stroke-width="2.06036" stroke-linecap="round" stroke-linejoin="round"/>
<path d="M53.9638 78.1089H78.1086" stroke="black" stroke-width="2.06036" stroke-linecap="round" stroke-linejoin="round"/>
<path d="M75.0905 19.0542H99.4366V88.8731C99.4366 93.8832 95.3923 97.9274 90.3823 97.9274M90.3823 97.9274C85.3722 97.9274 81.328 93.8832 81.328 88.8731H14.5272C14.5272 93.8832 18.5714 97.9274 23.5815 97.9274H90.3823Z" stroke="black" stroke-width="2.06036" stroke-linecap="round" stroke-linejoin="round"/>
<path d="M56.9819 19.0542H32.6358V88.8731" stroke="black" stroke-width="2.06036" stroke-linecap="round" stroke-linejoin="round"/>
<path d="M26.5996 82.837V19.0543C26.5996 15.7142 29.2958 13.0181 32.6358 13.0181H59.2153" stroke="black" stroke-width="2.06036" stroke-linecap="round" stroke-linejoin="round"/>
<path d="M72.7163 13.0181H99.4366C102.777 13.0181 105.473 15.7142 105.473 19.0543V103.964C105.473 107.304 102.777 110 99.4366 110H32.6358C29.2958 110 26.5996 107.304 26.5996 103.964V97.9275" stroke="black" stroke-width="2.06036" stroke-linecap="round" stroke-linejoin="round"/>
<path d="M56.9819 19.0543V25.0905H53.9638C50.6237 25.0905 47.9276 27.7867 47.9276 31.1268H84.1449C84.1449 27.7867 81.4487 25.0905 78.1086 25.0905H75.0905V19.0543C75.0905 14.0443 71.0463 10 66.0362 10C61.0261 10 56.9819 14.0443 56.9819 19.0543Z" stroke="black" stroke-width="2.06036" stroke-linecap="round" stroke-linejoin="round"/>
<path d="M66.0362 22.0724C67.7031 22.0724 69.0543 20.7211 69.0543 19.0542C69.0543 17.3874 67.7031 16.0361 66.0362 16.0361C64.3694 16.0361 63.0181 17.3874 63.0181 19.0542C63.0181 20.7211 64.3694 22.0724 66.0362 22.0724Z" stroke="black" stroke-width="2.06036" stroke-linecap="round" stroke-linejoin="round"/>
</svg>
