<svg width="20" height="21" viewBox="0 0 20 21" fill="none" xmlns="http://www.w3.org/2000/svg">
<path d="M13.5817 7.40667L14.7517 8.59417L9.92417 13.35C9.60167 13.6725 9.1775 13.8333 8.75167 13.8333C8.32583 13.8333 7.8975 13.6708 7.57167 13.3458L5.25333 11.0992L6.41417 9.90167L8.74167 12.1575L13.5817 7.40667ZM20 10.5C20 16.0142 15.5142 20.5 10 20.5C4.48583 20.5 0 16.0142 0 10.5C0 4.98583 4.48583 0.5 10 0.5C15.5142 0.5 20 4.98583 20 10.5ZM18.3333 10.5C18.3333 5.905 14.595 2.16667 10 2.16667C5.405 2.16667 1.66667 5.905 1.66667 10.5C1.66667 15.095 5.405 18.8333 10 18.8333C14.595 18.8333 18.3333 15.095 18.3333 10.5Z" fill="#EB5945"/>
</svg>
