<svg width="120" height="120" viewBox="0 0 120 120" fill="none" xmlns="http://www.w3.org/2000/svg">
<path d="M104.013 106.728C101.303 106.728 98.9388 104.894 98.2663 102.265C97.8791 100.736 98.1032 99.1262 98.898 97.7608C99.6928 96.3954 100.997 95.4173 102.526 95.0301L102.953 94.9282V87.0415L102.526 86.9396C99.917 86.2671 98.0829 83.9031 98.0625 81.2131C98.0625 80.4998 98.2051 79.8069 98.4497 79.1548L98.6127 78.7268L91.8673 73.9989L91.5208 74.3046C90.4611 75.242 89.0957 75.7515 87.6895 75.7515C86.2834 75.7515 84.918 75.242 83.8583 74.3046L83.5118 73.9989L76.7664 78.7268L76.9294 79.1548C77.1943 79.8273 77.3166 80.5202 77.3166 81.2334C77.3166 84.5145 74.647 87.1637 71.3659 87.1637C68.0849 87.1637 65.4152 84.4941 65.4152 81.2131C65.4152 80.4998 65.5579 79.8069 65.8024 79.1548L65.9655 78.7268L59.22 73.9989L58.8736 74.2842C58.1807 74.8752 57.3451 75.3235 56.4485 75.5477C55.9797 75.67 55.4906 75.7311 55.0016 75.7311C52.2911 75.7311 49.9272 73.897 49.2547 71.2477C48.8675 69.7193 49.0916 68.1093 49.9068 66.7643C50.7219 65.3989 52.0058 64.4411 53.5546 64.0539L53.9826 63.952V59.326L53.5546 59.2241C52.5357 58.9591 51.5982 58.4293 50.8442 57.6956C49.7234 56.5748 49.0916 55.0871 49.0916 53.5179C49.0916 51.9284 49.703 50.4407 50.8035 49.3198C51.9243 48.1786 53.4324 47.5672 55.0219 47.5672C56.6115 47.5672 58.0788 48.1786 59.1996 49.2791L59.5257 49.5848L65.8228 45.8146L65.6802 45.3867C65.5171 44.8365 65.4152 44.2862 65.4152 43.7156C65.4152 41.0256 67.2494 38.6616 69.8783 37.9891L70.3062 37.8872V33.2612L69.8579 33.1593C69.6133 33.0981 69.3892 33.0166 69.165 32.9351C67.6977 32.3645 66.5565 31.2844 65.9247 29.8375C65.293 28.4109 65.2522 26.8214 65.8228 25.3541L65.9859 24.9261L59.2404 20.1982L58.894 20.5039C57.8342 21.4413 56.4688 21.9508 55.0627 21.9508C53.6565 21.9508 52.2911 21.4413 51.2314 20.5039L50.885 20.1982L44.1395 24.9261L44.3025 25.3541C44.5675 26.0674 44.7101 26.801 44.6897 27.555C44.649 30.8361 41.959 33.5057 38.6779 33.5057H38.6168C35.295 33.4649 32.6254 30.7342 32.6661 27.4327C32.7069 24.1517 35.3969 21.4821 38.6779 21.4821H38.7391C40.1452 21.4821 41.5106 21.9915 42.5703 22.929L42.9168 23.2347L49.6622 18.5067L49.4992 18.0788C48.9694 16.7134 48.9694 15.2053 49.4992 13.8399C50.3755 11.5575 52.5968 10.0087 55.0423 10.0087C57.4878 10.0087 56.4892 10.1513 57.1617 10.3959C58.6494 10.9665 59.811 12.0669 60.4631 13.5139C61.1153 14.9608 61.156 16.5707 60.5854 18.0584L60.4224 18.4863L67.1678 23.2143L67.5143 22.9086C68.574 21.9712 69.9394 21.4617 71.3456 21.4617C72.7517 21.4617 74.1171 21.9712 75.1768 22.9086L75.5233 23.2143L82.2687 18.4863L82.1057 18.0584C81.5758 16.693 81.5758 15.1849 82.1057 13.8195C82.982 11.5371 85.2033 9.98828 87.6488 9.98828C90.0943 9.98828 89.0957 10.1309 89.7682 10.3755C91.2559 10.9461 92.4175 12.0466 93.0696 13.4935C93.7217 14.9404 93.7625 16.5503 93.1919 18.038L93.0289 18.466L99.7743 23.1939L100.121 22.9086C100.814 22.3176 101.649 21.8693 102.546 21.6451C103.015 21.5228 103.504 21.4617 103.993 21.4617C106.703 21.4617 109.067 23.2958 109.74 25.9451C110.534 29.1038 108.619 32.3441 105.44 33.1389L105.012 33.2408V37.8668L105.44 37.9687C108.069 38.6412 109.903 41.0052 109.882 43.7156C109.882 46.9763 107.213 49.6459 103.952 49.6459C102.383 49.6459 100.895 49.0345 99.7947 47.9341L99.4686 47.6284L94.598 50.5426L94.7611 50.9909C95.0464 51.7857 95.2094 52.6416 95.2094 53.4976C95.2094 57.0639 92.662 60.2023 89.1568 60.9155L88.6881 61.0174V63.952L89.1161 64.0539C91.7246 64.7264 93.5587 67.0904 93.5791 69.7804C93.5791 70.4937 93.4364 71.1866 93.1919 71.8387L93.0289 72.2667L99.7743 76.9946L100.121 76.7093C100.814 76.1183 101.649 75.67 102.546 75.4458C103.015 75.3235 103.504 75.2624 103.993 75.2624C106.703 75.2624 109.067 77.0965 109.74 79.7458C110.534 82.9045 108.619 86.1448 105.44 86.9396L105.012 87.0415V94.9282L105.44 95.0301C107.539 95.5803 109.169 97.2106 109.699 99.2893C110.086 100.818 109.862 102.428 109.067 103.793C108.272 105.158 106.968 106.137 105.44 106.524C104.951 106.646 104.441 106.707 103.952 106.707L104.013 106.728ZM104.013 96.9253C101.894 96.9253 100.182 98.6371 100.182 100.757C100.182 102.876 101.894 104.588 104.013 104.588C106.133 104.588 107.844 102.876 107.844 100.757C107.844 98.6371 106.133 96.9253 104.013 96.9253ZM104.013 77.3614C101.894 77.3614 100.182 79.0733 100.182 81.1927C100.182 83.3121 101.894 85.0239 104.013 85.0239C106.133 85.0239 107.844 83.3121 107.844 81.1927C107.844 79.0733 106.133 77.3614 104.013 77.3614ZM71.4067 77.3614C69.2873 77.3614 67.5754 79.0733 67.5754 81.1927C67.5754 83.3121 69.2873 85.0239 71.4067 85.0239C73.5261 85.0239 75.2379 83.3121 75.2379 81.1927C75.2379 79.0733 73.5261 77.3614 71.4067 77.3614ZM71.4067 75.242C72.8128 75.242 74.1782 75.7515 75.2379 76.6889L75.5844 76.9946L82.3299 72.2667L82.1668 71.8387C81.9019 71.1662 81.7796 70.4733 81.7796 69.7804C81.7796 67.0904 83.6137 64.7264 86.2426 64.0539L86.6706 63.952V61.0174L86.2019 60.9155C82.6967 60.2023 80.1493 57.0639 80.1493 53.4976C80.1493 52.6416 80.3123 51.8061 80.5976 51.0113L80.7607 50.563L75.8901 47.6488L75.564 47.9544C74.4432 49.0549 72.9759 49.6663 71.4067 49.6663C69.8375 49.6663 68.3702 49.0549 67.2494 47.9544L66.9233 47.6488L60.6466 51.4189L60.7892 51.8468C60.9522 52.3971 61.0541 52.9473 61.0541 53.5179C61.0541 56.208 59.22 58.5719 56.5911 59.2444L56.1632 59.3463V63.9724L56.5911 64.0743C59.1996 64.7468 61.0338 67.1108 61.0541 69.8008C61.0541 70.5141 60.9115 71.2069 60.6669 71.8591L60.5039 72.287L67.2494 77.015L67.5958 76.7093C68.6555 75.7719 70.0209 75.2624 71.4271 75.2624L71.4067 75.242ZM87.7099 65.9492C85.5905 65.9492 83.8787 67.661 83.8787 69.7804C83.8787 71.8998 85.5905 73.6117 87.7099 73.6117C89.8293 73.6117 91.5412 71.8998 91.5412 69.7804C91.5412 67.661 89.8293 65.9492 87.7099 65.9492ZM55.1034 65.9492C52.984 65.9492 51.2722 67.661 51.2722 69.7804C51.2722 71.8998 52.984 73.6117 55.1034 73.6117C57.2229 73.6117 58.9347 71.8998 58.9347 69.7804C58.9347 67.661 57.2229 65.9492 55.1034 65.9492ZM87.7099 48.0156C84.6938 48.0156 82.2483 50.4611 82.2483 53.4772C82.2483 56.4933 84.6938 58.9388 87.7099 58.9388C90.726 58.9388 93.1715 56.4933 93.1715 53.4772C93.1715 50.4611 90.726 48.0156 87.7099 48.0156ZM55.1034 49.6459C52.984 49.6459 51.2722 51.3577 51.2722 53.4772C51.2722 55.5966 52.984 57.3084 55.1034 57.3084C57.2229 57.3084 58.9347 55.5966 58.9347 53.4772C58.9347 51.3577 57.2229 49.6459 55.1034 49.6459ZM76.7868 24.9057L76.9498 25.3337C77.0313 25.5579 77.1128 25.8024 77.174 26.0266C77.9484 29.165 76.0327 32.3441 72.8944 33.1185L72.446 33.2204V37.8464L72.874 37.9483C75.4825 38.6208 77.3166 40.9848 77.337 43.6748C77.337 44.2251 77.2351 44.7957 77.0721 45.3256L76.9294 45.7535L81.8204 48.6881L82.1465 48.3417C83.573 46.7725 85.5905 45.8758 87.7099 45.8758C89.8293 45.8758 91.8469 46.7725 93.2734 48.3417L93.5995 48.6881L98.4904 45.7535L98.3478 45.3256C98.307 45.2033 98.2663 45.0606 98.2459 44.9384C97.4919 41.8204 99.4279 38.682 102.526 37.928L102.974 37.8261V33.2L102.526 33.0981C102.281 33.037 102.057 32.9555 101.833 32.874C100.365 32.3033 99.2241 31.2233 98.5923 29.7763C97.9606 28.3498 97.9198 26.7602 98.4904 25.2929L98.6535 24.865L91.908 20.137L91.5616 20.4427C90.5019 21.3802 89.1365 21.8896 87.7303 21.8896C86.3242 21.8896 84.9588 21.3802 83.899 20.4427L83.5526 20.137L76.8071 24.865L76.7868 24.9057ZM104.013 39.864C101.894 39.864 100.182 41.5758 100.182 43.6952C100.182 45.8147 101.894 47.5265 104.013 47.5265C106.133 47.5265 107.844 45.8147 107.844 43.6952C107.844 41.5758 106.133 39.864 104.013 39.864ZM71.4067 39.864C69.2873 39.864 67.5754 41.5758 67.5754 43.6952C67.5754 45.8147 69.2873 47.5265 71.4067 47.5265C73.5261 47.5265 75.2379 45.8147 75.2379 43.6952C75.2379 41.5758 73.5261 39.864 71.4067 39.864ZM104.013 23.5607C101.894 23.5607 100.182 25.2726 100.182 27.392C100.182 29.5114 101.894 31.2233 104.013 31.2233C106.133 31.2233 107.844 29.5114 107.844 27.392C107.844 25.2726 106.133 23.5607 104.013 23.5607ZM71.4067 23.5607C69.2873 23.5607 67.5754 25.2726 67.5754 27.392C67.5754 29.5114 69.2873 31.2233 71.4067 31.2233C73.5261 31.2233 75.2379 29.5114 75.2379 27.392C75.2379 25.2726 73.5261 23.5607 71.4067 23.5607ZM38.8002 23.5607C36.6808 23.5607 34.9689 25.2726 34.9689 27.392C34.9689 29.5114 36.6808 31.2233 38.8002 31.2233C40.9196 31.2233 42.6315 29.5114 42.6315 27.392C42.6315 25.2726 40.9196 23.5607 38.8002 23.5607ZM87.7099 12.1485C85.5905 12.1485 83.8787 13.8603 83.8787 15.9797C83.8787 18.0991 85.5905 19.811 87.7099 19.811C89.8293 19.811 91.5412 18.0991 91.5412 15.9797C91.5412 13.8603 89.8293 12.1485 87.7099 12.1485ZM55.1034 12.1485C52.984 12.1485 51.2722 13.8603 51.2722 15.9797C51.2722 18.0991 52.984 19.811 55.1034 19.811C57.2229 19.811 58.9347 18.0991 58.9347 15.9797C58.9347 13.8603 57.2229 12.1485 55.1034 12.1485Z" fill="black"/>
<path d="M18.9305 109.968C14.5694 109.968 10.8604 106.748 10.1268 102.305C9.71918 99.8801 10.2694 97.4346 11.6552 95.4374C13.041 93.4403 15.0993 92.0953 17.4428 91.6877L17.9116 91.6062V77.2186L12.1443 83.1692L10.6974 81.6816L18.2172 73.9375C18.4007 73.7337 18.6656 73.6318 18.9305 73.6318C19.1954 73.6318 19.4604 73.7337 19.6438 73.9375L27.1637 81.6816L25.7167 83.1692L19.9495 77.2186V91.6062L20.4182 91.6877C24.1679 92.3398 27.1025 95.3763 27.7343 99.2279C28.1418 101.653 27.5916 104.099 26.2058 106.096C24.8201 108.093 22.7618 109.438 20.4182 109.845C19.9291 109.927 19.4196 109.968 18.9101 109.968H18.9305ZM18.9509 93.6644C15.1604 93.6644 12.0628 96.8436 12.0628 100.756C12.0628 104.669 15.1604 107.848 18.9509 107.848C22.7414 107.848 25.839 104.669 25.839 100.756C25.839 96.8436 22.7414 93.6644 18.9509 93.6644Z" fill="black"/>
<path d="M39.3707 109.968V105.077H34.4797V102.978H39.3707V91.9935L38.902 91.912C34.5205 91.1376 31.321 87.3471 31.2802 82.9044C31.2598 77.83 35.356 73.6727 40.4304 73.6523C44.8731 73.6727 48.6636 76.8722 49.438 81.2741C50.3143 86.267 46.9517 91.0561 41.9588 91.9324L41.4901 92.0139V102.998H46.3811V105.097H41.4901V109.988H39.3911L39.3707 109.968ZM40.4304 75.731C36.5176 75.731 33.3385 78.9101 33.3385 82.8229C33.3385 86.7357 36.5176 89.9148 40.4304 89.9148C44.3432 89.9148 47.5223 86.7357 47.5223 82.8229C47.5223 78.9101 44.3432 75.731 40.4304 75.731Z" fill="black"/>
</svg>
