<svg width="121" height="120" viewBox="0 0 121 120" fill="none" xmlns="http://www.w3.org/2000/svg">
<g clip-path="url(#clip0_291_2716)">
<path d="M31.0749 52.7475C30.6278 52.7475 30.247 52.466 30.1145 52.0355C27.4319 43.3087 29.0712 34.0024 34.6186 26.501C40.6462 18.3538 50.35 13.4854 60.5837 13.4854C63.316 13.4854 66.0814 13.8331 68.8137 14.512C77.3417 16.6813 84.3629 21.9472 88.569 29.3823C92.5432 36.3869 93.4871 44.4348 91.2019 52.0355C91.0694 52.466 90.6885 52.7475 90.2414 52.7475H31.0749ZM60.6168 15.5222C44.2396 15.5222 30.9259 28.2066 30.9259 43.7889C30.9259 46.1238 31.224 48.409 31.8035 50.5783L31.8532 50.7439H89.4963L89.546 50.5617C91.3675 43.5737 90.3077 36.2379 86.5818 29.9288C82.6241 23.2222 76.1329 18.4532 68.35 16.466C65.8164 15.8202 63.2332 15.5056 60.6665 15.5056L60.6168 15.5222Z" fill="black"/>
<path d="M60.6501 49.5188C58.0006 49.5188 55.8479 47.3661 55.8479 44.7166C55.8479 42.0671 58.0006 39.9144 60.6501 39.9144C61.2959 39.9144 61.9252 40.0468 62.5213 40.2952L62.7035 40.378L65.9988 34.9797C66.2472 34.5657 66.5784 34.4829 66.8102 34.4829C67.191 34.4829 67.5719 34.7147 67.7706 35.0459C67.8865 35.2612 67.9859 35.6089 67.7209 36.0229L64.2932 41.62L64.3925 41.7525C65.5682 43.2262 65.7669 45.1306 64.9555 46.8196C64.1441 48.4921 62.4882 49.5188 60.6336 49.5188H60.6501ZM60.6501 41.9181C59.1101 41.9181 57.8681 43.1766 57.8681 44.7166C57.8681 46.2566 59.1267 47.4985 60.6501 47.4985C62.1736 47.4985 63.4321 46.24 63.4321 44.7166C63.4321 43.1931 62.1736 41.9181 60.6501 41.9181Z" fill="black"/>
<path d="M37.8314 45.0641C37.0034 45.0641 36.8875 44.4845 36.8378 43.9546L36.8047 43.7393C36.8047 31.4854 47.502 21.4504 60.6336 21.4504C73.7651 21.4504 84.4625 31.4688 84.4625 43.789C84.4625 44.0539 84.3465 44.3189 84.1478 44.501C83.9491 44.6997 83.6842 44.7991 83.4192 44.7991H83.2371H77.5572C76.8617 44.7991 76.5637 44.2858 76.5637 43.789C76.5637 43.2922 76.8783 42.7789 77.5572 42.7789H82.4091V42.5305C82.2269 40.1294 81.5977 37.7614 80.5213 35.5093L80.4054 35.2775L75.0733 38.2416C74.9077 38.341 74.7256 38.3906 74.56 38.3906C74.0632 38.3906 73.6989 37.9767 73.5995 37.5792C73.5499 37.364 73.4836 36.8341 74.0963 36.4863L79.4284 33.5222L79.2959 33.3069C77.7062 30.8561 75.5867 28.7531 73.02 27.0972L72.8212 26.9647L69.9399 31.8166C69.6915 32.2306 69.3603 32.3134 69.112 32.3134C68.7311 32.3134 68.3502 32.0981 68.1515 31.7669C68.0356 31.5516 67.9362 31.2204 68.2012 30.7899L71.066 25.9546L70.8341 25.8387C68.0687 24.4642 65.0549 23.686 61.8755 23.5204H61.6271V29.6804C61.6271 30.3759 61.1138 30.674 60.617 30.674C60.1202 30.674 59.6069 30.3594 59.6069 29.6804V23.5038H59.3585C56.1129 23.6859 53.0494 24.4974 50.2343 25.9215L50.0025 26.0374L52.8176 30.7899C53.066 31.2204 52.9832 31.5516 52.8672 31.7669C52.6851 32.0981 52.2877 32.3134 51.9068 32.3134C51.6584 32.3134 51.3272 32.2306 51.0788 31.8166L48.2472 27.0475L48.0485 27.18C45.5149 28.8525 43.4284 30.9389 41.8553 33.3897L41.7228 33.605L46.9059 36.5029C47.3199 36.7347 47.502 37.1487 47.3861 37.5958C47.2867 37.9932 46.9224 38.4072 46.4257 38.4072C46.2601 38.4072 46.0779 38.3575 45.9123 38.2582L40.7293 35.3768L40.6299 35.6087C39.537 37.9104 38.9243 40.3281 38.7918 42.812V43.0604H44.2729C44.9684 43.0604 45.2665 43.5737 45.2665 44.0705C45.2665 44.5673 44.9519 45.0806 44.2729 45.0806H37.7651L37.8314 45.0641Z" fill="black"/>
<path d="M30.5785 114C24.4846 114 19.3512 109.331 18.8545 103.369L12.4626 25.8383C12.1976 22.6258 13.2574 19.5623 15.4432 17.1778C17.6787 14.7436 20.8581 13.3526 24.1866 13.3526C26.0743 13.336 27.6806 13.3195 29.0384 13.3195C31.0918 13.3195 32.5987 13.336 33.7247 13.3526C34.3871 13.3526 34.917 13.3526 35.3476 13.3526C36.9373 13.3526 37.2022 13.2698 37.7983 12.8724C44.5214 8.38479 52.4368 6.00024 60.6502 6.00024C68.8637 6.00024 76.7625 8.38479 83.5021 12.9055C84.0982 13.3029 84.3632 13.3857 85.9529 13.3857C86.3834 13.3857 86.9133 13.3857 87.5757 13.3857C88.7017 13.3857 90.2086 13.3526 92.262 13.3526C93.6199 13.3526 95.2261 13.3526 97.1139 13.3857C100.426 13.3857 103.605 14.7767 105.841 17.2109C108.026 19.5789 109.086 22.6589 108.821 25.8715L102.429 103.402C101.949 109.364 96.7993 114.033 90.722 114.033H30.5785V114ZM87.6254 107.194C87.7082 107.41 87.7082 107.443 87.7082 108.403C87.7082 109.032 87.7082 110.059 87.7082 111.748V111.98H90.722C95.7726 111.98 100.028 108.122 100.426 103.204L106.818 25.6727C107.033 23.0232 106.155 20.4897 104.35 18.5357C102.496 16.532 99.8627 15.3728 97.1304 15.3728H84.9924C84.0817 15.3728 83.1875 15.0913 82.3926 14.578C75.9842 10.2891 68.4662 8.02048 60.6668 8.02048C52.8673 8.02048 45.3328 10.2891 38.9244 14.578C38.1461 15.1079 37.2353 15.3894 36.3246 15.3894H24.2031C21.4543 15.3894 18.8048 16.5485 16.9501 18.5522C15.1452 20.5062 14.2675 23.0398 14.4828 25.6893L20.8747 103.22C21.2721 108.138 25.5444 111.997 30.5785 111.997H33.5923V111.765C33.5923 110.059 33.5923 109.032 33.5923 108.403C33.5923 107.443 33.5923 107.41 33.6751 107.194L33.8075 106.88H31.158C28.3926 106.88 26.0578 104.81 25.8259 102.16L19.5334 26.0536C19.4175 24.6626 19.9143 23.2551 20.8913 22.2118C21.9014 21.1024 23.3255 20.5062 24.8655 20.5062H30.9593C31.6548 20.5062 31.9529 21.0196 31.9529 21.5163C31.9529 22.0131 31.6383 22.5265 30.9593 22.5265H24.8655C23.8885 22.5265 23.0108 22.9073 22.365 23.5863C21.7689 24.2321 21.4708 25.0766 21.5371 25.9046L27.8131 101.995C27.9621 103.618 29.4193 104.876 31.1415 104.876H90.1755C91.8646 104.876 93.3549 103.584 93.4708 101.995L99.7468 25.9046C99.813 25.0435 99.5315 24.2155 98.9354 23.5863C98.3062 22.9073 97.4285 22.5265 96.4515 22.5265H90.3246C89.6291 22.5265 89.331 22.0131 89.331 21.5163C89.331 21.0196 89.6456 20.5062 90.3246 20.5062H96.4515C97.9915 20.5062 99.3991 21.1189 100.426 22.2118C101.386 23.2551 101.883 24.6626 101.767 26.0702L95.4911 102.16C95.2924 104.81 92.9575 106.896 90.1921 106.896H87.5095L87.6419 107.211L87.6254 107.194ZM80.687 107.194C80.7698 107.41 80.7698 107.443 80.7698 108.403C80.7698 109.032 80.7698 110.059 80.7698 111.748V111.98H85.6879V111.748C85.6879 110.043 85.6879 109.032 85.6879 108.387C85.6879 107.41 85.6879 107.393 85.7707 107.178L85.9032 106.863H80.5877L80.7201 107.178L80.687 107.194ZM42.4681 107.194C42.5509 107.41 42.5509 107.443 42.5509 108.42C42.5509 109.049 42.5509 110.076 42.5509 111.765V111.997H78.7496V111.765C78.7496 110.059 78.7496 109.049 78.7496 108.403C78.7496 107.426 78.7496 107.41 78.8324 107.194L78.9649 106.88H42.3687L42.5012 107.194H42.4681ZM35.5297 107.194C35.6125 107.41 35.6125 107.443 35.6125 108.42C35.6125 109.049 35.6125 110.076 35.6125 111.765V111.997H40.5306V111.765C40.5306 110.059 40.5306 109.032 40.5306 108.403C40.5306 107.443 40.5306 107.41 40.6134 107.194L40.7459 106.88H35.4138L35.5463 107.194H35.5297Z" fill="black"/>
<path d="M33.0124 63.7097C32.3169 63.7097 32.0188 63.1964 32.0188 62.6996C32.0188 62.2028 32.3334 61.6895 33.0124 61.6895H88.2709C88.9664 61.6895 89.2644 62.2028 89.2644 62.6996C89.2644 63.1964 88.9498 63.7097 88.2709 63.7097H33.0124Z" fill="black"/>
<path d="M60.6499 93.1023C60.1531 93.1023 59.6397 92.7877 59.6397 92.1087V85.1869L53.6453 88.6478C53.4797 88.7472 53.2975 88.7969 53.1319 88.7969C52.6351 88.7969 52.2708 88.3994 52.1715 87.9855C52.1218 87.7702 52.0556 87.2403 52.6517 86.8925L58.6462 83.4316L52.6517 79.9707C52.0556 79.623 52.1218 79.0931 52.1715 78.8778C52.2708 78.4804 52.6351 78.0664 53.1319 78.0664C53.2975 78.0664 53.4797 78.1161 53.6618 78.2155L59.6563 81.6764V74.7546C59.6563 74.0591 60.1696 73.761 60.6664 73.761C61.1632 73.761 61.6765 74.0756 61.6765 74.7546V81.6764L67.671 78.2155C67.8532 78.1161 68.0188 78.0664 68.2009 78.0664C68.6811 78.0664 69.0454 78.4638 69.1614 78.8613C69.2276 79.0765 69.2938 79.6064 68.6811 79.9542L62.6867 83.4151L68.6811 86.876C69.2773 87.2237 69.211 87.7536 69.1614 87.9689C69.0454 88.3663 68.6811 88.7803 68.2009 88.7803C68.0353 88.7803 67.8532 88.7306 67.6876 88.6313L61.6931 85.1704V92.0922C61.6931 92.7877 61.1798 93.0857 60.683 93.0857L60.6499 93.1023Z" fill="black"/>
</g>
<defs>
<clipPath id="clip0_291_2716">
<rect width="96.425" height="108" fill="white" transform="translate(12.4287 6)"/>
</clipPath>
</defs>
</svg>
