<svg width="818" height="818" viewBox="0 0 818 818" fill="none" xmlns="http://www.w3.org/2000/svg">
<g filter="url(#filter0_f_291_2678)">
<circle cx="409" cy="409" r="209" fill="url(#paint0_linear_291_2678)" fill-opacity="0.5"/>
</g>
<g clip-path="url(#clip0_291_2678)">
<path d="M563.585 459.369L564.577 463.76C564.925 465.259 563.754 466.546 562.371 466.546C562.054 466.546 561.727 466.472 561.4 466.324L561.495 466.989C561.611 467.834 561.273 468.699 560.566 469.153C559.944 469.554 559.268 469.607 558.677 469.543C557.759 469.406 557.02 468.689 556.82 467.77L556.714 467.285C554.783 470.198 552.134 468.003 551.975 467.19C551.912 466.926 550.16 459.38 549.052 454.683C548.788 453.491 548.545 452.488 548.387 451.823C548.324 451.559 547.965 451.517 547.849 451.771C547.31 453.1 546.171 455.823 545.305 457.902C544.113 460.741 541.506 461.892 540.345 460.235C539.173 458.578 542.055 455.992 541.97 452.024C541.907 449.153 543.88 444.351 544.999 441.903C545.464 440.858 545.854 439.539 545.77 438.388L544.873 430.905L538.983 381.291L553.896 376.911V376.932L559.806 437.839C559.912 438.768 560.809 439.771 561.273 440.562C565.432 447.612 566.392 454.029 566.92 456.889C567.226 458.515 566.445 459.992 564.841 459.939C564.091 459.908 563.585 459.369 563.585 459.369Z" fill="#FFD2BB"/>
<path d="M543.352 621.478C567.669 624.37 583.901 629.573 583.901 635.515C583.901 644.581 546.012 651.937 499.279 651.937C452.546 651.937 414.647 644.581 414.647 635.515C414.647 630.428 426.583 625.868 445.327 622.85C444.04 624.444 442.995 626.533 442.488 629.288C442.488 629.277 442.467 629.277 442.457 629.277C441.57 629.098 440.673 629.552 440.378 630.407C440.114 631.145 439.881 632.148 439.892 633.33C439.903 634.196 440.546 634.955 441.401 635.103C445.042 635.705 457.306 637.035 475.976 636.792C476.198 637.372 476.725 637.837 477.369 637.942C482.804 638.85 507.606 641.362 544.26 637.847C545.199 637.752 545.906 636.961 545.917 636.021C545.917 635.314 545.864 634.481 545.674 633.752C545.484 633.045 544.841 632.57 544.112 632.507L543.352 623.948V621.478Z" fill="#DDCDBA"/>
<path d="M553.252 352.648L556.155 376.246L553.896 376.911L538.983 381.291L542.983 338.896L543.279 338.263C546.297 339.698 549.326 342.125 551.384 346.189C552.408 348.204 552.978 350.41 553.252 352.648Z" fill="#EA8457"/>
<path d="M549.051 476.129V478.957H470.878C470.825 478.008 470.773 477.068 470.73 476.139H470.994L503.258 476.129H549.051Z" fill="#2B2B2B"/>
<path d="M549.051 454.683V476.129H503.258V419.496H539.69C539.69 419.496 542.888 425.523 544.872 430.905L545.769 438.388C545.854 439.538 545.463 440.858 544.999 441.902C543.88 444.351 541.906 449.153 541.97 452.024C542.054 455.992 539.173 458.578 540.344 460.235C541.505 461.892 544.112 460.741 545.305 457.902C546.17 455.823 547.31 453.1 547.848 451.77C547.964 451.517 548.323 451.559 548.387 451.823C548.545 452.488 548.788 453.491 549.051 454.683Z" fill="#2B2B2B"/>
<path d="M496.292 324.553C496.292 324.553 496.25 324.553 496.239 324.542C495.786 324.405 495.353 324.279 494.941 324.152C494.931 324.152 494.92 324.152 494.91 324.141C489.411 322.463 486.53 321.228 485.063 320.331C485.052 320.331 485.042 320.321 485.042 320.321C482.752 318.917 483.976 318.379 483.976 318.379C485.949 317.608 488.102 311.044 488.757 308.901C488.767 308.88 488.778 308.859 488.778 308.838C489.232 307.603 489.738 306.21 490.287 304.648C490.298 304.648 490.298 304.627 490.298 304.606C492.693 298.147 496.598 287.604 497.031 286.422C497.031 286.4 497.042 286.39 497.052 286.369C503.131 274.369 512.081 273.503 517.274 274.221C517.759 274.284 518.202 274.358 518.603 274.453C519.015 274.538 519.384 274.622 519.711 274.717C519.88 274.759 520.039 274.802 520.176 274.844C520.967 275.076 521.421 275.277 521.421 275.277C521.421 275.277 523.5 274.749 526.371 275.055C529.632 275.678 533.062 277.345 534.571 278.327C534.582 278.337 534.593 278.337 534.603 278.348C535.321 278.918 536.017 279.572 536.682 280.342C537.252 281.145 537.79 282.158 539.12 283.815C539.131 283.825 539.131 283.836 539.141 283.846C540.123 285.609 540.978 287.709 541.653 290.221C541.674 290.295 541.695 290.369 541.706 290.443C542.307 292.986 542.687 295.424 542.825 296.427C542.856 296.669 542.888 296.923 542.92 297.176C542.941 297.398 542.962 297.619 542.983 297.851C543.817 306.537 544.767 312.553 545.674 316.732C545.706 316.891 545.748 317.049 545.78 317.207C546.286 319.761 546.856 321.513 547.342 322.748C547.394 322.875 547.437 323.002 547.489 323.118C547.584 323.36 547.669 323.571 547.764 323.772C547.891 324.078 548.017 324.352 548.144 324.585C548.503 325.439 547.943 326.41 547.036 326.6C546.719 326.664 546.392 326.738 546.054 326.801C540.176 327.877 531.849 328.036 524.165 327.856C523.574 327.582 522.973 327.149 522.456 326.474L522.751 318.569C524.619 316.912 525.674 315.572 525.674 315.572C525.674 315.572 532.091 317.978 535.268 312.458C536.672 310.041 536.746 307.002 535.268 304.638C534.498 303.392 533.273 302.263 531.374 301.946C527.975 301.376 526.318 302.748 525.653 303.551C525.411 303.846 524.978 303.878 524.703 303.614C524.703 303.614 524.82 301.609 523.849 298.59L531.057 296.121C531.447 295.983 531.659 295.551 531.532 295.16L531.015 293.662C530.878 293.271 530.445 293.06 530.065 293.197L520.904 296.332C508.883 293.239 511.859 283.498 511.859 283.498C506.614 287.234 502.667 286.981 502.667 286.981C502.667 286.981 488.651 313.957 500.662 322.168C501.326 322.622 502.076 323.012 502.91 323.35C503.606 323.635 504.292 323.856 504.978 324.025L504.936 324.532C503.743 325.619 502.751 326.041 501.949 326.136C501.231 325.936 500.545 325.756 499.881 325.577C498.582 325.218 497.4 324.88 496.303 324.553H496.292Z" fill="#2B2B2B"/>
<path d="M547.489 323.118C547.584 323.36 547.679 323.571 547.764 323.772C547.669 323.571 547.584 323.36 547.489 323.118Z" fill="#2B2B2B"/>
<path d="M545.674 633.752C545.864 634.48 545.917 635.314 545.917 636.021C545.917 636.961 545.199 637.752 544.26 637.847C507.606 641.362 482.804 638.85 477.369 637.942C476.725 637.837 476.198 637.372 475.976 636.792C485.253 636.676 496.113 636.169 508.292 635.008C508.926 634.945 509.464 634.554 509.738 634.016L518.91 633.699C519.089 633.699 519.268 633.699 519.458 633.689C521.443 633.636 523.363 633.573 525.221 633.499C525.347 633.488 525.474 633.488 525.611 633.478L544.134 632.866L544.112 632.507C544.841 632.57 545.484 633.045 545.674 633.752Z" fill="white"/>
<path d="M544.112 632.507L544.133 632.866L525.611 633.478C534.244 633.14 541.188 632.686 543.838 632.496C543.922 632.486 544.017 632.496 544.112 632.496V632.507Z" fill="white"/>
<path d="M507.733 619.156C514.994 619.304 521.96 619.621 528.567 620.096C530.181 622.724 534.012 625.647 543.068 624.001C543.152 623.99 543.258 623.969 543.353 623.948L544.113 632.507C544.018 632.507 543.923 632.486 543.838 632.507C541.189 632.697 534.245 633.151 525.611 633.489C525.474 633.499 525.348 633.499 525.221 633.51L519.458 633.7C519.269 633.71 519.089 633.71 518.91 633.71C515.955 633.805 512.883 633.879 509.802 633.911C509.897 633.689 509.949 633.446 509.949 633.193C509.949 632.475 509.897 631.652 509.707 630.934C509.517 630.217 508.873 629.742 508.145 629.689L507.385 621.119V619.156C507.501 619.167 507.617 619.167 507.733 619.167V619.156Z" fill="#C66258"/>
<path d="M542.919 297.176C543.183 299.245 544.872 312.564 545.674 316.733C544.766 312.553 543.817 306.538 542.983 297.852C542.962 297.619 542.941 297.398 542.919 297.176Z" fill="#2B2B2B"/>
<path d="M543.384 478.958L537.812 590.587H534.16H531.036H525.157H520.092L514.656 478.958H543.384Z" fill="#FFD2BB"/>
<path d="M543.352 621.478V623.947C543.257 623.969 543.152 623.99 543.067 624C541.41 624.264 533.02 625.319 529.041 620.127C534.044 620.496 538.835 620.95 543.352 621.478Z" fill="#2B2B2B"/>
<path d="M543.352 606.829V621.478C538.835 620.95 534.044 620.496 529.041 620.127C528.324 619.209 527.754 618.09 527.384 616.718H539.627V608.486L540.777 606.829C542.54 604.919 543.352 606.829 543.352 606.829Z" fill="#2B2B2B"/>
<path d="M538.983 381.291L539.69 419.496H475.934L476.82 365.829L466.794 334.495L469.844 332.416L483.015 323.476L490.224 335.36C490.224 335.36 484.788 350.547 507.564 350.421C530.329 350.294 532.608 336.257 532.608 336.257C532.608 336.257 537.938 335.719 543.278 338.263L542.983 338.896L538.983 381.291ZM533.031 366.948C533.041 366.399 532.598 365.956 532.06 365.956L513.759 365.829C513.21 365.829 512.767 366.262 512.778 366.811L512.851 380.985C512.851 382.072 513.4 383.085 514.308 383.687L519.427 387.106C521.136 388.246 523.342 388.341 525.147 387.349L531.173 384.035C532.207 383.465 532.851 382.378 532.862 381.207L533.031 366.948Z" fill="#EA8457"/>
<path d="M529.041 620.127C533.02 625.32 541.411 624.264 543.068 624C534.012 625.647 530.181 622.723 528.566 620.095C528.725 620.095 528.872 620.117 529.041 620.127Z" fill="#2B2B2B"/>
<path d="M539.627 608.486V616.718H527.374V616.697C529.622 614.46 532.925 613.594 534.856 613.256C535.912 613.088 536.84 612.497 537.453 611.621L539.627 608.486Z" fill="#2B2B2B"/>
<path d="M539.626 595.969V608.486L537.452 611.621C536.84 612.497 535.911 613.088 534.856 613.257C532.925 613.594 529.621 614.46 527.373 616.697C527.373 616.697 522.645 615.061 520.197 610.017C519.975 609.552 519.511 609.288 519.036 609.32V595.969H520.355L520.766 604.465H537.115L537.537 595.969H539.626Z" fill="white"/>
<path d="M539.627 593.067V595.969H537.537L537.685 593.067H539.627Z" fill="white"/>
<path d="M539.627 591.251V593.067H537.685L537.812 590.586H538.962C539.331 590.586 539.627 590.882 539.627 591.251Z" fill="white"/>
<path d="M539.141 283.846C540.207 285.187 541.041 287.73 541.653 290.221C540.977 287.709 540.123 285.609 539.141 283.846Z" fill="#2B2B2B"/>
<path d="M537.526 593.067H534.16V590.692V590.586H537.811L537.685 593.067H537.526Z" fill="white"/>
<path d="M522.244 593.067H525.157H527.985H531.036H534.16H537.526H537.685L537.537 595.969H520.355L520.218 593.067H522.244Z" fill="white"/>
<path d="M537.537 595.969L537.115 604.465H520.767L520.355 595.969H537.537Z" fill="white"/>
<path d="M535.268 304.638C536.746 307.002 536.672 310.041 535.268 312.458C532.091 317.978 525.675 315.572 525.675 315.572C525.675 315.572 524.619 316.912 522.751 318.569L522.772 317.915L505.01 323.73L504.978 324.025C504.292 323.857 503.606 323.635 502.91 323.35C502.076 323.012 501.327 322.622 500.662 322.168C488.651 313.957 502.667 286.981 502.667 286.981C502.667 286.981 506.614 287.234 511.86 283.498C511.86 283.498 508.883 293.24 520.904 296.332L520.429 296.49C520.028 296.627 519.817 297.05 519.954 297.44L520.461 298.939C520.598 299.34 521.031 299.551 521.432 299.414L523.849 298.59C524.82 301.609 524.704 303.614 524.704 303.614C524.978 303.878 525.411 303.846 525.654 303.551C526.318 302.749 527.975 301.377 531.374 301.947C533.274 302.263 534.498 303.392 535.268 304.638ZM521.421 308.437C521.421 305.904 519.363 303.846 516.83 303.846C514.297 303.846 512.25 305.904 512.25 308.437C512.25 310.97 514.308 313.018 516.83 313.018C519.353 313.018 521.421 310.96 521.421 308.437ZM514.392 301.366C514.435 300.796 514.002 300.3 513.422 300.258C512.841 300.216 512.345 300.659 512.324 301.229C512.282 301.809 512.714 302.305 513.295 302.337C513.865 302.379 514.361 301.936 514.392 301.366ZM502.667 296.881C502.709 296.3 502.266 295.804 501.696 295.762C501.116 295.72 500.62 296.163 500.588 296.733C500.546 297.313 500.989 297.809 501.559 297.852C502.139 297.883 502.635 297.44 502.667 296.881Z" fill="#FFD2BB"/>
<path d="M534.603 278.348C535.69 279.066 536.197 279.625 536.682 280.343C536.017 279.572 535.321 278.918 534.603 278.348Z" fill="#2B2B2B"/>
<path d="M534.16 590.692V593.067H531.036V590.692V590.586H534.16V590.692Z" fill="white"/>
<path d="M532.06 365.956C532.598 365.956 533.041 366.4 533.031 366.948L532.862 381.207C532.851 382.378 532.207 383.465 531.173 384.035L525.147 387.349C523.342 388.341 521.136 388.246 519.427 387.106L514.308 383.687C513.4 383.085 512.851 382.072 512.851 380.985L512.778 366.811C512.767 366.262 513.21 365.83 513.759 365.83L532.06 365.956Z" fill="#DB734B"/>
<path d="M523.542 333.608L532.608 336.257C532.608 336.257 530.329 350.294 507.564 350.421C484.788 350.548 490.224 335.36 490.224 335.36L502.994 332.395H503.004L503.353 332.31C503.88 332.184 504.271 331.74 504.313 331.213L504.345 330.907C504.345 330.907 504.355 330.854 504.355 330.833L504.725 326.759C506.836 326.938 514.097 327.55 522.413 327.804L522.265 331.846V332.247C522.234 332.817 522.603 333.334 523.152 333.492L523.521 333.598C523.521 333.598 523.532 333.608 523.542 333.608Z" fill="#FFD2BB"/>
<path d="M531.532 295.16C531.658 295.551 531.447 295.984 531.057 296.121L523.848 298.59C523.669 298.031 523.447 297.429 523.183 296.807C522.371 296.67 521.611 296.511 520.904 296.332L530.065 293.197C530.445 293.06 530.877 293.271 531.014 293.662L531.532 295.16Z" fill="#EFC684"/>
<path d="M527.986 593.067H525.157V590.692V590.586H531.036V590.692V593.067H527.986Z" fill="white"/>
<path d="M529.041 620.127C528.872 620.117 528.724 620.106 528.566 620.096C527.542 618.439 527.395 616.929 527.374 616.718H527.384C527.753 618.09 528.323 619.209 529.041 620.127Z" fill="#AFAFAF"/>
<path d="M507.923 613.964L513.59 611.557L518.688 609.404C518.794 609.351 518.931 609.32 519.036 609.32V616.718H527.374C527.395 616.929 527.543 618.438 528.567 620.095C521.96 619.62 514.994 619.304 507.733 619.156C507.617 618.977 507.501 618.818 507.385 618.66V614.196L507.923 613.964Z" fill="#C66258"/>
<path d="M527.373 616.697V616.718H519.036V609.32C519.511 609.288 519.975 609.552 520.197 610.017C522.645 615.061 527.373 616.697 527.373 616.697Z" fill="#C66258"/>
<path d="M519.458 633.689L525.22 633.499C523.363 633.573 521.442 633.636 519.458 633.689Z" fill="#DDCDBA"/>
<path d="M522.244 593.067H520.218L520.091 590.586H525.157V590.692V593.067H522.244Z" fill="white"/>
<path d="M526.371 275.055C523.501 274.749 521.421 275.277 521.421 275.277C522.772 274.675 524.545 274.696 526.371 275.055Z" fill="#2B2B2B"/>
<path d="M523.848 298.59L521.431 299.413C521.03 299.551 520.598 299.34 520.461 298.938L519.954 297.44C519.817 297.049 520.028 296.627 520.429 296.49L520.904 296.332C521.611 296.511 522.371 296.669 523.183 296.807C523.447 297.429 523.669 298.031 523.848 298.59Z" fill="#EFC684"/>
<path d="M524.166 327.856C523.575 327.835 522.994 327.825 522.414 327.804L522.456 326.474C522.973 327.149 523.575 327.582 524.166 327.856Z" fill="#2B2B2B"/>
<path d="M522.772 317.915L522.751 318.569C519.184 321.725 512.651 325.999 504.979 324.025L505.01 323.73L522.772 317.915Z" fill="#FFD2BB"/>
<path d="M522.751 318.569L522.456 326.474L522.414 327.804C514.097 327.55 506.836 326.938 504.725 326.759L504.926 324.543L504.968 324.025C512.641 325.999 519.173 321.725 522.741 318.569H522.751Z" fill="#FFD2BB"/>
<path d="M516.83 303.846C519.363 303.846 521.421 305.904 521.421 308.437C521.421 310.97 519.363 313.018 516.83 313.018C514.297 313.018 512.25 310.96 512.25 308.437C512.25 305.915 514.308 303.846 516.83 303.846Z" fill="#FFB39C"/>
<path d="M520.218 593.067L520.355 595.969H519.067H519.036V593.067H519.067H520.218Z" fill="white"/>
<path d="M520.091 590.586L520.218 593.067H519.036V591.251C519.036 590.882 519.331 590.586 519.701 590.586H520.091Z" fill="white"/>
<path d="M518.91 633.7L509.738 634.016C509.738 634.016 509.791 633.932 509.802 633.9C512.883 633.869 515.955 633.795 518.91 633.7Z" fill="white"/>
<path d="M517.274 274.221C512.081 273.504 503.131 274.369 497.052 286.369C497.063 286.337 497.073 286.316 497.073 286.316C502.962 274.285 512.028 273.482 517.274 274.221Z" fill="#2B2B2B"/>
<path d="M513.421 300.258C514.002 300.3 514.434 300.796 514.392 301.366C514.361 301.936 513.865 302.379 513.295 302.337C512.714 302.305 512.281 301.809 512.324 301.229C512.345 300.659 512.841 300.216 513.421 300.258Z" fill="black"/>
<path d="M512.461 243.193C513.717 243.087 514.445 244.037 514.392 244.638C514.34 245.272 514.456 245.989 512.83 246.528C512.756 246.127 512.535 245.81 512.535 245.81L511.669 245.979C511.975 245.557 512.113 245.05 512.028 244.554C511.817 243.351 509.97 243.256 509.97 243.256C511.078 243.256 511.954 243.235 512.461 243.193Z" fill="#FFD2BB"/>
<path d="M512.83 246.528C513.02 247.573 512.281 249.251 504.472 247.931C504.44 247.794 504.377 247.646 504.271 247.52L504.883 247.383C505.548 247.361 506.297 247.33 507.142 247.288C508.07 247.245 508.873 247.182 509.58 247.119H509.601C509.654 247.119 509.706 247.108 509.759 247.098C511.173 246.96 512.144 246.76 512.83 246.528Z" fill="#FFD2BB"/>
<path d="M512.535 245.81C512.535 245.81 512.757 246.127 512.83 246.528C512.144 246.76 511.174 246.96 509.759 247.098C510.582 246.981 511.268 246.549 511.67 245.979L512.535 245.81Z" fill="#FFD2BB"/>
<path d="M512.028 244.554C512.113 245.05 511.975 245.557 511.669 245.979L509.643 246.401L509.97 243.256C509.97 243.256 511.817 243.351 512.028 244.554Z" fill="#FFD2BB"/>
<path d="M509.643 246.401L511.669 245.979C511.268 246.549 510.582 246.981 509.759 247.097C509.706 247.108 509.653 247.119 509.601 247.119H509.58L509.643 246.401Z" fill="#FFD2BB"/>
<path d="M509.97 243.256L509.643 246.401L504.883 247.382C504.651 247.382 504.429 247.404 504.208 247.414C503.944 247.425 503.691 247.446 503.448 247.446L503.026 245.029L490.973 247.119L491.765 251.657L493.327 251.382L491.153 252.185C492.113 251.931 492.968 251.636 493.728 251.33L503.807 249.588C502.604 250.348 500.767 250.58 499.606 250.802C499.079 250.886 498.329 251.351 497.907 251.678C495.416 253.578 490.762 253.841 488.926 253.694C488.43 253.652 487.965 253.936 487.765 254.39L473.665 283.678C472.451 286.221 472.177 289.102 472.894 291.825L480.63 319.297L481.971 324.025L469.844 332.416L457.707 288.385C457.116 285.229 457.823 281.957 459.67 279.329L480.092 250.443C481.2 248.554 482.868 247.076 484.873 246.179C488.736 244.459 495.195 241.926 498.498 242.454C502.087 243.045 506.92 243.256 509.97 243.256Z" fill="#FFD2BB"/>
<path d="M509.949 633.182C509.949 633.436 509.897 633.678 509.802 633.9C504.482 633.953 499.121 633.9 494.139 633.7L493.665 630.502L508.166 630.016L508.145 629.678C508.873 629.731 509.517 630.206 509.707 630.924C509.897 631.642 509.949 632.465 509.949 633.182Z" fill="#C66258"/>
<path d="M509.802 633.9C509.802 633.9 509.77 633.974 509.738 634.016L494.266 634.533L494.14 633.7C499.121 633.911 504.483 633.953 509.802 633.9Z" fill="white"/>
<path d="M494.266 634.533L509.738 634.016C509.463 634.554 508.925 634.945 508.292 635.008C496.113 636.169 485.253 636.676 475.976 636.792C475.891 636.602 475.86 636.391 475.86 636.169C475.839 634.977 476.081 633.984 476.345 633.246C476.641 632.401 477.538 631.948 478.424 632.127H478.445C478.382 632.433 478.34 632.739 478.298 633.056C478.298 633.056 484.514 634.86 494.266 634.533Z" fill="white"/>
<path d="M509.643 246.401L509.58 247.119C508.873 247.182 508.071 247.245 507.142 247.288C506.298 247.33 505.548 247.361 504.883 247.383L509.643 246.401Z" fill="#FFD2BB"/>
<path d="M508.145 629.678L508.166 630.016L493.665 630.502V630.48C500.398 630.164 505.654 629.816 507.87 629.668C507.955 629.657 508.05 629.657 508.145 629.678Z" fill="#C66258"/>
<path d="M503.659 621.594C504.63 621.531 505.696 621.404 506.846 621.193C506.931 621.182 507.015 621.172 507.1 621.151C507.184 621.14 507.29 621.119 507.385 621.109L508.144 629.678C508.049 629.657 507.955 629.657 507.87 629.668C505.654 629.816 500.398 630.164 493.664 630.48L492.208 620.623L494.709 619.557C496.525 620.887 499.321 621.858 503.659 621.594Z" fill="#C66258"/>
<path d="M507.733 619.156C507.617 619.156 507.501 619.156 507.385 619.146V618.66C507.501 618.818 507.617 618.977 507.733 619.156Z" fill="#489D76"/>
<path d="M507.385 619.146V621.109C507.29 621.119 507.184 621.14 507.1 621.151C507.015 621.172 506.931 621.182 506.846 621.193C506.192 621.288 504.999 621.425 503.543 621.425C502.836 620.37 502.15 619.61 501.517 619.093C503.49 619.103 505.443 619.124 507.385 619.146Z" fill="#C66258"/>
<path d="M507.384 618.66V619.146C505.442 619.125 503.49 619.104 501.516 619.093C500.176 617.985 499.068 617.9 498.477 617.964L501.411 616.718H504.672V616.243C505.453 616.623 506.392 617.341 507.384 618.66Z" fill="#C66258"/>
<path d="M507.385 614.196V618.66C506.393 617.341 505.453 616.623 504.672 616.244V615.346L507.385 614.196Z" fill="#C66258"/>
<path d="M507.385 614.027V614.196L504.672 615.346V604.191L504.81 603.99C506.583 602.08 507.385 603.99 507.385 603.99V614.027Z" fill="#2B2B2B"/>
<path d="M506.888 478.958L503.258 590.587H501.411H498.044H494.92H489.041H486.129H485.548L478.139 478.958H506.888Z" fill="#FFD2BB"/>
<path d="M504.925 324.542L504.725 326.759C504.313 326.717 504.102 326.695 504.102 326.695C503.353 326.506 502.635 326.316 501.938 326.136C502.741 326.041 503.733 325.619 504.925 324.542Z" fill="#2B2B2B"/>
<path d="M504.725 326.759L504.355 330.833C504.355 330.833 504.345 330.886 504.345 330.907L504.725 326.759Z" fill="#FFD2BB"/>
<path d="M504.672 616.243V616.718H501.411L503.416 615.874C503.754 615.905 504.187 616 504.672 616.243Z" fill="#489D76"/>
<path d="M504.672 615.346V616.243C504.187 616.001 503.754 615.906 503.417 615.874L504.672 615.346Z" fill="#489D76"/>
<path d="M503.416 615.874L501.411 616.718H492.661C492.134 615.916 491.712 614.955 491.416 613.858C493.653 611.61 496.957 610.755 498.888 610.428C499.944 610.248 500.872 609.657 501.484 608.792L504.672 604.19V615.346L503.416 615.874Z" fill="#2B2B2B"/>
<path d="M504.672 595.969V604.191L501.485 608.792C500.872 609.658 499.944 610.249 498.888 610.428C496.957 610.755 493.653 611.61 491.416 613.858C491.416 613.858 486.688 612.222 484.239 607.178C484.197 607.093 484.144 607.019 484.081 606.945V595.969H485.907L486.466 604.465H502.814L503.089 595.969H504.672Z" fill="white"/>
<path d="M504.672 593.067V595.969H503.089L503.184 593.067H504.672Z" fill="white"/>
<path d="M504.672 591.251V593.067H503.184L503.257 590.586H504.007C504.376 590.586 504.672 590.882 504.672 591.251Z" fill="white"/>
<path d="M504.471 247.931C504.651 248.533 504.429 249.198 503.859 249.567C503.838 249.578 503.827 249.588 503.806 249.588L503.49 247.762C503.838 247.826 504.165 247.878 504.471 247.931Z" fill="#FFD2BB"/>
<path d="M506.846 621.193C505.696 621.404 504.63 621.531 503.659 621.594C503.627 621.541 503.585 621.478 503.543 621.425C504.999 621.425 506.192 621.288 506.846 621.193Z" fill="#C66258"/>
<path d="M504.271 247.52C504.376 247.646 504.44 247.794 504.471 247.931C504.165 247.878 503.838 247.826 503.49 247.762V247.678L503.521 247.667H503.532L504.271 247.52Z" fill="#FFD2BB"/>
<path d="M504.218 247.435C504.218 247.435 504.26 247.488 504.271 247.52L503.532 247.667L504.208 247.414V247.435H504.218Z" fill="#FFD2BB"/>
<path d="M503.49 247.763L503.807 249.588L493.728 251.33C494.076 251.182 494.392 251.045 494.699 250.887L498.815 249.377L498.783 250.137C498.962 249.863 499.057 249.578 499.089 249.293L503.342 247.731C503.342 247.731 503.448 247.752 503.49 247.763Z" fill="#FFD2BB"/>
<path d="M503.543 621.425C503.585 621.478 503.627 621.541 503.659 621.594C499.321 621.858 496.524 620.887 494.709 619.557L495.268 619.325C497.822 621.024 501.062 621.425 503.543 621.425Z" fill="#C66258"/>
<path d="M503.479 247.678V247.762C503.479 247.762 503.395 247.741 503.342 247.731L503.479 247.678Z" fill="#FFD2BB"/>
<path d="M503.448 247.446L503.48 247.678L503.269 247.72C503.269 247.72 503.322 247.731 503.343 247.731L499.089 249.293C499.216 248.512 498.899 247.826 498.899 247.826C499.047 247.731 499.216 247.678 499.385 247.668C499.955 247.625 501.105 247.573 503.448 247.446Z" fill="#FFD2BB"/>
<path d="M503.48 247.678L503.342 247.731C503.342 247.731 503.29 247.72 503.269 247.72L503.48 247.678Z" fill="#FFD2BB"/>
<path d="M503.026 245.029L503.448 247.446C501.105 247.573 499.955 247.625 499.385 247.668C499.216 247.678 499.047 247.731 498.899 247.826C498.783 247.879 498.678 247.974 498.583 248.079C498.076 248.649 496.862 249.831 494.699 250.886L493.327 251.383L491.765 251.657L490.973 247.119L503.026 245.029Z" fill="#FFD2BB"/>
<path d="M503.258 420.298V476.129H470.731C468.673 434.504 475.934 419.496 475.934 419.496H503.258V420.298Z" fill="#2B2B2B"/>
<path d="M503.258 590.586L503.184 593.067H501.411V590.65V590.586H503.258Z" fill="white"/>
<path d="M494.92 593.067H498.044H501.411H503.184L503.089 595.969H485.907L485.717 593.067H486.129H489.042H491.86H494.92Z" fill="white"/>
<path d="M503.089 595.969L502.815 604.465H486.467L485.907 595.969H503.089Z" fill="white"/>
<path d="M501.696 295.762C502.266 295.804 502.709 296.3 502.667 296.881C502.635 297.44 502.139 297.883 501.559 297.851C500.989 297.809 500.546 297.313 500.588 296.733C500.619 296.163 501.115 295.72 501.696 295.762Z" fill="black"/>
<path d="M501.516 619.093C502.15 619.61 502.836 620.37 503.543 621.425C501.063 621.425 497.823 621.024 495.269 619.325L495.807 619.103H495.817C496.968 619.082 498.108 619.082 499.279 619.082C500.018 619.082 500.767 619.082 501.516 619.093Z" fill="#C66258"/>
<path d="M501.517 619.093C500.767 619.082 500.018 619.082 499.279 619.082C498.108 619.082 496.968 619.082 495.817 619.103L498.477 617.964C499.068 617.9 500.176 617.985 501.517 619.093Z" fill="#C66258"/>
<path d="M501.411 590.65V593.067H498.044V590.586H501.411V590.65Z" fill="white"/>
<path d="M498.477 617.964L495.817 619.103H494.92C494.076 618.47 493.295 617.689 492.662 616.718H501.411L498.477 617.964Z" fill="#2B2B2B"/>
<path d="M498.899 247.826C498.899 247.826 499.216 248.512 499.089 249.293L498.814 249.377L498.899 247.826Z" fill="#FFD2BB"/>
<path d="M498.815 249.377L499.089 249.293C499.058 249.578 498.963 249.863 498.783 250.137L498.815 249.377Z" fill="#FFD2BB"/>
<path d="M498.899 247.826L498.815 249.377L494.699 250.886C496.862 249.831 498.076 248.649 498.583 248.079C498.678 247.974 498.783 247.879 498.899 247.826Z" fill="#FFD2BB"/>
<path d="M498.044 590.586H494.92V593.067H498.044V590.586Z" fill="white"/>
<path d="M495.807 619.104L495.269 619.325C495.142 619.251 495.037 619.167 494.92 619.104H495.807Z" fill="#AFAFAF"/>
<path d="M495.269 619.325L494.709 619.557C494.519 619.41 494.34 619.262 494.161 619.114C494.414 619.114 494.667 619.104 494.921 619.104C495.037 619.167 495.142 619.251 495.269 619.325Z" fill="#AFAFAF"/>
<path d="M491.859 593.067H489.042V590.586H494.92V593.067H491.859Z" fill="white"/>
<path d="M494.92 619.103C494.667 619.103 494.414 619.114 494.161 619.114C493.295 618.354 492.694 617.499 492.292 616.718H492.662C493.295 617.689 494.076 618.47 494.92 619.103Z" fill="#2B2B2B"/>
<path d="M494.709 619.557L492.208 620.623C492.208 620.623 481.39 620.486 478.699 630.987C471.86 631.124 464.694 631.135 458.182 630.871L456.768 621.299C467.87 620.043 480.577 619.262 494.16 619.114C494.34 619.262 494.519 619.41 494.709 619.557Z" fill="#C66258"/>
<path d="M493.327 251.383L494.699 250.886C494.393 251.045 494.076 251.182 493.728 251.33L493.327 251.383Z" fill="#FFD2BB"/>
<path d="M494.139 633.699L494.266 634.533C484.514 634.86 478.298 633.055 478.298 633.055C478.34 632.739 478.382 632.433 478.446 632.127C482.562 632.971 488.071 633.457 494.139 633.699Z" fill="white"/>
<path d="M493.664 630.501L494.139 633.699C488.071 633.457 482.561 632.971 478.445 632.127C478.519 631.736 478.593 631.367 478.688 631.008L481.348 630.924C481.569 630.924 481.791 630.924 482.013 630.903C482.224 630.892 482.435 630.892 482.635 630.881C485.411 630.808 488.113 630.713 490.646 630.607H490.688L493.664 630.501Z" fill="white"/>
<path d="M493.326 251.382L493.728 251.33C492.968 251.636 492.113 251.931 491.152 252.185L493.326 251.382Z" fill="#FFD2BB"/>
<path d="M493.664 630.48V630.502L490.688 630.607C491.701 630.565 492.693 630.512 493.664 630.48Z" fill="white"/>
<path d="M492.208 620.623L493.664 630.481C492.693 630.512 491.701 630.565 490.688 630.607H490.646L482.635 630.882C482.435 630.892 482.224 630.892 482.013 630.903C481.791 630.913 481.569 630.913 481.348 630.924C480.482 630.945 479.585 630.966 478.699 630.987C481.39 620.486 492.208 620.623 492.208 620.623Z" fill="white"/>
<path d="M492.661 616.718H492.292C491.49 615.177 491.416 613.858 491.416 613.858C491.712 614.956 492.134 615.916 492.661 616.718Z" fill="#AFAFAF"/>
<path d="M467.427 613.035L471.955 611.114L477.622 608.718L482.72 606.565C483.216 606.354 483.754 606.533 484.081 606.945V616.718H492.292C492.693 617.499 493.295 618.354 494.16 619.114C480.577 619.261 467.87 620.042 456.767 621.298L456.24 617.773L462.477 615.135L467.427 613.035Z" fill="#C66258"/>
<path d="M492.292 616.718H484.081V606.945C484.144 607.019 484.197 607.093 484.239 607.178C486.688 612.222 491.416 613.858 491.416 613.858C491.416 613.858 491.49 615.177 492.292 616.718Z" fill="#C66258"/>
<path d="M482.635 630.881L490.646 630.607C488.113 630.712 485.411 630.807 482.635 630.881Z" fill="white"/>
<path d="M488.957 308.226C489.284 307.35 489.749 306.105 490.287 304.648C489.738 306.21 489.232 307.603 488.778 308.838C488.894 308.448 488.957 308.226 488.957 308.226Z" fill="#2B2B2B"/>
<path d="M489.042 590.586H486.129V593.067H489.042V590.586Z" fill="white"/>
<path d="M486.129 590.586V593.067H485.717L485.548 590.586H486.129Z" fill="white"/>
<path d="M485.717 593.067L485.907 595.969H484.081V593.067H485.717Z" fill="white"/>
<path d="M485.548 590.586L485.717 593.067H484.081V591.251C484.081 590.882 484.377 590.586 484.746 590.586H485.548Z" fill="white"/>
<path d="M481.348 630.924L478.688 631.008L478.699 630.987C479.586 630.966 480.483 630.945 481.348 630.924Z" fill="white"/>
<path d="M478.699 630.987C478.699 630.987 478.688 630.998 478.688 631.008L458.309 631.694L458.182 630.871C464.694 631.135 471.86 631.124 478.699 630.987Z" fill="white"/>
<path d="M458.309 631.694L478.688 631.008C478.593 631.367 478.519 631.737 478.446 632.127H478.424C477.538 631.948 476.641 632.402 476.345 633.246C476.081 633.985 475.839 634.977 475.86 636.169C475.86 636.391 475.891 636.602 475.976 636.792C457.306 637.035 445.042 635.705 441.401 635.103C440.546 634.956 439.903 634.196 439.892 633.33C439.881 632.148 440.114 631.146 440.377 630.407C440.673 629.552 441.57 629.098 442.457 629.278C442.467 629.278 442.478 629.278 442.488 629.288C442.425 629.594 442.372 629.9 442.34 630.227C442.34 630.227 448.546 632.011 458.309 631.694Z" fill="white"/>
<path d="M458.182 630.871L458.308 631.694C448.546 632.011 442.34 630.227 442.34 630.227C442.372 629.9 442.425 629.594 442.488 629.288C446.615 630.132 452.113 630.618 458.182 630.871Z" fill="white"/>
<path d="M456.767 621.299L458.182 630.871C452.113 630.618 446.614 630.132 442.488 629.288C442.994 626.533 444.039 624.444 445.327 622.85C448.905 622.28 452.725 621.763 456.767 621.299Z" fill="white"/>
<path d="M456.24 617.774L456.768 621.299C452.725 621.763 448.905 622.28 445.327 622.85C449.485 617.689 456.24 617.774 456.24 617.774Z" fill="white"/>
<path d="M553.907 376.932L559.806 437.839C559.912 438.768 560.809 439.771 561.273 440.562C565.432 447.612 566.392 454.029 566.92 456.889C567.226 458.514 566.445 459.992 564.841 459.939C564.091 459.908 563.585 459.369 563.585 459.369L564.577 463.76C564.925 465.258 563.754 466.546 562.371 466.546C562.054 466.546 561.727 466.472 561.4 466.324L561.495 466.989C561.611 467.834 561.273 468.699 560.566 469.153C559.944 469.554 559.268 469.607 558.677 469.543C557.759 469.406 557.02 468.688 556.82 467.77L556.714 467.285C554.783 470.198 552.134 468.002 551.975 467.19C551.912 466.926 550.16 459.38 549.052 454.683C548.788 453.491 548.545 452.488 548.387 451.823C548.324 451.559 547.965 451.517 547.849 451.77C547.31 453.1 546.171 455.823 545.305 457.902C544.113 460.741 541.506 461.892 540.345 460.235C539.173 458.578 542.055 455.992 541.97 452.024C541.907 449.153 543.88 444.351 544.999 441.903C545.464 440.858 545.854 439.538 545.77 438.388L544.873 430.905L538.983 381.291L539.691 419.496" stroke="black" stroke-width="0.759885" stroke-linecap="round" stroke-linejoin="round"/>
<path d="M556.713 467.285C556.713 467.285 555.922 460.077 554.392 455.032" stroke="black" stroke-width="0.759885" stroke-linecap="round" stroke-linejoin="round"/>
<path d="M561.4 466.324C561.4 466.324 560.481 459.295 558.94 454.261" stroke="black" stroke-width="0.759885" stroke-linecap="round" stroke-linejoin="round"/>
<path d="M563.584 459.37C563.584 459.37 562.856 456.277 561.832 452.657" stroke="black" stroke-width="0.759885" stroke-linecap="round" stroke-linejoin="round"/>
<path d="M478.139 478.958L485.548 590.587" stroke="black" stroke-width="0.759885" stroke-linecap="round" stroke-linejoin="round"/>
<path d="M503.258 590.587L506.888 478.958" stroke="black" stroke-width="0.759885" stroke-linecap="round" stroke-linejoin="round"/>
<path d="M543.384 478.958L537.812 590.587" stroke="black" stroke-width="0.759885" stroke-linecap="round" stroke-linejoin="round"/>
<path d="M520.092 590.587L514.656 478.958" stroke="black" stroke-width="0.759885" stroke-linecap="round" stroke-linejoin="round"/>
<path d="M484.081 606.945V591.251C484.081 590.882 484.377 590.586 484.746 590.586H504.007C504.376 590.586 504.672 590.882 504.672 591.251V604.19" stroke="black" stroke-width="0.759885" stroke-linecap="round" stroke-linejoin="round"/>
<path d="M519.036 609.32V591.251C519.036 590.882 519.331 590.586 519.701 590.586H538.962C539.331 590.586 539.626 590.882 539.626 591.251V608.486" stroke="black" stroke-width="0.759885" stroke-linecap="round" stroke-linejoin="round"/>
<path d="M484.145 538.672C484.145 538.672 488.662 542.661 495.501 538.672" stroke="black" stroke-width="0.759885" stroke-linecap="round" stroke-linejoin="round"/>
<path d="M530.656 538.672C530.656 538.672 526.149 542.661 519.3 538.672" stroke="black" stroke-width="0.759885" stroke-linecap="round" stroke-linejoin="round"/>
<path d="M491.416 613.858C491.416 613.858 486.688 612.222 484.239 607.177C484.197 607.093 484.144 607.019 484.081 606.945C483.754 606.533 483.216 606.354 482.72 606.565L477.622 608.718L471.955 611.114L467.427 613.035L462.477 615.135L456.24 617.773" stroke="black" stroke-width="0.759885" stroke-linecap="round" stroke-linejoin="round"/>
<path d="M507.384 614.196V603.99C507.384 603.99 506.582 602.08 504.809 603.99L504.672 604.191L501.484 608.792C500.872 609.658 499.944 610.249 498.888 610.428C496.957 610.755 493.653 611.61 491.416 613.858C491.416 613.858 491.49 615.177 492.292 616.718C492.693 617.499 493.295 618.354 494.16 619.114C494.339 619.262 494.519 619.409 494.709 619.557" stroke="black" stroke-width="0.759885" stroke-linecap="round" stroke-linejoin="round"/>
<path d="M458.182 630.871L456.767 621.299L456.24 617.774C456.24 617.774 449.485 617.689 445.327 622.85C444.039 624.444 442.994 626.533 442.488 629.288" stroke="black" stroke-width="0.759885" stroke-linecap="round" stroke-linejoin="round"/>
<path d="M471.195 611.262C471.195 611.262 471.469 611.124 471.955 611.114C472.968 611.103 474.878 611.61 476.968 614.913" stroke="black" stroke-width="2.02636" stroke-linecap="round" stroke-linejoin="round"/>
<path d="M475.923 608.739C475.923 608.739 476.588 608.433 477.623 608.718C478.678 609.014 480.145 609.921 481.707 612.391" stroke="black" stroke-width="2.02636" stroke-linecap="round" stroke-linejoin="round"/>
<path d="M466.309 613.162C466.309 613.162 466.731 612.972 467.427 613.035C468.483 613.14 470.214 613.848 472.103 616.813" stroke="black" stroke-width="2.02636" stroke-linecap="round" stroke-linejoin="round"/>
<path d="M462.002 615.251C462.002 615.251 462.171 615.177 462.477 615.135C463.374 615.019 465.475 615.251 467.786 618.903" stroke="black" stroke-width="2.02636" stroke-linecap="round" stroke-linejoin="round"/>
<path d="M478.699 630.987C471.86 631.125 464.694 631.135 458.182 630.871C452.113 630.618 446.615 630.132 442.488 629.288C442.488 629.278 442.467 629.278 442.457 629.278C441.57 629.098 440.673 629.552 440.377 630.407C440.114 631.146 439.881 632.148 439.892 633.33C439.903 634.196 440.546 634.956 441.401 635.103C445.042 635.705 457.306 637.035 475.976 636.792" stroke="black" stroke-width="0.759885" stroke-linecap="round" stroke-linejoin="round"/>
<path d="M527.374 616.697C527.374 616.697 522.646 615.061 520.197 610.017C519.975 609.552 519.511 609.288 519.036 609.32C518.931 609.32 518.793 609.352 518.688 609.404L513.59 611.557L507.923 613.964L507.385 614.196L504.672 615.346L503.416 615.874L501.411 616.718L498.477 617.964L495.817 619.103H495.807L495.269 619.325L494.709 619.557L492.208 620.623" stroke="black" stroke-width="0.759885" stroke-linecap="round" stroke-linejoin="round"/>
<path d="M544.112 632.507L543.353 623.948" stroke="black" stroke-width="0.759885" stroke-linecap="round" stroke-linejoin="round"/>
<path d="M519.458 633.689L525.22 633.499" stroke="black" stroke-width="0.759885" stroke-linecap="round" stroke-linejoin="round"/>
<path d="M539.627 608.486L537.453 611.62C536.84 612.496 535.912 613.087 534.856 613.256C532.925 613.594 529.622 614.46 527.374 616.697V616.718C527.395 616.929 527.542 618.438 528.566 620.095C530.181 622.723 534.012 625.647 543.067 624C543.152 623.99 543.257 623.969 543.352 623.948V606.829C543.352 606.829 542.54 604.919 540.777 606.829L539.627 608.486Z" stroke="black" stroke-width="0.759885" stroke-linecap="round" stroke-linejoin="round"/>
<path d="M494.139 633.699L493.664 630.502V630.481L492.208 620.623C492.208 620.623 481.39 620.486 478.699 630.987C478.699 630.987 478.688 630.998 478.688 631.008C478.593 631.367 478.519 631.736 478.445 632.127" stroke="black" stroke-width="0.759885" stroke-linecap="round" stroke-linejoin="round"/>
<path d="M507.152 614.101C507.152 614.101 507.226 614.059 507.385 614.027C507.511 613.985 507.691 613.964 507.923 613.964C508.936 613.953 510.846 614.46 512.936 617.752" stroke="black" stroke-width="2.02636" stroke-linecap="round" stroke-linejoin="round"/>
<path d="M511.88 611.578C511.88 611.578 512.556 611.272 513.59 611.557C514.656 611.863 516.113 612.771 517.674 615.23" stroke="black" stroke-width="2.02636" stroke-linecap="round" stroke-linejoin="round"/>
<path d="M502.276 615.99C502.276 615.99 502.709 615.8 503.416 615.874C503.754 615.905 504.187 616 504.672 616.243C505.453 616.623 506.392 617.341 507.384 618.66C507.501 618.818 507.617 618.977 507.733 619.156C507.849 619.314 507.944 619.473 508.06 619.642" stroke="black" stroke-width="2.02636" stroke-linecap="round" stroke-linejoin="round"/>
<path d="M497.97 618.09C497.97 618.09 498.15 618.006 498.477 617.964C499.068 617.9 500.176 617.985 501.516 619.093C502.15 619.61 502.836 620.37 503.543 621.425C503.585 621.478 503.627 621.541 503.659 621.594C503.701 621.636 503.722 621.689 503.754 621.742" stroke="black" stroke-width="2.02636" stroke-linecap="round" stroke-linejoin="round"/>
<path d="M478.445 632.127H478.424C477.538 631.948 476.641 632.401 476.345 633.246C476.081 633.984 475.839 634.977 475.86 636.169C475.86 636.391 475.891 636.602 475.976 636.792C476.197 637.372 476.725 637.837 477.369 637.942C482.804 638.85 507.606 641.362 544.26 637.847C545.199 637.752 545.906 636.961 545.917 636.021C545.917 635.314 545.864 634.481 545.674 633.752C545.484 633.045 544.84 632.57 544.112 632.507C544.017 632.507 543.922 632.486 543.838 632.507C541.189 632.697 534.244 633.151 525.611 633.488C525.474 633.499 525.347 633.499 525.221 633.51C523.363 633.583 521.442 633.647 519.458 633.7C519.268 633.71 519.089 633.71 518.909 633.71C515.954 633.805 512.883 633.879 509.801 633.911C504.482 633.963 499.121 633.911 494.139 633.71C488.071 633.467 482.561 632.982 478.445 632.138V632.127Z" stroke="black" stroke-width="0.759885" stroke-linecap="round" stroke-linejoin="round"/>
<path d="M503.342 247.731C503.342 247.731 503.29 247.72 503.269 247.72" stroke="black" stroke-width="0.759885" stroke-linecap="round" stroke-linejoin="round"/>
<path d="M512.83 246.528C513.02 247.573 512.282 249.251 504.472 247.931" stroke="black" stroke-width="0.759885" stroke-linecap="round" stroke-linejoin="round"/>
<path d="M509.58 247.119C508.872 247.182 508.07 247.245 507.142 247.288C506.297 247.33 505.548 247.361 504.883 247.383C504.651 247.383 504.429 247.404 504.208 247.414C503.944 247.425 503.69 247.446 503.448 247.446C501.105 247.572 499.954 247.625 499.384 247.667C499.216 247.678 499.047 247.731 498.899 247.826C498.783 247.879 498.677 247.974 498.582 248.079C498.076 248.649 496.862 249.831 494.698 250.886C494.392 251.045 494.076 251.182 493.728 251.33C492.968 251.636 492.113 251.931 491.152 252.185" stroke="black" stroke-width="0.759885" stroke-linecap="round" stroke-linejoin="round"/>
<path d="M469.844 332.416L457.707 288.385C457.116 285.229 457.823 281.957 459.67 279.329L480.092 250.443C481.2 248.554 482.868 247.076 484.873 246.179C488.736 244.459 495.195 241.926 498.498 242.454C502.087 243.045 506.92 243.256 509.97 243.256C511.078 243.256 511.954 243.235 512.461 243.193C513.717 243.087 514.445 244.037 514.392 244.638C514.34 245.272 514.456 245.989 512.83 246.528C512.144 246.76 511.173 246.96 509.759 247.097" stroke="black" stroke-width="0.759885" stroke-linecap="round" stroke-linejoin="round"/>
<path d="M504.208 247.414V247.435C504.208 247.435 504.261 247.488 504.271 247.52C504.377 247.646 504.44 247.794 504.472 247.931C504.651 248.533 504.43 249.198 503.86 249.567C503.839 249.578 503.828 249.588 503.807 249.588C502.604 250.348 500.767 250.58 499.606 250.802C499.079 250.886 498.329 251.351 497.907 251.678C495.416 253.578 490.762 253.842 488.926 253.694C488.43 253.652 487.965 253.937 487.765 254.39L473.665 283.678C472.451 286.221 472.177 289.102 472.894 291.825L480.63 319.297L481.971 324.025" stroke="black" stroke-width="0.759885" stroke-linecap="round" stroke-linejoin="round"/>
<path d="M498.899 247.826C498.899 247.826 499.216 248.512 499.089 249.293C499.058 249.578 498.963 249.863 498.783 250.137" stroke="black" stroke-width="0.759885" stroke-linecap="round" stroke-linejoin="round"/>
<path d="M509.97 243.256C509.97 243.256 511.817 243.351 512.028 244.554C512.113 245.05 511.975 245.557 511.669 245.979C511.268 246.549 510.582 246.982 509.759 247.098C509.706 247.108 509.653 247.119 509.601 247.119H509.58" stroke="black" stroke-width="0.759885" stroke-linecap="round" stroke-linejoin="round"/>
<path d="M504.925 324.543L504.725 326.759L504.355 330.833C504.355 330.833 504.345 330.885 504.345 330.907C504.25 331.635 503.712 332.226 503.004 332.395H502.994L490.224 335.36C490.224 335.36 484.788 350.547 507.564 350.421C530.329 350.294 532.608 336.257 532.608 336.257L523.542 333.608C523.542 333.608 523.532 333.608 523.521 333.598C522.772 333.376 522.265 332.69 522.265 331.92V331.846L522.413 327.804L522.455 326.474L522.751 318.569" stroke="black" stroke-width="0.759885" stroke-linecap="round" stroke-linejoin="round"/>
<path d="M504.978 324.025L504.936 324.532" stroke="black" stroke-width="0.759885" stroke-linecap="round" stroke-linejoin="round"/>
<path d="M523.849 298.59C524.82 301.609 524.704 303.614 524.704 303.614C524.978 303.878 525.411 303.846 525.654 303.551C526.318 302.749 527.975 301.377 531.374 301.947C533.274 302.263 534.498 303.392 535.268 304.638C536.746 307.002 536.672 310.041 535.268 312.458C532.091 317.978 525.675 315.572 525.675 315.572C525.675 315.572 524.619 316.912 522.751 318.569C519.184 321.725 512.651 325.999 504.978 324.025C504.292 323.857 503.606 323.635 502.91 323.35C502.076 323.012 501.327 322.622 500.662 322.168C488.651 313.957 502.667 286.981 502.667 286.981C502.667 286.981 506.614 287.234 511.86 283.498C511.86 283.498 508.883 293.24 520.904 296.332" stroke="black" stroke-width="0.759885" stroke-linecap="round" stroke-linejoin="round"/>
<path d="M502.667 296.881C502.635 297.44 502.139 297.883 501.559 297.851C500.989 297.809 500.546 297.313 500.588 296.733C500.619 296.163 501.115 295.72 501.696 295.762C502.266 295.804 502.709 296.3 502.667 296.881Z" stroke="black" stroke-width="0.759885" stroke-linecap="round" stroke-linejoin="round"/>
<path d="M514.392 301.366C514.361 301.936 513.865 302.379 513.295 302.337C512.714 302.305 512.281 301.809 512.324 301.229C512.345 300.659 512.841 300.216 513.421 300.258C514.002 300.3 514.434 300.796 514.392 301.366Z" stroke="black" stroke-width="0.759885" stroke-linecap="round" stroke-linejoin="round"/>
<path d="M506.361 300.543C506.361 300.543 503.849 299.931 503.047 302.041C502.255 304.142 504.904 305.155 504.904 305.155" stroke="black" stroke-width="0.759885" stroke-linecap="round" stroke-linejoin="round"/>
<path d="M526.625 310.421C526.625 310.421 527.363 309.06 528.83 308.226C529.991 307.561 531.638 307.245 533.77 308.226" stroke="black" stroke-width="0.759885" stroke-linecap="round" stroke-linejoin="round"/>
<path d="M530.899 310.601C530.899 310.601 530.783 308.659 528.83 308.226" stroke="black" stroke-width="0.759885" stroke-linecap="round" stroke-linejoin="round"/>
<path d="M495.796 339.286C495.796 339.286 501.242 338.03 504.356 340.046" stroke="black" stroke-width="0.759885" stroke-linecap="round" stroke-linejoin="round"/>
<path d="M513.559 340.046C513.559 340.046 518.551 337.935 524.091 340.046" stroke="black" stroke-width="0.759885" stroke-linecap="round" stroke-linejoin="round"/>
<path d="M490.224 335.36L483.015 323.476L469.844 332.416L466.794 334.495L476.82 365.829L475.934 419.496C475.934 419.496 468.673 434.504 470.731 476.139C470.773 477.068 470.826 478.007 470.878 478.957H549.051V454.683" stroke="black" stroke-width="0.759885" stroke-linecap="round" stroke-linejoin="round"/>
<path d="M544.872 430.905C542.888 425.523 539.69 419.496 539.69 419.496H475.934" stroke="black" stroke-width="0.759885" stroke-linecap="round" stroke-linejoin="round"/>
<path d="M483.015 318.622C484.735 318.506 485.675 317.302 488.756 308.901C488.767 308.88 488.778 308.859 488.778 308.838C489.231 307.603 489.738 306.21 490.287 304.648C490.297 304.648 490.297 304.627 490.297 304.606C491.522 301.187 492.999 296.923 494.836 291.635C495.511 289.704 496.239 287.973 497.031 286.422C497.031 286.4 497.041 286.39 497.052 286.369C503.131 274.369 512.081 273.503 517.273 274.221C517.759 274.284 518.202 274.358 518.603 274.453C519.015 274.538 519.384 274.622 519.711 274.717C519.88 274.759 520.028 274.802 520.176 274.844C520.967 275.076 521.421 275.277 521.421 275.277C521.421 275.277 523.5 274.749 526.371 275.055C528.798 275.298 531.785 276.121 534.571 278.327C534.582 278.337 534.592 278.337 534.603 278.348C535.321 278.918 536.017 279.572 536.682 280.342C537.558 281.313 538.371 282.464 539.12 283.815C539.131 283.825 539.131 283.836 539.141 283.846C540.123 285.609 540.977 287.709 541.653 290.221C541.674 290.295 541.695 290.369 541.706 290.443C542.181 292.226 542.561 294.21 542.824 296.427C542.856 296.669 542.888 296.923 542.919 297.176C542.94 297.398 542.962 297.619 542.983 297.851C543.816 306.537 544.766 312.553 545.674 316.732C545.706 316.891 545.748 317.049 545.78 317.207C546.328 319.666 546.867 321.45 547.341 322.748C547.394 322.875 547.436 323.002 547.489 323.118C547.584 323.36 547.669 323.571 547.764 323.772C547.89 324.078 548.017 324.352 548.144 324.585C548.439 325.155 548.692 325.513 548.893 325.746C549.21 326.104 549.389 326.157 549.389 326.157" stroke="black" stroke-width="0.759885" stroke-linecap="round" stroke-linejoin="round"/>
<path d="M484.229 319.93C484.229 319.93 484.535 320.131 485.042 320.321C485.042 320.321 485.042 320.331 485.063 320.331C485.506 320.5 486.097 320.659 486.751 320.659C487.448 320.659 488.218 320.479 488.957 319.93" stroke="black" stroke-width="0.759885" stroke-linecap="round" stroke-linejoin="round"/>
<path d="M488.524 321.64C488.524 321.64 489.928 322.368 491.617 322.368C492.45 322.368 493.369 322.189 494.213 321.64" stroke="black" stroke-width="0.759885" stroke-linecap="round" stroke-linejoin="round"/>
<path d="M493.77 323.476C493.77 323.476 494.213 323.835 494.91 324.141C494.92 324.152 494.931 324.152 494.942 324.152C495.311 324.321 495.754 324.469 496.24 324.542C496.25 324.553 496.271 324.553 496.292 324.553C497.189 324.69 498.234 324.574 499.279 323.856" stroke="black" stroke-width="0.759885" stroke-linecap="round" stroke-linejoin="round"/>
<path d="M499.659 325.376C499.659 325.376 499.733 325.461 499.87 325.577C500.197 325.841 500.894 326.263 501.939 326.136C502.741 326.041 503.733 325.619 504.926 324.542" stroke="black" stroke-width="0.759885" stroke-linecap="round" stroke-linejoin="round"/>
<path d="M547.943 326.706C547.943 326.706 547.088 326.938 546.054 326.801C545.452 326.717 544.788 326.516 544.197 326.062C543.912 325.851 543.648 325.587 543.416 325.26" stroke="black" stroke-width="0.759885" stroke-linecap="round" stroke-linejoin="round"/>
<path d="M543.321 327.023C543.321 327.023 540.619 327.487 538.666 326.031C538.392 325.83 538.128 325.587 537.896 325.292" stroke="black" stroke-width="0.759885" stroke-linecap="round" stroke-linejoin="round"/>
<path d="M537.759 327.181C537.759 327.181 534.624 328.426 532.598 326.105C532.534 326.031 532.471 325.957 532.408 325.872" stroke="black" stroke-width="0.759885" stroke-linecap="round" stroke-linejoin="round"/>
<path d="M527.627 327.994C527.627 327.994 525.885 328.606 524.165 327.856C523.574 327.582 522.972 327.149 522.455 326.474" stroke="black" stroke-width="0.759885" stroke-linecap="round" stroke-linejoin="round"/>
<path d="M531.574 327.202C531.574 327.202 530.16 328.099 528.482 326.833C527.933 326.421 527.363 325.777 526.804 324.806" stroke="black" stroke-width="0.759885" stroke-linecap="round" stroke-linejoin="round"/>
<path d="M520.904 296.332L530.065 293.197C530.445 293.06 530.878 293.271 531.015 293.662L531.532 295.16C531.659 295.551 531.448 295.984 531.057 296.121L523.849 298.59L521.432 299.414C521.031 299.551 520.598 299.34 520.461 298.939L519.954 297.44C519.817 297.05 520.028 296.627 520.429 296.49L520.904 296.332Z" stroke="black" stroke-width="0.759885" stroke-linecap="round" stroke-linejoin="round"/>
<path d="M503.258 420.299V476.129" stroke="#606060" stroke-width="0.759885" stroke-miterlimit="10" stroke-dasharray="2.03 2.03"/>
<path d="M470.994 476.129H503.258H548.661" stroke="#606060" stroke-width="0.759885" stroke-miterlimit="10"/>
<path d="M505.158 390.304C505.158 390.304 511.342 398.726 527.247 401.85" stroke="black" stroke-width="0.759885" stroke-linecap="round" stroke-linejoin="round"/>
<path d="M519.732 405.639C519.732 405.639 522.814 407.402 526.614 406.631" stroke="black" stroke-width="0.759885" stroke-linecap="round" stroke-linejoin="round"/>
<path d="M499.29 305.503C499.29 305.503 498.762 310.147 503.648 311.92C508.524 313.682 512.64 310.949 512.64 310.949" stroke="black" stroke-width="0.759885" stroke-linecap="round" stroke-linejoin="round"/>
<path d="M501.622 292.142C501.622 292.142 503.923 291.572 505.253 293.472" stroke="black" stroke-width="0.759885" stroke-linecap="round" stroke-linejoin="round"/>
<path d="M512.313 295.762C512.313 295.762 515.11 295.097 516.831 297.419" stroke="black" stroke-width="0.759885" stroke-linecap="round" stroke-linejoin="round"/>
<path d="M513.759 365.83L532.06 365.956C532.598 365.956 533.041 366.4 533.031 366.948L532.862 381.207C532.851 382.378 532.207 383.465 531.173 384.035L525.147 387.349C523.342 388.341 521.136 388.246 519.427 387.106L514.308 383.687C513.4 383.085 512.851 382.072 512.851 380.985L512.778 366.811C512.767 366.262 513.21 365.83 513.759 365.83Z" stroke="black" stroke-width="0.759885" stroke-miterlimit="10"/>
<path d="M486.129 590.586V593.067V593.436" stroke="black" stroke-width="0.759885" stroke-miterlimit="10" stroke-linecap="round"/>
<path d="M489.042 590.586V593.067V593.436" stroke="black" stroke-width="0.759885" stroke-miterlimit="10" stroke-linecap="round"/>
<path d="M491.859 590.798V593.067V593.647" stroke="black" stroke-width="0.759885" stroke-miterlimit="10" stroke-linecap="round"/>
<path d="M494.92 590.586V593.067V593.436" stroke="black" stroke-width="0.759885" stroke-miterlimit="10" stroke-linecap="round"/>
<path d="M498.044 590.586V593.067V593.436" stroke="black" stroke-width="0.759885" stroke-miterlimit="10" stroke-linecap="round"/>
<path d="M501.411 590.65V593.067V593.499" stroke="black" stroke-width="0.759885" stroke-miterlimit="10" stroke-linecap="round"/>
<path d="M522.244 590.692V593.067V593.542" stroke="black" stroke-width="0.759885" stroke-miterlimit="10" stroke-linecap="round"/>
<path d="M525.157 590.692V593.067V593.542" stroke="black" stroke-width="0.759885" stroke-miterlimit="10" stroke-linecap="round"/>
<path d="M527.986 590.903V593.067V593.753" stroke="black" stroke-width="0.759885" stroke-miterlimit="10" stroke-linecap="round"/>
<path d="M531.036 590.692V593.067V593.542" stroke="black" stroke-width="0.759885" stroke-miterlimit="10" stroke-linecap="round"/>
<path d="M534.16 590.692V593.067V593.542" stroke="black" stroke-width="0.759885" stroke-miterlimit="10" stroke-linecap="round"/>
<path d="M537.526 590.755V593.067V593.605" stroke="black" stroke-width="0.759885" stroke-miterlimit="10" stroke-linecap="round"/>
<path d="M534.424 363.676L536.893 381.787L538.983 381.291L553.896 376.911L556.154 376.246L553.252 352.648C552.978 350.41 552.408 348.204 551.384 346.189C549.326 342.125 546.297 339.698 543.278 338.263C537.938 335.719 532.608 336.257 532.608 336.257" stroke="black" stroke-width="0.759885" stroke-linecap="round" stroke-linejoin="round"/>
<path d="M483.575 322.561L465.698 332.883C464.976 333.3 464.728 334.223 465.145 334.945L466.285 336.919C466.702 337.641 467.625 337.888 468.347 337.471L486.225 327.15C486.946 326.733 487.194 325.81 486.777 325.088L485.637 323.114C485.22 322.392 484.297 322.145 483.575 322.561Z" fill="#F2DDD6" stroke="black" stroke-width="0.791547" stroke-miterlimit="10"/>
<path d="M556.275 374.139L535.929 377.632C535.107 377.773 534.556 378.553 534.697 379.374L535.082 381.621C535.223 382.443 536.004 382.994 536.825 382.853L557.171 379.361C557.993 379.22 558.544 378.44 558.403 377.618L558.018 375.371C557.877 374.55 557.096 373.998 556.275 374.139Z" fill="#F2DDD6" stroke="black" stroke-width="0.791547" stroke-miterlimit="10"/>
</g>
<g clip-path="url(#clip1_291_2678)">
<path d="M335.629 411.032L341.814 465.501C341.898 466.641 341.508 467.971 341.043 469.016C339.935 471.464 337.962 476.277 338.025 479.137C338.109 483.105 335.218 485.691 336.389 487.348C337.561 489.005 340.157 487.865 341.36 485.015C342.225 482.947 343.355 480.224 343.904 478.894C344.009 478.641 344.378 478.673 344.431 478.936C345.202 482.229 347.946 493.976 348.02 494.303C348.188 495.116 350.837 497.311 352.758 494.398L352.864 494.883C353.064 495.802 353.803 496.53 354.742 496.646C355.323 496.72 355.988 496.656 356.61 496.266C357.318 495.812 357.655 494.947 357.539 494.102L357.444 493.427C359.154 494.229 361.043 492.709 360.621 490.873L359.618 486.472C359.618 486.472 360.135 487.01 360.885 487.042C362.478 487.095 363.259 485.617 362.964 483.992C362.436 481.132 361.476 474.715 357.318 467.675C356.843 466.873 355.956 465.871 355.851 464.942L350.426 409.787L335.619 411.011L335.629 411.032Z" fill="#FFD2BB" stroke="black" stroke-width="0.759885" stroke-linecap="round" stroke-linejoin="round"/>
<path d="M352.758 494.398C352.758 494.398 351.967 487.19 350.437 482.145" stroke="black" stroke-width="0.759885" stroke-linecap="round" stroke-linejoin="round"/>
<path d="M357.455 493.438C357.455 493.438 356.526 486.419 354.996 481.375" stroke="black" stroke-width="0.759885" stroke-linecap="round" stroke-linejoin="round"/>
<path d="M359.629 486.482C359.629 486.482 358.911 483.39 357.877 479.781" stroke="black" stroke-width="0.759885" stroke-linecap="round" stroke-linejoin="round"/>
<path d="M341.687 410.705L349.761 409.966C351.26 409.829 352.315 408.415 351.998 406.937C350.31 398.927 344.347 376.004 330.774 371.033L320.125 378.79L341.687 410.694" fill="white"/>
<path d="M341.687 410.705L349.761 409.966C351.26 409.829 352.315 408.415 351.998 406.937C350.31 398.927 344.347 376.004 330.774 371.033L320.125 378.79L341.687 410.694" stroke="black" stroke-width="0.759885" stroke-linecap="round" stroke-linejoin="round"/>
<path d="M287.44 319.455L285.92 321.946L282.849 324.321L281.055 327.244L280.263 331.202L281.013 337.249L284.115 345.418L297.076 342.347L302.416 326.959L314.701 326.221C314.701 326.221 317.202 325.63 321.075 322.368C321.466 322.041 321.856 321.63 322.215 321.176C322.933 320.247 323.344 319.118 323.429 317.936C323.429 316.764 322.68 315.646 321.371 315.783L316.4 316.3L310.542 314.791L300.58 311.867L296.189 312.532L291.376 315.054L287.429 319.466L287.44 319.455Z" fill="#3D3A37"/>
<path d="M319.46 652C366.196 652 404.082 644.643 404.082 635.567C404.082 626.492 366.196 619.135 319.46 619.135C272.725 619.135 234.839 626.492 234.839 635.567C234.839 644.643 272.725 652 319.46 652Z" fill="#DDCDBA"/>
<path d="M319.091 604.528L314.004 509.775H342.732L335.439 604.528H319.091Z" fill="#FFD2BB" stroke="black" stroke-width="0.759885" stroke-linecap="round" stroke-linejoin="round"/>
<path d="M301.128 604.528L306.226 509.775H277.487L284.791 604.528H301.128Z" fill="#FFD2BB" stroke="black" stroke-width="0.759885" stroke-linecap="round" stroke-linejoin="round"/>
<path d="M337.835 616.781H317.244V591.315C317.244 590.956 317.54 590.66 317.899 590.66H337.17C337.529 590.66 337.824 590.956 337.824 591.315V616.781H337.835Z" fill="white" stroke="black" stroke-width="0.759885" stroke-linecap="round" stroke-linejoin="round"/>
<path d="M302.87 616.781H282.279V591.315C282.279 590.956 282.574 590.66 282.933 590.66H302.205C302.564 590.66 302.859 590.956 302.859 591.315V616.781H302.87Z" fill="white" stroke="black" stroke-width="0.759885" stroke-linecap="round" stroke-linejoin="round"/>
<path d="M338.531 542.355C338.531 542.355 334.014 546.344 327.175 542.355" stroke="black" stroke-width="0.759885" stroke-linecap="round" stroke-linejoin="round"/>
<path d="M290.711 542.355C290.711 542.355 295.229 546.344 302.067 542.355" stroke="black" stroke-width="0.759885" stroke-linecap="round" stroke-linejoin="round"/>
<path d="M337.709 447.169C338.532 447.169 339.281 447.623 339.661 448.362C341.139 451.253 344.706 459.158 345.487 469.501C346.331 480.773 346.595 511.844 346.648 520.392C346.648 521.606 345.666 522.598 344.452 522.598H313.709C312.527 522.598 311.556 521.659 311.514 520.477L310.215 483.411L308.727 520.498C308.685 521.68 307.714 522.609 306.532 522.609H275.704C274.459 522.609 273.456 521.564 273.509 520.318L275.715 468.72C275.715 468.72 276.453 456.784 283.071 448.024C283.482 447.475 284.147 447.169 284.833 447.169H337.687H337.709Z" fill="black" stroke="black" stroke-width="0.759885" stroke-linecap="round" stroke-linejoin="round"/>
<path d="M280.97 414.504L274.786 468.973C274.701 470.113 275.092 471.443 275.556 472.488C276.664 474.936 278.638 479.749 278.575 482.609C278.49 486.577 281.382 489.163 280.211 490.82C279.039 492.477 276.443 491.337 275.24 488.488C274.374 486.419 273.245 483.696 272.696 482.366C272.591 482.113 272.221 482.145 272.169 482.409C271.398 485.701 268.654 497.448 268.58 497.775C268.411 498.588 265.762 500.783 263.841 497.87L263.736 498.356C263.535 499.274 262.797 500.002 261.857 500.118C261.277 500.192 260.612 500.129 259.989 499.738C259.282 499.284 258.944 498.419 259.06 497.575L259.155 496.899C257.446 497.701 255.557 496.181 255.979 494.345L256.981 489.944C256.981 489.944 256.464 490.482 255.715 490.514C254.121 490.567 253.34 489.089 253.636 487.464C254.163 484.604 255.124 478.187 259.282 471.147C259.757 470.345 260.644 469.343 260.749 468.414L266.174 413.259L280.981 414.483L280.97 414.504Z" fill="#FFD2BB" stroke="black" stroke-width="0.759885" stroke-linecap="round" stroke-linejoin="round"/>
<path d="M263.831 497.87C263.831 497.87 264.622 490.662 266.152 485.617" stroke="black" stroke-width="0.759885" stroke-linecap="round" stroke-linejoin="round"/>
<path d="M259.145 496.909C259.145 496.909 260.073 489.891 261.604 484.846" stroke="black" stroke-width="0.759885" stroke-linecap="round" stroke-linejoin="round"/>
<path d="M256.971 489.954C256.971 489.954 257.688 486.862 258.723 483.253" stroke="black" stroke-width="0.759885" stroke-linecap="round" stroke-linejoin="round"/>
<path d="M339.809 388.341C340.421 394.494 343.946 431.665 342.637 449.744C342.574 450.599 341.867 451.253 341.012 451.253H281.424C280.506 451.253 279.767 450.483 279.809 449.565L281.213 415.729L265.298 415.328C264.422 415.306 263.725 414.599 263.715 413.723C263.651 405.766 265.224 370.283 298.163 371.275C298.163 371.275 304.2 376.869 316.147 370.157" fill="white"/>
<path d="M339.809 388.341C340.421 394.494 343.946 431.665 342.637 449.744C342.574 450.599 341.867 451.253 341.012 451.253H281.424C280.506 451.253 279.767 450.483 279.809 449.565L281.213 415.729L265.298 415.328C264.422 415.306 263.725 414.599 263.715 413.723C263.651 405.766 265.224 370.283 298.163 371.275C298.163 371.275 304.2 376.869 316.147 370.157" stroke="black" stroke-width="0.759885" stroke-linecap="round" stroke-linejoin="round"/>
<path d="M315.366 361.777L316.147 370.157C316.147 370.157 307.767 378.758 298.163 371.275L297.604 355.972L315.366 361.777Z" fill="#FFD2BB" stroke="black" stroke-width="0.759885" stroke-linecap="round" stroke-linejoin="round"/>
<path d="M339.186 606.629L365.655 617.837L363.597 631.747L313.73 630.079L314.511 621.161C314.511 621.161 327.83 623.81 330.479 613.911C330.479 613.911 335.218 612.275 337.666 607.23C337.941 606.66 338.595 606.375 339.176 606.618L339.186 606.629Z" fill="#489D76" stroke="black" stroke-width="0.759885" stroke-linecap="round" stroke-linejoin="round"/>
<path d="M323.017 610.481C324.959 610.808 328.252 611.673 330.49 613.911C330.49 613.911 329.951 624.095 314.521 621.161V604.043C314.521 604.043 315.334 602.133 317.097 604.043L320.421 608.834C321.033 609.71 321.962 610.301 323.017 610.47V610.481Z" fill="#AFAFAF" stroke="black" stroke-width="0.759885" stroke-linecap="round" stroke-linejoin="round"/>
<path d="M379.576 630.28C379.576 630.28 373.36 632.074 363.608 631.747L365.666 617.837C365.666 617.837 377.866 617.689 379.576 630.28Z" fill="white" stroke="black" stroke-width="0.759885" stroke-linecap="round" stroke-linejoin="round"/>
<path d="M350.722 611.325C350.722 611.325 348.03 610.101 344.938 614.977" stroke="black" stroke-width="2.02636" stroke-linecap="round" stroke-linejoin="round"/>
<path d="M345.983 608.803C345.983 608.803 343.292 607.579 340.199 612.455" stroke="black" stroke-width="2.02636" stroke-linecap="round" stroke-linejoin="round"/>
<path d="M355.598 613.214C355.598 613.214 352.906 611.99 349.814 616.866" stroke="black" stroke-width="2.02636" stroke-linecap="round" stroke-linejoin="round"/>
<path d="M359.903 615.314C359.903 615.314 357.212 614.09 354.12 618.966" stroke="black" stroke-width="2.02636" stroke-linecap="round" stroke-linejoin="round"/>
<path d="M381.539 630.47C381.803 631.209 382.035 632.201 382.024 633.393C382.014 634.259 381.37 635.019 380.515 635.156C375.08 636.074 350.278 638.575 313.624 635.061C312.685 634.966 311.978 634.174 311.967 633.235C311.967 632.528 312.02 631.694 312.21 630.976C312.421 630.174 313.223 629.668 314.057 629.72C321.424 630.227 362.341 632.844 379.47 629.341C380.357 629.161 381.254 629.615 381.56 630.47H381.539Z" fill="white" stroke="black" stroke-width="0.759885" stroke-linecap="round" stroke-linejoin="round"/>
<path d="M303.218 609.468L329.687 620.676L327.629 634.586L277.762 632.918L278.543 624C278.543 624 291.862 626.649 294.511 616.75C294.511 616.75 299.25 615.114 301.698 610.069C301.972 609.499 302.627 609.214 303.207 609.457L303.218 609.468Z" fill="#489D76" stroke="black" stroke-width="0.759885" stroke-linecap="round" stroke-linejoin="round"/>
<path d="M287.049 613.33C288.991 613.658 292.284 614.523 294.521 616.76C294.521 616.76 293.983 626.945 278.553 624.011V606.892C278.553 606.892 279.366 604.982 281.128 606.892L284.453 611.684C285.065 612.56 285.994 613.151 287.049 613.32V613.33Z" fill="#AFAFAF" stroke="black" stroke-width="0.759885" stroke-linecap="round" stroke-linejoin="round"/>
<path d="M343.608 633.119C343.608 633.119 337.392 634.913 327.64 634.586L329.698 620.676C329.698 620.676 341.898 620.528 343.608 633.119Z" fill="white" stroke="black" stroke-width="0.759885" stroke-linecap="round" stroke-linejoin="round"/>
<path d="M314.754 614.164C314.754 614.164 312.063 612.94 308.97 617.816" stroke="black" stroke-width="2.02636" stroke-linecap="round" stroke-linejoin="round"/>
<path d="M310.015 611.642C310.015 611.642 307.324 610.417 304.231 615.293" stroke="black" stroke-width="2.02636" stroke-linecap="round" stroke-linejoin="round"/>
<path d="M319.63 616.053C319.63 616.053 316.938 614.829 313.846 619.705" stroke="black" stroke-width="2.02636" stroke-linecap="round" stroke-linejoin="round"/>
<path d="M323.935 618.153C323.935 618.153 321.244 616.929 318.152 621.805" stroke="black" stroke-width="2.02636" stroke-linecap="round" stroke-linejoin="round"/>
<path d="M345.571 633.309C345.835 634.048 346.067 635.04 346.057 636.233C346.046 637.098 345.402 637.858 344.547 637.995C339.112 638.913 314.31 641.415 277.656 637.9C276.717 637.805 276.01 637.014 276 636.074C276 635.367 276.052 634.533 276.242 633.816C276.453 633.014 277.255 632.507 278.089 632.56C285.456 633.066 326.374 635.684 343.503 632.18C344.389 632.001 345.286 632.454 345.592 633.309H345.571Z" fill="white" stroke="black" stroke-width="0.759885" stroke-linecap="round" stroke-linejoin="round"/>
<path d="M337.825 593.13H317.234" stroke="black" stroke-width="1.01318" stroke-linejoin="round"/>
<path d="M337.825 596.032H317.234" stroke="black" stroke-width="2.02636" stroke-linejoin="round"/>
<path d="M282.247 593.13H302.838" stroke="black" stroke-width="1.01318" stroke-linejoin="round"/>
<path d="M282.247 596.032H302.838" stroke="black" stroke-width="2.02636" stroke-linejoin="round"/>
<path d="M317.719 325.028C317.719 325.028 333.329 355.096 317.477 361.407C304.801 366.452 294.712 353.619 294.712 353.619C294.712 353.619 288.295 356.025 285.118 350.505C283.725 348.088 283.641 345.049 285.118 342.685C285.899 341.439 287.113 340.3 289.013 339.983C292.411 339.424 294.068 340.785 294.733 341.598C294.965 341.893 295.408 341.914 295.683 341.661C295.683 341.661 296.77 333.64 299.862 328.384C302.965 323.139 308.822 329.545 317.719 325.007V325.028Z" fill="#FFD2BB" stroke="black" stroke-width="0.759885" stroke-linecap="round" stroke-linejoin="round"/>
<path d="M318.606 329.64C318.606 329.64 316.347 330.706 314.701 329.26" stroke="black" stroke-width="0.759885" stroke-linecap="round" stroke-linejoin="round"/>
<path d="M304.801 332.384C304.801 332.384 304.727 334.547 302.142 335.624" stroke="black" stroke-width="0.759885" stroke-linecap="round" stroke-linejoin="round"/>
<path d="M318.753 335.899C319.33 335.899 319.798 335.431 319.798 334.854C319.798 334.277 319.33 333.809 318.753 333.809C318.176 333.809 317.708 334.277 317.708 334.854C317.708 335.431 318.176 335.899 318.753 335.899Z" fill="black" stroke="black" stroke-width="0.759885" stroke-linecap="round" stroke-linejoin="round"/>
<path d="M307.028 340.394C307.605 340.394 308.073 339.927 308.073 339.35C308.073 338.773 307.605 338.305 307.028 338.305C306.451 338.305 305.983 338.773 305.983 339.35C305.983 339.927 306.451 340.394 307.028 340.394Z" fill="black" stroke="black" stroke-width="0.759885" stroke-linecap="round" stroke-linejoin="round"/>
<path d="M314.015 338.59C314.015 338.59 316.537 337.988 317.329 340.088C318.12 342.189 315.482 343.212 315.482 343.212" stroke="black" stroke-width="0.759885" stroke-linecap="round" stroke-linejoin="round"/>
<path d="M320.495 349.313C320.495 349.313 315.281 346.769 309.456 350.526" stroke="black" stroke-width="0.759885" stroke-linecap="round" stroke-linejoin="round"/>
<path d="M293.751 348.468C293.751 348.468 291.408 344.067 286.606 346.273" stroke="black" stroke-width="0.759885" stroke-linecap="round" stroke-linejoin="round"/>
<path d="M289.487 348.648C289.487 348.648 289.603 346.706 291.556 346.273" stroke="black" stroke-width="0.759885" stroke-linecap="round" stroke-linejoin="round"/>
<path d="M281.213 415.729H286.289C287.524 415.729 288.558 414.789 288.675 413.554C289.012 410.029 289.434 402.23 288.421 390.367" fill="white"/>
<path d="M281.213 415.729H286.289C287.524 415.729 288.558 414.789 288.675 413.554C289.012 410.029 289.434 402.23 288.421 390.367" stroke="black" stroke-width="0.759885" stroke-linecap="round" stroke-linejoin="round"/>
<path d="M331.176 421.766C331.176 421.766 324.991 430.188 309.086 433.322" stroke="black" stroke-width="0.759885" stroke-linecap="round" stroke-linejoin="round"/>
<path d="M316.6 437.111C316.6 437.111 313.519 438.873 309.719 438.103" stroke="black" stroke-width="0.759885" stroke-linecap="round" stroke-linejoin="round"/>
<path d="M303.545 351.075C306.081 351.075 308.136 349.02 308.136 346.484C308.136 343.949 306.081 341.893 303.545 341.893C301.01 341.893 298.954 343.949 298.954 346.484C298.954 349.02 301.01 351.075 303.545 351.075Z" fill="#FFB39C"/>
<path d="M284.031 344.964C275.926 328.796 282.997 323.593 285.308 322.389C285.741 322.168 286.1 321.809 286.311 321.376C287.736 318.558 293.751 308.574 305.973 313.239C320.136 318.632 323.419 315.118 323.419 315.118" stroke="black" stroke-width="0.759885" stroke-linecap="round" stroke-linejoin="round"/>
<path d="M323.429 317.123C323.429 317.123 322.184 318.052 320.484 318.474L323.429 317.123Z" fill="#FFD2BB"/>
<path d="M323.429 317.123C323.429 317.123 322.184 318.052 320.484 318.474" stroke="black" stroke-width="0.759885" stroke-linecap="round" stroke-linejoin="round"/>
<path d="M322.5 319.054C322.5 319.054 321.677 319.814 320.484 320.405L322.5 319.054Z" fill="#FFD2BB"/>
<path d="M322.5 319.054C322.5 319.054 321.677 319.814 320.484 320.405" stroke="black" stroke-width="0.759885" stroke-linecap="round" stroke-linejoin="round"/>
<path d="M317.719 325.028C317.719 325.028 319.724 324.036 322.511 321.081" stroke="black" stroke-width="0.759885" stroke-linecap="round" stroke-linejoin="round"/>
<path d="M282.195 372.447C282.195 372.447 293.456 373.344 297.434 421.069C297.54 422.283 298.627 423.159 299.83 423L313.023 421.206C314.131 421.058 314.933 420.077 314.848 418.958C314.268 411.328 311.418 383.655 299.704 371.497C297.508 369.228 294.458 367.993 291.303 368.13C285.91 368.373 277.329 370.336 274.596 379.961C274.596 379.961 278.944 375.55 284.231 373.492" stroke="black" stroke-width="0.759885" stroke-linecap="round" stroke-linejoin="round"/>
<path d="M316.58 368.932C316.432 373.935 315.429 400.763 310.743 415.243C310.416 416.256 311.049 417.312 312.094 417.512L324.305 419.792C325.118 419.94 325.93 419.507 326.247 418.747C328.389 413.544 334.257 390.009 330.395 368.7C330.12 367.159 328.685 366.104 327.134 366.315L317.255 367.613C316.843 367.94 316.601 368.415 316.59 368.943L316.58 368.932Z" stroke="black" stroke-width="0.759885" stroke-linecap="round" stroke-linejoin="round"/>
<path d="M300.886 419.591L301.34 422.779" stroke="black" stroke-width="0.759885" stroke-linecap="round" stroke-linejoin="round"/>
<path d="M304.316 419.106L304.77 422.293" stroke="black" stroke-width="0.759885" stroke-linecap="round" stroke-linejoin="round"/>
<path d="M308.179 418.504L308.633 421.692" stroke="black" stroke-width="0.759885" stroke-linecap="round" stroke-linejoin="round"/>
<path d="M311.323 418.124L311.777 421.312" stroke="black" stroke-width="0.759885" stroke-linecap="round" stroke-linejoin="round"/>
<path d="M324.009 416.235L323.123 419.327" stroke="black" stroke-width="0.759885" stroke-linecap="round" stroke-linejoin="round"/>
<path d="M321.012 415.729L320.125 418.831" stroke="black" stroke-width="0.759885" stroke-linecap="round" stroke-linejoin="round"/>
<path d="M317.308 415.021L316.421 418.124" stroke="black" stroke-width="0.759885" stroke-linecap="round" stroke-linejoin="round"/>
<path d="M314.205 414.177L313.318 417.28" stroke="black" stroke-width="0.759885" stroke-linecap="round" stroke-linejoin="round"/>
<path d="M304.263 270.263L296.368 282.96C295.978 283.583 296.432 284.395 297.171 284.395H300.094C300.611 284.395 301.033 284.817 301.033 285.334V303.899C301.033 304.416 301.455 304.838 301.973 304.838H308.104C308.622 304.838 309.044 304.416 309.044 303.899V285.176C309.044 284.659 309.466 284.237 309.983 284.237H312.442C313.17 284.237 313.624 283.445 313.255 282.823L305.878 270.274C305.519 269.662 304.643 269.651 304.273 270.253L304.263 270.263Z" fill="#C66258" stroke="black" stroke-width="0.759885" stroke-linecap="round" stroke-linejoin="round"/>
</g>
<defs>
<filter id="filter0_f_291_2678" x="0" y="0" width="818" height="818" filterUnits="userSpaceOnUse" color-interpolation-filters="sRGB">
<feFlood flood-opacity="0" result="BackgroundImageFix"/>
<feBlend mode="normal" in="SourceGraphic" in2="BackgroundImageFix" result="shape"/>
<feGaussianBlur stdDeviation="100" result="effect1_foregroundBlur_291_2678"/>
</filter>
<linearGradient id="paint0_linear_291_2678" x1="200" y1="289.507" x2="611.345" y2="343.593" gradientUnits="userSpaceOnUse">
<stop offset="1" stop-color="#D7D4C1"/>
</linearGradient>
<clipPath id="clip0_291_2678">
<rect width="169.254" height="409.937" fill="white" transform="translate(414.647 242)"/>
</clipPath>
<clipPath id="clip1_291_2678">
<rect width="169.254" height="382.56" fill="white" transform="translate(234.839 269.44)"/>
</clipPath>
</defs>
</svg>
