<svg width="121" height="120" viewBox="0 0 121 120" fill="none" xmlns="http://www.w3.org/2000/svg">
<path d="M78.6085 49.9396H70.5602V41.8914H62.5119V49.9396H54.4636V57.9879H62.5119V66.0362H70.5602V57.9879H78.6085V49.9396Z" stroke="black" stroke-width="2.06036" stroke-linecap="round" stroke-linejoin="round"/>
<path d="M54.4636 72.0725H78.6085" stroke="black" stroke-width="2.06036" stroke-linecap="round" stroke-linejoin="round"/>
<path d="M54.4636 78.1086H78.6085" stroke="black" stroke-width="2.06036" stroke-linecap="round" stroke-linejoin="round"/>
<path d="M75.5905 19.0544H99.9366V88.8734C99.9366 93.8834 95.8923 97.9277 90.8822 97.9277M90.8822 97.9277C85.8722 97.9277 81.8279 93.8834 81.8279 88.8734H15.0271C15.0271 93.8834 19.0714 97.9277 24.0814 97.9277H90.8822Z" stroke="black" stroke-width="2.06036" stroke-linecap="round" stroke-linejoin="round"/>
<path d="M57.4818 19.0544H33.1357V88.8734" stroke="black" stroke-width="2.06036" stroke-linecap="round" stroke-linejoin="round"/>
<path d="M27.0996 82.837V19.0543C27.0996 15.7142 29.7958 13.0181 33.1358 13.0181H59.7153" stroke="black" stroke-width="2.06036" stroke-linecap="round" stroke-linejoin="round"/>
<path d="M73.2163 13.0181H99.9366C103.277 13.0181 105.973 15.7142 105.973 19.0543V103.964C105.973 107.304 103.277 110 99.9366 110H33.1358C29.7958 110 27.0996 107.304 27.0996 103.964V97.9275" stroke="black" stroke-width="2.06036" stroke-linecap="round" stroke-linejoin="round"/>
<path d="M57.4818 19.0543V25.0905H54.4637C51.1237 25.0905 48.4275 27.7867 48.4275 31.1268H84.6448C84.6448 27.7867 81.9486 25.0905 78.6086 25.0905H75.5905V19.0543C75.5905 14.0443 71.5462 10 66.5361 10C61.5261 10 57.4818 14.0443 57.4818 19.0543Z" stroke="black" stroke-width="2.06036" stroke-linecap="round" stroke-linejoin="round"/>
<path d="M66.5362 22.0724C68.203 22.0724 69.5543 20.7211 69.5543 19.0542C69.5543 17.3874 68.203 16.0361 66.5362 16.0361C64.8693 16.0361 63.5181 17.3874 63.5181 19.0542C63.5181 20.7211 64.8693 22.0724 66.5362 22.0724Z" stroke="black" stroke-width="2.06036" stroke-linecap="round" stroke-linejoin="round"/>
</svg>
