<svg width="121" height="120" viewBox="0 0 121 120" fill="none" xmlns="http://www.w3.org/2000/svg">
<g clip-path="url(#clip0_291_1966)">
<path d="M63.1143 75.022C63.208 76.7493 64.1319 78.2891 65.4709 78.972C66.0333 79.2531 66.6358 79.4004 67.2383 79.4004C67.8275 79.4004 68.4166 79.2665 68.979 78.9987C70.3715 78.3292 71.4293 76.9233 71.7775 75.2228C71.9649 74.3525 71.9515 73.4822 71.7507 72.6654C71.4829 71.554 71.5097 70.2017 71.831 68.6485L71.8712 68.4744C72.0854 67.4836 72.3666 66.6936 72.7549 66.0776C73.0629 65.5822 73.2771 65.0466 73.3976 64.4709C73.6386 63.3461 73.478 62.2214 72.9959 61.2975C73.2102 61.2038 73.4244 61.0967 73.6252 60.9761C74.6563 60.3067 75.3124 59.2221 75.4329 58.0036C75.4998 57.294 75.3793 56.5709 75.0847 55.9282C74.7366 55.1784 74.6161 54.2411 74.7366 53.0226C74.8035 52.3264 74.9642 51.7774 75.2052 51.3489C75.4463 50.9205 75.5935 50.4518 75.6471 49.9698C75.7408 49.0995 75.473 48.2425 74.9642 47.5596C75.0044 47.5329 75.0446 47.5195 75.0847 47.4927C76.1157 46.8232 76.7718 45.7386 76.8923 44.5202C76.9593 43.8105 76.8388 43.0875 76.5442 42.4447C76.1961 41.6949 76.0756 40.7576 76.1961 39.5392C76.263 38.8429 76.4237 38.2939 76.6647 37.8655C76.9057 37.437 77.053 36.9683 77.1066 36.4863C77.1869 35.6829 76.9861 34.8929 76.5576 34.2368C76.7183 34.1431 76.8656 34.0494 76.9995 33.9289C77.8832 33.2192 78.3786 32.1614 78.3786 31.0367C78.3786 30.3672 78.2045 29.7245 77.8698 29.1621C77.5083 28.5462 77.3208 27.7428 77.3208 26.6582C77.3208 26.0557 77.4012 25.5603 77.5886 25.172C77.7761 24.7569 77.8698 24.3017 77.8698 23.8598C77.8698 22.8823 77.4279 21.9585 76.6647 21.3425C75.9015 20.7266 74.9107 20.499 73.9332 20.7132C72.8353 20.9542 71.9248 21.771 71.5766 22.869C71.3356 23.6322 71.3892 24.4489 71.7105 25.1586C71.8846 25.5469 71.9783 26.0423 71.9783 26.6449V27.3679C71.9783 27.9303 71.7909 28.5328 71.4159 29.1889C70.8803 30.1128 70.7866 31.184 71.1214 32.215C71.2419 32.5899 71.4427 32.938 71.6837 33.246C71.1481 33.6075 70.7063 34.1163 70.4385 34.7323C70.1037 35.5356 70.0636 36.4194 70.3448 37.2228C70.5054 37.6914 70.5456 38.2538 70.4787 38.95L70.3983 39.7534C70.3314 40.4095 70.0502 41.0656 69.5548 41.7753C68.8853 42.7125 68.6577 43.8641 68.9121 45.0156C69.0727 45.752 69.461 46.4081 69.9966 46.9303C69.5815 47.2784 69.22 47.7069 69.0058 48.2291C68.671 49.0325 68.6309 49.9162 68.9121 50.7196C69.0727 51.1882 69.1129 51.764 69.046 52.4469L68.9656 53.2369C68.8987 53.893 68.6175 54.5491 68.1087 55.2721C67.4392 56.2094 67.2116 57.3609 67.466 58.5124C67.5731 59.0212 67.8275 59.4899 68.1355 59.9184C67.4794 60.32 66.917 60.936 66.5421 61.6992C66.0868 62.6365 65.9128 63.6675 66.06 64.6583C66.1672 65.368 66.1136 66.2115 65.8994 67.2024L65.6717 68.2602C65.4709 69.2108 65.0156 70.1615 64.2792 71.1256C63.449 72.2235 63.034 73.6027 63.1143 75.022ZM73.17 30.1931C73.7324 29.2157 74.0002 28.2918 74.0002 27.3679V26.6449C74.0002 25.7477 73.8529 24.9979 73.5583 24.3284C73.4378 24.0606 73.4244 23.7527 73.5047 23.4581C73.6252 23.0564 73.9734 22.7484 74.3751 22.6547C74.4688 22.6279 74.5759 22.6279 74.6696 22.6279C74.9508 22.6279 75.2052 22.7217 75.4195 22.8957C75.714 23.1367 75.8747 23.4849 75.8747 23.8464C75.8747 24.0071 75.8346 24.1811 75.7676 24.3418C75.473 24.9979 75.3257 25.7477 75.3257 26.7654C75.3257 28.091 75.6069 29.2425 76.1559 30.1797C76.3032 30.4342 76.3835 30.7287 76.3835 31.0367C76.3835 31.5589 76.1559 32.0409 75.7408 32.3623C75.3257 32.697 74.7902 32.8175 74.2412 32.697C73.6922 32.5765 73.1968 32.1347 73.0227 31.5991C72.8353 30.9831 73.0093 30.4877 73.17 30.1931ZM71.1883 42.9402C71.9114 41.9359 72.2997 40.9451 72.4068 39.9409L72.4871 39.1375C72.5809 38.16 72.5139 37.3165 72.2595 36.5667C72.139 36.2319 72.1524 35.857 72.2997 35.5089C72.5005 35.0402 72.9558 34.7055 73.4512 34.6385C73.5181 34.6251 73.5851 34.6251 73.652 34.6251C74.0537 34.6251 74.4152 34.7724 74.6964 35.0402C75.0178 35.3616 75.1785 35.7901 75.1249 36.2453C75.0981 36.4461 75.0446 36.647 74.9374 36.8345C74.5491 37.5173 74.3081 38.3207 74.201 39.4321C74.0537 40.8915 74.2412 42.177 74.7366 43.2615C74.8839 43.5829 74.9508 43.931 74.9107 44.2925C74.8571 44.9085 74.5224 45.4441 74.0002 45.7922C73.4646 46.1403 72.8219 46.2207 72.1925 46.0198C71.5364 45.8056 71.0276 45.2432 70.8804 44.5737C70.7063 43.8373 70.9473 43.2883 71.1883 42.9402ZM69.7288 56.4504C70.4519 55.4462 70.8402 54.4553 70.9473 53.4511L71.0276 52.6611C71.1214 51.6837 71.0544 50.8401 70.8 50.0903C70.6795 49.7422 70.6929 49.3806 70.8402 49.0325C71.041 48.5639 71.4963 48.2291 71.9917 48.1622C72.0586 48.1488 72.1256 48.1488 72.1925 48.1488C72.5942 48.1488 72.9558 48.2961 73.2369 48.5639C73.5583 48.8852 73.719 49.3137 73.6654 49.7689C73.652 49.9698 73.5851 50.1706 73.478 50.3581C73.0897 51.041 72.8486 51.8443 72.7415 52.9557C72.5942 54.4152 72.7817 55.7006 73.2771 56.7852C73.4244 57.1065 73.4913 57.4546 73.4512 57.8162C73.3976 58.4321 73.0629 58.9677 72.5407 59.3158C72.1524 59.5702 71.6971 59.6773 71.2285 59.6372C71.0009 59.5434 70.7598 59.4765 70.5188 59.4363C69.9699 59.1819 69.5548 58.6865 69.4209 58.0974C69.2468 57.3475 69.4878 56.7852 69.7288 56.4504ZM65.8726 72.3574C66.7831 71.139 67.3589 69.9473 67.6266 68.702L67.8409 67.6308C68.1087 66.399 68.1622 65.3412 68.0283 64.3771C67.9346 63.788 68.0417 63.1721 68.3229 62.5963C68.671 61.9 69.3004 61.4046 69.8761 61.3778H69.9565C69.9699 61.3778 69.9832 61.3912 69.9966 61.3912C70.0368 61.4046 70.0636 61.4314 70.1037 61.4448C70.2644 61.4984 70.4251 61.5251 70.5858 61.5653C70.7331 61.6456 70.867 61.7394 70.9875 61.8867C71.4427 62.4088 71.6034 63.2524 71.4293 64.0826C71.3624 64.4173 71.2285 64.7521 71.041 65.0466C70.5322 65.8634 70.1573 66.8542 69.9029 68.0861L69.8627 68.2602C69.4744 70.1079 69.4476 71.7549 69.7958 73.1742C69.9297 73.6964 69.9297 74.2588 69.8092 74.8345C69.5815 75.9057 68.9255 76.8162 68.1087 77.2045C67.707 77.4054 67.0777 77.5526 66.3814 77.2045C65.6717 76.8564 65.1763 75.9459 65.1228 74.9416C65.0692 73.9776 65.337 73.0671 65.8726 72.3574Z" fill="black"/>
<path d="M44.0071 36.0041C43.5385 36.6334 43.2975 37.41 43.3243 38.2134C43.3377 38.6954 43.4715 39.164 43.6858 39.6193C43.9134 40.0611 44.0339 40.6235 44.0607 41.4403C44.1009 42.5516 43.9402 43.4755 43.5519 44.1986C43.2171 44.8413 43.0565 45.5242 43.0966 46.2472C43.1502 47.4791 43.7393 48.5904 44.7302 49.3268C44.7704 49.3536 44.8105 49.367 44.8373 49.3938C44.2883 50.0499 43.9804 50.8934 44.0205 51.7772C44.0473 52.2592 44.1678 52.7412 44.382 53.1831C44.6097 53.625 44.7302 54.1873 44.757 55.0041C44.7971 56.1154 44.6365 57.0393 44.2482 57.7624C43.9134 58.4051 43.7527 59.088 43.7795 59.8244C43.8331 61.0563 44.4222 62.1676 45.4131 62.904C45.5737 63.0245 45.7344 63.1183 45.9085 63.212C45.4131 63.9752 45.2122 64.8857 45.3461 65.7962C45.4265 66.305 45.6139 66.8004 45.8951 67.2557C46.2031 67.7243 46.4039 68.3269 46.5244 69.1169L46.5512 69.2508C46.7386 70.4692 46.6583 71.527 46.3102 72.3974C46.0156 73.1204 45.9353 73.8836 46.0558 74.6468C46.2566 75.9456 47.0198 77.0838 48.1713 77.7399C48.8408 78.1282 49.604 78.329 50.3673 78.329C50.9162 78.329 51.4652 78.2353 51.9874 78.021C53.0184 77.6194 53.8754 76.8026 54.344 75.8117C54.7993 76.4277 55.3616 76.9231 56.0311 77.2043C56.5132 77.4051 56.9952 77.4988 57.4906 77.4988C58.1467 77.4988 58.8028 77.3248 59.4187 76.9633C60.8246 76.1465 61.8155 74.5263 62.0431 72.6384C62.1502 71.7145 62.0833 70.8174 61.8155 69.9738C61.454 68.7955 61.3736 67.336 61.5745 65.6222L61.6013 65.4347C61.7351 64.3367 61.9628 63.4664 62.3109 62.7567C62.5787 62.2078 62.7394 61.632 62.8197 61.0295C62.967 59.7976 62.7126 58.6193 62.1368 57.6954C62.3511 57.5749 62.5653 57.4544 62.7662 57.2937C63.7302 56.5305 64.2926 55.3924 64.306 54.1739C64.3194 53.4509 64.1319 52.7546 63.7838 52.1387C63.3687 51.4156 63.1679 50.5051 63.1812 49.2733C63.1946 48.577 63.2884 48.0146 63.5026 47.5594C63.7168 47.1041 63.8239 46.6355 63.8239 46.1401C63.8373 45.2564 63.5026 44.4396 62.9268 43.7969C62.967 43.7701 63.0072 43.7567 63.034 43.7299C63.998 42.9667 64.5604 41.8286 64.5738 40.6101C64.5872 39.8871 64.3997 39.1908 64.0516 38.5749C63.6365 37.8652 63.4356 36.9413 63.449 35.7095C63.4624 35.0132 63.5562 34.4508 63.7704 33.9956C63.9846 33.5403 64.0917 33.0717 64.0917 32.5763C64.1051 31.7729 63.8373 30.9963 63.3419 30.3804C63.4892 30.2732 63.6365 30.1661 63.7704 30.0456C64.5872 29.269 65.0022 28.1711 64.8951 27.0463C64.8416 26.3768 64.6139 25.7609 64.2256 25.2253C63.8239 24.6228 63.5829 23.8462 63.4758 22.7616C63.4223 22.1591 63.4624 21.6636 63.6097 21.262C63.757 20.8335 63.8106 20.3782 63.7704 19.9364C63.6901 18.9589 63.1679 18.0886 62.3511 17.5396C61.5477 16.9906 60.5435 16.8433 59.5794 17.1513C58.5082 17.486 57.6781 18.3832 57.4237 19.5079C57.2496 20.2979 57.3701 21.1013 57.7584 21.7842C57.9726 22.1591 58.0931 22.6277 58.1467 23.2436L58.2136 23.9533C58.2672 24.5157 58.1333 25.1316 57.812 25.8279C57.3701 26.7919 57.3567 27.8765 57.7718 28.8673C57.9325 29.2288 58.1601 29.5502 58.4279 29.8448C57.9191 30.2599 57.5308 30.7954 57.3165 31.4382C57.0487 32.2683 57.0889 33.152 57.437 33.9286C57.6379 34.3839 57.7316 34.9463 57.7182 35.6425L57.7048 36.4459C57.6914 37.102 57.4772 37.7849 57.0354 38.5481C56.4462 39.5523 56.3257 40.7172 56.6738 41.8286C56.9015 42.5382 57.3433 43.1676 57.9191 43.6496C57.5308 44.0245 57.2228 44.4931 57.0487 45.0287C56.7809 45.8589 56.8211 46.7426 57.1693 47.5192C57.3701 47.9745 57.4638 48.5368 57.4504 49.2331L57.437 50.0365C57.4237 50.6926 57.2094 51.3755 56.7676 52.1387C56.1784 53.1429 56.0445 54.3078 56.406 55.4192C56.5667 55.928 56.8613 56.3832 57.2094 56.7849C56.5801 57.2803 56.0445 57.99 55.7232 58.8603C55.3482 59.8913 55.2679 60.9625 55.4821 61.9801C55.6428 62.7434 55.6562 63.6539 55.5223 64.7518L55.3884 65.9033C55.2545 66.9611 54.8796 68.0189 54.2101 69.157C53.8888 69.706 53.6745 70.2952 53.5272 70.9245C53.0988 70.2952 52.831 69.6926 52.7372 69.0901L52.6033 68.2198C52.4828 67.4432 52.4962 66.8004 52.6435 66.2649C52.8979 65.3811 52.8042 64.4439 52.3891 63.5869C52.0811 62.971 51.6125 62.4622 51.0501 62.114C51.3447 61.7257 51.5991 61.2973 51.733 60.8286C52.0544 59.6905 51.8937 58.539 51.2778 57.5615C50.8091 56.8117 50.5681 56.1422 50.5413 55.4861L50.5012 54.6426C50.4744 53.9463 50.5413 53.3839 50.7288 52.9287C51.0501 52.1387 51.0635 51.255 50.769 50.4248C50.5815 49.9026 50.2468 49.4474 49.8585 49.0858C50.4074 48.5904 50.8359 47.9477 51.0368 47.238C51.3581 46.1133 51.1974 44.9484 50.5815 43.9709C50.1129 43.2345 49.8718 42.5516 49.8451 41.8955L49.8049 41.0922C49.7781 40.3959 49.8451 39.8335 50.0325 39.3783C50.3539 38.5883 50.3673 37.7045 50.0727 36.8744C49.8451 36.2451 49.43 35.7229 48.9078 35.3212C49.1622 35.0266 49.3898 34.6919 49.5237 34.3303C49.912 33.3261 49.8718 32.2415 49.3898 31.2909C49.0551 30.608 48.8944 30.0055 48.9346 29.4297L48.9747 28.72C49.0149 28.1175 49.122 27.6355 49.3095 27.2606C49.671 26.5643 49.7781 25.7475 49.5773 24.9575C49.2961 23.8596 48.4391 22.9758 47.3546 22.6813C46.3905 22.4135 45.3863 22.5875 44.5963 23.1633C43.8063 23.7391 43.3109 24.6228 43.2573 25.6002C43.2305 26.0421 43.3109 26.4973 43.4715 26.9258C43.6188 27.3275 43.6858 27.8095 43.6456 28.5326C43.5921 29.4966 43.3644 30.2866 42.9627 30.8892C42.6012 31.4382 42.387 32.0675 42.3468 32.7236C42.2799 33.8483 42.7351 34.9329 43.5653 35.6827C43.7126 35.8032 43.8599 35.8969 44.0071 36.0041ZM62.3109 54.1472C62.3109 54.7631 62.0163 55.3254 61.5343 55.7137C61.1728 56.0083 60.7309 56.1422 60.2757 56.1556C60.0347 56.0753 59.7669 56.0217 59.5125 56.0083C58.9635 55.7941 58.5082 55.3522 58.3208 54.7765C58.0931 54.04 58.294 53.4643 58.4948 53.1161C59.1242 52.045 59.4321 51.0407 59.4455 50.0231L59.4589 49.2197C59.4723 48.2289 59.325 47.3987 59.0036 46.6757C58.8564 46.3409 58.843 45.9794 58.9501 45.6179C59.1108 45.1359 59.5258 44.7476 60.0213 44.6538C60.1284 44.627 60.2489 44.6137 60.356 44.6137C60.7041 44.6137 61.0255 44.7208 61.2933 44.9484C61.6414 45.2296 61.8423 45.6581 61.8289 46.1133C61.8289 46.3142 61.7753 46.515 61.695 46.7158C61.3602 47.4255 61.1996 48.2557 61.1862 49.367C61.1728 50.8399 61.4674 52.0985 62.0565 53.1295C62.2306 53.4375 62.3109 53.7856 62.3109 54.1472ZM59.2848 33.0985C59.1375 32.7637 59.1242 32.4022 59.2313 32.0407C59.3919 31.5587 59.807 31.1837 60.3024 31.0766C60.4096 31.0499 60.5301 31.0365 60.6372 31.0365C60.9853 31.0365 61.3067 31.1436 61.5745 31.3712C61.9226 31.6524 62.1235 32.0809 62.1101 32.5361C62.1101 32.737 62.0565 32.9378 61.9762 33.1387C61.6414 33.8483 61.4807 34.6785 61.4674 35.7898C61.454 37.2627 61.7351 38.5213 62.3377 39.5523C62.5118 39.8603 62.6055 40.2084 62.6055 40.57C62.6055 41.1859 62.3109 41.7616 61.8289 42.1366C61.3335 42.5382 60.7041 42.6721 60.048 42.5115C59.3786 42.3642 58.8162 41.842 58.6153 41.1859C58.3877 40.4494 58.5886 39.8737 58.7894 39.5256C59.4187 38.4544 59.7267 37.4501 59.7401 36.4325L59.7535 35.6291C59.7401 34.6517 59.5928 33.8215 59.2848 33.0985ZM59.3919 19.9364C59.4857 19.5347 59.7936 19.1865 60.1819 19.066C60.3158 19.0259 60.4497 18.9991 60.5702 18.9991C60.8113 18.9991 61.0389 19.066 61.2397 19.1999C61.5477 19.4008 61.7485 19.7355 61.7753 20.097C61.7887 20.2577 61.7619 20.4318 61.7084 20.5925C61.4674 21.262 61.4004 22.0386 61.4807 23.0428C61.6013 24.3684 61.9762 25.4931 62.6055 26.3634C62.7796 26.6045 62.8867 26.8856 62.9134 27.1936C62.9536 27.7024 62.7662 28.2112 62.3912 28.5727C62.0029 28.9477 61.4807 29.1083 60.9318 29.0414C60.3694 28.9744 59.8472 28.5728 59.633 28.0506C59.3786 27.4614 59.4991 26.9526 59.6463 26.6446C60.115 25.627 60.3025 24.6763 60.2221 23.7658L60.1552 23.0562C60.0748 22.1591 59.874 21.4226 59.5125 20.7933C59.3652 20.5389 59.325 20.2309 59.3919 19.9364ZM55.9508 70.1345C56.7542 68.7687 57.2228 67.4432 57.3835 66.1042L57.5174 64.9527C57.6781 63.6271 57.6513 62.5157 57.4504 61.5115C57.3031 60.8688 57.3701 60.1725 57.6111 59.5164C57.9057 58.7131 58.5082 58.1105 59.084 58.0168C59.1241 58.0168 59.1509 58.0168 59.1911 58.0034C59.2313 58.0168 59.258 58.0302 59.2982 58.0436C59.4455 58.0837 59.5928 58.0703 59.7535 58.0971C59.8874 58.1641 60.0213 58.2444 60.1418 58.3649C60.6774 58.8737 60.9452 59.8244 60.8246 60.7885C60.7845 61.1634 60.664 61.5517 60.5033 61.8864C60.0614 62.7969 59.7802 63.8815 59.6196 65.1937L59.5928 65.3811C59.3518 67.3762 59.4589 69.1169 59.9008 70.563C60.0748 71.1253 60.1284 71.7413 60.048 72.384C59.9008 73.6292 59.2714 74.7138 58.4145 75.2092C57.8923 75.5172 57.3567 75.5573 56.8211 75.3297C56.0847 75.0217 55.5089 74.0845 55.375 72.9999C55.2545 71.9957 55.4554 70.9647 55.9508 70.1345ZM52.2552 72.5313C52.5498 72.9062 52.8711 73.5221 52.7239 74.4058C52.6033 75.1824 52.041 75.8653 51.3045 76.1465C50.5949 76.4143 49.8451 76.3741 49.2157 75.9992C48.5998 75.6377 48.1847 75.0351 48.0776 74.3389C48.0107 73.9238 48.0642 73.5221 48.2115 73.1338C48.6935 71.9421 48.8141 70.5228 48.5596 68.9428L48.5329 68.8089C48.3722 67.7511 48.0642 66.8808 47.609 66.1711C47.4751 65.9569 47.3814 65.7293 47.3546 65.5016C47.2742 64.9794 47.4349 64.4572 47.783 64.0689C47.9839 63.8413 48.2517 63.7074 48.5329 63.6137C48.6668 63.5869 48.8007 63.6003 48.9212 63.5601C48.9747 63.5467 49.0149 63.52 49.0551 63.5066H49.0685H49.189C49.7781 63.5467 50.3271 63.9083 50.5815 64.4439C50.7823 64.8455 50.8225 65.274 50.702 65.6891C50.4744 66.5193 50.4476 67.4298 50.6083 68.4876L50.7422 69.3579C50.9296 70.4425 51.4117 71.4869 52.2552 72.5313ZM49.8049 60.2529C49.6442 60.842 49.1756 61.3107 48.6132 61.5383C48.3856 61.5651 48.158 61.6186 47.9437 61.699C47.4751 61.7257 47.0198 61.5785 46.6315 61.2973C46.1361 60.9357 45.8281 60.3734 45.8014 59.7575C45.788 59.3959 45.8683 59.0478 46.029 58.7264C46.5914 57.682 46.8324 56.41 46.7654 54.8166C46.7253 53.8258 46.5378 53.009 46.1763 52.3128C46.0825 52.1253 46.029 51.9245 46.0156 51.7236C46.0022 51.2684 46.1763 50.8399 46.5244 50.5453C46.7922 50.3043 47.1269 50.1838 47.4885 50.1838C47.5822 50.1838 47.6759 50.1972 47.7697 50.2106C48.2651 50.2909 48.6935 50.6658 48.8676 51.1345C49.0015 51.496 48.9881 51.8709 48.8542 52.2056C48.5596 52.9287 48.4391 53.7722 48.4793 54.7497L48.5195 55.5531C48.5596 56.5707 48.9078 57.5615 49.5639 58.6193C49.8049 58.9407 50.0191 59.503 49.8049 60.2529ZM49.1086 46.6891C48.9212 47.3452 48.3856 47.8808 47.7161 48.0548C47.0734 48.2289 46.4441 48.1084 45.9219 47.7335C45.4264 47.3719 45.1185 46.8096 45.0917 46.1936C45.0783 45.8321 45.1587 45.484 45.3193 45.1626C45.8817 44.1182 46.1227 42.8462 46.0558 41.2528C46.0156 40.262 45.8281 39.4452 45.48 38.749C45.3863 38.5615 45.3327 38.3473 45.3193 38.1464C45.3059 37.6912 45.48 37.2627 45.8148 36.9681C46.1495 36.6735 46.6047 36.553 47.0734 36.6334C47.5688 36.7137 47.9973 37.0886 48.1713 37.5573C48.3052 37.9188 48.2919 38.2937 48.158 38.6284C47.8634 39.3515 47.7429 40.195 47.783 41.1725L47.8232 41.9759C47.8634 42.9935 48.2115 43.9843 48.8676 45.0421C49.0952 45.3769 49.3229 45.9392 49.1086 46.6891ZM44.6365 31.9871C45.239 31.09 45.5737 29.9653 45.6541 28.5192C45.7076 27.6221 45.6005 26.8589 45.3461 26.1894C45.2792 26.0287 45.2524 25.8546 45.2658 25.694C45.2926 25.319 45.4666 24.9843 45.7746 24.7701C46.0825 24.5558 46.4575 24.4889 46.8324 24.596C47.2207 24.7031 47.5554 25.0379 47.6491 25.4396C47.7295 25.7475 47.6893 26.0421 47.542 26.3233C47.2073 26.966 47.0332 27.7024 46.9797 28.5995L46.9395 29.3226C46.8859 30.2465 47.1136 31.1837 47.609 32.188C47.7697 32.4959 47.9036 32.9914 47.6625 33.5939C47.4617 34.1161 46.9529 34.5312 46.3905 34.6115C45.8281 34.6919 45.3193 34.5446 44.9176 34.1964C44.5293 33.8483 44.3285 33.3529 44.3553 32.8307C44.3687 32.5227 44.4624 32.2415 44.6365 31.9871Z" fill="black"/>
<path d="M42.427 79.0926C43.7794 78.5436 44.7702 77.2582 44.9844 75.8255C45.1585 74.607 44.8238 73.4154 44.0472 72.4781C43.4446 71.755 43.0831 71.0588 42.9626 70.3491L42.8019 69.5055C42.668 68.7557 42.668 68.1398 42.8019 67.631C43.0295 66.774 42.9224 65.8501 42.494 65.02C42.2128 64.471 41.7843 64.0291 41.2889 63.7078C41.8245 63.1053 42.1994 62.3688 42.3199 61.5654C42.494 60.347 42.1592 59.1553 41.3826 58.218C40.7801 57.495 40.4185 56.7987 40.298 56.089L40.1507 55.2455C40.0169 54.509 40.0169 53.8931 40.1507 53.3709C40.3784 52.514 40.2713 51.5901 39.8428 50.7599C39.508 50.1172 38.9725 49.6218 38.3565 49.2737C38.5975 48.9121 38.8118 48.5238 38.9189 48.0954C39.1867 46.9974 38.9858 45.8727 38.3699 44.9488C37.9013 44.2659 37.6603 43.6366 37.6067 43.0206L37.5531 42.2574C37.4996 41.6013 37.5531 41.0657 37.7138 40.6373C37.995 39.8607 37.9816 39.0037 37.6736 38.2137C37.2318 37.1158 36.2142 36.3258 35.0493 36.1517C34.0182 36.0178 32.9872 36.3258 32.2508 37.022C31.501 37.7183 31.1127 38.7092 31.193 39.7402C31.2332 40.2088 31.3671 40.6641 31.5947 41.0925C31.8223 41.4942 31.9562 42.0164 32.0098 42.793C32.0901 43.8374 31.9562 44.7211 31.6215 45.4174C31.3135 46.0333 31.1796 46.7296 31.2332 47.4125C31.3269 48.5908 31.9295 49.6486 32.9069 50.3314C33.081 50.452 33.2818 50.5591 33.4693 50.6528C33.0274 51.3892 32.8667 52.2462 33.0274 53.1031C33.1211 53.5985 33.3086 54.0806 33.6032 54.509C33.9111 54.9509 34.112 55.5401 34.2459 56.2765L34.2727 56.4104C34.4869 57.5887 34.4333 58.6063 34.112 59.4365C33.8442 60.1461 33.7772 60.8826 33.9111 61.6458C34.1388 62.9178 34.9154 64.0024 36.0401 64.6183C36.107 64.6585 36.174 64.6719 36.2409 64.6986C35.7187 65.4752 35.5045 66.4125 35.6652 67.3498C35.7589 67.8452 35.9464 68.3273 36.2409 68.7557C36.5489 69.1976 36.7498 69.7867 36.8837 70.5232L36.9104 70.6571C37.1247 71.8354 37.0711 72.853 36.7498 73.6831C36.482 74.3794 36.415 75.1426 36.5489 75.8925C36.7765 77.1645 37.5531 78.249 38.6779 78.865C39.3206 79.2131 40.0169 79.3872 40.7265 79.3872C41.3157 79.4139 41.878 79.3068 42.427 79.0926ZM33.9781 42.5252C33.8977 41.5746 33.6969 40.798 33.3354 40.1419C33.2416 39.9678 33.1881 39.7803 33.1747 39.5929C33.1479 39.1778 33.2952 38.7761 33.6032 38.4949C33.8576 38.2539 34.1789 38.1334 34.5404 38.1334C34.6074 38.1334 34.6877 38.1334 34.7547 38.1468C35.2099 38.2137 35.625 38.5351 35.7991 38.9636C35.933 39.2983 35.933 39.633 35.8125 39.9544C35.5581 40.6641 35.4643 41.4674 35.5447 42.4181L35.5982 43.1813C35.6786 44.1588 36.0401 45.1094 36.6962 46.0869C36.9104 46.4083 37.1381 46.9305 36.964 47.6267C36.8167 48.2426 36.3213 48.7515 35.7054 48.9389C35.1162 49.113 34.5137 49.0326 34.0316 48.6979C33.563 48.3765 33.255 47.8543 33.2149 47.292C33.1881 46.9572 33.255 46.6359 33.4023 46.3279C33.8977 45.2835 34.0986 44.0517 33.9781 42.5252ZM35.8928 61.2976C35.8259 60.8959 35.8526 60.5076 35.9999 60.1461C36.4418 58.9678 36.5221 57.6021 36.2543 56.0623L36.2276 55.9284C36.0401 54.8973 35.7321 54.0672 35.2635 53.3843C35.1296 53.1835 35.0359 52.9692 34.9957 52.755C34.902 52.2596 35.0493 51.7641 35.3706 51.3758C35.692 51.0143 36.1338 50.8135 36.6292 50.8135H36.7096C37.272 50.8403 37.7942 51.175 38.062 51.6704C38.2628 52.0453 38.303 52.4604 38.2092 52.8621C38.0084 53.6655 37.995 54.5626 38.1825 55.5802L38.3297 56.4238C38.5172 57.4816 39.0126 58.4858 39.8562 59.49C40.1507 59.8382 40.4721 60.4273 40.3516 61.2709C40.2445 62.0073 39.7357 62.6768 39.026 62.958C38.3565 63.2391 37.6335 63.199 37.0309 62.8642C36.415 62.5429 36.0133 61.9671 35.8928 61.2976ZM39.6687 77.1377C39.0662 76.803 38.6645 76.2406 38.544 75.5711C38.477 75.1694 38.5038 74.7811 38.6511 74.4196C39.093 73.2413 39.1733 71.8755 38.9055 70.3357L38.8787 70.2018C38.6913 69.1708 38.3833 68.3406 37.9147 67.6578C37.7808 67.4569 37.687 67.2427 37.6469 67.0284C37.5531 66.533 37.7004 66.0376 38.0352 65.6493C38.3699 65.2744 38.8386 65.1003 39.3741 65.0869C39.9365 65.1137 40.4587 65.4485 40.7265 65.9439C40.9274 66.3188 40.9675 66.7339 40.8604 67.1222C40.6596 67.9256 40.6462 68.8227 40.8336 69.8403L40.9809 70.6838C41.1684 71.7416 41.6638 72.7459 42.5073 73.7501C42.8019 74.0982 43.1233 74.6874 43.0028 75.5309C42.8956 76.2808 42.3868 76.9369 41.6772 77.218C40.9943 77.4992 40.2846 77.4724 39.6687 77.1377Z" fill="black"/>
<path d="M101.73 55.2186C101.476 54.2277 100.793 53.411 99.8422 52.9691C98.7711 52.4737 97.499 52.6076 96.5216 53.3038C95.8387 53.7993 95.3701 54.5089 95.196 55.3123C95.0889 55.7675 94.8479 56.2496 94.4596 56.7718L94.0043 57.3877C93.6294 57.8831 93.0804 58.2848 92.3306 58.6062C91.2996 59.048 90.5364 59.8782 90.1748 60.9494C90.0276 61.3645 90.0008 61.8063 90.0008 62.2482C89.2911 62.1946 88.5815 62.3285 87.9388 62.7034C87.1488 63.1587 86.5596 63.8817 86.2918 64.7253C86.1177 65.2341 85.783 65.7563 85.2742 66.3187L84.6984 66.948C84.2164 67.4702 83.5469 67.8719 82.6364 68.1531C81.4715 68.5146 80.561 69.3447 80.0522 70.4695C79.7041 71.2327 79.6371 72.0762 79.771 72.893C77.6287 72.8395 76.7851 74.4864 76.196 75.6513C75.9148 76.2137 75.6336 76.7359 75.2988 77.0438C72.1656 78.4096 70.184 80.5921 69.9563 82.8952C69.8358 84.2475 70.3848 85.4794 71.4292 86.1756C72.0585 86.5907 72.795 86.805 73.6251 86.805C74.6294 86.805 75.7541 86.497 76.9056 85.8945C77.1734 85.7606 77.3609 85.5062 77.4144 85.225C77.8831 83.0558 79.4229 81.6499 80.7886 80.4047C82.0607 79.2398 83.2791 78.1418 83.3327 76.602C83.3327 76.535 83.3193 76.4681 83.3193 76.4011C83.4398 76.4145 83.5603 76.4547 83.6808 76.4681C83.7745 76.4681 83.8683 76.4815 83.962 76.4815C85.1537 76.4815 86.2784 75.986 87.0818 75.1157C87.5906 74.5533 87.9521 73.8839 88.0994 73.1474C88.2869 72.2771 88.7957 71.3934 89.5991 70.5096L89.6794 70.4159C90.1882 69.8535 90.6836 69.4786 91.1925 69.2644C91.6745 69.0502 92.0896 68.7556 92.4243 68.3941C93.0135 67.7514 93.3482 66.9346 93.375 66.0776C93.5491 66.1044 93.7097 66.1312 93.8838 66.1312H94.0177C95.2094 66.091 96.2939 65.5287 97.0036 64.578C97.4187 64.0156 97.6865 63.3729 97.7534 62.69C97.8472 61.9134 98.2087 61.0967 98.905 60.1728C99.3066 59.6506 99.6949 59.2757 100.11 59.048C100.525 58.8204 100.887 58.499 101.168 58.1241C101.784 57.2538 101.985 56.2094 101.73 55.2186ZM79.4229 78.905C78.0036 80.2038 76.2629 81.7972 75.5532 84.3011C74.308 84.8768 73.1833 84.9572 72.5138 84.5019C72.0719 84.2073 71.8711 83.6985 71.9246 83.0692C72.0451 81.8374 73.2234 80.0833 76.1826 78.8247C76.2629 78.7979 76.3299 78.7443 76.3968 78.7042C77.1466 78.1284 77.5751 77.2982 77.95 76.5618C78.4856 75.5174 78.807 74.8881 79.6773 74.8881C79.9183 74.8881 80.2129 74.9416 80.561 75.0354C81.0698 75.6111 81.3242 76.1066 81.3108 76.4949C81.2841 77.2045 80.4137 77.9945 79.4229 78.905ZM90.9381 66.9881C90.7908 67.1488 90.5899 67.2827 90.3757 67.3764C89.6125 67.6978 88.9028 68.2334 88.1932 69.01L88.1128 69.1037C87.055 70.2552 86.3989 71.4469 86.1311 72.6788C86.0508 73.0671 85.8633 73.4018 85.5955 73.7098C85.1403 74.2052 84.4842 74.4596 83.8013 74.4328C83.1051 74.3927 82.4891 74.0311 82.0607 73.442C81.6188 72.8261 81.5385 71.9825 81.8598 71.2996C82.2079 70.5364 82.7971 70.2017 83.2256 70.0678C84.4708 69.6661 85.4349 69.0903 86.1579 68.3003L86.7337 67.671C87.4433 66.9078 87.912 66.1446 88.1798 65.3546C88.3003 64.9663 88.5681 64.6583 88.9296 64.4441C89.184 64.2968 89.4652 64.2299 89.7464 64.2299C90.0276 64.2299 90.3087 64.2968 90.5364 64.4441C90.9916 64.7119 91.2862 65.127 91.3665 65.6358C91.4335 66.1178 91.2728 66.6132 90.9381 66.9881ZM99.5477 56.8789C99.4405 57.0262 99.2933 57.1467 99.1192 57.2404C98.4631 57.6019 97.8605 58.1509 97.2178 59.0079C96.3743 60.1326 95.8789 61.2841 95.745 62.4089C95.7048 62.7436 95.5843 63.0382 95.3834 63.3194C95.0353 63.7746 94.5131 64.0558 93.9374 64.0692C93.3214 64.1094 92.7992 63.8416 92.3841 63.3729C91.9691 62.8909 91.8352 62.1946 92.036 61.5921C92.2636 60.9092 92.7323 60.5879 93.0804 60.4406C94.165 59.9719 94.9818 59.3694 95.5709 58.5794L96.0262 57.9635C96.6019 57.2002 96.95 56.4772 97.1241 55.7274C97.1911 55.406 97.3919 55.1114 97.6597 54.9106C97.8873 54.7499 98.1685 54.6696 98.4497 54.6696C98.6372 54.6696 98.8112 54.7098 98.9853 54.7767C99.387 54.9642 99.6682 55.2855 99.7619 55.6872C99.8958 56.1157 99.8021 56.5308 99.5477 56.8789Z" fill="black"/>
<path d="M64.4261 83.1895C63.288 82.9083 62.2436 83.0288 61.3732 83.4707C61.2661 82.9083 61.0921 82.3995 60.7707 81.971C59.3246 80.0027 55.0265 79.842 53.7545 79.842C52.5494 79.842 48.6664 80.0027 47.0194 81.6764C45.8411 80.2036 44.3683 80.2303 43.6854 80.3375C41.4761 80.7258 39.4676 83.0957 39.3739 85.4256C39.3337 86.2825 39.5747 88.2106 41.9983 89.2416C40.5388 91.6652 39.9764 95.1867 41.4359 97.3692C41.9447 98.1324 42.9757 99.1233 44.9306 99.1233C45.6403 99.1233 46.4571 98.9894 47.4211 98.668C47.9567 100.623 49.2421 101.667 50.2865 102.19C51.3711 102.738 52.6431 102.993 53.9955 102.993C57.8919 102.993 62.3641 100.891 64.3056 97.6906C64.6136 97.1818 64.9885 96.4051 65.1625 95.4411C69.7954 94.5038 70.6122 91.9999 70.6657 90.5672C70.7862 87.3001 67.412 83.9125 64.4261 83.1895ZM48.345 83.1761C48.8137 82.5468 50.8623 81.8639 53.7411 81.8639C56.6199 81.8639 58.6819 82.5334 59.1372 83.1761C59.8602 84.1535 59.4049 86.8583 58.0794 89.4827C56.7806 92.0535 54.9997 93.8477 53.7545 93.8477C52.4958 93.8477 50.7016 92.0401 49.4028 89.4559C48.0906 86.8315 47.6354 84.1401 48.345 83.1761ZM41.3824 85.5193C41.4359 84.1401 42.7481 82.5602 44.0335 82.3325C44.8637 82.1986 45.5198 82.7074 45.9884 83.859C46.0018 83.8991 46.042 83.9259 46.0554 83.9661C45.975 84.7427 46.0554 85.5996 46.2428 86.47C45.2386 86.4164 44.2344 86.8047 43.3373 87.5947C42.0117 87.2198 41.3422 86.5235 41.3824 85.5193ZM43.0962 96.2712C42.0117 94.6511 42.7079 91.076 44.4486 89.2952C45.5332 88.1838 46.4303 88.4516 46.8989 88.706C47.1132 89.2818 47.3542 89.8442 47.6086 90.353C47.7559 90.6476 47.9969 91.076 48.3049 91.5848C47.5149 93.6067 47.1801 95.2804 47.1667 96.6462C45.7206 97.1818 43.9264 97.5031 43.0962 96.2712ZM62.5917 96.6595C60.5297 100.061 54.4507 102.069 51.197 100.422C48.6798 99.15 48.9877 96.0302 49.7376 93.5665C50.8087 94.785 52.1879 95.8562 53.7545 95.8562C56.8743 95.8562 59.2309 91.6786 59.8736 90.3932C60.0075 90.1254 60.1414 89.8308 60.2753 89.5362C62.4578 91.3037 64.3056 93.8343 62.5917 96.6595ZM65.1759 93.4058C64.8947 91.6786 63.7834 89.6433 60.9983 87.5545C61.1188 87.1662 61.2126 86.7779 61.2795 86.3896C61.2929 86.3762 61.3063 86.3628 61.3063 86.3495C61.8285 85.2381 62.6988 84.8498 63.9441 85.1578C66.3007 85.7335 68.7242 88.4784 68.6439 90.5137C68.5903 92.174 66.8898 92.9908 65.1759 93.4058Z" fill="black"/>
<rect x="1.5" y="1" width="118" height="118" rx="7" stroke="black" stroke-width="2"/>
<line x1="110.5" y1="59" x2="120.5" y2="59" stroke="black" stroke-width="2"/>
<line x1="0.5" y1="59" x2="10.5" y2="59" stroke="black" stroke-width="2"/>
<line x1="61.5049" y1="110.005" x2="61.5049" y2="120.005" stroke="black" stroke-width="2"/>
<line x1="61.5049" y1="0.00488286" x2="61.5049" y2="10.0049" stroke="black" stroke-width="2"/>
</g>
<defs>
<clipPath id="clip0_291_1966">
<rect width="120" height="120" fill="white" transform="translate(0.5)"/>
</clipPath>
</defs>
</svg>
