<svg width="120" height="120" viewBox="0 0 120 120" fill="none" xmlns="http://www.w3.org/2000/svg">
<path d="M91.7063 93.7499C91.4663 93.7499 91.2263 93.658 91.0425 93.4761C90.6769 93.1105 90.6769 92.5161 91.0425 92.1505L100.586 82.6067C100.952 82.2411 101.546 82.2411 101.912 82.6067C102.278 82.9724 102.278 83.5667 101.912 83.9324L92.3682 93.4761C92.1863 93.658 91.9463 93.7499 91.7063 93.7499Z" fill="black"/>
<path d="M79.7738 93.7502C79.5338 93.7502 79.2938 93.6584 79.11 93.4765C78.7444 93.1109 78.7444 92.5165 79.11 92.1509L100.586 70.6746C100.952 70.309 101.546 70.309 101.912 70.6746C102.278 71.0402 102.278 71.6346 101.912 72.0002L80.4357 93.4765C80.2538 93.6584 80.0138 93.7502 79.7738 93.7502Z" fill="black"/>
<path d="M78.75 47.0438C78.51 47.0438 78.27 46.9519 78.0862 46.7701C77.7206 46.4044 77.7206 45.8101 78.0862 45.4444L87.63 35.9007C87.9956 35.5351 88.59 35.5351 88.9556 35.9007C89.3212 36.2663 89.3212 36.8607 88.9556 37.2263L79.4119 46.7701C79.23 46.9538 78.99 47.0438 78.75 47.0438Z" fill="black"/>
<path d="M78.75 58.9763C78.51 58.9763 78.27 58.8844 78.0862 58.7026C77.7206 58.3369 77.7206 57.7426 78.0862 57.3769L99.5625 35.9007C99.9281 35.5351 100.522 35.5351 100.888 35.9007C101.254 36.2663 101.254 36.8607 100.888 37.2263L79.4137 58.7026C79.23 58.8844 78.99 58.9763 78.75 58.9763Z" fill="black"/>
<path d="M78.75 70.9088C78.51 70.9088 78.27 70.8169 78.0862 70.635C77.7206 70.2694 77.7206 69.675 78.0862 69.3094L100.586 46.8094C100.952 46.4438 101.546 46.4438 101.912 46.8094C102.277 47.175 102.277 47.7694 101.912 48.135L79.4119 70.635C79.23 70.8169 78.99 70.9088 78.75 70.9088Z" fill="black"/>
<path d="M78.75 82.8409C78.51 82.8409 78.27 82.749 78.0862 82.5671C77.7206 82.2015 77.7206 81.6071 78.0862 81.2415L100.586 58.7415C100.952 58.3759 101.546 58.3759 101.912 58.7415C102.277 59.1071 102.277 59.7015 101.912 60.0671L79.4119 82.5671C79.23 82.749 78.99 82.8409 78.75 82.8409Z" fill="black"/>
<path d="M65.038 46.7607H54.9636C54.4461 46.7607 54.0261 46.3407 54.0261 45.8232C54.0261 45.3057 54.4461 44.8857 54.9636 44.8857H65.038C65.5555 44.8857 65.9755 45.3057 65.9755 45.8232C65.9755 46.3407 65.5555 46.7607 65.038 46.7607Z" fill="black"/>
<path d="M30 69.3755C29.76 69.3755 29.52 69.2837 29.3363 69.1018L22.9706 62.738C22.605 62.3724 22.605 61.778 22.9706 61.4124C23.3363 61.0468 23.9306 61.0468 24.2963 61.4124L30.6619 67.7762C31.0275 68.1418 31.0275 68.7362 30.6619 69.1018C30.48 69.2837 30.24 69.3755 30 69.3755Z" fill="black"/>
<path d="M30 69.3755C29.76 69.3755 29.52 69.2837 29.3362 69.1018C28.9706 68.7362 28.9706 68.1418 29.3362 67.7762L35.7019 61.4124C36.0675 61.0468 36.6619 61.0468 37.0275 61.4124C37.3931 61.778 37.3931 62.3724 37.0275 62.738L30.6619 69.1018C30.48 69.2837 30.24 69.3755 30 69.3755Z" fill="black"/>
<path d="M30 69.375C29.4825 69.375 29.0625 68.955 29.0625 68.4375V53.4375C29.0625 52.92 29.4825 52.5 30 52.5C30.5175 52.5 30.9375 52.92 30.9375 53.4375V68.4375C30.9375 68.955 30.5175 69.375 30 69.375Z" fill="black"/>
<path d="M83.6344 23.2388C83.3944 23.2388 83.1544 23.1469 82.9706 22.9651C82.605 22.5994 82.605 22.0051 82.9706 21.6394L89.3363 15.2757C89.7019 14.9101 90.2963 14.9101 90.6619 15.2757C91.0275 15.6413 91.0275 16.2357 90.6619 16.6013L84.2963 22.9651C84.1144 23.1469 83.8744 23.2388 83.6344 23.2388Z" fill="black"/>
<path d="M96.3656 23.2388C96.1256 23.2388 95.8856 23.1469 95.7019 22.9651L89.3362 16.6013C88.9706 16.2357 88.9706 15.6413 89.3362 15.2757C89.7019 14.9101 90.2962 14.9101 90.6619 15.2757L97.0275 21.6394C97.3931 22.0051 97.3931 22.5994 97.0275 22.9651C96.8437 23.1469 96.6037 23.2388 96.3656 23.2388Z" fill="black"/>
<path d="M90 31.875C89.4825 31.875 89.0625 31.455 89.0625 30.9375V15.9375C89.0625 15.42 89.4825 15 90 15C90.5175 15 90.9375 15.42 90.9375 15.9375V30.9375C90.9375 31.455 90.5175 31.875 90 31.875Z" fill="black"/>
<path d="M101.25 93.75H78.75C78.2325 93.75 77.8125 93.33 77.8125 92.8125V36.5625C77.8125 36.045 78.2325 35.625 78.75 35.625H101.25C101.767 35.625 102.188 36.045 102.188 36.5625V92.8125C102.188 93.33 101.767 93.75 101.25 93.75ZM79.6875 91.875H100.312V37.5H79.6875V91.875Z" fill="black"/>
<path d="M41.25 93.75H18.75C18.2325 93.75 17.8125 93.33 17.8125 92.8125V74.0625C17.8125 73.545 18.2325 73.125 18.75 73.125H41.25C41.7675 73.125 42.1875 73.545 42.1875 74.0625V92.8125C42.1875 93.33 41.7675 93.75 41.25 93.75ZM19.6875 91.875H40.3125V75H19.6875V91.875Z" fill="black"/>
<path d="M71.25 93.75H48.75C48.2325 93.75 47.8125 93.33 47.8125 92.8125V55.3125C47.8125 54.795 48.2325 54.375 48.75 54.375H71.25C71.7675 54.375 72.1875 54.795 72.1875 55.3125V92.8125C72.1875 93.33 71.7675 93.75 71.25 93.75ZM49.6875 91.875H70.3125V56.25H49.6875V91.875Z" fill="black"/>
<path d="M108.75 105H11.25C10.7325 105 10.3125 104.58 10.3125 104.062V98.4375C10.3125 97.92 10.7325 97.5 11.25 97.5H108.75C109.268 97.5 109.688 97.92 109.688 98.4375V104.062C109.688 104.58 109.268 105 108.75 105ZM12.1875 103.125H107.812V99.375H12.1875V103.125Z" fill="black"/>
</svg>
