<svg width="120" height="120" viewBox="0 0 120 120" fill="none" xmlns="http://www.w3.org/2000/svg">
<path d="M62.0391 111.68C61.5 111.68 61.0547 111.234 61.0547 110.695V99.1172C61.0547 94.7109 63.2578 90.9141 67.0781 88.7578L67.2656 88.6641C67.4062 88.5703 67.5469 88.5 67.7109 88.4297C72.4688 85.875 77.2969 83.8359 80.5313 82.5234L80.9531 82.3594V77.6953L80.625 77.5078C76.8516 75.2109 74.625 71.2031 74.625 66.8203V65.5312H73.8047C70.6875 65.5312 68.1328 63 68.1328 59.8594C68.1328 56.7188 70.6641 54.2109 73.8047 54.2109H74.625V50.4609C74.625 43.5469 80.25 37.9219 87.1406 37.9219H93.2344C100.148 37.9219 105.773 43.5469 105.773 50.4609V54.2109H106.594C109.711 54.2109 112.242 56.7422 112.242 59.8594C112.242 62.9766 109.711 65.5312 106.594 65.5312H105.773V66.8203C105.773 71.2031 103.523 75.2109 99.7734 77.5078L99.4453 77.6953V82.3594L99.8672 82.5234C103.078 83.8125 107.906 85.8516 112.688 88.4297C112.781 88.4766 113.109 88.6641 113.109 88.6641L113.273 88.7578C117.117 90.9375 119.32 94.7344 119.32 99.1406V110.719C119.32 111.258 118.875 111.703 118.336 111.703H62.0156L62.0391 111.68ZM105.445 96.7734C105.984 96.7734 106.43 97.2188 106.43 97.7578V109.734H117.375V99.1406C117.375 95.4609 115.547 92.2969 112.336 90.4688L112.148 90.375C112.008 90.3047 111.891 90.2344 111.75 90.1641C107.273 87.7734 102.797 85.8516 99.7969 84.6328L99.2109 84.3984L98.9531 84.9844C98.2266 86.5547 96.8672 87.5391 95.3672 87.5391H85.0312C83.5547 87.5391 82.1719 86.5547 81.4453 84.9844L81.1875 84.3984L80.6016 84.6328C75.8672 86.5781 72.0703 88.3359 68.6484 90.1641H68.625C68.5078 90.2344 68.3906 90.3047 68.2734 90.375L68.0859 90.4922C64.875 92.3203 63.0469 95.4609 63.0469 99.1641V109.758H74.0156V97.7812C74.0156 97.2422 74.4609 96.7969 75 96.7969C75.5391 96.7969 75.9844 97.2422 75.9844 97.7812V109.758H104.531V97.7812C104.531 97.2422 104.977 96.7969 105.516 96.7969L105.445 96.7734ZM82.9219 83.0391C83.0859 84.4453 84 85.5234 85.0312 85.5234H95.3672C96.3984 85.5234 97.3125 84.4219 97.4766 83.0156V82.9688C97.4766 82.9688 97.4766 82.9453 97.4766 82.9219V82.8281C97.4766 82.7578 97.4766 82.6875 97.4766 82.6172V78.6328L96.6328 78.8672C95.5312 79.1719 94.3828 79.3359 93.2344 79.3359H87.1406C85.9922 79.3359 84.8438 79.1719 83.7422 78.8672L82.8984 78.6328V82.6172C82.8984 82.6875 82.8984 82.7344 82.8984 82.8047V82.8516C82.875 82.8516 82.8984 83.0625 82.8984 83.0625L82.9219 83.0391ZM82.6406 76.3594C84.0469 77.0391 85.5703 77.3672 87.1406 77.3672H93.2344C94.8281 77.3672 96.3516 77.0156 97.7813 76.3359H97.9453L98.0625 76.1953H98.1094C98.1094 76.1719 98.1328 76.1484 98.1328 76.1484C101.625 74.3203 103.805 70.7109 103.805 66.7734V50.4141C103.805 44.5781 99.0703 39.8438 93.2344 39.8438H87.1406C81.3047 39.8438 76.5703 44.5781 76.5703 50.4141V66.7734C76.5703 70.6875 78.7031 74.25 82.1484 76.1016L82.2656 76.2188H82.3594L82.3828 76.2422H82.4063L82.5 76.3359H82.6172L82.6406 76.3594ZM105.773 63.5625H106.594C108.633 63.5625 110.297 61.8984 110.297 59.8594C110.297 57.8203 108.633 56.1562 106.594 56.1562H105.773V63.5625ZM73.8047 56.1562C71.7656 56.1562 70.1016 57.8203 70.1016 59.8594C70.1016 61.8984 71.7656 63.5625 73.8047 63.5625H74.625V56.1562H73.8047ZM1.64062 111.68C1.10156 111.68 0.65625 111.234 0.65625 110.695V102.375C0.65625 101.836 1.10156 101.391 1.64062 101.391H8.69531V90.7969C8.69531 86.4141 10.875 82.6406 14.6719 80.4609L14.7422 80.4141L14.9062 80.3203C15.0469 80.25 15.1875 80.1562 15.3281 80.0859C17.1797 79.1016 19.125 78.1406 21.2812 77.1328C22.2656 76.6875 23.2969 76.2188 24.2812 75.7969C25.0312 75.4688 25.7344 75.1641 26.4375 74.8828L26.6953 74.7656L28.0547 71.1797L27.6328 70.875C23.5078 67.9688 20.6484 63.5156 19.5703 58.2891L19.5 57.9375L19.1484 57.8203C17.1094 57.0469 15.7266 54.9844 15.7266 52.6875C15.7266 50.3906 16.2188 50.0156 17.0859 49.0078L17.25 48.8203V44.9766C17.25 38.8594 20.1797 33.7031 25.6875 30.0937C30.0703 27.2109 35.9531 25.5 41.4375 25.5C46.9219 25.5 51.75 27.7734 51.75 31.3125V32.5078H52.4766C55.6172 32.5078 58.1719 35.0625 58.1719 38.2031V48.6562L58.3594 48.8672C59.3203 49.875 59.8594 51.2578 59.8594 52.7109C59.8594 55.0078 58.4766 57.0703 56.4375 57.8438L56.0859 57.9844L56.0156 58.3359C54.9609 63.4922 52.1484 67.8984 48.1172 70.8047H48.0469L47.5547 71.2969L48.8672 74.8125L49.125 74.9297C49.7812 75.2109 50.4141 75.4688 51.0469 75.75C52.1953 76.2422 53.2969 76.7344 54.3047 77.2031C56.4375 78.1875 58.3828 79.1484 60.2578 80.1328C60.4219 80.2031 60.5391 80.2969 60.6797 80.3672L60.8672 80.4844C62.5547 81.4453 63.9375 82.7109 64.9688 84.2578C65.2734 84.7031 65.1563 85.3125 64.7109 85.6172C64.5469 85.7344 64.3594 85.7812 64.1719 85.7812C63.8438 85.7812 63.5391 85.6172 63.3516 85.3594C62.4844 84.0703 61.3359 83.0156 59.9297 82.1953L59.6719 82.0547C59.5781 82.0078 59.4844 81.9609 59.3906 81.9141H59.3672C57.9609 81.1406 56.5078 80.4141 54.8906 79.6406L53.9297 79.1953V85.5703L54.4219 85.7109C56.2969 86.2031 58.2891 87.7969 58.2891 90.8203V94.2891C58.2891 94.8281 57.8438 95.2734 57.3047 95.2734C56.7656 95.2734 56.3203 94.8281 56.3203 94.2891V90.8203C56.3203 88.5234 54.6328 87.4922 52.9688 87.4688H52.9219C51.2578 87.4688 49.5703 88.5234 49.5703 90.8203V94.2891C49.5703 94.8281 49.125 95.2734 48.5859 95.2734C48.0469 95.2734 47.6016 94.8281 47.6016 94.2891V90.8203C47.6016 88.2422 49.0312 86.3438 51.4453 85.7109L51.9375 85.5703V78.3281L51.5391 78.1641C50.7422 77.8125 49.875 77.4375 48.8906 77.0156L48.7969 76.8984H48.2344L38.4609 86.9062C38.2734 87.0938 38.0156 87.2109 37.7578 87.2109C37.5 87.2109 37.2422 87.0938 37.0547 86.9062L27.1641 76.7812L26.7422 76.9453C25.7812 77.3438 24.8437 77.7422 23.9531 78.1406L23.5547 78.3047V86.7891L24 86.9531C25.6406 87.5391 26.7422 89.1328 26.7422 90.8672C26.7422 92.6016 24.8672 95.0156 22.5938 95.0156C20.3203 95.0156 18.4219 93.1406 18.4219 90.8672C18.4219 88.5938 19.5234 87.5391 21.1641 86.9531L21.6094 86.7891V79.1953L20.6719 79.6406C19.0781 80.3906 17.625 81.1406 16.1953 81.8906C16.1016 81.9375 16.0078 81.9844 15.9141 82.0312L15.6094 82.1953C12.3984 84.0234 10.5703 87.1875 10.5703 90.8672V101.461H56.6016C57.1406 101.461 57.5859 101.906 57.5859 102.445C57.5859 102.984 57.1406 103.43 56.6016 103.43H2.625V109.805H56.2031C56.7422 109.805 57.1875 110.25 57.1875 110.789C57.1875 111.328 56.7422 111.773 56.2031 111.773H1.64062V111.68ZM22.6641 88.5938C21.4453 88.5938 20.4609 89.5781 20.4609 90.7969C20.4609 92.0156 21.4453 93 22.6641 93C23.8828 93 24.8672 92.0156 24.8672 90.7969C24.8672 89.5781 23.8828 88.5938 22.6641 88.5938ZM28.6172 75.3047L37.8281 84.7266L47.0391 75.3047L45.8672 72.2109L45.2109 72.5156C42.8672 73.5938 40.3828 74.1562 37.8281 74.1562C35.2734 74.1562 32.7656 73.5938 30.4219 72.5156L29.7656 72.2109L28.5938 75.3047H28.6172ZM29.8828 70.0078L29.9531 70.0547C32.3672 71.4609 35.0859 72.1875 37.8281 72.1875C40.5703 72.1875 43.2891 71.4609 45.6797 70.0547H45.7031L45.75 70.0078L45.7969 69.9609C45.7969 69.9609 45.8203 69.9609 45.8438 69.9375H45.8672L46.0312 69.8203C50.4375 67.1016 53.4609 62.4141 54.3281 56.9531C54.3984 56.5312 54.7266 56.2031 55.1484 56.1328C56.7422 55.9219 57.9375 54.4219 57.9375 52.6641C57.9375 50.9062 57.4688 50.5547 56.6719 49.875L56.5781 49.8047H56.5547C56.5547 49.7812 56.5312 49.7578 56.5312 49.7578C56.0156 49.3594 55.3828 49.1484 54.7266 49.1484C54.0703 49.1484 53.4375 49.3594 52.8984 49.7812C52.7344 49.9219 52.5234 49.9922 52.3125 49.9922C52.1016 49.9922 52.1016 49.9922 51.9844 49.9453C51.6797 49.8281 51.4453 49.5703 51.3516 49.2656L49.7578 42.8438C49.3828 41.2969 48.0234 40.2188 46.4297 40.2188C44.8359 40.2188 46.0781 40.2188 45.9141 40.2656L37.2422 41.5312C37.1953 41.5312 37.1719 41.5312 37.125 41.5312L29.2969 41.7656C26.5078 41.8359 24.2344 44.1797 24.2344 46.9688V49.0312C24.2344 49.4062 24.0234 49.7344 23.6953 49.8984C23.5547 49.9688 23.4141 49.9922 23.2734 49.9922C23.0625 49.9922 22.8516 49.9219 22.6875 49.7812C22.1484 49.3594 21.5156 49.1484 20.8594 49.1484C20.2031 49.1484 19.4766 49.4062 18.9141 49.875L18.8203 49.9688H18.7969C18.0703 50.6484 17.6719 51.6328 17.6719 52.6641C17.6719 54.4219 18.8672 55.8984 20.4609 56.1328C20.8828 56.1797 21.2344 56.5312 21.3047 56.9531C22.1484 62.2969 25.0312 66.8906 29.25 69.6094V69.9141H29.6484H29.7656C29.7891 69.9141 29.8125 69.9375 29.8359 69.9609H29.8594L29.8828 70.0078ZM46.4766 38.2734C48.9609 38.2734 51.0938 39.9609 51.7031 42.375L52.9688 47.5078L53.6016 47.3672C53.9766 47.2734 54.3516 47.2266 54.75 47.2266C55.1484 47.2266 55.2188 47.2266 55.4297 47.2734H55.4766H56.25V38.1562C56.25 36.0938 54.5625 34.4062 52.5 34.4062H50.7891C50.25 34.4062 49.8047 33.9609 49.8047 33.4219V31.2656C49.8047 28.9687 46.4531 27.4219 41.4375 27.4219C36.4219 27.4219 30.8203 29.0156 26.7422 31.6875C23.2969 33.9609 19.1719 38.0859 19.1719 44.9531V47.4375L19.9687 47.2969C20.2734 47.25 20.5547 47.2031 20.8594 47.2031C21.1641 47.2031 21.3281 47.2031 21.5391 47.25L22.2656 47.3672V46.6406C22.4531 42.8438 25.4531 39.9141 29.25 39.8203L37.0078 39.5859L45.6328 38.3203C45.8906 38.2734 46.1719 38.25 46.4297 38.25L46.4766 38.2734ZM37.8281 66.1406C36.0469 66.1406 34.3125 65.2266 32.9531 63.5625C32.7891 63.3516 32.7188 63.1172 32.7422 62.8594C32.7656 62.6016 32.8828 62.3672 33.0938 62.2031C33.2812 62.0625 33.4922 61.9688 33.7266 61.9688C33.9609 61.9688 34.2891 62.1094 34.4766 62.3203C35.1797 63.1641 36.3516 64.1953 37.8516 64.1953C39.3516 64.1953 40.5234 63.1875 41.2266 62.3203C41.4141 62.0859 41.6953 61.9688 41.9766 61.9688C42.2578 61.9688 42.4219 62.0391 42.6094 62.2031C42.8203 62.3672 42.9375 62.6016 42.9609 62.8594C42.9844 63.1172 42.9141 63.375 42.75 63.5625C41.3672 65.2266 39.6328 66.1406 37.875 66.1406H37.8281ZM48.2109 55.3828C47.6719 55.3828 47.2266 54.9375 47.2266 54.3984C47.2266 53.4609 46.4531 52.6875 45.5156 52.6875C44.5781 52.6875 43.8047 53.4609 43.8047 54.3984C43.8047 55.3359 43.3594 55.3828 42.8203 55.3828C42.2812 55.3828 41.8359 54.9375 41.8359 54.3984C41.8359 52.3828 43.4766 50.7422 45.4922 50.7422C47.5078 50.7422 49.1484 52.3828 49.1484 54.3984C49.1484 56.4141 48.7031 55.3828 48.1641 55.3828H48.2109ZM32.8359 55.3828C32.2969 55.3828 31.8516 54.9375 31.8516 54.3984C31.8516 53.4609 31.0781 52.6875 30.1406 52.6875C29.2031 52.6875 28.4297 53.4609 28.4297 54.3984C28.4297 55.3359 27.9844 55.3828 27.4453 55.3828C26.9062 55.3828 26.4609 54.9375 26.4609 54.3984C26.4609 52.3828 28.1016 50.7422 30.1172 50.7422C32.1328 50.7422 33.7734 52.3828 33.7734 54.3984C33.7734 56.4141 33.3281 55.3828 32.7891 55.3828H32.8359ZM77.4609 36.0234C77.2031 36.0234 76.9453 35.9297 76.7813 35.7422L69.6094 28.5703H63.4922C61.3594 28.5703 59.625 26.8359 59.625 24.6797V12.2109C59.625 10.0781 61.3594 8.32031 63.4922 8.32031H101.203C103.336 8.32031 105.07 10.0547 105.07 12.2109V24.6797C105.07 26.8125 103.336 28.5703 101.203 28.5703H78.4453V35.0625C78.4453 35.4609 78.2109 35.8125 77.8359 35.9766C77.7188 36.0234 77.5781 36.0469 77.4609 36.0469V36.0234ZM63.4922 10.2891C62.4375 10.2891 61.5703 11.1562 61.5703 12.2109V24.6797C61.5703 25.7344 62.4609 26.6016 63.4922 26.6016H70.0078C70.2656 26.6016 70.5234 26.6953 70.6875 26.8828L76.5 32.6719V27.5625C76.5 27.0234 76.9453 26.5781 77.4844 26.5781H101.203C102.234 26.5781 103.125 25.6875 103.125 24.6562V12.1875C103.125 11.1328 102.258 10.2656 101.203 10.2656H63.4922V10.2891ZM91.5 19.4297C91.2422 19.4297 90.9844 19.3359 90.8203 19.1484C90.6328 18.9609 90.5391 18.7266 90.5391 18.4688C90.5391 17.9297 90.9844 17.4844 91.5234 17.4844H93.8438C94.3828 17.4844 94.8281 17.9297 94.8281 18.4688C94.8281 19.0078 94.3828 19.4531 93.8438 19.4531H91.5234L91.5 19.4297ZM81.1875 19.4297C80.9297 19.4297 80.6719 19.3359 80.5078 19.1484C80.3203 18.9609 80.2266 18.7266 80.2266 18.4688C80.2266 17.9297 80.6719 17.4844 81.2109 17.4844H83.5312C84.0703 17.4844 84.5156 17.9297 84.5156 18.4688C84.5156 19.0078 84.0703 19.4531 83.5312 19.4531H81.2109L81.1875 19.4297ZM70.8516 19.4297C70.5938 19.4297 70.3359 19.3359 70.1719 19.1484C69.9844 18.9609 69.8906 18.7266 69.8906 18.4688C69.8906 17.9297 70.3359 17.4844 70.875 17.4844H73.1953C73.7344 17.4844 74.1797 17.9297 74.1797 18.4688C74.1797 19.0078 73.7344 19.4531 73.1953 19.4531H70.875L70.8516 19.4297Z" fill="black"/>
</svg>
