<svg width="226" height="46" viewBox="0 0 226 46" fill="none" xmlns="http://www.w3.org/2000/svg">
<g clip-path="url(#clip0_87_134)">
<path d="M21.8498 5.8414C21.5556 5.81843 21.2659 5.91494 21.0498 6.11256C20.8337 6.31018 20.7095 6.59053 20.7095 6.88467V13.8658H11.4031C10.8238 13.8658 10.3502 14.3346 10.3502 14.9182V23.1586H1.05295C0.473597 23.1586 0 23.6274 0 24.2111V34.561C0 35.14 0.468999 35.6134 1.05295 35.6134H10.6674V44.9568C10.6674 45.5359 11.1364 46.0093 11.7204 46.0093H22.0751C22.6545 46.0093 23.1281 45.5405 23.1281 44.9568V36.0914C23.1787 36.1925 23.2338 36.2936 23.289 36.3947C23.4683 36.7118 26.0294 40.3839 27.6342 40.6045C28.4848 40.724 30.1815 40.5356 30.5171 40.4942C30.9953 40.4391 31.3724 40.0668 31.4367 39.5888L31.7126 37.5299C31.7356 37.3736 31.7172 37.2128 31.6666 37.0611C31.6161 36.9048 31.5241 36.6797 31.3999 36.5004C31.0781 36.05 30.6367 35.6364 30.2045 35.2365C29.855 34.9148 29.4964 34.5793 29.2573 34.2714C28.2457 32.957 28.1721 31.7896 29.0595 31.0635C29.901 30.3741 31.4045 30.3098 32.3563 31.4082C32.3655 31.422 32.3793 31.4312 32.3885 31.445C32.3793 31.4863 32.3701 31.5323 32.3609 31.5691C32.292 31.8448 32.2322 32.1068 32.2138 32.3412C32.0805 34.1565 32.108 37.3736 33.7955 38.564C34.0806 38.7662 34.476 38.9914 35.014 38.9592C35.2347 38.9454 35.5704 38.904 35.9428 38.6605C38.9453 36.7256 37.9659 33.0259 37.6441 31.808C37.5659 31.5047 37.4556 31.2519 37.3636 31.0497C37.3314 30.9762 37.2946 30.8889 37.267 30.8199C37.2762 30.8107 37.29 30.7969 37.3084 30.7832C37.8004 30.3282 38.6189 30.1397 39.3361 30.3098C39.7316 30.4063 40.2512 30.6407 40.4765 31.2427C41.649 34.3725 37.4464 38.6007 36.0669 39.9933C35.86 40.2001 35.5198 40.4896 35.1611 40.8021C34.1496 41.6708 33.4047 42.3326 33.0782 42.9392C32.8713 43.3207 32.4897 44.0284 32.9311 44.704C33.1886 45.0947 33.6116 45.2969 34.1955 45.2969C34.2737 45.2969 34.3519 45.2969 34.4392 45.2877C35.2071 45.2234 36.6049 44.7454 39.8649 41.3812C41.0466 40.1633 43.2077 37.7827 44.4308 35.5353C45.8791 32.8697 45.4607 29.7583 43.3594 27.612C42.4168 26.6469 41.2673 26.0264 40.0396 25.7599H44.817C45.1572 25.7599 45.4791 25.5944 45.6768 25.3141C45.8745 25.0337 45.9205 24.6799 45.8102 24.3581C42.1455 14.0588 32.7472 6.79734 21.8682 5.8506L21.8498 5.8414ZM22.0705 44.9522H11.7158V34.6023H22.0705V44.9522ZM43.4974 35.0251C42.4582 36.9324 40.6052 39.0879 39.1016 40.6413C38.1544 41.6202 35.6531 44.1204 34.3427 44.2307C33.5978 44.295 33.699 43.9779 33.9978 43.431C34.3933 42.6956 36.1175 41.4226 36.8118 40.7286C39.0878 38.4399 42.7709 34.3633 41.4604 30.8705C40.7339 28.931 37.9935 28.7196 36.5957 30.0065C35.7911 30.7464 36.398 31.2198 36.6279 32.0746C37.1705 34.1106 37.3866 36.4774 35.3726 37.7735C35.2071 37.8792 35.0692 37.8976 34.9496 37.9067C34.7749 37.9159 34.6324 37.8654 34.3979 37.6999C33.1334 36.8083 33.1518 33.8256 33.2575 32.4147C33.2805 32.1022 33.5104 31.4036 33.4874 31.2106C33.4783 31.1095 33.23 30.8107 33.1472 30.7188C30.5861 27.7683 25.119 30.6269 28.425 34.9102C29.0228 35.6823 30.0343 36.3947 30.5401 37.1025C30.6045 37.1898 30.6689 37.3874 30.6689 37.3874L30.393 39.4464C30.393 39.4464 28.5354 39.6624 27.7767 39.5567C26.9123 39.4372 24.6592 36.6842 24.204 35.8754C22.8798 33.5131 23.1925 30.0478 25.2892 28.2233C27.4364 26.3527 29.9148 26.27 32.4805 27.2995C32.8299 27.442 34.2277 28.283 34.3611 28.2968C34.6002 28.3198 35.6071 27.5017 35.952 27.3225C41.0512 24.7028 46.155 30.1535 43.502 35.0205L43.4974 35.0251ZM35.4646 26.3895C35.2807 26.486 35.0784 26.6239 34.7611 26.8491C34.6553 26.9226 34.499 27.0329 34.3611 27.1249C34.2323 27.0559 34.0944 26.9778 33.9794 26.9134C33.4369 26.6055 33.092 26.4171 32.8667 26.3252C29.7309 25.0613 26.8709 25.4428 24.5903 27.4282C22.9074 28.8943 22.1257 31.2887 22.3924 33.605C22.2912 33.5728 22.1855 33.5499 22.0705 33.5499H12.4561V26.316H21.7625C22.3418 26.316 22.8154 25.8472 22.8154 25.2635V15.9615H30.9309V24.6936C30.9309 25.2727 31.3999 25.7461 31.9839 25.7461H37.2808C36.6693 25.8748 36.0623 26.0816 35.4738 26.3849L35.4646 26.3895ZM31.9793 24.6982V14.9182H21.7625V25.2681H11.4077V34.5564H1.05295V24.2065H11.4077V14.9182H21.7625V6.88926C32.4437 7.81303 41.3455 14.9688 44.8032 24.7028H31.9793V24.6982Z" fill="white"/>
<path d="M73.3387 15.24L73.2973 16.5682C73.3984 16.7153 74.5709 16.4625 74.6951 17.2852C74.7916 17.9056 74.6997 18.5031 74.6951 19.0913C74.6859 20.2081 74.6905 21.3111 74.6215 22.4187C74.6077 22.6393 74.6997 23.4528 74.5066 23.5125H71.7845L71.6696 23.3977V16.9359C71.2006 16.7474 62.8276 16.9772 59.1583 16.9359C58.8319 16.9359 58.4318 16.9175 58.0686 16.9772V18.3192C58.0686 18.3192 58.6296 18.356 58.8273 18.3974C59.2641 18.4939 59.7009 19.0592 59.7883 19.4774C59.825 19.6566 59.7607 29.5285 59.7699 30.3098C59.7791 31.2106 59.8526 32.0746 60.1055 32.5342C60.6895 33.5913 61.7194 33.8624 62.8092 33.9038C63.577 33.936 67.5727 33.9084 68.2854 33.8578C69.0487 33.8027 69.7614 33.6648 70.3086 33.3523C71.4535 32.6997 71.5454 31.6242 71.6006 30.4155C71.6558 29.2344 71.5132 28.0487 71.6834 26.8721L71.7845 26.748H74.5801L74.6951 42.1626H78.7781C78.723 41.7627 78.7781 39.8968 78.7781 39.405C78.8057 34.3082 78.7781 16.6969 78.7781 16.6969C79.1966 16.5452 80.061 16.7612 80.2265 17.2254C80.4886 17.9607 80.2587 30.8567 80.2265 35.6962C80.2127 37.8103 80.2219 39.9244 80.2265 42.0339V42.1258C80.6403 42.1534 84.4015 42.2407 84.4337 42.0385V15.0699C84.4337 15.0699 78.3137 15.194 74.8054 15.1894C74.4606 15.1894 73.5962 14.9596 73.3341 15.2216L73.3387 15.24ZM66.86 30.7556C66.6807 30.8062 64.9059 30.8108 64.6852 30.7694C64.4691 30.7281 64.2713 30.4477 64.2254 30.2455C64.161 29.9835 64.1288 29.3033 64.115 28.9954C64.0185 26.9273 64.207 24.8499 64.1978 22.8002C64.1978 21.9086 64.046 21.0216 64.1288 20.1254C64.253 20.0611 64.3909 20.0473 64.5288 20.0335C64.8691 20.0105 66.9796 19.9967 67.1405 20.0748C67.2049 20.107 67.2555 20.176 67.2739 20.2403L67.2877 24.2341C67.2877 25.7507 67.2785 27.3041 67.2141 28.8346C67.1957 29.2895 67.398 30.5902 66.86 30.7464V30.7556Z" fill="#333333"/>
<path d="M116.141 15.3914C116.132 15.3087 116.22 15.2167 116.141 15.1616C114.946 15.1156 113.668 15.111 112.468 15.1248C112.311 15.1248 109.805 15.1708 109.805 15.1708C109.805 15.1708 109.723 16.6736 109.828 16.7885C109.934 16.908 110.624 16.7885 111.056 17.147C111.732 17.7031 111.507 18.5395 111.525 19.3208C111.534 19.8034 111.502 26.9821 111.438 30.089C111.038 30.6451 110.261 30.8013 109.603 30.8427C107.539 30.976 99.7402 30.7554 98.0298 30.8427C97.6849 30.8702 97.3677 30.6359 97.2757 30.3141C97.2067 30.0798 97.1745 29.1606 97.1608 28.8435C97.0642 26.5363 97.0412 23.6547 97.1608 21.3568C97.1791 21.0305 97.2987 20.6904 97.2389 20.3411L106.536 20.263V17.1654L90.7373 17.3538V18.5625C90.7373 18.8153 91.5144 18.7326 91.7213 18.7877C92.2087 18.9118 92.4524 19.4541 92.5075 19.9367C92.5489 20.2676 92.4202 27.0465 92.5443 30.0522C92.5765 30.7783 92.6041 31.6745 92.9122 32.3271C93.3858 33.329 94.3744 33.8576 95.4549 33.9403C98.554 34.1747 108.499 33.9633 110.026 33.6921C110.366 33.6324 111.153 33.2739 111.433 33.4439C111.433 33.4439 111.433 40.1447 111.433 40.6227C111.433 40.9582 111.433 41.9095 111.433 41.9463C111.433 41.9463 116.063 41.9876 116.137 41.9509C116.206 41.9187 116.095 33.761 116.137 29.7397C116.174 26.1549 116.095 22.5288 116.137 18.944C116.151 17.9099 116.252 16.3565 116.137 15.3868L116.141 15.3914Z" fill="#333333"/>
<path d="M125.246 18.7972C125.296 21.3663 125.191 26.817 125.2 26.9411C125.25 27.681 126.004 28.6048 126.722 28.807C131.669 28.7794 136.741 29.0873 141.698 28.8805C142.686 28.8392 145.215 29.0598 145.215 28.0073C145.215 27.4558 145.514 16.8256 145.514 16.8256C145.514 16.8256 145.505 16.6325 145.399 16.5636H123.554C123.347 16.5636 123.434 17.8091 123.554 18.0021C124.23 18.1446 124.965 17.9515 125.25 18.7972H125.246ZM129.871 19.698C129.996 19.6336 138.782 19.7393 140.18 19.6612C140.576 19.6474 140.911 19.9783 140.898 20.3782C140.81 21.2146 140.847 25.5393 140.764 25.6864L130.253 25.7232C130.092 25.7232 129.963 25.5991 129.959 25.4382C129.931 24.2801 129.839 19.9829 129.867 19.6934L129.871 19.698Z" fill="#333333"/>
<path d="M153.693 19.5553C150.824 22.23 150.746 27.0006 153.542 29.7765C159.584 35.7787 171.309 29.6616 167.86 21.435C165.474 15.7453 157.818 15.7039 153.693 19.5553ZM159.165 28.9952C155.077 28.0668 155.482 20.502 159.298 19.9827C165.138 19.1876 165.216 30.3693 159.165 28.9952Z" fill="#333333"/>
<path d="M137.343 32.6951C137.357 32.185 137.587 31.4634 137.306 30.9993H131.26L131.145 31.1142V32.4378C131.651 32.3872 132.483 32.4148 132.639 33.0214C132.703 33.2742 132.708 35.4389 132.658 35.7238C132.63 35.8617 132.561 35.9582 132.432 35.9996H121.392V39.0282C121.576 39.0926 124.588 39.042 125.885 39.0282C128.124 39.0099 130.381 39.042 132.612 39.0282C137.89 38.9915 143.178 39.1569 148.452 39.0282C148.489 39.0099 148.603 39.042 148.603 39.0282V35.9122L137.297 35.9996C137.357 35.3975 137.329 33.1318 137.338 32.6997L137.343 32.6951Z" fill="#333333"/>
<path d="M204.028 23.1038L199.733 23.1957C199.733 23.3336 199.733 24.3309 199.825 24.386C200.396 24.3263 200.671 24.5193 200.75 25.1535C200.837 25.8705 200.773 32.5988 200.75 34.4739C200.75 34.7405 200.529 34.9519 200.262 34.9519C198.501 34.9427 192.372 34.9105 189.645 34.9519C188.799 34.9657 186.482 34.9519 186.482 34.9519L186.523 37.1257H200.331C200.557 37.1257 200.74 37.3096 200.74 37.5348V42.0571C200.74 42.0571 203.403 42.0479 204.028 42.0341C204.125 40.3842 204 38.7251 204.028 37.0706C204.106 32.4931 203.858 27.9938 204.028 23.6323C204.033 23.4852 204.24 23.1773 204.028 23.1038Z" fill="#333333"/>
<path d="M198.037 26.7205C197.191 24.7903 195.329 23.9354 193.287 24.0963C190.083 24.3445 186.993 27.4191 188.97 30.6408C191.807 35.2688 200.235 31.7254 198.037 26.7251V26.7205ZM192.92 26.4034C195.766 25.9898 196.005 30.8982 193.076 30.4707C191.2 30.1996 191.08 26.67 192.92 26.4034Z" fill="#333333"/>
<path d="M221.027 23.0256L221.041 24.1332C221.041 24.1332 221.464 24.1654 221.611 24.193C221.905 24.2527 222.163 24.5193 222.163 24.9743C222.163 25.1995 222.268 31.7026 222.163 33.1365C222.112 33.8121 221.905 33.8489 221.496 33.8259C221.363 33.8213 220.678 33.8443 220.678 33.8443C220.678 33.8443 219.114 33.8167 218.337 33.8443V35.508H222.163V37.0476H225.4V23.0256H221.027Z" fill="#333333"/>
<path d="M217.588 28.6784C219.547 26.7527 218.434 23.5724 215.831 23.0393C212.981 22.451 209.247 23.8711 209.845 27.341C210.438 30.7879 215.473 30.7603 217.588 28.6738V28.6784ZM213.105 25.4061C214.461 23.9217 216.668 26.6516 214.838 27.796C213.371 28.7151 212.07 26.5413 213.105 25.4061Z" fill="#333333"/>
<path d="M216.057 39.7036C215.776 39.7036 215.505 39.6669 215.505 39.4922V36.4222H210.921C210.921 36.4222 210.921 37.277 210.921 37.3689C211.04 37.5436 211.923 37.2219 212.066 37.8929C212.291 38.9591 211.744 40.9537 212.627 41.6615C212.723 41.7396 212.916 41.8913 213.27 41.8913H225.4V39.7404C223.151 39.7174 216.291 39.7174 216.052 39.7174L216.057 39.7036Z" fill="#333333"/>
<path d="M212.249 33.0584C212.249 33.0584 212.245 35.099 212.249 35.4207H215.532L215.611 35.3426V33.0079L221.128 32.9941V30.8478C221.128 30.8478 214.778 30.8984 212.433 30.903C210.769 30.903 207.348 30.903 207.348 30.903C207.348 30.903 207.385 32.8884 207.357 33.0584H212.249Z" fill="#333333"/>
<path d="M22.0706 34.6024H11.7158V44.9523H22.0706V34.6024Z" fill="#FF923E"/>
<path d="M11.4077 14.9181V24.2063H1.05298V34.5562H11.4077V25.268H21.7625V14.9181H11.4077Z" fill="#2C82AC"/>
<path d="M21.7625 6.8893V14.9183H31.9793V24.6983H44.8032C41.3409 14.9688 32.4437 7.81307 21.7625 6.8847V6.8893Z" fill="#FFD243"/>
<path d="M35.9474 27.3224C35.5979 27.5017 34.5956 28.3197 34.3565 28.2968C34.2231 28.283 32.8299 27.4419 32.4759 27.2995C29.9102 26.2654 27.4318 26.3527 25.2845 28.2232C23.1924 30.0478 22.8752 33.5131 24.1994 35.8753C24.6546 36.6842 26.9077 39.4371 27.7721 39.5566C28.5308 39.6623 30.3884 39.4463 30.3884 39.4463L30.6642 37.3874C30.6642 37.3874 30.5999 37.1898 30.5355 37.1024C30.0343 36.3947 29.0181 35.6823 28.4204 34.9102C25.119 30.6269 30.5815 27.7682 33.1426 30.7188C33.2253 30.8153 33.4736 31.114 33.4828 31.2105C33.5058 31.4036 33.2759 32.1021 33.2529 32.4146C33.1472 33.8256 33.1288 36.8083 34.3932 37.6999C34.6277 37.8653 34.7703 37.9159 34.945 37.9067C35.0646 37.8975 35.2025 37.8791 35.368 37.7734C37.382 36.4774 37.1613 34.1105 36.6233 32.0746C36.3934 31.2151 35.7864 30.7464 36.5911 30.0064C37.9889 28.7196 40.7293 28.931 41.4558 30.8704C42.7663 34.3633 39.0832 38.4398 36.8072 40.7286C36.1175 41.4271 34.3932 42.7002 33.9932 43.4309C33.6989 43.9778 33.5932 44.295 34.3381 44.2306C35.6485 44.1203 38.1498 41.6202 39.097 40.6412C40.6006 39.0878 42.4582 36.9324 43.4927 35.0251C46.1458 30.1535 41.042 24.7074 35.9428 27.327L35.9474 27.3224Z" fill="#2C82AC"/>
<path d="M181.645 0C173.056 0.505545 172.633 12.8408 172.633 12.8408C167.281 5.95624 163.897 6.01599 152.829 6.69158C141.757 7.36717 139.049 3.61695 139.546 5.15656C140.037 6.69158 145.633 10.7497 158.673 10.69C171.713 10.6302 170.614 14.909 170.614 14.909C170.21 14.909 169.745 14.716 169.373 15.0193V16.6416C170.182 16.5175 171.005 16.8438 171.116 17.7354C171.249 18.8109 171.116 41.7994 171.116 41.7994H175.852C175.852 41.7994 175.833 41.6845 175.852 41.6477C175.925 40.223 175.787 27.998 175.852 27.1156V26.9915C176.481 26.895 180.036 26.8812 180.036 26.8812L179.999 23.5952H175.852V14.8309C175.47 14.8171 175.088 14.8171 174.707 14.8217V14.5827C174.771 11.4483 181.424 7.75782 181.006 3.92946C180.735 1.42472 181.392 0.445799 181.709 0.128684C181.755 0.0827255 181.719 0.00459586 181.654 0.00459586L181.645 0Z" fill="#333333"/>
</g>
<defs>
<clipPath id="clip0_87_134">
<rect width="225.4" height="46" fill="white"/>
</clipPath>
</defs>
</svg>
