<svg width="280" height="214" viewBox="0 0 280 214" fill="none" xmlns="http://www.w3.org/2000/svg">
<g clip-path="url(#clip0_665_1654)">
<path d="M1.5 134.08C1.5 188.756 63.2842 215 139.5 215C215.716 215 277.5 188.756 277.5 134.08C277.5 79.4042 243.777 17 139.5 17C41.5189 17 1.5 79.4042 1.5 134.08Z" fill="#A3BD8A"/>
<g clip-path="url(#clip1_665_1654)">
<path d="M114.822 117.316C108.738 122.098 103.006 127.33 97.69 132.954C96.207 134.523 94.7367 136.14 92.9336 137.33C91.3492 138.376 89.5573 139.058 87.7843 139.739C72.1779 145.732 56.028 152.832 45.9908 166.205C40.4374 173.604 37.1561 182.443 34.499 191.302C30.7044 203.953 28.0267 216.941 26.5104 230.061C25.9733 234.711 25.2033 239.352 24.6139 244.005C24.0514 248.452 23.5761 252.91 23.283 257.385C22.9915 261.832 22.8806 266.293 23.0485 270.747C23.0865 271.764 23.0754 272.726 23.367 273.684C23.527 274.21 23.6031 274.774 23.7251 275.311C23.9691 276.4 24.2273 277.486 24.4967 278.568C25.0354 280.733 25.6232 282.887 26.2601 285.025C26.5089 285.859 26.764 286.691 27.027 287.52C27.5292 289.106 28.0695 290.704 28.9742 292.1C29.6222 293.1 30.4445 294.132 31.4269 294.831C31.6677 295.002 31.8895 295.149 32.0686 295.39C32.6057 296.113 33.0049 296.891 33.6165 297.57C34.8492 298.936 36.3781 300.004 37.9578 300.928C38.5472 301.272 39.1493 301.598 39.7545 301.912C43.4446 303.827 47.3359 305.477 51.449 306.207C52.0432 306.313 52.6405 306.399 53.241 306.462C53.7401 306.516 54.2439 306.527 54.7161 306.718C55.0773 306.863 55.4021 307.049 55.784 307.144C58.5266 307.827 61.5021 308.011 64.3192 308.065C59.6531 327.534 58.0497 347.296 58.4426 367.311H213.78C211.582 349.456 208.564 331.547 204.791 313.956C207.54 313.156 210.845 312.328 213.593 311.528C217.289 310.45 221.077 309.33 224.151 307.011C228.009 304.101 230.335 299.614 232.13 295.127C234.426 289.39 234.678 283.028 234.925 276.852C235.16 271.042 235.104 265.225 235.05 259.412C234.99 252.953 234.928 246.495 234.868 240.038C234.829 235.746 234.787 231.451 234.429 227.175C234.044 222.577 233.295 218.02 232.544 213.469C231.644 207.999 230.742 202.53 229.842 197.06C228.093 186.441 224.766 175.434 219.286 166.174C215.862 160.389 211.327 155.298 206.184 150.971C200.528 146.212 194.119 142.351 187.268 139.578C182.824 137.779 178.115 136.39 174.271 133.522C172.029 131.85 170.166 129.732 168.32 127.632C165.552 124.483 162.785 121.334 160.018 118.185C158.729 116.72 157.413 115.23 155.736 114.234C154.06 113.237 151.932 112.799 150.14 113.568C148.074 114.455 146.392 113.771 144.148 113.91C134.523 114.505 124.403 116.251 114.819 117.318L114.822 117.316Z" fill="white"/>
<path d="M133.921 7.746C122.052 6.38933 110.655 13.7623 103.303 23.1797C95.9502 32.5988 91.6628 43.9752 86.317 54.6605C83.7059 59.8796 80.8049 65.0115 79.165 70.6125C78.0068 74.5684 77.4998 78.7097 77.6345 82.8289C77.7517 86.4615 78.3665 90.0719 79.3583 93.5682C81.2247 100.145 84.5076 106.417 89.4256 111.164C94.3595 115.926 100.875 119.022 107.683 119.836C108.89 119.98 110.147 120.05 111.295 119.651C112.65 119.178 113.715 118.104 115.025 117.522C118.24 116.094 121.862 117.893 125.14 119.167C132.77 122.133 141.475 122.234 149.172 119.446C155.749 118.858 162.516 118.218 168.386 115.194C169.679 114.528 170.926 113.747 172.309 113.302C174.743 112.519 177.533 112.791 179.702 111.439C181.576 110.27 182.581 108.137 183.484 106.121C185.352 101.954 187.23 97.7602 188.329 93.3272C191.878 79.014 186.998 64.1033 182.074 50.2038C177.362 36.9065 172.297 23.2146 162.494 13.0728C159.83 10.3167 156.785 7.82842 153.216 6.43212C150.438 5.34647 147.1 4.87259 144.2 5.75537C142.364 6.31484 141.134 7.89657 139.17 8.12796C137.422 8.334 135.652 7.94411 133.922 7.74759L133.921 7.746Z" fill="#E6CDB3"/>
<path d="M104.535 80.4278C105.681 85.5439 106.866 90.7598 109.569 95.2514C111.122 97.83 113.159 100.139 114.306 102.922C115.411 105.596 115.623 108.541 115.824 111.428C116.154 116.169 116.418 121.217 114.113 125.372C112.896 127.567 111.05 129.331 109.352 131.178C109.002 131.558 108.648 131.958 108.474 132.444C108.267 133.021 108.332 133.655 108.401 134.264C108.688 136.774 109.016 139.321 110.019 141.641C111.857 145.889 115.778 148.916 119.961 150.891C130.499 155.864 143.612 154.891 153.299 148.414C155.127 147.192 156.867 145.756 158.047 143.898C159.928 140.936 160.183 137.261 160.384 133.756C160.501 131.729 160.609 129.637 159.926 127.726C159.475 126.461 158.698 125.342 158.047 124.166C154.573 117.895 154.752 110.317 155.068 103.155C156.776 100.789 158.285 98.2801 159.598 95.6745C159.811 95.253 159.99 94.7997 160.28 94.4225C160.495 94.1404 160.676 93.9121 160.798 93.5698C161.176 92.4968 161.473 91.3874 161.807 90.3002C162.474 88.1399 163.093 85.9607 163.808 83.8163C163.883 83.577 163.981 83.3108 164.212 83.2157C164.375 83.1491 164.559 83.1887 164.732 83.2236C165.576 83.39 166.452 83.3615 167.291 83.1681C168.875 82.802 170.328 81.8606 171.313 80.5673C171.798 79.9318 172.014 79.1187 172.518 78.5117C172.706 78.2835 172.945 78.1028 173.142 77.8825C173.4 77.5909 173.641 77.2549 173.774 76.8888C173.964 76.3657 173.997 75.7619 174.108 75.2167C174.213 74.7111 174.319 74.2055 174.382 73.692C174.615 71.8234 174.628 69.9263 174.416 68.0545C174.218 66.3064 173.772 64.4822 172.533 63.2333C171.296 61.9844 169.06 61.5945 167.799 62.8196C167.279 63.3236 166.782 64.1161 166.075 63.9592C165.7 63.8768 165.445 63.536 165.231 63.2159C164.119 61.5517 163.176 59.7735 162.419 57.9191C161.642 56.0188 161.208 54.0853 160.706 52.1073C160.634 51.8252 160.468 51.6017 160.378 51.3291C160.229 50.8869 160.17 50.4004 160.07 49.9439C158.953 44.8628 157.196 39.9226 154.855 35.2789C152.096 29.8078 145.427 28.2641 139.487 26.7664C136.761 26.0786 133.915 25.4192 131.161 25.9898C128.473 26.5477 126.164 28.2166 123.981 29.8807C120.535 32.5069 117.138 35.2551 114.381 38.5961C109.708 44.2573 107.091 51.3878 105.793 58.6133C104.494 65.8389 102.927 73.2609 104.531 80.4247L104.535 80.4278Z" fill="#FFEEE4"/>
<path d="M133.049 100.966C136.614 101.554 140.246 99.4576 142.814 96.0628C143.685 94.9106 144.486 93.5048 144.592 91.8612C140.178 92.4667 135.729 92.5982 131.3 92.2575C130.193 92.1719 129.087 92.0578 127.982 91.9135C127.273 91.82 126.292 91.568 125.869 92.6045C125.496 93.5127 126.079 94.6443 126.433 95.3956C126.876 96.3386 127.425 97.1865 128.046 97.9203C129.44 99.5702 131.208 100.662 133.049 100.966Z" fill="#F7B4A2"/>
<path d="M135.011 198.311C146.565 181.695 156.459 163.186 158.563 143.055C153.572 149.58 145.817 153.916 137.646 154.75C135.065 155.013 132.449 154.926 129.889 154.512C127.289 154.092 124.744 153.339 122.334 152.276C121.244 151.796 120.181 151.25 119.154 150.647C118.104 150.027 117.163 149.255 116.131 148.615C114.284 147.466 112.709 145.93 110.77 144.865C110.96 146.331 111.31 147.775 111.81 149.165C112.058 149.849 112.384 150.494 112.653 151.168C112.747 151.404 112.777 151.61 112.812 151.857C112.883 152.365 113.072 152.815 113.23 153.304C113.679 154.685 114.143 156.061 114.624 157.432C115.591 160.184 116.624 162.914 117.722 165.618C118.814 168.309 119.97 170.973 121.189 173.609C122.413 176.257 123.7 178.877 125.048 181.463C126.39 184.039 127.794 186.581 129.258 189.09C130.722 191.599 132.245 194.071 133.826 196.507C134.217 197.109 134.613 197.712 135.011 198.309V198.311Z" fill="#E9B2AD"/>
<path d="M120.461 72.2688C121.589 72.2688 122.504 71.1065 122.504 69.6727C122.504 68.239 121.589 67.0767 120.461 67.0767C119.333 67.0767 118.419 68.239 118.419 69.6727C118.419 71.1065 119.333 72.2688 120.461 72.2688Z" fill="#512C21"/>
<path d="M120.461 72.3655C119.282 72.3655 118.322 71.1578 118.322 69.6743C118.322 68.1908 119.282 66.9832 120.461 66.9832C121.64 66.9832 122.6 68.1908 122.6 69.6743C122.6 71.1578 121.64 72.3655 120.461 72.3655ZM120.461 67.1733C119.387 67.1733 118.514 68.2954 118.514 69.6743C118.514 71.0532 119.387 72.1753 120.461 72.1753C121.535 72.1753 122.408 71.0532 122.408 69.6743C122.408 68.2954 121.535 67.1733 120.461 67.1733Z" fill="#512C21"/>
<path d="M148.971 72.2688C150.091 72.2688 150.999 71.1065 150.999 69.6727C150.999 68.239 150.091 67.0767 148.971 67.0767C147.851 67.0767 146.943 68.239 146.943 69.6727C146.943 71.1065 147.851 72.2688 148.971 72.2688Z" fill="#512C21"/>
<path d="M148.971 72.3655C147.8 72.3655 146.847 71.1578 146.847 69.6743C146.847 68.1908 147.799 66.9832 148.971 66.9832C150.144 66.9832 151.094 68.1908 151.094 69.6743C151.094 71.1578 150.142 72.3655 148.971 72.3655ZM148.971 67.1733C147.905 67.1733 147.038 68.2954 147.038 69.6743C147.038 71.0532 147.905 72.1753 148.971 72.1753C150.038 72.1753 150.904 71.0532 150.904 69.6743C150.904 68.2954 150.038 67.1733 148.971 67.1733Z" fill="#512C21"/>
<path d="M140.081 26.8946C133.684 23.9594 126.448 26.6743 121.094 30.5684C115.975 34.2929 111.95 39.3059 109.223 45.0084C106.202 51.3289 104.751 58.1773 104.299 65.1413C103.825 72.4477 104.366 80.2264 101.732 87.1904C99.3938 93.3763 94.5899 99.3545 88.0177 101.204C86.8342 101.537 87.3365 103.385 88.5263 103.049C94.3126 101.42 98.8519 96.8836 101.715 91.7327C103.166 89.1208 104.255 86.2696 104.822 83.3343C105.554 79.5401 105.746 75.6523 105.904 71.801C106.066 67.8594 106.158 63.8972 106.719 59.9856C107.191 56.6922 107.997 53.4321 109.098 50.294C111.152 44.4473 114.422 39.0206 118.971 34.7779C124.014 30.0739 132.132 25.343 139.115 28.546C140.226 29.0564 141.2 27.4065 140.08 26.893L140.081 26.8946Z" fill="#512C21"/>
<path d="M143.814 29.5857C148.697 30.8204 152.511 34.4656 154.9 38.7908C156.254 41.2379 157.177 43.891 157.855 46.5996C158.532 49.3019 158.717 52.1911 159.809 54.7713C160.867 57.2739 163.174 59.5054 166.064 59.3152C167.287 59.236 167.295 57.3214 166.064 57.4007C163.399 57.575 161.794 55.0756 161.138 52.8124C160.37 50.1656 160.097 47.3984 159.342 44.7405C157.919 39.7449 155.474 34.892 151.453 31.4924C149.374 29.7347 146.97 28.4066 144.324 27.7377C143.13 27.435 142.621 29.2814 143.816 29.5826L143.814 29.5857Z" fill="#512C21"/>
<path d="M142.759 24.5634L141.116 11.358C140.965 10.1519 139.051 10.1361 139.202 11.358L140.845 24.5634C140.995 25.7695 142.909 25.7854 142.759 24.5634Z" fill="#512C21"/>
<path d="M141.771 7.71281C145.706 5.8252 150.39 6.44965 154.185 8.37847C157.971 10.3025 161.075 13.3408 163.783 16.566C169.344 23.1909 173.156 31.1059 176.423 39.0541C179.944 47.6189 183.29 56.3501 185.504 65.3555C187.552 73.6873 188.387 82.3583 187.72 90.9262C187.43 94.6507 186.717 98.3959 185.217 101.833C183.572 105.599 181.062 108.84 178.058 111.62C177.152 112.459 178.508 113.809 179.412 112.974C182.21 110.384 184.638 107.374 186.334 103.946C187.91 100.761 188.844 97.3292 189.324 93.8155C189.85 89.9594 189.883 86.0606 189.767 82.176C189.626 77.4118 189.056 72.6936 188.075 68.0292C186.055 58.4137 182.549 49.1547 178.885 40.0637C175.538 31.7573 171.743 23.538 166.16 16.471C163.133 12.6387 159.548 8.95854 155.148 6.72384C150.697 4.46378 145.396 3.85676 140.803 6.05818C139.692 6.59071 140.662 8.24058 141.768 7.71123L141.771 7.71281Z" fill="#512C21"/>
<path d="M167.09 65.2223C168.164 63.3156 170.832 63.482 172.253 64.8672C174.135 66.6994 174.242 69.5284 173.8 71.9581C173.342 74.4796 172.621 77.1439 171.219 79.3152C169.922 81.3216 167.589 83.0508 165.077 82.6783C163.873 82.4992 163.354 84.344 164.569 84.5231C167.032 84.8877 169.368 84.0001 171.184 82.3265C173.064 80.5926 174.124 78.1439 174.842 75.7365C175.633 73.0865 176.298 70.1941 175.706 67.4364C175.224 65.1969 173.773 63.0399 171.572 62.211C169.363 61.3789 166.619 62.1571 165.435 64.2555C164.83 65.33 166.481 66.2952 167.088 65.2207L167.09 65.2223Z" fill="#512C21"/>
<path d="M165.531 79.095C166.52 78.255 167.507 77.4166 168.496 76.5766C169.435 75.7778 168.076 74.4306 167.143 75.2231C166.154 76.0631 165.167 76.9015 164.178 77.7415C163.239 78.5403 164.598 79.8874 165.531 79.095Z" fill="#512C21"/>
<path d="M105.289 87.8609C106.956 92.9151 109.165 97.8632 111.933 102.412C114.763 107.06 118.38 111.04 123.187 113.695C128.186 116.456 134.013 117.533 139.597 116.12C144.957 114.763 149.718 111.405 153.322 107.271C157.832 102.1 160.725 95.8139 163.214 89.4806C163.664 88.3348 161.815 87.8371 161.369 88.9719C157.443 98.9615 151.787 109.874 140.994 113.696C135.935 115.487 130.497 115.081 125.655 112.809C120.935 110.591 117.201 107.041 114.376 102.7C111.294 97.9662 108.903 92.7122 107.137 87.3521C106.753 86.1872 104.904 86.6865 105.292 87.8609H105.289Z" fill="#512C21"/>
<path d="M124.543 54.1485C119.148 52.7015 113.184 54.3228 109.275 58.3168C108.414 59.198 109.765 60.5515 110.629 59.6703C114.067 56.1582 119.286 54.7207 124.034 55.9933C125.224 56.3135 125.733 54.4671 124.543 54.1485Z" fill="#512C21"/>
<path d="M145.467 55.9363C150.098 54.3752 155.222 55.1518 159.197 57.992C160.2 58.7083 161.157 57.0505 160.162 56.3389C155.81 53.2293 150.024 52.383 144.957 54.0915C143.795 54.483 144.295 56.331 145.465 55.9363H145.467Z" fill="#512C21"/>
<path d="M124.228 92.2765C125.164 96.5288 127.618 100.315 131.861 101.795C133.539 102.38 135.463 102.621 137.22 102.314C139.348 101.941 141.227 100.605 142.589 98.968C144.361 96.8395 145.468 94.2323 146.004 91.5269C146.15 90.7883 145.568 90.1988 144.827 90.3493C141.644 90.9975 138.508 91.492 135.249 91.427C131.882 91.3589 128.517 91.1766 125.151 91.0641C123.92 91.0229 123.922 92.9375 125.151 92.9787C128.609 93.0944 132.066 93.2893 135.526 93.3464C138.85 93.4018 142.089 92.8566 145.335 92.1957C144.942 91.8027 144.551 91.4112 144.158 91.0181C143.432 94.6888 141.381 99.1407 137.472 100.29C134.569 101.144 131.061 99.9047 129.008 97.7872C127.411 96.1405 126.56 93.974 126.074 91.7662C125.809 90.5633 123.963 91.072 124.229 92.275L124.228 92.2765Z" fill="#512C21"/>
<path d="M113.668 105.311C114.892 114.517 116.176 126.009 108.189 132.718C107.244 133.511 108.604 134.859 109.542 134.072C113.11 131.075 115.184 126.648 116.019 122.126C117.05 116.548 116.321 110.877 115.581 105.311C115.513 104.794 115.19 104.36 114.625 104.353C114.16 104.349 113.599 104.797 113.668 105.311Z" fill="#512C21"/>
<path d="M153.544 105.295C153.231 113.256 153.202 122.875 159.617 128.697C160.527 129.523 161.885 128.174 160.97 127.344C154.951 121.881 155.164 112.736 155.457 105.295C155.506 104.063 153.592 104.065 153.543 105.295H153.544Z" fill="#512C21"/>
<path d="M114.327 117.974C109.734 120.76 107.409 126.071 107.094 131.287C106.689 137.998 109.144 144.651 111.261 150.907C115.469 163.342 120.756 175.379 127.313 186.757C130.209 191.783 133.49 196.834 135.408 202.341C136.605 205.784 137.296 209.4 137.849 212.995C139.259 222.167 139.678 231.5 139.898 240.766C140.096 249.105 140.05 257.451 139.864 265.791C139.849 266.522 139.831 267.252 139.812 267.985C139.782 269.216 141.694 269.216 141.726 267.985C141.921 260.187 142.002 252.386 141.886 244.588C141.747 235.258 141.392 225.896 140.262 216.628C139.784 212.697 139.185 208.759 138.183 204.923C137.019 200.463 134.961 196.371 132.731 192.355C129.552 186.627 126.167 181.037 123.266 175.156C120.379 169.301 117.811 163.293 115.523 157.18C114.39 154.152 113.324 151.1 112.32 148.027C111.296 144.892 110.269 141.736 109.609 138.5C108.48 132.986 108.617 126.626 112.421 122.101C113.246 121.12 114.199 120.291 115.295 119.626C116.347 118.988 115.385 117.332 114.33 117.972L114.327 117.974Z" fill="#512C21"/>
<path d="M154.18 114.401C160.018 116.898 159.711 124.371 159.445 129.648C159.147 135.585 158.399 141.492 157.217 147.317C154.856 158.967 150.8 170.264 145.196 180.745C142.056 186.617 138.432 192.223 134.372 197.501C134.055 197.913 134.311 198.569 134.715 198.81C135.205 199.103 135.71 198.873 136.024 198.466C143.515 188.732 149.479 177.87 153.765 166.362C158.049 154.861 160.617 142.713 161.314 130.455C161.663 124.326 161.934 115.65 155.145 112.747C154.025 112.268 153.049 113.917 154.18 114.4V114.401Z" fill="#512C21"/>
<path d="M144.276 210.841C148.736 207.576 153.372 204.554 158.165 201.801C158.764 201.457 159.366 201.116 159.97 200.782C160.466 200.506 161.025 200.265 161.445 199.873C162.394 198.991 161.965 197.631 161.776 196.523C161.306 193.759 160.716 191.015 160.013 188.301C159.209 185.197 158.252 182.137 157.158 179.126C156.741 177.977 154.89 178.473 155.313 179.634C157.091 184.53 158.498 189.556 159.498 194.667C159.623 195.306 159.742 195.946 159.854 196.586C159.907 196.883 159.957 197.179 160.006 197.476C160.044 197.701 160.231 198.22 160.141 198.436C160.005 198.758 159.173 199.035 158.877 199.2C158.316 199.512 157.758 199.828 157.202 200.148C154.935 201.45 152.701 202.813 150.505 204.234C148.06 205.815 145.663 207.47 143.313 209.189C142.329 209.909 143.283 211.57 144.278 210.843L144.276 210.841Z" fill="#512C21"/>
<path d="M154.966 173.385C161.513 175.305 167.271 179.543 171.029 185.242C171.571 186.064 172.729 185.701 172.812 184.758C173.677 174.858 174.184 164.927 174.318 154.989C174.385 150.073 174.363 145.155 174.25 140.24C174.198 137.969 174.211 135.592 173.453 133.42C172.712 131.297 171.24 129.64 169.758 127.997C166.071 123.908 162.385 119.82 158.698 115.733C157.871 114.817 156.522 116.174 157.345 117.087C160.578 120.673 163.814 124.26 167.047 127.846C168.53 129.492 170.273 131.113 171.267 133.123C172.255 135.119 172.267 137.437 172.32 139.613C172.556 149.235 172.447 158.864 171.994 168.478C171.737 173.913 171.37 179.341 170.896 184.76C171.49 184.598 172.084 184.438 172.678 184.277C168.643 178.157 162.508 173.604 155.473 171.54C154.29 171.193 153.784 173.04 154.965 173.385H154.966Z" fill="#512C21"/>
<path d="M114.421 116.02C110.431 119.331 106.741 122.951 103.097 126.634C101.221 128.529 99.3449 130.428 97.423 132.276C96.0826 133.566 94.6915 134.802 94.4015 136.717C93.9341 139.796 94.0625 142.969 94.0609 146.074C94.0561 151.778 94.1417 157.474 94.457 163.172C94.8293 169.911 95.4631 176.634 96.3424 183.326C96.4311 183.995 97.1014 184.584 97.7811 184.151C102.945 180.872 108.11 177.592 113.273 174.312C114.31 173.655 113.351 171.997 112.309 172.659C107.145 175.938 101.98 179.219 96.8162 182.498C97.2962 182.774 97.7763 183.05 98.2548 183.324C96.7195 171.653 95.9463 159.883 95.9637 148.111C95.9685 144.903 95.8893 141.678 96.1238 138.476C96.1681 137.861 96.2141 137.238 96.3519 136.636C96.3773 136.525 96.4042 136.414 96.4391 136.305C96.5009 136.116 96.3836 136.4 96.4565 136.251C96.7512 135.642 97.2344 135.134 97.705 134.66C99.5588 132.794 101.473 130.989 103.325 129.122C107.348 125.065 111.371 121.028 115.77 117.375C116.72 116.587 115.358 115.24 114.417 116.021L114.421 116.02Z" fill="#512C21"/>
<path d="M113.598 177.238C111.183 180.733 108.802 184.25 106.452 187.789C105.974 188.51 105.443 189.237 105.305 190.114C105.162 191.02 105.517 191.795 106.083 192.482C107.255 193.905 108.707 195.146 110.114 196.328C113.097 198.837 116.239 201.148 119.199 203.687C122.101 206.178 124.899 208.79 127.585 211.513C130.675 214.645 133.607 217.927 136.386 221.338C137.164 222.293 138.511 220.932 137.739 219.984C133.088 214.275 127.992 208.934 122.496 204.032C119.718 201.555 116.816 199.241 113.894 196.937C112.484 195.824 111.086 194.694 109.762 193.478C109.136 192.903 108.528 192.31 107.945 191.692C107.694 191.426 107.317 191.106 107.211 190.735C107.084 190.29 107.39 189.859 107.612 189.497C109.995 185.64 112.672 181.931 115.249 178.202C115.951 177.186 114.293 176.228 113.596 177.236L113.598 177.238Z" fill="#512C21"/>
<path d="M67.9411 235.54C68.38 227.46 68.006 219.369 66.87 211.361C66.7971 210.846 66.1459 210.573 65.6928 210.692C65.1414 210.838 64.9529 211.359 65.0242 211.869C66.1349 219.704 66.4549 227.641 66.0271 235.54C65.9606 236.771 67.873 236.767 67.9411 235.54Z" fill="#512C21"/>
<path d="M199.632 211.931C197.606 222.254 196.372 232.727 195.955 243.24C195.906 244.471 197.82 244.469 197.869 243.24C198.279 232.895 199.484 222.599 201.477 212.44C201.713 211.237 199.869 210.722 199.632 211.931Z" fill="#512C21"/>
<path d="M93.9056 136.511C82.7165 140.543 71.4038 144.66 61.3111 151.065C51.9996 156.975 44.1266 164.746 39.0914 174.634C33.6394 185.338 30.8842 197.358 28.685 209.093C27.5252 215.282 26.5492 221.506 25.5447 227.722C24.5338 233.979 23.5578 240.244 22.8829 246.547C22.2079 252.849 21.8388 259.194 22.0701 265.532C22.2919 271.595 22.9732 277.774 24.6257 283.626C26.1135 288.895 28.5947 293.934 32.5129 297.823C36.2109 301.494 40.8913 304.06 45.8045 305.71C51.5845 307.651 57.7209 308.32 63.7844 308.591C70.1696 308.876 76.5658 308.772 82.951 308.539C95.6817 308.076 108.428 307.453 121.132 306.5C133.662 305.562 146.182 304.164 158.512 301.706C159.963 301.418 161.544 301.242 162.934 300.719C164.119 300.273 164.81 299.383 165.096 298.164C165.703 295.579 165.836 292.783 165.814 290.136C165.768 284.653 164.665 279.166 162.572 274.097C161.554 271.631 160.321 269.27 158.86 267.035C158.188 266.008 156.533 266.965 157.208 268C160.128 272.468 162.138 277.456 163.159 282.695C163.662 285.287 163.908 287.925 163.903 290.566C163.9 291.904 163.834 293.243 163.7 294.574C163.632 295.251 163.548 295.924 163.442 296.595C163.355 297.15 163.315 297.872 163.018 298.36C162.699 298.882 162.086 298.999 161.528 299.126C160.734 299.307 159.934 299.467 159.137 299.632C157.683 299.929 156.225 300.212 154.764 300.481C151.738 301.039 148.699 301.535 145.654 301.979C139.589 302.863 133.494 303.535 127.389 304.076C115.244 305.152 103.06 305.71 90.8857 306.283C84.6432 306.578 78.3974 306.841 72.1469 306.846C66.0818 306.851 59.9438 306.724 53.95 305.725C48.5931 304.833 43.3313 303.198 38.7095 300.292C34.2241 297.473 30.7669 293.531 28.5218 288.734C26.104 283.564 25.0599 277.771 24.453 272.134C23.7987 266.049 23.7892 259.911 24.171 253.807C24.9379 241.594 27.1307 229.479 29.1508 217.425C31.1107 205.731 33.3669 193.938 37.5751 182.815C39.5461 177.606 42.0495 172.567 45.3387 168.058C48.4251 163.828 52.2119 160.118 56.3282 156.894C65.2563 149.902 75.7657 145.293 86.3084 141.323C89.0019 140.308 91.708 139.33 94.4142 138.356C95.5645 137.942 95.0686 136.091 93.9056 136.511Z" fill="#512C21"/>
<path d="M175.655 136.432C190.407 141.713 205.25 149.314 215.073 161.907C220.513 168.881 223.724 177.149 226.098 185.594C228.694 194.835 230.62 204.281 231.955 213.786C233.476 224.603 234.165 235.535 234.069 246.458C234.058 247.69 235.972 247.691 235.983 246.458C236.159 226.622 233.695 206.75 228.62 187.57C226.312 178.844 223.319 170.144 218.05 162.724C213.418 156.199 207.387 150.818 200.73 146.424C193.12 141.402 184.729 137.652 176.163 134.585C175.002 134.17 174.501 136.018 175.655 136.43V136.432Z" fill="#512C21"/>
<path d="M108.443 141.835C111.993 148.263 118.461 152.756 125.522 154.527C133.777 156.596 142.826 155.172 150.431 151.51C154.158 149.716 157.605 147.13 159.66 143.47C160.264 142.396 158.611 141.429 158.008 142.505C156.292 145.561 153.519 147.746 150.458 149.36C147.031 151.165 143.239 152.362 139.43 153.032C132.039 154.333 124.253 153.27 117.892 149.151C114.665 147.062 111.954 144.242 110.094 140.871C109.498 139.793 107.845 140.757 108.441 141.836L108.443 141.835Z" fill="#512C21"/>
<path d="M137.149 7.05017C129.852 4.93592 122.097 6.54301 115.539 10.1296C108.64 13.9033 103.315 19.761 99.0832 26.3051C94.6358 33.1851 91.3386 40.7261 87.8307 48.1069C84.0709 56.0156 80.205 64.0209 78.3258 72.6269C76.3929 81.4817 76.6543 91.1099 81.0399 99.2246C81.6262 100.309 83.2787 99.3435 82.6925 98.2594C74.5613 83.214 81.5485 65.8451 88.2189 51.7363C91.6317 44.5187 94.8544 37.1505 98.8994 30.2562C102.699 23.7803 107.395 17.6785 113.706 13.4769C120.395 9.02337 128.729 6.60323 136.64 8.89658C137.825 9.2405 138.331 7.3941 137.149 7.05176V7.05017Z" fill="#512C21"/>
<path d="M83.2548 102.881C84.8646 109.081 90.1723 113.018 95.2044 116.435C96.2264 117.129 97.1833 115.471 96.1693 114.782C91.5603 111.652 86.5773 108.062 85.099 102.371C84.7901 101.179 82.9442 101.684 83.2548 102.879V102.881Z" fill="#512C21"/>
<path d="M93.3616 107.622C96.4417 113.08 101.726 117.139 107.794 118.705C108.987 119.012 109.496 117.167 108.303 116.86C102.695 115.413 97.8597 111.699 95.0141 106.656C94.4089 105.583 92.7563 106.547 93.3616 107.622Z" fill="#512C21"/>
<path d="M108.319 114.384C108.872 114.555 109.426 114.726 109.979 114.899C110.472 115.051 111.022 114.718 111.156 114.23C111.297 113.717 110.984 113.207 110.488 113.053C109.935 112.882 109.38 112.71 108.827 112.538C108.335 112.386 107.785 112.718 107.65 113.206C107.509 113.72 107.823 114.23 108.319 114.384Z" fill="#512C21"/>
<path d="M165.717 117.521C171.644 114.931 176.599 110.297 179.608 104.571C180.18 103.482 178.53 102.513 177.955 103.605C175.079 109.076 170.412 113.395 164.751 115.868C163.626 116.359 164.599 118.009 165.716 117.521H165.717Z" fill="#512C21"/>
<path d="M159.936 113.112C162.629 111.463 165.033 109.39 167.035 106.946C167.81 106.002 166.463 104.64 165.682 105.593C163.778 107.915 161.531 109.891 158.969 111.458C157.92 112.1 158.88 113.757 159.934 113.112H159.936Z" fill="#512C21"/>
<path d="M133.574 69.3652C133.81 70.9834 133.131 72.5588 132.315 73.9138C131.549 75.1818 130.356 76.3419 130.017 77.8222C129.732 79.0679 130.174 80.217 131.011 81.1362C131.803 82.0079 132.909 82.5927 133.558 83.5928C134.227 84.6214 135.884 83.6625 135.211 82.6276C134.564 81.6339 133.636 80.9841 132.777 80.1932C132.422 79.8651 132.041 79.5006 131.898 79.0236C131.701 78.3674 132.039 77.7414 132.383 77.1993C133.189 75.933 134.124 74.7935 134.737 73.4051C135.387 71.9343 135.655 70.4524 135.42 68.8549C135.243 67.6408 133.398 68.1575 133.576 69.3636L133.574 69.3652Z" fill="#512C21"/>
</g>
</g>
<defs>
<clipPath id="clip0_665_1654">
<rect width="279" height="214" fill="white" transform="translate(0.5)"/>
</clipPath>
<clipPath id="clip1_665_1654">
<rect width="220" height="363" fill="white" transform="translate(22 4.68555)"/>
</clipPath>
</defs>
</svg>
