<svg width="221" height="220" viewBox="0 0 221 220" fill="none" xmlns="http://www.w3.org/2000/svg">
<rect x="0.615234" width="220" height="220" rx="110" fill="#A3BD8A"/>
<g filter="url(#filter0_d_376_314)">
<path d="M146.625 72.5H75.375C74.3395 72.5 73.5 73.3395 73.5 74.375V162.5C73.5 163.536 74.3395 164.375 75.375 164.375H146.625C147.661 164.375 148.5 163.536 148.5 162.5V74.375C148.5 73.3395 147.661 72.5 146.625 72.5Z" fill="#E0E0E0"/>
<path d="M139.125 80H82.875C81.8395 80 81 80.8395 81 81.875V155C81 156.036 81.8395 156.875 82.875 156.875H139.125C140.161 156.875 141 156.036 141 155V81.875C141 80.8395 140.161 80 139.125 80Z" fill="#F5F5F5"/>
<path d="M111 53.75C109.011 53.75 107.103 54.5402 105.697 55.9467C104.29 57.3532 103.5 59.2609 103.5 61.25V68.75C103.5 69.2473 103.698 69.7242 104.049 70.0758C104.401 70.4275 104.878 70.625 105.375 70.625H116.625C117.122 70.625 117.599 70.4275 117.951 70.0758C118.302 69.7242 118.5 69.2473 118.5 68.75V61.25C118.5 59.2609 117.71 57.3532 116.303 55.9467C114.897 54.5402 112.989 53.75 111 53.75Z" fill="#B0BEC5"/>
<path d="M126 66.875H96C94.9645 66.875 94.125 67.7145 94.125 68.75V89.375C94.125 90.4105 94.9645 91.25 96 91.25H126C127.036 91.25 127.875 90.4105 127.875 89.375V68.75C127.875 67.7145 127.036 66.875 126 66.875Z" fill="#B0BEC5"/>
<path d="M118.5 119.375H103.5C103.003 119.375 102.526 119.177 102.174 118.826C101.823 118.474 101.625 117.997 101.625 117.5C101.625 117.003 101.823 116.526 102.174 116.174C102.526 115.823 103.003 115.625 103.5 115.625H118.5C118.997 115.625 119.474 115.823 119.826 116.174C120.177 116.526 120.375 117.003 120.375 117.5C120.375 117.997 120.177 118.474 119.826 118.826C119.474 119.177 118.997 119.375 118.5 119.375Z" fill="#64DD17"/>
<path d="M129.75 128.75H92.25C91.7527 128.75 91.2758 128.552 90.9242 128.201C90.5725 127.849 90.375 127.372 90.375 126.875C90.375 126.378 90.5725 125.901 90.9242 125.549C91.2758 125.198 91.7527 125 92.25 125H129.75C130.247 125 130.724 125.198 131.076 125.549C131.427 125.901 131.625 126.378 131.625 126.875C131.625 127.372 131.427 127.849 131.076 128.201C130.724 128.552 130.247 128.75 129.75 128.75Z" fill="#64B5F6"/>
<path d="M129.75 138.125H92.25C91.7527 138.125 91.2758 137.927 90.9242 137.576C90.5725 137.224 90.375 136.747 90.375 136.25C90.375 135.753 90.5725 135.276 90.9242 134.924C91.2758 134.573 91.7527 134.375 92.25 134.375H129.75C130.247 134.375 130.724 134.573 131.076 134.924C131.427 135.276 131.625 135.753 131.625 136.25C131.625 136.747 131.427 137.224 131.076 137.576C130.724 137.927 130.247 138.125 129.75 138.125Z" fill="#64B5F6"/>
<path d="M129.75 147.5H92.25C91.7527 147.5 91.2758 147.302 90.9242 146.951C90.5725 146.599 90.375 146.122 90.375 145.625C90.375 145.128 90.5725 144.651 90.9242 144.299C91.2758 143.948 91.7527 143.75 92.25 143.75H129.75C130.247 143.75 130.724 143.948 131.076 144.299C131.427 144.651 131.625 145.128 131.625 145.625C131.625 146.122 131.427 146.599 131.076 146.951C130.724 147.302 130.247 147.5 129.75 147.5Z" fill="#64B5F6"/>
<path d="M111 113.75C110.753 113.751 110.508 113.704 110.28 113.611C110.052 113.517 109.844 113.38 109.669 113.206L104.044 107.581C103.869 107.406 103.73 107.199 103.635 106.97C103.541 106.742 103.492 106.497 103.492 106.25C103.492 106.003 103.541 105.758 103.635 105.529C103.73 105.301 103.869 105.093 104.044 104.919C104.218 104.744 104.426 104.605 104.654 104.51C104.883 104.416 105.128 104.367 105.375 104.367C105.622 104.367 105.867 104.416 106.095 104.51C106.324 104.605 106.531 104.744 106.706 104.919L110.662 108.875L118.781 95.881C118.912 95.6717 119.082 95.4902 119.283 95.3468C119.483 95.2033 119.71 95.1008 119.951 95.0451C120.191 94.9894 120.44 94.9816 120.683 95.022C120.926 95.0625 121.159 95.1505 121.369 95.281C121.578 95.4115 121.759 95.582 121.903 95.7826C122.046 95.9833 122.149 96.2102 122.204 96.4505C122.26 96.6908 122.268 96.9397 122.228 97.183C122.187 97.4263 122.099 97.6592 121.969 97.8685L112.594 112.869C112.442 113.108 112.239 113.309 111.999 113.459C111.758 113.608 111.487 113.701 111.206 113.731L111 113.75Z" fill="#64DD17"/>
</g>
<defs>
<filter id="filter0_d_376_314" x="59.5" y="41.75" width="103" height="138.625" filterUnits="userSpaceOnUse" color-interpolation-filters="sRGB">
<feFlood flood-opacity="0" result="BackgroundImageFix"/>
<feColorMatrix in="SourceAlpha" type="matrix" values="0 0 0 0 0 0 0 0 0 0 0 0 0 0 0 0 0 0 127 0" result="hardAlpha"/>
<feOffset dy="2"/>
<feGaussianBlur stdDeviation="7"/>
<feComposite in2="hardAlpha" operator="out"/>
<feColorMatrix type="matrix" values="0 0 0 0 0 0 0 0 0 0 0 0 0 0 0 0 0 0 0.25 0"/>
<feBlend mode="normal" in2="BackgroundImageFix" result="effect1_dropShadow_376_314"/>
<feBlend mode="normal" in="SourceGraphic" in2="effect1_dropShadow_376_314" result="shape"/>
</filter>
</defs>
</svg>
