<svg width="221" height="220" viewBox="0 0 221 220" fill="none" xmlns="http://www.w3.org/2000/svg">
<rect x="0.384766" width="220" height="220" rx="110" fill="#A3BD8A"/>
<g filter="url(#filter0_d_376_315)">
<path d="M120.312 133.438H99.6875L100.625 114.688H119.375L120.312 133.438Z" fill="url(#paint0_linear_376_315)"/>
<path d="M119.375 114.688H100.625L100.396 119.264L114.57 133.438H120.313L119.375 114.688Z" fill="url(#paint1_linear_376_315)"/>
<path d="M123.021 130.625H96.9791C79.3906 130.625 65 144.969 65 162.5V168.125H155V162.5C155 144.969 140.609 130.625 123.021 130.625Z" fill="url(#paint2_linear_376_315)"/>
<path d="M65 162.5V168.125H104.375L90.7034 131.25C76.0934 134.177 65 147.108 65 162.5Z" fill="url(#paint3_linear_376_315)"/>
<path d="M90.7034 131.25C88.5481 131.682 86.4725 132.336 84.4953 133.179L82.8125 151.25L90.3125 157.813L83.75 162.5L89.6309 168.125H104.375L90.7034 131.25Z" fill="url(#paint4_linear_376_315)"/>
<path d="M155 162.5V168.125H115.625L129.297 131.25C143.907 134.177 155 147.108 155 162.5Z" fill="url(#paint5_linear_376_315)"/>
<path d="M129.297 131.25C131.452 131.682 133.528 132.336 135.505 133.179L137.286 151.25L129.688 157.813L136.25 162.5L130.369 168.125H115.625L129.297 131.25Z" fill="url(#paint6_linear_376_315)"/>
<path d="M107.725 134.375L112.275 134.417L110 130.625L107.725 134.375Z" fill="url(#paint7_linear_376_315)"/>
<path d="M112.812 142.812H107.188L105.312 168.125H114.688L112.812 142.812Z" fill="url(#paint8_linear_376_315)"/>
<path d="M111.875 133.438H108.125C108.125 133.438 104.364 139.04 104.375 139.062L107.188 142.812H112.813L115.625 139.062C115.604 138.991 111.875 133.438 111.875 133.438Z" fill="url(#paint9_linear_376_315)"/>
<path d="M99.6875 124.062L110 130.625L100.625 144.688L91.25 130.625L99.6875 124.062Z" fill="url(#paint10_linear_376_315)"/>
<path d="M120.312 124.062L110 130.625L119.375 144.688L128.75 130.625L120.312 124.062Z" fill="url(#paint11_linear_376_315)"/>
<path d="M78.125 164.375C78.125 162.822 76.8659 161.562 75.3125 161.562C73.7591 161.562 72.5 162.822 72.5 164.375C72.5 165.928 73.7591 167.188 75.3125 167.188C76.8659 167.188 78.125 165.928 78.125 164.375Z" fill="#4D4D4D"/>
<path d="M87.5 164.375C87.5 162.822 86.2409 161.562 84.6875 161.562C83.1341 161.562 81.875 162.822 81.875 164.375C81.875 165.928 83.1341 167.188 84.6875 167.188C86.2409 167.188 87.5 165.928 87.5 164.375Z" fill="#4D4D4D"/>
<path d="M70.625 162.5H74.375V166.25H70.625V162.5Z" fill="#4D4D4D"/>
<path d="M85.625 162.5H89.375V166.25H85.625V162.5Z" fill="#4D4D4D"/>
<path d="M135.312 143.75H137.188V147.5H135.312V143.75Z" fill="#BCBEC0"/>
<path d="M136.25 157.812C139.357 157.812 141.875 155.294 141.875 152.188C141.875 149.081 139.357 146.562 136.25 146.562C133.143 146.562 130.625 149.081 130.625 152.188C130.625 155.294 133.143 157.812 136.25 157.812Z" fill="#4D4D4D"/>
<path d="M136.25 155C134.699 155 133.438 153.738 133.438 152.188C133.438 150.637 134.699 149.375 136.25 149.375C137.801 149.375 139.062 150.637 139.062 152.188C139.062 153.738 137.801 155 136.25 155ZM136.25 151.25C135.733 151.25 135.312 151.671 135.312 152.188C135.312 152.704 135.733 153.125 136.25 153.125C136.767 153.125 137.188 152.704 137.188 152.188C137.188 151.671 136.767 151.25 136.25 151.25Z" fill="#BCBEC0"/>
<path d="M137.188 143.75H135.313V128.75C135.313 123.493 130.782 119.375 124.997 119.375H89.3751C83.5335 119.375 81.1851 124.244 80.9366 128.802L79.0645 128.699C79.4357 121.896 83.4829 117.5 89.3751 117.5H124.997C131.834 117.5 137.188 122.442 137.188 128.75V143.75Z" fill="#4D4D4D"/>
<path d="M92.9689 165.313H89.3745V163.438H92.9689C93.6523 163.438 94.1717 163.216 94.5129 162.777C95.0164 162.131 95.1383 161.039 94.8392 159.856L89.1729 138.513C88.5148 135.767 88.0976 134.973 87.8642 134.79C87.8295 134.77 87.8154 134.761 87.7845 134.738L81.3504 130.026C80.502 129.574 79.5008 129.574 78.6523 130.026L72.2183 134.738C72.1864 134.761 72.1536 134.782 72.1198 134.801C71.9042 134.972 71.487 135.767 70.8289 138.512L70.7183 138.961L65.157 159.867C64.8617 161.039 64.9826 162.131 65.4861 162.777C65.8273 163.216 66.3467 163.438 67.0301 163.438H70.6245V165.313H67.0301C65.757 165.313 64.7117 164.835 64.0067 163.929C63.1386 162.814 62.8958 161.161 63.342 159.397L69.0036 138.076C69.6364 135.437 70.1942 133.783 71.1458 133.199L77.5929 128.477C77.6239 128.455 77.6567 128.433 77.6904 128.415C79.1361 127.611 80.862 127.611 82.3076 128.415C82.3414 128.434 82.3742 128.455 82.4051 128.477L88.8523 133.199C89.8048 133.783 90.3617 135.437 90.9945 138.076L91.0976 138.501L96.6533 159.386C97.1023 161.162 96.8604 162.814 95.9914 163.929C95.2873 164.835 94.242 165.313 92.9689 165.313Z" fill="#BCBEC0"/>
<path d="M90.0427 141.821L89.1727 138.513C88.5146 135.767 88.0974 134.973 87.8639 134.79C87.8293 134.77 87.8152 134.761 87.7843 134.738L81.3502 130.026C80.5018 129.574 79.5005 129.574 78.6521 130.026L72.218 134.738C72.1861 134.761 72.1533 134.782 72.1196 134.801C71.9039 134.972 71.4868 135.767 70.8286 138.512L70.7189 138.961L69.9577 141.821L68.1455 141.339L69.0043 138.076C69.6371 135.437 70.1949 133.783 71.1464 133.199L77.5936 128.477C77.6246 128.455 77.6574 128.433 77.6911 128.415C79.1368 127.611 80.8627 127.611 82.3083 128.415C82.3421 128.434 82.3749 128.455 82.4058 128.477L88.853 133.199C89.8046 133.783 90.3624 135.437 90.9952 138.076L91.0983 138.501L91.8539 141.339L90.0427 141.821Z" fill="#4D4D4D"/>
<path d="M88.9491 91.6656C90.1322 95.7277 88.7625 99.6746 85.8909 100.48C83.0194 101.286 79.7325 98.6462 78.5494 94.584C77.3663 90.5218 78.7359 86.5749 81.6075 85.7696C84.48 84.9643 87.7669 87.6034 88.9491 91.6656Z" fill="url(#paint12_linear_376_315)"/>
<path d="M131.05 91.6656C129.867 95.7277 131.237 99.6746 134.108 100.48C136.98 101.286 140.267 98.6462 141.45 94.584C142.633 90.5218 141.263 86.5749 138.392 85.7696C135.519 84.9643 132.233 87.6034 131.05 91.6656Z" fill="url(#paint13_linear_376_315)"/>
<path d="M88.7388 92.286C89.3097 94.3045 88.3797 96.3154 86.6604 96.7795C84.941 97.2426 83.0838 95.9826 82.5129 93.9651C81.9419 91.9467 82.8719 89.9357 84.5913 89.4717C86.3107 89.0076 88.1669 90.2676 88.7388 92.286Z" fill="url(#paint14_linear_376_315)"/>
<path d="M131.262 92.286C130.691 94.3045 131.621 96.3154 133.34 96.7795C135.06 97.2426 136.917 95.9826 137.488 93.9651C138.059 91.9467 137.129 89.9357 135.409 89.4717C133.69 89.0076 131.834 90.2676 131.262 92.286Z" fill="url(#paint15_linear_376_315)"/>
<path d="M110 121.25C96.5938 121.25 85.625 110.281 85.625 96.875V81.875C85.625 68.4688 96.5938 57.5 110 57.5C123.406 57.5 134.375 68.4688 134.375 81.875V96.875C134.375 110.281 123.406 121.25 110 121.25Z" fill="url(#paint16_linear_376_315)"/>
<path d="M100.872 93.125H100.378C99.4822 93.125 98.75 92.3928 98.75 91.4966V89.1275C98.75 88.2322 99.4822 87.5 100.378 87.5H100.872C101.768 87.5 102.5 88.2322 102.5 89.1284V91.4975C102.5 92.3928 101.768 93.125 100.872 93.125Z" fill="#51251F"/>
<path d="M119.622 93.125H119.128C118.232 93.125 117.5 92.3928 117.5 91.4966V89.1275C117.5 88.2322 118.232 87.5 119.128 87.5H119.622C120.518 87.5 121.25 88.2322 121.25 89.1284V91.4975C121.25 92.3928 120.518 93.125 119.622 93.125Z" fill="#51251F"/>
<path d="M110.148 104.375H109.852C108.387 104.375 107.188 103.176 107.188 101.711V93.9144C107.188 92.4491 108.387 91.25 109.852 91.25H110.148C111.613 91.25 112.812 92.4491 112.812 93.9144V101.711C112.812 103.176 111.613 104.375 110.148 104.375Z" fill="url(#paint17_linear_376_315)"/>
<path d="M103.438 84.6875H97.8125C97.295 84.6875 96.875 84.2675 96.875 83.75C96.875 83.2325 97.295 82.8125 97.8125 82.8125H103.438C103.955 82.8125 104.375 83.2325 104.375 83.75C104.375 84.2675 103.955 84.6875 103.438 84.6875Z" fill="#7A5954"/>
<path d="M122.188 84.6875H116.562C116.045 84.6875 115.625 84.2675 115.625 83.75C115.625 83.2325 116.045 82.8125 116.562 82.8125H122.188C122.705 82.8125 123.125 83.2325 123.125 83.75C123.125 84.2675 122.705 84.6875 122.188 84.6875Z" fill="#7A5954"/>
<path d="M109.934 110.645C106.607 110.645 103.677 109.834 102.286 108.528C101.909 108.174 101.89 107.58 102.244 107.203C102.599 106.826 103.193 106.808 103.57 107.161C104.423 107.962 106.722 108.77 109.935 108.77C112.44 108.77 114.826 108.228 116.015 107.39C116.437 107.092 117.023 107.192 117.322 107.616C117.62 108.039 117.519 108.624 117.096 108.923C115.565 110 112.889 110.645 109.934 110.645Z" fill="#F09890"/>
<path d="M86.5625 68.75C85.9325 70.6213 85.625 72.7831 85.625 75.1363V85.625L95 74.375L86.5625 68.75Z" fill="url(#paint18_linear_376_315)"/>
<path d="M111.875 55.6249C108.989 55.5827 99.6397 56.5202 98.75 56.5624C84.9303 57.2159 81.875 55.6249 81.875 55.6249C83.2222 68.824 90.4766 73.1252 93.125 74.3749C96.4053 75.9218 100.613 76.2499 103.438 76.2499C111.155 76.2499 124.062 73.4374 124.062 73.4374L134.375 85.6249V76.2499C134.375 73.309 134.126 55.954 111.875 55.6249Z" fill="url(#paint19_linear_376_315)"/>
</g>
<defs>
<filter id="filter0_d_376_315" x="49.123" y="43.6235" width="119.877" height="140.501" filterUnits="userSpaceOnUse" color-interpolation-filters="sRGB">
<feFlood flood-opacity="0" result="BackgroundImageFix"/>
<feColorMatrix in="SourceAlpha" type="matrix" values="0 0 0 0 0 0 0 0 0 0 0 0 0 0 0 0 0 0 127 0" result="hardAlpha"/>
<feOffset dy="2"/>
<feGaussianBlur stdDeviation="7"/>
<feComposite in2="hardAlpha" operator="out"/>
<feColorMatrix type="matrix" values="0 0 0 0 0 0 0 0 0 0 0 0 0 0 0 0 0 0 0.25 0"/>
<feBlend mode="normal" in2="BackgroundImageFix" result="effect1_dropShadow_376_315"/>
<feBlend mode="normal" in="SourceGraphic" in2="effect1_dropShadow_376_315" result="shape"/>
</filter>
<linearGradient id="paint0_linear_376_315" x1="100.391" y1="114.922" x2="119.609" y2="134.141" gradientUnits="userSpaceOnUse">
<stop stop-color="#F9DDD1"/>
<stop offset="0.5137" stop-color="#F8DBCE"/>
<stop offset="0.8222" stop-color="#F6D3C6"/>
<stop offset="1" stop-color="#F4CABD"/>
</linearGradient>
<linearGradient id="paint1_linear_376_315" x1="104.067" y1="111.556" x2="123.217" y2="130.114" gradientUnits="userSpaceOnUse">
<stop stop-color="#EEAE9A"/>
<stop offset="0.3161" stop-color="#EFB4A0"/>
<stop offset="0.7381" stop-color="#F4C3B1"/>
<stop offset="1" stop-color="#F7D0BF"/>
</linearGradient>
<linearGradient id="paint2_linear_376_315" x1="110" y1="168.125" x2="110" y2="130.625" gradientUnits="userSpaceOnUse">
<stop stop-color="#D0E3FF"/>
<stop offset="1" stop-color="#BFE6FF"/>
</linearGradient>
<linearGradient id="paint3_linear_376_315" x1="84.6875" y1="168.125" x2="84.6875" y2="131.25" gradientUnits="userSpaceOnUse">
<stop stop-color="#D0E3FF"/>
<stop offset="1" stop-color="#BFE6FF"/>
</linearGradient>
<linearGradient id="paint4_linear_376_315" x1="93.5938" y1="131.25" x2="93.5938" y2="168.125" gradientUnits="userSpaceOnUse">
<stop stop-color="#F1F7FF"/>
<stop offset="1" stop-color="#E7F4FF"/>
</linearGradient>
<linearGradient id="paint5_linear_376_315" x1="135.313" y1="168.125" x2="135.313" y2="131.25" gradientUnits="userSpaceOnUse">
<stop stop-color="#D0E3FF"/>
<stop offset="1" stop-color="#BFE6FF"/>
</linearGradient>
<linearGradient id="paint6_linear_376_315" x1="126.456" y1="131.25" x2="126.456" y2="168.125" gradientUnits="userSpaceOnUse">
<stop stop-color="#F1F7FF"/>
<stop offset="1" stop-color="#E7F4FF"/>
</linearGradient>
<linearGradient id="paint7_linear_376_315" x1="110" y1="130.625" x2="110" y2="134.418" gradientUnits="userSpaceOnUse">
<stop stop-color="#D0E3FF"/>
<stop offset="1" stop-color="#BFE6FF"/>
</linearGradient>
<linearGradient id="paint8_linear_376_315" x1="110" y1="143.014" x2="110" y2="173.759" gradientUnits="userSpaceOnUse">
<stop stop-color="#198DC4"/>
<stop offset="1" stop-color="#12639B"/>
</linearGradient>
<linearGradient id="paint9_linear_376_315" x1="110" y1="142.263" x2="110" y2="133.746" gradientUnits="userSpaceOnUse">
<stop stop-color="#198DC4"/>
<stop offset="1" stop-color="#198DC4"/>
</linearGradient>
<linearGradient id="paint10_linear_376_315" x1="100.625" y1="122.877" x2="100.625" y2="147.698" gradientUnits="userSpaceOnUse">
<stop stop-color="#F1F7FF"/>
<stop offset="1" stop-color="#E7F4FF"/>
</linearGradient>
<linearGradient id="paint11_linear_376_315" x1="119.375" y1="118.036" x2="119.375" y2="144.623" gradientUnits="userSpaceOnUse">
<stop stop-color="#F1F7FF"/>
<stop offset="1" stop-color="#E7F4FF"/>
</linearGradient>
<linearGradient id="paint12_linear_376_315" x1="78.1247" y1="93.1252" x2="89.3747" y2="93.1252" gradientUnits="userSpaceOnUse">
<stop stop-color="#F9DDD1"/>
<stop offset="0.5137" stop-color="#F8DBCE"/>
<stop offset="0.8222" stop-color="#F6D3C6"/>
<stop offset="1" stop-color="#F4CABD"/>
</linearGradient>
<linearGradient id="paint13_linear_376_315" x1="141.875" y1="93.1252" x2="130.625" y2="93.1252" gradientUnits="userSpaceOnUse">
<stop stop-color="#F9DDD1"/>
<stop offset="0.5137" stop-color="#F8DBCE"/>
<stop offset="0.8222" stop-color="#F6D3C6"/>
<stop offset="1" stop-color="#F4CABD"/>
</linearGradient>
<linearGradient id="paint14_linear_376_315" x1="82.4198" y1="94.0166" x2="88.6357" y2="92.3014" gradientUnits="userSpaceOnUse">
<stop stop-color="#F7D0BF"/>
<stop offset="1" stop-color="#F1BEAE"/>
</linearGradient>
<linearGradient id="paint15_linear_376_315" x1="137.636" y1="93.3557" x2="131.42" y2="91.6405" gradientUnits="userSpaceOnUse">
<stop stop-color="#F7D0BF"/>
<stop offset="1" stop-color="#F1BEAE"/>
</linearGradient>
<linearGradient id="paint16_linear_376_315" x1="89.0356" y1="68.4106" x2="130.965" y2="110.34" gradientUnits="userSpaceOnUse">
<stop stop-color="#F9DDD1"/>
<stop offset="0.5137" stop-color="#F8DBCE"/>
<stop offset="0.8222" stop-color="#F6D3C6"/>
<stop offset="1" stop-color="#F4CABD"/>
</linearGradient>
<linearGradient id="paint17_linear_376_315" x1="110" y1="91.25" x2="110" y2="104.375" gradientUnits="userSpaceOnUse">
<stop stop-color="#F7D0BF"/>
<stop offset="1" stop-color="#EEAE9A"/>
</linearGradient>
<linearGradient id="paint18_linear_376_315" x1="81.4306" y1="78.9228" x2="91.5828" y2="75.1447" gradientUnits="userSpaceOnUse">
<stop stop-color="#AC766A"/>
<stop offset="1" stop-color="#93634D"/>
</linearGradient>
<linearGradient id="paint19_linear_376_315" x1="83.6891" y1="53.1021" x2="135.937" y2="80.7762" gradientUnits="userSpaceOnUse">
<stop stop-color="#AC766A"/>
<stop offset="1" stop-color="#93634D"/>
</linearGradient>
</defs>
</svg>
