<svg width="280" height="214" viewBox="0 0 280 214" fill="none" xmlns="http://www.w3.org/2000/svg">
<g clip-path="url(#clip0_661_4240)">
<path d="M1.5 134.08C1.5 188.756 63.2842 215 139.5 215C215.716 215 277.5 188.756 277.5 134.08C277.5 79.4042 243.777 17 139.5 17C41.5189 17 1.5 79.4042 1.5 134.08Z" fill="#C7D8B8"/>
<g clip-path="url(#clip1_661_4240)">
<path fill-rule="evenodd" clip-rule="evenodd" d="M222.933 77.4713C222.317 73.967 220.472 62.421 216.779 53.1448C211.652 40.5698 204.472 30.0549 204.472 30.0549C204.472 30.0549 193.602 15.2121 182.73 9.4402C173.09 4.28652 160.987 6.34884 159.553 6.75961C152.989 9.02731 149.091 10.0585 144.17 11.5004C140.069 12.5316 134.12 12.3241 130.018 16.2412C123.25 22.6314 117.096 36.4451 111.353 47.989C106.022 58.5039 101.303 66.5435 100.483 68.8112C96.7904 78.0874 100.279 84.4798 102.944 91.0754C103.559 92.9302 103.763 97.0527 107.661 100.559C110.121 102.827 113.608 104.063 116.685 106.331C118.12 107.568 118.12 111.485 118.12 111.485C118.12 111.485 121.196 112.103 123.454 109.01C124.48 107.568 125.095 111.895 127.147 113.545C131.863 117.462 138.632 117.667 138.632 117.667L182.73 116.844C182.73 116.844 189.294 117.875 194.83 114.989C200.369 112.103 205.085 105.505 205.085 105.505C205.085 105.505 209.187 109.422 211.443 107.36C212.469 106.329 210.417 103.856 211.239 101.794C213.906 94.3721 224.367 85.9196 222.93 77.4671L222.933 77.4713Z" fill="#FFCE7E"/>
<path fill-rule="evenodd" clip-rule="evenodd" d="M199.96 85.3056C199.96 85.3056 194.217 79.9465 187.653 72.9359C185.397 70.4628 182.115 65.5145 182.115 65.5145C182.115 65.5145 178.628 59.3297 178.013 54.3814C177.602 50.8772 176.372 44.2794 172.886 40.7752C169.399 37.0634 164.065 35.8269 159.553 36.2398C155.656 36.6527 148.476 39.5387 146.016 42.4246C141.503 48.1966 138.221 60.5663 134.735 65.9274C128.581 75.6165 127.145 75.6165 123.25 79.5337C120.789 82.0067 119.557 84.6873 119.557 84.6873L124.48 89.4281L129.812 91.4904C129.812 91.4904 130.838 97.8807 133.298 103.447C135.759 109.014 139.452 112.518 139.452 112.518C139.452 112.518 140.033 122.472 138.794 129.489C139.458 129.984 140.079 130.541 140.654 131.142C141.687 132.227 142.565 133.438 143.553 134.56C144.526 135.665 145.506 136.758 146.437 137.899C147.341 139.006 148.228 140.129 149.142 141.23C150.992 143.457 152.97 145.623 155.3 147.353C157.366 148.886 159.702 150.239 161.192 152.405C161.826 153.328 162.492 156.566 162.713 157.639L164.329 155.407C164.725 153.733 165.148 152.068 165.968 150.548C168.308 146.201 172.443 143.184 175.835 139.73C177.775 137.755 179.717 135.648 181.234 133.319C181.805 132.44 182.351 131.543 182.972 130.698C183.023 130.628 183.075 130.556 183.13 130.484C181.761 123.698 182.321 113.549 182.321 113.549C182.321 113.549 186.834 109.014 189.705 103.447C192.576 97.8807 193.602 91.0776 193.602 91.0776C193.602 91.0776 196.678 90.8722 199.14 88.8099C201.397 86.5421 199.962 85.3056 199.962 85.3056H199.96Z" fill="#FFDDC0"/>
<path fill-rule="evenodd" clip-rule="evenodd" d="M145.605 78.9217C143.7 78.9217 142.316 77.2722 142.316 74.9982C142.316 72.7241 143.698 71.0747 145.605 71.0747C147.387 71.0747 148.891 72.8702 148.891 74.9982C148.891 77.2701 147.509 78.9217 145.605 78.9217Z" fill="#671915"/>
<path fill-rule="evenodd" clip-rule="evenodd" d="M145.605 71.2864C143.76 71.2864 142.529 72.9358 142.529 74.9981C142.529 77.0604 143.76 78.7099 145.605 78.7099C147.45 78.7099 148.681 77.0604 148.681 74.9981C148.681 72.9358 147.244 71.2864 145.605 71.2864Z" fill="#671915"/>
<path fill-rule="evenodd" clip-rule="evenodd" d="M175.756 78.9217C173.974 78.9217 172.468 77.1262 172.468 74.9982C172.468 72.8702 173.974 71.0747 175.756 71.0747C177.538 71.0747 179.043 72.8702 179.043 74.9982C179.043 77.1262 177.536 78.9217 175.756 78.9217Z" fill="#671915"/>
<path fill-rule="evenodd" clip-rule="evenodd" d="M175.756 71.2864C174.115 71.2864 172.679 72.9358 172.679 74.9981C172.679 77.0604 174.115 78.7099 175.756 78.7099C177.398 78.7099 178.832 77.0604 178.832 74.9981C178.832 72.9358 177.398 71.2864 175.756 71.2864Z" fill="#671915"/>
<path d="M224.717 295.503C225.089 289.162 225.397 281.344 226.889 272.996L229.237 285.363C229.067 290.993 230.223 294.233 231.005 294.777C231.005 294.777 245.926 327.412 259.052 307.337C275.77 281.77 275.49 270.486 274.591 265.843C269.585 240.009 262.844 203.978 258.726 175.539C257.245 165.306 248.317 157.686 238.936 153.44C230.792 149.754 221.489 147.071 213.212 143.946C209.686 142.843 202.785 141.386 201.832 140.994C199.684 138.778 197.535 136.559 195.243 134.492C193.547 132.963 190.366 129.474 188.074 129.442C188.163 130.393 188.283 131.333 188.411 132.271C189.182 134.096 189.549 136.304 189.408 139.015C189.408 139.252 189.401 139.489 189.401 139.726C189.519 140.975 189.593 142.235 189.582 143.518C189.561 146.436 189.323 149.35 189.087 152.259C188.19 163.265 186.856 172.903 183.524 183.386C183.134 185.211 183.126 188.553 182.709 190.374C178.841 207.266 173.928 223.995 169.738 240.625C167.954 246.962 165.426 253.319 161.253 258.379C161.415 258.718 161.533 259.089 161.379 259.419C161.187 259.83 160.378 259.754 160.456 259.309C160.728 259.004 160.994 258.695 161.253 258.379C161.213 258.297 161.171 258.216 161.128 258.138C155.946 248.54 153.45 238.523 150.109 228.133C145.752 214.584 142.51 203.726 139.938 190.374C139.27 186.903 138.644 183.266 138.059 179.365C136.692 170.273 131.838 153.534 133.18 138.439C133.283 134.824 133.603 131.221 134.212 127.668C130.269 132.275 126.007 136.609 121.478 140.634L121.663 139.593C120.711 139.984 115.438 141.433 111.912 142.538C103.635 145.665 94.3339 148.346 86.1876 152.032C76.8069 156.28 69.6591 164.324 66.3981 174.131C58.3108 198.462 38.1905 268.416 41.2893 280.392C45.9428 298.368 56.6971 301.766 68.0117 305.556C79.2611 309.325 86.3772 313.795 90.2134 309.308C91.2709 308.072 92.0651 305.751 92.6528 303.255C91.5511 303.388 90.4514 303.526 89.3518 303.67C88.3532 303.801 87.42 304.064 86.451 304.333C85.1006 304.707 83.0888 305.379 81.8796 304.307C80.7357 303.293 80.8916 301.32 80.6746 299.943C80.2933 297.536 80.1185 295.101 80.0384 292.666C79.971 290.555 79.8994 288.418 80.1121 286.314C80.4829 282.644 81.5552 279.03 83.2426 275.754C84.4117 273.483 85.9222 271.35 87.7802 269.595C87.5506 269.561 87.3189 269.525 87.0914 269.481C86.0149 269.271 84.8099 268.816 84.536 267.617C84.3865 266.963 84.5044 266.267 84.6709 265.625C84.9447 264.568 85.1764 263.512 85.4967 262.466C86.1413 260.355 86.6637 258.218 87.2199 256.082C87.7486 254.051 88.2584 251.995 88.4522 249.899C88.4122 249.844 88.3785 249.785 88.3364 249.732C88.0815 249.408 88.5344 248.949 88.7914 249.275C88.8019 249.287 88.8104 249.302 88.8209 249.317C88.9852 249.313 89.1453 249.414 89.1285 249.626C89.1264 249.664 89.1179 249.7 89.1158 249.738C89.7963 250.829 90.0722 252.131 90.2492 253.399C90.4388 254.761 90.4957 256.135 90.6663 257.499C90.8496 258.951 91.3467 260.306 91.9408 261.636C93.072 264.175 94.7489 266.876 94.593 269.762C94.5846 269.936 94.4519 270.084 94.2728 270.084C94.2307 270.084 94.1907 270.08 94.1506 270.08C94.3781 270.328 94.6099 270.573 94.8353 270.821C95.4862 271.537 96.0866 272.301 96.4616 273.201C96.7965 274.003 96.9566 274.897 97.1399 275.746C97.4433 277.148 97.7782 278.689 97.7235 280.167C99.2529 285.867 100.045 290.218 100.504 295.065C101.204 302.438 99.7711 341.393 99.71 342.996H224.615C224.603 341.384 224.331 302.097 224.719 295.499L224.717 295.503Z" fill="white"/>
<path d="M184.294 124.547C184.459 125.514 183.624 128.593 183.86 129.427C183.707 129.705 183.553 129.978 183.395 130.249C182.087 132.525 180.606 134.699 179.045 136.808C178.406 137.67 177.758 138.526 177.079 139.356C176.026 140.645 174.859 141.848 173.719 143.059C171.503 145.411 169.171 147.747 167.469 150.518C167.176 150.993 166.917 151.482 166.668 151.975C166.312 152.35 165.956 152.731 165.678 153.157C164.937 154.291 164.233 155.467 163.342 156.491C162.737 154.414 161.398 152.648 159.858 151.166C158.038 149.411 155.939 147.969 153.85 146.561C151.876 145.231 150.214 142.646 148.412 141.081C147.311 140.122 146.04 139.396 145.196 138.21C144.319 136.98 143.5 136.522 142.722 135.227C141.322 132.893 139.946 130.507 138.206 128.413C138.433 127.473 136.982 125.872 136.082 126.094C134.454 129.929 133.563 134.117 133.179 138.439C131.838 153.533 136.691 170.273 138.058 179.365C138.644 183.266 139.27 186.903 139.937 190.374C142.512 203.726 145.754 214.584 150.108 228.133C153.449 238.523 155.946 248.54 161.128 258.138C161.17 258.216 161.212 258.297 161.252 258.379C165.428 253.319 167.955 246.962 169.738 240.625C173.926 223.995 178.838 207.266 182.708 190.374C183.125 188.553 183.528 186.73 183.917 184.904C187.109 169.992 189.336 154.948 189.401 139.728C189.401 139.491 189.407 139.254 189.407 139.017C189.548 136.307 189.182 134.098 188.411 132.273C187.364 129.8 186.595 125.881 184.292 124.551L184.294 124.547Z" fill="#91ADC9"/>
<path fill-rule="evenodd" clip-rule="evenodd" d="M150.399 98.4521C150.399 98.4521 152.955 108.925 161.605 109.318C169.86 109.714 172.81 98.4521 172.81 98.4521C172.81 98.4521 167.109 99.441 161.605 99.441C156.1 99.441 150.399 98.4521 150.399 98.4521Z" fill="white"/>
<path d="M161.571 124.413C161.274 124.405 154.204 124.119 144.042 117.24C137.21 112.662 134.793 107.801 133.35 104.896L133.256 104.705C131.16 100.491 129.438 94.9121 127.842 87.1498C127.789 86.8979 127.84 86.6374 127.981 86.4215C128.122 86.2055 128.339 86.0573 128.59 86.0043C128.655 85.9895 128.722 85.9832 128.788 85.9832C129.24 85.9832 129.636 86.3092 129.727 86.756C131.29 94.3489 132.959 99.7757 134.979 103.837L135.074 104.027C136.519 106.937 138.703 111.334 145.112 115.628C154.712 122.127 161.564 122.474 161.632 122.476C162.161 122.495 162.58 122.942 162.563 123.475C162.546 124.009 162.121 124.413 161.573 124.413H161.566H161.571Z" fill="#671915"/>
<path d="M161.575 124.202C161.286 124.193 154.271 123.91 144.157 117.064C137.372 112.518 134.973 107.686 133.538 104.8L133.443 104.61C131.355 100.413 129.641 94.8507 128.046 87.1075C127.962 86.6988 128.225 86.2987 128.632 86.214C128.684 86.2034 128.737 86.197 128.788 86.197C129.141 86.197 129.449 86.4511 129.521 86.8026C131.088 94.4145 132.763 99.8583 134.789 103.934L134.884 104.125C136.34 107.053 138.539 111.481 144.994 115.806C154.678 122.362 161.556 122.686 161.623 122.69C162.038 122.705 162.365 123.054 162.352 123.471C162.34 123.888 162.005 124.204 161.573 124.204L161.575 124.202Z" fill="#671915"/>
<path d="M161.809 124.413C161.278 124.413 160.844 123.979 160.844 123.446C160.844 122.912 161.273 122.478 161.804 122.476C161.861 122.476 167.743 122.296 177.28 116.037C184.21 111.394 187.233 106.416 188.419 103.862C190.448 99.784 192.119 94.3508 193.682 86.7579C193.774 86.3112 194.17 85.9851 194.625 85.9851C194.691 85.9851 194.756 85.9915 194.819 86.0063C195.072 86.0592 195.289 86.2074 195.43 86.4234C195.571 86.6394 195.62 86.8977 195.569 87.1518C193.97 94.9162 192.249 100.493 190.155 104.705C188.891 107.43 185.67 112.742 178.341 117.652C168.16 124.335 162.063 124.413 161.809 124.413Z" fill="#671915"/>
<path d="M161.809 124.202C161.394 124.202 161.055 123.863 161.055 123.446C161.055 123.029 161.392 122.69 161.805 122.688C161.866 122.688 167.766 122.533 177.394 116.215C184.369 111.542 187.415 106.526 188.609 103.953C190.642 99.8645 192.321 94.4144 193.888 86.8024C193.96 86.4531 194.27 86.199 194.626 86.199C194.676 86.199 194.727 86.2032 194.777 86.2138C194.975 86.254 195.144 86.3705 195.253 86.5399C195.363 86.7093 195.403 86.9104 195.361 87.1094C193.766 94.8548 192.051 100.417 189.964 104.612C188.704 107.324 185.508 112.596 178.222 117.479C168.095 124.127 162.057 124.204 161.805 124.204L161.809 124.202Z" fill="#671915"/>
<path d="M128.992 92.2526C128.943 92.2526 128.895 92.2484 128.844 92.242C125.779 91.7677 121.642 89.1909 119.31 84.503C119.072 84.0245 119.266 83.4422 119.74 83.203C119.874 83.1352 120.02 83.1013 120.169 83.1013C120.538 83.1013 120.869 83.3067 121.033 83.637C123.058 87.7066 126.563 89.9298 129.137 90.3279C129.662 90.4084 130.024 90.9038 129.944 91.4332C129.872 91.9011 129.464 92.2547 128.992 92.2547V92.2526Z" fill="#671915"/>
<path d="M128.992 92.0408C128.954 92.0408 128.916 92.0387 128.876 92.0323C125.863 91.5665 121.796 89.0278 119.495 84.4077C119.31 84.035 119.461 83.5777 119.832 83.3913C119.938 83.3384 120.051 83.313 120.167 83.313C120.456 83.313 120.713 83.4739 120.841 83.7301C122.899 87.8675 126.472 90.1288 129.101 90.5353C129.512 90.5989 129.794 90.9863 129.731 91.3992C129.674 91.7655 129.356 92.0408 128.988 92.0408H128.992Z" fill="#671915"/>
<path d="M126.327 82.5635C126.003 82.5635 125.703 82.4026 125.524 82.1316C125.512 82.1125 124.305 80.2937 123.708 79.4955C123.39 79.0678 123.477 78.4601 123.902 78.1382C124.071 78.0112 124.271 77.9456 124.479 77.9456C124.787 77.9456 125.067 78.0874 125.25 78.333C125.849 79.1334 126.995 80.8569 127.123 81.0517C127.269 81.2719 127.321 81.5303 127.271 81.7843C127.22 82.0384 127.075 82.2565 126.86 82.4005C126.702 82.5064 126.517 82.5635 126.327 82.5635Z" fill="#671915"/>
<path d="M126.327 82.3517C126.075 82.3517 125.841 82.2247 125.7 82.0151C125.687 81.996 124.478 80.173 123.877 79.3684C123.629 79.0338 123.696 78.5595 124.029 78.3076C124.16 78.208 124.318 78.1572 124.48 78.1572C124.72 78.1572 124.939 78.2673 125.082 78.46C125.71 79.3006 126.94 81.1554 126.953 81.1745C127.065 81.3418 127.105 81.545 127.065 81.7419C127.025 81.9388 126.911 82.1104 126.745 82.2226C126.62 82.3052 126.477 82.3496 126.327 82.3496V82.3517Z" fill="#671915"/>
<path d="M194.214 92.2527C193.724 92.2527 193.313 91.8821 193.258 91.3909C193.199 90.8594 193.582 90.3809 194.109 90.3216C195.548 90.1607 197.815 89.1825 199.86 86.9211C200.043 86.72 200.302 86.6035 200.574 86.6035C200.814 86.6035 201.044 86.6924 201.221 86.8555C201.615 87.2154 201.644 87.8274 201.286 88.2233C199.272 90.4487 196.603 91.9901 194.322 92.2463C194.286 92.2505 194.25 92.2527 194.214 92.2527Z" fill="#671915"/>
<path d="M194.214 92.0409C193.831 92.0409 193.509 91.7508 193.467 91.3675C193.42 90.9525 193.719 90.5778 194.132 90.5312C195.609 90.366 197.933 89.3687 200.016 87.0629C200.159 86.9062 200.362 86.8152 200.574 86.8152C200.762 86.8152 200.941 86.8851 201.08 87.0121C201.388 87.2937 201.411 87.7722 201.131 88.0814C199.15 90.2707 196.532 91.7847 194.299 92.0345C194.271 92.0366 194.242 92.0387 194.214 92.0387V92.0409Z" fill="#671915"/>
<path d="M162.013 92.871C161.781 92.871 161.558 92.7863 161.381 92.6338C161.187 92.4644 161.069 92.2294 161.05 91.9711C161.031 91.7128 161.115 91.4629 161.284 91.2681C162.577 89.769 163.205 88.6383 163.15 87.9121C163.108 87.3489 162.607 86.8936 161.79 86.1928C160.755 85.3077 159.47 84.2067 159.021 82.2227C157.907 77.9732 160.477 71.3839 161.56 69.2051C161.724 68.8748 162.055 68.6694 162.424 68.6694C162.573 68.6694 162.719 68.7033 162.853 68.7711C163.329 69.0103 163.521 69.5926 163.285 70.0711C162.12 72.4129 160.001 78.3522 160.894 81.7611C161.208 83.1501 162.099 83.9124 163.041 84.7191C163.989 85.53 164.968 86.3706 165.074 87.766C165.173 89.0809 164.454 90.5524 162.742 92.5385C162.558 92.7503 162.293 92.8731 162.013 92.8731V92.871Z" fill="#671915"/>
<path d="M162.013 92.6592C161.831 92.6592 161.657 92.5935 161.52 92.475C161.368 92.3416 161.275 92.1595 161.263 91.9562C161.248 91.755 161.313 91.5602 161.446 91.4057C162.796 89.8388 163.422 88.6912 163.363 87.8951C163.315 87.2493 162.786 86.7665 161.928 86.0318C160.919 85.1679 159.662 84.0902 159.23 82.1761C158.13 77.9816 160.677 71.4601 161.751 69.3003C161.88 69.042 162.139 68.8811 162.426 68.8811C162.544 68.8811 162.655 68.9086 162.76 68.9616C163.131 69.1479 163.283 69.6031 163.098 69.9779C161.92 72.343 159.784 78.35 160.692 81.8161C161.02 83.2665 161.935 84.0499 162.906 84.8821C163.82 85.6655 164.766 86.4764 164.865 87.7829C164.96 89.0363 164.256 90.4613 162.584 92.4008C162.44 92.566 162.234 92.6613 162.015 92.6613L162.013 92.6592Z" fill="#671915"/>
<path d="M140.275 60.2971C139.963 60.2971 139.668 60.1447 139.487 59.8885C139.182 59.4544 139.283 58.8489 139.712 58.5418C139.814 58.4699 142.209 56.7781 145.807 56.7781C147.448 56.7781 149.093 57.1296 150.703 57.8219C151.191 58.0337 151.419 58.6032 151.208 59.0945C151.057 59.4523 150.709 59.6831 150.321 59.6831C150.191 59.6831 150.062 59.6577 149.942 59.6048C148.577 59.0161 147.18 58.7176 145.794 58.7176C142.845 58.7176 140.909 60.0664 140.829 60.1235C140.667 60.2379 140.475 60.2993 140.275 60.2993V60.2971Z" fill="#671915"/>
<path d="M140.274 60.0855C140.03 60.0855 139.8 59.9669 139.659 59.7658C139.421 59.427 139.499 58.9548 139.834 58.7134C139.933 58.6436 142.272 56.9878 145.806 56.9878C147.418 56.9878 149.036 57.3329 150.62 58.0147C151.001 58.1799 151.18 58.6245 151.016 59.0078C150.896 59.2873 150.624 59.4672 150.323 59.4672C150.222 59.4672 150.121 59.4461 150.026 59.4058C148.633 58.8066 147.209 58.5017 145.796 58.5017C142.777 58.5017 140.793 59.8865 140.708 59.9458C140.582 60.0347 140.432 60.0834 140.274 60.0834V60.0855Z" fill="#671915"/>
<path d="M181.293 60.0918C181.093 60.0918 180.899 60.0304 180.737 59.9139C180.661 59.861 178.82 58.5821 176.001 58.5821C174.547 58.5821 173.083 58.9209 171.649 59.59C171.52 59.6492 171.383 59.681 171.242 59.681C170.869 59.681 170.526 59.4608 170.368 59.1199C170.145 58.635 170.353 58.0591 170.836 57.8325C172.529 57.0428 174.263 56.6426 175.988 56.6426C179.454 56.6426 181.756 58.2666 181.853 58.3365C182.285 58.6477 182.386 59.2533 182.076 59.6874C181.895 59.9414 181.602 60.0939 181.291 60.0939L181.293 60.0918Z" fill="#671915"/>
<path d="M181.293 59.8801C181.137 59.8801 180.985 59.8314 180.856 59.7404C180.776 59.6832 178.883 58.3683 175.999 58.3683C174.513 58.3683 173.02 58.7135 171.558 59.3974C171.457 59.444 171.351 59.4672 171.24 59.4672C170.947 59.4672 170.679 59.2957 170.557 59.029C170.382 58.6499 170.547 58.1989 170.924 58.0232C172.588 57.2461 174.292 56.8523 175.988 56.8523C179.388 56.8523 181.636 58.4382 181.731 58.506C182.068 58.7495 182.148 59.2216 181.906 59.5625C181.764 59.7616 181.535 59.8801 181.293 59.8801Z" fill="#671915"/>
<path fill-rule="evenodd" clip-rule="evenodd" d="M156.803 129.995C148.598 129.995 140.607 123.242 139.723 122.474L139.655 122.415L139.12 112.482L139.596 112.859C148.016 119.531 155.697 123.12 161.808 123.238C161.897 123.24 161.985 123.242 162.074 123.242C168.419 123.242 176.681 117.695 179.938 115.309L180.216 115.624C176.649 119.467 167.435 128.546 158.937 129.836C158.248 129.942 157.53 129.995 156.805 129.995H156.803Z" fill="#671915"/>
<path fill-rule="evenodd" clip-rule="evenodd" d="M156.804 129.783C148.653 129.783 140.654 123.005 139.86 122.313L139.354 112.937C141.488 114.627 152.236 123.264 161.803 123.45C161.891 123.452 161.982 123.454 162.072 123.454C168.407 123.454 176.519 118.074 180.061 115.48C176.545 119.27 167.351 128.345 158.904 129.626C158.226 129.73 157.518 129.783 156.801 129.783H156.804Z" fill="#671915"/>
<path d="M139.853 129.027L139.44 128.938C140.481 124.062 139.657 114.059 139.622 113.636C139.603 113.412 139.417 113.244 139.192 113.244C139.181 113.244 139.169 113.244 139.158 113.244C138.926 113.263 138.752 113.473 138.771 113.708C138.779 113.81 139.624 123.984 138.606 128.752L138.193 128.663C139.196 123.954 138.358 113.846 138.349 113.744C138.309 113.276 138.657 112.863 139.122 112.823C139.594 112.787 139.999 113.134 140.039 113.6C140.075 114.026 140.902 124.089 139.849 129.027H139.853Z" fill="#671915"/>
<path d="M138.402 128.707C139.407 123.998 138.571 113.826 138.562 113.725C138.533 113.373 138.794 113.062 139.144 113.032C139.159 113.032 139.175 113.032 139.192 113.032C139.529 113.032 139.803 113.284 139.833 113.619C139.869 114.042 140.696 124.062 139.647 128.985" fill="#671915"/>
<path d="M182.799 129.817C181.548 124.422 182.333 113.337 182.367 112.867C182.403 112.37 182.862 111.984 183.391 112.022C183.654 112.039 183.905 112.16 184.073 112.353C184.229 112.533 184.305 112.757 184.29 112.99C184.282 113.102 183.482 124.25 184.68 129.421L184.269 129.516C183.056 124.284 183.861 113.07 183.869 112.958C183.878 112.842 183.838 112.725 183.755 112.632C183.661 112.522 183.517 112.454 183.361 112.444C183.345 112.444 183.332 112.444 183.317 112.444C183.037 112.444 182.803 112.643 182.784 112.899C182.751 113.365 181.969 124.388 183.206 129.721L182.795 129.817H182.799Z" fill="#671915"/>
<path d="M183.004 129.768C181.763 124.411 182.542 113.35 182.576 112.882C182.604 112.518 182.93 112.232 183.32 112.232C183.339 112.232 183.358 112.232 183.377 112.232C183.794 112.258 184.108 112.59 184.08 112.973C184.072 113.085 183.271 124.276 184.476 129.468" fill="#671915"/>
<path d="M120.582 93.6967C120.291 93.6967 120.02 93.5676 119.834 93.341C114.574 86.8597 120.689 80.5839 126.087 75.0448C127.97 73.1117 129.748 71.2865 131.09 69.474C135.95 63.0859 138.29 56.7804 140.171 51.7114C142.449 45.5774 144.246 40.7328 149.192 39.0347C149.293 39.0008 149.398 38.9839 149.504 38.9839C149.917 38.9839 150.283 39.2464 150.416 39.6382C150.587 40.1442 150.319 40.6947 149.816 40.8683C145.733 42.27 144.159 46.5111 141.981 52.3805C140.056 57.5702 137.658 64.0303 132.63 70.6386C131.22 72.5463 129.312 74.5049 127.464 76.3999C121.239 82.788 117.45 87.334 121.33 92.1151C121.492 92.3162 121.568 92.5682 121.543 92.8244C121.517 93.0827 121.393 93.3135 121.193 93.4765C121.018 93.6184 120.81 93.6946 120.584 93.6946L120.582 93.6967Z" fill="#671915"/>
<path d="M120.582 93.4849C120.355 93.4849 120.142 93.3833 119.999 93.2076C114.856 86.8724 120.902 80.6685 126.238 75.193C128.126 73.2556 129.91 71.424 131.258 69.5989C136.135 63.1896 138.482 56.865 140.37 51.7833C142.626 45.7001 144.408 40.9 149.259 39.2358C149.337 39.2083 149.42 39.1956 149.502 39.1956C149.824 39.1956 150.111 39.4009 150.216 39.708C150.351 40.1039 150.14 40.5337 149.746 40.6692C145.569 42.1027 143.98 46.384 141.781 52.3084C139.86 57.4854 137.469 63.9286 132.461 70.5115C131.058 72.4086 129.154 74.363 127.313 76.2538C121.008 82.7244 117.174 87.334 121.166 92.2526C121.292 92.4093 121.351 92.6062 121.332 92.8074C121.311 93.0085 121.214 93.1906 121.058 93.3176C120.921 93.4299 120.757 93.4892 120.582 93.4892V93.4849Z" fill="#671915"/>
<path d="M200.574 97.8193C200.433 97.8193 200.296 97.7896 200.168 97.7282C199.685 97.5038 199.477 96.9257 199.7 96.4408C203.003 89.3074 198.685 85.1277 192.704 79.341C189.382 76.1268 185.619 72.4849 182.535 67.687C179.771 63.4056 178.588 59.1582 177.442 55.0484C176.496 51.6564 175.602 48.4549 173.888 45.3699C171.754 41.385 167.288 36.7331 161.722 36.7331C161.376 36.7331 161.025 36.7522 160.681 36.7903C159.023 36.9978 157.328 37.6584 155.781 38.6938C155.621 38.7997 155.438 38.8568 155.246 38.8568C154.922 38.8568 154.623 38.6959 154.444 38.4249C154.3 38.2089 154.25 37.9506 154.3 37.6965C154.351 37.4424 154.496 37.2244 154.711 37.0804C156.506 35.8777 158.495 35.1112 160.46 34.8635C160.871 34.819 161.284 34.7979 161.695 34.7979C168.132 34.7979 173.199 39.9896 175.579 44.4361C177.399 47.7117 178.364 51.1715 179.297 54.519C180.406 58.4912 181.552 62.5989 184.155 66.6325C187.117 71.242 190.793 74.7992 194.037 77.9393C200.098 83.8044 205.333 88.8691 201.449 97.256C201.291 97.5969 200.947 97.8171 200.574 97.8171V97.8193Z" fill="#671915"/>
<path d="M200.575 97.6075C200.465 97.6075 200.358 97.5842 200.257 97.5355C199.88 97.3598 199.717 96.9088 199.892 96.5298C203.261 89.2587 198.894 85.0346 192.852 79.1885C189.538 75.9828 185.784 72.3494 182.715 67.5726C179.97 63.3188 178.788 59.0862 177.646 54.9912C176.696 51.5823 175.801 48.3723 174.074 45.2661C171.914 41.2326 167.381 36.5214 161.722 36.5214C161.369 36.5214 161.01 36.5405 160.659 36.5786C158.965 36.7924 157.238 37.4615 155.664 38.5181C155.54 38.6007 155.394 38.6451 155.247 38.6451C154.994 38.6451 154.76 38.5181 154.619 38.3085C154.507 38.1412 154.467 37.9379 154.507 37.741C154.547 37.5441 154.661 37.3726 154.828 37.2604C156.597 36.0746 158.552 35.3209 160.484 35.0774C160.882 35.035 161.289 35.0117 161.693 35.0117C168.038 35.0117 173.039 40.1442 175.392 44.5399C177.202 47.7943 178.165 51.2435 179.094 54.5783C180.206 58.5696 181.356 62.69 183.977 66.7511C186.951 71.3797 190.638 74.9474 193.891 78.0938C199.894 83.9039 205.079 88.9178 201.257 97.1692C201.133 97.436 200.866 97.6075 200.573 97.6075H200.575Z" fill="#671915"/>
<path d="M102.943 89.987C102.6 89.987 102.282 89.8028 102.109 89.5042C94.681 76.6582 100.565 66.1878 107.378 54.0658C108.962 51.2476 110.592 48.3447 112.132 45.2872C113.43 42.6469 114.641 39.9917 115.812 37.4212C121.991 23.8785 127.327 12.1821 140.477 12.1821C141.008 12.1821 141.442 12.6162 141.442 13.1519C141.442 13.6876 141.01 14.1216 140.477 14.1216C128.564 14.1216 123.468 25.2929 117.565 38.23L117.557 38.2512C116.379 40.8323 115.164 43.4959 113.858 46.1553C112.286 49.2763 110.645 52.1962 109.057 55.0186C102.267 67.1004 96.9034 76.6433 103.775 88.5324C103.904 88.7568 103.94 89.0173 103.874 89.2671C103.809 89.517 103.649 89.7266 103.428 89.8557C103.28 89.9426 103.114 89.987 102.945 89.987H102.943Z" fill="#671915"/>
<path d="M102.944 89.7753C102.676 89.7753 102.426 89.6313 102.293 89.3984C94.9262 76.6561 100.783 66.2365 107.564 54.1696C109.146 51.3535 110.779 48.4485 112.323 45.3825C113.62 42.7379 114.834 40.0806 116.007 37.5101C122.156 24.0331 127.467 12.396 140.48 12.396C140.895 12.396 141.234 12.7348 141.234 13.154C141.234 13.5733 140.897 13.912 140.48 13.912C128.432 13.912 123.309 25.1426 117.376 38.1453L117.368 38.1665C116.193 40.7412 114.977 43.4049 113.671 46.0643C112.104 49.1768 110.463 52.0946 108.876 54.917C102.053 67.058 96.6642 76.6476 103.597 88.6404C103.698 88.8161 103.726 89.0194 103.673 89.2142C103.62 89.409 103.498 89.5741 103.323 89.6737C103.207 89.7414 103.077 89.7774 102.946 89.7774L102.944 89.7753Z" fill="#671915"/>
<path d="M212.675 108.539C212.332 108.539 212.022 108.362 211.847 108.065C208.825 102.954 211.626 99.4326 214.875 95.3545C217.089 92.5723 219.598 89.4217 221.205 84.9752C223.948 77.2955 220.424 60.9917 212.633 45.3338C204.382 29.1698 193.815 17.1283 188.949 13.7426C182.483 9.23686 175.641 6.95433 168.609 6.95433C161.122 6.95433 154.899 9.55235 150.996 11.7311C150.853 11.8116 150.69 11.8539 150.528 11.8539C150.178 11.8539 149.856 11.6634 149.685 11.3542C149.561 11.1277 149.53 10.8672 149.601 10.6174C149.671 10.3697 149.835 10.1621 150.058 10.0372C154.175 7.73988 160.737 5 168.626 5C176.033 5 183.24 7.40533 190.046 12.1482C196.002 16.2919 206.722 29.5107 214.352 44.4572C222.362 60.5577 225.924 77.4903 223.017 85.6337C221.296 90.3872 218.57 93.811 216.381 96.5614C213.126 100.65 211.163 103.117 213.503 107.076C213.634 107.299 213.672 107.559 213.609 107.809C213.545 108.059 213.39 108.27 213.168 108.404C213.019 108.493 212.848 108.539 212.675 108.539Z" fill="#671915"/>
<path d="M212.675 108.328C212.408 108.328 212.166 108.19 212.029 107.957C209.079 102.973 211.841 99.5025 215.039 95.4858C217.264 92.693 219.783 89.5275 221.403 85.0472C224.165 77.3145 220.636 60.9452 212.823 45.2385C204.552 29.0385 193.954 16.9674 189.071 13.569C182.57 9.03996 175.687 6.74261 168.611 6.74261C161.08 6.74261 154.821 9.35544 150.895 11.5469C150.783 11.6104 150.657 11.6422 150.528 11.6422C150.254 11.6422 150.001 11.4919 149.869 11.2526C149.772 11.0769 149.747 10.8715 149.803 10.6767C149.858 10.4819 149.987 10.321 150.162 10.2236C154.255 7.93892 160.781 5.21387 168.626 5.21387C175.989 5.21387 183.155 7.6065 189.928 12.324C195.862 16.4529 206.551 29.6377 214.167 44.5546C222.151 60.6043 225.711 77.4691 222.821 85.5617C221.112 90.2813 218.397 93.6924 216.217 96.4302C212.905 100.589 210.908 103.1 213.324 107.184C213.427 107.358 213.457 107.561 213.406 107.758C213.356 107.955 213.234 108.118 213.061 108.222C212.945 108.292 212.812 108.328 212.677 108.328H212.675Z" fill="#671915"/>
<path d="M133.504 117.199C133.437 117.199 133.369 117.193 133.302 117.178C125.809 115.582 122.693 108.688 122.093 105.266C122.049 105.012 122.105 104.754 122.253 104.542C122.4 104.33 122.622 104.188 122.874 104.144C122.929 104.133 122.986 104.129 123.043 104.129C123.511 104.129 123.909 104.466 123.991 104.929C124.513 107.906 127.216 113.901 133.702 115.283C134.223 115.393 134.555 115.91 134.446 116.433C134.351 116.878 133.955 117.202 133.504 117.202V117.199Z" fill="#671915"/>
<path d="M133.504 116.988C133.452 116.988 133.399 116.981 133.346 116.971C125.963 115.395 122.893 108.603 122.299 105.23C122.263 105.031 122.308 104.83 122.424 104.665C122.539 104.499 122.712 104.389 122.91 104.353C122.954 104.345 122.999 104.341 123.043 104.341C123.409 104.341 123.719 104.603 123.782 104.965C124.313 107.991 127.062 114.083 133.658 115.489C134.065 115.575 134.324 115.978 134.237 116.386C134.164 116.734 133.854 116.986 133.502 116.986L133.504 116.988Z" fill="#671915"/>
<path d="M148.682 32.8794C148.358 32.8794 148.059 32.7185 147.88 32.4474C146.378 30.184 145.872 24.2299 148.459 19.6776C148.63 19.3769 148.952 19.1885 149.295 19.1885C149.462 19.1885 149.628 19.2329 149.773 19.3155C149.997 19.4447 150.157 19.6522 150.224 19.902C150.292 20.1519 150.26 20.4123 150.132 20.6368C147.812 24.719 148.484 29.8685 149.481 31.3697C149.624 31.5857 149.674 31.844 149.624 32.096C149.573 32.35 149.428 32.5681 149.213 32.7121C149.055 32.818 148.87 32.8752 148.68 32.8752L148.682 32.8794Z" fill="#671915"/>
<path d="M148.682 32.6677C148.429 32.6677 148.196 32.5427 148.054 32.331C146.582 30.112 146.095 24.2659 148.642 19.7835C148.777 19.5484 149.028 19.4023 149.297 19.4023C149.428 19.4023 149.556 19.4362 149.67 19.5019C149.845 19.6014 149.969 19.7644 150.022 19.9592C150.075 20.154 150.049 20.3594 149.95 20.533C147.589 24.6873 148.286 29.949 149.308 31.4883C149.42 31.6556 149.46 31.8588 149.42 32.0557C149.38 32.2548 149.266 32.4242 149.099 32.5364C148.975 32.619 148.832 32.6634 148.682 32.6634V32.6677Z" fill="#671915"/>
<path d="M188.679 117.405C188.148 117.405 187.714 116.971 187.714 116.435C187.714 115.899 188.146 115.467 188.679 115.467C197.139 115.467 203.383 108.622 204.135 103.714C204.209 103.237 204.607 102.892 205.083 102.892C205.133 102.892 205.184 102.897 205.235 102.905C205.489 102.945 205.713 103.081 205.864 103.29C206.016 103.5 206.079 103.754 206.039 104.01C205.201 109.486 198.536 117.407 188.679 117.407V117.405Z" fill="#671915"/>
<path d="M188.679 117.193C188.264 117.193 187.925 116.854 187.925 116.435C187.925 116.016 188.262 115.679 188.679 115.679C197.251 115.679 203.581 108.728 204.344 103.746C204.401 103.373 204.712 103.102 205.083 103.102C205.123 103.102 205.163 103.104 205.203 103.111C205.403 103.142 205.578 103.248 205.696 103.411C205.814 103.574 205.865 103.773 205.833 103.974C205.005 109.376 198.422 117.191 188.681 117.191L188.679 117.193Z" fill="#671915"/>
<path d="M118.063 112.041C117.806 112.027 117.57 111.91 117.4 111.717C117.229 111.525 117.143 111.275 117.159 111.017C117.431 106.449 114.758 105.188 111.37 103.589C107.913 101.959 103.997 100.11 103.218 94.2979C103.146 93.7685 103.517 93.2794 104.044 93.2074C104.086 93.2011 104.128 93.199 104.17 93.199C104.652 93.199 105.063 93.5589 105.129 94.0375C105.767 98.8015 108.885 100.273 112.188 101.831C115.584 103.434 119.432 105.249 119.083 111.129C119.053 111.639 118.63 112.039 118.122 112.039C118.103 112.039 118.084 112.039 118.063 112.039V112.041Z" fill="#671915"/>
<path d="M118.076 111.832C117.874 111.819 117.69 111.73 117.558 111.578C117.425 111.427 117.357 111.233 117.37 111.029C117.65 106.318 114.92 105.029 111.461 103.398C108.053 101.791 104.191 99.9682 103.429 94.2704C103.374 93.8575 103.662 93.4742 104.075 93.4192C104.107 93.415 104.141 93.4128 104.172 93.4128C104.549 93.4128 104.872 93.6945 104.922 94.0692C105.575 98.9476 108.746 100.445 112.101 102.026C115.436 103.6 119.218 105.384 118.874 111.12C118.851 111.521 118.52 111.832 118.124 111.832C118.11 111.832 118.095 111.832 118.078 111.832H118.076Z" fill="#671915"/>
<path fill-rule="evenodd" clip-rule="evenodd" d="M145.605 78.7099C143.823 78.7099 142.527 77.1494 142.527 74.9981C142.527 72.8469 143.821 71.2864 145.605 71.2864C147.274 71.2864 148.681 72.9866 148.681 74.9981C148.681 77.1473 147.387 78.7099 145.605 78.7099Z" fill="#671915"/>
<path fill-rule="evenodd" clip-rule="evenodd" d="M145.604 78.4981C143.944 78.4981 142.737 77.0265 142.737 74.9981C142.737 72.9696 143.942 71.498 145.604 71.498C147.157 71.498 148.469 73.1009 148.469 74.9981C148.469 77.0265 147.264 78.4981 145.604 78.4981Z" fill="#671915"/>
<path fill-rule="evenodd" clip-rule="evenodd" d="M175.756 78.7099C174.088 78.7099 172.679 77.0096 172.679 74.9981C172.679 72.9866 174.088 71.2864 175.756 71.2864C177.425 71.2864 178.832 72.9866 178.832 74.9981C178.832 77.0096 177.423 78.7099 175.756 78.7099Z" fill="#671915"/>
<path fill-rule="evenodd" clip-rule="evenodd" d="M175.757 78.4981C174.202 78.4981 172.89 76.8952 172.89 74.9981C172.89 73.1009 174.202 71.498 175.757 71.498C177.311 71.498 178.622 73.1009 178.622 74.9981C178.622 76.8952 177.309 78.4981 175.757 78.4981Z" fill="#671915"/>
<path d="M176.557 89.8472C171.811 89.8472 167.916 87.9628 165.293 84.3993C162.22 80.2196 161.678 74.8838 162.239 73.0713C163.062 70.4119 167.24 67.5725 176.496 67.5725H176.757C184.767 67.6191 189.462 71.5468 189.658 71.7141C189.962 71.9724 190.075 72.3832 189.949 72.7622C189.987 72.8765 190.004 72.9951 189.997 73.1137C189.989 73.2809 189.104 89.7964 176.633 89.8494H176.555L176.557 89.8472ZM176.511 69.5078C168.809 69.5078 164.718 71.5849 164.082 73.6451C163.774 74.6361 164.023 79.4107 166.844 83.2474C169.121 86.3409 172.384 87.9099 176.545 87.9099H176.629C187.257 87.8654 188.047 73.6303 188.074 73.0247C188.074 72.9951 188.078 72.9676 188.083 72.94C186.977 72.1439 182.89 69.5438 176.751 69.5099H176.513L176.511 69.5078Z" fill="#671915"/>
<path d="M176.557 89.6356C171.88 89.6356 168.044 87.7808 165.464 84.2723C162.432 80.1519 161.893 74.9093 162.443 73.1328C163.243 70.5454 167.355 67.7822 176.498 67.7822H176.759C184.693 67.8288 189.332 71.7099 189.523 71.8751C189.761 72.0763 189.85 72.3981 189.751 72.6945L189.728 72.7623L189.751 72.83C189.78 72.919 189.793 73.0121 189.789 73.1032C189.78 73.2683 188.896 89.5848 176.635 89.6356H176.559H176.557ZM176.511 69.2961C168.702 69.2961 164.539 71.4495 163.879 73.5817C163.566 74.598 163.808 79.4743 166.675 83.3724C168.994 86.5231 172.314 88.1217 176.544 88.1217H176.629C187.455 88.0751 188.255 73.6495 188.285 73.0333C188.285 73.01 188.287 72.9888 188.291 72.9677L188.308 72.8406L188.205 72.7665C187.086 71.9619 182.951 69.3321 176.751 69.2961H176.513H176.511Z" fill="#671915"/>
<path d="M142.778 89.8472C130.309 89.7774 129.443 73.2598 129.437 73.0946C129.431 72.9739 129.447 72.8553 129.487 72.741C129.361 72.362 129.477 71.9512 129.78 71.695C129.976 71.5278 134.68 67.6064 142.685 67.5725H142.881C152.184 67.5725 156.376 70.4246 157.198 73.0925C157.756 74.9071 157.208 80.2429 154.128 84.4162C151.506 87.9691 147.617 89.8472 142.881 89.8494H142.78L142.778 89.8472ZM131.356 72.9231C131.36 72.9506 131.362 72.9782 131.364 73.0078C131.392 73.6134 132.156 87.8506 142.789 87.9099H142.883C147.04 87.9099 150.301 86.3451 152.578 83.2622C155.405 79.4319 155.66 74.6572 155.355 73.6663C154.737 71.6654 150.568 69.5099 142.871 69.5099H142.692C136.555 69.5353 132.464 72.1291 131.356 72.9231Z" fill="#671915"/>
<path d="M142.778 89.6354C130.5 89.5656 129.654 73.2491 129.647 73.084C129.643 72.9887 129.656 72.8976 129.685 72.8087L129.708 72.7409L129.685 72.6732C129.586 72.3768 129.677 72.057 129.913 71.8559C130.106 71.6907 134.756 67.8159 142.683 67.7842H142.877C152.064 67.7842 156.193 70.5579 156.991 73.156C157.539 74.9324 156.991 80.175 153.953 84.2912C151.373 87.7891 147.541 89.6376 142.877 89.6376H142.776L142.778 89.6354ZM142.691 69.296C136.492 69.3214 132.354 71.9448 131.233 72.7494L131.13 72.8235L131.147 72.9506C131.149 72.9717 131.151 72.995 131.153 73.0162C131.181 73.6302 131.956 88.0601 142.788 88.1215H142.885C147.113 88.1215 150.431 86.5293 152.75 83.3871C155.622 79.4954 155.872 74.6191 155.559 73.6006C154.92 71.5277 150.678 69.296 142.873 69.296H142.693H142.691Z" fill="#671915"/>
<path d="M163.536 73.552C163.445 73.552 163.357 73.5393 163.271 73.5139C162.361 73.2535 161.206 73.1095 160.02 73.1095C158.834 73.1095 157.722 73.2471 156.824 73.4991C156.74 73.5224 156.652 73.5351 156.565 73.5351C156.133 73.5351 155.752 73.2429 155.636 72.8279C155.493 72.3134 155.794 71.7777 156.306 71.6337C157.366 71.3373 158.685 71.1721 160.018 71.1721C161.352 71.1721 162.723 71.3415 163.797 71.6506C164.046 71.7226 164.25 71.8857 164.375 72.1122C164.499 72.3388 164.53 72.5992 164.459 72.8491C164.343 73.2641 163.962 73.552 163.534 73.552H163.536Z" fill="#671915"/>
<path d="M163.536 73.3402C163.466 73.3402 163.397 73.3297 163.329 73.3106C162.4 73.0438 161.225 72.8977 160.02 72.8977C158.815 72.8977 157.684 73.0396 156.767 73.2958C156.702 73.3148 156.632 73.3233 156.565 73.3233C156.228 73.3233 155.931 73.0967 155.84 72.7707C155.729 72.3684 155.963 71.9491 156.363 71.8369C157.403 71.5447 158.703 71.3838 160.02 71.3838C161.337 71.3838 162.685 71.5511 163.742 71.8538C163.936 71.9089 164.096 72.0381 164.193 72.2138C164.29 72.3895 164.315 72.5949 164.258 72.7897C164.168 73.1137 163.869 73.3402 163.536 73.3402Z" fill="#671915"/>
<path d="M94.2894 269.663C93.8681 269.663 93.4994 269.392 93.373 268.989C87.3249 250.043 85.8082 232.539 88.8649 216.964C90.8598 206.802 90.6702 198.199 88.2834 190.662C88.2055 190.414 88.2265 190.151 88.3445 189.923C88.4625 189.692 88.6626 189.522 88.9091 189.444C89.0039 189.414 89.1029 189.397 89.1998 189.397C89.6211 189.397 89.9919 189.668 90.1183 190.073C92.6041 197.928 92.8126 206.847 90.7545 217.336C87.761 232.585 89.2588 249.766 95.2058 268.397C95.368 268.905 95.0878 269.451 94.5822 269.614C94.4874 269.644 94.3884 269.661 94.2873 269.661L94.2894 269.663Z" fill="#671915"/>
<path d="M94.2894 269.451C93.9608 269.451 93.6721 269.239 93.5731 268.926C87.5356 250.016 86.0209 232.545 89.0713 217.006C91.0726 206.809 90.8809 198.172 88.4857 190.6C88.4246 190.408 88.4414 190.202 88.5341 190.022C88.6268 189.842 88.7827 189.711 88.9744 189.65C89.0481 189.626 89.124 189.614 89.2019 189.614C89.5326 189.614 89.8213 189.825 89.9203 190.141C92.3955 197.962 92.602 206.845 90.5501 217.298C87.5503 232.583 89.0502 249.798 95.0077 268.464C95.1341 268.862 94.9151 269.288 94.5211 269.417C94.4474 269.44 94.3694 269.453 94.2915 269.453L94.2894 269.451Z" fill="#671915"/>
<path d="M235.928 235.58C235.907 235.58 235.888 235.58 235.865 235.58C235.334 235.546 234.932 235.084 234.966 234.551C235.343 228.599 234.911 222.818 233.681 217.368C231.5 207.709 231.717 198.272 234.311 190.077C234.439 189.673 234.808 189.402 235.229 189.402C235.328 189.402 235.427 189.417 235.522 189.448C236.027 189.609 236.31 190.156 236.147 190.666C233.657 198.53 233.455 207.615 235.56 216.94C236.83 222.568 237.279 228.535 236.889 234.675C236.857 235.184 236.434 235.582 235.928 235.582V235.58Z" fill="#671915"/>
<path d="M235.877 235.366C235.464 235.34 235.148 234.978 235.176 234.561C235.555 228.588 235.121 222.788 233.887 217.319C231.715 207.696 231.93 198.297 234.51 190.139C234.609 189.823 234.898 189.611 235.229 189.611C235.306 189.611 235.382 189.624 235.458 189.647C235.854 189.774 236.073 190.2 235.947 190.598C233.446 198.498 233.242 207.622 235.355 216.983C236.621 222.591 237.068 228.539 236.68 234.656C236.655 235.054 236.324 235.366 235.928 235.366C235.911 235.366 235.894 235.366 235.877 235.366Z" fill="#671915"/>
<path d="M142.086 161.393C141.968 161.393 141.85 161.383 141.734 161.359C141.136 161.245 140.622 160.847 140.365 160.294C137.799 154.802 135.766 149.03 134.319 143.139C134.195 142.636 134.075 142.153 133.957 141.687C133.479 139.781 133.066 138.134 132.817 136.429C132.779 136.173 132.845 135.917 132.998 135.71C133.152 135.502 133.378 135.367 133.63 135.328C133.679 135.322 133.727 135.318 133.774 135.318C134.248 135.318 134.654 135.674 134.724 136.146C134.96 137.753 135.36 139.356 135.825 141.211C135.943 141.681 136.066 142.168 136.19 142.674C137.606 148.439 139.596 154.09 142.107 159.469C142.847 158.721 143.875 157.582 144.962 156.377C148.728 152.206 151.341 149.472 153.243 149.472C157.109 149.472 159.731 155.149 160.018 155.797C160.233 156.284 160.014 156.858 159.529 157.076C159.405 157.131 159.274 157.161 159.137 157.161C158.758 157.161 158.41 156.934 158.257 156.587C157.618 155.147 155.472 151.412 153.243 151.412C152.053 151.412 148.372 155.488 146.394 157.677C145.28 158.912 144.227 160.078 143.399 160.868C143.043 161.207 142.577 161.393 142.084 161.393H142.086Z" fill="#671915"/>
<path d="M142.086 161.182C141.981 161.182 141.876 161.171 141.775 161.152C141.242 161.05 140.787 160.697 140.555 160.203C137.995 154.724 135.967 148.964 134.524 143.089C134.399 142.585 134.279 142.102 134.161 141.634C133.685 139.733 133.272 138.092 133.026 136.398C132.996 136.199 133.047 135.998 133.167 135.837C133.287 135.674 133.462 135.57 133.662 135.54C133.7 135.534 133.738 135.532 133.776 135.532C134.144 135.532 134.465 135.809 134.517 136.18C134.753 137.797 135.158 139.404 135.623 141.266C135.741 141.736 135.863 142.221 135.988 142.727C137.408 148.507 139.403 154.171 141.92 159.562L142.048 159.835L142.261 159.621C143.005 158.869 144.035 157.728 145.124 156.521C148.853 152.392 151.431 149.686 153.247 149.686C156.98 149.686 159.548 155.251 159.828 155.884C159.997 156.265 159.826 156.714 159.447 156.883C159.35 156.928 159.247 156.949 159.142 156.949C158.844 156.949 158.575 156.773 158.453 156.5C158.429 156.447 156.066 151.2 153.247 151.2C152.063 151.2 149.011 154.47 146.243 157.535C145.128 158.77 144.079 159.932 143.258 160.716C142.942 161.016 142.527 161.184 142.088 161.184L142.086 161.182Z" fill="#671915"/>
<path d="M117.475 153.959C117.271 153.959 117.077 153.896 116.91 153.775L110.85 149.36C110.612 149.187 110.466 148.918 110.451 148.621C110.437 148.325 110.557 148.043 110.778 147.848L134.275 127.056C134.452 126.899 134.677 126.814 134.911 126.814C135.187 126.814 135.453 126.935 135.636 127.143C135.988 127.543 135.948 128.157 135.55 128.51L112.958 148.503L118.044 152.206C118.473 152.519 118.57 153.127 118.259 153.559C118.077 153.809 117.787 153.959 117.477 153.959H117.475Z" fill="#671915"/>
<path d="M117.475 153.747C117.317 153.747 117.163 153.697 117.034 153.603L110.974 149.189C110.788 149.053 110.674 148.844 110.664 148.611C110.653 148.38 110.746 148.16 110.919 148.007L134.416 127.215C134.553 127.094 134.73 127.026 134.913 127.026C135.13 127.026 135.337 127.119 135.48 127.282C135.754 127.596 135.724 128.074 135.412 128.352L112.623 148.52L117.921 152.38C118.256 152.625 118.332 153.099 118.09 153.436C117.949 153.633 117.721 153.749 117.479 153.749L117.475 153.747Z" fill="#671915"/>
<path d="M162.312 262.802C161.942 262.802 161.598 262.584 161.44 262.248C161.371 262.099 154.396 247.185 149.182 228.391C140.8 198.178 132.114 157.592 132.521 141.884C132.529 141.577 132.552 141.278 132.575 141.013L132.58 140.958C132.601 140.713 132.62 140.478 132.62 140.255C132.571 126.852 136.203 123.861 136.618 123.562C136.782 123.443 136.976 123.382 137.176 123.382C137.488 123.382 137.781 123.535 137.962 123.789C138.112 123.998 138.171 124.257 138.128 124.511C138.086 124.765 137.947 124.989 137.739 125.14C137.621 125.241 134.503 128.059 134.547 140.247C134.547 140.529 134.526 140.829 134.497 141.164L134.492 141.206C134.473 141.439 134.454 141.68 134.448 141.934C134.058 156.894 142.578 197.374 151.038 227.87C156.205 246.499 163.113 261.274 163.182 261.422C163.292 261.657 163.305 261.919 163.218 262.163C163.132 262.406 162.955 262.601 162.723 262.711C162.593 262.773 162.456 262.805 162.312 262.805V262.802Z" fill="#671915"/>
<path d="M162.313 262.591C162.022 262.591 161.754 262.421 161.63 262.157C161.561 262.009 154.581 247.062 149.384 228.332C141.008 198.136 132.325 157.576 132.732 141.888C132.74 141.583 132.763 141.285 132.786 141.022L132.791 140.978C132.812 140.726 132.831 140.486 132.831 140.256C132.782 126.958 136.336 124.026 136.74 123.736C136.869 123.643 137.021 123.594 137.176 123.594C137.419 123.594 137.648 123.713 137.79 123.912C137.907 124.077 137.954 124.276 137.92 124.477C137.886 124.676 137.779 124.852 137.615 124.968C137.463 125.097 134.29 127.99 134.335 140.249C134.335 140.524 134.314 140.819 134.286 141.147L134.282 141.187C134.263 141.424 134.242 141.668 134.236 141.928C133.846 156.907 142.369 197.416 150.834 227.925C155.989 246.509 162.921 261.363 162.991 261.511C163.077 261.693 163.086 261.898 163.018 262.089C162.951 262.28 162.814 262.432 162.631 262.519C162.53 262.568 162.42 262.591 162.311 262.591H162.313Z" fill="#671915"/>
<path d="M156.761 263.069C156.485 263.069 156.222 262.951 156.039 262.743C155.792 262.462 149.851 255.656 138.779 237.358C127.81 219.229 109.72 161.505 108.956 159.058C108.827 158.647 108.949 158.196 109.267 157.906C109.826 157.402 111.159 156.386 116.295 153.406C119.727 151.416 132.807 139.646 132.937 139.527C133.114 139.368 133.342 139.279 133.58 139.279C133.854 139.279 134.115 139.396 134.298 139.601C134.652 139.999 134.618 140.613 134.225 140.969C133.679 141.46 120.822 153.015 117.258 155.081C114.089 156.919 111.97 158.24 110.961 159.011C112.878 165.113 129.999 219.119 140.424 236.35C151.446 254.568 157.42 261.39 157.479 261.458C157.831 261.858 157.793 262.472 157.395 262.826C157.218 262.982 156.993 263.069 156.757 263.069H156.761Z" fill="#671915"/>
<path d="M156.762 262.858C156.547 262.858 156.34 262.764 156.197 262.601C155.951 262.32 150.016 255.519 138.961 237.248C128.008 219.147 109.923 161.442 109.158 158.994C109.055 158.662 109.154 158.298 109.411 158.065C109.961 157.567 111.286 156.561 116.403 153.593C119.852 151.592 132.951 139.807 133.081 139.688C133.22 139.563 133.397 139.495 133.583 139.495C133.795 139.495 134.002 139.586 134.145 139.747C134.421 140.059 134.396 140.537 134.086 140.817C133.543 141.306 120.709 152.843 117.155 154.903C113.98 156.746 111.853 158.073 110.837 158.846L110.719 158.937L110.764 159.079C112.683 165.183 129.81 219.214 140.248 236.462C151.295 254.718 157.267 261.534 157.326 261.6C157.6 261.911 157.571 262.392 157.261 262.667C157.124 262.79 156.947 262.858 156.762 262.858Z" fill="#671915"/>
<path d="M181.402 161.044C180.753 161.044 180.132 160.805 179.654 160.371C177.93 158.804 177.025 157.038 176.228 155.482C175.051 153.182 174.271 151.662 171.543 151.38C171.514 151.378 171.484 151.376 171.455 151.376C170.323 151.376 168.642 153.642 167.734 155.74C167.581 156.093 167.233 156.322 166.85 156.322C166.717 156.322 166.588 156.295 166.466 156.242C165.98 156.028 165.754 155.456 165.967 154.967C166.064 154.74 168.396 149.439 171.465 149.439C171.556 149.439 171.648 149.443 171.739 149.453C175.506 149.841 176.744 152.257 177.941 154.594C178.699 156.074 179.483 157.605 180.945 158.935C181.067 159.045 181.229 159.106 181.4 159.106C181.453 159.106 181.507 159.1 181.56 159.09C181.754 159.045 181.906 158.922 181.975 158.753C187.669 144.793 188.341 141.892 188.445 138.981C188.463 138.458 188.887 138.047 189.409 138.047H189.439C189.974 138.066 190.389 138.517 190.372 139.051C190.258 142.269 189.599 145.176 183.762 159.49C183.452 160.252 182.805 160.796 181.99 160.982C181.798 161.027 181.6 161.048 181.404 161.048L181.402 161.044Z" fill="#671915"/>
<path d="M181.403 160.832C180.805 160.832 180.236 160.612 179.795 160.214C178.1 158.672 177.204 156.925 176.416 155.384C175.249 153.108 174.407 151.463 171.567 151.168C171.531 151.164 171.493 151.162 171.457 151.162C170.099 151.162 168.35 153.788 167.543 155.653C167.423 155.93 167.152 156.108 166.852 156.108C166.749 156.108 166.648 156.087 166.553 156.045C166.172 155.877 165.997 155.431 166.164 155.049C166.258 154.829 168.538 149.648 171.47 149.648C171.554 149.648 171.639 149.652 171.723 149.661C175.376 150.038 176.587 152.401 177.758 154.687C178.525 156.186 179.319 157.732 180.809 159.087C180.969 159.233 181.182 159.314 181.405 159.314C181.474 159.314 181.544 159.305 181.611 159.291C181.873 159.231 182.079 159.062 182.176 158.827C187.883 144.835 188.557 141.92 188.66 138.981C188.675 138.572 189.006 138.25 189.414 138.25H189.44C189.855 138.265 190.179 138.617 190.164 139.034C190.05 142.227 189.393 145.117 183.568 159.399C183.284 160.095 182.692 160.593 181.944 160.764C181.767 160.804 181.586 160.826 181.405 160.826L181.403 160.832Z" fill="#671915"/>
<path d="M202.553 153.959C202.235 153.959 201.938 153.802 201.759 153.54C201.457 153.099 201.569 152.496 202.007 152.193L207.411 148.456L186.37 128.445C186.182 128.267 186.077 128.028 186.069 127.767C186.062 127.509 186.155 127.263 186.332 127.075C186.515 126.88 186.764 126.772 187.031 126.772C187.278 126.772 187.514 126.865 187.695 127.037L209.602 147.872C209.814 148.073 209.922 148.356 209.901 148.651C209.878 148.943 209.728 149.208 209.486 149.373L203.101 153.788C202.938 153.9 202.749 153.957 202.555 153.957L202.553 153.959Z" fill="#671915"/>
<path d="M202.553 153.747C202.304 153.747 202.072 153.624 201.931 153.419C201.695 153.076 201.784 152.602 202.125 152.367L207.743 148.484L186.513 128.292C186.212 128.006 186.199 127.526 186.483 127.223C186.627 127.071 186.821 126.986 187.031 126.986C187.225 126.986 187.408 127.06 187.549 127.193L209.456 148.028C209.623 148.185 209.707 148.407 209.69 148.636C209.673 148.865 209.555 149.072 209.366 149.201L202.98 153.616C202.854 153.703 202.707 153.749 202.555 153.749L202.553 153.747Z" fill="#671915"/>
<path d="M162.515 343L162.509 342.795C161.721 319.842 159.936 266.298 160.364 264.823C162.079 259.368 168.02 240.375 172.54 224.823C179.61 200.493 189.235 157.186 188.85 141.93C188.835 141.342 188.803 140.808 188.759 140.342C187.546 127.932 184.382 125.14 184.35 125.112C183.943 124.78 183.87 124.174 184.188 123.761C184.373 123.52 184.653 123.38 184.953 123.38C185.155 123.38 185.349 123.444 185.513 123.564C185.905 123.854 189.372 126.774 190.68 140.152C190.731 140.664 190.763 141.244 190.779 141.877C191.169 157.322 181.498 200.912 174.392 225.363C169.882 240.886 163.941 259.881 162.226 265.333C161.986 267.81 163.417 313.001 164.438 342.776L164.447 342.994H162.517L162.515 343Z" fill="#671915"/>
<path d="M162.719 342.788C161.08 295.003 160.276 265.887 160.566 264.884C162.281 259.429 168.226 240.428 172.743 224.885C179.817 200.541 189.446 157.203 189.06 141.926C189.046 141.333 189.014 140.793 188.968 140.323C187.735 127.702 184.514 124.976 184.483 124.951C184.165 124.691 184.106 124.216 184.354 123.895C184.5 123.704 184.719 123.596 184.952 123.596C185.108 123.596 185.26 123.647 185.389 123.74C185.772 124.022 189.17 126.888 190.47 140.177C190.518 140.681 190.552 141.257 190.569 141.888C190.958 157.313 181.291 200.871 174.19 225.31C169.686 240.814 163.741 259.821 162.024 265.276L162.018 265.297V265.318C161.773 267.799 163.202 312.921 164.228 342.788H162.719Z" fill="#671915"/>
<path d="M164.57 263.717C164.349 263.717 164.13 263.639 163.959 263.497C163.549 263.156 163.49 262.544 163.829 262.133C163.89 262.059 170.037 254.498 180.705 236.363C190.507 219.701 206.155 169.443 209.193 159.536C209.283 159.24 209.176 158.924 208.925 158.746C208.024 158.111 206.302 156.959 203.225 155.073C199.736 152.936 189.576 143.023 189.146 142.602C188.961 142.422 188.858 142.18 188.853 141.92C188.849 141.661 188.946 141.416 189.125 141.232C189.308 141.043 189.555 140.937 189.816 140.937C190.077 140.937 190.307 141.035 190.488 141.21C190.591 141.312 200.947 151.408 204.227 153.417C207.345 155.327 209.106 156.506 210.031 157.158C210.969 157.819 211.373 159.003 211.036 160.106C207.988 170.049 192.274 220.504 182.365 237.347C171.583 255.678 165.377 263.289 165.316 263.364C165.133 263.588 164.861 263.717 164.572 263.717H164.57Z" fill="#671915"/>
<path d="M164.571 263.505C164.398 263.505 164.227 263.444 164.092 263.334C163.772 263.069 163.726 262.591 163.989 262.269C164.05 262.195 170.235 254.574 180.884 236.471C190.699 219.786 206.353 169.509 209.393 159.6C209.511 159.216 209.372 158.804 209.045 158.575C208.142 157.94 206.416 156.784 203.332 154.895C199.873 152.778 189.719 142.872 189.29 142.453C189.144 142.311 189.064 142.123 189.062 141.922C189.06 141.721 189.134 141.528 189.275 141.384C189.418 141.236 189.61 141.155 189.816 141.155C190.023 141.155 190.2 141.232 190.341 141.369C190.444 141.471 200.811 151.579 204.118 153.605C207.234 155.513 208.989 156.688 209.911 157.338C210.775 157.946 211.146 159.036 210.834 160.051C207.786 169.99 192.079 220.425 182.184 237.246C171.421 255.54 165.215 263.16 165.154 263.234C165.011 263.41 164.798 263.51 164.573 263.51L164.571 263.505Z" fill="#671915"/>
<path d="M163.037 162.907C162.506 162.903 162.076 162.467 162.08 161.933C162.135 153.855 159.091 151.391 154.05 147.306C152.167 145.782 150.035 144.054 147.734 141.767C145.706 139.751 143.824 137.202 141.644 134.251L141.632 134.234C140.494 132.692 139.316 131.098 137.964 129.364C137.338 128.563 136.586 127.477 136.308 126.183C136.182 125.595 136.07 124.46 136.732 123.471C137.052 122.992 137.682 122.378 138.872 122.167C138.927 122.156 138.983 122.152 139.038 122.152C139.508 122.152 139.906 122.489 139.988 122.952C140.033 123.206 139.978 123.465 139.83 123.676C139.683 123.888 139.462 124.03 139.209 124.074C138.783 124.151 138.497 124.305 138.333 124.551C138.145 124.83 138.092 125.3 138.194 125.775C138.387 126.681 138.983 127.528 139.481 128.165C140.846 129.914 142.032 131.519 143.178 133.073C145.322 135.978 147.166 138.475 149.089 140.387C151.322 142.608 153.412 144.3 155.257 145.792C160.372 149.936 164.067 152.93 164.006 161.941C164.004 162.471 163.568 162.903 163.037 162.903V162.907Z" fill="#671915"/>
<path d="M163.037 162.695C162.622 162.691 162.287 162.35 162.289 161.933C162.344 153.754 159.273 151.264 154.181 147.141C152.302 145.619 150.174 143.897 147.882 141.617C145.864 139.612 143.987 137.069 141.813 134.123C140.667 132.571 139.489 130.975 138.129 129.232C137.518 128.449 136.782 127.39 136.513 126.139C136.395 125.584 136.287 124.513 136.905 123.59C137.202 123.145 137.789 122.575 138.906 122.376C138.948 122.368 138.992 122.366 139.036 122.366C139.403 122.366 139.715 122.628 139.78 122.99C139.816 123.189 139.772 123.391 139.656 123.556C139.54 123.721 139.367 123.833 139.169 123.867C138.685 123.954 138.352 124.138 138.154 124.434C137.933 124.765 137.869 125.283 137.983 125.821C138.185 126.77 138.798 127.644 139.31 128.299C140.678 130.05 141.864 131.659 143.014 133.215C145.156 136.116 147.002 138.617 148.938 140.541C151.179 142.769 153.273 144.467 155.123 145.962C160.191 150.067 163.852 153.034 163.793 161.944C163.791 162.359 163.45 162.695 163.035 162.695H163.037Z" fill="#671915"/>
<path d="M162.312 260.37C162.055 260.37 161.813 260.268 161.63 260.086C161.449 259.902 161.348 259.66 161.348 259.4V259.347C161.348 256.495 161.39 189.194 161.954 163.961C162.106 157.112 164.701 150.554 169.258 145.494C172.688 141.687 177.48 136.198 180.828 131.686C183.686 127.835 183.785 125.832 183.589 124.981C183.423 124.252 182.962 124.005 182.943 123.994C182.477 123.753 182.279 123.175 182.5 122.709C182.664 122.366 182.995 122.152 183.364 122.152C183.494 122.152 183.623 122.179 183.745 122.232C183.876 122.289 185.024 122.84 185.437 124.426C185.987 126.531 184.954 129.361 182.372 132.845C178.984 137.41 174.147 142.951 170.686 146.794C166.439 151.509 164.023 157.62 163.88 164.004C163.303 189.831 163.275 258.707 163.275 259.4C163.275 259.933 162.841 260.37 162.31 260.37H162.312Z" fill="#671915"/>
<path d="M162.312 260.158C162.11 260.158 161.922 260.079 161.779 259.935C161.638 259.792 161.558 259.603 161.558 259.4V259.347C161.558 256.497 161.598 189.253 162.164 163.968C162.316 157.169 164.89 150.66 169.413 145.638C172.847 141.826 177.642 136.336 180.995 131.816C183.905 127.894 183.997 125.821 183.793 124.936C183.608 124.127 183.096 123.839 183.039 123.81C182.672 123.619 182.516 123.168 182.689 122.802C182.818 122.533 183.075 122.366 183.363 122.366C183.464 122.366 183.563 122.387 183.658 122.429C183.778 122.482 184.842 122.995 185.232 124.483C185.765 126.522 184.745 129.294 182.2 132.722C178.817 137.283 173.985 142.815 170.528 146.654C166.247 151.408 163.812 157.567 163.666 164.002C163.087 189.914 163.062 258.71 163.062 259.402C163.062 259.819 162.723 260.16 162.308 260.16L162.312 260.158Z" fill="#671915"/>
<path d="M255.344 312.779C255.102 312.779 254.87 312.688 254.693 312.525C254.302 312.165 254.276 311.551 254.634 311.157C254.845 310.926 275.621 287.889 273.98 269.059C273.463 263.139 271.932 255.862 269.813 245.794C266.497 230.034 261.957 208.452 257.769 175.666C256.223 163.559 243.806 156.71 238.54 154.328C230.577 150.722 201.843 142.011 201.554 141.924C201.308 141.85 201.105 141.683 200.983 141.454C200.861 141.225 200.836 140.965 200.909 140.717C201.032 140.311 201.411 140.027 201.832 140.027C201.927 140.027 202.02 140.042 202.11 140.069C203.296 140.427 231.245 148.901 239.332 152.562C244.893 155.079 258.011 162.344 259.68 175.421C263.859 208.132 268.386 229.661 271.694 245.381C273.83 255.529 275.37 262.853 275.897 268.892C277.616 288.59 256.935 311.504 256.052 312.47C255.869 312.669 255.612 312.783 255.342 312.783L255.344 312.779Z" fill="#671915"/>
<path d="M255.345 312.567C255.155 312.567 254.976 312.497 254.837 312.368C254.532 312.087 254.511 311.606 254.791 311.299C255.002 311.068 275.838 287.953 274.189 269.038C273.67 263.105 272.139 255.824 270.02 245.747C266.704 229.985 262.166 208.416 257.98 175.637C256.419 163.424 243.927 156.53 238.629 154.131C230.662 150.523 201.906 141.803 201.618 141.717C201.22 141.596 200.994 141.172 201.114 140.774C201.209 140.457 201.506 140.234 201.835 140.234C201.908 140.234 201.98 140.245 202.052 140.266C203.238 140.624 231.172 149.093 239.246 152.75C244.776 155.253 257.816 162.473 259.472 175.442C263.651 208.164 268.183 229.7 271.49 245.425C273.622 255.561 275.162 262.881 275.689 268.905C277.399 288.514 256.777 311.358 255.899 312.319C255.756 312.476 255.553 312.565 255.345 312.565V312.567Z" fill="#671915"/>
<path d="M86.0399 312.779C85.7029 312.779 85.3616 312.749 85.0245 312.688C84.9824 312.679 84.8729 312.658 84.8286 312.643C79.7201 310.932 59.3365 303.78 52.9618 300.068C34.8555 289.526 40.4254 267.668 42.256 260.486L42.2644 260.452C42.3866 259.974 42.5025 259.521 42.5762 259.188C45.3443 246.897 57.4974 197.854 65.4857 173.82C68.8457 163.712 76.3031 155.422 85.943 151.079C91.1379 148.74 96.8132 146.794 102.303 144.912L102.326 144.903C105.406 143.846 108.593 142.754 111.572 141.628C115.781 140.308 120.146 138.82 120.188 138.807C120.289 138.773 120.393 138.756 120.498 138.756C120.911 138.756 121.277 139.021 121.41 139.415C121.492 139.66 121.475 139.923 121.362 140.154C121.248 140.387 121.052 140.56 120.808 140.643C120.763 140.658 116.35 142.161 112.198 143.461C109.246 144.579 106.046 145.676 102.952 146.737L102.924 146.745C97.4746 148.613 91.8415 150.546 86.7309 152.847C77.5819 156.968 70.5036 164.836 67.3142 174.434C59.3491 198.398 47.2192 247.346 44.4553 259.616C44.3795 259.95 44.2678 260.391 44.1393 260.901L44.1225 260.969C42.3824 267.799 37.0843 288.588 53.9267 298.393C60.1054 301.991 80.2994 309.082 85.3679 310.784C85.5912 310.822 85.8166 310.843 86.0399 310.843C86.6024 310.843 87.1438 310.716 87.6051 310.477C88.155 310.193 88.6669 309.776 89.0861 309.272C89.8445 308.364 90.9863 305.211 91.4729 303.865L91.6077 303.49C91.7467 303.111 92.1091 302.855 92.5136 302.855C92.6273 302.855 92.7369 302.874 92.8443 302.914C93.0866 303.003 93.2783 303.181 93.3878 303.416C93.4952 303.651 93.5058 303.913 93.4173 304.157L93.2867 304.517C92.4419 306.852 91.4645 309.433 90.5628 310.515C89.9793 311.214 89.2631 311.796 88.4878 312.199C87.7547 312.58 86.9079 312.781 86.0378 312.781L86.0399 312.779Z" fill="#671915"/>
<path d="M86.0404 312.567C85.716 312.567 85.3852 312.537 85.0608 312.48C85.0081 312.47 84.9197 312.451 84.8944 312.442C79.7879 310.731 59.4254 303.587 53.0655 299.886C35.0982 289.424 40.6386 267.685 42.4587 260.541L42.4671 260.505C42.5956 260.001 42.7073 259.563 42.781 259.235C45.5491 246.946 57.698 197.912 65.6842 173.886C69.0252 163.832 76.4405 155.59 86.0277 151.272C91.2142 148.937 96.8852 146.991 102.369 145.111L102.392 145.102C105.476 144.046 108.663 142.951 111.644 141.825C115.813 140.518 120.21 139.021 120.254 139.006C120.332 138.979 120.414 138.966 120.496 138.966C120.819 138.966 121.105 139.174 121.208 139.481C121.274 139.671 121.259 139.877 121.17 140.059C121.082 140.241 120.928 140.376 120.736 140.44C120.692 140.455 116.279 141.958 112.133 143.256C109.171 144.376 105.973 145.473 102.879 146.534L102.853 146.542C97.4014 148.412 91.762 150.345 86.6408 152.653C77.437 156.799 70.3187 164.711 67.1103 174.364C59.141 198.337 47.0111 247.295 44.2472 259.567C44.1735 259.898 44.0618 260.336 43.9312 260.846L43.9144 260.914C42.1638 267.785 36.8361 288.687 53.8176 298.573C60.0089 302.179 80.224 309.277 85.2989 310.981L85.3136 310.985H85.3284C85.5622 311.03 85.8002 311.049 86.0362 311.049C86.6323 311.049 87.2075 310.913 87.6983 310.659C88.2713 310.363 88.8064 309.927 89.2445 309.402C90.0261 308.464 91.1784 305.285 91.6693 303.928L91.8041 303.556C91.9115 303.259 92.1959 303.06 92.5119 303.06C92.6004 303.06 92.6868 303.075 92.771 303.107C92.9606 303.177 93.1102 303.316 93.1945 303.498C93.2787 303.681 93.2871 303.888 93.2176 304.076L93.087 304.436C92.2486 306.755 91.2795 309.315 90.399 310.371C89.8344 311.049 89.1392 311.612 88.3893 312.002C87.6856 312.366 86.8725 312.559 86.0362 312.559L86.0404 312.567Z" fill="#671915"/>
<path d="M138.471 127.2C138.301 127.2 138.136 127.094 137.987 126.882C137.49 126.188 137.27 124.544 137.433 124.058C137.601 123.554 138.082 123.175 138.551 123.175C138.577 123.175 138.602 123.175 138.627 123.179L138.796 123.194L138.817 123.363C138.829 123.456 138.846 123.566 138.865 123.693L138.874 123.742C139.223 126.069 139.135 127.068 138.564 127.191C138.532 127.198 138.503 127.202 138.471 127.202V127.2Z" fill="#671915"/>
<path d="M138.472 126.988C138.347 126.988 138.231 126.863 138.158 126.759C137.69 126.105 137.5 124.521 137.633 124.125C137.772 123.71 138.177 123.386 138.552 123.386C138.571 123.386 138.59 123.386 138.609 123.389C138.623 123.494 138.642 123.624 138.665 123.772C138.779 124.534 139.129 126.85 138.52 126.984C138.503 126.988 138.488 126.99 138.474 126.99L138.472 126.988Z" fill="#671915"/>
<path d="M162.04 110.297C161.882 110.297 161.72 110.293 161.558 110.286C152.293 109.863 149.573 99.1382 149.462 98.683C149.384 98.3633 149.47 98.0287 149.696 97.7894C149.877 97.5946 150.134 97.4845 150.397 97.4845C150.454 97.4845 150.511 97.4888 150.568 97.4994C150.622 97.5099 156.009 98.4712 161.602 98.4712C167.195 98.4712 172.588 97.5078 172.643 97.4972C172.698 97.4888 172.752 97.4824 172.807 97.4824C173.077 97.4824 173.336 97.5968 173.517 97.7958C173.74 98.0393 173.823 98.3759 173.738 98.6978C173.614 99.1721 170.599 110.295 162.038 110.297H162.04ZM151.804 99.6548C152.754 102.179 155.619 108.076 161.648 108.351C161.773 108.357 161.897 108.359 162.019 108.359C167.53 108.359 170.414 102.268 171.398 99.6485C169.401 99.9322 165.476 100.407 161.606 100.407C157.736 100.407 153.755 99.9343 151.806 99.6527L151.804 99.6548Z" fill="#671915"/>
<path d="M162.041 110.085C161.885 110.085 161.727 110.081 161.569 110.075C152.462 109.657 149.778 99.0812 149.669 98.6323C149.607 98.3825 149.675 98.122 149.852 97.9336C149.993 97.7811 150.193 97.6943 150.402 97.6943C150.446 97.6943 150.49 97.6986 150.534 97.707C150.587 97.7176 155.997 98.6832 161.607 98.6832C167.217 98.6832 172.629 97.7155 172.683 97.707C172.725 97.6986 172.77 97.6965 172.812 97.6965C173.022 97.6965 173.225 97.7854 173.366 97.9421C173.541 98.1326 173.604 98.3952 173.539 98.6472C173.416 99.1151 170.446 110.087 162.043 110.089L162.041 110.085ZM151.607 99.7291C152.571 102.291 155.483 108.281 161.638 108.563C161.767 108.569 161.893 108.571 162.018 108.571C167.659 108.571 170.594 102.384 171.594 99.7249L171.721 99.3904L171.369 99.4412C169.378 99.7249 165.462 100.199 161.607 100.199C157.752 100.199 153.781 99.7291 151.836 99.4475L151.482 99.3967L151.609 99.7334L151.607 99.7291Z" fill="#671915"/>
</g>
</g>
<defs>
<clipPath id="clip0_661_4240">
<rect width="279" height="214" fill="white" transform="translate(0.5)"/>
</clipPath>
<clipPath id="clip1_661_4240">
<rect width="236" height="338" fill="white" transform="translate(40 5)"/>
</clipPath>
</defs>
</svg>
