<svg width="21" height="21" viewBox="0 0 21 21" fill="none" xmlns="http://www.w3.org/2000/svg">
<path d="M13.9674 7.40667L15.1374 8.59417L10.3099 13.35C9.98741 13.6725 9.56324 13.8333 9.13741 13.8333C8.71158 13.8333 8.28324 13.6708 7.95741 13.3458L5.63908 11.0992L6.79991 9.90167L9.12741 12.1575L13.9674 7.40667ZM20.3857 10.5C20.3857 16.0142 15.8999 20.5 10.3857 20.5C4.87158 20.5 0.385742 16.0142 0.385742 10.5C0.385742 4.98583 4.87158 0.5 10.3857 0.5C15.8999 0.5 20.3857 4.98583 20.3857 10.5ZM18.7191 10.5C18.7191 5.905 14.9807 2.16667 10.3857 2.16667C5.79074 2.16667 2.05241 5.905 2.05241 10.5C2.05241 15.095 5.79074 18.8333 10.3857 18.8333C14.9807 18.8333 18.7191 15.095 18.7191 10.5Z" fill="#709051"/>
</svg>
