<svg width="221" height="220" viewBox="0 0 221 220" fill="none" xmlns="http://www.w3.org/2000/svg">
<rect x="0.154297" width="220" height="220" rx="110" fill="#A3BD8A"/>
<g clip-path="url(#clip0_376_316)">
<g filter="url(#filter0_d_376_316)">
<path fill-rule="evenodd" clip-rule="evenodd" d="M62.3506 71.8559C61.4278 71.8559 60.6797 71.1078 60.6797 70.185C60.6797 69.2621 61.4278 68.514 62.3506 68.514H67.8001C68.723 68.514 69.4711 69.2621 69.4711 70.185C69.4711 71.1078 68.723 71.8559 67.8001 71.8559H62.3506ZM69.7367 61.1279C69.7367 60.2053 70.4848 59.457 71.4076 59.457C72.3302 59.457 73.0785 60.2051 73.0785 61.1279V66.5775C73.0785 67.5003 72.3304 68.2484 71.4076 68.2484C70.4848 68.2484 69.7367 67.5003 69.7367 66.5775V61.1279ZM80.4646 68.514C81.3872 68.514 82.1355 69.2621 82.1355 70.185C82.1355 71.1078 81.3875 71.8559 80.4646 71.8559H75.0151C74.0922 71.8559 73.3442 71.1078 73.3442 70.185C73.3442 69.2621 74.0922 68.514 75.0151 68.514H80.4646ZM73.0785 79.242C73.0785 80.1648 72.3304 80.9129 71.4076 80.9129C70.4848 80.9129 69.7367 80.1648 69.7367 79.242V73.7924C69.7367 72.8696 70.4848 72.1215 71.4076 72.1215C72.3302 72.1215 73.0785 72.8696 73.0785 73.7924V79.242Z" fill="white"/>
<path fill-rule="evenodd" clip-rule="evenodd" d="M139.113 71.8559C138.191 71.8559 137.442 71.1078 137.442 70.185C137.442 69.2621 138.19 68.514 139.113 68.514H144.563C145.486 68.514 146.234 69.2621 146.234 70.185C146.234 71.1078 145.486 71.8559 144.563 71.8559H139.113ZM146.499 61.1279C146.499 60.2053 147.247 59.457 148.17 59.457C149.093 59.457 149.841 60.2051 149.841 61.1279V66.5775C149.841 67.5003 149.093 68.2484 148.17 68.2484C147.248 68.2484 146.499 67.5003 146.499 66.5775V61.1279ZM157.227 68.514C158.15 68.514 158.898 69.2621 158.898 70.185C158.898 71.1078 158.15 71.8559 157.227 71.8559H151.778C150.855 71.8559 150.107 71.1078 150.107 70.185C150.107 69.2621 150.855 68.514 151.778 68.514H157.227ZM149.841 79.242C149.841 80.1648 149.093 80.9129 148.17 80.9129C147.248 80.9129 146.499 80.1648 146.499 79.242V73.7924C146.499 72.8696 147.247 72.1215 148.17 72.1215C149.093 72.1215 149.841 72.8696 149.841 73.7924V79.242Z" fill="white"/>
<path fill-rule="evenodd" clip-rule="evenodd" d="M139.113 152.261C138.191 152.261 137.442 151.513 137.442 150.59C137.442 149.667 138.19 148.919 139.113 148.919H144.563C145.486 148.919 146.234 149.667 146.234 150.59C146.234 151.513 145.486 152.261 144.563 152.261H139.113ZM146.499 141.533C146.499 140.61 147.247 139.862 148.17 139.862C149.093 139.862 149.841 140.61 149.841 141.533V146.983C149.841 147.906 149.093 148.654 148.17 148.654C147.248 148.654 146.499 147.906 146.499 146.983V141.533ZM157.227 148.919C158.15 148.919 158.898 149.667 158.898 150.59C158.898 151.513 158.15 152.261 157.227 152.261H151.778C150.855 152.261 150.107 151.513 150.107 150.59C150.107 149.667 150.855 148.919 151.778 148.919H157.227ZM149.841 159.647C149.841 160.57 149.093 161.318 148.17 161.318C147.248 161.318 146.499 160.57 146.499 159.647V154.198C146.499 153.275 147.247 152.527 148.17 152.527C149.093 152.527 149.841 153.275 149.841 154.198V159.647Z" fill="white"/>
<path fill-rule="evenodd" clip-rule="evenodd" d="M108.337 158.911C92.5526 149.639 63.5134 128.359 63.1263 107.125C62.6948 83.4859 89.2651 72.7652 109.254 93.0901C129.239 72.7682 155.809 83.4819 155.381 107.121C154.998 128.356 125.955 149.638 110.171 158.911C109.589 159.252 108.918 159.252 108.337 158.911Z" fill="#FE646F"/>
<path d="M98.0123 155.655C105.635 148.033 105.635 135.674 98.0123 128.052C90.3899 120.429 78.0315 120.429 70.4091 128.052C62.7866 135.674 62.7866 148.033 70.4091 155.655C78.0315 163.278 90.3899 163.278 98.0123 155.655Z" fill="#8AC9FE"/>
<path fill-rule="evenodd" clip-rule="evenodd" d="M82.0438 128.934H86.4041C87.3243 128.934 88.075 129.684 88.075 130.605V138.009H95.4793C96.3996 138.009 97.1502 138.759 97.1502 139.68V144.04C97.1502 144.961 96.3996 145.711 95.4793 145.711H88.075V153.115C88.075 154.036 87.3243 154.786 86.4041 154.786H82.0438C81.1235 154.786 80.3729 154.036 80.3729 153.115V145.711H72.9688C72.0485 145.711 71.2979 144.961 71.2979 144.04V139.68C71.2979 138.759 72.0485 138.009 72.9688 138.009H80.3729V130.605C80.3729 129.684 81.1235 128.934 82.0438 128.934Z" fill="white"/>
<path fill-rule="evenodd" clip-rule="evenodd" d="M145.978 121.736C145.488 122.515 144.459 122.748 143.681 122.258C142.902 121.768 142.668 120.739 143.158 119.961C144.577 117.701 145.721 115.418 146.507 113.14C147.226 111.053 147.638 108.992 147.674 106.986C147.742 103.22 146.853 99.6497 145.006 96.7642C143.319 94.1296 140.817 92.0559 137.498 90.9243C135.66 90.3272 133.814 90.0784 131.994 90.1155C130.007 90.1561 128.037 90.5358 126.127 91.1753C125.255 91.4673 124.311 90.9968 124.019 90.1245C123.727 89.2522 124.198 88.3081 125.07 88.0163C127.283 87.2753 129.585 86.8349 131.929 86.7871C134.123 86.7423 136.342 87.0406 138.541 87.7562L138.561 87.7628C142.646 89.1534 145.73 91.7109 147.812 94.9631C150.02 98.4104 151.083 102.627 151.003 107.038C150.96 109.436 150.488 111.838 149.666 114.224C148.8 116.733 147.54 119.248 145.978 121.736Z" fill="#EB3241"/>
</g>
</g>
<defs>
<filter id="filter0_d_376_316" x="47.9958" y="48.5851" width="123.586" height="127.283" filterUnits="userSpaceOnUse" color-interpolation-filters="sRGB">
<feFlood flood-opacity="0" result="BackgroundImageFix"/>
<feColorMatrix in="SourceAlpha" type="matrix" values="0 0 0 0 0 0 0 0 0 0 0 0 0 0 0 0 0 0 127 0" result="hardAlpha"/>
<feOffset dy="1.81198"/>
<feGaussianBlur stdDeviation="6.34194"/>
<feComposite in2="hardAlpha" operator="out"/>
<feColorMatrix type="matrix" values="0 0 0 0 0 0 0 0 0 0 0 0 0 0 0 0 0 0 0.25 0"/>
<feBlend mode="normal" in2="BackgroundImageFix" result="effect1_dropShadow_376_316"/>
<feBlend mode="normal" in="SourceGraphic" in2="effect1_dropShadow_376_316" result="shape"/>
</filter>
<clipPath id="clip0_376_316">
<rect width="120" height="120" fill="white" transform="translate(50 50)"/>
</clipPath>
</defs>
</svg>
