<svg width="280" height="214" viewBox="0 0 280 214" fill="none" xmlns="http://www.w3.org/2000/svg">
<g clip-path="url(#clip0_665_1564)">
<path d="M1.5 134.08C1.5 188.756 63.2842 215 139.5 215C215.716 215 277.5 188.756 277.5 134.08C277.5 79.4042 243.777 17 139.5 17C41.5189 17 1.5 79.4042 1.5 134.08Z" fill="#A3BD8A"/>
<g clip-path="url(#clip1_665_1564)">
<path d="M103.814 120.177C94.9438 117.342 86.8736 111.587 82.3431 103.597C81.8926 102.802 81.4681 101.949 81.4727 101.042C81.4834 99.2624 83.0638 97.9414 84.3572 96.6926C90.4834 90.772 92.1998 81.7829 92.6304 73.3631C93.2061 62.0973 92.0624 50.5722 95.1789 39.7145C98.2299 29.0823 105.347 19.7173 114.538 13.3212C123.729 6.92497 134.902 3.44534 146.162 2.87461C158.827 2.2333 172.379 5.65616 180.832 14.9168C183.071 17.3684 184.891 20.1546 186.606 22.9822C194.32 35.7132 200.153 50.0766 199.718 64.8742C199.425 74.8528 196.363 85.2687 200.166 94.5293C201.838 98.6042 204.748 102.102 208.081 105.037C208.59 105.484 209.159 106.071 208.987 106.719C208.883 107.108 208.53 107.378 208.197 107.616C199.294 113.965 188.592 117.866 177.618 118.765C175.544 118.936 173.08 118.824 171.916 117.133C171.365 116.331 171.211 115.281 170.519 114.591C169.606 113.678 168.119 113.713 166.819 113.831C162.403 114.233 158.007 114.855 153.655 115.691C149.277 116.532 144.944 117.589 140.676 118.859C137.393 119.836 134.161 121.279 130.739 121.713C126.607 122.237 122.478 122.638 118.305 122.53C113.941 122.418 109.583 121.829 105.384 120.649C104.859 120.502 104.336 120.346 103.817 120.178L103.814 120.177Z" fill="#E9B2AD"/>
<path d="M128.402 118.709C125.546 121.008 122.978 123.666 120.773 126.601C117.905 130.416 114.239 133.729 111.24 137.44C110.157 138.779 109.062 140.133 107.702 141.187C105.805 142.656 103.498 143.466 101.267 144.342C81.9676 151.922 65.6715 166.026 53.051 182.539C40.4304 199.051 31.2532 217.953 23.3556 237.202C17.8585 250.603 8.7576 262.823 5.79066 277.009C4.70345 282.208 4.39958 288.218 7.87653 292.22C11.0359 295.857 16.2857 296.648 21.0789 296.975C34.6584 297.902 48.2883 296.99 61.8678 296.079C61.4097 309.319 60.0537 322.528 57.8137 335.582C57.5067 337.373 57.6884 339.068 57.438 340.868C55.6881 353.445 53.9366 366.023 52.1867 378.6H202.149C197.035 359.8 192.267 340.364 188.496 321.246C187.974 318.598 187.472 315.933 187.394 313.236C187.304 310.071 187.802 306.921 188.31 303.795C188.872 300.347 189.449 296.901 190.042 293.46C192.717 277.911 197.762 262.975 202.058 247.797C208.046 226.632 219.594 206.97 222.156 185.118C223.206 176.164 220.989 167.835 215.739 160.522C210.49 153.21 203.033 147.748 195.108 143.519C193.543 142.684 191.873 141.816 190.966 140.286C189.814 138.345 189.108 136.58 187.5 135C186.885 134.396 187.055 133.11 186.298 132.699C176.682 127.474 176.337 112.322 166.844 106.875C162.393 104.321 156.883 104.555 151.858 105.576C143.325 107.308 135.194 113.236 128.402 118.707V118.709Z" fill="white"/>
<path d="M129.726 26.9421C129.726 26.9421 119.603 28.0712 113.073 37.1922C106.542 46.3147 105.32 54.5673 105.514 61.1522C105.708 67.7371 106.722 66.9777 105.955 79.138C105.187 91.2982 108.832 95.6048 108.832 95.6048C108.832 95.6048 116.11 110.926 124.499 114.298C133.475 117.905 126.783 130.367 126.783 130.367L119.765 142.828C119.765 142.828 112.747 158.405 113.483 161.428C114.006 163.574 113.641 167.463 119.41 168.551C125.179 169.639 131.224 165.55 135.921 163.161C140.616 160.773 157.348 142.42 159.258 139.878C161.168 137.336 168.771 125.61 169.376 123.809C169.376 123.809 167.117 121.806 167.652 109.256C168.186 96.7064 168.412 89.6106 169.913 89.3835C171.414 89.1565 173.596 93.5397 179.118 88.2881C184.639 83.0364 185.914 70.531 181.476 68.5211C177.037 66.5113 173.011 70.2932 173.011 70.2932C173.011 70.2932 164.094 66.6647 161.246 58.5793C158.398 50.4955 152.392 33.6175 146.857 30.8359C141.32 28.0544 134.272 25.6226 129.726 26.9405V26.9421Z" fill="#FFEEE4"/>
<path d="M103.191 205.402C113.912 189.156 125.781 173.675 138.681 159.115C134.609 161.426 130.171 163.339 125.499 163.542C124.236 163.597 122.991 163.465 121.738 163.499C121.109 163.516 120.476 163.499 119.85 163.439C118.607 163.316 117.375 163.012 116.259 162.439C114.378 161.469 112.857 159.62 112.698 157.501C112.721 157.81 112.448 158.318 112.356 158.617C112.22 159.056 112.084 159.496 111.947 159.935C111.683 160.779 111.417 161.622 111.148 162.465C110.901 163.239 110.569 164.028 110.438 164.832C110.359 165.315 110.418 165.783 110.412 166.268C110.394 167.796 109.707 169.399 109.323 170.868C108.885 172.549 108.467 174.237 108.067 175.929C106.854 181.073 105.827 186.261 104.984 191.477C104.238 196.098 103.64 200.744 103.189 205.403L103.191 205.402Z" fill="#ADDADD"/>
<path d="M105.109 74.7975C104.791 77.5621 105.008 80.4143 105.257 83.1759C105.512 86.0126 105.825 88.8724 106.761 91.5758C107.853 94.7332 109.386 97.7403 111.041 100.632C112.612 103.377 114.359 106.03 116.399 108.448C120.478 113.28 126.084 117.159 132.553 117.452C135.476 117.584 138.49 117.136 141.282 116.263C143.908 115.441 146.415 114.04 148.738 112.579C154.399 109.02 158.871 104.078 162.023 98.1775C162.649 97.0054 160.874 95.9621 160.247 97.1343C157.646 102.004 154.133 106.28 149.636 109.496C145.177 112.684 140.425 115.011 134.914 115.359C131.741 115.559 128.724 115.01 125.877 113.572C123.268 112.254 120.988 110.408 118.997 108.273C116.964 106.094 115.25 103.644 113.707 101.097C112.099 98.443 110.605 95.6829 109.423 92.8093C108.232 89.9127 107.688 86.9884 107.383 83.8877C107.088 80.8975 106.824 77.7938 107.167 74.7959C107.318 73.478 105.262 73.4888 105.11 74.7959L105.109 74.7975Z" fill="#512C21"/>
<path d="M106.649 57.4022C106.598 47.9268 111.405 38.7767 118.837 33.0295C120.982 31.371 123.361 29.9871 125.873 28.9699C127.086 28.479 126.556 26.4799 125.327 26.977C115.879 30.8018 108.493 39.0759 105.734 48.9379C104.966 51.6857 104.578 54.5455 104.593 57.4007C104.601 58.7293 106.656 58.7324 106.65 57.4007L106.649 57.4022Z" fill="#512C21"/>
<path d="M133.566 22.6675C134.597 19.4487 135.779 16.2467 137.703 13.4452C139.619 10.6545 142.25 8.47128 145.006 6.56117C146.089 5.81093 145.061 4.01896 143.968 4.77686C140.958 6.86341 138.151 9.21998 136.035 12.2439C133.954 15.2188 132.682 18.68 131.581 22.1182C131.175 23.387 133.16 23.9301 133.564 22.6675H133.566Z" fill="#512C21"/>
<path d="M134.182 28.5254C137.321 27.5159 140.705 27.9977 143.628 29.4644C146.704 31.0094 149.057 33.5132 150.81 36.4559C154.582 42.7861 155.507 50.3314 158.977 56.8074C160.809 60.2287 163.335 63.2818 166.986 64.7823C167.503 64.9955 168.111 64.5506 168.25 64.0612C168.418 63.4721 168.044 63.0011 167.533 62.7909C164.237 61.4361 162.052 58.3263 160.484 55.2501C158.719 51.7889 157.651 48.0331 156.427 44.3602C154.24 37.7968 151.149 30.9419 144.664 27.6816C141.265 25.9725 137.301 25.3557 133.633 26.5356C132.378 26.9391 132.914 28.9351 134.18 28.5285L134.182 28.5254Z" fill="#512C21"/>
<path d="M173.818 70.847C174.508 69.9694 175.557 69.4109 176.589 69.0366C177.557 68.6837 178.687 68.36 179.707 68.6745C181.66 69.2774 182.783 71.9838 183.239 73.785C183.879 76.3103 183.403 79.1241 182.537 81.5421C181.638 84.052 180.059 86.3196 177.927 87.9244C176.792 88.779 175.435 89.6059 173.986 89.7149C172.546 89.8223 171.46 89.0736 170.579 87.9919C169.741 86.9625 168.293 88.4307 169.125 89.4525C171.292 92.1159 174.491 92.2862 177.388 90.7259C180.292 89.161 182.6 86.5222 183.942 83.5166C185.241 80.6077 185.935 77.2033 185.391 74.032C184.965 71.5466 183.516 68.2787 181.164 67.0528C179.685 66.2811 178.034 66.4069 176.484 66.8917C174.992 67.3581 173.355 68.1237 172.364 69.3833C171.552 70.4158 172.998 71.8872 173.818 70.8439V70.847Z" fill="#512C21"/>
<path d="M173.141 81.9869C174.196 80.8961 175.404 80.0461 176.775 79.4017C177.989 78.8325 176.933 77.0283 175.725 77.5944C174.204 78.3078 172.839 79.2974 171.669 80.5064C170.735 81.4729 172.205 82.9535 173.141 81.9854V81.9869Z" fill="#512C21"/>
<path d="M140.6 2.30353C124.299 4.54197 108.776 13.2518 99.698 27.2454C95.2041 34.1725 92.3777 42.221 91.8111 50.4844C91.4874 55.2098 92.0662 59.9107 92.3883 64.6177C92.6617 68.6021 92.6464 72.6049 92.0799 76.5632C90.8705 85.0275 87.3752 93.2586 80.7252 98.8217C79.7067 99.6732 81.168 101.128 82.1789 100.282C88.0196 95.3973 91.6325 88.3951 93.332 81.0339C94.1932 77.3027 94.604 73.4579 94.6254 69.63C94.6513 64.9828 93.9917 60.3725 93.81 55.7345C93.1534 38.9746 101.915 23.2381 115.628 13.9314C123.246 8.76109 132.053 5.54382 141.147 4.29496C141.701 4.21825 141.993 3.5125 141.864 3.02462C141.707 2.42627 141.147 2.22836 140.6 2.30353Z" fill="#512C21"/>
<path d="M84.0699 105.353C85.1175 107.756 87.0338 109.663 88.9533 111.384C90.8391 113.077 92.8776 114.608 95.0276 115.946C99.2894 118.597 104.026 120.525 108.926 121.588C111.753 122.202 114.639 122.532 117.529 122.575C118.87 122.595 118.87 120.502 117.529 120.482C107.984 120.34 98.5198 116.816 91.23 110.606C89.1396 108.825 86.9865 106.861 85.8672 104.296C85.3312 103.066 83.5355 104.129 84.0684 105.352L84.0699 105.353Z" fill="#512C21"/>
<path d="M180.146 119.258C190.543 118.534 200.511 114.569 208.601 107.973C209.643 107.125 208.162 105.652 207.129 106.494C199.496 112.719 189.949 116.484 180.147 117.167C178.817 117.259 178.808 119.353 180.147 119.259L180.146 119.258Z" fill="#512C21"/>
<path d="M151.301 4.30611C159.029 3.17231 166.86 5.62707 173.297 9.87688C180.068 14.3461 185.127 20.8727 188.879 28.0114C190.781 31.6337 192.363 35.4125 193.745 39.2635C195.222 43.3798 196.59 47.579 197.544 51.8518C198.574 56.4575 198.743 61.0802 198.422 65.778C198.105 70.4267 197.438 75.0462 197.241 79.7041C196.892 87.8785 198.351 96.9151 204.581 102.745C205.549 103.65 207.006 102.193 206.034 101.285C200.429 96.0375 199.055 87.9583 199.265 80.5863C199.4 75.8425 200.081 71.1385 200.434 66.4116C200.786 61.6938 200.695 57.016 199.756 52.3673C198.871 47.9947 197.486 43.7081 196.01 39.5043C194.626 35.566 193.051 31.6828 191.165 27.9577C187.474 20.6656 182.491 13.9717 175.854 9.14659C168.635 3.898 159.669 1.00905 150.756 2.31775C150.202 2.39906 149.909 3.09713 150.038 3.58809C150.194 4.18183 150.756 4.39049 151.303 4.30917L151.301 4.30611Z" fill="#512C21"/>
<path d="M127.506 115.921C128.184 117.802 128.417 119.661 128.263 121.654C128.081 123.993 127.67 126.308 127.475 128.646C127.383 129.752 129.1 129.746 129.191 128.646C129.391 126.242 129.828 123.861 129.995 121.455C130.137 119.398 129.86 117.403 129.161 115.464C128.788 114.428 127.128 114.876 127.506 115.923V115.921Z" fill="#512C21"/>
<path d="M106.268 57.4484C109.97 55.2591 114.262 54.4306 118.515 54.9906C119.071 55.0642 119.538 54.4628 119.543 53.958C119.549 53.3398 119.063 52.9976 118.515 52.9255C113.928 52.3226 109.216 53.3091 105.23 55.6656C104.091 56.3392 105.123 58.1265 106.268 57.4499V57.4484Z" fill="#512C21"/>
<path d="M141.16 53.2523C145.78 52.591 151.073 52.5665 154.904 55.658C155.926 56.4834 157.39 55.0305 156.358 54.1974C151.868 50.5751 146.063 50.4815 140.613 51.2609C140.059 51.3406 139.767 52.0418 139.895 52.5312C140.051 53.1265 140.613 53.3305 141.16 53.2523Z" fill="#512C21"/>
<path d="M127.529 70.5691C127.865 72.2537 127.779 73.9874 127.305 75.6367C126.799 77.3872 125.807 78.6499 124.803 80.1212C123.837 81.5389 123.899 83.3201 124.77 84.7745C125.677 86.2888 127.262 87.171 128.825 87.8568C130.027 88.383 131.075 86.6033 129.864 86.0725C128.522 85.4849 126.889 84.7485 126.314 83.2802C125.669 81.634 127.208 80.5033 127.975 79.2206C129.626 76.4621 130.136 73.1635 129.511 70.0214C129.251 68.7189 127.269 69.2696 127.528 70.5707L127.529 70.5691Z" fill="#512C21"/>
<path d="M122.838 97.4243C125.467 100.149 129.525 100.964 133.145 100.566C137.042 100.138 140.812 98.4446 143.225 95.2242C144.028 94.1533 142.241 93.1101 141.447 94.1687C139.482 96.7907 136.097 98.1914 132.944 98.4952C129.913 98.7882 126.507 98.242 124.29 95.9453C123.362 94.9818 121.907 96.4623 122.835 97.4243H122.838Z" fill="#512C21"/>
<path d="M144.443 73.6245C145.616 73.4938 146.421 72.0702 146.241 70.4448C146.062 68.8194 144.966 67.6078 143.793 67.7384C142.621 67.8691 141.815 69.2927 141.995 70.9181C142.174 72.5435 143.27 73.7552 144.443 73.6245Z" fill="#512C21"/>
<path d="M144.458 73.702C143.238 73.8386 142.094 72.5882 141.909 70.9159C141.724 69.2436 142.567 67.7722 143.787 67.6357C145.007 67.4991 146.151 68.7495 146.336 70.4218C146.521 72.0942 145.678 73.5655 144.458 73.702ZM143.807 67.8167C142.686 67.9425 141.915 69.3233 142.088 70.8959C142.262 72.4685 143.316 73.6468 144.436 73.521C145.557 73.3952 146.328 72.0144 146.156 70.4418C145.982 68.8692 144.928 67.6909 143.807 67.8167Z" fill="#512C21"/>
<path d="M116.538 75.5883C117.71 75.4576 118.515 74.0341 118.336 72.4087C118.157 70.7833 117.061 69.5716 115.888 69.7023C114.715 69.833 113.91 71.2566 114.09 72.882C114.269 74.5073 115.365 75.719 116.538 75.5883Z" fill="#512C21"/>
<path d="M116.551 75.6688C115.331 75.8054 114.188 74.555 114.003 72.8827C113.818 71.2104 114.661 69.739 115.881 69.6025C117.101 69.4659 118.245 70.7163 118.43 72.3886C118.614 74.0609 117.772 75.5323 116.551 75.6688ZM115.903 69.7851C114.782 69.9109 114.011 71.2917 114.183 72.8643C114.357 74.4368 115.411 75.6151 116.532 75.4893C117.652 75.3635 118.424 73.9827 118.251 72.4101C118.077 70.8375 117.023 69.6593 115.903 69.7851Z" fill="#512C21"/>
<path d="M171.064 110.495C168.603 127.756 156.396 141.886 144.279 153.507C138.903 158.663 133.598 163.847 128.583 169.366C123.077 175.426 117.826 181.733 112.997 188.355C108.128 195.034 103.553 202.1 100.484 209.816C99.9859 211.066 102 211.609 102.492 210.373C105.193 203.582 109.189 197.306 113.39 191.367C118.119 184.682 123.331 178.344 128.788 172.249C133.706 166.758 138.852 161.485 144.221 156.437C150.682 150.363 156.828 143.881 161.989 136.639C167.415 129.028 171.738 120.398 173.071 111.05C173.152 110.487 172.932 109.933 172.344 109.763C171.857 109.622 171.142 109.935 171.063 110.493L171.064 110.495Z" fill="#512C21"/>
<path d="M127.433 125.166C122.663 132.856 118.504 140.909 115.045 149.278C111.524 157.795 108.807 166.612 106.672 175.576C104.493 184.725 102.89 194.001 101.475 203.297C100.033 212.76 98.6985 222.243 97.425 231.729C95.9622 242.631 94.6826 253.563 93.9908 264.545C93.9053 265.888 95.9897 265.884 96.0736 264.545C97.2845 245.351 100.161 226.276 102.973 207.267C105.686 188.913 109.004 170.519 115.724 153.16C119.359 143.772 123.934 134.769 129.235 126.222C129.947 125.076 128.145 124.025 127.436 125.166H127.433Z" fill="#512C21"/>
<path d="M168.038 108.501C171.036 109.753 172.653 113.497 173.954 116.229C175.919 120.356 177.648 124.608 180.147 128.452C181.659 130.78 183.426 132.943 185.516 134.77C186.523 135.651 188.002 134.177 186.988 133.291C183.239 130.014 180.715 125.718 178.578 121.268C176.783 117.533 175.348 113.454 172.887 110.091C171.743 108.527 170.391 107.234 168.591 106.482C168.067 106.264 167.452 106.719 167.31 107.213C167.139 107.812 167.521 108.283 168.037 108.5L168.038 108.501Z" fill="#512C21"/>
<path d="M105.868 214.136C108.346 212.58 110.659 210.755 112.958 208.946C115.885 206.644 118.763 204.282 121.654 201.933C124.399 199.7 127.143 197.464 129.967 195.333C131.072 194.498 132.188 193.676 133.341 192.907C134.865 191.888 136.525 191.012 137.614 189.481C139.173 187.29 138.883 184.053 138.796 181.503C138.693 178.497 138.315 175.501 137.699 172.558C137.272 172.988 136.846 173.416 136.418 173.846C141.999 174.645 147.538 175.711 153.018 177.038C154.321 177.354 154.877 175.337 153.572 175.021C148.092 173.694 142.554 172.629 136.973 171.828C136.177 171.715 135.514 172.27 135.691 173.115C136.227 175.676 136.566 178.266 136.689 180.88C136.742 182.023 136.756 183.169 136.731 184.314C136.704 185.555 136.714 186.907 136.082 188.016C135.252 189.473 133.573 190.24 132.231 191.139C131.126 191.881 130.054 192.668 128.991 193.468C123.388 197.694 118.047 202.258 112.553 206.623C110.05 208.613 107.528 210.627 104.817 212.329C103.683 213.041 104.727 214.852 105.868 214.136Z" fill="#512C21"/>
<path d="M128.035 118.123C120.71 124.376 114.202 131.549 108.41 139.246C102.469 147.142 97.2862 155.641 93.0748 164.593C90.7874 169.455 88.787 174.456 87.1562 179.581C86.747 180.866 88.758 181.417 89.1642 180.138C92.0487 171.07 96.1013 162.405 100.92 154.217C105.869 145.809 111.64 137.879 118.182 130.648C121.723 126.733 125.496 123.029 129.509 119.603C130.532 118.73 129.052 117.256 128.037 118.124L128.035 118.123Z" fill="#512C21"/>
<path d="M95.1521 182.579C93.5686 184.932 91.9851 187.286 90.4032 189.639C89.6122 190.816 88.8197 191.993 88.0287 193.169C87.3721 194.145 86.5857 195.145 86.3368 196.325C86.0894 197.497 86.4345 198.617 86.859 199.702C87.3217 200.884 87.8165 202.054 88.3372 203.212C89.3862 205.543 90.5559 207.817 91.8416 210.023C93.3014 212.528 94.9109 214.939 96.6532 217.254C97.4518 218.315 99.2597 217.274 98.4519 216.198C94.7612 211.29 91.6507 205.927 89.3083 200.241C88.7861 198.973 87.9508 197.517 88.5937 196.161C89.2595 194.759 90.3345 193.475 91.1987 192.191C93.1166 189.338 95.0345 186.488 96.9524 183.636C97.7052 182.517 95.9019 181.469 95.1536 182.58L95.1521 182.579Z" fill="#512C21"/>
<path d="M62.9906 210.021C61.4514 218.088 61.0911 226.439 62.1997 234.587C62.6822 238.136 63.5862 241.789 65.6766 244.753C67.5686 247.436 70.4225 249.61 73.7132 250.126C75.6921 250.436 77.6192 250.077 79.473 249.357C81.6398 248.518 83.7424 247.487 85.8604 246.534C87.082 245.985 86.0237 244.181 84.8098 244.727C83.0828 245.505 81.3649 246.312 79.6211 247.054C78.062 247.719 76.4327 248.251 74.721 248.148C71.8121 247.973 69.1185 246.028 67.4739 243.698C65.5636 240.99 64.7284 237.693 64.2642 234.451C63.745 230.813 63.5938 227.099 63.661 223.427C63.7389 219.112 64.1893 214.816 64.9971 210.578C65.2475 209.262 63.2411 208.699 62.9891 210.021H62.9906Z" fill="#512C21"/>
<path d="M188.943 140.751C202.878 148.891 219.52 159.267 221.328 177.028C222.396 187.503 218.919 198.065 215.642 207.867C212.446 217.427 208.618 226.763 204.306 235.867C199.989 244.98 195.199 253.862 190.076 262.539C184.933 271.251 179.516 279.845 173.711 288.127C168.223 295.956 161.918 303.259 153.484 307.96C145.594 312.359 136.582 314.456 127.608 314.843C107.484 315.708 88.4224 307.923 70.52 299.54C68.1715 298.44 65.8306 297.326 63.4882 296.211C62.2834 295.637 61.2252 297.44 62.4376 298.018C81.0577 306.889 100.449 316.124 121.408 316.946C130.596 317.307 139.989 316.072 148.552 312.612C152.751 310.915 156.735 308.721 160.336 305.959C164.26 302.951 167.69 299.371 170.785 295.516C173.973 291.544 176.834 287.323 179.645 283.08C182.486 278.79 185.266 274.457 187.964 270.075C193.417 261.223 198.547 252.165 203.208 242.864C207.848 233.604 212.024 224.098 215.575 214.36C217.337 209.524 218.948 204.63 220.373 199.684C221.86 194.518 223.106 189.243 223.485 183.866C223.843 178.766 223.323 173.58 221.513 168.778C220.058 164.918 217.903 161.406 215.291 158.23C209.83 151.593 202.608 146.598 195.353 142.142C193.58 141.053 191.789 139.994 189.992 138.945C188.831 138.267 187.78 140.074 188.941 140.752L188.943 140.751Z" fill="#512C21"/>
<path d="M106.733 140.871C91.573 145.59 77.9324 155.076 66.5457 166.015C54.4489 177.635 45.1831 191.807 37.0015 206.385C32.2266 214.894 27.8167 223.601 23.4113 232.304C22.8051 233.503 24.6008 234.563 25.2101 233.36C32.9245 218.119 40.6724 202.817 50.3321 188.702C54.9161 182.003 59.9201 175.636 65.6219 169.858C71.2901 164.116 77.4973 158.895 84.1778 154.378C91.3226 149.547 99.0415 145.453 107.287 142.887C108.564 142.489 108.019 140.469 106.733 140.869V140.871Z" fill="#512C21"/>
<path d="M112.007 157.574C112.053 161.672 115.562 163.942 119.217 164.651C124.134 165.605 129.431 164.68 134.061 162.907C137.001 161.781 139.737 160.266 142.212 158.313C143.266 157.483 141.783 156.01 140.74 156.834C136.883 159.877 132.12 161.782 127.301 162.581C123.753 163.171 119.304 163.341 116.156 161.277C114.838 160.414 114.108 159.128 114.09 157.575C114.074 156.23 111.992 156.227 112.007 157.575V157.574Z" fill="#512C21"/>
<path d="M167.111 94.7042C166.921 99.5109 166.757 104.318 166.556 109.124C166.464 111.306 166.185 113.511 166.359 115.694C166.534 117.897 167.253 119.913 168.396 121.796C169.092 122.943 170.894 121.894 170.194 120.74C169.124 118.976 168.481 117.116 168.405 115.042C168.324 112.862 168.577 110.669 168.664 108.491C168.846 103.896 169.013 99.2992 169.196 94.7042C169.249 93.3572 167.166 93.3602 167.113 94.7042H167.111Z" fill="#512C21"/>
<path d="M186.03 133.061C186.516 132.817 187.102 132.987 187.387 133.437L187.439 133.53L190.777 140.207L153.742 177.242C153.332 177.652 149.909 176.41 149.499 176C149.089 175.59 151.848 176.168 152.258 175.758L188.222 139.793L185.56 134.47L185.517 134.371C185.329 133.873 185.544 133.304 186.03 133.061Z" fill="#512C21"/>
<path d="M87.0163 179.631C87.2074 179.122 87.7517 178.849 88.2663 178.984L88.3689 179.017L96.3689 182.017L96.4675 182.06C96.9441 182.296 97.174 182.86 96.9831 183.369C96.7921 183.878 96.2478 184.151 95.7331 184.016L95.6306 183.983L87.6306 180.983L87.532 180.94C87.0553 180.704 86.8255 180.14 87.0163 179.631Z" fill="#512C21"/>
</g>
</g>
<defs>
<clipPath id="clip0_665_1564">
<rect width="279" height="214" fill="white" transform="translate(0.5)"/>
</clipPath>
<clipPath id="clip1_665_1564">
<rect width="219.573" height="336.52" fill="white" transform="translate(4.01953 2)"/>
</clipPath>
</defs>
</svg>
