<svg width="280" height="214" viewBox="0 0 280 214" fill="none" xmlns="http://www.w3.org/2000/svg">
<g clip-path="url(#clip0_848_2973)">
<path d="M1.5 134.08C1.5 188.756 63.2842 215 139.5 215C215.716 215 277.5 188.756 277.5 134.08C277.5 79.4042 243.777 17 139.5 17C41.5189 17 1.5 79.4042 1.5 134.08Z" fill="#C7D8B8"/>
<g clip-path="url(#clip1_848_2973)">
<path d="M4.36542 269.712C9.97243 251.146 16.2515 232.783 23.1875 214.673C29.6613 197.764 36.1639 180.357 43.4316 163.775C45.3954 159.295 47.4168 154.783 50.3778 150.894C55.4938 144.172 63.0291 139.792 70.4763 135.821C77.6561 131.993 84.9492 128.38 92.239 124.767C101.027 120.409 110.347 115.554 115.046 106.929C127.735 113.357 143.383 116.712 157.551 115.514C160.717 121.129 163.881 126.744 167.047 132.361C167.813 133.724 168.606 135.114 169.782 136.144C170.986 137.196 172.506 137.793 173.971 138.428C193.666 146.965 208.016 165.642 213.997 186.299C215.405 191.158 216.391 196.128 217.376 201.09C218.911 208.827 220.447 216.561 221.984 224.298C224.508 237.015 227.252 249.506 229.524 262.273C233.151 282.645 236.04 303.775 231.072 323.861C230.674 325.464 230.227 327.056 229.709 328.624C229.38 329.613 229.103 330.754 228.581 331.662C228.38 332.013 228.126 332.291 227.963 332.671C227.525 333.691 227.131 334.709 226.596 335.687C225.539 337.627 224.195 339.408 222.621 340.954C222.324 341.246 222.009 341.54 221.845 341.922C221.713 342.224 221.686 342.56 221.662 342.887C221.578 344.106 221.59 345.315 221.571 346.536C221.564 346.939 221.486 347.272 221.386 347.657C221.192 348.414 221.276 349.179 221.303 349.958C221.681 360.666 222.059 371.374 222.436 382.082C222.524 384.549 221.982 385.715 221.943 388.184C221.925 389.27 221.898 390.401 221.398 391.364C221.114 391.916 220.68 392.395 220.489 392.983C220.31 393.535 220.357 394.13 220.408 394.707C220.875 400.122 221.339 405.538 221.806 410.953H58.0976C56.8736 410.953 55.5869 411.066 54.3663 410.953C53.7873 410.898 53.6858 410.664 53.7873 410.106C53.9126 409.42 54.1107 408.772 54.2038 408.076C54.3765 406.768 54.3816 405.308 54.7354 404.039C54.8031 403.795 54.9182 403.574 54.9605 403.32C55.0994 402.481 55.0046 401.546 55.0249 400.696C55.0723 398.906 55.1417 397.117 55.2348 395.327C55.421 391.75 55.6987 388.176 56.0677 384.614C56.4351 381.071 56.8922 377.536 57.4407 374.016C57.5795 373.132 57.7607 372.248 57.8707 371.359C57.9418 370.801 57.8318 370.317 57.7996 369.767C57.7624 369.146 57.913 368.516 58.0061 367.907C58.36 365.586 58.7138 363.266 59.0676 360.946C59.7448 356.488 60.4236 352.032 61.1025 347.574C61.4022 345.612 61.7001 343.651 61.9998 341.691C57.0953 338.436 51.534 335.826 46.6313 332.571C39.9425 328.134 33.2486 323.693 26.2585 319.754C17.4992 314.819 7.67682 310.086 3.21254 301.065C-1.54292 291.455 1.26904 279.975 4.3705 269.709L4.36542 269.712ZM44.3797 281.913C44.5337 282.648 45.1229 283.2 45.6816 283.699C52.0995 289.424 58.7984 294.832 65.7462 299.898C65.7141 299.141 65.6819 298.382 65.6463 297.626C65.3653 291.596 64.9743 285.572 64.4748 279.556C63.9771 273.568 63.3694 267.589 62.6532 261.623C62.5788 261.002 62.5026 260.38 62.4264 259.759C62.2588 258.409 62.0861 257.06 61.9084 255.712C61.7577 254.577 61.3615 253.246 61.5511 252.108C61.7357 251.003 61.5511 249.9 61.3734 248.797C61.2701 248.152 61.1465 247.509 60.9992 246.873C60.9451 246.635 60.4118 245.196 60.5235 245.052C58.0704 248.198 56.4605 251.947 54.8353 255.548C53.6265 258.23 52.4431 260.925 51.2886 263.634C48.9896 269.025 46.7989 274.462 44.7217 279.943C44.4813 280.576 44.2409 281.252 44.3797 281.915V281.913Z" fill="white"/>
<path d="M191.356 148.975C188.42 144.233 187.392 138.587 186.421 133.093C186.086 131.199 185.75 129.283 185.893 127.365C186.206 123.143 188.757 119.485 190.731 115.743C193.992 109.559 195.82 102.622 196.032 95.6303C196.307 86.4514 193.848 77.4303 191.181 68.6451C186.199 52.2371 180.302 35.8546 170.526 21.7782C168.42 18.7458 166.127 15.8219 163.493 13.2289C161.937 11.6982 160.126 10.4968 158.541 9.01703C157.566 8.10576 156.693 7.93946 155.377 7.69679C151.812 7.04007 148.247 6.38334 144.683 5.72661C143.935 5.58916 143.186 5.45001 142.437 5.31255C137.796 4.45728 133.13 3.60031 128.412 3.52564C125.824 3.48492 123.223 3.68346 120.692 4.22649C110.603 6.39522 102.297 13.9993 97.1758 22.9797C94.1319 28.3184 92.0632 34.1491 90.0113 39.9443C85.9517 51.4124 81.8751 62.9365 79.6404 74.8968C77.3465 87.1692 77.0163 99.7743 74.2332 111.945C71.45 124.116 65.7194 136.305 55.3366 143.203C57.0854 143.561 58.9798 143.122 60.3951 142.032C61.4464 141.223 63.2257 141.671 64.3193 142.417C61.355 150.974 59.2287 160.431 62.2082 168.982C64.2905 174.962 68.7413 179.919 73.9843 183.454C79.2273 186.988 85.2457 189.206 91.3369 190.898C89.2783 186.924 87.3907 182.861 85.6808 178.724C87.5566 179.053 89.434 179.383 91.3098 179.71C91.7483 179.786 92.2308 179.858 92.6168 179.635C93.4429 179.162 93.1551 177.904 92.698 177.07C90.5937 173.214 87.196 170.151 85.3304 166.173C82.7994 160.774 83.4275 154.471 84.3569 148.577C85.0696 144.065 85.9686 139.463 88.3336 135.557C92.7149 128.322 101.239 124.781 107 118.594C110.528 114.806 113.274 109.834 118.112 108.013C121.017 106.92 124.231 107.166 127.32 107.448C131.971 107.872 136.618 108.339 141.262 108.85C143.816 109.13 146.401 109.432 148.797 110.363C153.842 112.325 157.443 116.822 160.324 121.412C163.207 126.003 165.682 130.954 169.557 134.739C172 137.125 174.916 138.959 177.805 140.775C182.718 143.86 186.441 145.884 191.354 148.969L191.356 148.975Z" fill="#E6CDB3"/>
<path d="M149.945 196.819C143.571 172.897 130.588 151.349 117.361 130.439C115.622 127.691 113.818 124.752 113.811 121.499C113.806 119.588 114.429 117.742 114.874 115.885C115.644 112.668 115.886 109.347 115.837 106.045C115.812 104.29 115.705 102.537 115.556 100.789C115.519 100.365 115.587 99.7098 115.443 99.2822C115.275 98.785 114.764 98.3031 114.488 97.8517C114.168 97.3324 113.884 96.7928 113.631 96.2361C112.614 93.986 112.165 91.4727 112.38 89.0088C112.736 84.9394 114.783 81.2332 115.837 77.2895C116.565 74.5676 116.819 71.7438 117.068 68.937C117.761 61.1598 118.453 53.3809 119.145 45.6037C119.711 39.2468 123.298 33.4313 127.806 28.9242C130.728 26.0037 134.378 22.4061 138.482 21.9683C142.586 21.5305 146.129 25.8595 150.224 26.355L153.854 25.7135C157.328 26.3312 156.084 25.946 158.902 28.0553C160.456 29.2178 161.983 30.5193 163.153 32.0755C164.103 33.338 164.948 34.6769 165.681 36.0769C166.764 38.1455 167.604 40.3448 168.171 42.6119C168.415 43.586 168.555 44.5295 169.036 45.4187C169.243 45.7988 169.402 46.179 169.51 46.5998C170.225 49.4117 170.599 52.4034 170.704 55.3002C170.763 56.9191 170.711 58.538 170.707 60.1586C170.705 60.9714 170.799 61.8046 170.729 62.6158C170.699 62.9671 170.573 63.2878 170.507 63.6306C170.281 64.7964 170.494 66.1404 170.523 67.3215C170.585 69.9586 170.65 72.5957 170.712 75.2328C170.76 77.1809 170.805 79.1324 170.685 81.0771C170.318 86.9809 168.371 92.7794 165.104 97.7057C163.102 100.723 160.626 103.408 158.697 106.474C157.521 108.346 156.559 110.392 156.1 112.564C155.875 113.633 155.775 114.73 155.847 115.821C155.863 116.08 155.889 116.34 155.928 116.598C156.023 117.224 155.928 117.849 155.901 118.494C155.779 121.57 156.084 124.65 156.573 127.684C157.06 130.717 157.716 133.744 157.697 136.816C157.677 140.159 156.857 143.439 156.043 146.682C154.323 153.531 152.603 160.38 150.883 167.229C148.841 175.359 149.522 185.1 150.121 193.461" fill="#FFEEE4"/>
<path d="M197.024 205.855C195.233 216.042 193.332 226.451 188.097 235.52C185.72 239.639 182.676 243.465 178.928 246.411C174.909 249.571 170.079 251.158 164.963 250.525C159.625 249.865 154.812 247.007 151.372 242.904C150.494 241.855 151.997 240.334 152.882 241.39C155.735 244.792 159.546 247.324 163.927 248.207C168.652 249.159 173.325 247.957 177.161 245.093C184.517 239.598 188.822 230.806 191.346 222.184C192.966 216.648 193.968 210.958 194.965 205.285C195.204 203.931 197.261 204.505 197.024 205.854V205.855Z" fill="#512C21"/>
<path d="M76.519 205.855C78.3101 216.042 80.2113 226.451 85.4458 235.52C87.8227 239.639 90.8666 243.465 94.6148 246.411C98.6338 249.571 103.464 251.158 108.58 250.525C113.918 249.865 118.731 247.007 122.171 242.904C123.049 241.855 121.546 240.334 120.661 241.39C117.808 244.792 113.997 247.324 109.616 248.207C104.891 249.159 100.218 247.957 96.3822 245.093C89.0264 239.598 84.7213 230.806 82.1971 222.184C80.5769 216.648 79.5747 210.958 78.5776 205.285C78.3389 203.931 76.282 204.505 76.519 205.854V205.855Z" fill="#512C21"/>
<path d="M166.933 196.167C164.144 206.7 162.532 217.671 163.605 228.574C164.084 233.441 164.988 238.561 167.049 243.032C168.943 247.146 172.012 250.518 176.529 251.626C181.957 252.956 187.572 250.898 191.691 247.324C192.725 246.426 194.242 247.933 193.201 248.838C189.306 252.218 184.305 254.439 179.079 254.147C173.925 253.859 169.534 251.205 166.729 246.896C163.988 242.683 162.767 237.532 161.992 232.627C161.083 226.882 160.939 221.048 161.392 215.255C161.914 208.608 163.172 202.039 164.877 195.6C165.229 194.27 167.289 194.835 166.935 196.169L166.933 196.167Z" fill="#512C21"/>
<path d="M114.686 214.793C116.795 215.855 118.712 217.753 119.083 220.178C119.452 222.586 118.116 225.024 115.912 226.051C111.114 228.286 104.999 222.72 107.1 217.748C108.302 214.903 111.429 213.799 114.288 214.615C115.607 214.992 115.047 217.057 113.721 216.678C111.552 216.061 109.062 217.076 108.795 219.548C108.554 221.769 110.665 223.806 112.675 224.306C114.627 224.792 116.728 223.516 117.002 221.452C117.293 219.251 115.378 217.532 113.608 216.641C112.38 216.023 113.459 214.175 114.686 214.793Z" fill="#512C21"/>
<path d="M173.07 71.2857C173.36 83.7329 169.05 96.3991 160.907 105.85C157.201 110.15 152.32 113.835 146.557 114.569C143.117 115.006 139.64 114.292 136.391 113.179C133.574 112.213 130.84 110.976 128.25 109.503C122.433 106.192 117.374 101.683 113.352 96.3346C112.524 95.235 114.378 94.1676 115.196 95.2536C118.553 99.7184 122.743 103.557 127.459 106.535C129.797 108.011 132.264 109.298 134.83 110.324C137.788 111.509 140.926 112.498 144.135 112.561C149.794 112.671 154.671 109.432 158.413 105.432C162.352 101.218 165.408 96.058 167.501 90.6905C169.91 84.5135 171.09 77.9157 170.935 71.2857C170.903 69.9077 173.038 69.9077 173.07 71.2857Z" fill="#512C21"/>
<path d="M169.525 49.8631C168.743 42.4846 166.031 33.7079 159.364 29.5826C158.333 28.9445 157.231 28.4813 156.109 28.0333C154.907 27.5547 153.769 27.2 152.465 27.3596C151.104 27.5259 151.116 25.3843 152.465 25.2197C154.825 24.9295 157.307 26.0783 159.366 27.1288C161.242 28.0859 162.923 29.4434 164.326 31.0097C167.231 34.2526 169.097 38.3305 170.275 42.4948C170.957 44.9045 171.396 47.3736 171.66 49.8631C171.805 51.2308 169.669 51.2206 169.525 49.8631Z" fill="#512C21"/>
<path d="M148.217 27.8314C145.251 21.931 136.719 21.9802 131.821 25.1569C124.977 29.5962 122.397 38.4866 120.805 46.0195C117.127 63.4338 118.835 82.8742 108.613 98.3319C103.915 105.435 96.945 111.176 88.5684 113.18C87.2682 113.491 86.7146 111.483 88.0165 111.173C95.611 109.355 102.004 104.285 106.395 97.9111C111.447 90.5785 113.703 81.7865 115.043 73.0861C116.504 63.5865 116.908 53.929 119.007 44.5278C120.743 36.7591 123.632 28.147 130.557 23.5024C136.375 19.5994 146.496 19.7843 150.012 26.7809C150.611 27.9756 148.82 29.0311 148.217 27.8314Z" fill="#512C21"/>
<path d="M144.867 4.78125C153.391 5.23943 161.141 9.77034 166.921 15.8879C173.241 22.5774 177.316 30.9909 180.94 39.357C185.029 48.7904 188.701 58.4021 191.929 68.1664C194.964 77.347 197.411 86.738 196.695 96.4905C195.962 106.464 192.474 116.197 186.586 124.28C185.784 125.381 183.93 124.314 184.743 123.199C189.843 116.197 193.158 107.931 194.274 99.3296C194.829 95.0464 194.846 90.6886 194.314 86.402C193.713 81.5487 192.427 76.7989 190.969 72.1424C188.029 62.748 184.58 53.4978 180.79 44.4173C177.317 36.0988 173.667 27.5631 168.033 20.446C162.365 13.2848 154.232 7.42852 144.865 6.92452C143.499 6.85155 143.491 4.70998 144.865 4.78464L144.867 4.78125Z" fill="#512C21"/>
<path d="M187.436 128.629C186.554 136.911 191.252 144.333 195.564 150.977C196.316 152.134 194.467 153.208 193.72 152.058C189.214 145.115 184.38 137.275 185.301 128.629C185.445 127.274 187.582 127.26 187.436 128.629Z" fill="#512C21"/>
<path d="M145.199 14.5746C143.922 12.8029 142.648 11.0296 141.371 9.25798C140.565 8.13968 142.417 7.07059 143.215 8.17701C144.491 9.94865 145.766 11.722 147.042 13.4936C147.848 14.6119 145.996 15.681 145.199 14.5746Z" fill="#512C21"/>
<path d="M135.939 6.54776C131.459 3.9497 126.111 3.61031 121.149 4.83212C115.936 6.11503 111.389 9.00158 107.628 12.7943C103.742 16.7109 100.746 21.403 98.1471 26.2479C95.308 31.539 92.8228 37.0372 90.6033 42.6151C86.068 54.0171 82.7176 65.8925 80.6353 77.9885C78.4921 90.4306 77.8775 103.175 74.4138 115.366C71.59 125.303 66.6805 135.154 58.6339 141.862C57.6537 142.68 56.6312 143.449 55.5765 144.167C54.4371 144.942 53.3672 143.089 54.4981 142.319C63.298 136.325 68.7154 126.569 71.8236 116.583C75.6056 104.432 76.2659 91.6151 78.2923 79.1186C80.29 66.797 83.6014 54.6908 88.1435 43.0665C90.3596 37.3953 92.838 31.8139 95.6483 26.4125C98.2283 21.4505 101.189 16.6278 104.971 12.4872C108.62 8.49588 113.038 5.26994 118.164 3.48643C123.032 1.79285 128.535 1.40085 133.462 3.07916C134.696 3.5 135.888 4.04473 137.015 4.69976C138.204 5.38873 137.13 7.23843 135.937 6.54776H135.939Z" fill="#512C21"/>
<path d="M112.111 103.043C110.367 108.305 108.586 113.661 105.6 118.371C102.537 123.203 98.0562 126.573 94.0592 130.554C86.3563 138.229 82.73 149.487 84.9512 160.205C86.1769 166.122 89.0075 171.643 93.1365 176.05C94.0761 177.053 92.5694 178.57 91.6264 177.563C84.0607 169.486 80.69 158.041 82.8198 147.155C83.8812 141.727 86.2666 136.588 89.6795 132.247C93.2838 127.664 98.2492 124.418 101.909 119.892C105.979 114.857 108.043 108.534 110.052 102.474C110.484 101.174 112.546 101.731 112.111 103.043Z" fill="#512C21"/>
<path d="M75.916 173.065C79.2274 179.873 84.8158 185.335 91.6823 188.493C92.93 189.067 91.8465 190.912 90.6039 190.341C83.4462 187.049 77.5226 181.239 74.0724 174.145C73.4731 172.912 75.3133 171.826 75.916 173.065Z" fill="#512C21"/>
<path d="M62.4924 174.339C60.383 164.61 62.3705 154.15 67.7879 145.811C69.3201 143.453 71.1196 141.27 73.1495 139.326C74.1432 138.374 75.655 139.886 74.6596 140.839C67.9098 147.3 63.9873 156.473 63.7909 165.815C63.7351 168.491 63.9839 171.156 64.5511 173.771C64.8422 175.113 62.7836 175.686 62.4924 174.339Z" fill="#512C21"/>
<path d="M158.126 109.318C157.12 118.841 157.556 128.48 159.463 137.864C159.736 139.208 157.679 139.784 157.405 138.433C155.458 128.86 154.965 119.033 155.991 109.318C156.135 107.962 158.272 107.947 158.126 109.318Z" fill="#512C21"/>
<path d="M116.332 98.0789C117.627 104.624 117.684 111.315 116.514 117.884C116.274 119.238 114.215 118.665 114.456 117.316C115.555 111.147 115.489 104.794 114.273 98.6474C114.007 97.3017 116.064 96.7264 116.332 98.0789Z" fill="#512C21"/>
<path d="M148.841 65.414C148.722 66.9701 148.724 68.7824 149.655 70.1179C150.07 70.7153 150.695 71.0988 151.194 71.613C151.822 72.2595 152.283 73.0605 152.608 73.8988C153.192 75.3989 152.889 76.8261 151.841 78.0122C151.228 78.7046 149.794 79.4852 149.735 80.5017C149.655 81.8712 147.52 81.8796 147.6 80.5017C147.676 79.1747 148.45 78.2736 149.389 77.4115C149.802 77.0331 150.283 76.6598 150.576 76.1727C151.02 75.4312 150.657 74.6115 150.265 73.9259C149.874 73.2404 149.31 72.8059 148.739 72.285C148.143 71.7402 147.68 71.0784 147.356 70.3386C146.682 68.7977 146.579 67.0719 146.706 65.4123C146.809 64.0479 148.946 64.036 148.841 65.4123V65.414Z" fill="#512C21"/>
<path d="M154.123 49.3252C156.3 47.6282 159.381 47.9031 161.946 48.3935C164.661 48.9145 167.045 50.3637 168.56 52.7038C169.244 53.7577 167.561 54.7351 166.883 53.6881C165.698 51.8587 163.834 50.7913 161.736 50.3366C160.629 50.0956 159.486 50.0175 158.355 50.009C157.372 50.0006 156.307 50.0735 155.498 50.7048C154.522 51.465 153.136 50.0956 154.123 49.3269V49.3252Z" fill="#512C21"/>
<path d="M135.734 51.2732C133.499 49.8596 130.838 49.2046 128.205 49.566C125.744 49.9037 123.839 51.767 122.426 53.7032C121.621 54.8029 119.768 53.7355 120.582 52.6223C122.317 50.2482 124.618 47.9624 127.638 47.5008C130.826 47.0138 134.085 47.6994 136.812 49.4252C137.972 50.1583 136.902 52.0114 135.734 51.2732Z" fill="#512C21"/>
<path d="M160.681 69.1609C159.443 69.1609 158.44 67.7797 158.44 66.0758C158.44 64.372 159.443 62.9907 160.681 62.9907C161.919 62.9907 162.923 64.372 162.923 66.0758C162.923 67.7797 161.919 69.1609 160.681 69.1609Z" fill="#512C21"/>
<path d="M160.681 69.2661C161.976 69.2661 163.029 67.8338 163.029 66.0741C163.029 64.3143 161.976 62.8821 160.681 62.8821C159.386 62.8821 158.333 64.3143 158.333 66.0741C158.333 67.8338 159.386 69.2661 160.681 69.2661ZM160.681 63.0976C161.858 63.0976 162.816 64.4331 162.816 66.0741C162.816 67.715 161.858 69.0523 160.681 69.0523C159.505 69.0523 158.546 67.7167 158.546 66.0741C158.546 64.4314 159.505 63.0976 160.681 63.0976Z" fill="#512C21"/>
<path d="M132.499 69.1609C131.261 69.1609 130.257 67.7797 130.257 66.0758C130.257 64.372 131.261 62.9907 132.499 62.9907C133.737 62.9907 134.74 64.372 134.74 66.0758C134.74 67.7797 133.737 69.1609 132.499 69.1609Z" fill="#512C21"/>
<path d="M132.499 69.2661C133.794 69.2661 134.847 67.8338 134.847 66.0741C134.847 64.3143 133.794 62.8821 132.499 62.8821C131.203 62.8821 130.15 64.3143 130.15 66.0741C130.15 67.8338 131.203 69.2661 132.499 69.2661ZM132.499 63.0976C133.675 63.0976 134.633 64.4331 134.633 66.0741C134.633 67.715 133.675 69.0523 132.499 69.0523C131.322 69.0523 130.364 67.7167 130.364 66.0741C130.364 64.4314 131.322 63.0976 132.499 63.0976Z" fill="#512C21"/>
<path d="M154.993 92.4316C152.653 95.0279 149.081 96.3295 145.621 96.1208C141.849 95.8934 138.4 94.059 135.693 91.4847C134.694 90.5344 136.206 89.0224 137.203 89.971C139.484 92.1397 142.431 93.7891 145.621 93.9809C148.563 94.1591 151.49 93.1307 153.483 90.9179C154.405 89.8929 155.912 91.41 154.993 92.4316Z" fill="#512C21"/>
<path d="M116.609 107.166C114.445 111.414 111.565 115.23 108.479 118.843C106.954 120.628 105.378 122.366 103.8 124.104C103.011 124.973 102.222 125.84 101.44 126.714C100.626 127.623 99.6894 128.523 99.1121 129.61C98.567 130.639 98.5873 131.781 98.6872 132.911C98.8023 134.204 98.997 135.494 99.2289 136.772C99.6251 138.962 100.165 141.124 100.834 143.247C102.149 147.422 103.971 151.399 105.879 155.328C108.271 160.256 110.716 165.15 112.82 170.212L111.035 169.74C112.571 168.172 114.542 167.059 116.351 165.846C117.922 164.792 120.067 163.506 120.795 161.653C121.293 160.387 123.358 160.938 122.854 162.221C121.1 166.679 115.679 168.052 112.544 171.254C111.926 171.885 111.054 171.492 110.76 170.782C107.125 162.033 102.131 153.84 99.107 144.839C98.3757 142.662 97.7764 140.442 97.3295 138.189C96.8605 135.823 96.2544 133.15 96.5625 130.735C96.8774 128.27 98.738 126.525 100.321 124.765C101.956 122.948 103.614 121.151 105.235 119.32C108.852 115.24 112.278 110.971 114.765 106.089C115.39 104.862 117.233 105.943 116.609 107.17V107.166Z" fill="#512C21"/>
<path d="M158.091 115.619C166.014 126.037 170.492 138.535 174.03 151.014C175.035 154.563 175.973 158.13 176.906 161.698C177.123 162.528 176.381 163.173 175.592 163.015C172.447 162.384 169.413 161.244 166.268 160.612C164.922 160.343 165.491 158.279 166.835 158.549C169.98 159.18 173.014 160.32 176.16 160.952C175.721 161.391 175.284 161.829 174.846 162.269C171.602 149.855 168.306 137.242 162.159 125.896C160.42 122.687 158.457 119.605 156.247 116.7C155.414 115.605 157.268 114.538 158.091 115.619Z" fill="#512C21"/>
<path d="M165.711 165.196C166.651 167.303 167.57 169.42 168.467 171.546C168.867 172.491 169.261 173.438 169.652 174.388C170.05 175.354 170.494 176.314 170.587 177.367C170.868 180.501 167.561 182.359 165.846 184.535C164.032 186.837 162.567 189.439 161.242 192.047C159.65 195.18 158.281 198.424 157.131 201.745C155.884 205.346 154.869 209.051 154.345 212.831C154.265 213.408 153.537 213.712 153.031 213.578C152.415 213.415 152.206 212.831 152.286 212.261C153.212 205.582 155.552 199.057 158.414 192.979C159.694 190.258 161.121 187.589 162.811 185.1C163.52 184.054 164.279 183.033 165.117 182.086C166.007 181.081 167.16 180.284 167.936 179.186C168.542 178.325 168.552 177.507 168.222 176.53C167.849 175.427 167.35 174.354 166.901 173.28C165.919 170.933 164.907 168.598 163.871 166.275C163.316 165.028 165.154 163.938 165.714 165.194L165.711 165.196Z" fill="#512C21"/>
<path d="M160.447 136.015C154.092 151.008 151.642 167.076 151.204 183.275C151.075 188.003 151.096 192.733 151.179 197.46C151.204 198.838 149.067 198.838 149.044 197.46C148.751 181.012 149.36 164.398 153.83 148.469C155.123 143.855 156.735 139.346 158.604 134.936C158.831 134.399 159.609 134.292 160.065 134.552C160.617 134.868 160.673 135.487 160.447 136.016V136.015Z" fill="#512C21"/>
<path d="M159.186 407.513C156.102 382.099 154.825 356.493 154.791 330.9C154.764 310.478 155.895 290.106 156.374 269.699C156.816 250.822 155.56 231.812 152.37 213.191C149.743 197.844 145.387 182.878 138.801 168.76C132.406 155.048 124.295 142.229 116.257 129.446C115.127 127.649 113.997 125.853 112.867 124.056C112.133 122.887 113.98 121.813 114.711 122.975C122.991 136.157 131.524 149.258 138.487 163.207C145.27 176.798 150.17 191.154 153.2 206.042C155.104 215.401 156.359 224.887 157.229 234.393C158.101 243.901 158.721 253.454 158.626 263.004C158.433 282.304 157.188 301.576 156.977 320.878C156.692 346.665 157.588 372.486 160.263 398.142C160.59 401.268 160.943 404.392 161.321 407.513C161.487 408.877 159.35 408.865 159.186 407.513Z" fill="#512C21"/>
<path d="M148.416 213.089C144.843 206.768 140.23 201.126 134.97 196.142C132.297 193.612 129.468 191.244 126.517 189.048C125.131 188.017 123.636 187.099 122.299 186.006C121.726 185.537 121.23 184.964 120.965 184.265C120.612 183.338 120.745 182.362 120.831 181.402C121.269 176.465 121.708 171.527 122.146 166.591C122.266 165.23 124.403 165.216 124.281 166.591C123.902 170.855 123.523 175.118 123.145 179.383C123.057 180.374 122.947 181.365 122.883 182.359C122.818 183.33 123.047 183.89 123.81 184.494C125.17 185.571 126.663 186.496 128.051 187.542C133.689 191.786 138.932 196.58 143.41 202.051C145.968 205.175 148.275 208.494 150.263 212.012C150.941 213.212 149.096 214.291 148.419 213.093L148.416 213.089Z" fill="#512C21"/>
<path d="M168.159 134.151C175.242 137.537 182.396 141.133 188.868 145.601C189.992 146.376 188.926 148.233 187.79 147.449C181.318 142.981 174.163 139.385 167.08 135.999C165.841 135.407 166.923 133.561 168.159 134.151Z" fill="#512C21"/>
<path d="M208.509 315.048C218.297 313.769 228.296 320.713 230.669 330.285C229.97 330.38 229.271 330.475 228.572 330.57C229.399 323.504 230.229 316.44 231.057 309.374C231.864 302.491 232.704 295.567 232.215 288.626C231.729 281.723 230.312 274.872 229.125 268.064C227.928 261.186 226.684 254.315 225.396 247.455C222.805 233.672 220.032 219.923 217.075 206.215C215.648 199.602 214.28 192.958 212.577 186.41C211.114 180.784 209.326 175.162 206.513 170.054C204.283 166.005 201.659 162.148 198.835 158.493C196.079 154.922 193.064 151.299 189.455 148.559C188.757 148.029 188.027 147.546 187.259 147.128C186.05 146.471 187.127 144.623 188.337 145.28C192.06 147.303 195.101 150.659 197.813 153.851C201.021 157.627 203.944 161.673 206.55 165.89C212.88 176.139 215.262 187.972 217.816 199.595C220.867 213.469 223.73 227.386 226.403 241.339C227.729 248.256 229.007 255.181 230.239 262.115C231.473 269.062 232.792 276.018 233.747 283.011C234.221 286.488 234.527 289.976 234.5 293.488C234.473 296.989 234.182 300.481 233.811 303.962C233.055 311.072 232.162 318.169 231.329 325.271C231.123 327.037 230.915 328.804 230.708 330.57C230.578 331.684 228.925 332.123 228.611 330.855C226.442 322.111 217.393 316.027 208.509 317.188C207.931 317.263 207.447 316.642 207.44 316.117C207.434 315.478 207.938 315.121 208.509 315.047V315.048Z" fill="#512C21"/>
<path d="M66.8397 140.312C52.1636 146.874 43.9867 161.512 38.3289 175.836C35.0192 184.214 31.9737 192.705 28.8603 201.158C25.7183 209.687 22.6202 218.233 19.6355 226.82C13.6561 244.018 8.0846 261.394 3.60001 279.051C1.58711 286.972 0.104103 295.579 4.83417 302.851C8.82104 308.978 15.4692 312.851 21.5451 316.588C37.2895 326.272 53.3453 335.432 69.1438 345.029C71.0873 346.21 73.0274 347.398 74.9624 348.592C76.1305 349.314 75.0589 351.165 73.884 350.44C57.8045 340.511 41.3847 331.149 25.229 321.344C18.6214 317.334 11.4197 313.487 6.05816 307.801C3.58817 305.181 1.58543 302.119 0.500252 298.662C-0.788071 294.556 -0.678032 290.193 -0.0499496 285.981C0.603523 281.596 1.82243 277.299 2.97025 273.025C4.18239 268.507 5.45887 264.007 6.78783 259.524C9.42712 250.62 12.2763 241.778 15.261 232.985C21.2472 215.348 27.7379 197.883 34.2828 180.448C39.8949 165.498 46.841 149.915 60.8704 141.075C62.4364 140.088 64.0717 139.22 65.7613 138.465C67.0056 137.909 68.0925 139.753 66.8397 140.313V140.312Z" fill="#512C21"/>
</g>
</g>
<defs>
<clipPath id="clip0_848_2973">
<rect width="279" height="214" fill="white" transform="translate(0.5)"/>
</clipPath>
<clipPath id="clip1_848_2973">
<rect width="235" height="409" fill="white" transform="matrix(-1 0 0 1 234.5 2)"/>
</clipPath>
</defs>
</svg>
