<svg width="280" height="214" viewBox="0 0 280 214" fill="none" xmlns="http://www.w3.org/2000/svg">
<g clip-path="url(#clip0_661_3152)">
<path d="M1.5 134.08C1.5 188.756 63.2842 215 139.5 215C215.716 215 277.5 188.756 277.5 134.08C277.5 79.4042 243.777 17 139.5 17C41.5189 17 1.5 79.4042 1.5 134.08Z" fill="#C7D8B8"/>
<g clip-path="url(#clip1_661_3152)">
<path d="M66.5495 419.175C164.009 424.331 218.082 418.039 218.082 418.039L201.305 338.798L211.392 338.704C211.392 338.704 217.327 333.862 217.596 325.88C217.865 317.897 217.596 313.974 217.596 313.974L221.474 311.42L222.435 307.522L236.294 309.661C236.294 309.661 246.916 310.121 250.923 305.591C254.93 301.061 259.011 299.136 258.994 292.169C258.979 285.202 260.65 278.779 257.695 272.639C254.741 266.498 250.54 250.897 240.81 237.553C231.08 224.205 219.989 201.308 219.989 201.308L210.206 186.8L196.478 173.424L178.6 154.682L170 145.15L160.571 136.198C160.571 136.198 129.769 124.232 118.518 126.963C113.713 128.13 104.004 141.1 104.004 141.1L94.3512 146.849C94.3512 146.849 77.4946 154.731 74.3687 158.823C71.2427 162.916 66.5581 176.575 66.5524 181.697C66.5467 186.82 69.8557 212.611 70.2932 216.054C72.095 230.234 94.151 280.952 94.151 280.952C94.151 280.952 66.9986 412.374 66.5524 419.175H66.5495Z" fill="white"/>
<path d="M134.228 8.58122L146.308 6.16455C146.308 6.16455 154.156 6.55637 160.411 12.3735C166.665 18.1936 174.081 25.9927 178.611 34.91C183.142 43.8303 186.814 55.5275 188.475 65.2628C190.14 74.9982 183.17 99.6768 179.035 105.523C172.708 114.463 163.368 117.634 163.368 117.634L169.98 106.749C169.98 106.749 173.366 100.949 172.903 95.7815C172.44 90.6136 172.468 87.2131 170.85 86.1978C169.231 85.1825 166.171 82.6486 166.474 80.2977C166.777 77.9439 166.783 66.6099 166.783 66.6099L164.941 57.1691L161.209 49.1984L155.697 42.8064L147.718 38.5708L140.931 38.5508L130.638 40.5184C130.638 40.5184 125.47 41.0818 123.975 43.0524C122.479 45.0229 117.291 53.4283 117.291 53.4283L114.966 63.5469C114.966 63.5469 112.804 72.3098 112.014 74.143C111.225 75.9763 107.83 81.6848 107.83 81.6848C107.83 81.6848 100.838 89.0377 99.4877 89.3752C98.1349 89.7127 98.3266 92.1293 99.4877 93.4792C100.649 94.8291 101.53 97.6948 103.838 98.4127C106.146 99.1305 108.705 99.9485 108.705 99.9485L111.045 105.766C111.045 105.766 114.179 111.983 116.616 114.471C119.053 116.96 120.62 124.681 120.62 124.681L112.378 129.323L104.004 143.603L91.5484 149.214C91.5484 149.214 88.6599 144.781 89.392 142.01C90.1242 139.239 90.0441 135.189 92.6495 131.337C95.255 127.484 97.1568 125.785 99.053 121.904C100.946 118.023 101.864 116.422 102.076 113.147C102.288 109.873 104.621 107.307 102.925 104.344C101.227 101.381 97.8918 99.7998 97.8918 99.7998L92.8068 92.9244L88.8973 83.2806L87.37 73.6626L88.6513 57.8298L95.1406 37.2667C95.1406 37.2667 101.312 22.4663 109.781 17.2612C118.249 12.0561 128.233 8.87008 128.233 8.87008L134.231 8.58408L134.228 8.58122Z" fill="#F08C63"/>
<path d="M140.934 38.5534L151.15 39.8575C151.15 39.8575 157.479 41.2303 161.211 49.201C164.944 57.1718 167.031 63.4065 166.863 69.5554C166.691 75.7043 164.818 76.6367 166.477 80.3003C168.135 83.9639 170.852 86.2004 170.852 86.2004C170.852 86.2004 172.214 87.4016 172.56 91.5914C172.906 95.7841 172.717 101.024 171.35 103.889C169.983 106.752 165.965 113.642 162.341 116.622C158.72 119.602 153.427 123.634 148.493 125.962C143.56 128.29 140.048 129.792 137.957 129.186C135.866 128.582 130.99 126.12 128.854 124.624C126.717 123.128 120.76 118.484 120.76 118.484L118.738 116.573L114.671 112.735L111.042 105.763L108.702 99.9454C108.702 99.9454 106.008 100.04 103.835 98.4096C101.661 96.7794 99.4847 93.4761 99.4847 93.4761C99.4847 93.4761 98.1977 91.3884 99.4847 89.3721C100.772 87.3558 107.827 81.6816 107.827 81.6816L112.011 74.1399L114.963 63.5438L116.61 54.7494L119.945 47.9284L123.972 43.0521L130.635 40.5182L140.928 38.5505L140.934 38.5534Z" fill="#FFDDC0"/>
<path d="M120.466 119.913L120.62 124.677L117.337 132.019L125.882 142.286L132.938 150.883L140.339 160.018L168.63 194.904C168.63 194.904 172.145 168.721 169.074 163.908C162.012 152.842 159.561 134.001 159.561 134.001C159.561 134.001 158.046 127.949 158.795 124.912C159.544 121.878 162.338 116.624 162.338 116.624L149.886 125.267C149.886 125.267 143.729 129.285 139.687 129.199C135.646 129.113 128.851 124.629 128.851 124.629L120.757 118.488L116.61 114.47L120.463 119.918L120.466 119.913Z" fill="#FFDDC0"/>
<path d="M140.122 157.096L144.272 158.964L152.291 160.966L156.301 159.673L161.595 157.096L164.415 155.28L169.074 163.906L169.666 180.076L168.63 194.902L159.004 183.03L143.474 163.734L137.271 155.28L140.122 157.096Z" fill="#C1E2E7"/>
<path d="M125.734 80.798C125.014 80.798 124.43 79.7032 124.43 78.3527C124.43 77.0023 125.014 75.9075 125.734 75.9075C126.454 75.9075 127.038 77.0023 127.038 78.3527C127.038 79.7032 126.454 80.798 125.734 80.798Z" stroke="#512C21" stroke-width="2.85996" stroke-linecap="round" stroke-linejoin="round"/>
<path d="M156.93 80.798C156.21 80.798 155.626 79.7032 155.626 78.3527C155.626 77.0023 156.21 75.9075 156.93 75.9075C157.65 75.9075 158.234 77.0023 158.234 78.3527C158.234 79.7032 157.65 80.798 156.93 80.798Z" stroke="#512C21" stroke-width="2.85996" stroke-linecap="round" stroke-linejoin="round"/>
<path d="M169.323 197.393C169.511 197.393 169.691 197.333 169.843 197.216C170.218 196.93 170.292 196.389 170.003 196.012C155.569 177.139 138.318 155.718 118.727 132.343L118.444 132.006L118.698 131.646C121.587 127.57 122.408 122.411 120.846 118.181C120.723 117.846 120.397 117.62 120.04 117.62C119.94 117.62 119.839 117.638 119.742 117.675C119.528 117.755 119.356 117.912 119.262 118.121C119.165 118.33 119.156 118.561 119.236 118.776C120.72 122.797 119.714 127.779 116.671 131.474C116.408 131.794 116.41 132.255 116.676 132.572C136.556 156.273 154.039 177.968 168.639 197.059C168.802 197.273 169.051 197.396 169.323 197.396V197.393Z" fill="#512C21" stroke="#512C21" stroke-width="0.285996" stroke-miterlimit="10"/>
<path d="M169.322 197.393C169.76 197.393 170.126 197.064 170.175 196.629C171.356 185.958 170.398 173.172 167.32 158.62C164.818 146.777 161.626 137.256 160.371 133.713C160.25 133.369 159.924 133.141 159.561 133.141C159.464 133.141 159.367 133.158 159.275 133.189C158.829 133.347 158.595 133.838 158.752 134.285C170.789 168.258 168.956 192.022 168.467 196.44C168.416 196.909 168.756 197.335 169.225 197.387C169.256 197.39 169.291 197.393 169.322 197.393Z" fill="#512C21" stroke="#512C21" stroke-width="0.285996" stroke-miterlimit="10"/>
<path d="M118.518 172.557C118.624 172.557 118.73 172.537 118.833 172.497C119.044 172.414 119.213 172.251 119.304 172.042C119.396 171.833 119.399 171.598 119.316 171.384C115.947 162.801 110.218 151.925 104.719 143.68L104.558 143.439L104.659 143.168C105.825 139.97 108.059 136.301 110.95 132.835C113.713 129.523 116.121 127.97 118.526 127.944C118.755 127.944 118.97 127.85 119.13 127.687C119.29 127.524 119.379 127.306 119.376 127.077C119.37 126.608 118.987 126.228 118.518 126.228C114.634 126.268 111.588 129.391 109.632 131.733C107.333 134.49 104.281 138.735 102.797 143.302C102.714 143.557 102.754 143.828 102.903 144.048C108.474 152.291 114.291 163.267 117.723 172.01C117.854 172.342 118.166 172.557 118.521 172.557H118.518Z" fill="#512C21" stroke="#512C21" stroke-width="0.285996" stroke-miterlimit="10"/>
<path d="M258.345 276.728C258.393 276.728 258.442 276.725 258.493 276.717C258.959 276.636 259.271 276.193 259.191 275.727C256.577 260.541 248.189 247.468 240.078 234.824C237.187 230.317 234.206 225.669 231.541 221.01C229.573 217.573 227.697 213.975 225.878 210.494C221.508 202.123 216.998 193.48 210.858 186.247C207.263 182.012 203.121 178.274 199.118 174.662C197.05 172.797 194.919 170.872 192.897 168.91C188.307 164.46 183.98 159.524 179.796 154.753C173.976 148.115 167.961 141.254 161.114 135.546C160.957 135.414 160.768 135.346 160.565 135.346C160.311 135.346 160.07 135.457 159.905 135.655C159.601 136.018 159.65 136.561 160.013 136.861C166.757 142.487 172.729 149.297 178.5 155.883C182.71 160.685 187.06 165.644 191.699 170.143C193.744 172.128 195.889 174.061 197.962 175.931C201.932 179.512 206.027 183.21 209.545 187.357C215.559 194.444 220.024 202.998 224.342 211.272C226.17 214.773 228.058 218.39 230.045 221.862C232.736 226.57 235.731 231.237 238.628 235.75C246.647 248.248 254.938 261.173 257.492 276.016C257.564 276.428 257.918 276.728 258.336 276.728H258.345Z" fill="#512C21" stroke="#512C21" stroke-width="0.285996" stroke-miterlimit="10"/>
<path d="M164.415 292.741C164.772 292.741 165.095 292.515 165.221 292.178C165.384 291.735 165.156 291.24 164.712 291.077C155.666 287.751 144.409 283.612 137.537 274.821C134.108 270.436 131.957 265.12 130.464 260.979C126.855 250.954 123.214 236.84 120.557 226.533L120.494 226.293C120.083 224.697 119.699 223.21 119.348 221.866C117.04 213.034 112.575 196.913 108.6 188.17C104.041 178.145 98.2067 170.466 91.257 165.35C91.1082 165.241 90.9338 165.184 90.7507 165.184C90.4733 165.184 90.2216 165.313 90.0586 165.533C89.9214 165.716 89.867 165.945 89.9013 166.171C89.9357 166.397 90.0558 166.597 90.2417 166.731C96.954 171.673 102.605 179.124 107.041 188.879C110.965 197.51 115.398 213.52 117.689 222.298C118.038 223.636 118.421 225.117 118.83 226.708L118.893 226.956C121.558 237.295 125.21 251.455 128.848 261.556C130.384 265.818 132.603 271.297 136.181 275.873C143.354 285.051 154.868 289.281 164.117 292.684C164.212 292.718 164.312 292.736 164.412 292.736L164.415 292.741Z" fill="#512C21" stroke="#512C21" stroke-width="0.285996" stroke-miterlimit="10"/>
<path d="M206.042 339.656C207.846 339.656 209.657 339.624 211.424 339.561C211.65 339.553 211.862 339.458 212.019 339.293C215.9 335.183 218.405 329.506 218.891 323.72C219.195 320.128 219.283 311.113 213.578 304.976C213.415 304.798 213.191 304.701 212.948 304.701C212.731 304.701 212.522 304.784 212.365 304.93C212.019 305.253 211.999 305.797 212.322 306.143C217.562 311.78 217.467 320.211 217.184 323.574C216.746 328.748 214.559 333.887 211.175 337.671L211.012 337.854L210.766 337.863C209.219 337.911 207.635 337.934 206.053 337.934C188.024 337.934 170.707 334.811 153.959 331.794C147.198 330.575 140.208 329.314 133.696 326.754C125.365 323.48 117.809 318.049 111.849 311.056C104.101 301.967 99.2391 290.61 94.5344 279.625C93.4505 277.097 92.2922 274.454 91.0653 271.66L91.0453 271.614C82.2051 251.472 70.0989 223.882 67.8138 194.124C67.3162 187.632 66.9101 180.104 68.4144 172.897C69.3811 168.272 71.0227 164.4 73.2964 161.391C77.3832 155.986 85.4426 152.608 93.236 149.342C97.2257 147.669 100.992 146.091 104.047 144.303C104.456 144.063 104.593 143.537 104.353 143.13C104.198 142.867 103.915 142.704 103.612 142.704C103.46 142.704 103.312 142.744 103.18 142.822C100.226 144.552 96.5107 146.111 92.5782 147.758C84.5732 151.113 76.2965 154.582 71.9322 160.356C69.504 163.568 67.7566 167.669 66.7385 172.545C65.1884 179.973 65.6002 187.643 66.1064 194.252C68.4115 224.299 80.5864 252.044 89.4752 272.301C90.705 275.101 91.8661 277.749 92.9557 280.297C97.709 291.4 102.625 302.879 110.542 312.169C116.685 319.376 124.473 324.973 133.067 328.35C139.736 330.973 146.812 332.248 153.653 333.481C170.481 336.516 187.875 339.65 206.042 339.65V339.656Z" fill="#512C21" stroke="#512C21" stroke-width="0.285996" stroke-miterlimit="10"/>
<path d="M183.25 217.158C183.476 217.158 183.691 217.069 183.854 216.909C184.191 216.578 184.194 216.031 183.862 215.697C176.152 207.898 166.608 202.338 156.255 199.618L155.932 199.532L155.846 199.209C154.922 195.694 154.259 192.591 153.675 189.854C152.82 185.853 152.082 182.401 150.861 179.155C150.738 178.823 150.415 178.6 150.063 178.6C149.726 178.6 149.385 178.6 149.045 178.6C147.003 178.6 144.924 178.632 143.091 178.663H142.996C141.103 178.694 139.147 178.726 137.208 178.726C136.856 178.726 136.507 178.726 136.158 178.723C135.683 178.723 135.297 179.106 135.294 179.575C135.294 179.804 135.38 180.021 135.543 180.185C135.706 180.348 135.918 180.439 136.149 180.439C136.493 180.439 136.836 180.442 137.179 180.442C139.152 180.442 141.14 180.41 143.065 180.382H143.122C145.055 180.35 147.052 180.319 149.036 180.319H149.445L149.597 180.705C150.581 183.571 151.239 186.648 151.999 190.212C152.64 193.209 153.361 196.586 154.41 200.473C154.49 200.773 154.731 201.008 155.034 201.082C165.395 203.645 174.945 209.119 182.647 216.909C182.81 217.075 183.027 217.164 183.256 217.164L183.25 217.158Z" fill="#512C21" stroke="#512C21" stroke-width="0.285996" stroke-miterlimit="10"/>
<path d="M186.548 233.397C187.02 233.397 187.406 233.011 187.406 232.539C187.406 212.805 175.145 200.327 169.871 195.877C169.714 195.746 169.522 195.674 169.319 195.674C169.065 195.674 168.827 195.786 168.664 195.98C168.358 196.34 168.404 196.884 168.767 197.19C173.855 201.486 185.69 213.529 185.69 232.539C185.69 233.011 186.076 233.397 186.548 233.397Z" fill="#512C21" stroke="#512C21" stroke-width="0.285996" stroke-miterlimit="10"/>
<path d="M179.433 208.93C179.799 208.93 180.125 208.698 180.245 208.35L185.642 192.608C185.702 192.437 185.702 192.245 185.647 192.071C185.536 191.719 182.885 183.356 179.593 176.555L179.444 176.252L179.638 175.978C181.778 172.966 183.002 169.689 183.988 167.055C184.658 165.27 185.233 163.728 185.936 162.59C186.185 162.187 186.059 161.658 185.659 161.409C185.521 161.326 185.367 161.28 185.207 161.28C184.907 161.28 184.635 161.432 184.475 161.686C183.682 162.965 183.079 164.578 182.381 166.445C181.294 169.348 180.067 172.631 177.757 175.632C177.556 175.892 177.522 176.246 177.668 176.538C180.614 182.424 183.153 189.966 183.863 192.136L183.923 192.319L178.617 207.792C178.463 208.241 178.703 208.727 179.149 208.882C179.241 208.913 179.332 208.927 179.427 208.927L179.433 208.93Z" fill="#512C21" stroke="#512C21" stroke-width="0.285996" stroke-miterlimit="10"/>
<path d="M156.015 250.351C156.129 250.351 156.244 250.328 156.349 250.282C156.858 250.068 157.276 249.644 157.525 249.098L157.722 248.663L158.185 248.778C160.104 249.255 161.758 249.49 163.245 249.49C164.732 249.49 165.965 249.278 167.246 248.844C167.924 248.615 168.773 248.254 169.354 247.502C170.003 246.664 170.129 245.603 170.172 244.582C170.546 235.322 166.754 226.533 163.408 219.912L163.153 219.409C159.149 211.487 154.167 201.626 148.304 195.505C148.141 195.334 147.921 195.242 147.684 195.242C147.461 195.242 147.252 195.328 147.092 195.48C146.926 195.637 146.831 195.851 146.829 196.08C146.823 196.309 146.909 196.526 147.066 196.692C152.754 202.629 157.671 212.362 161.623 220.184L161.878 220.69C165.129 227.125 168.819 235.651 168.458 244.514C168.43 245.252 168.353 245.995 167.998 246.456C167.701 246.842 167.171 247.059 166.697 247.222C165.607 247.591 164.475 247.771 163.236 247.771C161.62 247.771 159.816 247.474 157.556 246.836L157.385 246.787L157.27 246.65C157.236 246.607 157.199 246.567 157.162 246.53L157.136 246.504L157.113 246.476C156.764 246.009 156.261 245.675 155.7 245.538C155.634 245.52 155.566 245.512 155.497 245.512C155.397 245.512 155.3 245.529 155.205 245.563C154.771 245.721 154.385 246.018 154.09 246.424L154.07 246.453L154.047 246.478C153.63 246.927 153.424 247.588 153.492 248.252C153.567 248.958 153.924 249.55 154.473 249.882C154.716 250.028 154.997 250.122 155.283 250.153L155.36 250.162L155.703 250.296C155.803 250.337 155.909 250.357 156.018 250.357L156.015 250.351Z" fill="#512C21" stroke="#512C21" stroke-width="0.285996" stroke-miterlimit="10"/>
<path d="M151.353 161.649C156.072 161.649 160.537 159.587 165.007 155.342C165.173 155.185 165.267 154.971 165.273 154.742C165.278 154.513 165.195 154.296 165.038 154.13C164.875 153.958 164.652 153.864 164.415 153.864C164.194 153.864 163.986 153.947 163.826 154.098C159.693 158.022 155.595 159.93 151.296 159.93C145.816 159.93 141.132 156.818 136.999 154.07L136.284 153.595C136.144 153.503 135.981 153.452 135.812 153.452C135.523 153.452 135.254 153.595 135.094 153.838C134.968 154.03 134.923 154.258 134.968 154.481C135.014 154.705 135.146 154.899 135.335 155.025L136.044 155.497C140.168 158.237 145.302 161.649 151.35 161.649H151.353Z" fill="#512C21" stroke="#512C21" stroke-width="0.285996" stroke-miterlimit="10"/>
<path d="M108.702 100.803C109.048 100.803 109.357 100.597 109.492 100.279C109.58 100.068 109.583 99.836 109.497 99.6215C109.412 99.407 109.249 99.244 109.037 99.1525C107.298 98.4146 100.583 94.5622 99.4733 89.197C99.3903 88.7994 99.0386 88.5134 98.6353 88.5134C98.5752 88.5134 98.518 88.5191 98.458 88.5306C97.9947 88.6278 97.6973 89.0826 97.7916 89.5459C98.3579 92.28 100.117 94.894 103.017 97.3164C105.222 99.1582 107.478 100.357 108.368 100.731C108.476 100.777 108.588 100.8 108.702 100.8V100.803Z" fill="#512C21" stroke="#512C21" stroke-width="0.285996" stroke-miterlimit="10"/>
<path d="M142.336 128.51C150.204 128.43 161.947 119.221 167.054 112.884C172.52 106.105 174.845 97.7143 173.278 90.4329C173.195 90.041 172.84 89.7551 172.44 89.7551C172.38 89.7551 172.317 89.7608 172.257 89.7751C171.793 89.8752 171.499 90.3328 171.599 90.7932C173.057 97.5742 170.858 105.428 165.716 111.805C160.825 117.868 149.28 126.723 142.316 126.794H142.173C134.703 126.794 125.233 121.069 122.059 118.458C111.717 109.944 108.557 97.5628 105.991 84.5556C105.911 84.1552 105.559 83.8635 105.151 83.8635C105.096 83.8635 105.039 83.8692 104.985 83.8807C104.759 83.9236 104.567 84.0551 104.438 84.2439C104.31 84.4327 104.264 84.6615 104.31 84.8874C106.938 98.212 110.19 110.907 120.972 119.782C124.432 122.63 134.168 128.51 142.173 128.51H142.336Z" fill="#512C21" stroke="#512C21" stroke-width="0.285996" stroke-miterlimit="10"/>
<path d="M162.341 117.48C162.461 117.48 162.581 117.454 162.693 117.403C176.961 110.971 185.893 99.1789 188.524 83.3061C190.749 69.8814 188.398 54.2746 181.903 39.3628C176.938 27.963 170.057 18.3077 162.533 12.176C156.807 7.5085 151.133 5.14331 145.667 5.14331C143.222 5.14331 140.826 5.6295 138.54 6.59045C138.329 6.67911 138.166 6.84499 138.077 7.05663C137.991 7.26826 137.991 7.50278 138.08 7.71442C138.214 8.03473 138.526 8.24065 138.872 8.24065C138.987 8.24065 139.098 8.21777 139.204 8.17201C141.246 7.31402 143.417 6.87645 145.653 6.87645C150.738 6.87645 156.052 9.10436 161.449 13.503C168.767 19.466 175.471 28.8925 180.33 40.0463C186.602 54.4462 188.97 70.1103 186.831 83.0258C184.297 98.3066 175.709 109.655 161.986 115.838C161.778 115.933 161.617 116.101 161.537 116.316C161.457 116.53 161.463 116.762 161.557 116.971C161.695 117.277 162.004 117.477 162.341 117.477V117.48Z" fill="#512C21" stroke="#512C21" stroke-width="0.285996" stroke-miterlimit="10"/>
<path d="M98.6357 90.2328C98.7729 90.2328 98.9045 90.2013 99.0275 90.1384C112.163 83.3974 114.669 69.9127 116.327 60.9925C116.659 59.1993 116.948 57.6521 117.283 56.3279C119.908 45.9691 126.952 41.2502 132.389 41.2502C132.495 41.2502 132.601 41.2502 132.704 41.2559C133.195 41.2559 133.573 40.8927 133.587 40.4265C133.596 40.1977 133.513 39.9803 133.356 39.8116C133.198 39.6457 132.987 39.5485 132.758 39.5399C132.623 39.5342 132.489 39.5342 132.355 39.5342C124.092 39.5342 117.683 47.7709 115.621 55.9046C115.272 57.2831 114.966 58.9305 114.643 60.6779C112.95 69.784 110.633 82.2535 98.2467 88.6112C98.0437 88.717 97.8921 88.8943 97.8206 89.1117C97.7491 89.329 97.7691 89.5635 97.8749 89.7666C98.0236 90.0554 98.3153 90.2328 98.6385 90.2328H98.6357Z" fill="#512C21" stroke="#512C21" stroke-width="0.285996" stroke-miterlimit="10"/>
<path d="M137.765 34.163C137.797 34.163 137.825 34.163 137.857 34.1573C138.326 34.1087 138.669 33.6854 138.62 33.2135C138.046 27.7453 136.221 22.4343 133.349 17.8498C133.192 17.5981 132.92 17.4465 132.62 17.4465C132.46 17.4465 132.303 17.4923 132.165 17.5781C131.765 17.8298 131.642 18.3589 131.894 18.7621C134.628 23.1264 136.361 28.1857 136.91 33.3966C136.956 33.8341 137.322 34.1659 137.762 34.1659L137.765 34.163Z" fill="#512C21" stroke="#512C21" stroke-width="0.285996" stroke-miterlimit="10"/>
<path d="M170.85 87.0583C171.184 87.0583 171.487 86.8638 171.628 86.5607C171.725 86.3519 171.733 86.1203 171.653 85.9058C171.573 85.6913 171.416 85.5197 171.21 85.4224C167.584 83.7408 167.512 80.4718 167.695 74.3544C167.89 67.8537 168.158 58.9535 161.944 48.7548C157.579 41.5935 150.481 37.1462 143.417 37.1462C142.533 37.1462 141.649 37.2177 140.794 37.3636C140.328 37.4408 140.011 37.8841 140.091 38.3531C140.159 38.7678 140.517 39.0681 140.934 39.0681C140.983 39.0681 141.032 39.0653 141.077 39.0567C141.801 38.9366 142.562 38.8737 143.337 38.8737C148.45 38.8737 155.637 41.705 160.479 49.65C166.431 59.4168 166.182 67.6706 165.982 74.3057C165.808 80.1401 165.667 84.7475 170.489 86.9811C170.604 87.0354 170.724 87.0612 170.85 87.0612V87.0583Z" fill="#512C21" stroke="#512C21" stroke-width="0.285996" stroke-miterlimit="10"/>
<path d="M104.89 106.62C105.176 106.62 105.442 106.48 105.602 106.245C105.731 106.057 105.78 105.828 105.737 105.602C105.694 105.376 105.565 105.181 105.377 105.053C98.1122 100.111 93.0901 93.5356 90.4504 85.5163C88.2396 78.8011 87.6762 71.0563 88.7744 62.4964C90.6449 47.9306 97.0626 33.9483 100.921 28.1054C107.627 17.9468 118.555 10.9656 130.152 9.43267C130.378 9.40407 130.581 9.28681 130.722 9.10377C130.862 8.92074 130.922 8.69766 130.89 8.46886C130.833 8.04273 130.47 7.72241 130.044 7.72241C130.007 7.72241 129.966 7.72241 129.929 7.73099C117.846 9.32971 106.466 16.5912 99.4879 27.1587C95.5411 33.1361 88.9775 47.4216 87.0699 62.2762C85.9374 71.0935 86.5265 79.0928 88.8173 86.0511C91.5801 94.4394 96.8252 101.309 104.407 106.468C104.55 106.566 104.716 106.617 104.887 106.617L104.89 106.62Z" fill="#512C21" stroke="#512C21" stroke-width="0.285996" stroke-miterlimit="10"/>
<path d="M166.345 66.4889C166.66 66.4889 166.949 66.3173 167.1 66.0428C167.209 65.8426 167.235 65.6109 167.169 65.3907C167.103 65.1705 166.957 64.9903 166.757 64.8788C164.806 63.8149 162.347 63.2515 159.65 63.2515C157.288 63.2515 154.848 63.6805 152.78 64.4612C152.337 64.6271 152.114 65.1247 152.28 65.568C152.406 65.8998 152.729 66.1229 153.083 66.1229C153.186 66.1229 153.289 66.1029 153.387 66.0657C155.234 65.3678 157.522 64.9674 159.661 64.9674C162.067 64.9674 164.234 65.4565 165.933 66.3831C166.062 66.4518 166.199 66.4889 166.342 66.4889H166.345Z" fill="#512C21" stroke="#512C21" stroke-width="0.285996" stroke-miterlimit="10"/>
<path d="M118.006 66.1229C118.123 66.1229 118.238 66.1001 118.346 66.0514C119.934 65.365 121.67 65.0304 123.66 65.0304C125.259 65.0304 127.041 65.2592 128.954 65.7082C129.02 65.7225 129.085 65.7311 129.151 65.7311C129.552 65.7311 129.892 65.4594 129.983 65.0676C130.092 64.6072 129.803 64.1438 129.343 64.038C127.298 63.5575 125.382 63.3145 123.649 63.3145C121.426 63.3145 119.467 63.6948 117.66 64.4785C117.225 64.6672 117.025 65.1734 117.214 65.6081C117.351 65.9227 117.66 66.1258 118.003 66.1258L118.006 66.1229Z" fill="#512C21" stroke="#512C21" stroke-width="0.285996" stroke-miterlimit="10"/>
<path d="M144.632 92.0344C144.901 92.0344 145.147 91.9143 145.31 91.7026C149.208 86.6863 147.892 84.6156 145.916 82.6051C145.275 81.953 144.669 81.3353 144.48 80.5287C144.389 80.1398 144.046 79.8652 143.645 79.8652C143.58 79.8652 143.514 79.8738 143.448 79.8881C142.987 79.9968 142.701 80.4572 142.807 80.9206C143.105 82.1932 143.948 83.0512 144.689 83.8063C146.274 85.4221 147.086 86.6148 143.951 90.6502C143.811 90.8303 143.748 91.0563 143.777 91.2822C143.805 91.511 143.92 91.7112 144.103 91.8542C144.254 91.9715 144.437 92.0344 144.629 92.0344H144.632Z" fill="#512C21" stroke="#512C21" stroke-width="0.285996" stroke-miterlimit="10"/>
<path d="M141.149 108.173C144.941 108.173 148.799 106.797 151.737 104.398C151.914 104.252 152.025 104.046 152.048 103.82C152.071 103.591 152.005 103.368 151.86 103.191C151.697 102.991 151.453 102.876 151.193 102.876C150.993 102.876 150.807 102.942 150.653 103.071C148.024 105.219 144.569 106.451 141.178 106.451C137.786 106.451 134.691 105.285 132.017 103.077C131.863 102.948 131.674 102.879 131.471 102.879C131.213 102.879 130.973 102.994 130.807 103.191C130.661 103.368 130.593 103.591 130.616 103.82C130.639 104.049 130.747 104.255 130.925 104.401C133.916 106.872 137.454 108.179 141.152 108.179L141.149 108.173Z" fill="#512C21" stroke="#512C21" stroke-width="0.285996" stroke-miterlimit="10"/>
<path d="M160.571 137.059C160.711 137.059 160.845 137.025 160.971 136.959C161.389 136.739 161.552 136.218 161.328 135.8C157.462 128.468 159.956 123.291 161.606 119.865C161.943 119.167 162.232 118.566 162.43 118.02C162.507 117.806 162.498 117.571 162.401 117.365C162.304 117.156 162.132 116.999 161.918 116.922C161.823 116.888 161.723 116.87 161.626 116.87C161.266 116.87 160.942 117.096 160.819 117.437C160.654 117.897 160.382 118.46 160.067 119.11C158.371 122.63 155.54 128.505 159.813 136.601C159.961 136.884 160.253 137.059 160.573 137.059H160.571Z" fill="#512C21" stroke="#512C21" stroke-width="0.285996" stroke-miterlimit="10"/>
<path d="M89.5779 144.458C89.6323 144.458 89.6866 144.452 89.7381 144.444C90.2043 144.355 90.5103 143.906 90.4216 143.443C89.6466 139.347 91.374 135.226 92.9613 132.489C93.9937 130.705 95.2264 128.994 96.4161 127.341C97.5086 125.825 98.6326 124.261 99.6279 122.617C102.228 118.321 103.3 114.28 102.82 110.608C102.765 110.181 102.399 109.861 101.97 109.861C101.933 109.861 101.896 109.861 101.856 109.87C101.63 109.898 101.427 110.016 101.287 110.199C101.146 110.382 101.086 110.605 101.118 110.833C101.55 114.111 100.554 117.775 98.1607 121.73C97.1997 123.317 96.0929 124.853 95.0233 126.34C93.805 128.033 92.5494 129.778 91.4741 131.634C88.9916 135.921 88.045 140.117 88.7342 143.769C88.8115 144.175 89.1632 144.467 89.5751 144.467L89.5779 144.458Z" fill="#512C21" stroke="#512C21" stroke-width="0.285996" stroke-miterlimit="10"/>
<path d="M97.4286 146.483C97.6488 146.483 97.8576 146.4 98.0178 146.248C98.361 145.922 98.3753 145.379 98.0521 145.035C96.1388 143.011 95.6955 139.476 97.0482 136.987C97.2742 136.573 97.1198 136.049 96.7022 135.823C96.5735 135.755 96.4391 135.72 96.2932 135.72C95.9786 135.72 95.6869 135.892 95.5382 136.169C93.8251 139.324 94.3713 143.643 96.8052 146.217C96.9682 146.388 97.1912 146.485 97.4286 146.485V146.483Z" fill="#512C21" stroke="#512C21" stroke-width="0.285996" stroke-miterlimit="10"/>
<path d="M121.77 178.45H137.5V180.55H120.23L116.999 170.316L119.001 169.684L121.77 178.45Z" fill="#512C21"/>
</g>
</g>
<defs>
<clipPath id="clip0_661_3152">
<rect width="279" height="214" fill="white" transform="translate(0.5)"/>
</clipPath>
<clipPath id="clip1_661_3152">
<rect width="194.498" height="416.205" fill="white" transform="matrix(-1 0 0 1 259.998 5)"/>
</clipPath>
</defs>
</svg>
