<svg width="286" height="400" viewBox="0 0 286 400" fill="none" xmlns="http://www.w3.org/2000/svg">
<g clip-path="url(#clip0_848_2792)">
<path d="M201.106 340.03C201.02 335.96 199.793 331.602 198.026 327.394C197.083 325.145 195.986 322.938 194.826 320.844C194.607 320.448 194.382 320.054 194.158 319.668C194.087 319.544 194.015 319.421 193.944 319.301C193.789 319.035 193.636 318.774 193.481 318.513C193.397 318.373 193.313 318.235 193.229 318.098C193.081 317.856 192.936 317.615 192.788 317.379C192.704 317.241 192.621 317.106 192.534 316.971C192.382 316.724 192.229 316.486 192.074 316.245C192 316.126 191.923 316.008 191.847 315.89C191.65 315.585 191.453 315.285 191.256 314.987C191.226 314.943 191.197 314.896 191.167 314.852C190.945 314.517 190.724 314.19 190.504 313.87C190.421 313.747 190.339 313.631 190.255 313.511C190.117 313.314 189.982 313.114 189.846 312.923C189.748 312.782 189.652 312.644 189.553 312.509C189.437 312.347 189.322 312.184 189.208 312.027C189.102 311.882 188.999 311.736 188.895 311.596C188.794 311.458 188.696 311.323 188.597 311.188C188.486 311.038 188.376 310.887 188.267 310.742C188.196 310.646 188.127 310.555 188.055 310.462C187.587 309.842 187.141 309.268 186.725 308.747C186.705 308.722 186.685 308.697 186.668 308.675C186.523 308.493 186.38 308.318 186.242 308.149C186.225 308.129 186.21 308.109 186.193 308.09C186.05 307.915 185.909 307.748 185.776 307.588C185.338 307.066 184.946 306.621 184.626 306.276C184.404 306.04 184.192 305.828 183.99 305.636C183.083 305.23 182.066 305.107 180.996 305.159C178.36 305.287 175.416 306.436 173.088 306.849C170.863 307.246 168.633 307.61 166.398 307.957C171.779 306.844 176.665 305.631 179.513 304.896L179.474 304.679L164.373 307.374C161.271 283.096 167.241 257.696 159.864 234.353C158.837 231.105 157.561 227.938 156.509 224.697C154.855 219.615 153.759 214.374 152.665 209.145C148.989 191.585 145.316 174.025 141.64 156.465C141.263 154.666 140.886 152.867 140.511 151.068L152.719 161.433C152.719 161.433 169.966 168.547 175.648 170.816C185.205 174.635 194.673 177.59 200.781 186.37C206.625 194.774 211.986 203.559 218.427 211.534C225.527 220.329 251.373 258.906 262.733 273.942C274.094 288.977 286.024 307.698 284.319 318.476C282.614 329.257 278.64 332.943 274.946 334.929C271.253 336.915 257.054 344.573 240.581 346.844C224.714 349.029 198.849 353.318 196.962 353.631C197.607 353.488 200.677 352.332 201.072 343.217C201.113 342.247 201.126 341.192 201.101 340.033L201.106 340.03Z" fill="white"/>
<path d="M55.9736 330.387C60.2336 325.849 65.0626 317.054 67.0484 315.637C68.2261 314.795 78.2859 310.937 86.2834 307.932L78.8057 299.467C78.8057 299.467 68.1843 292.092 63.3552 288.121C58.5261 284.149 57.6761 281.029 59.0953 279.611C60.5144 278.194 78.4066 289.255 81.2498 290.958C84.0906 292.661 101.983 303.488 101.983 303.488C103.584 303.488 105.37 303.66 107.095 304.207C112.208 305.823 129.247 311.382 134.076 311.665C134.845 311.71 135.658 311.732 136.515 311.732C137.93 311.638 139.341 311.505 140.753 311.345C140.918 311.328 141.083 311.306 141.248 311.286C142.091 311.188 142.936 311.09 143.779 310.986C144.138 310.942 144.498 310.898 144.86 310.853L164.379 307.371L179.479 304.677L179.519 304.893C176.671 305.629 171.785 306.842 166.404 307.954C168.639 307.608 170.868 307.243 173.093 306.847C175.421 306.434 178.366 305.285 181.002 305.157C182.071 305.105 183.089 305.228 183.995 305.634C184.2 305.826 184.412 306.038 184.631 306.274C184.951 306.618 185.343 307.064 185.779 307.585C185.915 307.745 186.053 307.913 186.196 308.087C186.213 308.107 186.228 308.127 186.245 308.146C186.383 308.316 186.523 308.488 186.671 308.673C186.691 308.698 186.711 308.722 186.728 308.744C187.144 309.266 187.59 309.839 188.058 310.46C188.13 310.553 188.199 310.644 188.27 310.74C188.379 310.885 188.489 311.035 188.6 311.185C188.699 311.318 188.8 311.454 188.898 311.594C189.002 311.737 189.105 311.879 189.211 312.025C189.325 312.182 189.44 312.345 189.556 312.507C189.655 312.645 189.751 312.78 189.849 312.92C189.985 313.112 190.12 313.312 190.258 313.508C190.34 313.629 190.423 313.745 190.507 313.868C190.727 314.188 190.948 314.515 191.17 314.85C191.2 314.894 191.229 314.941 191.259 314.985C191.456 315.28 191.653 315.58 191.85 315.888C191.926 316.004 192 316.124 192.077 316.242C192.229 316.484 192.385 316.725 192.537 316.968C192.621 317.104 192.705 317.239 192.791 317.377C192.939 317.613 193.084 317.854 193.232 318.095C193.316 318.233 193.4 318.371 193.484 318.511C193.639 318.77 193.794 319.033 193.947 319.299C194.018 319.422 194.09 319.542 194.161 319.665C194.385 320.054 194.607 320.445 194.829 320.842C195.962 322.995 197.044 325.175 198.029 327.392C199.793 331.6 201.02 335.958 201.109 340.028C201.134 341.185 201.121 342.243 201.079 343.212C200.932 343.353 200.769 343.481 200.579 343.589C199.714 344.076 198.653 343.995 197.665 343.899C193.929 343.537 191.692 343.171 189.063 342.654C187.573 342.361 185.957 342.019 183.87 341.603C175.609 340.537 166.056 339.408 160.21 339.108C158.702 339.125 157.192 339.142 155.684 339.127C155.573 339.142 155.472 339.159 155.381 339.179C149.985 340.314 142.884 342.162 139.76 341.662C136.993 341.222 119.303 335.833 115.287 334.605C114.76 334.442 114.196 334.477 113.693 334.701C111.547 335.646 105.646 338.283 104.259 339.322C102.554 340.599 101.704 350.809 100.852 353.646C99.9994 356.483 97.4444 362.155 95.1728 361.872C92.9011 361.589 92.9012 355.073 93.1845 348.119C93.4309 342.066 92.3887 335.267 93.8004 332.67C93.6452 332.619 93.49 332.565 93.3348 332.51L93.0391 333.222L87.6803 334.573C86.818 334.789 86.138 335.441 85.8892 336.295C84.576 340.818 80.3702 355.066 78.9782 356.766C76.4232 359.887 74.1491 358.469 72.4466 357.901C70.7417 357.335 74.4349 345.137 75.5707 339.745C76.7066 334.356 78.6949 327.547 80.114 325.278C80.6339 324.449 83.5017 322.864 86.9338 321.186L84.6573 321.592L74.9203 323.957C74.4152 324.08 73.9643 324.343 73.612 324.722C71.0053 327.532 59.7162 339.693 57.9595 341.448C54.8354 344.568 48.8705 344.285 48.018 341.736C47.1655 339.189 51.7113 334.922 55.9712 330.384L55.9736 330.387Z" fill="#FFDDC0"/>
<path d="M156.514 224.692C157.569 227.933 158.845 231.1 159.87 234.348C167.249 257.691 161.277 283.093 164.379 307.369L144.86 310.85C144.501 310.895 144.138 310.939 143.779 310.983C142.936 311.087 142.091 311.185 141.248 311.284C140.036 294.728 140.448 280.467 138.479 261.8C138.142 258.586 136.747 254.649 135.961 251.517C135.313 248.928 134.31 246.442 133.239 243.999C127.951 231.939 120.915 220.725 113.496 209.843C104.538 196.705 94.988 183.983 85.4407 171.266C81.1291 165.523 77.5344 159.112 73.2227 153.369C72.7571 153.723 72.2249 154.102 71.6582 154.496C72.8876 151.814 74.5113 149.35 76.6671 147.244C78.2982 145.652 80.1337 144.38 82.1023 143.346C81.6169 144.252 81.0675 144.956 80.4367 145.371C80.008 145.645 79.5621 145.905 79.1137 146.166C80.4367 147.953 82.0136 149.557 83.684 151.019C86.271 153.285 89.1217 155.246 92.0708 157.016C94.7712 158.637 97.57 160.102 100.433 161.418C103.771 162.951 107.351 163.876 110.37 166.059C111.16 166.63 111.936 167.262 112.587 167.991C113.124 168.594 113.58 169.27 114.033 169.937C114.363 170.422 114.701 170.961 115.07 171.48L120.732 178.055C121.065 176.749 122.765 169.876 123.295 168.638C124.118 166.711 125.47 165.264 127.187 164.09C128.141 163.438 129.166 162.897 130.102 162.228C131.137 161.487 132.11 160.665 133.009 159.764C134.722 158.047 136.17 156.027 137.072 153.765C137.641 152.338 137.962 150.842 138.055 149.331C139.571 151.42 140.689 153.908 141.648 156.457C145.324 174.017 148.997 191.577 152.673 209.137C153.767 214.366 154.866 219.608 156.517 224.689L156.514 224.692Z" fill="#FFC0B7"/>
<path d="M11.7191 189.425C15.4567 185.391 20.0172 182.173 24.7329 179.387C32.4027 174.854 61.9388 162.927 61.9388 162.927L62.742 164.064C62.949 162.848 63.1165 161.714 64.0453 160.547C65.7158 158.456 69.0715 156.293 71.661 154.494C72.2276 154.1 72.7574 153.724 73.2255 153.367C77.5371 159.11 81.1318 165.521 85.4435 171.264C94.9907 183.981 104.543 196.703 113.499 209.842C120.92 220.723 127.956 231.934 133.241 243.997C134.313 246.44 135.313 248.926 135.964 251.515C136.75 254.65 138.142 258.587 138.482 261.798C140.448 280.468 140.039 294.726 141.251 311.282C141.291 311.84 141.33 312.394 141.374 312.955C140.98 312.419 140.564 311.907 140.14 311.405C138.935 311.535 137.728 311.648 136.518 311.727C135.661 311.727 134.85 311.705 134.079 311.661C129.25 311.378 112.21 305.819 107.098 304.202C105.371 303.656 103.587 303.484 101.971 303.488C101.983 303.486 84.0909 292.656 81.2526 290.953C78.4118 289.25 60.5196 278.189 59.098 279.607C57.6789 281.024 58.5289 284.144 63.3579 288.116C68.187 292.088 78.8085 299.463 78.8085 299.463L86.2861 307.928C78.2886 310.932 68.2314 314.791 67.0512 315.632C65.0629 317.05 60.2363 325.844 55.9764 330.382C51.7165 334.922 47.1707 339.187 48.0232 341.734C48.8757 344.281 54.8381 344.566 57.9647 341.446C59.7214 339.691 71.0105 327.53 73.6172 324.72C73.9696 324.341 74.4229 324.075 74.9255 323.955L84.6625 321.59L86.939 321.184C83.507 322.862 80.6366 324.449 80.1192 325.276C78.7001 327.545 76.7118 334.354 75.576 339.743C74.4401 345.132 70.7469 357.33 72.4519 357.898C74.1568 358.467 76.4284 359.884 78.9834 356.764C80.3755 355.064 84.5812 340.813 85.8944 336.293C86.1407 335.439 86.8232 334.787 87.6856 334.57L93.0443 333.219L93.34 332.508C93.4952 332.562 93.648 332.617 93.8056 332.668C92.3939 335.264 93.4361 342.063 93.1897 348.117C92.9039 355.071 92.9039 361.587 95.178 361.87C97.4496 362.153 100.007 356.481 100.857 353.644C101.71 350.807 102.562 340.594 104.264 339.32C105.652 338.281 111.555 335.643 113.698 334.698C114.203 334.477 114.765 334.442 115.292 334.602C119.308 335.833 136.999 341.219 139.765 341.66C142.89 342.159 149.99 340.311 155.386 339.177C155.477 339.157 155.581 339.14 155.689 339.125C157.197 339.14 158.705 339.12 160.215 339.106C166.062 339.406 175.611 340.535 183.87 341.601C185.962 342.019 187.578 342.359 189.069 342.652L189.754 343.621C189.754 343.621 192.73 349.352 194.982 358.531L206.636 357.047C206.636 357.047 206.227 377.754 206.51 386.832C206.66 391.655 206.65 396.505 206.608 399.995H165.249C165.278 398.043 165.421 396.097 165.478 394.146C165.542 391.855 165.557 389.564 165.559 387.273C165.559 385.292 165.478 383.338 165.335 381.362C165.207 379.605 165.034 377.764 165.401 376.024C165.409 375.99 165.409 375.956 165.404 375.919C165.404 375.896 165.396 375.879 165.391 375.857C157.517 376.49 148.206 377.188 137.56 377.907C137.504 378.138 137.691 378.448 138.006 378.402C138.134 380.346 138.157 382.297 138.115 384.246C138.026 388.414 137.691 392.573 137.351 396.729C137.262 397.817 137.164 398.907 137.073 399.997H47.6192C47.661 399.042 47.7522 397.967 47.9197 396.764C48.6687 391.375 50.4649 376.93 50.4649 376.93L50.6891 376.9C49.9302 376.677 49.2108 376.448 48.5283 376.209C38.0202 372.523 27.8594 364.899 23.8829 352.133C19.9063 339.369 16.2155 318.945 13.3747 302.209C10.534 285.473 2.58327 236.964 1.7308 225.903C0.769912 213.442 2.90603 198.94 11.7215 189.427L11.7191 189.425Z" fill="white"/>
<path d="M164.494 400H137.836C138.124 396.548 138.415 393.098 138.629 389.64C138.861 385.875 139.011 382.083 138.752 378.316C140.679 378.07 142.626 378.107 144.565 378.018C148.374 377.843 152.136 377.137 155.942 376.925C157.64 376.832 159.338 376.866 161.033 376.746C162.218 376.662 163.408 376.541 164.583 376.357C164.3 378.161 164.48 380.031 164.615 381.835C164.938 386.17 164.844 390.548 164.701 394.894C164.645 396.597 164.534 398.297 164.499 400H164.494Z" fill="#FFC0B7"/>
<path d="M165.554 387.275C165.552 389.566 165.537 391.857 165.473 394.148C165.419 396.099 165.276 398.046 165.244 399.997H137.07C137.161 398.907 137.26 397.817 137.349 396.729C137.689 392.576 138.024 388.414 138.112 384.246C138.154 382.297 138.135 380.348 138.004 378.402C137.686 378.448 137.501 378.138 137.558 377.907C148.204 377.188 157.515 376.49 165.389 375.857C165.392 375.877 165.399 375.897 165.402 375.919C165.407 375.956 165.404 375.99 165.399 376.024C165.032 377.764 165.204 379.605 165.333 381.362C165.476 383.338 165.559 385.292 165.557 387.273L165.554 387.275Z" fill="#FFC0B7"/>
<path d="M67.0342 143.482C68.4607 138.93 69.9119 134.382 71.3877 129.845C68.6357 130.462 65.7037 130.263 63.0576 129.281C64.664 127.662 66.1127 125.861 67.1352 123.823C68.5963 120.905 69.1038 117.649 69.2467 114.42C69.5128 108.451 68.5248 102.227 70.3037 96.4101C70.9516 94.2889 72.4373 90.7725 75.1795 90.9792C77.9144 91.1859 79.9938 94.503 81.2651 96.5774C85.0495 102.754 87.7055 109.565 89.7382 116.517C91.0735 121.084 92.1552 125.774 92.1823 130.531C92.1995 133.378 91.8275 136.215 91.1672 138.986C88.3165 139.21 92.1654 149.759 89.3887 150.5C87.8685 150.906 80.6403 142.52 79.3887 143.482C78.2405 144.366 77.2436 144.839 76.3887 146C75.0558 147.809 73.0878 148.908 72.1269 150.936C71.538 152.178 70.9985 153.456 70.5303 154.757C69.0447 156.057 67.9335 157.848 66.3665 159.019C65.9723 158.544 65.6421 158.01 65.4032 157.415C64.9129 156.194 64.8192 154.851 64.8636 153.537C64.9818 150.099 66.0068 146.765 67.0367 143.482H67.0342Z" fill="#918273"/>
<path d="M137.701 125.909C137.927 125.599 138.255 125.38 138.573 125.166C139.731 124.389 140.884 123.579 141.948 122.676C143.306 121.229 144.811 119.423 146.183 117.275C149.987 111.315 152.276 104.161 152.276 104.161L155.095 103.133C156.526 103.416 159.919 101.732 162.748 99.3086C165.283 104.351 167.973 113.202 166.623 126.81C166.562 128.606 166.249 130.418 165.995 132.204C165.298 137.111 165.066 142.069 164.834 147.02C164.701 149.882 164.677 153.069 166.596 155.198C163.864 155.205 161.459 153.505 159.266 151.878C158.971 155.842 157.652 159.728 155.477 163.057C148.805 156.253 142.135 149.449 135.463 142.645C135.298 142.478 135.133 142.306 135.027 142.096C134.879 141.799 134.875 141.454 134.875 141.122C134.875 136.24 135.702 131.358 137.311 126.746C137.412 126.456 137.521 126.16 137.703 125.909H137.701Z" fill="#918273"/>
<path d="M77.9265 68.8028C77.9265 68.8028 73.7232 68.4312 70.9736 70.796L70.3946 70.572C70.3946 70.572 68.0171 67.0704 67.9259 56.4153C67.8471 48.905 75.4553 32.1496 79.1313 25.4441C81.8439 20.2887 85.993 13.657 90.1149 10.4063C93.1331 8.11042 95.284 6.87757 96.814 6.25008C99.1349 6.41249 101.429 6.89234 103.74 7.15564C105.827 7.39187 108.276 7.71177 110.197 6.66348C112.033 5.66195 113.395 4.00094 115.046 2.75087C115.911 2.0963 116.84 1.582 117.894 1.31132C118.966 1.03571 120.065 0.905292 121.166 0.846233C123.583 0.720734 126.01 0.910213 128.412 1.1809C130.686 1.43682 132.985 1.70504 135.24 2.11107C143.895 3.66627 149.769 10.9797 157.727 14.0975C159.735 16.0956 163.398 20.0279 167.254 25.6262C172.485 32.7009 174.517 41.7146 176.149 50.1821C177.743 58.8883 177.432 68.9996 174.907 76.1186C173.495 79.8122 169.494 84.3154 165.872 87.8737C165.453 85.9789 164.965 83.4369 164.396 82.9325C161.504 80.3684 156.943 81.8842 156.465 80.3807C155.411 77.0758 145.179 64.7819 144.942 64.2749C142.981 61.2974 137.033 54.7223 135.131 46.4541C134.375 43.4372 132.778 37.1721 128.851 35.2477C122.815 32.2924 108.552 35.9146 105.42 42.2166C99.9923 52.5272 95.725 61.5607 95.725 61.5607C95.725 61.5607 91.4602 65.7563 87.6462 68.5714C82.1618 72.8261 77.924 68.8028 77.924 68.8028H77.9265Z" fill="#918273"/>
<path d="M214.586 350.77C212.874 354.547 207.796 356.922 203.743 357.822C201.19 358.391 198.611 358.844 196.016 359.181L193.407 353.181L207.411 351.921L214.586 350.77Z" fill="#FFDDC0"/>
<path d="M245.413 275.64C247.968 273.937 250.121 277.016 248.705 279.422C246.936 282.427 241.794 292.489 241.794 292.489L232.631 293.712C232.631 293.712 242.856 277.345 245.411 275.642L245.413 275.64Z" fill="#FFDDC0"/>
<path d="M250.738 287.368C251.105 288.586 250.615 289.893 249.976 290.995L242.627 292.329L244.738 287.986C248.678 283.404 250.368 286.15 250.738 287.368Z" fill="#FFDDC0"/>
<path d="M225.816 262.586C228.374 260.89 230.197 261.818 231.049 264.375C231.833 266.729 221.445 292.07 219.782 296.096L207.904 298.604C207.904 298.604 223.259 264.281 225.816 262.583V262.586Z" fill="#FFDDC0"/>
<path d="M242.93 265.854C244.849 267.195 243.427 269.4 242.575 271.666C241.722 273.932 231.091 293.71 231.091 293.71L219.896 296.074C222.123 292.341 234.907 270.913 236.433 268.834C238.721 265.713 240.089 263.87 242.93 265.856V265.854Z" fill="#FFDDC0"/>
<path d="M162.748 99.309C159.919 101.733 156.527 103.416 155.095 103.133L152.276 104.162C152.276 104.162 149.988 111.315 146.184 117.275C144.814 119.423 143.306 121.23 141.936 122.669C139.504 125.226 137.511 126.616 137.511 126.616C137.511 126.616 133.12 144.353 135.902 146.344C136.614 146.858 137.343 147.481 138.087 148.185C138.095 148.569 138.075 148.95 138.05 149.334C137.957 150.845 137.637 152.341 137.067 153.768C136.166 156.027 134.717 158.05 133.005 159.768C132.108 160.668 131.132 161.493 130.097 162.231C129.161 162.903 128.136 163.444 127.183 164.094C125.465 165.267 124.113 166.714 123.29 168.641C122.76 169.879 121.063 176.752 120.727 178.058L115.066 171.483C114.696 170.964 114.359 170.425 114.028 169.94C113.575 169.274 113.119 168.597 112.582 167.994C111.932 167.263 111.153 166.633 110.365 166.062C107.347 163.88 103.769 162.954 100.428 161.421C97.5653 160.107 94.7664 158.643 92.0661 157.019C89.1193 155.247 86.2687 153.288 83.6793 151.022C82.0088 149.56 80.432 147.956 79.1089 146.169C79.5598 145.909 80.0057 145.648 80.432 145.375C81.0627 144.959 81.6121 144.255 82.0975 143.349C85.739 136.54 85.5049 117.93 85.5049 117.93C85.5049 117.93 83.4058 114.379 81.0528 107.494C78.6999 100.608 78.6925 92.6256 78.6925 92.6256C78.6925 92.6256 74.9032 92.0571 70.9389 87.832C66.7357 83.5724 68.1598 78.9486 68.8003 74.6915C69.133 72.9148 69.9534 71.6721 70.9685 70.7986C73.7181 68.4338 77.9213 68.8053 77.9213 68.8053C77.9213 68.8053 82.1591 72.8287 87.6435 68.574C91.4575 65.7614 95.7223 61.5633 95.7223 61.5633C95.7223 61.5633 99.9896 52.5298 105.417 42.2192C108.546 35.9172 122.812 32.2925 128.848 35.2503C132.773 37.1722 134.372 43.4398 135.128 46.4567C137.03 54.7248 142.978 61.3 144.939 64.2775C145.173 64.7845 155.408 77.0784 156.463 80.3833C156.943 81.8868 161.503 80.371 164.393 82.9351C164.963 83.4395 165.45 85.9815 165.869 87.8763C166.084 88.8434 166.278 89.6431 166.456 89.9113C168.476 92.7954 165.98 96.5382 162.745 99.3115L162.748 99.309Z" fill="#FFDDC0"/>
<path d="M113.395 117.912C103.378 116.891 101.857 102.874 101.857 102.874C101.857 102.874 108.547 105.089 115.177 106.086C122.046 107.117 128.853 106.932 128.853 106.932C128.853 106.932 123.886 119.005 113.395 117.912Z" fill="white"/>
<path d="M211.541 130.812C211.541 131.434 211.035 131.939 210.415 131.939H206.539C205.916 131.939 205.413 131.434 205.413 130.812C205.413 130.189 205.918 129.687 206.539 129.687H210.415C211.038 129.687 211.541 130.191 211.541 130.812Z" fill="#AEAEAE"/>
<path d="M195.43 62.2473C194.807 62.2473 194.302 61.7429 194.302 61.1203V58.0001C194.302 57.3775 194.807 56.8755 195.43 56.8755C196.054 56.8755 196.556 57.3799 196.556 58.0001V61.1203C196.556 61.7429 196.051 62.2473 195.43 62.2473Z" fill="#AEAEAE"/>
<path d="M193.274 65.045H190.365C189.741 65.045 189.239 64.5405 189.239 63.9179C189.239 63.2954 189.744 62.7909 190.365 62.7909H193.274C193.898 62.7909 194.403 63.2954 194.403 63.9179C194.403 64.5405 193.898 65.045 193.274 65.045Z" fill="#AEAEAE"/>
<path d="M196.556 69.5138C196.556 70.1364 196.051 70.6409 195.43 70.6409C194.809 70.6409 194.302 70.1364 194.302 69.5138C194.302 65.803 194.302 65.4167 195.272 65.1878C195.78 65.0697 196.31 65.3158 196.544 65.7833C196.679 66.054 196.694 66.3567 196.61 66.6249C196.591 66.839 196.556 67.5132 196.556 69.5138Z" fill="#AEAEAE"/>
<path d="M200.708 64.8285H197.8C197.177 64.8285 196.672 64.3241 196.672 63.7015C196.672 63.0789 197.177 62.5745 197.8 62.5745H200.708C201.331 62.5745 201.834 63.0789 201.834 63.7015C201.834 64.3241 201.328 64.8285 200.708 64.8285Z" fill="#AEAEAE"/>
<path d="M216.718 96.2475C216.094 96.2475 215.592 95.743 215.592 95.1204V91.4908C215.592 90.8682 216.097 90.3638 216.718 90.3638C217.339 90.3638 217.846 90.8682 217.846 91.4908V95.1204C217.846 95.743 217.341 96.2475 216.718 96.2475Z" fill="#AEAEAE"/>
<path d="M214.211 99.5033H210.829C210.205 99.5033 209.7 98.9989 209.7 98.3787C209.7 97.7586 210.205 97.2517 210.829 97.2517H214.211C214.835 97.2517 215.337 97.7562 215.337 98.3787C215.337 99.0013 214.832 99.5033 214.211 99.5033Z" fill="#AEAEAE"/>
<path d="M217.846 104.885C217.846 105.508 217.341 106.012 216.718 106.012C216.094 106.012 215.592 105.508 215.592 104.885C215.592 100.613 215.592 100.264 216.58 100.032C217.087 99.9142 217.62 100.16 217.851 100.628C217.989 100.906 218.004 101.213 217.913 101.487C217.891 101.728 217.846 102.503 217.846 104.885Z" fill="#AEAEAE"/>
<path d="M222.857 99.2524H219.474C218.851 99.2524 218.348 98.7479 218.348 98.1253C218.348 97.5028 218.853 96.9983 219.474 96.9983H222.857C223.48 96.9983 223.983 97.5028 223.983 98.1253C223.983 98.7479 223.478 99.2524 222.857 99.2524Z" fill="#AEAEAE"/>
<path d="M204.506 138.556C204.506 139.178 204.001 139.683 203.38 139.683C202.76 139.683 202.252 139.178 202.252 138.556C202.252 133.782 202.252 133.393 203.257 133.154C203.765 133.036 204.297 133.282 204.531 133.75C204.674 134.035 204.684 134.35 204.585 134.628C204.558 134.894 204.506 135.772 204.506 138.556Z" fill="#AEAEAE"/>
<path d="M21.2192 101.036C21.2192 101.659 20.7142 102.161 20.0908 102.161C19.4675 102.161 18.9624 101.656 18.9624 101.036C18.9624 97.3277 18.9624 96.9414 19.9331 96.71C20.4431 96.5919 20.9704 96.838 21.2045 97.3031C21.3424 97.5762 21.3572 97.8764 21.271 98.1471C21.2513 98.3612 21.2143 99.0355 21.2143 101.036H21.2192Z" fill="#AEAEAE"/>
<path d="M25.3682 96.3534H22.4609C21.8376 96.3534 21.335 95.849 21.335 95.2264C21.335 94.6038 21.84 94.0994 22.4609 94.0994H25.3682C25.9916 94.0994 26.4966 94.6038 26.4966 95.2264C26.4966 95.849 25.9916 96.3534 25.3682 96.3534Z" fill="#AEAEAE"/>
<path d="M52.6255 67.5723C52.0022 67.5723 51.4971 67.0678 51.4971 66.4477V62.8181C51.4971 62.1955 52.0022 61.691 52.6255 61.691C53.2488 61.691 53.7515 62.1955 53.7515 62.8181V66.4477C53.7515 67.0703 53.2464 67.5723 52.6255 67.5723Z" fill="#AEAEAE"/>
<path d="M50.1191 70.828H46.7363C46.113 70.828 45.6079 70.3236 45.6079 69.701C45.6079 69.0784 46.113 68.574 46.7363 68.574H50.1191C50.7425 68.574 51.2476 69.0784 51.2476 69.701C51.2476 70.3236 50.7425 70.828 50.1191 70.828Z" fill="#AEAEAE"/>
<path d="M53.7539 76.2098C53.7539 76.8323 53.2488 77.3368 52.6279 77.3368C52.0071 77.3368 51.4995 76.8323 51.4995 76.2098C51.4995 71.9379 51.4995 71.5909 52.4875 71.3571C53 71.2366 53.5248 71.4851 53.7588 71.9526C53.8993 72.2307 53.9116 72.5408 53.8204 72.8139C53.7982 73.0551 53.7539 73.8302 53.7539 76.2098Z" fill="#AEAEAE"/>
<path d="M58.7651 70.5769H55.3823C54.759 70.5769 54.2563 70.0725 54.2563 69.4499C54.2563 68.8273 54.7614 68.3253 55.3823 68.3253H58.7651C59.3885 68.3253 59.8935 68.8298 59.8935 69.4499C59.8935 70.07 59.3885 70.5769 58.7651 70.5769Z" fill="#AEAEAE"/>
<path d="M203.38 128.496C202.757 128.496 202.252 127.991 202.252 127.371V123.212C202.252 122.59 202.757 122.088 203.38 122.088C204.004 122.088 204.506 122.592 204.506 123.212V127.371C204.506 127.994 204.001 128.496 203.38 128.496Z" fill="#AEAEAE"/>
<path d="M200.508 129.972C201.131 129.972 201.634 130.477 201.634 131.097C201.634 131.717 201.129 132.224 200.508 132.224H196.632C196.009 132.224 195.504 131.72 195.504 131.097C195.504 130.474 196.009 129.972 196.632 129.972H200.508Z" fill="#AEAEAE"/>
<path d="M34.1274 137.642C33.5041 137.642 32.999 137.138 32.999 136.515V132.886C32.999 132.263 33.5041 131.759 34.1274 131.759C34.7508 131.759 35.2559 132.263 35.2559 132.886V136.515C35.2559 137.138 34.7508 137.642 34.1274 137.642Z" fill="#AEAEAE"/>
<path d="M31.6216 140.898H28.2388C27.6154 140.898 27.1104 140.394 27.1104 139.774C27.1104 139.154 27.6154 138.647 28.2388 138.647H31.6216C32.2449 138.647 32.75 139.151 32.75 139.774C32.75 140.396 32.2449 140.898 31.6216 140.898Z" fill="#AEAEAE"/>
<path d="M35.2529 146.28C35.2529 146.902 34.7479 147.404 34.1245 147.404C33.5012 147.404 32.9961 146.9 32.9961 146.28C32.9961 142.008 32.9961 141.659 33.9841 141.427C34.4965 141.307 35.0213 141.555 35.2554 142.023C35.3958 142.301 35.4082 142.611 35.317 142.884C35.2948 143.125 35.2505 143.9 35.2505 146.282L35.2529 146.28Z" fill="#AEAEAE"/>
<path d="M40.2671 140.647H36.8843C36.2609 140.647 35.7559 140.143 35.7559 139.52C35.7559 138.898 36.2609 138.396 36.8843 138.396H40.2671C40.8904 138.396 41.3955 138.9 41.3955 139.52C41.3955 140.14 40.8904 140.647 40.2671 140.647Z" fill="#AEAEAE"/>
<path d="M20.0908 93.772C19.4675 93.772 18.9624 93.2675 18.9624 92.645V89.5272C18.9624 88.9046 19.4675 88.4001 20.0908 88.4001C20.7142 88.4001 21.2192 88.9046 21.2192 89.5272V92.645C21.2192 93.2675 20.7142 93.772 20.0908 93.772Z" fill="#AEAEAE"/>
<path d="M17.9376 96.5675H15.0303C14.4069 96.5675 13.9019 96.0631 13.9019 95.4405C13.9019 94.8179 14.4069 94.3135 15.0303 94.3135H17.9376C18.5609 94.3135 19.066 94.8179 19.066 95.4405C19.066 96.0631 18.5609 96.5675 17.9376 96.5675Z" fill="#AEAEAE"/>
<path d="M196.968 353.626C196.892 353.644 196.847 353.646 196.847 353.646C196.847 353.646 196.894 353.639 196.968 353.626Z" fill="#AEAEAE"/>
<path d="M101.758 237.345C101.751 237.205 101.746 237.062 101.736 236.922C101.712 236.545 101.682 236.169 101.647 235.792C106.339 239.395 112.459 244.678 116.81 250.577C124.263 260.681 130.521 271.055 133.978 279.038C137.102 286.258 142.209 298.161 142.209 298.161L140.137 299.046C140.137 299.046 135.032 287.146 131.908 279.931C128.515 272.096 122.351 261.884 114.994 251.91C111.251 246.836 106.127 242.213 101.822 238.785C101.805 238.305 101.785 237.823 101.758 237.343V237.345Z" fill="#373737"/>
<path d="M85.4163 381.441C96.0033 381.441 108.702 380.961 123.926 380.018C169.156 377.213 195.573 374.368 195.834 374.341C196.056 374.314 196.578 374.186 197.032 373.556C198.182 371.954 198.111 367.948 196.817 361.649C194.538 350.553 190.239 342.465 190.057 342.125C189.763 341.576 189.078 341.372 188.531 341.665C187.982 341.958 187.778 342.642 188.071 343.188C188.113 343.269 192.4 351.343 194.61 362.101C196.13 369.508 195.489 371.657 195.26 372.136C192.156 372.464 166.296 375.134 123.788 377.772C83.4699 380.272 61.0764 379.516 48.9028 375.244C41.9129 372.791 29.5077 366.499 24.962 351.897C21.0174 339.231 17.2921 318.642 14.4883 302.118C11.1819 282.636 3.66484 236.403 2.85671 225.913C1.7209 211.148 5.25399 198.163 12.5518 190.286C15.7572 186.828 19.8126 183.703 25.3118 180.453C32.8215 176.013 62.0718 164.187 62.3674 164.069C62.944 163.835 63.2224 163.181 62.9908 162.605C62.7567 162.029 62.1038 161.748 61.5224 161.982C60.3126 162.469 31.8187 173.991 24.1662 178.516C18.4723 181.882 14.2567 185.135 10.8986 188.758C0.316528 200.166 -0.0924636 217.042 0.604793 226.085C1.50655 237.808 10.0288 289.337 12.2611 302.492C15.0772 319.085 18.8197 339.77 22.8037 352.564C27.645 368.106 40.7623 374.774 48.1513 377.368C55.9542 380.107 67.741 381.441 85.4139 381.441H85.4163Z" fill="#373737"/>
<path d="M52.1334 344.841C54.3188 344.841 56.9009 344.103 58.761 342.245C60.5621 340.449 72.1395 327.973 74.4432 325.49C74.6427 325.273 74.9014 325.123 75.1922 325.052L87.0603 322.153C87.6639 322.006 88.036 321.395 87.8881 320.792C87.7403 320.189 87.1318 319.818 86.5257 319.966L74.66 322.862C73.9405 323.037 73.2926 323.416 72.7924 323.957C70.4937 326.435 58.9409 338.881 57.1694 340.651C55.4127 342.405 52.6015 342.878 50.7315 342.437C49.8593 342.231 49.2458 341.834 49.0955 341.379C48.4229 339.371 53.1657 334.319 56.3046 330.977C58.4826 328.657 60.8972 325.34 63.0308 322.416C64.9156 319.83 66.8645 317.153 67.712 316.55C69.0671 315.583 86.1635 309.131 96.6544 305.277C97.1299 305.152 102.25 303.85 106.763 305.277L108.417 305.804C115.256 307.984 129.485 312.522 134.018 312.787C138.849 313.075 145.073 312.529 156.968 310.792C168.548 309.099 182.284 305.326 182.422 305.29C183.021 305.125 183.373 304.505 183.208 303.904C183.043 303.304 182.422 302.957 181.821 303.119C181.685 303.159 168.08 306.891 156.641 308.565C144.91 310.28 138.815 310.816 134.149 310.541C129.896 310.29 115.323 305.644 109.099 303.661L107.441 303.134C102.065 301.431 96.2429 303.055 95.999 303.124C95.9719 303.131 95.9448 303.141 95.9177 303.149C93.1114 304.18 68.4512 313.255 66.3964 314.719C65.3098 315.494 63.7133 317.648 61.2027 321.093C59.1084 323.964 56.7358 327.222 54.6539 329.44C49.5021 334.929 45.9345 339.049 46.952 342.095C47.3659 343.333 48.5239 344.236 50.2092 344.632C50.7857 344.768 51.4386 344.841 52.1309 344.841H52.1334Z" fill="#373737"/>
<path d="M74.6791 359.931C74.7875 359.931 74.9008 359.926 75.0117 359.919C77.0074 359.786 79.0129 358.447 80.1142 356.508C81.2771 354.468 85.6726 341.094 86.971 336.608C87.1065 336.138 87.4761 335.784 87.954 335.663L93.3128 334.312C93.9165 334.159 94.2811 333.549 94.1283 332.946C93.9756 332.343 93.3646 331.977 92.7609 332.129L87.4022 333.48C86.1555 333.795 85.1601 334.753 84.8053 335.98C83.4428 340.676 79.1459 353.646 78.153 355.393C77.4237 356.671 76.1007 357.588 74.8589 357.67C74.3736 357.702 73.6985 357.616 73.2377 357.01C72.2522 355.718 74.716 347.071 75.6424 343.816C76.1179 342.15 76.4924 340.833 76.6723 339.979C77.7785 334.735 79.7249 328.025 81.0702 325.877C81.9769 324.592 91.9158 319.897 100.997 316.107C101.571 315.869 101.843 315.209 101.604 314.636C101.365 314.062 100.702 313.789 100.13 314.03C95.5894 315.925 80.6538 322.296 79.1607 324.686C77.6282 327.134 75.5981 334.157 74.4696 339.519C74.307 340.297 73.9227 341.643 73.4767 343.203C71.38 350.56 69.9018 356.351 71.4466 358.378C72.2177 359.387 73.356 359.931 74.6791 359.931Z" fill="#373737"/>
<path d="M86.2854 309.057C86.5515 309.057 86.8151 308.964 87.0295 308.777C87.4952 308.366 87.542 307.655 87.1305 307.187L79.6529 298.722C79.5937 298.653 79.5247 298.594 79.4508 298.542C79.3449 298.469 68.8121 291.148 64.0742 287.25C60.036 283.928 59.632 281.848 59.6073 281.29C59.595 281.022 59.6369 280.8 59.7355 280.618C60.9329 280.773 65.1657 282.518 79.6159 291.281L80.6729 291.92C83.4791 293.601 101.221 304.34 101.401 304.448C101.933 304.768 102.625 304.601 102.948 304.069C103.271 303.538 103.101 302.846 102.569 302.521C102.389 302.413 84.6421 291.672 81.8333 289.989L80.7862 289.356C60.2233 276.89 59.2033 277.911 58.3015 278.812C57.6338 279.479 57.3062 280.375 57.3554 281.398C57.4614 283.605 59.2895 286.229 62.6428 288.987C67.2402 292.769 76.8441 299.47 78.0539 300.312L85.4403 308.673C85.6645 308.924 85.975 309.055 86.2854 309.055V309.057Z" fill="#373737"/>
<path d="M196.014 360.305C196.063 360.305 196.11 360.303 196.162 360.295C198.776 359.956 201.407 359.493 203.987 358.92C207.752 358.083 212.987 356.456 214.998 352.025C215.254 351.459 215.003 350.792 214.436 350.536C213.867 350.28 213.199 350.531 212.943 351.097C211.351 354.611 206.788 355.991 203.497 356.725C200.983 357.283 198.416 357.734 195.871 358.066C195.255 358.147 194.819 358.71 194.898 359.328C194.972 359.897 195.457 360.31 196.014 360.31V360.305Z" fill="#373737"/>
<path d="M207.631 386.8C207.781 391.614 207.771 396.486 207.73 399.997H205.475C205.517 396.511 205.527 391.66 205.377 386.869C205.096 377.868 205.5 357.234 205.502 357.028C205.515 356.405 206.015 355.915 206.65 355.923C207.274 355.935 207.767 356.449 207.754 357.069C207.749 357.276 207.348 377.853 207.629 386.798L207.631 386.8Z" fill="#373737"/>
<path d="M49.0329 396.919C48.8727 398.066 48.7865 399.089 48.7471 399.997H46.4902C46.5346 398.996 46.6257 397.869 46.8007 396.609C47.5398 391.289 49.3236 376.935 49.3433 376.79C49.4197 376.172 49.9839 375.734 50.5999 375.81C51.2183 375.887 51.6568 376.448 51.5805 377.065C51.5632 377.211 49.7745 391.579 49.0353 396.916L49.0329 396.919Z" fill="#373737"/>
<path d="M147.201 186.442C147.758 186.442 148.244 186.028 148.318 185.46C148.396 184.85 147.973 184.291 147.366 184.203C147.263 184.183 144.255 183.521 140.731 177.492C137.905 172.654 136.095 169.854 134.772 167.811C134.227 166.97 133.761 166.249 133.333 165.557C132.525 164.246 131.453 163.444 130.147 163.168C127.829 162.683 125.69 164.14 125.599 164.201C125.086 164.556 124.958 165.257 125.313 165.769C125.668 166.281 126.37 166.409 126.882 166.054C126.892 166.047 128.331 165.082 129.696 165.375C130.379 165.52 130.94 165.968 131.416 166.739C131.852 167.445 132.325 168.178 132.879 169.037C134.19 171.062 135.986 173.838 138.785 178.631C142.922 185.713 146.645 186.385 147.054 186.437C147.103 186.444 147.152 186.447 147.201 186.447V186.442Z" fill="#373737"/>
<path d="M97.4403 187.126C97.8321 187.126 98.2115 186.922 98.4209 186.558L102.964 178.614C103.538 177.61 104.078 176.535 104.598 175.497C106.049 172.603 107.552 169.608 109.523 168.904C111.484 168.203 114.214 170.974 115.012 172.002C115.394 172.492 116.101 172.583 116.594 172.202C117.087 171.82 117.175 171.114 116.794 170.622C116.377 170.085 112.605 165.415 108.766 166.783C105.943 167.79 104.312 171.043 102.585 174.488C102.077 175.499 101.552 176.547 101.008 177.497L96.4647 185.441C96.1567 185.98 96.3439 186.669 96.8835 186.976C97.0584 187.077 97.2531 187.124 97.4428 187.124L97.4403 187.126Z" fill="#373737"/>
<path d="M141.69 312.64C141.705 312.64 141.72 312.64 141.732 312.64C142.355 312.615 142.841 312.094 142.816 311.471C142.809 311.26 142.013 290.225 141.451 280.677C141.049 273.866 140.241 268.277 139.527 263.348C139.234 261.318 138.955 259.401 138.743 257.634C137.989 251.325 134.442 242.37 127.237 228.597C120.011 214.78 75.9976 155.227 74.1276 152.7C73.758 152.201 73.0533 152.095 72.5507 152.464C72.0506 152.833 71.9446 153.539 72.3142 154.039C72.77 154.656 118.092 215.979 125.239 229.641C132.214 242.978 135.794 251.96 136.504 257.903C136.718 259.697 136.996 261.628 137.292 263.673C137.999 268.558 138.8 274.097 139.197 280.812C139.758 290.336 140.552 311.348 140.559 311.56C140.581 312.168 141.081 312.642 141.685 312.642L141.69 312.64Z" fill="#373737"/>
<path d="M163.758 309.057C164.399 309.048 164.897 308.536 164.887 307.913C164.882 307.647 164.465 281.172 164.746 268.856C165.03 256.407 165.03 253.415 163.312 243.114C162.297 237.036 160.733 231.994 158.565 225.015C157.049 220.138 155.332 214.611 153.349 207.263C148.591 189.649 140.672 149.493 140.61 149.124C140.507 148.511 139.923 148.1 139.312 148.201C138.698 148.304 138.284 148.885 138.388 149.5C138.452 149.869 146.386 190.131 151.173 207.849C153.169 215.238 154.894 220.785 156.414 225.679C158.555 232.574 160.102 237.555 161.09 243.48C162.78 253.607 162.78 256.284 162.494 268.799C162.214 281.16 162.63 307.677 162.635 307.943C162.645 308.558 163.147 309.05 163.761 309.05L163.758 309.057Z" fill="#373737"/>
<path d="M108.208 204.098C108.553 203.579 109.255 203.444 109.77 203.788C110.287 204.133 110.425 204.831 110.08 205.348L99.4767 221.363C99.4679 221.409 99.4572 221.455 99.4425 221.5L95.4835 230.975C95.4172 231.176 95.4905 231.39 95.6652 231.506C96.4856 232.05 100.257 234.809 101.888 236C101.972 237.051 105.203 240.462 105.388 241.5C102.991 239.677 95.5026 234.097 94.421 233.381C93.4061 232.709 92.9626 231.432 93.3419 230.275H93.34L97.2687 220.871C97.2456 220.778 97.2792 220.663 97.3878 220.5L108.208 204.098Z" fill="#373737"/>
<path d="M151.075 311.607C151.095 311.607 151.112 311.607 151.132 311.607C151.752 311.577 152.233 311.048 152.201 310.428C152.189 310.15 150.816 282.545 150.139 271.597C149.939 268.381 149.818 265.735 149.712 263.4C149.456 257.802 149.289 254.103 148.303 249.59C146.911 243.214 142.245 228.177 137.773 216.798C133.363 205.572 121.889 177.911 121.773 177.633C121.534 177.057 120.876 176.786 120.3 177.022C119.725 177.261 119.452 177.918 119.691 178.494C119.807 178.772 131.271 206.414 135.674 217.62C140.106 228.903 144.726 243.778 146.101 250.07C147.047 254.399 147.202 257.826 147.461 263.503C147.566 265.846 147.69 268.504 147.889 271.737C148.567 282.67 149.937 310.263 149.951 310.541C149.981 311.144 150.479 311.611 151.077 311.611L151.075 311.607Z" fill="#373737"/>
<path d="M75.8873 145C76.1583 144.439 76.8314 144.205 77.3932 144.476C77.9524 144.746 78.1886 145.418 77.9176 145.98C77.7098 146.407 68.8771 158.562 67.0592 159.729C66.5 160.088 65.9923 160.37 65.5465 160.621C63.7159 161.65 63.6076 161.711 64.4108 163.783C64.9602 165.193 66.0192 168.531 67.2486 172.392C69.2418 178.654 71.7207 186.448 73.024 189.206C73.6604 190.553 75.5504 196.097 76.5719 199.081C76.591 199.057 76.6116 199.034 76.6305 199.01C77.7736 202.504 78.7544 205.725 79.0895 206.842L98.5602 219.442C99.0799 219.782 99.2273 220.478 98.8873 221C98.6706 221.332 98.3113 221.512 97.942 221.512C97.7302 221.512 97.5179 221.453 97.3258 221.33L77.5074 208.506C77.2832 208.361 77.118 208.139 77.0416 207.883C77.0214 207.817 76.08 204.67 74.8805 200.948C74.9054 200.922 74.9297 200.895 74.9547 200.868C73.9826 198.07 71.6335 191.535 70.9869 190.168C69.6171 187.272 67.1131 179.4 65.1002 173.073C63.8832 169.247 62.8315 165.942 62.3092 164.596C60.8999 160.969 62.1734 159.932 64.44 158.657V158.66C64.8589 158.426 65.3295 158.16 65.8395 157.833C66.8102 157.21 75.2214 146.376 75.8873 145Z" fill="#373737"/>
<path d="M168.888 275.5C168.595 275.586 175.762 255.732 175.484 255.863C177.11 251.237 178.31 247.88 178.46 247.459C178.67 246.874 179.315 246.568 179.902 246.778C180.488 246.987 180.793 247.631 180.584 248.217C180.55 248.313 170.349 278.354 168.888 282.5C168.307 282.47 160.43 301.969 167.888 279L168.888 275.5Z" fill="#373737"/>
<path d="M162.657 298.363C162.657 298.363 163.652 293.835 165.103 287.309C165.579 285.163 167.136 280.262 169.028 274.604C169.05 274.986 169.08 275.367 169.129 275.748C169.26 276.76 169.494 277.82 170.053 278.684C168.705 282.796 167.666 286.165 167.303 287.796C165.855 294.32 164.859 298.845 164.859 298.845C164.744 299.372 164.278 299.731 163.76 299.731C163.682 299.731 163.6 299.724 163.519 299.704C162.91 299.571 162.526 298.971 162.659 298.363H162.657Z" fill="#373737"/>
<path d="M163.911 400V376.932C163.911 376.31 164.416 375.805 165.037 375.805C165.658 375.805 166.166 376.31 166.166 376.932V400H163.911Z" fill="#373737"/>
<path d="M136.592 400L137.607 377.877C137.636 377.255 138.176 376.787 138.785 376.804C139.408 376.831 139.888 377.358 139.859 377.981L138.851 400.002H136.594L136.592 400Z" fill="#373737"/>
<path d="M147.984 400L148.455 377.904C148.467 377.282 148.98 376.824 149.606 376.802C150.229 376.814 150.722 377.331 150.709 377.951L150.239 400H147.984Z" fill="#373737"/>
<path d="M75.2849 288.497C75.3538 288.497 75.4228 288.493 75.4918 288.478C76.1028 288.365 76.5069 287.776 76.3936 287.166L63.944 220.401C63.8306 219.788 63.2369 219.384 62.6308 219.5C62.0197 219.613 61.6157 220.201 61.729 220.814L74.1786 287.58C74.2796 288.121 74.7527 288.5 75.2849 288.5V288.497Z" fill="#373737"/>
<path d="M80.8856 309.687C81.0753 309.687 81.2675 309.64 81.4449 309.537C81.9845 309.227 82.1717 308.54 81.8613 308.002C80.2081 305.122 78.4933 298.397 78.476 298.331C78.3233 297.728 77.7098 297.364 77.1062 297.516C76.5025 297.669 76.1379 298.281 76.2906 298.884C76.3621 299.172 78.0991 305.979 79.905 309.124C80.112 309.485 80.4939 309.69 80.8832 309.69L80.8856 309.687Z" fill="#373737"/>
<path d="M215.85 282.466C216.368 282.466 216.836 282.107 216.949 281.582C218.676 273.708 216.242 268.053 213.162 260.897L212.82 260.1C211.679 257.442 210.395 254.802 209.156 252.25C206.971 247.747 204.709 243.091 203.201 238.28C201.045 231.393 200.39 223.969 201.302 216.81C201.38 216.195 200.944 215.631 200.326 215.55C199.712 215.479 199.143 215.907 199.064 216.525C198.111 224.001 198.796 231.757 201.048 238.95C202.605 243.923 204.901 248.655 207.126 253.232C208.355 255.762 209.624 258.375 210.745 260.986L211.09 261.786C214.012 268.572 216.318 273.932 214.747 281.1C214.614 281.708 214.998 282.308 215.606 282.441C215.688 282.461 215.769 282.468 215.848 282.468L215.85 282.466Z" fill="#373737"/>
<path d="M249.977 292.122C250.366 292.122 250.746 291.921 250.955 291.559C251.926 289.878 252.217 288.36 251.817 287.043C251.527 286.084 250.571 284.974 249.09 284.661C247.762 284.378 245.631 284.679 243.032 287.7C242.625 288.173 242.679 288.881 243.152 289.288C243.625 289.691 244.335 289.639 244.741 289.167C246.207 287.462 247.587 286.647 248.624 286.864C249.253 286.997 249.598 287.489 249.662 287.695C249.874 288.392 249.652 289.315 249.004 290.434C248.693 290.973 248.878 291.662 249.418 291.972C249.595 292.076 249.79 292.122 249.979 292.122H249.977Z" fill="#373737"/>
<path d="M232.632 294.834C233.009 294.834 233.376 294.647 233.588 294.305C237.493 288.057 244.322 277.717 246.037 276.577C246.631 276.181 247.136 276.171 247.538 276.55C248.02 277.008 248.252 277.968 247.732 278.851C245.966 281.851 241.001 291.564 240.789 291.974C240.506 292.528 240.725 293.205 241.28 293.488C241.834 293.771 242.514 293.552 242.795 292.996C242.847 292.895 247.942 282.931 249.674 279.991C250.664 278.307 250.418 276.171 249.082 274.914C247.905 273.802 246.259 273.721 244.783 274.702C242.159 276.45 233.4 290.345 231.671 293.111C231.341 293.638 231.501 294.334 232.03 294.662C232.215 294.777 232.422 294.831 232.627 294.831L232.632 294.834Z" fill="#373737"/>
<path d="M207.905 299.731C208.336 299.731 208.747 299.482 208.934 299.064C216.198 282.828 224.809 264.847 226.46 263.508C227.053 263.115 227.933 262.679 228.625 262.92C229.327 263.162 229.749 264.038 229.98 264.732C230.202 266.587 224.333 282.213 218.519 296.205C218.292 296.751 218.526 297.379 219.053 297.642C219.583 297.908 220.226 297.718 220.527 297.211C225.775 288.399 236.044 271.265 237.34 269.496C239.88 266.031 240.479 265.514 242.28 266.774C243.021 267.293 242.876 267.987 241.986 270.103C241.826 270.487 241.664 270.876 241.516 271.267C240.838 273.069 233.043 287.693 230.096 293.176C229.803 293.722 230.007 294.406 230.557 294.699C231.106 294.992 231.789 294.787 232.084 294.239C232.52 293.429 242.76 274.368 243.63 272.057C243.765 271.693 243.918 271.331 244.068 270.972C244.849 269.112 245.919 266.565 243.576 264.928C239.818 262.303 237.731 265.15 235.524 268.162C234.634 269.375 230.138 276.789 226.001 283.674C229.423 274.877 232.683 265.706 232.121 264.015C231.412 261.887 230.229 261.085 229.362 260.787C228.497 260.489 227.073 260.398 225.196 261.643C222.572 263.383 210.511 290.018 206.88 298.141C206.626 298.71 206.88 299.374 207.449 299.628C207.599 299.694 207.754 299.726 207.907 299.726L207.905 299.731Z" fill="#373737"/>
<path d="M200.407 344.689C200.606 344.736 200.816 344.79 200.961 344.935C201.19 345.166 201.168 345.538 201.124 345.863C200.897 347.531 200.508 349.177 199.963 350.772C199.557 351.958 198.99 353.198 197.894 353.808C196.455 354.608 194.553 353.991 193.424 352.792C191.978 351.254 189.357 345.102 190.424 343.719C191.251 342.644 198.049 344.133 200.409 344.689H200.407Z" fill="#373737"/>
<path d="M109.847 136.161C110.394 136.161 110.877 135.76 110.961 135.204C111.055 134.591 110.631 134.018 110.017 133.924C109.931 133.91 103.269 132.756 93.2634 123.853C86.1923 117.437 83.6817 110.973 82.4769 107.865C79.4292 100.173 79.3774 89.2763 79.3774 89.168C79.3774 88.5479 78.8724 88.0435 78.249 88.0435C77.6257 88.0435 77.1206 88.5504 77.1231 89.1705C77.1231 89.6331 77.1797 100.606 80.3777 108.684C81.5456 111.689 84.2829 118.746 91.7556 125.523C102.355 134.958 109.384 136.105 109.677 136.147C109.734 136.156 109.791 136.159 109.847 136.159V136.161Z" fill="#373737"/>
<path d="M145.792 66.3373C146.088 66.3373 146.383 66.2217 146.605 65.9928C147.036 65.5449 147.024 64.8362 146.578 64.4056C146.378 64.2112 141.599 59.6908 134.012 61.6717C133.411 61.8292 133.049 62.4444 133.207 63.0448C133.365 63.6452 133.98 64.0045 134.582 63.8495C140.901 62.2008 144.848 65.8673 145.013 66.0248C145.233 66.234 145.514 66.3373 145.794 66.3373H145.792Z" fill="#373737"/>
<path d="M110.138 60.2565C110.503 60.2565 110.863 60.0793 111.08 59.752C111.422 59.2328 111.282 58.534 110.762 58.1919C104.124 53.8093 98.2038 56.7302 97.9549 56.8582C97.4006 57.1412 97.1788 57.8179 97.4622 58.3716C97.7431 58.9252 98.4231 59.1442 98.975 58.8662C99.1893 58.7604 104.016 56.4374 109.52 60.0719C109.712 60.1974 109.927 60.259 110.141 60.259L110.138 60.2565Z" fill="#373737"/>
<path fill-rule="evenodd" clip-rule="evenodd" d="M137.949 126.923C137.949 126.923 122.232 136.415 109.881 134.8C100.373 133.614 88.5127 120.705 88.5127 120.705C88.5127 120.705 99.7895 139.089 112.057 142.867C122.7 146.159 135.601 137.697 135.601 137.697L137.951 126.923H137.949Z" fill="#373737"/>
<path d="M77.3403 146.211C77.5694 146.211 77.8035 146.142 78.003 145.997C78.5943 145.569 79.1585 145.259 79.7055 144.961C81.0064 144.25 82.3516 143.517 83.1573 141.447C85.6186 134.921 86.0202 117.819 86.035 117.093C86.0473 116.47 85.5546 115.956 84.9337 115.944C84.3128 115.919 83.7954 116.421 83.7806 117.044C83.7782 117.218 83.3741 134.486 81.0508 140.64C80.5481 141.932 79.8238 142.328 78.6239 142.983C78.0424 143.3 77.3846 143.659 76.6775 144.174C76.1749 144.54 76.0615 145.244 76.4287 145.746C76.6479 146.049 76.9929 146.211 77.3403 146.211Z" fill="#373737"/>
<path d="M111.508 136.26C114.499 136.26 121.604 135.664 131.435 131.001C140.115 126.934 143.744 121.776 145.912 118.693L146.053 118.493C149.596 113.658 152.308 106.994 154.573 101.13C154.797 100.549 154.509 99.8997 153.927 99.6757C153.346 99.4518 152.693 99.7422 152.471 100.32C150.096 106.472 147.452 112.772 144.222 117.182L144.069 117.401C141.899 120.489 138.617 125.155 130.474 128.969C118.192 134.793 110.296 133.969 110.219 133.959C109.598 133.89 109.042 134.328 108.968 134.946C108.896 135.561 109.335 136.12 109.951 136.196C110.032 136.206 110.567 136.265 111.51 136.265L111.508 136.26Z" fill="#373737"/>
<path d="M156.744 82.0663C156.909 82.0663 157.077 82.0294 157.237 81.9531C157.796 81.6824 158.03 81.0082 157.759 80.4496C154.317 73.37 151.316 70.139 148.414 67.0138C145.834 64.2356 143.398 61.6124 140.808 56.3193C138.128 50.8392 136.344 46.4492 135.041 43.2453C132.867 37.9005 131.778 35.2183 129.467 34.2659C127.58 33.4883 125.323 34.138 122.064 35.5234C121.49 35.767 121.224 36.429 121.467 36.9999C121.711 37.5732 122.374 37.839 122.946 37.5954C126.025 36.2862 127.612 35.9368 128.605 36.3478C130.044 36.9408 131.138 39.6329 132.951 44.0918C134.267 47.3277 136.068 51.7595 138.783 57.3086C141.518 62.8994 144.184 65.7687 146.761 68.5444C149.55 71.549 152.435 74.6545 155.732 81.4314C155.926 81.8326 156.328 82.0663 156.747 82.0663H156.744Z" fill="#373737"/>
<path d="M70.6312 71.7362C70.7913 71.7362 70.9539 71.7017 71.1092 71.6279C71.6734 71.3646 71.9148 70.6928 71.6512 70.1317C66.832 59.8728 68.3497 49.1094 76.8892 32.984C77.7984 31.2861 78.6509 29.6521 79.4688 28.092C86.7001 14.265 90.6939 6.64644 104.132 7.84483C104.743 7.89897 105.299 7.44373 105.354 6.82362C105.408 6.2035 104.952 5.65721 104.331 5.60308C89.3881 4.27426 84.9015 12.8476 77.4707 27.0511C76.6576 28.6063 75.8076 30.2329 74.8985 31.9283C65.982 48.7624 64.452 60.1066 69.6087 71.089C69.8009 71.4975 70.2074 71.7362 70.6312 71.7362Z" fill="#373737"/>
<path d="M167.112 87.1992C167.378 87.1992 167.646 87.1057 167.863 86.9138C177.674 78.1609 179.682 66.4919 175.269 43.8652C170.935 21.8019 158.338 12.0475 149.237 6.62639C140.308 1.40219 124.665 -1.98383 115.601 1.29145C112.004 2.59074 109.619 4.80297 108.51 7.86908C108.298 8.45474 108.601 9.09946 109.187 9.31109C109.771 9.52271 110.419 9.22004 110.631 8.63438C111.501 6.22775 113.433 4.47076 116.369 3.41017C124.714 0.395734 139.785 3.70792 148.091 8.56794C156.813 13.7626 168.898 23.1209 173.057 44.2983C177.344 66.2877 175.589 76.9994 166.36 85.2356C165.897 85.649 165.857 86.3626 166.271 86.8252C166.493 87.0738 166.804 87.2017 167.112 87.2017V87.1992Z" fill="#373737"/>
<path d="M115.347 98.0465C115.574 98.0465 115.8 97.9801 116 97.8398C116.507 97.4805 116.628 96.7768 116.266 96.2698C114.738 94.1216 114.546 93.0881 114.655 92.6008C114.775 92.057 115.426 91.6584 116.478 91.053C117.816 90.2853 119.481 89.328 120.324 87.3028C122.398 82.6667 120.198 74.6865 119.494 72.804C119.274 72.2208 118.626 71.9255 118.042 72.142C117.458 72.3586 117.163 73.0082 117.382 73.5914C118.326 76.1113 119.853 82.839 118.254 86.412C117.692 87.7581 116.557 88.4102 115.354 89.1016C114.095 89.8251 112.792 90.5756 112.452 92.1185C112.142 93.531 112.75 95.2142 114.428 97.574C114.647 97.8841 114.997 98.049 115.349 98.049L115.347 98.0465Z" fill="#373737"/>
<path d="M113.28 119.032C102.479 117.932 100.801 103.605 100.734 102.995C100.692 102.614 100.848 102.24 101.146 101.998C101.444 101.757 101.843 101.686 102.208 101.807C102.274 101.829 108.88 104.002 115.342 104.974C122.026 105.978 128.753 105.81 128.819 105.808C129.204 105.795 129.561 105.98 129.778 106.293C129.994 106.605 130.036 107.009 129.893 107.36C129.686 107.862 124.936 119.111 114.758 119.111C114.278 119.111 113.783 119.086 113.278 119.032H113.28ZM115.007 107.198C110.348 106.499 105.726 105.227 103.277 104.496C104.043 108.096 106.519 116.079 113.509 116.793C120.827 117.548 125.311 111.135 127.021 108.072C124.508 108.057 119.802 107.922 115.005 107.201L115.007 107.198Z" fill="#373737"/>
<path d="M152.464 104.538C152.501 104.538 152.535 104.538 152.572 104.533C157.177 104.093 163.681 102.628 166.975 95.0567C168.924 90.4649 168.464 85.7427 165.776 82.7258C164.26 81.0254 160.72 78.4637 154.038 80.4176C153.442 80.5923 153.099 81.2173 153.272 81.8153C153.447 82.4108 154.07 82.7553 154.671 82.5806C158.741 81.3896 162.087 81.9753 164.093 84.2244C166.197 86.5843 166.507 90.396 164.903 94.1708C162.134 100.534 157.007 101.848 152.355 102.294C151.734 102.353 151.281 102.904 151.34 103.522C151.397 104.105 151.887 104.54 152.461 104.54L152.464 104.538Z" fill="#373737"/>
<path d="M156.943 94.3797C157.295 94.3797 157.645 94.2148 157.864 93.9048C157.874 93.89 158.961 92.3914 160.698 91.6384C161.269 91.3899 161.53 90.7279 161.284 90.157C161.035 89.5862 160.37 89.3253 159.801 89.5714C157.465 90.5828 156.08 92.5218 156.021 92.6055C155.664 93.1149 155.787 93.8162 156.295 94.173C156.492 94.3108 156.719 94.3773 156.943 94.3773V94.3797Z" fill="#373737"/>
<path fill-rule="evenodd" clip-rule="evenodd" d="M139.948 81.5079C140.305 79.1431 139.169 77.0367 137.036 76.7168C135.141 76.4313 133.2 78.0751 132.842 80.4399C132.485 82.8047 133.621 84.9111 135.752 85.231C137.647 85.5164 139.591 83.8727 139.945 81.5079H139.948Z" fill="#373737"/>
<path fill-rule="evenodd" clip-rule="evenodd" d="M104.897 76.2418C105.252 73.877 104.119 71.7705 101.985 71.4506C100.09 71.1652 98.1463 72.809 97.7916 75.1738C97.4343 77.5386 98.5701 79.645 100.701 79.9649C102.832 80.2848 104.54 78.6065 104.895 76.2418H104.897Z" fill="#373737"/>
<path d="M86.9021 69.8266C87.0229 69.8266 87.1461 69.8069 87.2668 69.7651C87.5674 69.6617 94.6533 67.1714 98.3564 59.3831C99.507 56.9346 100.465 54.4542 101.392 52.0549C104.472 44.0821 106.913 37.7751 113.839 38.3288C114.457 38.3682 115.002 37.9154 115.051 37.2953C115.1 36.6752 114.635 36.1338 114.016 36.0846C105.395 35.4128 102.434 43.1051 99.2902 51.2478C98.3785 53.6101 97.4349 56.0537 96.3213 58.4259C93.0395 65.3234 86.6016 67.6168 86.5375 67.639C85.9486 67.8408 85.6382 68.483 85.8378 69.0687C85.9979 69.5362 86.434 69.8291 86.9021 69.8291V69.8266Z" fill="#373737"/>
<path d="M146.132 125.166C146.241 125.166 146.349 125.152 146.458 125.117C156.843 121.987 158.419 110.294 159.464 102.554C159.548 101.939 159.114 101.371 158.498 101.287C157.882 101.211 157.313 101.637 157.229 102.252C156.207 109.846 154.803 120.247 145.807 122.959C145.211 123.139 144.873 123.766 145.053 124.362C145.201 124.849 145.647 125.162 146.132 125.162V125.166Z" fill="#373737"/>
<path d="M65.344 159.915C65.4006 159.915 65.4573 159.91 65.514 159.903C66.1299 159.809 66.5537 159.236 66.4601 158.621C64.9768 148.807 69.1013 138.565 72.4151 130.334C72.6467 129.758 72.3683 129.101 71.7893 128.87C71.2078 128.636 70.5549 128.919 70.3233 129.495C66.9085 137.977 62.6559 148.536 64.2303 158.958C64.3141 159.516 64.7945 159.915 65.344 159.915Z" fill="#373737"/>
<path d="M120.731 179.185C120.795 179.185 120.859 179.18 120.923 179.168C121.366 179.092 121.721 178.759 121.827 178.324C121.847 178.245 123.793 170.27 126.19 166.945C127.297 165.412 128.287 164.836 129.544 164.108C130.936 163.301 132.515 162.385 134.392 160.04C137.935 155.618 140.558 149.655 140.603 149.423C140.718 148.813 140.319 148.225 139.708 148.107C139.097 147.989 138.506 148.39 138.388 149C138.378 149.052 135.817 154.661 132.633 158.635C131.019 160.651 129.694 161.418 128.413 162.162C127.102 162.919 125.749 163.704 124.362 165.629C122.576 168.109 121.09 172.61 120.285 175.391C118.296 172.521 114.633 167.492 112.307 165.801C110.895 164.775 108.838 163.855 106.236 162.688C102.757 161.13 98.4258 159.191 93.6534 156.12C85.4465 150.842 78.1709 144.316 78.0969 144.25C77.6362 143.834 76.9217 143.871 76.5053 144.333C76.0889 144.796 76.1259 145.507 76.5891 145.923C76.663 145.989 84.0741 152.638 92.4314 158.013C97.3491 161.175 101.764 163.153 105.312 164.743C107.796 165.855 109.759 166.734 110.981 167.622C113.406 169.384 118.163 176.198 119.792 178.676C120.001 178.996 120.359 179.183 120.733 179.183L120.731 179.185Z" fill="#373737"/>
<path d="M140.095 148.293L138.681 149.707L134.681 145.707L136.095 144.293L140.095 148.293Z" fill="#373737"/>
<path d="M116.477 27.8286C116.529 27.8286 116.58 27.8261 116.635 27.8187C117.253 27.7326 117.682 27.1642 117.596 26.549C116.6 19.4349 110.623 15.7019 110.369 15.5469C109.839 15.2245 109.145 15.3869 108.819 15.9185C108.494 16.4475 108.662 17.139 109.189 17.4663C109.241 17.4983 114.516 20.8203 115.361 26.8615C115.44 27.425 115.923 27.831 116.474 27.831L116.477 27.8286Z" fill="#373737"/>
<path d="M77.9135 94.1142C78.3545 94.1142 78.7734 93.8534 78.9557 93.4203C79.1947 92.8469 78.9237 92.1874 78.3472 91.9487C72.6459 89.579 69.6992 85.8583 69.0709 80.2404C68.6521 76.1728 70.0712 72.6219 72.7765 70.983C75.3536 69.4204 78.7241 69.8461 82.2646 72.1814C82.7845 72.5234 83.4842 72.3807 83.8267 71.8615C84.1691 71.3423 84.0262 70.6434 83.5064 70.3014C77.6942 66.47 73.5575 67.8775 71.6062 69.0587C68.1495 71.1528 66.3164 75.528 66.8264 80.4816C67.5458 86.9214 71.0321 91.3483 77.4799 94.0281C77.6228 94.0871 77.7682 94.1142 77.9111 94.1142H77.9135Z" fill="#373737"/>
<path d="M76.9505 82.844C77.0663 82.844 77.1821 82.8268 77.2979 82.7899C77.8892 82.5979 78.2144 81.963 78.0222 81.37C77.9927 81.274 77.2412 79.015 75.3047 77.3614C74.8291 76.9578 74.1196 77.012 73.7155 77.4845C73.3114 77.9569 73.3656 78.6681 73.8387 79.0716C75.2751 80.2996 75.8738 82.0492 75.8787 82.0664C76.0339 82.5413 76.475 82.844 76.9505 82.844Z" fill="#373737"/>
<path d="M196.845 354.773C196.869 354.773 196.892 354.773 196.916 354.773C196.973 354.768 197.069 354.761 197.202 354.732C199.543 354.343 225.146 350.105 240.74 347.957C251.768 346.439 263.446 342.393 275.45 335.939C279.16 333.943 283.613 330.195 285.438 318.652C286.872 309.574 279.54 294.303 263.638 273.263C258.083 265.913 249.109 252.994 240.432 240.5C231.444 227.562 222.956 215.342 219.31 210.828C214.922 205.393 210.957 199.46 207.126 193.724C205.369 191.093 203.551 188.372 201.713 185.729C196.044 177.579 187.78 174.353 179.034 170.935C178.051 170.551 177.06 170.164 176.072 169.768C170.462 167.526 153.329 160.462 153.157 160.39C152.582 160.154 151.922 160.427 151.686 161C151.449 161.576 151.723 162.233 152.297 162.47C152.469 162.541 169.615 169.611 175.237 171.857C176.233 172.256 177.225 172.642 178.216 173.029C186.635 176.316 194.585 179.422 199.865 187.008C201.691 189.634 203.504 192.346 205.256 194.969C209.117 200.747 213.108 206.721 217.56 212.238C221.155 216.69 229.621 228.878 238.584 241.782C247.274 254.293 256.262 267.229 261.845 274.616C277.143 294.861 284.534 309.968 283.216 318.297C281.545 328.864 277.638 332.206 274.423 333.936C262.621 340.282 251.199 344.244 240.437 345.725C227.709 347.48 208.333 350.62 200.326 351.934C201.447 349.854 202.374 346.249 202.24 340.006C201.942 326.022 188.933 309.237 185.467 305.509C183.727 303.639 182.111 302.782 180.67 302.96C179.246 303.137 178.61 304.227 178.541 304.35C178.243 304.896 178.443 305.58 178.987 305.878C179.534 306.176 180.219 305.976 180.517 305.433C180.527 305.423 180.672 305.219 180.973 305.191C181.278 305.162 182.185 305.287 183.814 307.039C186.955 310.418 199.705 326.91 199.986 340.053C200.225 351.25 197.057 352.433 196.749 352.522C196.702 352.529 196.677 352.534 196.67 352.534C196.078 352.633 195.667 353.176 195.736 353.772C195.803 354.343 196.285 354.771 196.855 354.771L196.845 354.773Z" fill="#373737"/>
<path d="M137.277 152.302C137.641 152.302 138.001 152.124 138.215 151.8C138.56 151.283 138.42 150.584 137.9 150.239C136.764 149.486 136.129 148.153 136.015 146.275C135.606 139.683 138.649 126.53 138.679 126.4C138.819 125.794 138.442 125.189 137.836 125.049C137.232 124.911 136.624 125.285 136.483 125.89C136.355 126.444 133.335 139.496 133.763 146.418C133.923 148.999 134.921 150.97 136.651 152.117C136.843 152.245 137.06 152.306 137.274 152.306L137.277 152.302Z" fill="#373737"/>
<path d="M166.202 155.924C166.493 155.924 166.784 155.81 167.003 155.589C167.442 155.146 167.437 154.435 166.993 153.997C166.924 153.925 165.099 151.989 165.587 147.838C165.69 146.957 165.833 145.859 165.998 144.589C166.717 139.04 167.92 129.751 168.166 120.735C168.469 109.674 164.966 99.8329 164.818 99.4195C164.606 98.8338 163.963 98.5311 163.374 98.7428C162.788 98.9544 162.485 99.5991 162.696 100.182C162.731 100.281 166.202 110.052 165.914 120.673C165.67 129.576 164.478 138.794 163.763 144.299C163.598 145.579 163.455 146.683 163.349 147.574C162.724 152.882 165.301 155.49 165.412 155.599C165.631 155.815 165.917 155.924 166.202 155.924Z" fill="#373737"/>
<path d="M155.201 163.897C155.554 163.897 155.899 163.734 156.12 163.427C159.306 158.973 160.353 153.392 161.011 148.02C161.092 147.36 161.169 146.696 161.247 146.034C161.765 141.59 162.297 136.995 164.083 132.945C164.335 132.377 164.076 131.712 163.507 131.461C162.938 131.21 162.272 131.469 162.021 132.037C160.097 136.398 159.545 141.164 159.008 145.773C158.931 146.433 158.855 147.092 158.774 147.747C158.153 152.821 157.18 158.074 154.287 162.117C153.925 162.624 154.043 163.326 154.548 163.687C154.748 163.83 154.977 163.897 155.204 163.897H155.201Z" fill="#373737"/>
<path d="M63.3156 130.366C63.5546 130.366 63.7985 130.29 64.003 130.132C67.8194 127.197 70.1305 122.017 70.5148 115.547C70.675 112.858 70.537 110.151 70.404 107.535C70.2783 105.067 70.1502 102.513 70.2759 100.035C70.468 96.3042 71.5004 93.8115 73.3433 92.6254C73.8656 92.2883 74.0184 91.5919 73.6808 91.0677C73.3433 90.5436 72.6436 90.3959 72.1237 90.7306C69.6353 92.3326 68.2555 95.4233 68.0264 99.9167C67.8934 102.51 68.0264 105.121 68.1521 107.648C68.2826 110.205 68.4157 112.848 68.2654 115.415C68.0658 118.778 67.068 124.933 62.6282 128.348C62.1354 128.727 62.0418 129.436 62.4237 129.928C62.6454 130.216 62.9805 130.366 63.3181 130.366H63.3156Z" fill="#373737"/>
<path d="M181.084 305.191C181.16 305.191 181.237 305.184 181.313 305.169C181.508 305.13 200.898 301.116 213.517 298.874C226.159 296.63 257.24 290.705 257.553 290.645C258.164 290.53 258.566 289.939 258.45 289.329C258.331 288.719 257.743 288.32 257.132 288.433C256.819 288.492 225.75 294.415 213.123 296.657C200.474 298.904 181.049 302.922 180.857 302.964C180.249 303.09 179.857 303.685 179.982 304.295C180.093 304.827 180.561 305.194 181.084 305.194V305.191Z" fill="#373737"/>
<path d="M95.7885 363.041C98.7869 363.041 100.448 360.509 101.948 353.897C102.133 353.085 102.34 351.769 102.579 350.243C103.012 347.489 104.025 341.042 104.939 340.218C105.806 339.568 109.334 337.848 114.144 335.732C114.4 335.619 114.686 335.601 114.954 335.683C115.861 335.961 117.443 336.507 119.273 337.142C125.854 339.421 135.796 342.871 139.777 342.789C143.751 342.716 152.899 340.85 155.61 340.282C159.737 339.418 185.508 342.932 195.208 344.256C199 344.773 199.554 344.844 199.771 344.844C200.394 344.844 200.897 344.34 200.897 343.72C200.897 343.099 200.411 342.612 199.803 342.595C199.522 342.573 197.662 342.319 195.511 342.027C177.779 339.608 159.118 337.245 155.142 338.079C149.66 339.234 142.731 340.484 139.733 340.54C136.151 340.644 126.049 337.107 120.01 335.016C118.081 334.349 116.558 333.822 115.612 333.532C114.829 333.293 113.984 333.342 113.232 333.672C110.234 334.991 104.991 337.363 103.577 338.422C102.204 339.45 101.443 342.939 100.349 349.894C100.115 351.377 99.9129 352.662 99.7453 353.398C97.9985 361.093 96.5005 360.906 95.3056 360.755C95.2982 360.755 94.6379 360.482 94.3348 357.389C94.0811 354.803 94.1771 351.277 94.3028 348.166C94.3915 345.983 94.3176 343.756 94.2461 341.601C94.1254 337.964 93.9751 333.438 95.143 332.789C97.6511 331.396 114.807 322.685 114.982 322.596C115.536 322.316 115.758 321.637 115.474 321.083C115.193 320.529 114.513 320.305 113.959 320.591C113.252 320.95 96.5917 329.41 94.0466 330.823C91.6739 332.139 91.8143 336.35 91.9917 341.677C92.0607 343.791 92.1346 345.979 92.0484 348.078C91.6567 357.675 92.009 362.616 95.0222 362.992C95.2859 363.024 95.5372 363.041 95.7811 363.041H95.7885Z" fill="#373737"/>
<path d="M196.132 354.896C196.881 354.896 197.627 354.788 198.342 354.569C198.936 354.387 199.271 353.757 199.088 353.162C198.906 352.566 198.275 352.234 197.679 352.416C196.44 352.795 195.055 352.701 193.88 352.158C193.316 351.897 192.646 352.14 192.382 352.706C192.121 353.27 192.365 353.939 192.931 354.2C193.927 354.663 195.031 354.896 196.132 354.896Z" fill="#373737"/>
<path d="M179.388 248.5C181.388 243.833 185.088 231.6 183.888 220L150.388 199.5" stroke="#373737" stroke-width="2.3"/>
<path d="M171.888 212L175.888 191C169.221 181.833 151.788 159.2 135.388 142" stroke="#373737" stroke-width="2.3"/>
</g>
<defs>
<clipPath id="clip0_848_2792">
<rect width="285.225" height="400" fill="white" transform="translate(0.387695)"/>
</clipPath>
</defs>
</svg>
