<svg width="25" height="25" viewBox="0 0 25 25" fill="none" xmlns="http://www.w3.org/2000/svg">
<path d="M17.6123 16.5C16.779 16.5 16.0706 16.2083 15.4873 15.625C14.904 15.0417 14.6123 14.3333 14.6123 13.5C14.6123 12.6667 14.904 11.9583 15.4873 11.375C16.0706 10.7917 16.779 10.5 17.6123 10.5C18.4456 10.5 19.154 10.7917 19.7373 11.375C20.3206 11.9583 20.6123 12.6667 20.6123 13.5C20.6123 14.3333 20.3206 15.0417 19.7373 15.625C19.154 16.2083 18.4456 16.5 17.6123 16.5ZM9.6123 20.6V21.5H5.6123C5.0623 21.5 4.59147 21.3042 4.1998 20.9125C3.80814 20.5208 3.6123 20.05 3.6123 19.5V5.5C3.6123 4.95 3.80814 4.47917 4.1998 4.0875C4.59147 3.69583 5.0623 3.5 5.6123 3.5H19.6123C20.1623 3.5 20.6331 3.69583 21.0248 4.0875C21.4165 4.47917 21.6123 4.95 21.6123 5.5V10.5C21.0956 9.85 20.5123 9.35417 19.8623 9.0125C19.2123 8.67083 18.4623 8.5 17.6123 8.5C17.6123 8.21667 17.5165 7.97917 17.3248 7.7875C17.1331 7.59583 16.8956 7.5 16.6123 7.5H8.6123C8.32897 7.5 8.09147 7.59583 7.8998 7.7875C7.70814 7.97917 7.6123 8.21667 7.6123 8.5C7.6123 8.78333 7.70814 9.02083 7.8998 9.2125C8.09147 9.40417 8.32897 9.5 8.6123 9.5H14.6123C14.279 9.76667 13.979 10.0667 13.7123 10.4C13.4456 10.7333 13.2206 11.1 13.0373 11.5H8.6123C8.32897 11.5 8.09147 11.5958 7.8998 11.7875C7.70814 11.9792 7.6123 12.2167 7.6123 12.5C7.6123 12.7833 7.70814 13.0208 7.8998 13.2125C8.09147 13.4042 8.32897 13.5 8.6123 13.5H12.6123C12.6123 13.85 12.6498 14.1917 12.7248 14.525C12.7998 14.8583 12.904 15.1833 13.0373 15.5H8.6123C8.32897 15.5 8.09147 15.5958 7.8998 15.7875C7.70814 15.9792 7.6123 16.2167 7.6123 16.5C7.6123 16.7833 7.70814 17.0208 7.8998 17.2125C8.09147 17.4042 8.32897 17.5 8.6123 17.5H11.0623C10.6123 17.8833 10.2581 18.3458 9.9998 18.8875C9.74147 19.4292 9.6123 20 9.6123 20.6ZM12.6123 23.5C12.329 23.5 12.0915 23.4042 11.8998 23.2125C11.7081 23.0208 11.6123 22.7833 11.6123 22.5V20.6C11.6123 20.25 11.6956 19.9208 11.8623 19.6125C12.029 19.3042 12.2623 19.0583 12.5623 18.875C13.0956 18.5583 13.5456 18.3375 13.9123 18.2125C14.279 18.0875 14.7706 17.975 15.3873 17.875C15.5873 17.8417 15.7873 17.8458 15.9873 17.8875C16.1873 17.9292 16.354 18.025 16.4873 18.175L17.6123 19.5L18.7123 18.175C18.8456 18.0083 19.0123 17.9083 19.2123 17.875C19.4123 17.8417 19.6123 17.8417 19.8123 17.875C20.429 17.975 20.9206 18.0875 21.2873 18.2125C21.654 18.3375 22.104 18.5583 22.6373 18.875C22.9373 19.0583 23.1748 19.3042 23.3498 19.6125C23.5248 19.9208 23.6123 20.25 23.6123 20.6V22.5C23.6123 22.7833 23.5165 23.0208 23.3248 23.2125C23.1331 23.4042 22.8956 23.5 22.6123 23.5H12.6123Z" fill="#B5B5B5"/>
</svg>
