<svg width="792" height="793" viewBox="0 0 792 793" fill="none" xmlns="http://www.w3.org/2000/svg">
<g filter="url(#filter0_f_376_116)">
<ellipse cx="395.999" cy="396.74" rx="195.954" ry="195.879" fill="url(#paint0_linear_376_116)" fill-opacity="0.5"/>
</g>
<g opacity="0.2">
<path d="M540.007 521.062C539.568 521.062 539.214 520.708 539.214 520.269V304.11C539.214 303.672 539.568 303.318 540.007 303.318C540.446 303.318 540.8 303.672 540.8 304.11V520.269C540.8 520.708 540.446 521.062 540.007 521.062Z" fill="#495672"/>
<path d="M545.809 520.468C545.371 520.468 545.017 520.114 545.017 519.675L544.967 304.453C544.967 304.014 545.321 303.66 545.76 303.66C546.199 303.66 546.553 304.014 546.553 304.453L546.602 519.675C546.602 520.114 546.248 520.468 545.809 520.468Z" fill="#495672"/>
<path d="M686.661 304.698L670.379 304.684L540.103 304.561C539.665 304.561 539.311 304.207 539.311 303.765C539.311 303.327 539.665 302.973 540.103 302.973L686.658 303.11C687.097 303.11 687.451 303.464 687.451 303.903C687.451 304.341 687.097 304.695 686.658 304.695L686.661 304.698Z" fill="#495672"/>
<path d="M686.318 417.401L546.727 417.261C546.289 417.261 545.935 416.907 545.935 416.465C545.935 416.026 546.289 415.673 546.727 415.673L686.318 415.813C686.757 415.813 687.111 416.17 687.111 416.608C687.111 417.047 686.757 417.401 686.318 417.401Z" fill="#495672"/>
<path d="M686.491 421.834L672.137 421.823L547 421.697C546.561 421.697 546.207 421.343 546.207 420.901C546.207 420.463 546.561 420.109 547 420.109L686.489 420.249C686.927 420.249 687.281 420.603 687.281 421.042C687.281 421.48 686.927 421.834 686.489 421.834H686.491Z" fill="#495672"/>
<path d="M686.482 309.751L671.121 309.737L545.8 309.617C545.361 309.617 545.007 309.263 545.007 308.821C545.007 308.383 545.361 308.029 545.8 308.029L686.479 308.163C686.918 308.163 687.272 308.517 687.272 308.956C687.272 309.394 686.918 309.748 686.479 309.748L686.482 309.751Z" fill="#495672"/>
<path d="M686.746 497.322L546.034 497.182C545.595 497.182 545.241 496.828 545.241 496.386C545.241 495.948 545.595 495.594 546.034 495.594L686.746 495.734C687.185 495.734 687.539 496.088 687.539 496.53C687.539 496.968 687.185 497.322 686.746 497.322Z" fill="#495672"/>
<path d="M645.58 521.5C645.141 521.5 644.787 521.146 644.787 520.708L644.74 309.213C644.74 308.775 645.094 308.421 645.533 308.421C645.972 308.421 646.326 308.775 646.326 309.213L646.373 520.708C646.373 521.146 646.019 521.5 645.58 521.5Z" fill="#495672"/>
<path d="M215.287 260.114H135.793C135.354 260.114 135 259.76 135 259.322V154.792C135 154.354 135.354 154 135.793 154H215.285C215.723 154 216.077 154.354 216.077 154.792V259.322C216.077 259.76 215.723 260.114 215.285 260.114H215.287ZM136.586 258.529H214.492V155.585H136.586V258.529Z" fill="#495672"/>
<path d="M210.311 255.006H140.77C140.332 255.006 139.978 254.652 139.978 254.213V159.629C139.978 159.191 140.332 158.837 140.77 158.837H210.311C210.75 158.837 211.104 159.191 211.104 159.629V254.213C211.104 254.652 210.75 255.006 210.311 255.006ZM141.563 253.418H209.518V160.422H141.563V253.418Z" fill="#495672"/>
<path d="M319.608 237.427H265.735C265.296 237.427 264.942 237.073 264.942 236.635V165.797C264.942 165.358 265.296 165.004 265.735 165.004H319.608C320.047 165.004 320.401 165.358 320.401 165.797V236.635C320.401 237.073 320.047 237.427 319.608 237.427ZM266.528 235.839H318.813V166.589H266.528V235.839Z" fill="#495672"/>
<path d="M315.122 232.453H270.22C269.781 232.453 269.427 232.1 269.427 231.661V170.584C269.427 170.145 269.781 169.791 270.22 169.791H315.122C315.561 169.791 315.915 170.145 315.915 170.584V231.661C315.915 232.1 315.561 232.453 315.122 232.453ZM271.013 230.868H314.329V171.376H271.013V230.868Z" fill="#495672"/>
<path d="M192.087 226.879C192.032 226.879 191.976 226.874 191.918 226.862C191.517 226.774 191.248 226.397 191.3 225.988L194.13 203.57L190.949 213.363C190.832 213.723 190.487 213.951 190.098 213.904C189.72 213.858 189.428 213.55 189.401 213.173L188.878 205.912L180.507 205.839C180.068 205.836 179.717 205.479 179.72 205.044L179.749 197.473L171.288 226.183C171.171 226.581 170.767 226.824 170.36 226.733C169.953 226.646 169.684 226.26 169.743 225.847L172.982 202.956L168.953 214.053C168.821 214.419 168.455 214.632 168.058 214.562C167.677 214.489 167.402 214.153 167.411 213.764L167.601 205.617L159.031 205.494C158.818 205.494 158.613 205.4 158.464 205.245C158.317 205.088 158.238 204.88 158.25 204.664L158.572 197.894L149.853 225.944C149.73 226.338 149.332 226.569 148.926 226.485C148.525 226.397 148.256 226.02 148.305 225.61L151.255 202.035L146.5 214.323C146.365 214.673 146.003 214.896 145.625 214.817C145.251 214.752 144.976 214.434 144.967 214.056L144.727 205.295L141.333 205.354H141.318C140.885 205.354 140.534 205.009 140.526 204.576C140.517 204.137 140.868 203.777 141.304 203.769L145.482 203.696H145.497C145.927 203.696 146.278 204.038 146.289 204.468L146.444 210.068L152.103 195.443C152.246 195.072 152.644 194.867 153.036 194.961C153.425 195.06 153.68 195.432 153.63 195.829L150.991 216.931L158.903 191.481C159.023 191.101 159.403 190.87 159.798 190.934C160.19 191.004 160.471 191.355 160.453 191.753L159.871 203.921L168.423 204.044C168.634 204.044 168.836 204.134 168.985 204.286C169.131 204.438 169.21 204.643 169.204 204.854L169.108 208.956L174.082 195.253C174.219 194.873 174.623 194.648 175.021 194.756C175.416 194.855 175.671 195.233 175.615 195.636L172.83 215.317L179.796 191.671C179.907 191.294 180.273 191.054 180.671 191.109C181.063 191.165 181.352 191.504 181.35 191.896L181.303 204.257L189.615 204.33C190.03 204.33 190.37 204.655 190.399 205.067L190.683 209.006L195.2 195.084C195.326 194.695 195.721 194.461 196.128 194.554C196.526 194.642 196.792 195.022 196.742 195.429L193.969 217.416L202.012 191.838C202.132 191.454 202.521 191.221 202.916 191.297C203.311 191.37 203.589 191.729 203.562 192.13L202.769 204.134L210.157 204.055C210.561 204.052 210.953 204.4 210.959 204.839C210.965 205.278 210.614 205.634 210.175 205.64L201.93 205.728C201.763 205.772 201.5 205.64 201.345 205.479C201.192 205.319 201.113 205.102 201.128 204.883L201.541 198.634L192.833 226.327C192.728 226.663 192.415 226.882 192.076 226.882L192.087 226.879Z" fill="#495672"/>
<path d="M631.91 416.962H552.977C552.539 416.962 552.185 416.608 552.185 416.17V408.362C552.185 407.923 552.539 407.569 552.977 407.569H631.91C632.349 407.569 632.703 407.923 632.703 408.362V416.17C632.703 416.608 632.349 416.962 631.91 416.962ZM553.77 415.374H631.117V409.152H553.77V415.374Z" fill="#495672"/>
<path d="M625.943 408.154H557.339C556.9 408.154 556.546 407.8 556.546 407.362V399.554C556.546 399.115 556.9 398.761 557.339 398.761H625.943C626.382 398.761 626.736 399.115 626.736 399.554V407.362C626.736 407.8 626.382 408.154 625.943 408.154ZM558.129 406.569H625.148V400.346H558.129V406.569Z" fill="#495672"/>
<path d="M623.308 399.168H554.7C554.261 399.168 553.907 398.814 553.907 398.375V390.567C553.907 390.129 554.261 389.775 554.7 389.775H623.308C623.747 389.775 624.101 390.129 624.101 390.567V398.375C624.101 398.814 623.747 399.168 623.308 399.168ZM555.496 397.583H622.518V391.36H555.496V397.583Z" fill="#495672"/>
<path d="M629.213 390.813H560.605C560.167 390.813 559.812 390.459 559.812 390.021V382.213C559.812 381.774 560.167 381.42 560.605 381.42H629.213C629.652 381.42 630.006 381.774 630.006 382.213V390.021C630.006 390.459 629.652 390.813 629.213 390.813ZM561.401 389.228H628.423V383.005H561.401V389.228Z" fill="#495672"/>
<path d="M546.625 350.873C546.186 350.873 545.832 350.519 545.832 350.08C545.832 349.642 546.186 349.288 546.625 349.288L685.906 349.191L686.002 349.984V350.776L672.096 350.788L546.622 350.876L546.625 350.873Z" fill="#495672"/>
<path d="M545.981 354.604C545.542 354.604 545.188 354.25 545.188 353.812C545.188 353.373 545.542 353.019 545.981 353.019L686.213 352.923C686.652 352.923 687.021 353.277 687.021 353.715C687.021 354.154 686.678 354.508 686.239 354.508L672.122 354.517L545.981 354.604Z" fill="#495672"/>
<path d="M686.687 500.732L546.443 500.591C546.004 500.591 545.65 500.238 545.65 499.796C545.65 499.357 546.004 499.004 546.443 499.004L686.687 499.144C687.126 499.144 687.48 499.498 687.48 499.939C687.48 500.378 687.126 500.732 686.687 500.732Z" fill="#495672"/>
<path d="M557.021 496.691C556.863 496.691 556.708 496.644 556.576 496.556C556.401 496.439 556.281 496.258 556.243 496.05L545.3 439.617C545.259 439.409 545.303 439.196 545.423 439.02C545.54 438.845 545.721 438.725 545.929 438.687L565.327 434.929C565.76 434.842 566.173 435.125 566.258 435.558L577.2 491.988C577.285 492.418 577.001 492.836 576.571 492.918L557.173 496.676C557.123 496.688 557.074 496.691 557.021 496.691ZM547.009 440.094L557.65 494.968L575.489 491.512L564.848 436.637L547.009 440.094Z" fill="#495672"/>
<path d="M581.737 496.334C581.383 496.334 581.062 496.094 580.968 495.737L566.675 440.061C566.567 439.637 566.822 439.204 567.246 439.096L586.387 434.186C586.597 434.134 586.808 434.166 586.989 434.271C587.171 434.379 587.302 434.552 587.355 434.757L601.648 490.435C601.7 490.64 601.671 490.856 601.563 491.038C601.455 491.219 601.282 491.351 601.077 491.403L581.939 496.31C581.872 496.328 581.808 496.337 581.74 496.337L581.737 496.334ZM568.41 440.433L582.308 494.573L599.907 490.061L586.012 435.918L568.41 440.433Z" fill="#495672"/>
<path d="M602.979 496.237C602.839 496.237 602.698 496.199 602.575 496.126C602.394 496.018 602.262 495.845 602.21 495.641L587.917 439.962C587.864 439.757 587.894 439.541 588.002 439.36C588.11 439.178 588.283 439.047 588.488 438.997L607.625 434.09C608.064 433.985 608.483 434.239 608.591 434.66L622.884 490.336C622.992 490.76 622.737 491.193 622.313 491.301L603.175 496.208C603.108 496.226 603.044 496.231 602.976 496.231L602.979 496.237ZM589.652 440.339L603.55 494.48L621.149 489.968L607.251 435.827L589.652 440.339Z" fill="#495672"/>
<path d="M642.01 495.875H641.98L622.237 495.123C622.026 495.114 621.827 495.024 621.684 494.869C621.541 494.714 621.465 494.509 621.473 494.298L623.659 436.859C623.677 436.432 624.028 436.096 624.452 436.096H624.481L644.225 436.845C644.435 436.853 644.634 436.944 644.778 437.099C644.921 437.254 644.997 437.459 644.988 437.669L642.803 495.108C642.794 495.319 642.703 495.518 642.548 495.661C642.402 495.796 642.209 495.872 642.007 495.872L642.01 495.875ZM623.088 493.57L641.246 494.26L643.37 438.406L625.213 437.716L623.085 493.57H623.088Z" fill="#495672"/>
<path d="M558.062 477.428C557.904 477.428 557.749 477.381 557.618 477.293C557.442 477.176 557.322 476.995 557.284 476.788L551.833 448.682C551.792 448.474 551.836 448.261 551.953 448.085C552.07 447.91 552.252 447.79 552.459 447.752L562.121 445.881C562.554 445.79 562.966 446.076 563.051 446.509L568.502 474.615C568.587 475.045 568.303 475.463 567.873 475.545L558.212 477.416C558.162 477.428 558.112 477.431 558.06 477.431L558.062 477.428ZM553.539 449.156L558.689 475.706L566.79 474.135L561.641 447.585L553.536 449.156H553.539Z" fill="#495672"/>
<path d="M582.194 478.115C582.054 478.115 581.919 478.08 581.796 478.007C581.615 477.902 581.483 477.726 581.427 477.524L574.11 449.843C574.054 449.638 574.086 449.422 574.192 449.24C574.297 449.059 574.473 448.928 574.675 448.872L584.189 446.36C584.622 446.249 585.047 446.503 585.161 446.924L592.478 474.603C592.534 474.808 592.502 475.021 592.396 475.205C592.291 475.387 592.118 475.518 591.914 475.574L582.399 478.086C582.331 478.103 582.264 478.112 582.197 478.112L582.194 478.115ZM575.848 450.206L582.759 476.352L590.74 474.243L583.827 448.097L575.848 450.203V450.206Z" fill="#495672"/>
<path d="M603.741 478.867C603.387 478.867 603.068 478.63 602.974 478.276L595.657 450.598C595.601 450.393 595.633 450.176 595.739 449.995C595.844 449.814 596.02 449.682 596.221 449.627L605.736 447.115C606.166 447.004 606.596 447.258 606.708 447.679L614.025 475.358C614.081 475.562 614.048 475.779 613.943 475.96C613.838 476.141 613.662 476.273 613.46 476.328L603.946 478.84C603.878 478.858 603.811 478.867 603.744 478.867H603.741ZM597.395 450.957L604.306 477.103L612.287 474.995L605.376 448.849L597.395 450.957Z" fill="#495672"/>
<path d="M637.617 478.153H637.573L627.745 477.639C627.535 477.627 627.336 477.533 627.195 477.375C627.055 477.22 626.982 477.013 626.993 476.802L628.494 448.211C628.518 447.776 628.922 447.486 629.328 447.46L639.156 447.974C639.367 447.986 639.566 448.08 639.706 448.238C639.847 448.393 639.92 448.6 639.908 448.811L638.404 477.402C638.381 477.826 638.03 478.153 637.611 478.153H637.617ZM628.623 476.094L636.865 476.524L638.284 449.518L630.042 449.089L628.626 476.094H628.623Z" fill="#495672"/>
<path d="M564.829 486.97C563.243 486.97 561.953 485.727 561.953 484.201C561.953 482.674 563.243 481.434 564.829 481.434C566.415 481.434 567.705 482.674 567.705 484.201C567.705 485.727 566.415 486.97 564.829 486.97ZM564.829 483.019C564.118 483.019 563.539 483.549 563.539 484.201C563.539 484.853 564.118 485.385 564.829 485.385C565.54 485.385 566.119 484.853 566.119 484.201C566.119 483.549 565.54 483.019 564.829 483.019Z" fill="#495672"/>
<path d="M588.348 486.9C586.762 486.9 585.472 485.657 585.472 484.131C585.472 482.604 586.762 481.361 588.348 481.361C589.934 481.361 591.224 482.604 591.224 484.131C591.224 485.657 589.934 486.9 588.348 486.9ZM588.348 482.946C587.637 482.946 587.057 483.479 587.057 484.131C587.057 484.783 587.637 485.315 588.348 485.315C589.059 485.315 589.638 484.783 589.638 484.131C589.638 483.479 589.059 482.946 588.348 482.946Z" fill="#495672"/>
<path d="M610.523 487.324C608.937 487.324 607.646 486.081 607.646 484.554C607.646 483.028 608.937 481.785 610.523 481.785C612.108 481.785 613.399 483.028 613.399 484.554C613.399 486.081 612.108 487.324 610.523 487.324ZM610.523 483.37C609.812 483.37 609.232 483.902 609.232 484.552C609.232 485.201 609.812 485.736 610.523 485.736C611.234 485.736 611.813 485.204 611.813 484.552C611.813 483.899 611.234 483.37 610.523 483.37Z" fill="#495672"/>
<path d="M632.381 488.204C630.795 488.204 629.505 486.961 629.505 485.435C629.505 483.908 630.795 482.665 632.381 482.665C633.967 482.665 635.257 483.908 635.257 485.435C635.257 486.961 633.967 488.204 632.381 488.204ZM632.381 484.25C631.67 484.25 631.094 484.782 631.094 485.435C631.094 486.087 631.67 486.619 632.381 486.619C633.092 486.619 633.671 486.087 633.671 485.435C633.671 484.782 633.092 484.25 632.381 484.25Z" fill="#495672"/>
<path d="M564.51 350.183H559.247C555.856 350.183 553.097 347.425 553.097 344.036V321.793C553.097 318.401 555.856 315.644 559.247 315.644H564.51C567.901 315.644 570.66 318.401 570.66 321.793V344.036C570.66 347.425 567.901 350.183 564.51 350.183ZM559.247 317.229C556.731 317.229 554.682 319.276 554.682 321.791V344.033C554.682 346.548 556.731 348.595 559.247 348.595H564.51C567.027 348.595 569.075 346.548 569.075 344.033V321.791C569.075 319.276 567.027 317.229 564.51 317.229H559.247Z" fill="#495672"/>
<path d="M585.323 350.242H580.888C577.962 350.242 575.58 347.864 575.58 344.94V326.201C575.58 323.277 577.962 320.896 580.888 320.896H585.323C588.249 320.896 590.631 323.277 590.631 326.201V344.94C590.631 347.864 588.249 350.242 585.323 350.242ZM580.888 322.478C578.837 322.478 577.166 324.148 577.166 326.198V344.937C577.166 346.987 578.837 348.654 580.888 348.654H585.323C587.374 348.654 589.045 346.987 589.045 344.937V326.198C589.045 324.148 587.374 322.478 585.323 322.478H580.888Z" fill="#495672"/>
<path d="M565.704 316.822H558.519C557.316 316.822 556.339 315.846 556.339 314.647C556.339 313.448 557.316 312.468 558.519 312.468H565.704C566.907 312.468 567.881 313.445 567.881 314.647C567.881 315.848 566.904 316.822 565.704 316.822ZM558.522 314.053C558.194 314.053 557.928 314.319 557.928 314.647C557.928 314.974 558.194 315.237 558.522 315.237H565.707C566.032 315.237 566.298 314.971 566.298 314.647C566.298 314.322 566.032 314.053 565.707 314.053H558.522Z" fill="#495672"/>
<path d="M584.72 322.057H581.949C580.167 322.057 578.716 320.609 578.716 318.828C578.716 317.048 580.164 315.6 581.949 315.6H584.72C586.501 315.6 587.95 317.048 587.95 318.828C587.95 320.609 586.501 322.057 584.72 322.057ZM581.949 317.185C581.042 317.185 580.302 317.922 580.302 318.828C580.302 319.735 581.042 320.472 581.949 320.472H584.72C585.627 320.472 586.364 319.735 586.364 318.828C586.364 317.922 585.627 317.185 584.72 317.185H581.949Z" fill="#495672"/>
<path d="M686.055 416.69H656.662C656.223 416.69 655.869 416.336 655.869 415.898V404.864C655.869 404.426 656.223 404.072 656.662 404.072H686.055C686.494 404.072 686.848 404.426 686.848 404.864C686.848 405.303 686.494 405.657 686.055 405.657H657.455V415.102H686.055C686.494 415.102 686.848 415.456 686.848 415.895C686.848 416.333 686.494 416.687 686.055 416.687V416.69Z" fill="#495672"/>
<path d="M686.506 409.254H686.503L657.452 409.108C657.013 409.108 656.659 408.748 656.662 408.312C656.662 407.876 657.019 407.523 657.455 407.523H657.458L686.508 407.669C686.947 407.669 687.301 408.028 687.298 408.464C687.298 408.9 686.941 409.254 686.506 409.254Z" fill="#495672"/>
<path d="M686.322 413.207H686.319L656.54 413.058C656.101 413.058 655.747 412.699 655.75 412.263C655.75 411.827 656.107 411.473 656.543 411.473H656.546L686.325 411.622C686.764 411.622 687.118 411.982 687.115 412.418C687.115 412.854 686.758 413.207 686.322 413.207Z" fill="#495672"/>
<path d="M685.683 349.999H659.099C658.66 349.999 658.306 349.645 658.306 349.206V330.321C658.306 329.882 658.66 329.528 659.099 329.528H686.095C686.534 329.528 686.888 329.882 686.888 330.321C686.888 330.76 686.534 331.113 686.095 331.113H659.891V348.414H685.68C686.119 348.414 686.473 348.767 686.473 349.206C686.473 349.645 686.119 349.999 685.68 349.999H685.683Z" fill="#495672"/>
<path d="M685.564 337.579L660.144 337.547C659.706 337.547 659.352 337.193 659.352 336.752C659.352 336.313 659.706 335.959 660.144 335.959L685.564 335.991C686.003 335.991 686.357 336.345 686.357 336.787C686.357 337.225 686.003 337.579 685.564 337.579Z" fill="#495672"/>
<path d="M686.564 496.489H686.552L674.732 496.339C669.738 496.339 665.665 492.269 665.665 487.268V452.627C665.665 447.623 669.738 443.556 674.741 443.556L686.626 443.643C687.065 443.643 687.419 444.003 687.413 444.442C687.413 444.877 687.056 445.228 686.62 445.228H686.614L674.732 445.141C670.607 445.141 667.248 448.501 667.248 452.627V487.268C667.248 491.397 670.61 494.754 674.738 494.754L686.567 494.904C687.006 494.909 687.357 495.269 687.351 495.708C687.345 496.141 686.991 496.491 686.558 496.491L686.564 496.489Z" fill="#495672"/>
<path d="M686.261 462.704L667.822 462.66C667.383 462.66 667.029 462.303 667.029 461.865C667.029 461.426 667.383 461.072 667.822 461.072L686.261 461.116C686.7 461.116 687.054 461.473 687.054 461.912C687.054 462.35 686.7 462.704 686.261 462.704Z" fill="#495672"/>
<path d="M686.14 481.984L666.701 481.94C666.262 481.94 665.908 481.583 665.908 481.145C665.908 480.706 666.262 480.352 666.701 480.352L686.14 480.396C686.579 480.396 686.933 480.753 686.933 481.192C686.933 481.63 686.579 481.984 686.14 481.984Z" fill="#495672"/>
<path d="M686.565 444.74H678.346C675.813 444.74 673.75 442.681 673.75 440.149C673.75 437.617 675.81 435.555 678.346 435.555H686.261C686.7 435.555 687.054 435.909 687.054 436.347C687.054 436.786 686.7 437.14 686.261 437.14H678.346C676.688 437.14 675.339 438.488 675.339 440.146C675.339 441.804 676.688 443.152 678.346 443.152H686.565C687.004 443.152 687.358 443.506 687.358 443.945C687.358 444.383 687.004 444.737 686.565 444.737V444.74Z" fill="#495672"/>
</g>
<g clip-path="url(#clip0_376_116)">
<path d="M473.719 567.03C473.633 562.96 472.406 558.602 470.639 554.394C469.695 552.145 468.599 549.938 467.439 547.844C467.219 547.448 466.995 547.054 466.771 546.668C466.699 546.544 466.628 546.421 466.557 546.301C466.401 546.035 466.249 545.774 466.093 545.513C466.01 545.373 465.926 545.235 465.842 545.098C465.694 544.856 465.549 544.615 465.401 544.379C465.317 544.241 465.233 544.106 465.147 543.971C464.995 543.724 464.842 543.486 464.687 543.245C464.613 543.126 464.536 543.008 464.46 542.89C464.263 542.585 464.066 542.285 463.869 541.987C463.839 541.943 463.809 541.896 463.78 541.852C463.558 541.517 463.336 541.19 463.117 540.87C463.033 540.747 462.952 540.631 462.868 540.511C462.73 540.314 462.595 540.114 462.459 539.923C462.361 539.782 462.265 539.644 462.166 539.509C462.05 539.347 461.934 539.184 461.821 539.027C461.715 538.882 461.612 538.736 461.508 538.596C461.407 538.458 461.309 538.323 461.21 538.188C461.099 538.038 460.988 537.887 460.88 537.742C460.809 537.646 460.74 537.555 460.668 537.462C460.2 536.842 459.754 536.268 459.338 535.747C459.318 535.722 459.298 535.697 459.281 535.675C459.136 535.493 458.993 535.318 458.855 535.149C458.837 535.129 458.823 535.109 458.805 535.09C458.663 534.915 458.522 534.748 458.389 534.588C457.95 534.066 457.559 533.621 457.238 533.276C457.017 533.04 456.805 532.828 456.603 532.636C455.696 532.23 454.679 532.107 453.609 532.159C450.973 532.287 448.029 533.436 445.7 533.849C443.476 534.246 441.246 534.61 439.011 534.957C444.392 533.844 449.278 532.631 452.126 531.896L452.087 531.679L436.986 534.374C433.884 510.096 439.854 484.696 432.477 461.353C431.45 458.105 430.174 454.938 429.122 451.697C427.468 446.615 426.372 441.374 425.278 436.145C421.602 418.585 417.928 401.025 414.252 383.465C413.875 381.666 413.499 379.867 413.124 378.068L425.332 388.433C425.332 388.433 442.579 395.547 448.26 397.816C457.817 401.635 467.286 404.59 473.394 413.37C479.238 421.774 484.599 430.559 491.039 438.534C498.14 447.329 523.985 485.906 535.346 500.942C546.707 515.977 558.636 534.698 556.931 545.476C555.226 556.257 551.252 559.943 547.559 561.929C543.866 563.915 529.667 571.573 513.194 573.844C497.327 576.029 471.462 580.318 469.575 580.631C470.22 580.488 473.29 579.332 473.684 570.217C473.726 569.247 473.739 568.192 473.714 567.033L473.719 567.03Z" fill="white"/>
<path d="M328.586 557.387C332.846 552.849 337.675 544.054 339.661 542.637C340.838 541.795 350.898 537.937 358.896 534.932L351.418 526.467C351.418 526.467 340.797 519.092 335.968 515.121C331.138 511.149 330.288 508.029 331.708 506.611C333.127 505.194 351.019 516.255 353.862 517.958C356.703 519.661 374.595 530.488 374.595 530.488C376.197 530.488 377.983 530.66 379.707 531.207C384.82 532.823 401.86 538.382 406.689 538.665C407.457 538.71 408.27 538.732 409.128 538.732C410.542 538.638 411.954 538.505 413.365 538.345C413.531 538.328 413.696 538.306 413.861 538.286C414.703 538.188 415.548 538.089 416.391 537.986C416.751 537.942 417.11 537.897 417.473 537.853L436.991 534.371L452.092 531.677L452.131 531.893C449.283 532.629 444.397 533.842 439.016 534.954C441.251 534.607 443.481 534.243 445.705 533.847C448.034 533.434 450.978 532.284 453.614 532.156C454.683 532.105 455.701 532.228 456.608 532.634C456.812 532.826 457.024 533.037 457.243 533.274C457.564 533.618 457.955 534.064 458.392 534.585C458.527 534.745 458.665 534.913 458.808 535.087C458.825 535.107 458.84 535.127 458.857 535.146C458.995 535.316 459.136 535.488 459.283 535.673C459.303 535.698 459.323 535.722 459.34 535.744C459.756 536.266 460.202 536.839 460.671 537.459C460.742 537.553 460.811 537.644 460.882 537.74C460.991 537.885 461.102 538.035 461.213 538.185C461.311 538.318 461.412 538.454 461.511 538.594C461.614 538.737 461.718 538.879 461.824 539.024C461.937 539.182 462.053 539.344 462.169 539.507C462.267 539.645 462.363 539.78 462.462 539.92C462.597 540.112 462.733 540.311 462.871 540.508C462.952 540.629 463.036 540.745 463.12 540.868C463.339 541.188 463.561 541.515 463.782 541.849C463.812 541.894 463.841 541.941 463.871 541.985C464.068 542.28 464.265 542.58 464.462 542.888C464.539 543.004 464.613 543.124 464.689 543.242C464.842 543.483 464.997 543.725 465.15 543.968C465.234 544.104 465.317 544.239 465.403 544.377C465.551 544.613 465.697 544.854 465.845 545.095C465.928 545.233 466.012 545.371 466.096 545.511C466.251 545.769 466.406 546.033 466.559 546.299C466.63 546.422 466.702 546.542 466.773 546.665C466.998 547.054 467.219 547.445 467.441 547.841C468.574 549.995 469.656 552.175 470.642 554.392C472.406 558.6 473.633 562.958 473.721 567.028C473.746 568.185 473.734 569.243 473.692 570.212C473.544 570.353 473.381 570.48 473.192 570.589C472.327 571.076 471.265 570.995 470.277 570.899C466.542 570.537 464.305 570.17 461.676 569.654C460.185 569.361 458.569 569.019 456.482 568.603C448.221 567.537 438.669 566.408 432.822 566.108C431.314 566.125 429.804 566.142 428.296 566.127C428.185 566.142 428.084 566.159 427.993 566.179C422.597 567.313 415.497 569.161 412.373 568.662C409.606 568.221 391.916 562.832 387.9 561.604C387.372 561.442 386.808 561.477 386.306 561.7C384.16 562.645 378.259 565.283 376.872 566.322C375.167 567.599 374.317 577.809 373.464 580.646C372.612 583.483 370.057 589.155 367.785 588.872C365.513 588.589 365.513 582.073 365.797 575.119C366.043 569.066 365.001 562.266 366.413 559.67C366.258 559.619 366.102 559.565 365.947 559.51L365.651 560.222L360.293 561.572C359.43 561.789 358.75 562.441 358.501 563.295C357.188 567.818 352.983 582.066 351.59 583.766C349.036 586.886 346.761 585.469 345.059 584.901C343.354 584.335 347.047 572.137 348.183 566.745C349.319 561.356 351.307 554.547 352.726 552.278C353.246 551.449 356.114 549.864 359.546 548.186L357.27 548.592L347.533 550.957C347.028 551.08 346.577 551.343 346.224 551.722C343.618 554.532 332.328 566.693 330.572 568.448C327.448 571.568 321.483 571.285 320.63 568.736C319.778 566.189 324.324 561.922 328.583 557.384L328.586 557.387Z" fill="#FFDDC0"/>
<path d="M429.126 451.692C430.181 454.933 431.457 458.1 432.482 461.348C439.861 484.691 433.889 510.093 436.991 534.369L417.473 537.85C417.113 537.895 416.751 537.939 416.391 537.983C415.548 538.087 414.703 538.185 413.861 538.284C412.648 521.728 413.06 507.467 411.091 488.8C410.754 485.586 409.359 481.649 408.573 478.517C407.925 475.928 406.923 473.442 405.851 470.999C400.564 458.939 393.527 447.725 386.108 436.843C377.15 423.705 367.6 410.983 358.053 398.266C353.741 392.523 350.147 386.112 345.835 380.369C345.369 380.723 344.837 381.102 344.271 381.496C345.5 378.814 347.124 376.35 349.279 374.244C350.91 372.652 352.746 371.38 354.715 370.346C354.229 371.252 353.68 371.956 353.049 372.371C352.62 372.645 352.174 372.905 351.726 373.166C353.049 374.953 354.626 376.557 356.296 378.019C358.883 380.285 361.734 382.246 364.683 384.016C367.383 385.637 370.182 387.102 373.045 388.418C376.384 389.951 379.964 390.876 382.982 393.059C383.773 393.63 384.549 394.262 385.199 394.991C385.736 395.594 386.192 396.27 386.645 396.937C386.976 397.422 387.313 397.961 387.683 398.48L393.345 405.055C393.677 403.749 395.377 396.876 395.907 395.638C396.73 393.711 398.082 392.264 399.8 391.09C400.753 390.438 401.778 389.897 402.714 389.228C403.749 388.487 404.722 387.665 405.622 386.764C407.334 385.047 408.783 383.027 409.685 380.765C410.254 379.338 410.574 377.842 410.668 376.331C412.183 378.42 413.301 380.908 414.26 383.457C417.936 401.017 421.609 418.577 425.285 436.137C426.379 441.366 427.478 446.608 429.129 451.689L429.126 451.692Z" fill="#FFC0B7"/>
<path d="M284.331 416.425C288.068 412.391 292.629 409.173 297.345 406.387C305.015 401.854 334.551 389.927 334.551 389.927L335.354 391.064C335.561 389.848 335.728 388.714 336.657 387.547C338.328 385.456 341.683 383.293 344.273 381.494C344.839 381.1 345.369 380.724 345.837 380.367C350.149 386.11 353.744 392.521 358.055 398.264C367.603 410.981 377.155 423.703 386.111 436.842C393.532 447.723 400.568 458.934 405.853 470.997C406.925 473.44 407.925 475.926 408.576 478.515C409.362 481.65 410.754 485.587 411.094 488.798C413.06 507.468 412.651 521.726 413.863 538.282C413.902 538.84 413.942 539.394 413.986 539.955C413.592 539.419 413.176 538.907 412.752 538.405C411.547 538.535 410.34 538.648 409.13 538.727C408.273 538.727 407.462 538.705 406.691 538.661C401.862 538.378 384.822 532.819 379.71 531.202C377.983 530.656 376.199 530.484 374.583 530.488C374.595 530.486 356.703 519.656 353.864 517.953C351.024 516.25 333.131 505.189 331.71 506.607C330.291 508.024 331.141 511.144 335.97 515.116C340.799 519.088 351.42 526.463 351.42 526.463L358.898 534.928C350.9 537.932 340.843 541.791 339.663 542.632C337.675 544.05 332.848 552.844 328.588 557.382C324.328 561.922 319.783 566.187 320.635 568.734C321.488 571.281 327.45 571.566 330.576 568.446C332.333 566.691 343.622 554.53 346.229 551.72C346.581 551.341 347.035 551.075 347.537 550.955L357.274 548.59L359.551 548.184C356.119 549.862 353.248 551.449 352.731 552.276C351.312 554.545 349.324 561.354 348.188 566.743C347.052 572.132 343.359 584.33 345.064 584.898C346.769 585.467 349.04 586.884 351.595 583.764C352.987 582.064 357.193 567.813 358.506 563.293C358.753 562.439 359.435 561.787 360.297 561.57L365.656 560.219L365.952 559.508C366.107 559.562 366.26 559.617 366.417 559.668C365.006 562.264 366.048 569.063 365.802 575.117C365.516 582.071 365.516 588.587 367.79 588.87C370.061 589.153 372.619 583.481 373.469 580.644C374.321 577.807 375.174 567.594 376.876 566.32C378.263 565.281 384.167 562.643 386.31 561.698C386.815 561.477 387.377 561.442 387.904 561.602C391.92 562.833 409.61 568.219 412.377 568.66C415.501 569.159 422.602 567.311 427.998 566.177C428.089 566.157 428.192 566.14 428.301 566.125C429.809 566.14 431.317 566.12 432.827 566.106C438.673 566.406 448.223 567.535 456.482 568.601C458.574 569.019 460.19 569.359 461.68 569.652L462.365 570.621C462.365 570.621 465.342 576.352 467.594 585.531L479.247 584.047C479.247 584.047 478.838 604.754 479.122 613.832C479.272 618.655 479.262 623.505 479.22 626.995H437.86C437.89 625.043 438.033 623.097 438.09 621.146C438.154 618.855 438.168 616.564 438.171 614.273C438.171 612.292 438.09 610.338 437.947 608.362C437.819 606.605 437.646 604.764 438.013 603.024C438.021 602.99 438.021 602.956 438.016 602.919C438.016 602.896 438.008 602.879 438.003 602.857C430.129 603.49 420.818 604.188 410.172 604.907C410.116 605.138 410.303 605.448 410.618 605.402C410.746 607.346 410.768 609.297 410.727 611.246C410.638 615.414 410.303 619.573 409.963 623.729C409.874 624.817 409.775 625.907 409.684 626.997H320.231C320.273 626.042 320.364 624.967 320.532 623.764C321.281 618.375 323.077 603.93 323.077 603.93L323.301 603.9C322.542 603.677 321.823 603.448 321.14 603.209C310.632 599.523 300.471 591.899 296.495 579.133C292.518 566.369 288.827 545.945 285.987 529.209C283.146 512.473 275.195 463.964 274.343 452.903C273.382 440.442 275.518 425.94 284.333 416.427L284.331 416.425Z" fill="white"/>
<path d="M437.107 627H410.448C410.737 623.548 411.027 620.098 411.242 616.64C411.473 612.875 411.623 609.083 411.365 605.316C413.291 605.07 415.238 605.107 417.177 605.018C420.986 604.843 424.748 604.137 428.555 603.925C430.252 603.832 431.95 603.866 433.645 603.746C434.83 603.662 436.02 603.541 437.195 603.357C436.912 605.161 437.092 607.031 437.227 608.835C437.55 613.17 437.456 617.548 437.314 621.894C437.257 623.597 437.146 625.297 437.112 627H437.107Z" fill="#FFC0B7"/>
<path d="M438.166 614.275C438.163 616.566 438.148 618.857 438.084 621.148C438.03 623.099 437.887 625.046 437.855 626.997H409.682C409.773 625.907 409.871 624.817 409.96 623.729C410.3 619.576 410.635 615.414 410.724 611.246C410.766 609.297 410.746 607.348 410.615 605.402C410.298 605.448 410.113 605.138 410.169 604.907C420.816 604.188 430.126 603.49 438.001 602.857C438.003 602.877 438.01 602.897 438.013 602.919C438.018 602.956 438.015 602.99 438.01 603.024C437.643 604.764 437.816 606.605 437.944 608.362C438.087 610.338 438.171 612.292 438.168 614.273L438.166 614.275Z" fill="#FFC0B7"/>
<path d="M339.646 370.482C341.072 365.93 342.523 361.382 343.999 356.845C341.247 357.462 338.315 357.263 335.669 356.281C337.275 354.662 338.724 352.861 339.747 350.823C341.208 347.905 341.715 344.649 341.858 341.42C342.124 335.451 341.136 329.227 342.915 323.41C343.563 321.289 345.049 317.772 347.791 317.979C350.526 318.186 352.605 321.503 353.876 323.577C357.661 329.754 360.317 336.565 362.349 343.517C363.685 348.084 364.766 352.774 364.794 357.531C364.811 360.378 364.439 363.215 363.778 365.986C360.928 366.21 364.777 376.759 362 377.5C360.48 377.906 353.252 369.52 352 370.482C350.852 371.366 349.855 371.839 349 373C347.667 374.809 345.699 375.908 344.738 377.936C344.149 379.178 343.61 380.456 343.142 381.757C341.656 383.057 340.545 384.848 338.978 386.019C338.584 385.544 338.253 385.01 338.014 384.415C337.524 383.194 337.431 381.851 337.475 380.537C337.593 377.099 338.618 373.765 339.648 370.482H339.646Z" fill="#918273"/>
<path d="M410.312 352.91C410.539 352.6 410.867 352.381 411.185 352.166C412.342 351.389 413.496 350.579 414.56 349.676C415.917 348.229 417.423 346.423 418.795 344.275C422.599 338.315 424.888 331.161 424.888 331.161L427.707 330.133C429.138 330.416 432.531 328.733 435.359 326.309C437.895 331.351 440.585 340.202 439.235 353.81C439.173 355.607 438.86 357.418 438.607 359.204C437.909 364.111 437.678 369.069 437.446 374.021C437.313 376.882 437.289 380.069 439.208 382.198C436.475 382.205 434.071 380.505 431.878 378.878C431.582 382.842 430.264 386.728 428.089 390.057C421.417 383.253 414.747 376.449 408.075 369.645C407.91 369.478 407.745 369.306 407.639 369.097C407.491 368.799 407.486 368.454 407.486 368.122C407.486 363.24 408.314 358.358 409.923 353.746C410.024 353.456 410.132 353.161 410.315 352.91H410.312Z" fill="#918273"/>
<path d="M350.538 295.803C350.538 295.803 346.335 295.431 343.585 297.796L343.006 297.572C343.006 297.572 340.629 294.07 340.538 283.415C340.459 275.905 348.067 259.15 351.743 252.444C354.456 247.289 358.605 240.657 362.727 237.406C365.745 235.11 367.896 233.878 369.426 233.25C371.747 233.412 374.041 233.892 376.352 234.156C378.438 234.392 380.887 234.712 382.809 233.663C384.645 232.662 386.007 231.001 387.658 229.751C388.523 229.096 389.452 228.582 390.506 228.311C391.578 228.036 392.677 227.905 393.778 227.846C396.195 227.721 398.622 227.91 401.024 228.181C403.298 228.437 405.597 228.705 407.851 229.111C416.507 230.666 422.38 237.98 430.338 241.097C432.346 243.096 436.01 247.028 439.866 252.626C445.097 259.701 447.129 268.715 448.76 277.182C450.354 285.888 450.044 296 447.519 303.119C446.107 306.812 442.106 311.315 438.484 314.874C438.065 312.979 437.577 310.437 437.008 309.932C434.115 307.368 429.555 308.884 429.077 307.381C428.022 304.076 417.79 291.782 417.554 291.275C415.593 288.297 409.645 281.722 407.743 273.454C406.987 270.437 405.39 264.172 401.463 262.248C395.426 259.292 381.163 262.915 378.032 269.217C372.604 279.527 368.337 288.561 368.337 288.561C368.337 288.561 364.072 292.756 360.258 295.571C354.774 299.826 350.536 295.803 350.536 295.803H350.538Z" fill="#918273"/>
<path d="M487.198 577.77C485.486 581.547 480.408 583.922 476.355 584.822C473.803 585.391 471.223 585.844 468.629 586.181L466.02 580.181L480.024 578.922L487.198 577.77Z" fill="#FFDDC0"/>
<path d="M518.025 502.64C520.58 500.937 522.734 504.016 521.317 506.422C519.548 509.427 514.406 519.489 514.406 519.489L505.243 520.712C505.243 520.712 515.468 504.345 518.023 502.642L518.025 502.64Z" fill="#FFDDC0"/>
<path d="M523.349 514.368C523.716 515.586 523.226 516.893 522.588 517.995L515.238 519.329L517.35 514.986C521.289 510.404 522.98 513.15 523.349 514.368Z" fill="#FFDDC0"/>
<path d="M498.428 489.586C500.986 487.89 502.809 488.818 503.662 491.375C504.445 493.729 494.058 519.07 492.395 523.096L480.517 525.604C480.517 525.604 495.871 491.281 498.428 489.583V489.586Z" fill="#FFDDC0"/>
<path d="M515.542 492.854C517.461 494.195 516.04 496.4 515.187 498.666C514.335 500.932 503.703 520.71 503.703 520.71L492.508 523.074C494.735 519.341 507.52 497.913 509.045 495.834C511.334 492.713 512.701 490.87 515.542 492.856V492.854Z" fill="#FFDDC0"/>
<path d="M435.359 326.309C432.531 328.733 429.138 330.416 427.706 330.133L424.888 331.162C424.888 331.162 422.599 338.315 418.795 344.275C417.425 346.423 415.917 348.23 414.547 349.669C412.115 352.226 410.122 353.616 410.122 353.616C410.122 353.616 405.732 371.353 408.513 373.344C409.225 373.858 409.955 374.481 410.699 375.185C410.706 375.569 410.686 375.95 410.662 376.334C410.568 377.845 410.248 379.341 409.679 380.768C408.777 383.027 407.328 385.05 405.616 386.768C404.719 387.668 403.743 388.493 402.709 389.231C401.772 389.903 400.747 390.444 399.794 391.094C398.077 392.267 396.724 393.714 395.901 395.641C395.371 396.879 393.674 403.752 393.339 405.058L387.677 398.483C387.307 397.964 386.97 397.425 386.64 396.94C386.186 396.274 385.731 395.597 385.193 394.994C384.543 394.263 383.764 393.633 382.976 393.062C379.958 390.88 376.38 389.954 373.04 388.421C370.177 387.107 367.378 385.643 364.677 384.019C361.731 382.247 358.88 380.288 356.291 378.022C354.62 376.56 353.043 374.956 351.72 373.169C352.171 372.909 352.617 372.648 353.043 372.375C353.674 371.959 354.223 371.255 354.709 370.349C358.35 363.54 358.116 344.93 358.116 344.93C358.116 344.93 356.017 341.379 353.664 334.494C351.311 327.608 351.304 319.626 351.304 319.626C351.304 319.626 347.515 319.057 343.55 314.832C339.347 310.572 340.771 305.949 341.412 301.692C341.744 299.915 342.565 298.672 343.58 297.799C346.329 295.434 350.533 295.805 350.533 295.805C350.533 295.805 354.77 299.829 360.255 295.574C364.069 292.761 368.334 288.563 368.334 288.563C368.334 288.563 372.601 279.53 378.029 269.219C381.158 262.917 395.423 259.292 401.46 262.25C405.384 264.172 406.983 270.44 407.74 273.457C409.642 281.725 415.589 288.3 417.551 291.278C417.785 291.784 428.019 304.078 429.074 307.383C429.554 308.887 434.115 307.371 437.005 309.935C437.574 310.44 438.062 312.981 438.481 314.876C438.695 315.843 438.89 316.643 439.067 316.911C441.087 319.795 438.592 323.538 435.357 326.311L435.359 326.309Z" fill="#FFDDC0"/>
<path d="M386.007 344.912C375.989 343.891 374.469 329.874 374.469 329.874C374.469 329.874 381.158 332.089 387.788 333.086C394.657 334.117 401.465 333.932 401.465 333.932C401.465 333.932 396.498 346.005 386.007 344.912Z" fill="white"/>
<path d="M484.153 357.812C484.153 358.434 483.648 358.939 483.027 358.939H479.151C478.528 358.939 478.025 358.434 478.025 357.812C478.025 357.189 478.53 356.687 479.151 356.687H483.027C483.65 356.687 484.153 357.191 484.153 357.812Z" fill="#AEAEAE"/>
<path d="M468.042 289.247C467.418 289.247 466.913 288.743 466.913 288.12V285C466.913 284.378 467.418 283.876 468.042 283.876C468.665 283.876 469.167 284.38 469.167 285V288.12C469.167 288.743 468.662 289.247 468.042 289.247Z" fill="#AEAEAE"/>
<path d="M465.886 292.045H462.977C462.353 292.045 461.851 291.541 461.851 290.918C461.851 290.295 462.356 289.791 462.977 289.791H465.886C466.51 289.791 467.015 290.295 467.015 290.918C467.015 291.541 466.51 292.045 465.886 292.045Z" fill="#AEAEAE"/>
<path d="M469.167 296.514C469.167 297.136 468.662 297.641 468.042 297.641C467.421 297.641 466.913 297.136 466.913 296.514C466.913 292.803 466.913 292.417 467.884 292.188C468.391 292.07 468.921 292.316 469.155 292.783C469.291 293.054 469.305 293.357 469.222 293.625C469.202 293.839 469.167 294.513 469.167 296.514Z" fill="#AEAEAE"/>
<path d="M473.319 291.829H470.412C469.788 291.829 469.283 291.324 469.283 290.702C469.283 290.079 469.788 289.575 470.412 289.575H473.319C473.942 289.575 474.445 290.079 474.445 290.702C474.445 291.324 473.94 291.829 473.319 291.829Z" fill="#AEAEAE"/>
<path d="M489.329 323.247C488.706 323.247 488.203 322.743 488.203 322.12V318.491C488.203 317.868 488.708 317.364 489.329 317.364C489.95 317.364 490.457 317.868 490.457 318.491V322.12C490.457 322.743 489.952 323.247 489.329 323.247Z" fill="#AEAEAE"/>
<path d="M486.824 326.503H483.441C482.818 326.503 482.312 325.999 482.312 325.379C482.312 324.759 482.818 324.252 483.441 324.252H486.824C487.447 324.252 487.95 324.756 487.95 325.379C487.95 326.001 487.445 326.503 486.824 326.503Z" fill="#AEAEAE"/>
<path d="M490.457 331.885C490.457 332.508 489.952 333.012 489.329 333.012C488.706 333.012 488.203 332.508 488.203 331.885C488.203 327.613 488.203 327.264 489.191 327.032C489.699 326.914 490.231 327.16 490.462 327.628C490.6 327.906 490.615 328.214 490.524 328.487C490.502 328.728 490.457 329.503 490.457 331.885Z" fill="#AEAEAE"/>
<path d="M495.469 326.252H492.086C491.463 326.252 490.96 325.748 490.96 325.125C490.96 324.503 491.465 323.998 492.086 323.998H495.469C496.092 323.998 496.595 324.503 496.595 325.125C496.595 325.748 496.09 326.252 495.469 326.252Z" fill="#AEAEAE"/>
<path d="M477.118 365.556C477.118 366.178 476.613 366.683 475.992 366.683C475.371 366.683 474.863 366.178 474.863 365.556C474.863 360.782 474.863 360.393 475.869 360.154C476.376 360.036 476.908 360.282 477.142 360.75C477.285 361.035 477.295 361.35 477.196 361.628C477.169 361.894 477.118 362.773 477.118 365.556Z" fill="#AEAEAE"/>
<path d="M293.831 328.036C293.831 328.659 293.326 329.161 292.703 329.161C292.079 329.161 291.574 328.656 291.574 328.036C291.574 324.328 291.574 323.941 292.545 323.71C293.055 323.592 293.582 323.838 293.816 324.303C293.954 324.576 293.969 324.877 293.883 325.147C293.863 325.361 293.826 326.036 293.826 328.036H293.831Z" fill="#AEAEAE"/>
<path d="M297.98 323.353H295.072C294.449 323.353 293.946 322.849 293.946 322.226C293.946 321.604 294.451 321.099 295.072 321.099H297.98C298.603 321.099 299.108 321.604 299.108 322.226C299.108 322.849 298.603 323.353 297.98 323.353Z" fill="#AEAEAE"/>
<path d="M325.238 294.572C324.614 294.572 324.109 294.068 324.109 293.448V289.818C324.109 289.196 324.614 288.691 325.238 288.691C325.861 288.691 326.364 289.196 326.364 289.818V293.448C326.364 294.07 325.859 294.572 325.238 294.572Z" fill="#AEAEAE"/>
<path d="M322.731 297.828H319.348C318.725 297.828 318.22 297.324 318.22 296.701C318.22 296.078 318.725 295.574 319.348 295.574H322.731C323.354 295.574 323.859 296.078 323.859 296.701C323.859 297.324 323.354 297.828 322.731 297.828Z" fill="#AEAEAE"/>
<path d="M326.366 303.21C326.366 303.832 325.861 304.337 325.24 304.337C324.619 304.337 324.111 303.832 324.111 303.21C324.111 298.938 324.111 298.591 325.099 298.357C325.612 298.237 326.137 298.485 326.371 298.953C326.511 299.231 326.523 299.541 326.432 299.814C326.41 300.055 326.366 300.83 326.366 303.21Z" fill="#AEAEAE"/>
<path d="M331.377 297.577H327.994C327.371 297.577 326.868 297.073 326.868 296.45C326.868 295.827 327.373 295.325 327.994 295.325H331.377C332 295.325 332.505 295.83 332.505 296.45C332.505 297.07 332 297.577 331.377 297.577Z" fill="#AEAEAE"/>
<path d="M475.992 355.496C475.368 355.496 474.863 354.991 474.863 354.371V350.213C474.863 349.59 475.368 349.088 475.992 349.088C476.615 349.088 477.118 349.592 477.118 350.213V354.371C477.118 354.994 476.613 355.496 475.992 355.496Z" fill="#AEAEAE"/>
<path d="M473.119 356.973C473.743 356.973 474.245 357.477 474.245 358.097C474.245 358.717 473.74 359.224 473.119 359.224H469.244C468.62 359.224 468.115 358.72 468.115 358.097C468.115 357.475 468.62 356.973 469.244 356.973H473.119Z" fill="#AEAEAE"/>
<path d="M306.739 364.643C306.115 364.643 305.61 364.138 305.61 363.516V359.886C305.61 359.263 306.115 358.759 306.739 358.759C307.362 358.759 307.867 359.263 307.867 359.886V363.516C307.867 364.138 307.362 364.643 306.739 364.643Z" fill="#AEAEAE"/>
<path d="M304.233 367.898H300.85C300.227 367.898 299.722 367.394 299.722 366.774C299.722 366.154 300.227 365.647 300.85 365.647H304.233C304.856 365.647 305.361 366.151 305.361 366.774C305.361 367.396 304.856 367.898 304.233 367.898Z" fill="#AEAEAE"/>
<path d="M307.865 373.28C307.865 373.902 307.36 374.404 306.737 374.404C306.113 374.404 305.608 373.9 305.608 373.28C305.608 369.008 305.608 368.659 306.596 368.427C307.109 368.307 307.634 368.555 307.868 369.023C308.008 369.301 308.02 369.611 307.929 369.884C307.907 370.125 307.863 370.9 307.863 373.282L307.865 373.28Z" fill="#AEAEAE"/>
<path d="M312.879 367.647H309.497C308.873 367.647 308.368 367.143 308.368 366.52C308.368 365.898 308.873 365.396 309.497 365.396H312.879C313.503 365.396 314.008 365.9 314.008 366.52C314.008 367.14 313.503 367.647 312.879 367.647Z" fill="#AEAEAE"/>
<path d="M292.703 320.772C292.079 320.772 291.574 320.268 291.574 319.645V316.527C291.574 315.905 292.079 315.4 292.703 315.4C293.326 315.4 293.831 315.905 293.831 316.527V319.645C293.831 320.268 293.326 320.772 292.703 320.772Z" fill="#AEAEAE"/>
<path d="M290.549 323.568H287.642C287.019 323.568 286.514 323.063 286.514 322.441C286.514 321.818 287.019 321.313 287.642 321.313H290.549C291.173 321.313 291.678 321.818 291.678 322.441C291.678 323.063 291.173 323.568 290.549 323.568Z" fill="#AEAEAE"/>
<path d="M469.58 580.627C469.503 580.644 469.459 580.646 469.459 580.646C469.459 580.646 469.506 580.639 469.58 580.627Z" fill="#AEAEAE"/>
<path d="M374.371 464.345C374.363 464.205 374.358 464.062 374.348 463.922C374.324 463.546 374.294 463.169 374.26 462.793C378.951 466.395 385.071 471.678 389.422 477.577C396.875 487.681 403.133 498.055 406.59 506.038C409.714 513.258 414.821 525.161 414.821 525.161L412.749 526.047C412.749 526.047 407.644 514.146 404.52 506.931C401.128 499.096 394.963 488.884 387.606 478.911C383.864 473.837 378.739 469.213 374.435 465.785C374.417 465.305 374.398 464.823 374.371 464.343V464.345Z" fill="#373737"/>
<path d="M358.029 608.441C368.616 608.441 381.314 607.961 396.538 607.018C441.768 604.213 468.185 601.368 468.447 601.341C468.668 601.314 469.191 601.186 469.644 600.556C470.795 598.954 470.723 594.948 469.43 588.649C467.151 577.553 462.851 569.465 462.669 569.125C462.376 568.576 461.691 568.372 461.144 568.665C460.594 568.958 460.39 569.642 460.683 570.188C460.725 570.269 465.012 578.343 467.222 589.101C468.742 596.508 468.102 598.657 467.872 599.136C464.768 599.464 438.908 602.134 396.4 604.772C356.082 607.272 333.689 606.516 321.515 602.244C314.525 599.791 302.12 593.499 297.574 578.897C293.63 566.231 289.904 545.642 287.101 529.118C283.794 509.636 276.277 463.403 275.469 452.913C274.333 438.148 277.866 425.163 285.164 417.286C288.369 413.828 292.425 410.703 297.924 407.453C305.434 403.013 334.684 391.187 334.98 391.069C335.556 390.835 335.835 390.181 335.603 389.605C335.369 389.029 334.716 388.748 334.135 388.982C332.925 389.469 304.431 400.991 296.778 405.516C291.085 408.882 286.869 412.135 283.511 415.758C272.929 427.166 272.52 444.042 273.217 453.085C274.119 464.808 282.641 516.337 284.873 529.492C287.689 546.085 291.432 566.77 295.416 579.564C300.257 595.106 313.375 601.774 320.764 604.368C328.566 607.107 340.353 608.441 358.026 608.441H358.029Z" fill="#373737"/>
<path d="M324.746 571.841C326.931 571.841 329.513 571.103 331.373 569.245C333.174 567.449 344.752 554.973 347.055 552.49C347.255 552.273 347.514 552.123 347.804 552.052L359.673 549.153C360.276 549.006 360.648 548.395 360.5 547.792C360.353 547.189 359.744 546.818 359.138 546.966L347.272 549.862C346.553 550.037 345.905 550.416 345.405 550.957C343.106 553.435 331.553 565.881 329.782 567.651C328.025 569.405 325.214 569.878 323.344 569.437C322.472 569.231 321.858 568.834 321.708 568.379C321.035 566.371 325.778 561.319 328.917 557.977C331.095 555.657 333.509 552.34 335.643 549.416C337.528 546.83 339.477 544.153 340.324 543.55C341.679 542.583 358.776 536.131 369.267 532.277C369.742 532.152 374.862 530.85 379.376 532.277L381.029 532.804C387.868 534.984 402.097 539.522 406.63 539.787C411.462 540.075 417.685 539.529 429.581 537.792C441.161 536.099 454.896 532.326 455.034 532.29C455.633 532.125 455.985 531.505 455.82 530.904C455.655 530.304 455.034 529.957 454.433 530.119C454.298 530.159 440.692 533.891 429.253 535.565C417.523 537.28 411.427 537.816 406.761 537.541C402.508 537.29 387.935 532.644 381.711 530.661L380.053 530.134C374.677 528.431 368.855 530.055 368.611 530.124C368.584 530.131 368.557 530.141 368.53 530.149C365.724 531.18 341.063 540.255 339.009 541.719C337.922 542.494 336.326 544.648 333.815 548.093C331.721 550.964 329.348 554.222 327.266 556.44C322.114 561.929 318.547 566.049 319.564 569.095C319.978 570.333 321.136 571.236 322.821 571.632C323.398 571.768 324.051 571.841 324.743 571.841H324.746Z" fill="#373737"/>
<path d="M347.291 586.931C347.4 586.931 347.513 586.926 347.624 586.919C349.62 586.786 351.625 585.447 352.727 583.508C353.889 581.468 358.285 568.094 359.583 563.608C359.719 563.138 360.088 562.784 360.566 562.663L365.925 561.312C366.529 561.159 366.893 560.549 366.741 559.946C366.588 559.343 365.977 558.977 365.373 559.129L360.014 560.48C358.768 560.795 357.772 561.753 357.418 562.98C356.055 567.676 351.758 580.646 350.765 582.393C350.036 583.671 348.713 584.588 347.471 584.67C346.986 584.702 346.311 584.616 345.85 584.01C344.865 582.718 347.328 574.071 348.255 570.816C348.73 569.15 349.105 567.833 349.285 566.979C350.391 561.735 352.337 555.025 353.682 552.877C354.589 551.592 364.528 546.897 373.61 543.107C374.184 542.869 374.455 542.209 374.216 541.636C373.977 541.062 373.314 540.789 372.742 541.03C368.202 542.925 353.266 549.296 351.773 551.686C350.241 554.134 348.21 561.157 347.082 566.519C346.919 567.297 346.535 568.643 346.089 570.203C343.992 577.56 342.514 583.351 344.059 585.378C344.83 586.387 345.968 586.931 347.291 586.931Z" fill="#373737"/>
<path d="M358.898 536.057C359.164 536.057 359.427 535.964 359.642 535.777C360.107 535.366 360.154 534.654 359.743 534.187L352.265 525.722C352.206 525.653 352.137 525.594 352.063 525.542C351.957 525.468 341.424 518.148 336.687 514.25C332.648 510.928 332.244 508.848 332.22 508.29C332.207 508.022 332.249 507.8 332.348 507.618C333.545 507.773 337.778 509.518 352.228 518.28L353.285 518.92C356.091 520.601 373.833 531.34 374.013 531.448C374.545 531.768 375.238 531.601 375.56 531.069C375.883 530.538 375.713 529.846 375.181 529.521C375.001 529.413 357.254 518.672 354.446 516.989L353.399 516.356C332.836 503.89 331.816 504.911 330.914 505.812C330.246 506.479 329.918 507.374 329.968 508.398C330.074 510.605 331.902 513.229 335.255 515.987C339.853 519.769 349.456 526.47 350.666 527.312L358.053 535.673C358.277 535.924 358.587 536.055 358.898 536.055V536.057Z" fill="#373737"/>
<path d="M468.626 587.305C468.676 587.305 468.722 587.302 468.774 587.295C471.388 586.955 474.02 586.493 476.599 585.919C480.364 585.083 485.599 583.456 487.61 579.024C487.866 578.458 487.615 577.792 487.048 577.536C486.479 577.28 485.811 577.531 485.555 578.097C483.963 581.611 479.401 582.991 476.109 583.724C473.596 584.283 471.029 584.733 468.483 585.066C467.867 585.147 467.431 585.71 467.51 586.328C467.584 586.896 468.069 587.31 468.626 587.31V587.305Z" fill="#373737"/>
<path d="M480.243 613.8C480.394 618.614 480.384 623.486 480.342 626.997H478.087C478.129 623.511 478.139 618.66 477.989 613.869C477.708 604.868 478.112 584.234 478.115 584.028C478.127 583.405 478.627 582.915 479.263 582.923C479.886 582.935 480.379 583.449 480.367 584.069C480.362 584.276 479.96 604.853 480.241 613.798L480.243 613.8Z" fill="#373737"/>
<path d="M321.645 623.919C321.485 625.066 321.399 626.089 321.359 626.997H319.103C319.147 625.996 319.238 624.869 319.413 623.609C320.152 618.289 321.936 603.935 321.956 603.79C322.032 603.172 322.596 602.734 323.212 602.811C323.831 602.887 324.269 603.448 324.193 604.066C324.176 604.211 322.387 618.579 321.648 623.917L321.645 623.919Z" fill="#373737"/>
<path d="M419.814 413.442C420.371 413.442 420.856 413.028 420.93 412.46C421.009 411.85 420.585 411.291 419.979 411.203C419.875 411.183 416.867 410.521 413.344 404.492C410.518 399.654 408.707 396.854 407.384 394.811C406.839 393.97 406.374 393.249 405.945 392.557C405.137 391.246 404.065 390.444 402.759 390.168C400.441 389.683 398.302 391.14 398.211 391.201C397.699 391.556 397.57 392.257 397.925 392.769C398.28 393.281 398.982 393.409 399.495 393.054C399.505 393.047 400.943 392.082 402.308 392.375C402.991 392.52 403.553 392.968 404.028 393.739C404.464 394.445 404.937 395.178 405.492 396.037C406.802 398.062 408.598 400.838 411.397 405.631C415.534 412.713 419.257 413.385 419.666 413.437C419.715 413.444 419.764 413.447 419.814 413.447V413.442Z" fill="#373737"/>
<path d="M370.053 414.126C370.444 414.126 370.824 413.922 371.033 413.558L375.576 405.614C376.151 404.61 376.69 403.535 377.21 402.497C378.661 399.603 380.164 396.608 382.135 395.904C384.096 395.203 386.826 397.974 387.624 399.002C388.006 399.492 388.713 399.583 389.206 399.202C389.699 398.82 389.788 398.114 389.406 397.622C388.989 397.085 385.217 392.415 381.379 393.783C378.555 394.79 376.924 398.043 375.197 401.488C374.69 402.499 374.165 403.547 373.62 404.497L369.077 412.441C368.769 412.98 368.956 413.669 369.496 413.976C369.671 414.077 369.865 414.124 370.055 414.124L370.053 414.126Z" fill="#373737"/>
<path d="M414.302 539.64C414.317 539.64 414.332 539.64 414.344 539.64C414.968 539.615 415.453 539.094 415.428 538.471C415.421 538.26 414.625 517.225 414.063 507.677C413.662 500.866 412.854 495.277 412.139 490.348C411.846 488.318 411.567 486.401 411.356 484.634C410.602 478.325 407.054 469.37 399.85 455.597C392.623 441.78 348.61 382.227 346.74 379.7C346.37 379.201 345.666 379.095 345.163 379.464C344.663 379.833 344.557 380.539 344.927 381.039C345.382 381.656 390.704 442.979 397.851 456.641C404.827 469.978 408.406 478.96 409.116 484.903C409.33 486.697 409.609 488.628 409.904 490.673C410.612 495.558 411.412 501.097 411.809 507.812C412.371 517.336 413.164 538.348 413.171 538.56C413.194 539.168 413.694 539.642 414.297 539.642L414.302 539.64Z" fill="#373737"/>
<path d="M436.371 536.057C437.011 536.047 437.509 535.536 437.499 534.913C437.494 534.647 437.078 508.172 437.359 495.856C437.642 483.407 437.642 480.414 435.925 470.114C434.91 464.036 433.345 458.993 431.177 452.015C429.662 447.138 427.944 441.611 425.961 434.263C421.203 416.649 413.284 376.493 413.222 376.124C413.119 375.511 412.535 375.1 411.924 375.201C411.31 375.304 410.897 375.885 411 376.5C411.064 376.869 418.998 417.131 423.786 434.848C425.781 442.238 427.506 447.785 429.026 452.679C431.167 459.574 432.714 464.555 433.702 470.48C435.393 480.606 435.393 483.284 435.107 495.799C434.826 508.16 435.242 534.677 435.247 534.943C435.257 535.558 435.76 536.05 436.373 536.05L436.371 536.057Z" fill="#373737"/>
<path d="M380.821 431.098C381.166 430.579 381.868 430.443 382.382 430.788C382.9 431.132 383.038 431.831 382.693 432.348L372.088 448.367C372.079 448.411 372.07 448.455 372.055 448.499L368.095 457.974C368.029 458.176 368.103 458.391 368.278 458.506C369.099 459.05 372.869 461.809 374.5 463C374.584 464.052 377.815 467.462 378 468.5C375.602 466.677 368.116 461.098 367.034 460.381C366.019 459.71 365.575 458.432 365.955 457.276H365.952L369.882 447.871C369.86 447.778 369.891 447.663 370 447.5L380.821 431.098Z" fill="#373737"/>
<path d="M423.687 538.607C423.707 538.607 423.724 538.607 423.744 538.607C424.365 538.577 424.845 538.048 424.813 537.428C424.801 537.15 423.429 509.545 422.751 498.597C422.551 495.381 422.431 492.735 422.325 490.4C422.069 484.802 421.901 481.103 420.915 476.59C419.523 470.214 414.857 455.177 410.385 443.798C405.975 432.572 394.501 404.911 394.385 404.633C394.146 404.057 393.488 403.786 392.912 404.022C392.338 404.261 392.064 404.918 392.303 405.494C392.419 405.772 403.883 433.414 408.286 444.62C412.718 455.903 417.338 470.778 418.713 477.07C419.659 481.399 419.814 484.826 420.073 490.503C420.179 492.846 420.302 495.504 420.502 498.737C421.179 509.67 422.549 537.263 422.564 537.541C422.593 538.144 423.091 538.611 423.69 538.611L423.687 538.607Z" fill="#373737"/>
<path d="M348.5 372C348.771 371.439 349.443 371.205 350.005 371.476C350.564 371.746 350.801 372.419 350.53 372.98C350.323 373.406 341.491 385.56 339.672 386.728C339.113 387.087 338.605 387.37 338.159 387.621C336.329 388.65 336.22 388.711 337.023 390.783C337.573 392.193 338.632 395.53 339.861 399.391C341.854 405.653 344.333 413.446 345.637 416.205C346.273 417.551 348.163 423.096 349.185 426.08C349.204 426.056 349.223 426.033 349.242 426.009C350.385 429.503 351.366 432.725 351.701 433.842L371.172 446.443C371.692 446.782 371.84 447.478 371.5 448C371.283 448.332 370.923 448.512 370.554 448.512C370.342 448.512 370.13 448.453 369.938 448.33L350.119 435.505C349.895 435.36 349.731 435.139 349.654 434.883C349.635 434.819 348.693 431.672 347.493 427.948C347.518 427.922 347.542 427.895 347.566 427.869C346.594 425.071 344.245 418.535 343.599 417.168C342.229 414.272 339.726 406.399 337.713 400.072C336.496 396.246 335.443 392.942 334.921 391.596C333.512 387.969 334.786 386.932 337.053 385.657V385.66C337.472 385.427 337.942 385.16 338.452 384.833C339.424 384.209 347.834 373.376 348.5 372Z" fill="#373737"/>
<path d="M441.5 502.5C441.207 502.586 448.375 482.732 448.096 482.863C449.722 478.237 450.922 474.88 451.073 474.459C451.282 473.874 451.927 473.568 452.514 473.778C453.1 473.987 453.406 474.631 453.196 475.217C453.162 475.313 442.962 505.354 441.501 509.5C440.919 509.47 433.042 528.969 440.5 506L441.5 502.5Z" fill="#373737"/>
<path d="M435.269 525.363C435.269 525.363 436.264 520.835 437.716 514.309C438.191 512.163 439.748 507.262 441.64 501.604C441.663 501.986 441.692 502.367 441.741 502.748C441.872 503.76 442.106 504.82 442.665 505.684C441.318 509.796 440.278 513.165 439.916 514.796C438.467 521.32 437.472 525.845 437.472 525.845C437.356 526.372 436.89 526.731 436.373 526.731C436.294 526.731 436.213 526.724 436.131 526.704C435.523 526.571 435.138 525.971 435.271 525.363H435.269Z" fill="#373737"/>
<path d="M436.523 627V603.932C436.523 603.31 437.029 602.805 437.649 602.805C438.27 602.805 438.778 603.31 438.778 603.932V627H436.523Z" fill="#373737"/>
<path d="M409.204 627L410.219 604.877C410.249 604.255 410.788 603.787 411.397 603.804C412.02 603.831 412.501 604.358 412.471 604.981L411.463 627.002H409.207L409.204 627Z" fill="#373737"/>
<path d="M420.597 627L421.067 604.904C421.08 604.282 421.592 603.824 422.218 603.802C422.841 603.814 423.334 604.331 423.322 604.951L422.851 627H420.597Z" fill="#373737"/>
<path d="M347.897 515.497C347.966 515.497 348.035 515.493 348.104 515.478C348.715 515.365 349.119 514.776 349.006 514.166L336.556 447.401C336.443 446.788 335.849 446.384 335.243 446.5C334.632 446.613 334.228 447.201 334.341 447.814L346.791 514.58C346.892 515.121 347.365 515.5 347.897 515.5V515.497Z" fill="#373737"/>
<path d="M353.498 536.687C353.688 536.687 353.88 536.64 354.057 536.537C354.597 536.227 354.784 535.541 354.474 535.002C352.82 532.123 351.106 525.397 351.088 525.331C350.936 524.728 350.322 524.364 349.718 524.516C349.115 524.669 348.75 525.282 348.903 525.884C348.974 526.172 350.711 532.979 352.517 536.124C352.724 536.485 353.106 536.69 353.495 536.69L353.498 536.687Z" fill="#373737"/>
<path d="M488.463 509.466C488.98 509.466 489.448 509.107 489.561 508.582C491.289 500.708 488.854 495.053 485.775 487.897L485.432 487.1C484.291 484.442 483.008 481.802 481.768 479.25C479.583 474.747 477.321 470.091 475.813 465.28C473.658 458.393 473.002 450.969 473.914 443.81C473.993 443.195 473.557 442.631 472.938 442.55C472.325 442.479 471.756 442.907 471.677 443.525C470.723 451.001 471.408 458.757 473.66 465.95C475.217 470.923 477.513 475.655 479.738 480.232C480.968 482.762 482.237 485.375 483.358 487.986L483.703 488.786C486.625 495.572 488.931 500.932 487.359 508.1C487.226 508.708 487.61 509.308 488.219 509.441C488.3 509.461 488.381 509.468 488.46 509.468L488.463 509.466Z" fill="#373737"/>
<path d="M522.589 519.122C522.979 519.122 523.358 518.921 523.567 518.559C524.538 516.878 524.829 515.36 524.43 514.043C524.139 513.084 523.183 511.974 521.702 511.661C520.374 511.378 518.243 511.679 515.644 514.7C515.237 515.173 515.292 515.881 515.765 516.288C516.238 516.691 516.947 516.639 517.354 516.167C518.82 514.462 520.199 513.647 521.237 513.864C521.865 513.997 522.21 514.489 522.274 514.695C522.486 515.392 522.264 516.315 521.616 517.434C521.306 517.973 521.49 518.662 522.03 518.972C522.207 519.076 522.402 519.122 522.592 519.122H522.589Z" fill="#373737"/>
<path d="M505.244 521.834C505.621 521.834 505.988 521.647 506.2 521.305C510.105 515.057 516.935 504.717 518.649 503.577C519.243 503.181 519.748 503.171 520.15 503.55C520.633 504.008 520.864 504.968 520.345 505.851C518.578 508.851 513.613 518.564 513.402 518.974C513.118 519.528 513.337 520.205 513.892 520.488C514.446 520.771 515.126 520.552 515.407 519.996C515.459 519.895 520.554 509.931 522.286 506.991C523.276 505.307 523.03 503.171 521.695 501.914C520.517 500.802 518.871 500.721 517.395 501.702C514.771 503.45 506.013 517.345 504.283 520.111C503.953 520.638 504.113 521.334 504.643 521.662C504.827 521.777 505.034 521.831 505.239 521.831L505.244 521.834Z" fill="#373737"/>
<path d="M480.517 526.731C480.948 526.731 481.36 526.482 481.547 526.064C488.81 509.828 497.421 491.847 499.072 490.508C499.666 490.115 500.545 489.679 501.238 489.92C501.94 490.162 502.361 491.038 502.593 491.732C502.814 493.587 496.946 509.213 491.131 523.205C490.904 523.751 491.138 524.379 491.666 524.642C492.195 524.908 492.838 524.718 493.139 524.211C498.387 515.399 508.656 498.265 509.952 496.496C512.492 493.031 513.091 492.514 514.892 493.774C515.634 494.293 515.488 494.987 514.599 497.103C514.439 497.487 514.276 497.876 514.128 498.267C513.451 500.069 505.655 514.693 502.708 520.176C502.415 520.722 502.62 521.406 503.169 521.699C503.719 521.992 504.401 521.787 504.697 521.239C505.133 520.429 515.372 501.368 516.242 499.057C516.378 498.693 516.53 498.331 516.681 497.972C517.462 496.112 518.531 493.565 516.188 491.928C512.431 489.303 510.344 492.15 508.136 495.162C507.247 496.375 502.75 503.789 498.614 510.674C502.036 501.877 505.295 492.706 504.734 491.015C504.024 488.887 502.841 488.085 501.974 487.787C501.109 487.489 499.685 487.398 497.808 488.643C495.184 490.383 483.124 517.018 479.492 525.141C479.238 525.71 479.492 526.374 480.061 526.628C480.211 526.694 480.367 526.726 480.519 526.726L480.517 526.731Z" fill="#373737"/>
<path d="M473.019 571.689C473.219 571.736 473.428 571.79 473.574 571.935C473.803 572.166 473.781 572.538 473.736 572.863C473.51 574.531 473.12 576.177 472.576 577.772C472.169 578.958 471.603 580.198 470.506 580.809C469.067 581.608 467.165 580.991 466.037 579.792C464.591 578.254 461.969 572.102 463.036 570.719C463.864 569.644 470.661 571.133 473.022 571.689H473.019Z" fill="#373737"/>
<path d="M382.46 363.161C383.007 363.161 383.489 362.76 383.573 362.204C383.667 361.591 383.243 361.018 382.63 360.925C382.543 360.91 375.881 359.756 365.876 350.853C358.805 344.437 356.294 337.973 355.089 334.865C352.041 327.173 351.99 316.276 351.99 316.168C351.99 315.548 351.485 315.044 350.861 315.044C350.238 315.044 349.733 315.55 349.735 316.171C349.735 316.633 349.792 327.606 352.99 335.684C354.158 338.689 356.895 345.747 364.368 352.524C374.967 361.958 381.996 363.105 382.29 363.147C382.346 363.156 382.403 363.159 382.46 363.159V363.161Z" fill="#373737"/>
<path d="M418.404 293.337C418.7 293.337 418.996 293.222 419.217 292.993C419.648 292.545 419.636 291.836 419.19 291.406C418.991 291.211 414.211 286.691 406.625 288.672C406.024 288.829 405.661 289.444 405.819 290.045C405.977 290.645 406.593 291.005 407.194 290.849C413.514 289.201 417.461 292.867 417.626 293.025C417.845 293.234 418.126 293.337 418.407 293.337H418.404Z" fill="#373737"/>
<path d="M382.751 287.257C383.115 287.257 383.475 287.079 383.692 286.752C384.034 286.233 383.894 285.534 383.374 285.192C376.737 280.809 370.816 283.73 370.567 283.858C370.013 284.141 369.791 284.818 370.074 285.372C370.355 285.925 371.035 286.144 371.587 285.866C371.802 285.76 376.628 283.437 382.132 287.072C382.325 287.198 382.539 287.259 382.753 287.259L382.751 287.257Z" fill="#373737"/>
<path fill-rule="evenodd" clip-rule="evenodd" d="M410.561 353.923C410.561 353.923 394.845 363.415 382.494 361.8C372.986 360.614 361.125 347.705 361.125 347.705C361.125 347.705 372.402 366.089 384.669 369.867C395.313 373.159 408.213 364.697 408.213 364.697L410.564 353.923H410.561Z" fill="#373737"/>
<path d="M349.953 373.211C350.182 373.211 350.416 373.142 350.615 372.997C351.207 372.569 351.771 372.259 352.318 371.961C353.619 371.25 354.964 370.517 355.77 368.447C358.231 361.921 358.633 344.819 358.647 344.093C358.66 343.47 358.167 342.956 357.546 342.944C356.925 342.919 356.408 343.421 356.393 344.044C356.39 344.218 355.986 361.486 353.663 367.64C353.16 368.932 352.436 369.328 351.236 369.983C350.655 370.3 349.997 370.659 349.29 371.174C348.787 371.54 348.674 372.244 349.041 372.746C349.26 373.049 349.605 373.211 349.953 373.211Z" fill="#373737"/>
<path d="M384.12 363.26C387.111 363.26 394.217 362.664 404.047 358.001C412.727 353.934 416.356 348.776 418.525 345.692L418.665 345.493C422.208 340.658 424.921 333.994 427.185 328.13C427.409 327.549 427.121 326.9 426.539 326.676C425.958 326.452 425.305 326.742 425.083 327.32C422.708 333.472 420.065 339.772 416.834 344.182L416.682 344.401C414.511 347.489 411.229 352.154 403.086 355.969C390.804 361.793 382.908 360.969 382.832 360.959C382.211 360.89 381.654 361.328 381.58 361.946C381.508 362.561 381.947 363.12 382.563 363.196C382.644 363.206 383.179 363.265 384.123 363.265L384.12 363.26Z" fill="#373737"/>
<path d="M429.356 309.066C429.522 309.066 429.689 309.029 429.849 308.953C430.409 308.683 430.643 308.008 430.372 307.45C426.93 300.37 423.929 297.139 421.026 294.014C418.447 291.236 416.01 288.612 413.421 283.319C410.74 277.839 408.956 273.449 407.653 270.245C405.48 264.901 404.391 262.218 402.08 261.266C400.192 260.488 397.936 261.138 394.676 262.523C394.102 262.767 393.836 263.429 394.08 264C394.324 264.573 394.986 264.839 395.558 264.595C398.638 263.286 400.224 262.937 401.217 263.348C402.656 263.941 403.75 266.633 405.564 271.092C406.879 274.328 408.68 278.76 411.395 284.309C414.13 289.899 416.796 292.769 419.373 295.544C422.162 298.549 425.047 301.655 428.344 308.432C428.539 308.833 428.94 309.066 429.359 309.066H429.356Z" fill="#373737"/>
<path d="M343.243 298.736C343.404 298.736 343.566 298.702 343.721 298.628C344.286 298.365 344.527 297.693 344.263 297.132C339.444 286.873 340.962 276.109 349.502 259.984C350.411 258.286 351.263 256.652 352.081 255.092C359.312 241.265 363.306 233.647 376.744 234.845C377.355 234.899 377.912 234.444 377.966 233.824C378.02 233.204 377.564 232.657 376.943 232.603C362 231.274 357.514 239.848 350.083 254.051C349.27 255.606 348.42 257.233 347.511 258.928C338.594 275.763 337.064 287.107 342.221 298.089C342.413 298.498 342.82 298.736 343.243 298.736Z" fill="#373737"/>
<path d="M439.724 314.199C439.99 314.199 440.258 314.106 440.475 313.914C450.286 305.161 452.294 293.492 447.881 270.865C443.548 248.802 430.95 239.047 421.849 233.626C412.92 228.402 397.277 225.016 388.213 228.291C384.616 229.591 382.231 231.803 381.122 234.869C380.91 235.455 381.213 236.099 381.8 236.311C382.384 236.523 383.032 236.22 383.244 235.634C384.113 233.228 386.045 231.471 388.982 230.41C397.327 227.396 412.398 230.708 420.703 235.568C429.425 240.763 441.51 250.121 445.669 271.298C449.956 293.288 448.202 303.999 438.972 312.236C438.509 312.649 438.47 313.363 438.884 313.825C439.105 314.074 439.416 314.202 439.724 314.202V314.199Z" fill="#373737"/>
<path d="M387.959 325.047C388.186 325.047 388.413 324.98 388.612 324.84C389.12 324.481 389.24 323.777 388.878 323.27C387.351 321.122 387.159 320.088 387.267 319.601C387.388 319.057 388.038 318.658 389.09 318.053C390.428 317.285 392.094 316.328 392.936 314.303C395.011 309.667 392.81 301.686 392.106 299.804C391.887 299.221 391.239 298.925 390.655 299.142C390.071 299.359 389.775 300.008 389.994 300.591C390.938 303.111 392.466 309.839 390.867 313.412C390.305 314.758 389.169 315.41 387.967 316.102C386.708 316.825 385.404 317.576 385.064 319.119C384.754 320.531 385.362 322.214 387.04 324.574C387.26 324.884 387.609 325.049 387.962 325.049L387.959 325.047Z" fill="#373737"/>
<path d="M385.892 346.032C375.091 344.932 373.413 330.605 373.347 329.995C373.305 329.614 373.46 329.24 373.758 328.998C374.056 328.757 374.455 328.686 374.82 328.807C374.886 328.829 381.492 331.002 387.954 331.974C394.639 332.978 401.365 332.81 401.432 332.808C401.816 332.795 402.173 332.98 402.39 333.293C402.607 333.605 402.649 334.009 402.506 334.36C402.299 334.862 397.549 346.111 387.371 346.111C386.89 346.111 386.395 346.086 385.89 346.032H385.892ZM387.619 334.198C382.96 333.499 378.338 332.227 375.889 331.496C376.655 335.096 379.132 343.079 386.121 343.793C393.439 344.548 397.923 338.135 399.633 335.072C397.12 335.057 392.414 334.922 387.617 334.201L387.619 334.198Z" fill="#373737"/>
<path d="M425.076 331.538C425.113 331.538 425.147 331.538 425.184 331.533C429.789 331.093 436.294 329.628 439.588 322.057C441.537 317.465 441.076 312.743 438.388 309.726C436.873 308.025 433.332 305.464 426.65 307.418C426.054 307.592 425.712 308.217 425.884 308.815C426.059 309.411 426.682 309.755 427.284 309.581C431.354 308.39 434.7 308.975 436.705 311.224C438.809 313.584 439.12 317.396 437.516 321.171C434.746 327.534 429.619 328.848 424.968 329.294C424.347 329.353 423.893 329.904 423.952 330.522C424.009 331.105 424.499 331.54 425.073 331.54L425.076 331.538Z" fill="#373737"/>
<path d="M429.555 321.38C429.907 321.38 430.257 321.215 430.476 320.905C430.486 320.89 431.572 319.391 433.309 318.638C433.881 318.39 434.142 317.728 433.896 317.157C433.647 316.586 432.982 316.325 432.413 316.571C430.077 317.583 428.692 319.522 428.633 319.606C428.276 320.115 428.399 320.816 428.907 321.173C429.104 321.311 429.33 321.377 429.555 321.377V321.38Z" fill="#373737"/>
<path fill-rule="evenodd" clip-rule="evenodd" d="M412.56 308.508C412.918 306.143 411.782 304.037 409.648 303.717C407.753 303.431 405.812 305.075 405.455 307.44C405.097 309.805 406.233 311.911 408.364 312.231C410.259 312.516 412.203 310.873 412.558 308.508H412.56Z" fill="#373737"/>
<path fill-rule="evenodd" clip-rule="evenodd" d="M377.509 303.242C377.864 300.877 376.731 298.771 374.597 298.451C372.703 298.165 370.759 299.809 370.404 302.174C370.047 304.539 371.182 306.645 373.314 306.965C375.445 307.285 377.152 305.607 377.507 303.242H377.509Z" fill="#373737"/>
<path d="M359.514 296.827C359.635 296.827 359.758 296.807 359.879 296.765C360.18 296.662 367.266 294.171 370.969 286.383C372.119 283.935 373.078 281.454 374.004 279.055C377.084 271.082 379.525 264.775 386.451 265.329C387.07 265.368 387.614 264.915 387.663 264.295C387.713 263.675 387.247 263.134 386.629 263.085C378.008 262.413 375.046 270.105 371.902 278.248C370.991 280.61 370.047 283.054 368.934 285.426C365.652 292.323 359.214 294.617 359.15 294.639C358.561 294.841 358.251 295.483 358.45 296.069C358.61 296.536 359.046 296.829 359.514 296.829V296.827Z" fill="#373737"/>
<path d="M418.745 352.166C418.853 352.166 418.961 352.152 419.07 352.117C429.455 348.987 431.032 337.294 432.076 329.554C432.16 328.939 431.726 328.371 431.111 328.287C430.495 328.211 429.925 328.637 429.842 329.252C428.819 336.846 427.415 347.247 418.419 349.959C417.823 350.139 417.486 350.766 417.666 351.362C417.813 351.849 418.259 352.162 418.745 352.162V352.166Z" fill="#373737"/>
<path d="M337.956 386.915C338.013 386.915 338.07 386.91 338.126 386.903C338.742 386.809 339.166 386.236 339.072 385.621C337.589 375.807 341.714 365.565 345.027 357.334C345.259 356.758 344.981 356.101 344.402 355.87C343.82 355.636 343.167 355.919 342.936 356.495C339.521 364.977 335.268 375.536 336.843 385.958C336.926 386.516 337.407 386.915 337.956 386.915Z" fill="#373737"/>
<path d="M393.343 406.185C393.407 406.185 393.471 406.18 393.535 406.168C393.979 406.092 394.333 405.759 394.439 405.324C394.459 405.245 396.405 397.27 398.803 393.945C399.909 392.412 400.899 391.836 402.156 391.108C403.548 390.301 405.127 389.385 407.005 387.04C410.548 382.618 413.171 376.655 413.215 376.423C413.331 375.813 412.932 375.225 412.321 375.107C411.71 374.989 411.118 375.39 411 376C410.99 376.052 408.429 381.661 405.246 385.635C403.632 387.651 402.306 388.418 401.025 389.162C399.714 389.919 398.362 390.704 396.975 392.629C395.188 395.109 393.703 399.61 392.897 402.391C390.909 399.521 387.245 394.492 384.919 392.801C383.507 391.775 381.45 390.855 378.848 389.688C375.369 388.13 371.038 386.191 366.266 383.12C358.059 377.842 350.783 371.316 350.709 371.25C350.249 370.834 349.534 370.871 349.118 371.333C348.701 371.796 348.738 372.507 349.201 372.923C349.275 372.989 356.686 379.638 365.044 385.013C369.961 388.175 374.377 390.153 377.924 391.743C380.408 392.855 382.372 393.734 383.594 394.622C386.018 396.384 390.776 403.198 392.404 405.676C392.614 405.996 392.971 406.183 393.345 406.183L393.343 406.185Z" fill="#373737"/>
<path d="M412.707 375.293L411.293 376.707L407.293 372.707L408.707 371.293L412.707 375.293Z" fill="#373737"/>
<path d="M389.089 254.829C389.141 254.829 389.193 254.826 389.247 254.819C389.865 254.733 390.294 254.164 390.208 253.549C389.212 246.435 383.235 242.702 382.981 242.547C382.452 242.224 381.757 242.387 381.432 242.918C381.107 243.447 381.274 244.139 381.801 244.466C381.853 244.498 387.128 247.82 387.973 253.861C388.052 254.425 388.535 254.831 389.087 254.831L389.089 254.829Z" fill="#373737"/>
<path d="M350.526 321.114C350.967 321.114 351.386 320.853 351.568 320.42C351.807 319.847 351.536 319.187 350.959 318.949C345.258 316.579 342.311 312.858 341.683 307.24C341.264 303.173 342.684 299.622 345.389 297.983C347.966 296.42 351.336 296.846 354.877 299.181C355.397 299.523 356.096 299.381 356.439 298.861C356.781 298.342 356.639 297.643 356.119 297.301C350.307 293.47 346.17 294.877 344.218 296.059C340.762 298.153 338.929 302.528 339.439 307.481C340.158 313.921 343.644 318.348 350.092 321.028C350.235 321.087 350.38 321.114 350.523 321.114H350.526Z" fill="#373737"/>
<path d="M349.562 309.844C349.678 309.844 349.794 309.827 349.91 309.79C350.501 309.598 350.826 308.963 350.634 308.37C350.604 308.274 349.853 306.015 347.916 304.361C347.441 303.958 346.731 304.012 346.327 304.484C345.923 304.957 345.977 305.668 346.451 306.072C347.887 307.3 348.486 309.049 348.491 309.066C348.646 309.541 349.087 309.844 349.562 309.844Z" fill="#373737"/>
<path d="M469.457 581.773C469.482 581.773 469.504 581.773 469.528 581.773C469.585 581.768 469.681 581.761 469.814 581.732C472.155 581.343 497.759 577.105 513.352 574.957C524.38 573.439 536.059 569.393 548.062 562.939C551.773 560.943 556.225 557.195 558.051 545.652C559.484 536.574 552.152 521.303 536.251 500.263C530.695 492.913 521.722 479.994 513.044 467.5C504.056 454.562 495.568 442.342 491.922 437.828C487.534 432.393 483.57 426.46 479.738 420.724C477.982 418.093 476.164 415.372 474.326 412.729C468.656 404.579 460.393 401.353 451.646 397.935C450.663 397.551 449.673 397.164 448.685 396.768C443.075 394.526 425.941 387.462 425.769 387.39C425.195 387.154 424.535 387.427 424.298 388C424.061 388.576 424.335 389.233 424.909 389.47C425.081 389.541 442.227 396.611 447.849 398.857C448.845 399.256 449.838 399.642 450.828 400.029C459.247 403.316 467.198 406.422 472.478 414.008C474.303 416.634 476.117 419.346 477.868 421.969C481.729 427.747 485.721 433.721 490.173 439.238C493.767 443.69 502.233 455.878 511.196 468.782C519.886 481.293 528.874 494.229 534.457 501.616C549.755 521.861 557.146 536.968 555.828 545.297C554.158 555.864 550.25 559.206 547.035 560.936C535.233 567.282 523.811 571.244 513.049 572.725C500.321 574.48 480.946 577.62 472.938 578.934C474.059 576.854 474.986 573.249 474.853 567.006C474.555 553.022 461.546 536.237 458.079 532.509C456.34 530.639 454.723 529.782 453.282 529.96C451.858 530.137 451.222 531.227 451.153 531.35C450.855 531.896 451.055 532.58 451.599 532.878C452.146 533.176 452.831 532.976 453.129 532.433C453.139 532.423 453.285 532.219 453.585 532.191C453.891 532.162 454.797 532.287 456.426 534.039C459.567 537.418 472.318 553.91 472.598 567.053C472.837 578.25 469.669 579.433 469.361 579.522C469.314 579.529 469.29 579.534 469.282 579.534C468.691 579.633 468.279 580.176 468.348 580.772C468.415 581.343 468.898 581.771 469.467 581.771L469.457 581.773Z" fill="#373737"/>
<path d="M409.889 379.301C410.254 379.301 410.613 379.124 410.828 378.799C411.173 378.283 411.032 377.584 410.512 377.239C409.377 376.486 408.741 375.153 408.628 373.275C408.219 366.683 411.261 353.53 411.291 353.399C411.431 352.794 411.054 352.189 410.448 352.048C409.845 351.911 409.236 352.285 409.096 352.89C408.968 353.444 405.947 366.496 406.376 373.418C406.536 375.999 407.534 377.97 409.263 379.117C409.455 379.245 409.672 379.306 409.887 379.306L409.889 379.301Z" fill="#373737"/>
<path d="M438.815 382.924C439.105 382.924 439.396 382.811 439.615 382.589C440.054 382.146 440.049 381.435 439.606 380.997C439.537 380.926 437.711 378.989 438.199 374.838C438.302 373.957 438.445 372.859 438.61 371.589C439.33 366.04 440.532 356.751 440.778 347.735C441.081 336.674 437.578 326.833 437.43 326.42C437.218 325.834 436.575 325.531 435.986 325.743C435.4 325.955 435.097 326.599 435.309 327.182C435.343 327.281 438.815 337.053 438.527 347.673C438.283 356.576 437.09 365.794 436.376 371.299C436.211 372.579 436.068 373.684 435.962 374.574C435.336 379.882 437.913 382.491 438.024 382.599C438.243 382.815 438.529 382.924 438.815 382.924Z" fill="#373737"/>
<path d="M427.814 390.897C428.166 390.897 428.511 390.734 428.733 390.427C431.918 385.973 432.965 380.392 433.623 375.02C433.705 374.36 433.781 373.696 433.86 373.034C434.377 368.59 434.909 363.995 436.696 359.945C436.947 359.377 436.688 358.712 436.119 358.461C435.55 358.21 434.885 358.469 434.633 359.037C432.709 363.398 432.157 368.164 431.62 372.773C431.544 373.433 431.467 374.092 431.386 374.747C430.765 379.821 429.792 385.074 426.9 389.117C426.537 389.624 426.656 390.326 427.161 390.687C427.36 390.83 427.589 390.897 427.816 390.897H427.814Z" fill="#373737"/>
<path d="M335.928 357.366C336.167 357.366 336.411 357.29 336.615 357.132C340.432 354.197 342.743 349.017 343.127 342.547C343.287 339.858 343.149 337.151 343.016 334.535C342.891 332.067 342.763 329.513 342.888 327.035C343.08 323.304 344.113 320.811 345.956 319.625C346.478 319.288 346.631 318.592 346.293 318.068C345.956 317.544 345.256 317.396 344.736 317.731C342.248 319.333 340.868 322.423 340.639 326.917C340.506 329.51 340.639 332.121 340.764 334.648C340.895 337.205 341.028 339.848 340.878 342.415C340.678 345.778 339.68 351.933 335.241 355.348C334.748 355.727 334.654 356.436 335.036 356.928C335.258 357.216 335.593 357.366 335.93 357.366H335.928Z" fill="#373737"/>
<path d="M453.696 532.191C453.772 532.191 453.849 532.184 453.925 532.169C454.12 532.13 473.51 528.116 486.13 525.874C498.771 523.63 529.852 517.705 530.165 517.646C530.776 517.53 531.178 516.939 531.062 516.329C530.944 515.719 530.355 515.32 529.744 515.433C529.431 515.492 498.362 521.416 485.735 523.657C473.086 525.904 453.662 529.922 453.469 529.964C452.861 530.09 452.469 530.685 452.595 531.295C452.706 531.827 453.174 532.194 453.696 532.194V532.191Z" fill="#373737"/>
<path d="M368.401 590.041C371.399 590.041 373.06 587.509 374.56 580.897C374.745 580.085 374.952 578.769 375.191 577.243C375.625 574.489 376.637 568.042 377.551 567.218C378.419 566.568 381.947 564.848 386.756 562.732C387.012 562.619 387.298 562.601 387.567 562.683C388.473 562.961 390.055 563.507 391.886 564.142C398.467 566.421 408.408 569.871 412.39 569.789C416.364 569.716 425.512 567.85 428.222 567.282C432.349 566.418 458.12 569.932 467.82 571.256C471.612 571.773 472.166 571.844 472.383 571.844C473.007 571.844 473.509 571.34 473.509 570.72C473.509 570.099 473.024 569.612 472.415 569.595C472.134 569.573 470.274 569.319 468.123 569.027C450.391 566.608 431.73 564.245 427.754 565.079C422.272 566.234 415.344 567.484 412.345 567.54C408.763 567.644 398.661 564.107 392.622 562.016C390.693 561.349 389.171 560.822 388.225 560.532C387.441 560.293 386.596 560.342 385.845 560.672C382.846 561.991 377.603 564.363 376.189 565.422C374.817 566.45 374.055 569.939 372.961 576.894C372.727 578.377 372.525 579.662 372.358 580.398C370.611 588.093 369.113 587.906 367.918 587.755C367.91 587.755 367.25 587.482 366.947 584.389C366.693 581.803 366.789 578.277 366.915 575.166C367.004 572.983 366.93 570.756 366.858 568.601C366.738 564.964 366.587 560.438 367.755 559.789C370.263 558.396 387.419 549.685 387.594 549.596C388.148 549.316 388.37 548.637 388.087 548.083C387.806 547.529 387.126 547.305 386.571 547.591C385.864 547.95 369.204 556.41 366.659 557.823C364.286 559.139 364.427 563.35 364.604 568.677C364.673 570.791 364.747 572.979 364.661 575.078C364.269 584.675 364.621 589.616 367.635 589.992C367.898 590.024 368.149 590.041 368.393 590.041H368.401Z" fill="#373737"/>
<path d="M468.744 581.896C469.493 581.896 470.24 581.788 470.954 581.569C471.548 581.387 471.883 580.757 471.701 580.162C471.518 579.566 470.888 579.234 470.292 579.416C469.052 579.795 467.668 579.701 466.492 579.158C465.928 578.897 465.258 579.14 464.994 579.706C464.733 580.27 464.977 580.939 465.544 581.2C466.539 581.663 467.643 581.896 468.744 581.896Z" fill="#373737"/>
<path d="M452 475.5C454 470.833 457.7 458.6 456.5 447L423 426.5" stroke="#373737" stroke-width="2.3"/>
<path d="M444.5 439L448.5 418C441.833 408.833 424.4 386.2 408 369" stroke="#373737" stroke-width="2.3"/>
</g>
<defs>
<filter id="filter0_f_376_116" x="0.0449219" y="0.860962" width="791.908" height="791.758" filterUnits="userSpaceOnUse" color-interpolation-filters="sRGB">
<feFlood flood-opacity="0" result="BackgroundImageFix"/>
<feBlend mode="normal" in="SourceGraphic" in2="BackgroundImageFix" result="shape"/>
<feGaussianBlur stdDeviation="100" result="effect1_foregroundBlur_376_116"/>
</filter>
<linearGradient id="paint0_linear_376_116" x1="200.045" y1="284.748" x2="585.708" y2="335.477" gradientUnits="userSpaceOnUse">
<stop offset="1" stop-color="#FFEFCE"/>
</linearGradient>
<clipPath id="clip0_376_116">
<rect width="285.225" height="400" fill="white" transform="translate(273 227)"/>
</clipPath>
</defs>
</svg>
