<svg width="280" height="214" viewBox="0 0 280 214" fill="none" xmlns="http://www.w3.org/2000/svg">
<g clip-path="url(#clip0_665_1745)">
<path d="M1.5 134.08C1.5 188.756 63.2842 215 139.5 215C215.716 215 277.5 188.756 277.5 134.08C277.5 79.4042 243.777 17 139.5 17C41.5189 17 1.5 79.4042 1.5 134.08Z" fill="#A3BD8A"/>
<g clip-path="url(#clip1_665_1745)">
<path d="M237.537 215.283C237.537 215.283 231.205 143.136 219.491 130.106C209.115 118.565 178.798 119.781 178.798 119.781L169.783 115.484L163.805 108.091L119.05 115.123L104.098 133.284C104.098 133.284 88.4149 135.508 79.5495 151.719C69.9059 169.349 72.699 205.887 72.699 205.887L195.568 212.74L202.974 236.602L221.14 235.747C219.859 223.896 224.538 216.487 237.537 215.283Z" fill="white"/>
<path fill-rule="evenodd" clip-rule="evenodd" d="M125.956 126.498L114.539 200.579L144.605 139.204L125.956 126.498Z" fill="#ABCBDB"/>
<path d="M217.455 257.449C217.455 257.449 216.506 212.742 235.499 216.016C235.499 216.016 254.623 225.634 258.95 230.222C258.95 230.222 264.874 235.631 262.986 244.921C261.098 254.211 256.391 271.513 256.391 271.513L217.457 257.449H217.455Z" fill="#FFDDC0"/>
<path d="M212.063 360.353C209.359 336.792 204.233 313.231 204.233 313.231L195.951 236.604C194.576 225.507 195.568 212.743 195.568 212.743L117.042 194.165L88.4128 172.06C88.4128 172.06 70.3689 207.456 68.1514 222.594C66.8527 231.47 73.5328 258.825 74.1661 266.772C74.7993 274.716 70.6844 360.353 70.6844 360.353C93.3451 373.27 178.798 375.771 212.063 360.353Z" fill="white"/>
<path fill-rule="evenodd" clip-rule="evenodd" d="M101.16 17.4085C104.384 13.3542 109.791 12.7948 113.374 11.3478C117.648 9.42691 121.046 8.00533 126.702 5.13444C127.95 4.58198 138.641 1.20025 148.004 4.64671C158.557 8.49768 170.236 20.5453 170.236 20.5453C170.236 20.5453 178.038 29.1441 184.241 39.8649C188.736 47.7841 191.84 57.9825 192.833 61.0729C195.181 68.5299 186.77 77.48 185.28 84.5209C184.794 86.4857 186.958 88.4643 186.157 89.5253C184.373 91.6704 180.175 88.6469 180.175 88.6469C180.175 88.6469 176.728 95.2001 172.076 98.5032C167.425 101.806 161.359 101.698 161.359 101.698L121.567 107.976C121.567 107.976 115.419 108.639 110.661 105.692C108.6 104.46 107.504 100.625 106.756 102.058C105.1 105.135 102.238 104.964 102.238 104.964C102.238 104.964 101.752 101.425 100.299 100.486C97.2342 98.8245 93.9252 98.1426 91.4176 96.4044C87.457 93.7276 86.757 90.0269 85.9694 88.4273C82.7365 82.8011 78.7874 77.4639 80.9726 68.6177C81.4331 66.4657 84.7007 58.6089 88.2169 48.4406C91.9772 37.2875 95.8273 24.0356 101.156 17.4132L101.16 17.4085Z" fill="#C37B7B"/>
<path fill-rule="evenodd" clip-rule="evenodd" d="M100.209 80.5659C100.209 80.5659 100.99 77.9908 102.908 75.4459C105.945 71.4169 107.246 71.2366 111.607 61.7109C114.094 56.4291 115.526 44.8415 118.891 39.0604C120.758 36.1433 126.895 32.6344 130.37 31.7745C134.402 30.8361 139.38 31.2845 142.995 34.1993C146.585 36.9292 148.519 42.7357 149.325 45.8493C150.497 50.2435 154.421 55.3935 154.421 55.3935C154.421 55.3935 158.006 59.4526 160.355 61.4035C167.164 66.9141 173.027 71.0355 173.027 71.0355C173.027 71.0355 174.48 71.974 172.721 74.304C170.75 76.4768 167.993 77.0478 167.993 77.0478C167.993 77.0478 167.91 83.3235 166.006 88.7139C164.102 94.1044 160.077 99.2174 160.077 99.2174C160.077 99.2174 158.177 112.647 162.349 115.486C165.062 117.268 149.5 128.849 139.071 135.51C134.653 138.333 131.196 143.138 131.196 143.138C131.196 143.138 116.169 128.765 119.745 120.573C123.892 117.721 121.67 103.216 121.67 103.216C121.67 103.216 117.894 100.512 114.976 95.7918C112.056 91.0717 110.334 85.4247 110.334 85.4247L105.252 84.2319L100.209 80.5659Z" fill="#FFDDC0"/>
<path fill-rule="evenodd" clip-rule="evenodd" d="M127.894 112.137C127.894 112.137 114.925 113.131 114.539 119.312C114.152 125.492 116.593 143.136 116.593 143.136C116.593 143.136 120.457 139.322 125.955 139.759C125.955 139.759 117.963 129.729 119.526 122.501C121.196 114.783 127.894 112.134 127.894 112.134V112.137Z" fill="#ABCBDB"/>
<path fill-rule="evenodd" clip-rule="evenodd" d="M160.52 107.315C160.52 107.315 170.845 109.081 166.242 119.744C163.789 125.425 149.835 145.679 149.835 145.679C149.835 145.679 146.568 137.17 141.504 134.969C141.504 134.969 151.055 127.002 156.803 122.376C165.827 115.116 160.517 107.312 160.517 107.312L160.52 107.315Z" fill="#ABCBDB"/>
<path fill-rule="evenodd" clip-rule="evenodd" d="M137.487 116.736C130.786 116.736 124.086 112.509 123.294 111.991L121.682 104.106C123.805 105.348 133.022 110.447 141.155 110.447C141.881 110.447 142.588 110.408 143.258 110.327C148.872 109.691 155.455 104.025 158.522 101.099C155.656 105.135 148.66 114.041 141.388 116.198C140.186 116.556 138.874 116.736 137.487 116.736Z" fill="#512C21"/>
<path fill-rule="evenodd" clip-rule="evenodd" d="M122.658 71.6898C121.328 71.6898 120.241 70.5409 120.015 68.8975C119.766 67.0875 120.66 65.6244 122.14 65.4186C122.232 65.4071 122.325 65.4001 122.419 65.4001C123.722 65.4001 124.911 66.6252 125.127 68.1878C125.247 69.0546 125.102 69.8822 124.719 70.5178C124.33 71.1674 123.736 71.5649 123.002 71.6667C122.886 71.6828 122.771 71.6898 122.658 71.6898Z" fill="#512C21"/>
<path fill-rule="evenodd" clip-rule="evenodd" d="M150.003 67.9012C148.7 67.9012 147.512 66.6761 147.295 65.1135C147.063 63.4192 148.034 61.8266 149.421 61.6347C149.513 61.6208 149.605 61.6162 149.699 61.6162C151.003 61.6162 152.191 62.8413 152.407 64.4039C152.522 65.243 152.354 66.0728 151.933 66.7385C151.53 67.3742 150.929 67.7926 150.282 67.8804C150.19 67.8943 150.098 67.8989 150.003 67.8989V67.9012Z" fill="#512C21"/>
<path d="M142.162 111.334C140.062 111.334 134.32 110.911 126.364 107.003C119.589 103.711 116.789 99.6057 115.115 97.1532L115.007 96.996C112.582 93.4432 110.328 88.6122 107.912 81.7886C107.73 81.2731 108 80.7068 108.511 80.5219C108.617 80.4849 108.73 80.4641 108.84 80.4641C109.257 80.4641 109.632 80.7299 109.771 81.1229C112.126 87.78 114.307 92.4655 116.633 95.8726L116.741 96.0321C118.403 98.4708 120.918 102.155 127.225 105.22C134.803 108.947 140.24 109.349 142.227 109.349C142.662 109.349 142.915 109.328 142.962 109.326C143.003 109.321 143.038 109.319 143.072 109.319C143.567 109.319 143.998 109.709 144.048 110.206C144.106 110.747 143.712 111.237 143.176 111.295C143.137 111.3 142.789 111.337 142.16 111.337L142.162 111.334Z" fill="#512C21"/>
<path d="M143.253 111.274C142.763 111.274 142.344 110.907 142.277 110.419C142.203 109.88 142.578 109.379 143.115 109.302C143.17 109.293 148.418 108.415 156.261 101.568C161.935 96.5198 164.042 91.6634 164.792 89.2201C166.117 85.2905 166.952 80.1752 167.422 73.1297C167.457 72.6027 167.883 72.2051 168.412 72.2051C168.433 72.2051 168.454 72.2051 168.477 72.2051C169.018 72.2421 169.43 72.7159 169.396 73.2591C168.914 80.4803 168.051 85.7459 166.674 89.8257C165.863 92.4631 163.607 97.6802 157.567 103.054C149.157 110.396 143.624 111.23 143.394 111.263C143.348 111.27 143.302 111.272 143.258 111.272L143.253 111.274Z" fill="#512C21"/>
<path d="M109.558 86.333C106.692 86.2891 102.591 84.4653 99.8733 80.4895C99.5648 80.0388 99.6799 79.4193 100.129 79.1118C100.295 78.9986 100.486 78.9385 100.686 78.9385C101.013 78.9385 101.317 79.1003 101.501 79.3684C103.818 82.7594 107.226 84.315 109.579 84.3497C110.123 84.359 110.56 84.8097 110.551 85.3552C110.542 85.8938 110.1 86.3307 109.563 86.3307H109.556L109.558 86.333Z" fill="#512C21"/>
<path d="M105.95 77.9123C105.667 77.9123 105.398 77.7898 105.211 77.5794L105.195 77.5609C104.877 77.2026 103.797 75.9891 103.247 75.4297C102.865 75.0414 102.867 74.4126 103.254 74.0266C103.44 73.8417 103.687 73.74 103.949 73.74C104.212 73.74 104.463 73.844 104.652 74.0336C105.331 74.7201 106.678 76.248 106.692 76.2642C106.867 76.463 106.954 76.7172 106.938 76.9807C106.922 77.2442 106.805 77.4869 106.607 77.6626C106.425 77.8244 106.192 77.9123 105.953 77.9123H105.95Z" fill="#512C21"/>
<path d="M168.574 78.1479C168.123 78.1479 167.729 77.8405 167.618 77.399C167.485 76.8697 167.805 76.3288 168.332 76.1947C169.536 75.8896 171.496 74.7223 173.05 72.4454C173.234 72.175 173.538 72.0132 173.865 72.0132C174.063 72.0132 174.257 72.0733 174.423 72.1865C174.641 72.3368 174.786 72.561 174.835 72.8222C174.883 73.0834 174.828 73.3469 174.678 73.5642C173.096 75.8826 170.904 77.5862 168.816 78.1156C168.735 78.1364 168.654 78.1456 168.572 78.1456L168.574 78.1479Z" fill="#512C21"/>
<path d="M139.518 82.748C139.327 82.748 139.141 82.6925 138.982 82.5885C138.761 82.4452 138.609 82.221 138.554 81.9621C138.498 81.7032 138.549 81.4374 138.692 81.2155C139.896 79.357 140.041 78.4555 139.949 78.0302C139.85 77.5679 139.353 77.2304 138.551 76.7173C137.55 76.0747 136.175 75.194 135.509 73.4234C133.96 69.6903 135.473 63.3868 136.186 61.2694C136.322 60.8672 136.698 60.5945 137.121 60.5945C137.23 60.5945 137.335 60.613 137.439 60.6476C137.69 60.7332 137.89 60.9088 138.008 61.1469C138.125 61.385 138.141 61.6532 138.059 61.9028C137.301 64.1542 136.127 69.7527 137.347 72.6906C137.794 73.8764 138.678 74.4427 139.615 75.0437C140.548 75.6424 141.602 76.3174 141.881 77.6095C142.141 78.8161 141.669 80.2608 140.35 82.2949C140.168 82.5769 139.857 82.7457 139.521 82.7457L139.518 82.748Z" fill="#512C21"/>
<path d="M138.388 93.7761C135.236 93.7761 132.401 93.0549 130.405 91.7489C130.184 91.6033 130.032 91.3814 129.979 91.1225C129.924 90.8636 129.974 90.5978 130.119 90.3758C130.301 90.0938 130.612 89.9274 130.948 89.9274C131.139 89.9274 131.326 89.9829 131.487 90.0892C133.147 91.1779 135.57 91.7766 138.312 91.7766C142.821 91.7766 147.039 90.1794 149.324 87.609C149.51 87.3986 149.78 87.2761 150.061 87.2761C150.302 87.2761 150.535 87.3663 150.717 87.5281C151.122 87.891 151.159 88.5197 150.797 88.9265C148.101 91.9639 143.463 93.7761 138.391 93.7761H138.388Z" fill="#512C21"/>
<path d="M116.045 56.6856C115.822 56.6856 115.61 56.6117 115.435 56.473C115.011 56.1355 114.937 55.5137 115.269 55.0884C115.384 54.9405 118.127 51.4871 123.338 51.4871C123.821 51.4871 124.316 51.5171 124.811 51.5772C125.074 51.6096 125.306 51.7413 125.47 51.9494C125.633 52.1574 125.705 52.4163 125.675 52.6798C125.615 53.1791 125.198 53.5536 124.705 53.5536C124.664 53.5536 124.622 53.5512 124.579 53.5443C124.167 53.4958 123.757 53.4703 123.358 53.4703C119.147 53.4703 116.913 56.1979 116.821 56.3135C116.632 56.5516 116.349 56.6856 116.045 56.6856Z" fill="#512C21"/>
<path d="M152.791 51.5888C152.568 51.5888 152.356 51.5148 152.181 51.3761C152.105 51.316 150.316 49.9453 147.534 49.9453C146.369 49.9453 145.185 50.1857 144.013 50.6572C143.896 50.7058 143.771 50.7289 143.645 50.7289C143.239 50.7289 142.878 50.4839 142.728 50.1071C142.526 49.6009 142.772 49.0207 143.276 48.8173C144.685 48.2487 146.115 47.9597 147.522 47.9597C151.041 47.9597 153.311 49.7442 153.406 49.8205C153.832 50.1603 153.901 50.7867 153.562 51.2143C153.374 51.4524 153.093 51.5888 152.789 51.5888H152.791Z" fill="#512C21"/>
<path d="M123.321 120.303C123.296 120.303 123.273 120.303 123.247 120.301C122.704 120.261 122.294 119.783 122.335 119.24C122.713 114.117 120.41 103.739 120.311 103.3C120.192 102.766 120.526 102.234 121.058 102.114C121.129 102.098 121.203 102.088 121.276 102.088C121.741 102.088 122.135 102.407 122.239 102.863C122.34 103.311 124.707 113.937 124.307 119.385C124.267 119.901 123.837 120.303 123.323 120.303H123.321Z" fill="#512C21"/>
<path d="M162.35 116.477C161.936 116.477 161.563 116.214 161.422 115.823C159.564 110.685 158.772 101.064 158.74 100.657C158.719 100.394 158.799 100.137 158.972 99.9362C159.145 99.7351 159.382 99.6126 159.644 99.5895C159.67 99.5895 159.695 99.5872 159.723 99.5872C160.234 99.5872 160.667 99.987 160.708 100.498C160.715 100.595 161.521 110.287 163.28 115.148C163.37 115.398 163.359 115.666 163.246 115.906C163.133 116.147 162.937 116.327 162.689 116.42C162.58 116.459 162.468 116.48 162.352 116.48L162.35 116.477Z" fill="#512C21"/>
<path d="M102.137 88.6931C101.886 88.6931 101.649 88.5983 101.464 88.4272C95.8297 83.1662 100.612 76.6848 104.831 70.9684C106.295 68.9828 107.675 67.1151 108.656 65.3191C112.252 58.9486 113.583 52.9641 114.654 48.1538C115.955 42.3011 116.984 37.6781 121.293 35.5006C121.433 35.4313 121.583 35.3943 121.737 35.3943C122.113 35.3943 122.451 35.6023 122.619 35.9398C122.863 36.4275 122.668 37.0262 122.182 37.2712C118.709 39.0257 117.816 43.0361 116.582 48.5861C115.483 53.5258 114.115 59.6697 110.38 66.2853C109.34 68.1923 107.854 70.2033 106.417 72.1496C101.614 78.6565 98.7679 83.2055 102.809 86.9779C103.208 87.3501 103.231 87.9788 102.86 88.3787C102.673 88.5798 102.411 88.6954 102.137 88.6954V88.6931Z" fill="#512C21"/>
<path d="M175.021 82.3803C174.922 82.3803 174.825 82.3665 174.731 82.3364C174.211 82.1746 173.918 81.6199 174.077 81.0975C176.156 74.3109 171.982 71.2597 165.658 66.6436C162.248 64.1518 158.387 61.3318 154.992 57.3744C151.948 53.8402 150.346 50.1394 148.794 46.5612C147.52 43.6256 146.318 40.8518 144.391 38.2883C142.166 35.2348 138.169 31.971 133.621 31.971C132.896 31.971 132.177 32.0588 131.484 32.2322C130.024 32.6251 128.592 33.4226 127.332 34.5437C127.151 34.7032 126.918 34.7933 126.678 34.7933C126.395 34.7933 126.126 34.6708 125.939 34.4605C125.578 34.0513 125.617 33.4226 126.022 33.062C127.51 31.7375 129.228 30.7875 130.991 30.3136C131.834 30.1033 132.714 29.9946 133.596 29.9946C138.91 29.9946 143.587 33.8248 145.975 37.1071C148.036 39.8463 149.342 42.8582 150.603 45.7707C152.096 49.2125 153.638 52.7722 156.487 56.08C159.734 59.8639 163.498 62.6146 166.819 65.0394C173.064 69.6023 178.457 73.5411 175.963 81.68C175.834 82.0983 175.456 82.3803 175.019 82.3803H175.021Z" fill="#512C21"/>
<path d="M85.7188 87.5536C85.4125 87.5536 85.1293 87.4149 84.9405 87.1722C76.584 76.4468 80.616 66.223 85.2859 54.3834C86.3635 51.6489 87.478 48.8219 88.4935 45.8609C89.3294 43.339 90.0916 40.8033 90.8261 38.3531L90.8423 38.2976C94.7591 25.2492 98.1418 13.9806 110.104 12.3232C110.15 12.3163 110.196 12.314 110.242 12.314C110.731 12.314 111.15 12.6815 111.216 13.1692C111.253 13.4327 111.184 13.6916 111.025 13.9043C110.866 14.1146 110.634 14.251 110.374 14.288C99.6639 15.7743 96.6059 25.9657 92.7305 38.8709L92.7167 38.9125C91.9752 41.3812 91.2084 43.9354 90.3587 46.4966C89.3294 49.4992 88.2103 52.34 87.1257 55.0884L87.1165 55.1139C82.4881 66.8494 78.8337 76.1209 86.4925 85.9517C86.656 86.1597 86.7274 86.4186 86.6951 86.6821C86.6629 86.9456 86.5316 87.1791 86.3221 87.3432C86.1471 87.4819 85.9375 87.5536 85.7142 87.5536H85.7188Z" fill="#512C21"/>
<path d="M187.302 90.547C187 90.547 186.717 90.4106 186.53 90.1748C183.113 85.8777 185.229 82.3134 187.682 78.185C189.333 75.402 191.205 72.2491 192.105 68.0467C193.627 60.7886 188.416 46.5358 179.438 33.3857C169.972 19.831 158.935 10.2914 154.122 7.84812C149.102 5.2939 144.009 3.99945 138.987 3.99945C130.437 3.99945 123.752 7.68862 119.649 10.7837C119.476 10.9132 119.271 10.9825 119.057 10.9825C118.744 10.9825 118.456 10.8392 118.267 10.5873C117.94 10.1504 118.028 9.52858 118.463 9.20035C122.813 5.9157 129.907 2 138.966 2C144.287 2 149.685 3.37304 155.009 6.07981C160.924 9.08246 172.284 19.6946 181.057 32.2553C190.468 46.0366 195.683 60.5852 194.032 68.4559C193.065 72.9818 191.018 76.4283 189.374 79.1975C186.832 83.4784 185.621 85.8546 188.071 88.9358C188.409 89.3635 188.34 89.9876 187.914 90.3297C187.737 90.4707 187.525 90.547 187.299 90.547H187.302Z" fill="#512C21"/>
<path d="M116.752 108.306C116.729 108.306 116.703 108.306 116.68 108.304C109.646 107.795 105.941 101.913 104.964 98.8729C104.884 98.621 104.904 98.3528 105.024 98.1171C105.144 97.8813 105.349 97.7079 105.6 97.6247C105.699 97.5924 105.8 97.5762 105.904 97.5762C106.334 97.5762 106.712 97.8512 106.843 98.2627C107.679 100.863 110.838 105.893 116.823 106.325C117.367 106.365 117.776 106.841 117.737 107.386C117.7 107.902 117.268 108.306 116.754 108.306H116.752Z" fill="#512C21"/>
<path d="M119.996 30.2142C119.713 30.2142 119.444 30.0916 119.257 29.8813C117.599 28.002 116.383 22.6347 118.175 18.1596C118.327 17.7829 118.686 17.5378 119.091 17.5378C119.218 17.5378 119.34 17.561 119.458 17.6095C119.702 17.7089 119.895 17.8961 119.999 18.1411C120.102 18.3839 120.105 18.6543 120.008 18.8993C118.497 22.674 119.621 27.304 120.736 28.5684C120.911 28.7672 120.998 29.0214 120.982 29.2849C120.966 29.5484 120.848 29.7911 120.65 29.9668C120.468 30.1286 120.236 30.2165 119.996 30.2165V30.2142Z" fill="#512C21"/>
<path d="M166.693 101.568C166.203 101.568 165.784 101.201 165.717 100.713C165.68 100.452 165.749 100.191 165.908 99.9779C166.067 99.7675 166.299 99.6312 166.56 99.5942C174.158 98.5401 178.92 91.6287 178.989 87.1398C178.996 86.6012 179.441 86.1643 179.977 86.1643C180.256 86.1689 180.502 86.2753 180.687 86.4648C180.871 86.6544 180.97 86.9063 180.965 87.1698C180.887 92.2598 175.809 100.313 166.831 101.559C166.785 101.566 166.739 101.568 166.695 101.568H166.693Z" fill="#512C21"/>
<path d="M102.192 105.579C101.68 105.579 101.247 105.176 101.208 104.663C100.893 100.574 98.3461 99.779 95.1223 98.7735C91.9331 97.7773 87.9633 96.5383 86.5195 91.3282C86.4481 91.0739 86.4803 90.8057 86.6116 90.5746C86.7406 90.3434 86.9524 90.177 87.2057 90.1077C87.2909 90.0846 87.3807 90.073 87.4682 90.073C87.9103 90.073 88.3018 90.3712 88.4215 90.7988C89.5752 94.9665 92.5525 95.898 95.7072 96.8827C99.0116 97.9136 102.756 99.0833 103.177 104.513C103.198 104.777 103.115 105.033 102.942 105.234C102.77 105.435 102.532 105.558 102.268 105.579C102.242 105.579 102.217 105.581 102.189 105.581L102.192 105.579Z" fill="#512C21"/>
<path d="M72.6988 206.878C72.1876 206.878 71.7547 206.476 71.7155 205.963C71.6004 204.458 69.0099 168.928 78.6835 151.24C87.6847 134.785 103.299 132.397 103.96 132.302C104.008 132.295 104.054 132.293 104.103 132.293C104.589 132.293 105.008 132.66 105.077 133.146C105.153 133.687 104.778 134.188 104.239 134.267C104.087 134.29 88.9097 136.664 80.4151 152.195C71.0385 169.337 73.6567 205.447 73.6843 205.81C73.7258 206.356 73.3182 206.832 72.7748 206.874C72.7471 206.874 72.7218 206.876 72.6988 206.876V206.878Z" fill="#512C21"/>
<path d="M70.6407 361.342C70.0926 361.317 69.6713 360.85 69.6966 360.305C69.738 359.449 73.8046 274.675 73.1805 266.85C72.9641 264.132 72.0154 259.049 70.9193 253.164C68.8607 242.126 66.3024 228.394 67.1728 222.449C69.3857 207.341 86.794 173.059 87.5332 171.607C87.7036 171.274 88.0398 171.068 88.4128 171.068C88.5694 171.068 88.7214 171.105 88.8619 171.177C89.3454 171.427 89.5388 172.025 89.2902 172.511C89.1105 172.862 71.2993 207.893 69.1255 222.738C68.3035 228.354 70.8295 241.905 72.8582 252.794C73.9658 258.739 74.9237 263.868 75.147 266.693C75.7757 274.587 71.8335 356.902 71.6654 360.402C71.6401 360.931 71.2071 361.345 70.6798 361.345H70.6683C70.6683 361.345 70.6476 361.345 70.6361 361.345L70.6407 361.342Z" fill="#512C21"/>
<path d="M116.593 144.13C116.508 144.13 116.422 144.118 116.339 144.098C115.969 143.998 115.686 143.691 115.621 143.312C115.517 142.72 113.088 128.758 113.074 123.44C113.063 119.469 114.702 114.351 122.587 112.527L122.81 112.474C122.893 112.453 122.974 112.444 123.054 112.444C123.505 112.444 123.899 112.754 124.01 113.195C124.141 113.724 123.819 114.265 123.291 114.397L123.029 114.459C117.721 115.689 115.036 118.708 115.05 123.435C115.061 127.397 116.551 136.856 117.191 140.739L117.254 141.123L117.56 140.885C118.884 139.851 121.009 138.599 123.614 138.504C123.72 138.499 123.826 138.499 123.931 138.499C124.293 138.499 124.659 138.522 125.016 138.566L125.578 138.636L125.223 138.192C121.594 133.647 117.532 126.87 118.776 120.393C118.866 119.929 119.273 119.589 119.745 119.589C119.807 119.589 119.872 119.596 119.934 119.607C120.192 119.658 120.418 119.806 120.565 120.026C120.712 120.245 120.768 120.509 120.717 120.768C119.174 128.807 127.16 137.783 130.667 141.271C131.093 141.638 131.507 142.033 131.913 142.461C132.279 142.847 132.279 143.448 131.913 143.832C131.724 144.028 131.47 144.137 131.199 144.137C130.959 144.137 130.727 144.049 130.547 143.89C130.42 143.779 129.955 143.36 129.267 142.681C127.519 141.218 125.73 140.48 123.931 140.48C123.849 140.48 123.768 140.48 123.685 140.485C119.989 140.619 117.38 143.744 117.355 143.776C117.166 144.005 116.89 144.137 116.595 144.137L116.593 144.13Z" fill="#512C21"/>
<path d="M114.221 117.796C114.577 117.4 115.183 117.332 115.621 117.653C116.059 117.975 116.176 118.572 115.906 119.031L115.847 119.121L105.05 133.844V145.701C105.078 145.793 105.093 145.891 105.093 145.993V160.632L114.979 165.514C115.25 165.648 115.443 165.895 115.508 166.191C115.572 166.487 115.499 166.792 115.308 167.028L111.029 172.292L115.485 189.364L115.937 189.332C120.177 152.666 121.733 139.859 121.751 139.716C121.811 139.219 122.232 138.844 122.731 138.844C122.771 138.844 122.812 138.846 122.852 138.85C123.112 138.883 123.347 139.015 123.508 139.222C123.669 139.43 123.742 139.69 123.71 139.953L123.705 139.988C123.518 141.535 121.741 156.251 117.152 196.014C117.097 196.488 116.715 196.856 116.24 196.89H116.171L116.169 196.897C115.72 196.897 115.328 196.592 115.213 196.158L108.989 172.309C108.909 172.004 108.98 171.676 109.18 171.431L112.991 166.744L103.668 162.139C103.334 161.975 103.117 161.623 103.117 161.249V148.565C103.012 148.402 102.95 148.208 102.95 148V133.156L114.153 117.879L114.221 117.796Z" fill="#512C21"/>
<path d="M149.832 146.671C149.512 146.671 149.211 146.511 149.026 146.248C145.768 141.557 141.107 136.493 139.258 136.493C139.226 136.493 139.194 136.493 139.164 136.498C136.988 136.696 133.642 140.991 132.042 143.649C131.862 143.95 131.544 144.128 131.197 144.128C131.017 144.128 130.842 144.079 130.688 143.985C130.462 143.848 130.303 143.631 130.239 143.374C130.177 143.118 130.216 142.852 130.352 142.625C130.828 141.833 135.114 134.877 138.982 134.524C139.053 134.517 139.127 134.514 139.201 134.514C142.526 134.514 147.608 140.943 149.641 143.707L149.832 143.966L150.016 143.703C151.58 141.453 165.332 121.586 166.285 116.88C166.851 114.085 166.536 111.929 165.345 110.468C163.635 108.367 160.551 108.309 160.521 108.309C159.978 108.309 159.534 107.865 159.534 107.317C159.534 106.769 159.976 106.325 160.521 106.325C160.685 106.325 164.551 106.358 166.874 109.213C168.456 111.156 168.91 113.87 168.219 117.275C167.107 122.763 152.326 143.864 150.645 146.254C150.461 146.518 150.159 146.673 149.839 146.673H149.835L149.832 146.671Z" fill="#512C21"/>
<path d="M139.072 136.502C138.713 136.502 138.381 136.305 138.209 135.991C138.08 135.76 138.05 135.492 138.123 135.238C138.197 134.983 138.363 134.773 138.593 134.644C138.761 134.551 155.426 125.213 162.836 113.747C163.018 113.465 163.329 113.294 163.665 113.294C163.856 113.294 164.04 113.35 164.201 113.454C164.657 113.752 164.789 114.367 164.494 114.825C156.847 126.66 140.256 135.984 139.553 136.377C139.406 136.458 139.243 136.502 139.075 136.502H139.072Z" fill="#512C21"/>
<path d="M102.194 368.83C102.141 368.83 102.086 368.825 102.026 368.816C101.768 368.772 101.54 368.628 101.388 368.413C101.236 368.199 101.176 367.935 101.22 367.674C105.148 344.279 104.425 288.521 104.08 261.723V261.559C104.006 255.991 103.949 251.59 103.949 248.802C103.949 225.916 115.133 195.859 115.246 195.559C115.388 195.175 115.761 194.916 116.171 194.916C116.289 194.916 116.406 194.937 116.519 194.979C117.028 195.171 117.286 195.744 117.095 196.255C116.982 196.553 105.924 226.415 105.924 248.802C105.924 251.601 105.982 256.046 106.056 261.675V261.698C106.403 288.562 107.126 344.436 103.168 368.002C103.088 368.481 102.68 368.83 102.196 368.83H102.194Z" fill="#512C21"/>
<path d="M237.535 216.275C237.028 216.275 236.597 215.877 236.554 215.371C236.491 214.652 230.095 143.383 218.756 130.772C210.388 121.463 187.866 120.74 181.162 120.74C179.686 120.74 178.844 120.772 178.834 120.772C178.814 120.772 178.798 120.772 178.779 120.772C178.256 120.772 177.83 120.354 177.807 119.82C177.787 119.274 178.21 118.812 178.754 118.789C178.938 118.782 179.94 118.745 181.517 118.745C185.333 118.745 192.878 118.965 200.528 120.428C209.815 122.205 216.44 125.238 220.218 129.44C232.022 142.57 238.255 212.234 238.515 215.193C238.538 215.456 238.458 215.713 238.29 215.916C238.119 216.12 237.882 216.245 237.62 216.268C237.59 216.27 237.56 216.272 237.532 216.272L237.535 216.275Z" fill="#512C21"/>
<path d="M201.857 236.741C201.406 236.741 201.012 236.433 200.902 235.994C195.808 215.84 189.784 197.031 189.114 194.951C189.027 194.68 189.047 194.412 189.167 194.177C189.287 193.941 189.492 193.765 189.743 193.684C189.844 193.652 189.946 193.633 190.049 193.633C190.477 193.633 190.855 193.908 190.986 194.318C191.051 194.516 197.471 214.354 202.818 235.504C202.951 236.033 202.631 236.574 202.104 236.708C202.023 236.729 201.94 236.738 201.86 236.738L201.857 236.741Z" fill="#512C21"/>
<path d="M195.95 237.596C195.453 237.596 195.034 237.221 194.971 236.727C193.588 225.571 194.575 212.793 194.585 212.666C194.624 212.153 195.054 211.751 195.561 211.751C195.589 211.751 195.616 211.751 195.644 211.753C195.909 211.774 196.148 211.897 196.318 212.098C196.489 212.299 196.572 212.555 196.553 212.819C196.544 212.946 195.595 225.699 196.931 236.482C196.963 236.745 196.892 237.004 196.731 237.212C196.569 237.42 196.335 237.554 196.074 237.587C196.033 237.591 195.992 237.594 195.95 237.594V237.596Z" fill="#512C21"/>
<path d="M166.079 109.038C166.577 108.82 167.153 109.019 167.414 109.483L167.462 109.579L167.717 110.127C170.443 115.695 176.136 118.016 178.683 118.465L180.309 118.752L166.518 138.377C166.513 138.567 166.456 138.751 166.348 138.911L150.187 162.699C150.002 162.969 149.694 163.13 149.362 163.13H149.321L139.086 162.638L141.667 171.79C141.764 172.136 141.667 172.508 141.414 172.762L116.25 197.847C116.064 198.032 115.817 198.133 115.555 198.133H115.55C115.34 198.133 115.14 198.069 114.97 197.944C114.576 197.657 114.449 197.133 114.668 196.696L143.724 138.758C143.892 138.423 144.23 138.212 144.605 138.212C144.76 138.212 144.909 138.247 145.05 138.319C145.285 138.437 145.46 138.642 145.543 138.892C145.626 139.142 145.605 139.412 145.487 139.648L119.799 190.874L120.167 191.141L139.606 171.764L136.809 161.85C136.721 161.545 136.787 161.212 136.985 160.964C137.174 160.726 137.46 160.59 137.769 160.59H137.811L148.865 161.122L164.463 138.162C164.422 137.902 164.478 137.628 164.641 137.396L176.761 120.147C173.5 119.14 168.473 116.456 165.829 111.049L165.538 110.42L165.5 110.32C165.337 109.813 165.581 109.256 166.079 109.038Z" fill="#512C21"/>
</g>
</g>
<defs>
<clipPath id="clip0_665_1745">
<rect width="279" height="214" fill="white" transform="translate(0.5)"/>
</clipPath>
<clipPath id="clip1_665_1745">
<rect width="240" height="369" fill="white" transform="translate(67 2)"/>
</clipPath>
</defs>
</svg>
