<svg width="220" height="220" viewBox="0 0 220 220" fill="none" xmlns="http://www.w3.org/2000/svg">
<rect width="220" height="220" rx="110" fill="#A3BD8A"/>
<g filter="url(#filter0_d_376_313)">
<path fill-rule="evenodd" clip-rule="evenodd" d="M119.611 146.697C120.004 146.697 120.355 146.452 120.49 146.083C120.625 145.714 120.516 145.3 120.216 145.046C114.785 140.45 111.334 133.586 111.334 125.921C111.334 114.303 119.261 104.522 129.999 101.697C130.41 101.589 130.697 101.217 130.697 100.792V88.3354C130.697 85.4433 129.548 82.6698 127.503 80.6249C125.458 78.5799 122.685 77.4312 119.792 77.4312H101.535C101.034 77.4312 100.622 77.8253 100.6 78.326C100.527 79.9795 101.044 81.5143 102.032 82.699C103.15 84.0406 104.615 85.1332 106.485 85.3552C106.521 85.3597 106.558 85.3619 106.595 85.3619C107.008 85.3619 107.343 85.6968 107.343 86.1094C107.343 86.5219 107.008 86.8572 106.595 86.8572C106.558 86.8572 106.521 86.8595 106.485 86.8635C104.008 87.1574 101.711 86.2792 99.9335 84.797C98.0859 83.2563 97.0652 80.8837 96.8809 78.3008C96.8463 77.8105 96.4382 77.4312 95.947 77.4312H76.6944C76.1933 77.4312 75.7812 77.8253 75.7591 78.326C75.6863 79.9795 76.2027 81.5143 77.1906 82.699C78.3093 84.0406 79.774 85.1332 81.6441 85.3552C81.6805 85.3597 81.7173 85.3619 81.7542 85.3619C82.1668 85.3619 82.5021 85.6968 82.5021 86.1094C82.5021 86.5219 82.1668 86.8572 81.7542 86.8572C81.7173 86.8572 81.6805 86.8595 81.6441 86.8635C79.1668 87.1574 76.8697 86.2792 75.0926 84.797C73.245 83.2563 72.2243 80.8837 72.04 78.3008C72.0054 77.8105 71.5973 77.4312 71.1061 77.4312H67.4589C64.5668 77.4312 61.7933 78.5799 59.7484 80.6249C57.7034 82.6698 56.5542 85.4433 56.5542 88.3354V135.792C56.5542 138.685 57.7034 141.458 59.7484 143.504C61.7933 145.548 64.5668 146.697 67.4589 146.697H119.611Z" fill="#F2E1CC"/>
<path fill-rule="evenodd" clip-rule="evenodd" d="M120.553 106.515C111.553 110.872 105.341 120.094 105.341 130.756C105.341 136.72 107.284 142.233 110.572 146.697H119.61C120.003 146.697 120.355 146.452 120.49 146.083C120.625 145.714 120.515 145.3 120.215 145.046C114.784 140.45 111.334 133.586 111.334 125.92C111.334 118.098 114.927 111.109 120.553 106.515Z" fill="#F0D1BE"/>
<path fill-rule="evenodd" clip-rule="evenodd" d="M104.986 77.4312H101.535C101.034 77.4312 100.622 77.8253 100.6 78.326C100.527 79.9795 101.044 81.5143 102.032 82.699C103.15 84.0406 104.615 85.1332 106.485 85.3552C106.521 85.3597 106.558 85.3619 106.595 85.3619C107.008 85.3619 107.343 85.6968 107.343 86.1094C107.343 86.5219 107.008 86.8572 106.595 86.8572C106.558 86.8572 106.521 86.8595 106.485 86.8635C104.808 87.0626 103.214 86.7246 101.808 86.0258C103.819 87.5314 106.33 88.3745 109.016 88.0694C110.388 88.0401 111.497 86.913 111.497 85.5291C111.497 84.1462 110.39 83.0199 109.014 82.9894C107.712 82.819 106.712 82.0028 105.926 81.0595C105.231 80.2267 104.89 79.1368 104.962 77.9696C104.964 77.9471 104.965 77.9246 104.964 77.9022C104.962 77.7426 104.97 77.5858 104.986 77.4312ZM80.8994 77.4312H76.6945C76.1934 77.4312 75.7812 77.8253 75.7592 78.326C75.6864 79.9795 76.2028 81.5143 77.1907 82.699C78.3093 84.0406 79.774 85.1332 81.6442 85.3552C81.6806 85.3597 81.7174 85.3619 81.7543 85.3619C82.1669 85.3619 82.5021 85.6968 82.5021 86.1094C82.5021 86.5219 82.1669 86.8572 81.7543 86.8572C81.7174 86.8572 81.6806 86.8595 81.6442 86.8635C80.6127 86.9862 79.6123 86.9053 78.668 86.6622C80.4963 87.7601 82.65 88.3287 84.93 88.0694C86.3021 88.0401 87.4109 86.913 87.4109 85.5291C87.4109 84.1462 86.3035 83.0199 84.9282 82.9894C83.6257 82.819 82.6262 82.0028 81.8397 81.0595C81.1448 80.2267 80.8033 79.1368 80.8761 77.9696C80.8779 77.9471 80.8783 77.9246 80.8779 77.9022C80.8761 77.7426 80.8833 77.5858 80.8994 77.4312Z" fill="#EBC7B0"/>
<path fill-rule="evenodd" clip-rule="evenodd" d="M70.612 131.636H106.519C107.036 131.636 107.456 131.217 107.456 130.7C107.456 130.183 107.036 129.764 106.519 129.764H70.612C70.0951 129.764 69.6758 130.183 69.6758 130.7C69.6758 131.217 70.0951 131.636 70.612 131.636ZM70.612 116.684H112.468C112.985 116.684 113.404 116.264 113.404 115.747C113.404 115.231 112.985 114.811 112.468 114.811H70.612C70.0951 114.811 69.6758 115.231 69.6758 115.747C69.6758 116.264 70.0951 116.684 70.612 116.684ZM76.0439 101.732H116.64C117.156 101.732 117.576 101.312 117.576 100.795C117.576 100.279 117.156 99.8589 116.64 99.8589H76.0439C75.527 99.8589 75.1077 100.279 75.1077 100.795C75.1077 101.312 75.527 101.732 76.0439 101.732Z" fill="#4E3B56"/>
<path fill-rule="evenodd" clip-rule="evenodd" d="M111.687 77.4312H117.086C117.025 74.8298 115.953 72.459 114.319 70.6114C112.44 68.4864 109.703 67.2037 106.65 67.0249C106.646 67.0244 106.642 67.0244 106.638 67.024C103.492 66.8788 100.597 68.0887 98.4718 70.0932C96.3163 72.1264 95.0421 75.0496 95.003 78.2433C95.003 78.2667 95.0035 78.29 95.0048 78.3129C95.2017 81.4703 96.4803 84.3556 98.7338 86.2352C100.882 88.0271 103.664 89.0694 106.656 88.7291C108.072 88.699 109.215 87.5368 109.215 86.1094C109.215 84.6833 108.073 83.5215 106.654 83.4896C105.311 83.3143 104.281 82.472 103.47 81.4995C102.753 80.6406 102.401 79.5165 102.476 78.3129C102.477 78.29 102.478 78.2667 102.478 78.2433C102.464 77.0914 102.917 76.0491 103.651 75.272C104.418 74.4581 105.434 73.832 106.638 73.7763C106.642 73.7759 106.646 73.7759 106.65 73.7754C107.941 73.6999 109.159 74.0783 110.058 74.8729C110.817 75.5449 111.418 76.4159 111.687 77.4312ZM86.8462 77.4312H92.2453C92.1837 74.8298 91.1122 72.459 89.4785 70.6114C87.599 68.4864 84.8619 67.2037 81.8089 67.0249C81.8053 67.0244 81.8012 67.0244 81.7972 67.024C78.6515 66.8788 75.7563 68.0887 73.6309 70.0932C71.4754 72.1264 70.2012 75.0496 70.1621 78.2433C70.1621 78.2667 70.1626 78.29 70.1639 78.3129C70.3608 81.4703 71.6394 84.3556 73.8929 86.2352C76.0412 88.0271 78.8228 89.0694 81.8156 88.7291C83.2309 88.699 84.3742 87.5368 84.3742 86.1094C84.3742 84.6833 83.2322 83.5215 81.8138 83.4896C80.4704 83.3143 79.4399 82.472 78.6286 81.4995C77.9122 80.6406 77.5599 79.5165 77.6349 78.3129C77.6363 78.29 77.6367 78.2667 77.6367 78.2433C77.6228 77.0914 78.0763 76.0491 78.8097 75.272C79.5774 74.4581 80.5927 73.832 81.7972 73.7763C81.8012 73.7759 81.8053 73.7759 81.8089 73.7754C83.1001 73.6999 84.3181 74.0783 85.2169 74.8729C85.9765 75.5449 86.5774 76.4159 86.8462 77.4312Z" fill="#FEB33F"/>
<path fill-rule="evenodd" clip-rule="evenodd" d="M105.359 129.764C105.347 130.093 105.341 130.424 105.341 130.757C105.341 131.051 105.345 131.344 105.355 131.637H106.518C107.035 131.637 107.455 131.217 107.455 130.701C107.455 130.184 107.035 129.764 106.518 129.764H105.359ZM110.575 114.812C110.129 115.417 109.708 116.042 109.313 116.685H112.467C112.984 116.685 113.404 116.265 113.404 115.748C113.404 115.232 112.984 114.812 112.467 114.812H110.575Z" fill="#3A2D3F"/>
<path d="M136.379 152.838C151.245 152.838 163.296 140.787 163.296 125.921C163.296 111.055 151.245 99.0034 136.379 99.0034C121.513 99.0034 109.461 111.055 109.461 125.921C109.461 140.787 121.513 152.838 136.379 152.838Z" fill="#FCC369"/>
<path d="M136.378 147.711C148.413 147.711 158.169 137.955 158.169 125.92C158.169 113.886 148.413 104.129 136.378 104.129C124.344 104.129 114.587 113.886 114.587 125.92C114.587 137.955 124.344 147.711 136.378 147.711Z" fill="#DAEEFF"/>
<path fill-rule="evenodd" clip-rule="evenodd" d="M142.686 128.245C142.438 128.032 141.47 127.208 140.436 126.424C140.149 126.206 139.858 125.994 139.583 125.797C139.565 125.366 139.497 124.04 139.445 123.403C139.232 120.791 138.903 117.836 138.858 117.439C138.829 116.1 137.729 115.019 136.378 115.019C135.026 115.019 133.925 116.103 133.898 117.449C133.853 117.846 133.524 120.796 133.312 123.403C133.253 124.133 133.202 124.831 133.181 125.441C133.145 126.53 133.17 127.326 133.176 127.475C133.176 127.478 133.176 127.482 133.176 127.486C133.183 128.622 133.792 129.67 134.777 130.239C134.793 130.248 134.809 130.257 134.825 130.265C134.825 130.265 136.14 130.925 137.505 131.5C138.715 132.01 139.927 132.44 140.218 132.542C141.374 133.157 142.84 132.742 143.51 131.583C144.178 130.426 143.807 128.952 142.686 128.245Z" fill="#545EA1"/>
<path fill-rule="evenodd" clip-rule="evenodd" d="M135.503 147.694C135.792 147.706 136.084 147.712 136.378 147.712C136.671 147.712 136.964 147.706 137.253 147.694L137.035 144.322C137.035 143.96 136.74 143.666 136.378 143.666C136.016 143.666 135.721 143.96 135.721 144.322L135.503 147.694ZM151.177 141.91C151.589 141.528 151.986 141.131 152.367 140.72L149.854 138.468C149.598 138.212 149.182 138.212 148.925 138.468C148.669 138.724 148.669 139.14 148.925 139.396L151.177 141.91ZM120.389 140.72C120.771 141.132 121.167 141.528 121.579 141.91L123.831 139.396C124.087 139.14 124.087 138.724 123.831 138.468C123.574 138.212 123.158 138.212 122.902 138.468L120.389 140.72ZM158.152 125.046L154.779 125.264C154.417 125.264 154.123 125.558 154.123 125.92C154.123 126.283 154.417 126.577 154.779 126.577L158.152 126.795C158.163 126.506 158.169 126.214 158.169 125.92C158.169 125.627 158.163 125.335 158.152 125.046ZM114.604 125.046C114.593 125.335 114.587 125.627 114.587 125.92C114.587 126.214 114.593 126.506 114.604 126.795L117.977 126.577C118.339 126.577 118.633 126.283 118.633 125.92C118.633 125.558 118.339 125.264 117.977 125.264L114.604 125.046ZM151.177 109.932L148.925 112.445C148.669 112.701 148.669 113.117 148.925 113.373C149.182 113.629 149.598 113.629 149.854 113.373L152.367 111.121C151.986 110.71 151.589 110.313 151.177 109.932ZM121.579 109.932C121.167 110.313 120.77 110.71 120.389 111.121L122.902 113.373C123.158 113.629 123.574 113.629 123.831 113.373C124.087 113.117 124.087 112.701 123.831 112.445L121.579 109.932ZM135.503 104.147L135.721 107.52C135.721 107.882 136.016 108.176 136.378 108.176C136.74 108.176 137.035 107.882 137.035 107.52L137.253 104.147C136.964 104.135 136.671 104.129 136.378 104.129C136.084 104.129 135.792 104.135 135.503 104.147Z" fill="#545EA1"/>
</g>
<defs>
<filter id="filter0_d_376_313" x="42.5542" y="55.0122" width="134.742" height="113.826" filterUnits="userSpaceOnUse" color-interpolation-filters="sRGB">
<feFlood flood-opacity="0" result="BackgroundImageFix"/>
<feColorMatrix in="SourceAlpha" type="matrix" values="0 0 0 0 0 0 0 0 0 0 0 0 0 0 0 0 0 0 127 0" result="hardAlpha"/>
<feOffset dy="2"/>
<feGaussianBlur stdDeviation="7"/>
<feComposite in2="hardAlpha" operator="out"/>
<feColorMatrix type="matrix" values="0 0 0 0 0 0 0 0 0 0 0 0 0 0 0 0 0 0 0.25 0"/>
<feBlend mode="normal" in2="BackgroundImageFix" result="effect1_dropShadow_376_313"/>
<feBlend mode="normal" in="SourceGraphic" in2="effect1_dropShadow_376_313" result="shape"/>
</filter>
</defs>
</svg>
