<svg width="66" height="66" viewBox="0 0 66 66" fill="none" xmlns="http://www.w3.org/2000/svg">
<rect width="66" height="66" fill="#E33821"/>
<path d="M32.3379 21.002C32.1583 20.988 31.9815 21.0469 31.8496 21.1676C31.7176 21.2882 31.6419 21.4593 31.6419 21.6389V25.9004H25.9609C25.6072 25.9004 25.3181 26.1866 25.3181 26.5429V31.5731H19.6428C19.2891 31.5731 19 31.8593 19 32.2156V38.5335C19 38.887 19.2863 39.176 19.6428 39.176H25.5118V44.8795C25.5118 45.233 25.7981 45.522 26.1546 45.522H32.4755C32.8291 45.522 33.1182 45.2358 33.1182 44.8795V39.4677C33.1491 39.5295 33.1828 39.5912 33.2165 39.6529C33.3259 39.8465 34.8893 42.0881 35.8689 42.2227C36.3882 42.2957 37.4239 42.1806 37.6288 42.1554C37.9207 42.1217 38.1508 41.8945 38.1901 41.6027L38.3585 40.3458C38.3726 40.2505 38.3614 40.1523 38.3305 40.0597C38.2996 39.9643 38.2435 39.8268 38.1677 39.7174C37.9712 39.4425 37.7018 39.19 37.4379 38.9459C37.2246 38.7495 37.0057 38.5447 36.8597 38.3568C36.2422 37.5544 36.1973 36.8418 36.739 36.3985C37.2527 35.9777 38.1705 35.9384 38.7515 36.6089C38.7571 36.6174 38.7655 36.623 38.7711 36.6314C38.7655 36.6566 38.7599 36.6847 38.7543 36.7071C38.7122 36.8755 38.6757 37.0354 38.6645 37.1785C38.5831 38.2866 38.5999 40.2505 39.63 40.9771C39.8041 41.1005 40.0454 41.238 40.3738 41.2184C40.5086 41.2099 40.7135 41.1847 40.9408 41.036C42.7737 39.8549 42.1758 37.5965 41.9793 36.853C41.9316 36.6679 41.8642 36.5136 41.8081 36.3901C41.7885 36.3452 41.766 36.2919 41.7492 36.2498C41.7548 36.2442 41.7632 36.2358 41.7744 36.2274C42.0748 35.9497 42.5744 35.8346 43.0122 35.9384C43.2536 35.9973 43.5708 36.1404 43.7083 36.5079C44.4241 38.4185 41.8586 40.9995 41.0166 41.8496C40.8903 41.9758 40.6826 42.1526 40.4636 42.3434C39.8462 42.8736 39.3915 43.2776 39.1922 43.6479C39.0659 43.8808 38.8329 44.3128 39.1024 44.7252C39.2595 44.9637 39.5178 45.0871 39.8742 45.0871C39.9219 45.0871 39.9697 45.0871 40.023 45.0815C40.4917 45.0422 41.345 44.7505 43.335 42.6968C44.0564 41.9534 45.3756 40.5002 46.1222 39.1283C47.0063 37.5011 46.7509 35.6018 45.4682 34.2916C44.8928 33.7025 44.1911 33.3237 43.4417 33.161H46.3579C46.5656 33.161 46.7621 33.06 46.8828 32.8889C47.0035 32.7177 47.0316 32.5017 46.9642 32.3053C44.7272 26.0182 38.9901 21.5856 32.3492 21.0076L32.3379 21.002ZM32.4727 44.8767H26.1517V38.5588H32.4727V44.8767ZM45.5524 38.8169C44.9181 39.9811 43.7869 41.2969 42.8691 42.2452C42.2909 42.8427 40.764 44.3689 39.964 44.4362C39.5093 44.4755 39.5711 44.2819 39.7535 43.9481C39.9949 43.4992 41.0475 42.7221 41.4713 42.2985C42.8607 40.9013 45.1089 38.4129 44.309 36.2807C43.8655 35.0968 42.1926 34.9677 41.3394 35.7533C40.8482 36.205 41.2187 36.4939 41.359 37.0157C41.6902 38.2586 41.8221 39.7034 40.5928 40.4945C40.4917 40.5591 40.4075 40.5703 40.3345 40.5759C40.2279 40.5815 40.1409 40.5506 39.9977 40.4497C39.2258 39.9054 39.2371 38.0846 39.3016 37.2233C39.3157 37.0326 39.456 36.6061 39.442 36.4883C39.4364 36.4266 39.2848 36.2442 39.2343 36.1881C37.6709 34.387 34.3336 36.132 36.3517 38.7467C36.7166 39.218 37.3341 39.6529 37.6428 40.0849C37.6821 40.1382 37.7214 40.2589 37.7214 40.2589L37.553 41.5157C37.553 41.5157 36.419 41.6476 35.9559 41.5831C35.4282 41.5101 34.0529 39.8296 33.775 39.3359C32.9667 37.8939 33.1575 35.7785 34.4374 34.6647C35.7482 33.5229 37.2611 33.4724 38.8273 34.1008C39.0406 34.1878 39.8939 34.7012 39.9753 34.7096C40.1212 34.7237 40.7359 34.2243 40.9464 34.1149C44.0592 32.5157 47.1747 35.843 45.5552 38.8141L45.5524 38.8169ZM40.6489 33.5454C40.5366 33.6043 40.4131 33.6884 40.2195 33.8259C40.1549 33.8708 40.0595 33.9381 39.9753 33.9942C39.8967 33.9522 39.8125 33.9045 39.7423 33.8652C39.4111 33.6772 39.2006 33.5622 39.0631 33.5061C37.1488 32.7346 35.403 32.9674 34.0108 34.1794C32.9835 35.0743 32.5064 36.536 32.6691 37.95C32.6074 37.9303 32.5428 37.9163 32.4727 37.9163H26.6036V33.5005H32.2846C32.6383 33.5005 32.9274 33.2143 32.9274 32.858V27.1797H37.8814V32.5101C37.8814 32.8636 38.1677 33.1526 38.5241 33.1526H41.7576C41.3843 33.2311 41.0138 33.3574 40.6545 33.5425L40.6489 33.5454ZM38.5213 32.5129V26.5429H32.2846V32.8608H25.9637V38.5307H19.6428V32.2127H25.9637V26.5429H32.2846V21.6417C38.8048 22.2056 44.2388 26.5737 46.3495 32.5157H38.5213V32.5129Z" fill="white"/>
<path d="M32.4727 38.559H26.1517V44.8769H32.4727V38.559Z" fill="#FF923E"/>
<path d="M25.9635 26.543V32.2129H19.6426V38.5308H25.9635V32.8609H32.2844V26.543H25.9635Z" fill="#2C82AC"/>
<path d="M32.2843 21.6418V26.543H38.521V32.5131H46.3492C44.2357 26.5739 38.8045 22.2057 32.2843 21.639V21.6418Z" fill="#FFD243"/>
<path d="M40.9431 34.115C40.7298 34.2244 40.1179 34.7238 39.972 34.7098C39.8906 34.7014 39.0401 34.188 38.824 34.101C37.2578 33.4698 35.7449 33.5231 34.4341 34.6649C33.157 35.7787 32.9634 37.894 33.7717 39.336C34.0496 39.8298 35.4249 41.5103 35.9526 41.5832C36.4157 41.6477 37.5497 41.5159 37.5497 41.5159L37.7181 40.259C37.7181 40.259 37.6788 40.1384 37.6395 40.0851C37.3336 39.6531 36.7133 39.2182 36.3484 38.7469C34.3331 36.1322 37.6676 34.3872 39.231 36.1883C39.2815 36.2472 39.433 36.4295 39.4387 36.4885C39.4527 36.6063 39.3124 37.0327 39.2983 37.2235C39.2338 38.0848 39.2225 39.9055 39.9944 40.4498C40.1376 40.5508 40.2246 40.5817 40.3312 40.5761C40.4042 40.5704 40.4884 40.5592 40.5895 40.4947C41.8188 39.7035 41.6841 38.2587 41.3557 37.0159C41.2154 36.4913 40.8449 36.2051 41.3361 35.7534C42.1893 34.9679 43.8622 35.0969 44.3057 36.2809C45.1056 38.413 42.8574 40.9015 41.468 42.2986C41.047 42.7251 39.9944 43.5022 39.7502 43.9482C39.5706 44.2821 39.506 44.4757 39.9607 44.4364C40.7607 44.3691 42.2876 42.8429 42.8658 42.2453C43.7836 41.2971 44.9175 39.9813 45.5491 38.817C47.1686 35.8432 44.053 32.5187 40.9403 34.1178L40.9431 34.115Z" fill="#2C82AC"/>
</svg>
