<svg width="333" height="57" viewBox="0 0 333 57" fill="none" xmlns="http://www.w3.org/2000/svg">
<path d="M82.8394 12L83.4898 3.41602H85.2124L87.3335 9.41016L87.6616 10.5293H87.7788L88.1011 9.41016L90.2281 3.41602H91.9566L92.607 12H91.4761L91.0191 5.26172L90.9722 4.03125H90.8609L90.521 5.20312L88.2007 11.8242H87.1636L84.8198 5.21484L84.4683 4.03125H84.357L84.3218 5.25L83.8648 12H82.8394ZM95.097 12V3.41602H100.13L99.9544 4.32422H96.2454V7.06641H99.5501L99.3743 7.97461H96.2454V11.0918H100.224L100.048 12H95.097ZM102.509 3.41602H105.409C106.167 3.41602 106.831 3.52148 107.401 3.73242C107.976 3.93945 108.454 4.22266 108.837 4.58203C109.22 4.94141 109.507 5.36523 109.698 5.85352C109.894 6.3418 109.991 6.86328 109.991 7.41797C109.991 7.77734 109.95 8.14062 109.868 8.50781C109.786 8.87109 109.659 9.22266 109.487 9.5625C109.319 9.90234 109.106 10.2207 108.849 10.5176C108.591 10.8145 108.284 11.0723 107.929 11.291C107.577 11.5098 107.175 11.6836 106.722 11.8125C106.273 11.9375 105.773 12 105.222 12H102.509V3.41602ZM103.657 11.0918H105.433C105.999 11.0918 106.493 11.002 106.915 10.8223C107.337 10.6387 107.685 10.3926 107.958 10.084C108.235 9.77148 108.442 9.4082 108.579 8.99414C108.716 8.57617 108.784 8.13086 108.784 7.6582C108.784 7.14258 108.704 6.67969 108.544 6.26953C108.388 5.85547 108.157 5.50586 107.853 5.2207C107.552 4.93164 107.179 4.71094 106.733 4.55859C106.292 4.40234 105.788 4.32422 105.222 4.32422H103.657V11.0918ZM113.53 12H112.382V3.41602H113.53V12ZM116.061 12L116.711 3.41602H118.434L120.555 9.41016L120.883 10.5293H121.001L121.323 9.41016L123.45 3.41602H125.178L125.829 12H124.698L124.241 5.26172L124.194 4.03125H124.083L123.743 5.20312L121.422 11.8242H120.385L118.042 5.21484L117.69 4.03125H117.579L117.544 5.25L117.086 12H116.061ZM132.244 11.209C132.694 11.209 133.104 11.1191 133.475 10.9395C133.85 10.7598 134.172 10.5137 134.442 10.2012C134.711 9.88477 134.92 9.51562 135.069 9.09375C135.217 8.67188 135.291 8.2168 135.291 7.72852C135.291 7.2168 135.209 6.74609 135.045 6.31641C134.885 5.88281 134.662 5.50977 134.377 5.19727C134.096 4.88477 133.764 4.64258 133.381 4.4707C133.002 4.29492 132.594 4.20703 132.157 4.20703C131.7 4.20703 131.284 4.30078 130.909 4.48828C130.537 4.67188 130.219 4.92188 129.953 5.23828C129.688 5.55469 129.481 5.92578 129.332 6.35156C129.188 6.77344 129.116 7.22461 129.116 7.70508C129.116 8.2168 129.196 8.6875 129.356 9.11719C129.516 9.54297 129.737 9.91211 130.018 10.2246C130.299 10.5332 130.629 10.7754 131.008 10.9512C131.391 11.123 131.803 11.209 132.244 11.209ZM132.045 12.1172C131.498 12.1172 130.975 12.0195 130.475 11.8242C129.975 11.6289 129.534 11.3496 129.151 10.9863C128.772 10.623 128.469 10.1836 128.243 9.66797C128.02 9.14844 127.909 8.56641 127.909 7.92188C127.909 7.47656 127.963 7.05469 128.073 6.65625C128.186 6.25391 128.342 5.88281 128.541 5.54297C128.741 5.19922 128.977 4.88867 129.25 4.61133C129.528 4.33398 129.832 4.09961 130.164 3.9082C130.496 3.71289 130.848 3.5625 131.219 3.45703C131.594 3.35156 131.981 3.29883 132.379 3.29883C132.735 3.29883 133.082 3.3418 133.422 3.42773C133.766 3.51367 134.09 3.63867 134.395 3.80273C134.703 3.9668 134.985 4.16992 135.239 4.41211C135.496 4.6543 135.719 4.92969 135.907 5.23828C136.094 5.54688 136.239 5.89062 136.34 6.26953C136.446 6.64453 136.498 7.05078 136.498 7.48828C136.498 7.92969 136.444 8.35156 136.334 8.75391C136.229 9.15625 136.076 9.5293 135.877 9.87305C135.682 10.2129 135.448 10.5215 135.174 10.7988C134.905 11.0762 134.604 11.3125 134.272 11.5078C133.944 11.7031 133.59 11.8535 133.211 11.959C132.836 12.0645 132.448 12.1172 132.045 12.1172ZM143.471 9.66797H139.768L138.965 12H137.881L141.074 3.41602H142.293L145.492 12H144.285L143.471 9.66797ZM143.149 8.77148L142.012 5.41992L141.678 4.22461H141.561L141.227 5.41992L140.078 8.77148H143.149ZM150.103 12L150.754 3.41602H152.476L154.597 9.41016L154.925 10.5293H155.043L155.365 9.41016L157.492 3.41602H159.22L159.871 12H158.74L158.283 5.26172L158.236 4.03125H158.125L157.785 5.20312L155.464 11.8242H154.427L152.084 5.21484L151.732 4.03125H151.621L151.586 5.25L151.129 12H150.103ZM162.361 12V3.41602H167.394L167.218 4.32422H163.509V7.06641H166.814L166.638 7.97461H163.509V11.0918H167.488L167.312 12H162.361ZM169.773 3.41602H172.673C173.431 3.41602 174.095 3.52148 174.665 3.73242C175.239 3.93945 175.718 4.22266 176.101 4.58203C176.484 4.94141 176.771 5.36523 176.962 5.85352C177.157 6.3418 177.255 6.86328 177.255 7.41797C177.255 7.77734 177.214 8.14062 177.132 8.50781C177.05 8.87109 176.923 9.22266 176.751 9.5625C176.583 9.90234 176.37 10.2207 176.112 10.5176C175.855 10.8145 175.548 11.0723 175.193 11.291C174.841 11.5098 174.439 11.6836 173.985 11.8125C173.536 11.9375 173.036 12 172.485 12H169.773V3.41602ZM170.921 11.0918H172.696C173.263 11.0918 173.757 11.002 174.179 10.8223C174.601 10.6387 174.948 10.3926 175.222 10.084C175.499 9.77148 175.706 9.4082 175.843 8.99414C175.98 8.57617 176.048 8.13086 176.048 7.6582C176.048 7.14258 175.968 6.67969 175.808 6.26953C175.651 5.85547 175.421 5.50586 175.116 5.2207C174.816 4.93164 174.443 4.71094 173.997 4.55859C173.556 4.40234 173.052 4.32422 172.485 4.32422H170.921V11.0918ZM180.794 12H179.645V3.41602H180.794V12ZM190.075 11.1738C189.856 11.3652 189.618 11.5234 189.36 11.6484C189.102 11.7695 188.842 11.8652 188.581 11.9355C188.319 12.0059 188.067 12.0527 187.825 12.0762C187.587 12.1035 187.376 12.1172 187.192 12.1172C186.626 12.1172 186.098 12.0176 185.61 11.8184C185.122 11.6152 184.696 11.3301 184.333 10.9629C183.973 10.5957 183.69 10.1543 183.483 9.63867C183.28 9.11914 183.178 8.54102 183.178 7.9043C183.178 7.42773 183.237 6.98242 183.354 6.56836C183.471 6.1543 183.635 5.77734 183.846 5.4375C184.057 5.09766 184.307 4.79492 184.596 4.5293C184.885 4.26367 185.204 4.04102 185.551 3.86133C185.899 3.67773 186.268 3.53906 186.659 3.44531C187.049 3.34766 187.45 3.29883 187.86 3.29883C188.13 3.29883 188.454 3.32422 188.833 3.375C189.212 3.42188 189.618 3.50977 190.051 3.63867L189.852 4.6582L189.735 4.7168C189.305 4.52148 188.905 4.38867 188.534 4.31836C188.167 4.24414 187.854 4.20703 187.596 4.20703C187.128 4.20703 186.696 4.29883 186.301 4.48242C185.907 4.66211 185.567 4.91016 185.282 5.22656C184.997 5.53906 184.774 5.9043 184.614 6.32227C184.454 6.74023 184.374 7.18555 184.374 7.6582C184.374 8.11133 184.444 8.55078 184.585 8.97656C184.729 9.39844 184.94 9.77344 185.217 10.1016C185.495 10.4258 185.837 10.6875 186.243 10.8867C186.649 11.082 187.116 11.1797 187.643 11.1797C187.796 11.1797 187.964 11.1699 188.147 11.1504C188.331 11.1309 188.526 11.0957 188.733 11.0449C188.94 10.9902 189.157 10.9199 189.383 10.834C189.61 10.7441 189.84 10.6289 190.075 10.4883V11.1738ZM197.065 9.66797H193.362L192.559 12H191.475L194.668 3.41602H195.887L199.086 12H197.879L197.065 9.66797ZM196.743 8.77148L195.606 5.41992L195.272 4.22461H195.155L194.821 5.41992L193.672 8.77148H196.743ZM201.072 12V3.41602H202.221V11.0918H205.772L205.596 12H201.072ZM217.133 11.1738C216.914 11.3652 216.675 11.5234 216.418 11.6484C216.16 11.7695 215.9 11.8652 215.638 11.9355C215.377 12.0059 215.125 12.0527 214.883 12.0762C214.644 12.1035 214.433 12.1172 214.25 12.1172C213.683 12.1172 213.156 12.0176 212.668 11.8184C212.179 11.6152 211.754 11.3301 211.39 10.9629C211.031 10.5957 210.748 10.1543 210.541 9.63867C210.338 9.11914 210.236 8.54102 210.236 7.9043C210.236 7.42773 210.295 6.98242 210.412 6.56836C210.529 6.1543 210.693 5.77734 210.904 5.4375C211.115 5.09766 211.365 4.79492 211.654 4.5293C211.943 4.26367 212.261 4.04102 212.609 3.86133C212.957 3.67773 213.326 3.53906 213.716 3.44531C214.107 3.34766 214.508 3.29883 214.918 3.29883C215.187 3.29883 215.511 3.32422 215.89 3.375C216.269 3.42188 216.675 3.50977 217.109 3.63867L216.91 4.6582L216.793 4.7168C216.363 4.52148 215.963 4.38867 215.591 4.31836C215.224 4.24414 214.912 4.20703 214.654 4.20703C214.185 4.20703 213.754 4.29883 213.359 4.48242C212.965 4.66211 212.625 4.91016 212.34 5.22656C212.054 5.53906 211.832 5.9043 211.672 6.32227C211.511 6.74023 211.431 7.18555 211.431 7.6582C211.431 8.11133 211.502 8.55078 211.642 8.97656C211.787 9.39844 211.998 9.77344 212.275 10.1016C212.552 10.4258 212.894 10.6875 213.3 10.8867C213.707 11.082 214.174 11.1797 214.701 11.1797C214.853 11.1797 215.021 11.1699 215.205 11.1504C215.388 11.1309 215.584 11.0957 215.791 11.0449C215.998 10.9902 216.215 10.9199 216.441 10.834C216.668 10.7441 216.898 10.6289 217.133 10.4883V11.1738ZM219.347 12V3.41602H220.496V11.0918H224.046L223.871 12H219.347ZM227.181 12H226.032V3.41602H227.181V12ZM229.917 12V3.41602H231.587L235.636 9.27539L236.222 10.3301H236.339L236.257 9.13477V3.41602H237.306V12H236.333L231.528 5.08594L231.001 4.06641H230.884L230.966 5.26172V12H229.917ZM241.196 12H240.048V3.41602H241.196V12ZM250.477 11.1738C250.258 11.3652 250.02 11.5234 249.762 11.6484C249.504 11.7695 249.245 11.8652 248.983 11.9355C248.721 12.0059 248.469 12.0527 248.227 12.0762C247.989 12.1035 247.778 12.1172 247.594 12.1172C247.028 12.1172 246.5 12.0176 246.012 11.8184C245.524 11.6152 245.098 11.3301 244.735 10.9629C244.375 10.5957 244.092 10.1543 243.885 9.63867C243.682 9.11914 243.581 8.54102 243.581 7.9043C243.581 7.42773 243.639 6.98242 243.756 6.56836C243.874 6.1543 244.038 5.77734 244.249 5.4375C244.459 5.09766 244.709 4.79492 244.999 4.5293C245.288 4.26367 245.606 4.04102 245.954 3.86133C246.301 3.67773 246.67 3.53906 247.061 3.44531C247.452 3.34766 247.852 3.29883 248.262 3.29883C248.532 3.29883 248.856 3.32422 249.235 3.375C249.614 3.42188 250.02 3.50977 250.454 3.63867L250.254 4.6582L250.137 4.7168C249.707 4.52148 249.307 4.38867 248.936 4.31836C248.569 4.24414 248.256 4.20703 247.999 4.20703C247.53 4.20703 247.098 4.29883 246.704 4.48242C246.309 4.66211 245.969 4.91016 245.684 5.22656C245.399 5.53906 245.176 5.9043 245.016 6.32227C244.856 6.74023 244.776 7.18555 244.776 7.6582C244.776 8.11133 244.846 8.55078 244.987 8.97656C245.131 9.39844 245.342 9.77344 245.62 10.1016C245.897 10.4258 246.239 10.6875 246.645 10.8867C247.051 11.082 247.518 11.1797 248.045 11.1797C248.198 11.1797 248.366 11.1699 248.549 11.1504C248.733 11.1309 248.928 11.0957 249.135 11.0449C249.342 10.9902 249.559 10.9199 249.786 10.834C250.012 10.7441 250.243 10.6289 250.477 10.4883V11.1738Z" fill="#B19490"/>
<path d="M16.5293 35.4H24.3493V40.34H26.2893V34.2H28.1093V51.8H26.2893V41.88H24.3493V45C24.3493 45.84 24.156 46.4533 23.7693 46.84C23.396 47.2133 22.7893 47.4 21.9493 47.4H18.9293C18.0893 47.4 17.476 47.2133 17.0893 46.84C16.716 46.4533 16.5293 45.84 16.5293 45V35.4ZM21.3293 45.86C21.8093 45.86 22.1293 45.78 22.2893 45.62C22.4493 45.46 22.5293 45.14 22.5293 44.66V36.94H18.3493V44.66C18.3493 45.14 18.4293 45.46 18.5893 45.62C18.7493 45.78 19.0693 45.86 19.5493 45.86H21.3293ZM31.9093 52H30.0893V34H31.9093V52ZM37.5571 45.86C38.6371 45.86 39.6904 45.8067 40.7171 45.7C41.7571 45.5933 42.8104 45.4333 43.8771 45.22L44.1571 46.7C42.9838 46.9267 41.7771 47.1 40.5371 47.22C39.3104 47.34 38.1104 47.4 36.9371 47.4C36.0971 47.4 35.4838 47.2133 35.0971 46.84C34.7238 46.4533 34.5371 45.84 34.5371 45V35.4H43.7571V36.94H36.3571V44.66C36.3571 45.14 36.4371 45.46 36.5971 45.62C36.7571 45.78 37.0771 45.86 37.5571 45.86ZM48.9171 52H47.0971V34H48.9171V52ZM65.7049 42.2C65.7049 43.04 65.5116 43.6533 65.1249 44.04C64.7516 44.4133 64.1449 44.6 63.3049 44.6H60.4449V48.46H67.8649V50H51.2249V48.46H58.6249V44.6H55.7849C54.9449 44.6 54.3316 44.4133 53.9449 44.04C53.5716 43.6533 53.3849 43.04 53.3849 42.2V35.2H65.7049V42.2ZM63.8849 36.74H55.2049V41.86C55.2049 42.34 55.2849 42.66 55.4449 42.82C55.6049 42.98 55.9249 43.06 56.4049 43.06H62.6849C63.1649 43.06 63.4849 42.98 63.6449 42.82C63.8049 42.66 63.8849 42.34 63.8849 41.86V36.74ZM73.9727 47.6C73.1461 47.6 72.4327 47.46 71.8327 47.18C71.2327 46.9 70.7327 46.4933 70.3327 45.96C69.9461 45.4267 69.6527 44.78 69.4527 44.02C69.2661 43.2467 69.1727 42.3733 69.1727 41.4C69.1727 40.4267 69.2661 39.56 69.4527 38.8C69.6527 38.0267 69.9461 37.3733 70.3327 36.84C70.7327 36.3067 71.2327 35.9 71.8327 35.62C72.4327 35.34 73.1461 35.2 73.9727 35.2C74.7994 35.2 75.5127 35.34 76.1127 35.62C76.7127 35.9 77.2061 36.3067 77.5927 36.84C77.9927 37.3733 78.2861 38.0267 78.4727 38.8C78.6727 39.56 78.7727 40.4267 78.7727 41.4C78.7727 42.3733 78.6727 43.2467 78.4727 44.02C78.2861 44.78 77.9927 45.4267 77.5927 45.96C77.2061 46.4933 76.7127 46.9 76.1127 47.18C75.5127 47.46 74.7994 47.6 73.9727 47.6ZM73.9727 46.06C75.9594 46.06 76.9527 44.5067 76.9527 41.4C76.9527 38.2933 75.9594 36.74 73.9727 36.74C71.9861 36.74 70.9927 38.2933 70.9927 41.4C70.9927 44.5067 71.9861 46.06 73.9727 46.06ZM83.1327 40.46H86.1527V42H83.1327V52H81.3127V34H83.1327V40.46ZM86.6406 50V48.46H98.4806V50H86.6406ZM101.741 52H99.9206V34H101.741V52ZM92.4406 44.66C93.4539 44.66 94.2072 44.32 94.7006 43.64C95.1939 42.9467 95.4406 41.9667 95.4406 40.7C95.4406 39.4333 95.1939 38.46 94.7006 37.78C94.2072 37.0867 93.4539 36.74 92.4406 36.74C91.4406 36.74 90.6939 37.0867 90.2006 37.78C89.7072 38.46 89.4606 39.4333 89.4606 40.7C89.4606 41.9667 89.7072 42.9467 90.2006 43.64C90.6939 44.32 91.4406 44.66 92.4406 44.66ZM92.4406 46.2C91.7339 46.2 91.0872 46.08 90.5006 45.84C89.9139 45.6 89.4072 45.2467 88.9806 44.78C88.5539 44.3 88.2206 43.72 87.9806 43.04C87.7539 42.36 87.6406 41.58 87.6406 40.7C87.6406 39.82 87.7539 39.04 87.9806 38.36C88.2206 37.68 88.5539 37.1067 88.9806 36.64C89.4072 36.16 89.9139 35.8 90.5006 35.56C91.1006 35.32 91.7539 35.2 92.4606 35.2C93.1672 35.2 93.8139 35.32 94.4006 35.56C94.9872 35.8 95.4939 36.16 95.9206 36.64C96.3472 37.1067 96.6739 37.68 96.9006 38.36C97.1406 39.04 97.2606 39.82 97.2606 40.7C97.2606 41.58 97.1406 42.36 96.9006 43.04C96.6739 43.72 96.3472 44.3 95.9206 44.78C95.4939 45.2467 94.9806 45.6 94.3806 45.84C93.7939 46.08 93.1472 46.2 92.4406 46.2ZM110.048 42.48C109.328 42.48 108.675 42.3933 108.088 42.22C107.502 42.0333 106.995 41.7733 106.568 41.44C106.155 41.0933 105.828 40.68 105.588 40.2C105.362 39.7067 105.248 39.1533 105.248 38.54C105.248 37.9267 105.362 37.38 105.588 36.9C105.828 36.4067 106.155 35.9933 106.568 35.66C106.995 35.3133 107.502 35.0533 108.088 34.88C108.675 34.6933 109.328 34.6 110.048 34.6C110.768 34.6 111.422 34.6933 112.008 34.88C112.595 35.0533 113.095 35.3133 113.508 35.66C113.935 35.9933 114.262 36.4067 114.488 36.9C114.728 37.38 114.848 37.9267 114.848 38.54C114.848 39.1533 114.728 39.7067 114.488 40.2C114.262 40.68 113.935 41.0933 113.508 41.44C113.095 41.7733 112.595 42.0333 112.008 42.22C111.422 42.3933 110.768 42.48 110.048 42.48ZM117.528 46.16V34H119.348V48.8H117.528V47.7H113.188V46.16H117.528ZM109.468 50.56C110.122 50.56 110.875 50.5533 111.728 50.54C112.582 50.5267 113.462 50.5 114.368 50.46C115.288 50.42 116.202 50.36 117.108 50.28C118.015 50.2 118.862 50.0933 119.648 49.96L119.828 51.5C119.015 51.62 118.155 51.72 117.248 51.8C116.342 51.88 115.415 51.94 114.468 51.98C113.522 52.0333 112.568 52.0667 111.608 52.08C110.662 52.0933 109.742 52.1 108.848 52.1C108.008 52.1 107.395 51.9067 107.008 51.52C106.635 51.1467 106.448 50.54 106.448 49.7V46.86H108.268V49.36C108.268 49.84 108.348 50.16 108.508 50.32C108.668 50.48 108.988 50.56 109.468 50.56ZM109.548 48.18V45H104.248V43.46H116.088V45H111.368V48.18H109.548ZM110.048 40.94C111.008 40.94 111.748 40.7467 112.268 40.36C112.788 39.96 113.048 39.3533 113.048 38.54C113.048 37.7267 112.788 37.1267 112.268 36.74C111.748 36.34 111.008 36.14 110.048 36.14C109.088 36.14 108.348 36.34 107.828 36.74C107.308 37.1267 107.048 37.7267 107.048 38.54C107.048 39.3533 107.308 39.96 107.828 40.36C108.348 40.7467 109.088 40.94 110.048 40.94Z" fill="#DF7262"/>
<path d="M133.756 51.8H131.936V41.48H130.196C130.196 42.44 130.116 43.3 129.956 44.06C129.796 44.82 129.55 45.46 129.216 45.98C128.883 46.5 128.456 46.9 127.936 47.18C127.43 47.46 126.816 47.6 126.096 47.6C125.376 47.6 124.756 47.46 124.236 47.18C123.716 46.9 123.29 46.4933 122.956 45.96C122.623 45.4267 122.376 44.78 122.216 44.02C122.07 43.2467 121.996 42.3733 121.996 41.4C121.996 40.4267 122.07 39.56 122.216 38.8C122.376 38.0267 122.623 37.3733 122.956 36.84C123.29 36.3067 123.716 35.9 124.236 35.62C124.756 35.34 125.376 35.2 126.096 35.2C127.363 35.2 128.31 35.62 128.936 36.46C129.576 37.2867 129.97 38.4467 130.116 39.94H131.936V34.2H133.756V51.8ZM126.096 46.06C126.883 46.06 127.456 45.6733 127.816 44.9C128.19 44.1133 128.376 42.9467 128.376 41.4C128.376 39.8533 128.19 38.6933 127.816 37.92C127.456 37.1333 126.883 36.74 126.096 36.74C125.31 36.74 124.73 37.1333 124.356 37.92C123.996 38.6933 123.816 39.8533 123.816 41.4C123.816 42.9467 123.996 44.1133 124.356 44.9C124.73 45.6733 125.31 46.06 126.096 46.06ZM137.556 52H135.736V34H137.556V52ZM144.469 50V48.46H151.869V44.86C151.029 44.7933 150.269 44.6333 149.589 44.38C148.923 44.1267 148.356 43.7933 147.889 43.38C147.423 42.9533 147.063 42.4533 146.809 41.88C146.556 41.3067 146.429 40.66 146.429 39.94C146.429 39.1667 146.576 38.4733 146.869 37.86C147.176 37.2467 147.603 36.7333 148.149 36.32C148.696 35.8933 149.363 35.5667 150.149 35.34C150.936 35.1133 151.816 35 152.789 35C153.763 35 154.643 35.1133 155.429 35.34C156.216 35.5667 156.883 35.8933 157.429 36.32C157.976 36.7333 158.396 37.2467 158.689 37.86C158.996 38.4733 159.149 39.1667 159.149 39.94C159.149 40.66 159.023 41.3067 158.769 41.88C158.516 42.4533 158.149 42.9533 157.669 43.38C157.203 43.7933 156.629 44.1267 155.949 44.38C155.283 44.6333 154.529 44.7933 153.689 44.86V48.46H161.109V50H144.469ZM152.789 43.34C154.269 43.34 155.396 43.04 156.169 42.44C156.943 41.8267 157.329 40.9933 157.329 39.94C157.329 38.8733 156.943 38.04 156.169 37.44C155.396 36.84 154.269 36.54 152.789 36.54C151.309 36.54 150.183 36.84 149.409 37.44C148.636 38.04 148.249 38.8733 148.249 39.94C148.249 40.9933 148.636 41.8267 149.409 42.44C150.183 43.04 151.309 43.34 152.789 43.34ZM172.457 44.6C171.404 44.1333 170.491 43.5733 169.717 42.92C168.957 42.2667 168.324 41.48 167.817 40.56C167.297 41.48 166.624 42.3 165.797 43.02C164.971 43.74 164.037 44.3333 162.997 44.8L162.117 43.44C162.811 43.1067 163.451 42.7333 164.037 42.32C164.637 41.9067 165.144 41.4467 165.557 40.94C165.984 40.4333 166.317 39.8667 166.557 39.24C166.797 38.6 166.917 37.8867 166.917 37.1V34.8H168.737V37.1C168.737 37.8867 168.844 38.5867 169.057 39.2C169.271 39.8 169.577 40.3467 169.977 40.84C170.377 41.32 170.857 41.76 171.417 42.16C171.991 42.5467 172.631 42.9067 173.337 43.24L172.457 44.6ZM167.817 50.56C168.684 50.56 169.524 50.5467 170.337 50.52C171.164 50.5067 171.977 50.4733 172.777 50.42C173.591 50.38 174.397 50.32 175.197 50.24C176.011 50.16 176.837 50.0667 177.677 49.96L177.857 51.5C175.977 51.7267 174.177 51.88 172.457 51.96C170.751 52.0533 168.997 52.1 167.197 52.1C166.357 52.1 165.744 51.9067 165.357 51.52C164.984 51.1467 164.797 50.54 164.797 49.7V46.32H166.617V49.36C166.617 49.84 166.697 50.16 166.857 50.32C167.017 50.48 167.337 50.56 167.817 50.56ZM177.377 47H175.557V34H177.377V47ZM185.611 35H194.611V35.32C194.611 36.4533 194.384 37.48 193.931 38.4C193.491 39.32 192.871 40.14 192.071 40.86C191.271 41.5667 190.324 42.1867 189.231 42.72C188.151 43.24 186.971 43.6667 185.691 44L184.871 42.66C185.857 42.4067 186.797 42.08 187.691 41.68C188.584 41.28 189.384 40.82 190.091 40.3C190.797 39.78 191.384 39.2067 191.851 38.58C192.317 37.9533 192.611 37.2733 192.731 36.54H185.611V35ZM200.871 52C200.164 51.8933 199.471 51.7533 198.791 51.58C198.111 51.4067 197.471 51.1933 196.871 50.94C196.284 50.7 195.744 50.4067 195.251 50.06C194.771 49.7133 194.371 49.3067 194.051 48.84C193.731 49.3067 193.324 49.7133 192.831 50.06C192.351 50.4067 191.811 50.7 191.211 50.94C190.624 51.1933 189.991 51.4067 189.311 51.58C188.644 51.7533 187.957 51.8933 187.251 52L186.711 50.5C187.497 50.42 188.277 50.2733 189.051 50.06C189.824 49.86 190.511 49.5933 191.111 49.26C191.724 48.9267 192.217 48.5267 192.591 48.06C192.964 47.58 193.151 47.0267 193.151 46.4V45.26H194.971V46.4C194.971 47.0267 195.157 47.58 195.531 48.06C195.904 48.5267 196.391 48.9267 196.991 49.26C197.604 49.5933 198.297 49.86 199.071 50.06C199.844 50.2733 200.624 50.42 201.411 50.5L200.871 52ZM198.371 38.46V34H200.191V45.2H198.371V40H194.831V38.46H198.371ZM210.818 41.08C208.765 41.08 207.192 40.8267 206.098 40.32C205.005 39.8133 204.458 38.9867 204.458 37.84C204.458 36.6933 205.005 35.8667 206.098 35.36C207.192 34.8533 208.765 34.6 210.818 34.6C212.872 34.6 214.445 34.8533 215.538 35.36C216.632 35.8667 217.178 36.6933 217.178 37.84C217.178 38.9867 216.632 39.8133 215.538 40.32C214.445 40.8267 212.872 41.08 210.818 41.08ZM210.818 39.54C212.298 39.54 213.425 39.42 214.198 39.18C214.972 38.94 215.358 38.4933 215.358 37.84C215.358 37.1733 214.972 36.7267 214.198 36.5C213.425 36.26 212.298 36.14 210.818 36.14C209.338 36.14 208.212 36.26 207.438 36.5C206.665 36.7267 206.278 37.1733 206.278 37.84C206.278 38.4933 206.665 38.94 207.438 39.18C208.212 39.42 209.338 39.54 210.818 39.54ZM202.498 43.7V42.16H219.138V43.7H202.498ZM206.498 49.16V49.76C206.498 50.2933 206.765 50.56 207.298 50.56C207.952 50.56 208.692 50.5533 209.518 50.54C210.358 50.5267 211.218 50.5 212.098 50.46C212.992 50.42 213.878 50.36 214.758 50.28C215.652 50.2 216.492 50.0933 217.278 49.96L217.458 51.5C215.832 51.7533 214.112 51.9133 212.298 51.98C210.485 52.06 208.678 52.1 206.878 52.1C205.412 52.1 204.678 51.3667 204.678 49.9V47.62H215.158V46.4H204.678V44.86H216.978V49.16H206.498ZM225.112 46.3V44.76H230.012V43.76C228.705 43.6533 227.745 43.32 227.132 42.76C226.518 42.2 226.212 41.48 226.212 40.6C226.212 39.64 226.592 38.8667 227.352 38.28C228.112 37.6933 229.305 37.4 230.932 37.4C232.545 37.4 233.732 37.6933 234.492 38.28C235.252 38.8667 235.632 39.64 235.632 40.6C235.632 41.48 235.325 42.2 234.712 42.76C234.098 43.32 233.138 43.6533 231.832 43.76V44.76H236.952V46.3H225.112ZM239.612 39.66H242.632V41.2H239.612V47H237.792V34H239.612V39.66ZM230.332 50.56C230.985 50.56 231.705 50.5533 232.492 50.54C233.292 50.5267 234.105 50.5 234.932 50.46C235.772 50.42 236.612 50.36 237.452 50.28C238.305 50.2 239.125 50.0933 239.912 49.96L240.092 51.5C238.465 51.7533 236.778 51.9133 235.032 51.98C233.285 52.06 231.512 52.1 229.712 52.1C228.872 52.1 228.258 51.9067 227.872 51.52C227.498 51.1467 227.312 50.54 227.312 49.7V47.26H229.132V49.36C229.132 49.84 229.212 50.16 229.372 50.32C229.532 50.48 229.852 50.56 230.332 50.56ZM230.012 35.2V33.6H231.832V35.2H236.332V36.74H225.512V35.2H230.012ZM230.912 42.26C231.925 42.26 232.658 42.1133 233.112 41.82C233.578 41.5267 233.812 41.12 233.812 40.6C233.812 40.08 233.578 39.6733 233.112 39.38C232.658 39.0867 231.925 38.94 230.912 38.94C229.912 38.94 229.178 39.0867 228.712 39.38C228.258 39.6733 228.032 40.08 228.032 40.6C228.032 41.12 228.258 41.5267 228.712 41.82C229.178 42.1133 229.912 42.26 230.912 42.26ZM248.239 43.8C247.533 43.8 246.886 43.6933 246.299 43.48C245.713 43.2667 245.206 42.9667 244.779 42.58C244.353 42.18 244.019 41.7067 243.779 41.16C243.553 40.6 243.439 39.98 243.439 39.3C243.439 38.62 243.553 38.0067 243.779 37.46C244.019 36.9 244.353 36.4267 244.779 36.04C245.206 35.64 245.713 35.3333 246.299 35.12C246.899 34.9067 247.553 34.8 248.259 34.8C249.086 34.8 249.826 34.9467 250.479 35.24C251.133 35.5333 251.673 35.94 252.099 36.46H256.399V34H258.219V44.6H256.399V41.8H252.359C251.946 42.44 251.386 42.9333 250.679 43.28C249.973 43.6267 249.159 43.8 248.239 43.8ZM245.199 48.74C245.199 48.1533 245.353 47.6467 245.659 47.22C245.966 46.78 246.406 46.42 246.979 46.14C247.553 45.8467 248.246 45.6333 249.059 45.5C249.886 45.3533 250.813 45.28 251.839 45.28C252.866 45.28 253.786 45.3533 254.599 45.5C255.426 45.6333 256.126 45.8467 256.699 46.14C257.273 46.42 257.713 46.78 258.019 47.22C258.326 47.6467 258.479 48.1533 258.479 48.74C258.479 49.3267 258.326 49.8333 258.019 50.26C257.713 50.7 257.273 51.06 256.699 51.34C256.126 51.6333 255.426 51.8467 254.599 51.98C253.786 52.1267 252.866 52.2 251.839 52.2C250.813 52.2 249.886 52.1267 249.059 51.98C248.246 51.8467 247.553 51.6333 246.979 51.34C246.406 51.06 245.966 50.7 245.659 50.26C245.353 49.8333 245.199 49.3267 245.199 48.74ZM256.659 48.74C256.659 48.3667 256.539 48.06 256.299 47.82C256.059 47.5667 255.726 47.3667 255.299 47.22C254.873 47.0733 254.359 46.9733 253.759 46.92C253.173 46.8533 252.533 46.82 251.839 46.82C251.133 46.82 250.486 46.8533 249.899 46.92C249.313 46.9733 248.806 47.0733 248.379 47.22C247.953 47.3667 247.619 47.5667 247.379 47.82C247.139 48.06 247.019 48.3667 247.019 48.74C247.019 49.1133 247.139 49.42 247.379 49.66C247.619 49.9133 247.953 50.1133 248.379 50.26C248.806 50.4067 249.313 50.5067 249.899 50.56C250.486 50.6267 251.133 50.66 251.839 50.66C252.533 50.66 253.173 50.6267 253.759 50.56C254.359 50.5067 254.873 50.4067 255.299 50.26C255.726 50.1133 256.059 49.9133 256.299 49.66C256.539 49.42 256.659 49.1133 256.659 48.74ZM248.239 42.26C249.253 42.26 250.006 41.9867 250.499 41.44C250.993 40.88 251.239 40.1667 251.239 39.3C251.239 38.4333 250.993 37.7267 250.499 37.18C250.006 36.62 249.253 36.34 248.239 36.34C247.239 36.34 246.493 36.62 245.999 37.18C245.506 37.7267 245.259 38.4333 245.259 39.3C245.259 40.1667 245.506 40.88 245.999 41.44C246.493 41.9867 247.239 42.26 248.239 42.26ZM253.059 39.3C253.059 39.6067 253.026 39.9267 252.959 40.26H256.399V38H252.879C252.999 38.4 253.059 38.8333 253.059 39.3ZM264.667 47.06H273.007V45.26H274.827V49.6C274.827 50.44 274.634 51.0467 274.247 51.42C273.874 51.8067 273.267 52 272.427 52H265.247C264.407 52 263.794 51.8067 263.407 51.42C263.034 51.0467 262.847 50.44 262.847 49.6V45.26H264.667V47.06ZM266.067 44.4C265.361 44.4 264.714 44.34 264.127 44.22C263.554 44.0867 263.061 43.8933 262.647 43.64C262.247 43.3867 261.934 43.0667 261.707 42.68C261.481 42.2933 261.367 41.8333 261.367 41.3C261.367 40.7667 261.481 40.3067 261.707 39.92C261.934 39.5333 262.254 39.2133 262.667 38.96C263.081 38.7067 263.574 38.52 264.147 38.4C264.734 38.2667 265.381 38.2 266.087 38.2C266.794 38.2 267.434 38.2667 268.007 38.4C268.594 38.52 269.087 38.7067 269.487 38.96C269.901 39.2133 270.221 39.5333 270.447 39.92C270.674 40.3067 270.787 40.7667 270.787 41.3C270.787 41.8333 270.674 42.2933 270.447 42.68C270.221 43.0667 269.901 43.3867 269.487 43.64C269.074 43.8933 268.574 44.0867 267.987 44.22C267.414 44.34 266.774 44.4 266.067 44.4ZM274.827 38.36H277.847V39.9H274.827V44.2H273.007V34H274.827V38.36ZM265.167 35.8V33.8H266.987V35.8H271.487V37.34H260.667V35.8H265.167ZM273.007 48.6H264.667V49.26C264.667 49.74 264.747 50.06 264.907 50.22C265.067 50.38 265.387 50.46 265.867 50.46H271.807C272.287 50.46 272.607 50.38 272.767 50.22C272.927 50.06 273.007 49.74 273.007 49.26V48.6ZM266.067 42.86C267.081 42.86 267.814 42.7267 268.267 42.46C268.734 42.1933 268.967 41.8067 268.967 41.3C268.967 40.7933 268.734 40.4067 268.267 40.14C267.814 39.8733 267.081 39.74 266.067 39.74C265.067 39.74 264.334 39.8733 263.867 40.14C263.414 40.4067 263.187 40.7933 263.187 41.3C263.187 41.8067 263.414 42.1933 263.867 42.46C264.334 42.7267 265.067 42.86 266.067 42.86ZM282.275 46.04C283.355 46.04 284.408 45.9867 285.435 45.88C286.475 45.7733 287.528 45.6133 288.595 45.4L288.875 46.88C287.702 47.1067 286.495 47.28 285.255 47.4C284.028 47.52 282.828 47.58 281.655 47.58C280.815 47.58 280.202 47.3933 279.815 47.02C279.442 46.6333 279.255 46.02 279.255 45.18V35.4H281.075V44.84C281.075 45.32 281.155 45.64 281.315 45.8C281.475 45.96 281.795 46.04 282.275 46.04ZM293.435 52H291.615V34H293.435V52ZM299.283 45.84C300.363 45.84 301.416 45.7867 302.443 45.68C303.483 45.5733 304.536 45.4133 305.603 45.2L305.883 46.68C304.71 46.9067 303.503 47.08 302.263 47.2C301.036 47.32 299.836 47.38 298.663 47.38C297.823 47.38 297.21 47.1933 296.823 46.82C296.45 46.4333 296.263 45.82 296.263 44.98V35.4H305.483V36.94H298.083V44.64C298.083 45.12 298.163 45.44 298.323 45.6C298.483 45.76 298.803 45.84 299.283 45.84ZM310.043 40.46H313.063V42H310.043V52H308.223V34H310.043V40.46ZM314.011 50.24C314.011 49.92 314.124 49.6467 314.351 49.42C314.577 49.1933 314.851 49.08 315.171 49.08C315.491 49.08 315.764 49.1933 315.991 49.42C316.217 49.6467 316.331 49.92 316.331 50.24C316.331 50.56 316.217 50.8333 315.991 51.06C315.764 51.2867 315.491 51.4 315.171 51.4C314.851 51.4 314.577 51.2867 314.351 51.06C314.124 50.8333 314.011 50.56 314.011 50.24Z" fill="#0D0302"/>
</svg>
