<svg width="61" height="60" viewBox="0 0 61 60" fill="none" xmlns="http://www.w3.org/2000/svg">
<g clip-path="url(#clip0_652_1275)">
<path d="M38.3008 32.3438C36.4914 32.3438 35.0195 33.8156 35.0195 35.625V36.5625C35.0195 38.3719 36.4914 39.8438 38.3008 39.8438C39.0761 39.8438 39.707 40.4747 39.707 41.25V42.1875C39.707 42.9628 39.0761 43.5938 38.3008 43.5938C37.5255 43.5938 36.8945 42.9628 36.8945 42.1875V41.7188H35.0195V42.1875C35.0195 43.9969 36.4914 45.4688 38.3008 45.4688C40.1102 45.4688 41.582 43.9969 41.582 42.1875V41.25C41.582 39.4406 40.1102 37.9688 38.3008 37.9688C37.5255 37.9688 36.8945 37.3378 36.8945 36.5625V35.625C36.8945 34.8497 37.5255 34.2188 38.3008 34.2188C39.0761 34.2188 39.707 34.8497 39.707 35.625V36.0938H41.582V35.625C41.582 33.8156 40.1102 32.3438 38.3008 32.3438Z" fill="black"/>
<path d="M43.457 33.2812V37.9688V39.8438V44.5312C43.457 45.0487 43.877 45.4688 44.3945 45.4688H50.0195V43.5938H45.332V39.8438H49.082V37.9688H45.332V34.2188H50.0195V32.3438H44.3945C43.877 32.3438 43.457 32.7638 43.457 33.2812Z" fill="black"/>
<path d="M55.6445 25.7812H49.3942L32.1892 12.8775C32.7705 12.3619 33.1445 11.6175 33.1445 10.7812C33.1445 9.23062 31.8827 7.96875 30.332 7.96875C28.7814 7.96875 27.5195 9.23062 27.5195 10.7812C27.5195 11.6175 27.8936 12.3619 28.4748 12.8775L11.2698 25.7812H5.01953C2.43484 25.7812 0.332031 27.8841 0.332031 30.4688V47.3438C0.332031 49.9284 2.43484 52.0312 5.01953 52.0312H55.6445C58.2292 52.0312 60.332 49.9284 60.332 47.3438V30.4688C60.332 27.8841 58.2292 25.7812 55.6445 25.7812ZM30.332 9.84375C30.8486 9.84375 31.2695 10.2647 31.2695 10.7812C31.2695 11.2978 30.8486 11.7188 30.332 11.7188C29.8155 11.7188 29.3945 11.2978 29.3945 10.7812C29.3945 10.2647 29.8155 9.84375 30.332 9.84375ZM30.332 13.8281L46.2695 25.7812H14.3945L30.332 13.8281ZM58.457 47.3438C58.457 48.8944 57.1952 50.1562 55.6445 50.1562H5.01953C3.46891 50.1562 2.20703 48.8944 2.20703 47.3438V30.4688C2.20703 28.9181 3.46891 27.6562 5.01953 27.6562H55.6445C57.1952 27.6562 58.457 28.9181 58.457 30.4688V47.3438Z" fill="black"/>
<path d="M12.9883 32.3438C11.1789 32.3438 9.70703 33.8156 9.70703 35.625V42.1875C9.70703 43.9969 11.1789 45.4688 12.9883 45.4688C14.7977 45.4688 16.2695 43.9969 16.2695 42.1875V41.7188H14.3945V42.1875C14.3945 42.9628 13.7636 43.5938 12.9883 43.5938C12.213 43.5938 11.582 42.9628 11.582 42.1875V35.625C11.582 34.8497 12.213 34.2188 12.9883 34.2188C13.7636 34.2188 14.3945 34.8497 14.3945 35.625V36.0938H16.2695V35.625C16.2695 33.8156 14.7977 32.3438 12.9883 32.3438Z" fill="black"/>
<path d="M20.0195 32.3438H18.1445V44.5312C18.1445 45.0487 18.5645 45.4688 19.082 45.4688H24.707V43.5938H20.0195V32.3438Z" fill="black"/>
<path d="M29.3945 32.3438C27.3264 32.3438 25.6445 34.0256 25.6445 36.0938V41.7188C25.6445 43.7869 27.3264 45.4688 29.3945 45.4688C31.4627 45.4688 33.1445 43.7869 33.1445 41.7188V36.0938C33.1445 34.0256 31.4627 32.3438 29.3945 32.3438ZM31.2695 41.7188C31.2695 42.7528 30.4286 43.5938 29.3945 43.5938C28.3605 43.5938 27.5195 42.7528 27.5195 41.7188V36.0938C27.5195 35.0597 28.3605 34.2188 29.3945 34.2188C30.4286 34.2188 31.2695 35.0597 31.2695 36.0938V41.7188Z" fill="black"/>
</g>
<defs>
<clipPath id="clip0_652_1275">
<rect width="60" height="60" fill="white" transform="translate(0.332031)"/>
</clipPath>
</defs>
</svg>
