<svg width="60" height="60" viewBox="0 0 60 60" fill="none" xmlns="http://www.w3.org/2000/svg">
<path d="M45.9844 53.6016C45.6914 53.6016 45.3867 53.5898 45.0938 53.5547H45.0469H14.9531H14.9062C14.6133 53.5898 14.3203 53.6133 14.0273 53.6133C13.7344 53.6133 13.4414 53.6016 13.1484 53.5664C11.1211 53.332 9.31641 52.3242 8.05078 50.7305C6.78516 49.1367 6.22266 47.1445 6.45703 45.1172V45.0703V18.7266V18.6797C6.38672 18.0938 6.38672 17.5078 6.45703 16.9219C6.90234 13.0781 10.1602 10.1719 14.0273 10.1719C17.8945 10.1719 14.625 10.1836 14.918 10.2187H14.9648H18.9727V7.51172C18.9727 6.9375 19.4414 6.46875 20.0156 6.46875C20.5898 6.46875 21.0586 6.9375 21.0586 7.51172V10.2187H38.9648V7.51172C38.9648 6.9375 39.4336 6.46875 40.0078 6.46875C40.582 6.46875 41.0508 6.9375 41.0508 7.51172V10.2187H45.1055C45.3984 10.1836 45.6914 10.1602 45.9844 10.1602C46.2773 10.1602 46.5703 10.1719 46.8633 10.207C51.0352 10.6875 54.0469 14.4844 53.5664 18.6562V18.7031V45.0469V45.0937C53.6367 45.6797 53.6367 46.2656 53.5664 46.8516C53.1211 50.6953 49.8633 53.6016 45.9961 53.6016H45.9844ZM8.54297 45C8.54297 49.3477 10.6523 51.457 15 51.457H45C49.3477 51.457 51.457 49.3477 51.457 45V23.543H8.54297V45ZM51.457 21.457V18.75C51.457 14.4023 49.3477 12.293 45 12.293H41.0391V15C41.0391 15.5742 40.5703 16.043 39.9961 16.043C39.4219 16.043 38.9531 15.5742 38.9531 15V12.293H21.0469V15C21.0469 15.5742 20.5781 16.043 20.0039 16.043C19.4297 16.043 18.9609 15.5742 18.9609 15V12.293H15C10.6523 12.293 8.54297 14.4023 8.54297 18.75V21.457H51.457ZM27.9258 42.7148C27.6445 42.7148 27.3867 42.6094 27.1875 42.4102L23.0273 38.25C22.8398 38.0391 22.7461 37.7812 22.7578 37.5117C22.7578 37.2305 22.8867 36.9727 23.0859 36.7852C23.2852 36.6094 23.5313 36.5039 23.8008 36.5039C24.0703 36.5039 24.3047 36.5977 24.5039 36.7734L27.9258 40.1953L35.5078 32.6133C35.707 32.4023 35.9766 32.2969 36.2578 32.2969C36.5391 32.2969 36.7969 32.4023 36.9844 32.5898C37.3945 33 37.3945 33.6563 36.9961 34.0664L28.6641 42.4219C28.4648 42.6211 28.207 42.7266 27.9258 42.7266V42.7148Z" fill="black"/>
<path d="M45.9844 53.4375C45.6915 53.4375 45.3985 53.4258 45.1172 53.3906H45.0586H14.9415H14.8829C14.6016 53.4258 14.3086 53.4492 14.0274 53.4492C13.7461 53.4492 13.4532 53.4375 13.1719 53.4023C11.1915 53.168 9.42193 52.1836 8.17974 50.625C6.93755 49.0664 6.38677 47.1094 6.62115 45.1289V45.0703V18.7031V18.6445C6.55083 18.0703 6.55083 17.4961 6.62115 16.9219C7.05474 13.1602 10.2422 10.3242 14.0274 10.3242C17.8126 10.3242 14.6133 10.3359 14.8946 10.3711H14.9532H19.1368V7.5C19.1368 7.01953 19.5352 6.62109 20.0157 6.62109C20.4961 6.62109 20.8946 7.01953 20.8946 7.5V10.3711H39.1407V7.5C39.1407 7.01953 39.5391 6.62109 40.0196 6.62109C40.5001 6.62109 40.8985 7.01953 40.8985 7.5V10.3711H45.129C45.4102 10.3359 45.7032 10.3125 45.9844 10.3125C46.2657 10.3125 46.5587 10.3242 46.8399 10.3594C50.9297 10.8281 53.8712 14.543 53.3907 18.6328V18.6914V45.0586V45.1172C53.461 45.6914 53.461 46.2656 53.3907 46.8398C52.9571 50.6016 49.7696 53.4375 45.9961 53.4375H45.9844ZM8.37896 45C8.37896 49.4531 10.5469 51.6211 15.0001 51.6211H45.0001C49.4532 51.6211 51.6211 49.4531 51.6211 45V23.3789H8.37896V45ZM15.0001 12.1289C10.5469 12.1289 8.37896 14.2969 8.37896 18.75V21.6211H51.6211V18.75C51.6211 14.2969 49.4532 12.1289 45.0001 12.1289H40.8751V15C40.8751 15.4805 40.4766 15.8789 39.9961 15.8789C39.5157 15.8789 39.1172 15.4805 39.1172 15V12.1289H20.8711V15C20.8711 15.4805 20.4727 15.8789 19.9922 15.8789C19.5118 15.8789 19.1133 15.4805 19.1133 15V12.1289H14.9883H15.0001ZM27.9258 42.5508C27.6915 42.5508 27.4688 42.457 27.3047 42.293L23.1446 38.1328C22.9922 37.957 22.9102 37.7461 22.9219 37.5117C22.9219 37.2773 23.0274 37.0547 23.2032 36.9023C23.3672 36.75 23.5782 36.668 23.8008 36.668C24.0235 36.668 24.2227 36.75 24.3868 36.8906L27.9141 40.418L35.6133 32.7188C35.7891 32.543 36.0001 32.4492 36.2461 32.4492C36.4922 32.4492 36.6915 32.543 36.8555 32.6953C37.1954 33.0352 37.1954 33.5859 36.8672 33.9375L28.5352 42.293C28.3711 42.457 28.1485 42.5508 27.9141 42.5508H27.9258Z" fill="black"/>
</svg>
