<svg width="61" height="60" viewBox="0 0 61 60" fill="none" xmlns="http://www.w3.org/2000/svg">
<path d="M30.6674 55.9675C23.7259 55.9675 17.216 53.2701 12.3127 48.3667C8.6681 44.7221 6.21042 40.1304 5.20337 35.0712C4.19631 30.012 4.71183 24.8329 6.67798 20.0734C8.64412 15.3138 11.953 11.2856 16.245 8.42034C20.5369 5.55504 25.5122 4.03247 30.6674 4.03247H30.7393C34.1561 4.03247 37.4889 4.69185 40.642 6.01061C43.795 7.31737 46.6243 9.21159 49.0341 11.6333C53.9374 16.5367 56.6349 23.0585 56.6349 29.988C56.6349 36.9175 53.9374 43.4393 49.0341 48.3427C44.1307 53.2461 37.6088 55.9435 30.6674 55.9435V55.9675ZM30.6674 6.09453C17.4798 6.09453 6.7619 16.8124 6.7619 30C6.7619 43.1876 17.4918 53.9055 30.6674 53.9055C43.8429 53.9055 54.5728 43.1756 54.5728 30C54.5728 16.8244 43.8549 6.09453 30.6674 6.09453Z" fill="black"/>
<path d="M35.8236 36.3901C35.5478 36.3901 35.2961 36.2822 35.0923 36.0903L29.7333 30.7314C29.5415 30.5396 29.4336 30.2758 29.4336 30.0001V19.0304C29.4336 18.4669 29.9012 17.9994 30.4646 17.9994C31.0281 17.9994 31.4957 18.4669 31.4957 19.0304V29.5805L36.5549 34.6397C36.9505 35.0353 36.9505 35.6947 36.5549 36.0903C36.3631 36.2822 36.0993 36.3901 35.8236 36.3901Z" fill="black"/>
</svg>
