<svg width="217" height="56" viewBox="0 0 217 56" fill="none" xmlns="http://www.w3.org/2000/svg">
<path d="M0.806562 1.68H10.1906V7.608H12.5186V0.24H14.7026V21.36H12.5186V9.456H10.1906V13.2C10.1906 14.208 9.95856 14.944 9.49456 15.408C9.04656 15.856 8.31856 16.08 7.31056 16.08H3.68656C2.67856 16.08 1.94256 15.856 1.47856 15.408C1.03056 14.944 0.806562 14.208 0.806562 13.2V1.68ZM6.56656 14.232C7.14256 14.232 7.52656 14.136 7.71856 13.944C7.91056 13.752 8.00656 13.368 8.00656 12.792V3.528H2.99056V12.792C2.99056 13.368 3.08656 13.752 3.27856 13.944C3.47056 14.136 3.85456 14.232 4.43056 14.232H6.56656ZM19.2626 21.6H17.0786V-1.43051e-06H19.2626V21.6ZM26.0399 14.232C27.3359 14.232 28.5999 14.168 29.8319 14.04C31.0799 13.912 32.3439 13.72 33.6239 13.464L33.9599 15.24C32.5519 15.512 31.1039 15.72 29.6159 15.864C28.1439 16.008 26.7039 16.08 25.2959 16.08C24.2879 16.08 23.5519 15.856 23.0879 15.408C22.6399 14.944 22.4159 14.208 22.4159 13.2V1.68H33.4799V3.528H24.5999V12.792C24.5999 13.368 24.6959 13.752 24.8879 13.944C25.0799 14.136 25.4639 14.232 26.0399 14.232ZM39.6719 21.6H37.4879V-1.43051e-06H39.6719V21.6ZM59.8173 9.84C59.8173 10.848 59.5853 11.584 59.1213 12.048C58.6733 12.496 57.9453 12.72 56.9373 12.72H53.5053V17.352H62.4093V19.2H42.4413V17.352H51.3213V12.72H47.9133C46.9053 12.72 46.1693 12.496 45.7053 12.048C45.2573 11.584 45.0333 10.848 45.0333 9.84V1.44H59.8173V9.84ZM57.6333 3.288H47.2173V9.432C47.2173 10.008 47.3133 10.392 47.5053 10.584C47.6973 10.776 48.0813 10.872 48.6573 10.872H56.1933C56.7693 10.872 57.1533 10.776 57.3453 10.584C57.5373 10.392 57.6333 10.008 57.6333 9.432V3.288ZM69.7387 16.32C68.7467 16.32 67.8907 16.152 67.1707 15.816C66.4507 15.48 65.8507 14.992 65.3707 14.352C64.9067 13.712 64.5547 12.936 64.3147 12.024C64.0907 11.096 63.9787 10.048 63.9787 8.88C63.9787 7.712 64.0907 6.672 64.3147 5.76C64.5547 4.832 64.9067 4.048 65.3707 3.408C65.8507 2.768 66.4507 2.28 67.1707 1.944C67.8907 1.608 68.7467 1.44 69.7387 1.44C70.7307 1.44 71.5867 1.608 72.3067 1.944C73.0267 2.28 73.6187 2.768 74.0827 3.408C74.5627 4.048 74.9147 4.832 75.1387 5.76C75.3787 6.672 75.4987 7.712 75.4987 8.88C75.4987 10.048 75.3787 11.096 75.1387 12.024C74.9147 12.936 74.5627 13.712 74.0827 14.352C73.6187 14.992 73.0267 15.48 72.3067 15.816C71.5867 16.152 70.7307 16.32 69.7387 16.32ZM69.7387 14.472C72.1227 14.472 73.3147 12.608 73.3147 8.88C73.3147 5.152 72.1227 3.288 69.7387 3.288C67.3547 3.288 66.1627 5.152 66.1627 8.88C66.1627 12.608 67.3547 14.472 69.7387 14.472ZM80.7307 7.752H84.3547V9.6H80.7307V21.6H78.5467V-1.43051e-06H80.7307V7.752ZM84.9401 19.2V17.352H99.1481V19.2H84.9401ZM103.06 21.6H100.876V-1.43051e-06H103.06V21.6ZM91.9001 12.792C93.1161 12.792 94.0201 12.384 94.6121 11.568C95.2041 10.736 95.5001 9.56 95.5001 8.04C95.5001 6.52 95.2041 5.352 94.6121 4.536C94.0201 3.704 93.1161 3.288 91.9001 3.288C90.7001 3.288 89.8041 3.704 89.2121 4.536C88.6201 5.352 88.3241 6.52 88.3241 8.04C88.3241 9.56 88.6201 10.736 89.2121 11.568C89.8041 12.384 90.7001 12.792 91.9001 12.792ZM91.9001 14.64C91.0521 14.64 90.2761 14.496 89.5721 14.208C88.8681 13.92 88.2601 13.496 87.7481 12.936C87.2361 12.36 86.8361 11.664 86.5481 10.848C86.2761 10.032 86.1401 9.096 86.1401 8.04C86.1401 6.984 86.2761 6.048 86.5481 5.232C86.8361 4.416 87.2361 3.728 87.7481 3.168C88.2601 2.592 88.8681 2.16 89.5721 1.872C90.2921 1.584 91.0761 1.44 91.9241 1.44C92.7721 1.44 93.5481 1.584 94.2521 1.872C94.9561 2.16 95.5641 2.592 96.0761 3.168C96.5881 3.728 96.9801 4.416 97.2521 5.232C97.5401 6.048 97.6841 6.984 97.6841 8.04C97.6841 9.096 97.5401 10.032 97.2521 10.848C96.9801 11.664 96.5881 12.36 96.0761 12.936C95.5641 13.496 94.9481 13.92 94.2281 14.208C93.5241 14.496 92.7481 14.64 91.9001 14.64ZM113.029 10.176C112.165 10.176 111.381 10.072 110.677 9.864C109.973 9.64 109.365 9.328 108.853 8.928C108.357 8.512 107.965 8.016 107.677 7.44C107.405 6.848 107.269 6.184 107.269 5.448C107.269 4.712 107.405 4.056 107.677 3.48C107.965 2.888 108.357 2.392 108.853 1.992C109.365 1.576 109.973 1.264 110.677 1.056C111.381 0.831999 112.165 0.719999 113.029 0.719999C113.893 0.719999 114.677 0.831999 115.381 1.056C116.085 1.264 116.685 1.576 117.181 1.992C117.693 2.392 118.085 2.888 118.357 3.48C118.645 4.056 118.789 4.712 118.789 5.448C118.789 6.184 118.645 6.848 118.357 7.44C118.085 8.016 117.693 8.512 117.181 8.928C116.685 9.328 116.085 9.64 115.381 9.864C114.677 10.072 113.893 10.176 113.029 10.176ZM122.005 14.592V-1.43051e-06H124.189V17.76H122.005V16.44H116.797V14.592H122.005ZM112.333 19.872C113.117 19.872 114.021 19.864 115.045 19.848C116.069 19.832 117.125 19.8 118.213 19.752C119.317 19.704 120.413 19.632 121.501 19.536C122.589 19.44 123.605 19.312 124.549 19.152L124.765 21C123.789 21.144 122.757 21.264 121.669 21.36C120.581 21.456 119.469 21.528 118.333 21.576C117.197 21.64 116.053 21.68 114.901 21.696C113.765 21.712 112.661 21.72 111.589 21.72C110.581 21.72 109.845 21.488 109.381 21.024C108.933 20.576 108.709 19.848 108.709 18.84V15.432H110.893V18.432C110.893 19.008 110.989 19.392 111.181 19.584C111.373 19.776 111.757 19.872 112.333 19.872ZM112.429 17.016V13.2H106.069V11.352H120.277V13.2H114.613V17.016H112.429ZM113.029 8.328C114.181 8.328 115.069 8.096 115.693 7.632C116.317 7.152 116.629 6.424 116.629 5.448C116.629 4.472 116.317 3.752 115.693 3.288C115.069 2.808 114.181 2.568 113.029 2.568C111.877 2.568 110.989 2.808 110.365 3.288C109.741 3.752 109.429 4.472 109.429 5.448C109.429 6.424 109.741 7.152 110.365 7.632C110.989 8.096 111.877 8.328 113.029 8.328ZM133.445 19.2V17.352H147.653V19.2H133.445ZM151.565 21.6H149.381V-1.43051e-06H151.565V21.6ZM140.405 12.792C141.621 12.792 142.525 12.384 143.117 11.568C143.709 10.736 144.005 9.56 144.005 8.04C144.005 6.52 143.709 5.352 143.117 4.536C142.525 3.704 141.621 3.288 140.405 3.288C139.205 3.288 138.309 3.704 137.717 4.536C137.125 5.352 136.829 6.52 136.829 8.04C136.829 9.56 137.125 10.736 137.717 11.568C138.309 12.384 139.205 12.792 140.405 12.792ZM140.405 14.64C139.557 14.64 138.781 14.496 138.077 14.208C137.373 13.92 136.765 13.496 136.253 12.936C135.741 12.36 135.341 11.664 135.053 10.848C134.781 10.032 134.645 9.096 134.645 8.04C134.645 6.984 134.781 6.048 135.053 5.232C135.341 4.416 135.741 3.728 136.253 3.168C136.765 2.592 137.373 2.16 138.077 1.872C138.797 1.584 139.581 1.44 140.429 1.44C141.277 1.44 142.053 1.584 142.757 1.872C143.461 2.16 144.069 2.592 144.581 3.168C145.093 3.728 145.485 4.416 145.757 5.232C146.045 6.048 146.189 6.984 146.189 8.04C146.189 9.096 146.045 10.032 145.757 10.848C145.485 11.664 145.093 12.36 144.581 12.936C144.069 13.496 143.453 13.92 142.733 14.208C142.029 14.496 141.253 14.64 140.405 14.64ZM154.335 19.2V17.352H159.375V13.44C157.743 13.392 156.927 12.512 156.927 10.8V6.456H169.527V3.288H156.927V1.44H171.711V8.304H159.111V10.632C159.111 11.272 159.431 11.592 160.071 11.592C160.855 11.592 161.743 11.584 162.735 11.568C163.743 11.552 164.775 11.52 165.831 11.472C166.903 11.424 167.967 11.352 169.023 11.256C170.095 11.16 171.103 11.032 172.047 10.872L172.263 12.72C171.767 12.8 171.263 12.872 170.751 12.936C170.255 13 169.751 13.056 169.239 13.104V17.352H174.303V19.2H154.335ZM167.055 13.248C166.143 13.312 165.223 13.36 164.295 13.392C163.383 13.408 162.471 13.424 161.559 13.44V17.352H167.055V13.248ZM188.496 1.2V3.048H183.456V5.4C183.456 6.008 183.584 6.6 183.84 7.176C184.096 7.736 184.464 8.264 184.944 8.76C185.424 9.24 186 9.68 186.672 10.08C187.36 10.464 188.128 10.8 188.976 11.088L187.92 12.72C186.592 12.256 185.488 11.704 184.608 11.064C183.744 10.408 182.992 9.624 182.352 8.712C181.696 9.64 180.896 10.464 179.952 11.184C179.008 11.904 177.88 12.496 176.568 12.96L175.512 11.328C176.36 11.04 177.136 10.688 177.84 10.272C178.544 9.84 179.152 9.368 179.664 8.856C180.176 8.344 180.568 7.792 180.84 7.2C181.128 6.608 181.272 6.008 181.272 5.4V3.048H176.232V1.2H188.496ZM182.352 19.872C183.392 19.872 184.4 19.856 185.376 19.824C186.368 19.808 187.344 19.768 188.304 19.704C189.28 19.656 190.248 19.584 191.208 19.488C192.184 19.392 193.176 19.28 194.184 19.152L194.4 21C192.144 21.272 189.984 21.456 187.92 21.552C185.872 21.664 183.768 21.72 181.608 21.72C180.6 21.72 179.864 21.488 179.4 21.024C178.952 20.576 178.728 19.848 178.728 18.84V14.784H180.912V18.432C180.912 19.008 181.008 19.392 181.2 19.584C181.392 19.776 181.776 19.872 182.352 19.872ZM193.824 15.6H191.64V-1.43051e-06H193.824V15.6ZM206.577 8.496C204.113 8.496 202.225 8.192 200.913 7.584C199.601 6.976 198.945 5.984 198.945 4.608C198.945 3.232 199.601 2.24 200.913 1.632C202.225 1.024 204.113 0.719999 206.577 0.719999C209.041 0.719999 210.929 1.024 212.241 1.632C213.553 2.24 214.209 3.232 214.209 4.608C214.209 5.984 213.553 6.976 212.241 7.584C210.929 8.192 209.041 8.496 206.577 8.496ZM206.577 6.648C208.353 6.648 209.705 6.504 210.633 6.216C211.561 5.928 212.025 5.392 212.025 4.608C212.025 3.808 211.561 3.272 210.633 3C209.705 2.712 208.353 2.568 206.577 2.568C204.801 2.568 203.449 2.712 202.521 3C201.593 3.272 201.129 3.808 201.129 4.608C201.129 5.392 201.593 5.928 202.521 6.216C203.449 6.504 204.801 6.648 206.577 6.648ZM196.593 11.64V9.792H216.561V11.64H196.593ZM201.393 18.192V18.912C201.393 19.552 201.713 19.872 202.353 19.872C203.137 19.872 204.025 19.864 205.017 19.848C206.025 19.832 207.057 19.8 208.113 19.752C209.185 19.704 210.249 19.632 211.305 19.536C212.377 19.44 213.385 19.312 214.329 19.152L214.545 21C212.593 21.304 210.529 21.496 208.353 21.576C206.177 21.672 204.009 21.72 201.849 21.72C200.089 21.72 199.209 20.84 199.209 19.08V16.344H211.785V14.88H199.209V13.032H213.969V18.192H201.393ZM74.2286 46.984C73.3646 46.792 72.5326 46.536 71.7326 46.216C70.9326 45.896 70.1886 45.52 69.5006 45.088C68.8286 44.656 68.2286 44.192 67.7006 43.696C67.1726 43.184 66.7566 42.656 66.4526 42.112C66.1486 42.656 65.7326 43.184 65.2046 43.696C64.6926 44.192 64.0926 44.656 63.4046 45.088C62.7326 45.52 61.9966 45.896 61.1966 46.216C60.3966 46.536 59.5646 46.792 58.7006 46.984L57.9566 45.232C58.9166 45.024 59.8446 44.72 60.7406 44.32C61.6366 43.92 62.4286 43.432 63.1166 42.856C63.8046 42.28 64.3486 41.624 64.7486 40.888C65.1646 40.152 65.3726 39.336 65.3726 38.44V35.2H67.5566V38.44C67.5566 39.336 67.7566 40.152 68.1566 40.888C68.5726 41.624 69.1246 42.28 69.8126 42.856C70.5006 43.432 71.2926 43.92 72.1886 44.32C73.0846 44.72 74.0126 45.024 74.9726 45.232L74.2286 46.984ZM56.4926 53.2V51.352H65.3726V46.72H67.5566V51.352H76.4606V53.2H56.4926ZM91.6619 41.752H94.5179V34H96.7019V55.6H94.5179V43.6H91.6619V55.36H89.4779V34.24H91.6619V41.752ZM78.2459 35.68H87.6299V36.736C87.6299 40.048 86.8379 42.848 85.2539 45.136C83.6859 47.408 81.3899 49.216 78.3659 50.56L77.3819 48.904C78.6459 48.328 79.7739 47.656 80.7659 46.888C81.7579 46.12 82.5979 45.264 83.2859 44.32C83.9899 43.36 84.5259 42.32 84.8939 41.2C85.2619 40.064 85.4459 38.856 85.4459 37.576V37.528H78.2459V35.68ZM103.719 49.672H113.727V47.512H115.911V52.72C115.911 53.728 115.679 54.456 115.215 54.904C114.767 55.368 114.039 55.6 113.031 55.6H104.415C103.407 55.6 102.671 55.368 102.207 54.904C101.759 54.456 101.535 53.728 101.535 52.72V47.512H103.719V49.672ZM105.399 46.48C104.551 46.48 103.775 46.408 103.071 46.264C102.383 46.104 101.791 45.872 101.295 45.568C100.815 45.264 100.439 44.88 100.167 44.416C99.8953 43.952 99.7593 43.4 99.7593 42.76C99.7593 42.12 99.8953 41.568 100.167 41.104C100.439 40.64 100.823 40.256 101.319 39.952C101.815 39.648 102.407 39.424 103.095 39.28C103.799 39.12 104.575 39.04 105.423 39.04C106.271 39.04 107.039 39.12 107.727 39.28C108.431 39.424 109.023 39.648 109.503 39.952C109.999 40.256 110.383 40.64 110.655 41.104C110.927 41.568 111.063 42.12 111.063 42.76C111.063 43.4 110.927 43.952 110.655 44.416C110.383 44.88 109.999 45.264 109.503 45.568C109.007 45.872 108.407 46.104 107.703 46.264C107.015 46.408 106.247 46.48 105.399 46.48ZM115.911 39.232H119.535V41.08H115.911V46.24H113.727V34H115.911V39.232ZM104.319 36.16V33.76H106.503V36.16H111.903V38.008H98.9193V36.16H104.319ZM113.727 51.52H103.719V52.312C103.719 52.888 103.815 53.272 104.007 53.464C104.199 53.656 104.583 53.752 105.159 53.752H112.287C112.863 53.752 113.247 53.656 113.439 53.464C113.631 53.272 113.727 52.888 113.727 52.312V51.52ZM105.399 44.632C106.615 44.632 107.495 44.472 108.039 44.152C108.599 43.832 108.879 43.368 108.879 42.76C108.879 42.152 108.599 41.688 108.039 41.368C107.495 41.048 106.615 40.888 105.399 40.888C104.199 40.888 103.319 41.048 102.759 41.368C102.215 41.688 101.943 42.152 101.943 42.76C101.943 43.368 102.215 43.832 102.759 44.152C103.319 44.472 104.199 44.632 105.399 44.632ZM124.849 48.448C126.145 48.448 127.409 48.384 128.641 48.256C129.889 48.128 131.153 47.936 132.433 47.68L132.769 49.456C131.361 49.728 129.913 49.936 128.425 50.08C126.953 50.224 125.513 50.296 124.105 50.296C123.097 50.296 122.361 50.072 121.897 49.624C121.449 49.16 121.225 48.424 121.225 47.416V35.68H123.409V47.008C123.409 47.584 123.505 47.968 123.697 48.16C123.889 48.352 124.273 48.448 124.849 48.448ZM138.241 55.6H136.057V34H138.241V55.6ZM145.258 48.208C146.554 48.208 147.818 48.144 149.05 48.016C150.298 47.888 151.562 47.696 152.842 47.44L153.178 49.216C151.77 49.488 150.322 49.696 148.834 49.84C147.362 49.984 145.922 50.056 144.514 50.056C143.506 50.056 142.77 49.832 142.306 49.384C141.858 48.92 141.634 48.184 141.634 47.176V35.68H152.698V37.528H143.818V46.768C143.818 47.344 143.914 47.728 144.106 47.92C144.298 48.112 144.682 48.208 145.258 48.208ZM158.17 41.752H161.794V43.6H158.17V55.6H155.986V34H158.17V41.752ZM162.931 53.488C162.931 53.104 163.067 52.776 163.339 52.504C163.611 52.232 163.939 52.096 164.323 52.096C164.707 52.096 165.035 52.232 165.307 52.504C165.579 52.776 165.715 53.104 165.715 53.488C165.715 53.872 165.579 54.2 165.307 54.472C165.035 54.744 164.707 54.88 164.323 54.88C163.939 54.88 163.611 54.744 163.339 54.472C163.067 54.2 162.931 53.872 162.931 53.488Z" fill="#0D0302"/>
</svg>
