<svg width="1240" height="111" viewBox="0 0 1240 111" fill="none" xmlns="http://www.w3.org/2000/svg">
<path d="M480.566 20L481.65 5.69336H484.521L488.056 15.6836L488.603 17.5488H488.798L489.335 15.6836L492.88 5.69336H495.761L496.845 20H494.96L494.198 8.76953L494.12 6.71875H493.935L493.368 8.67188L489.501 19.707H487.773L483.866 8.69141L483.28 6.71875H483.095L483.036 8.75L482.275 20H480.566ZM500.995 20V5.69336H509.384L509.091 7.20703H502.909V11.7773H508.417L508.124 13.291H502.909V18.4863H509.54L509.247 20H500.995ZM513.348 5.69336H518.182C519.445 5.69336 520.552 5.86914 521.502 6.2207C522.459 6.56576 523.257 7.03776 523.895 7.63672C524.533 8.23568 525.011 8.94206 525.33 9.75586C525.656 10.5697 525.819 11.4388 525.819 12.3633C525.819 12.9622 525.75 13.5677 525.614 14.1797C525.477 14.7852 525.265 15.3711 524.979 15.9375C524.699 16.5039 524.344 17.0345 523.914 17.5293C523.485 18.0241 522.974 18.4538 522.381 18.8184C521.795 19.1829 521.125 19.4727 520.37 19.6875C519.621 19.8958 518.787 20 517.87 20H513.348V5.69336ZM515.262 18.4863H518.221C519.165 18.4863 519.989 18.3366 520.692 18.0371C521.395 17.7311 521.974 17.321 522.43 16.8066C522.892 16.2858 523.237 15.6803 523.465 14.9902C523.693 14.2936 523.807 13.5514 523.807 12.7637C523.807 11.9043 523.674 11.1328 523.407 10.4492C523.146 9.75911 522.762 9.17643 522.254 8.70117C521.753 8.2194 521.131 7.85156 520.389 7.59766C519.653 7.33724 518.814 7.20703 517.87 7.20703H515.262V18.4863ZM531.717 20H529.803V5.69336H531.717V20ZM535.935 20L537.019 5.69336H539.89L543.425 15.6836L543.972 17.5488H544.168L544.705 15.6836L548.25 5.69336H551.13L552.214 20H550.33L549.568 8.76953L549.49 6.71875H549.304L548.738 8.67188L544.871 19.707H543.142L539.236 8.69141L538.65 6.71875H538.464L538.406 8.75L537.644 20H535.935ZM562.907 18.6816C563.656 18.6816 564.34 18.5319 564.958 18.2324C565.583 17.9329 566.12 17.5228 566.57 17.002C567.019 16.4746 567.367 15.8594 567.614 15.1562C567.862 14.4531 567.986 13.6947 567.986 12.8809C567.986 12.028 567.849 11.2435 567.575 10.5273C567.308 9.80469 566.937 9.18294 566.462 8.66211C565.993 8.14128 565.44 7.73763 564.802 7.45117C564.17 7.1582 563.49 7.01172 562.761 7.01172C561.999 7.01172 561.306 7.16797 560.681 7.48047C560.062 7.78646 559.532 8.20312 559.089 8.73047C558.646 9.25781 558.301 9.8763 558.054 10.5859C557.813 11.2891 557.693 12.041 557.693 12.8418C557.693 13.6947 557.826 14.4792 558.093 15.1953C558.36 15.9049 558.728 16.5202 559.196 17.041C559.665 17.5553 560.215 17.959 560.847 18.252C561.485 18.5384 562.172 18.6816 562.907 18.6816ZM562.575 20.1953C561.664 20.1953 560.792 20.0326 559.958 19.707C559.125 19.3815 558.389 18.916 557.751 18.3105C557.12 17.7051 556.615 16.9727 556.237 16.1133C555.866 15.2474 555.681 14.2773 555.681 13.2031C555.681 12.4609 555.772 11.7578 555.954 11.0938C556.143 10.4232 556.404 9.80469 556.736 9.23828C557.068 8.66536 557.461 8.14779 557.917 7.68555C558.379 7.22331 558.887 6.83268 559.441 6.51367C559.994 6.18815 560.58 5.9375 561.198 5.76172C561.823 5.58594 562.468 5.49805 563.132 5.49805C563.724 5.49805 564.304 5.56966 564.87 5.71289C565.443 5.85612 565.984 6.06445 566.491 6.33789C567.006 6.61133 567.474 6.94987 567.898 7.35352C568.327 7.75716 568.698 8.21615 569.011 8.73047C569.323 9.24479 569.564 9.81771 569.734 10.4492C569.909 11.0742 569.997 11.7513 569.997 12.4805C569.997 13.2161 569.906 13.9193 569.724 14.5898C569.548 15.2604 569.294 15.8822 568.962 16.4551C568.637 17.0215 568.246 17.5358 567.79 17.998C567.341 18.4603 566.84 18.8542 566.286 19.1797C565.739 19.5052 565.15 19.7559 564.519 19.9316C563.894 20.1074 563.246 20.1953 562.575 20.1953ZM581.618 16.1133H575.446L574.108 20H572.302L577.624 5.69336H579.655L584.987 20H582.975L581.618 16.1133ZM581.081 14.6191L579.186 9.0332L578.63 7.04102H578.434L577.878 9.0332L575.964 14.6191H581.081ZM592.672 20L593.756 5.69336H596.627L600.162 15.6836L600.709 17.5488H600.904L601.441 15.6836L604.986 5.69336H607.867L608.951 20H607.066L606.305 8.76953L606.227 6.71875H606.041L605.475 8.67188L601.607 19.707H599.879L595.973 8.69141L595.387 6.71875H595.201L595.143 8.75L594.381 20H592.672ZM613.101 20V5.69336H621.49L621.197 7.20703H615.015V11.7773H620.523L620.23 13.291H615.015V18.4863H621.646L621.353 20H613.101ZM625.454 5.69336H630.288C631.551 5.69336 632.658 5.86914 633.609 6.2207C634.566 6.56576 635.363 7.03776 636.001 7.63672C636.639 8.23568 637.118 8.94206 637.437 9.75586C637.762 10.5697 637.925 11.4388 637.925 12.3633C637.925 12.9622 637.857 13.5677 637.72 14.1797C637.583 14.7852 637.372 15.3711 637.085 15.9375C636.805 16.5039 636.45 17.0345 636.021 17.5293C635.591 18.0241 635.08 18.4538 634.487 18.8184C633.902 19.1829 633.231 19.4727 632.476 19.6875C631.727 19.8958 630.894 20 629.976 20H625.454V5.69336ZM627.368 18.4863H630.327C631.271 18.4863 632.095 18.3366 632.798 18.0371C633.501 17.7311 634.081 17.321 634.536 16.8066C634.999 16.2858 635.344 15.6803 635.571 14.9902C635.799 14.2936 635.913 13.5514 635.913 12.7637C635.913 11.9043 635.78 11.1328 635.513 10.4492C635.252 9.75911 634.868 9.17643 634.361 8.70117C633.859 8.2194 633.237 7.85156 632.495 7.59766C631.76 7.33724 630.92 7.20703 629.976 7.20703H627.368V18.4863ZM643.823 20H641.909V5.69336H643.823V20ZM659.291 18.623C658.927 18.9421 658.53 19.2057 658.1 19.4141C657.67 19.6159 657.237 19.7754 656.801 19.8926C656.365 20.0098 655.945 20.0879 655.541 20.127C655.144 20.1725 654.793 20.1953 654.487 20.1953C653.543 20.1953 652.664 20.0293 651.85 19.6973C651.036 19.3587 650.327 18.8835 649.721 18.2715C649.122 17.6595 648.65 16.9238 648.305 16.0645C647.967 15.1986 647.797 14.235 647.797 13.1738C647.797 12.3796 647.895 11.6374 648.09 10.9473C648.286 10.2572 648.559 9.62891 648.911 9.0625C649.262 8.49609 649.679 7.99154 650.161 7.54883C650.642 7.10612 651.173 6.73503 651.752 6.43555C652.332 6.12956 652.947 5.89844 653.598 5.74219C654.249 5.57943 654.916 5.49805 655.6 5.49805C656.049 5.49805 656.59 5.54036 657.221 5.625C657.853 5.70312 658.53 5.84961 659.252 6.06445L658.92 7.76367L658.725 7.86133C658.009 7.53581 657.342 7.31445 656.723 7.19727C656.111 7.07357 655.59 7.01172 655.161 7.01172C654.379 7.01172 653.66 7.16471 653.002 7.4707C652.345 7.77018 651.778 8.18359 651.303 8.71094C650.828 9.23177 650.457 9.84049 650.19 10.5371C649.923 11.2337 649.789 11.9759 649.789 12.7637C649.789 13.5189 649.907 14.2513 650.141 14.9609C650.382 15.6641 650.733 16.2891 651.196 16.8359C651.658 17.3763 652.228 17.8125 652.905 18.1445C653.582 18.4701 654.36 18.6328 655.239 18.6328C655.493 18.6328 655.773 18.6165 656.078 18.584C656.384 18.5514 656.71 18.4928 657.055 18.4082C657.4 18.3171 657.761 18.1999 658.139 18.0566C658.517 17.9069 658.901 17.7148 659.291 17.4805V18.623ZM670.941 16.1133H664.77L663.432 20H661.625L666.947 5.69336H668.979L674.311 20H672.299L670.941 16.1133ZM670.404 14.6191L668.51 9.0332L667.953 7.04102H667.758L667.201 9.0332L665.287 14.6191H670.404ZM677.621 20V5.69336H679.535V18.4863H685.453L685.16 20H677.621ZM704.387 18.623C704.023 18.9421 703.626 19.2057 703.196 19.4141C702.766 19.6159 702.333 19.7754 701.897 19.8926C701.461 20.0098 701.041 20.0879 700.637 20.127C700.24 20.1725 699.889 20.1953 699.583 20.1953C698.639 20.1953 697.76 20.0293 696.946 19.6973C696.132 19.3587 695.423 18.8835 694.817 18.2715C694.218 17.6595 693.746 16.9238 693.401 16.0645C693.063 15.1986 692.893 14.235 692.893 13.1738C692.893 12.3796 692.991 11.6374 693.186 10.9473C693.382 10.2572 693.655 9.62891 694.007 9.0625C694.358 8.49609 694.775 7.99154 695.257 7.54883C695.738 7.10612 696.269 6.73503 696.848 6.43555C697.428 6.12956 698.043 5.89844 698.694 5.74219C699.345 5.57943 700.012 5.49805 700.696 5.49805C701.145 5.49805 701.686 5.54036 702.317 5.625C702.949 5.70312 703.626 5.84961 704.348 6.06445L704.016 7.76367L703.821 7.86133C703.105 7.53581 702.438 7.31445 701.819 7.19727C701.207 7.07357 700.686 7.01172 700.257 7.01172C699.475 7.01172 698.756 7.16471 698.098 7.4707C697.441 7.77018 696.874 8.18359 696.399 8.71094C695.924 9.23177 695.553 9.84049 695.286 10.5371C695.019 11.2337 694.885 11.9759 694.885 12.7637C694.885 13.5189 695.003 14.2513 695.237 14.9609C695.478 15.6641 695.83 16.2891 696.292 16.8359C696.754 17.3763 697.324 17.8125 698.001 18.1445C698.678 18.4701 699.456 18.6328 700.335 18.6328C700.589 18.6328 700.869 18.6165 701.175 18.584C701.481 18.5514 701.806 18.4928 702.151 18.4082C702.496 18.3171 702.858 18.1999 703.235 18.0566C703.613 17.9069 703.997 17.7148 704.387 17.4805V18.623ZM708.078 20V5.69336H709.993V18.4863H715.911L715.618 20H708.078ZM721.135 20H719.221V5.69336H721.135V20ZM725.695 20V5.69336H728.478L735.226 15.459L736.203 17.2168H736.398L736.261 15.2246V5.69336H738.009V20H736.388L728.38 8.47656L727.502 6.77734H727.306L727.443 8.76953V20H725.695ZM744.493 20H742.579V5.69336H744.493V20ZM759.962 18.623C759.597 18.9421 759.2 19.2057 758.77 19.4141C758.341 19.6159 757.908 19.7754 757.471 19.8926C757.035 20.0098 756.615 20.0879 756.212 20.127C755.815 20.1725 755.463 20.1953 755.157 20.1953C754.213 20.1953 753.334 20.0293 752.52 19.6973C751.706 19.3587 750.997 18.8835 750.391 18.2715C749.792 17.6595 749.32 16.9238 748.975 16.0645C748.637 15.1986 748.468 14.235 748.468 13.1738C748.468 12.3796 748.565 11.6374 748.76 10.9473C748.956 10.2572 749.229 9.62891 749.581 9.0625C749.932 8.49609 750.349 7.99154 750.831 7.54883C751.313 7.10612 751.843 6.73503 752.423 6.43555C753.002 6.12956 753.617 5.89844 754.268 5.74219C754.919 5.57943 755.587 5.49805 756.27 5.49805C756.719 5.49805 757.26 5.54036 757.891 5.625C758.523 5.70312 759.2 5.84961 759.923 6.06445L759.591 7.76367L759.395 7.86133C758.679 7.53581 758.012 7.31445 757.393 7.19727C756.781 7.07357 756.26 7.01172 755.831 7.01172C755.05 7.01172 754.33 7.16471 753.673 7.4707C753.015 7.77018 752.449 8.18359 751.973 8.71094C751.498 9.23177 751.127 9.84049 750.86 10.5371C750.593 11.2337 750.46 11.9759 750.46 12.7637C750.46 13.5189 750.577 14.2513 750.811 14.9609C751.052 15.6641 751.404 16.2891 751.866 16.8359C752.328 17.3763 752.898 17.8125 753.575 18.1445C754.252 18.4701 755.03 18.6328 755.909 18.6328C756.163 18.6328 756.443 18.6165 756.749 18.584C757.055 18.5514 757.38 18.4928 757.725 18.4082C758.07 18.3171 758.432 18.1999 758.809 18.0566C759.187 17.9069 759.571 17.7148 759.962 17.4805V18.623Z" fill="#B19490"/>
<path d="M260.07 58.36H278.838V70.216H283.494V55.48H287.862V97.72H283.494V73.912H278.838V81.4C278.838 83.416 278.374 84.888 277.446 85.816C276.55 86.712 275.094 87.16 273.078 87.16H265.83C263.814 87.16 262.342 86.712 261.414 85.816C260.518 84.888 260.07 83.416 260.07 81.4V58.36ZM271.59 83.464C272.742 83.464 273.51 83.272 273.894 82.888C274.278 82.504 274.47 81.736 274.47 80.584V62.056H264.438V80.584C264.438 81.736 264.63 82.504 265.014 82.888C265.398 83.272 266.166 83.464 267.318 83.464H271.59ZM296.982 98.2H292.614V55H296.982V98.2ZM310.537 83.464C313.129 83.464 315.657 83.336 318.121 83.08C320.617 82.824 323.145 82.44 325.705 81.928L326.377 85.48C323.561 86.024 320.665 86.44 317.689 86.728C314.745 87.016 311.865 87.16 309.049 87.16C307.033 87.16 305.561 86.712 304.633 85.816C303.737 84.888 303.289 83.416 303.289 81.4V58.36H325.417V62.056H307.657V80.584C307.657 81.736 307.849 82.504 308.233 82.888C308.617 83.272 309.385 83.464 310.537 83.464ZM337.801 98.2H333.433V55H337.801V98.2ZM378.092 74.68C378.092 76.696 377.628 78.168 376.7 79.096C375.804 79.992 374.348 80.44 372.332 80.44H365.468V89.704H383.276V93.4H343.34V89.704H361.1V80.44H354.284C352.268 80.44 350.796 79.992 349.868 79.096C348.972 78.168 348.524 76.696 348.524 74.68V57.88H378.092V74.68ZM373.724 61.576H352.892V73.864C352.892 75.016 353.084 75.784 353.468 76.168C353.852 76.552 354.62 76.744 355.772 76.744H370.844C371.996 76.744 372.764 76.552 373.148 76.168C373.532 75.784 373.724 75.016 373.724 73.864V61.576ZM397.935 87.64C395.951 87.64 394.239 87.304 392.799 86.632C391.359 85.96 390.159 84.984 389.199 83.704C388.271 82.424 387.567 80.872 387.087 79.048C386.639 77.192 386.415 75.096 386.415 72.76C386.415 70.424 386.639 68.344 387.087 66.52C387.567 64.664 388.271 63.096 389.199 61.816C390.159 60.536 391.359 59.56 392.799 58.888C394.239 58.216 395.951 57.88 397.935 57.88C399.919 57.88 401.631 58.216 403.071 58.888C404.511 59.56 405.695 60.536 406.623 61.816C407.583 63.096 408.287 64.664 408.735 66.52C409.215 68.344 409.455 70.424 409.455 72.76C409.455 75.096 409.215 77.192 408.735 79.048C408.287 80.872 407.583 82.424 406.623 83.704C405.695 84.984 404.511 85.96 403.071 86.632C401.631 87.304 399.919 87.64 397.935 87.64ZM397.935 83.944C402.703 83.944 405.087 80.216 405.087 72.76C405.087 65.304 402.703 61.576 397.935 61.576C393.167 61.576 390.783 65.304 390.783 72.76C390.783 80.216 393.167 83.944 397.935 83.944ZM419.919 70.504H427.167V74.2H419.919V98.2H415.551V55H419.919V70.504ZM428.337 93.4V89.704H456.753V93.4H428.337ZM464.577 98.2H460.209V55H464.577V98.2ZM442.257 80.584C444.689 80.584 446.497 79.768 447.681 78.136C448.865 76.472 449.457 74.12 449.457 71.08C449.457 68.04 448.865 65.704 447.681 64.072C446.497 62.408 444.689 61.576 442.257 61.576C439.857 61.576 438.065 62.408 436.881 64.072C435.697 65.704 435.105 68.04 435.105 71.08C435.105 74.12 435.697 76.472 436.881 78.136C438.065 79.768 439.857 80.584 442.257 80.584ZM442.257 84.28C440.561 84.28 439.009 83.992 437.601 83.416C436.193 82.84 434.977 81.992 433.953 80.872C432.929 79.72 432.129 78.328 431.553 76.696C431.009 75.064 430.737 73.192 430.737 71.08C430.737 68.968 431.009 67.096 431.553 65.464C432.129 63.832 432.929 62.456 433.953 61.336C434.977 60.184 436.193 59.32 437.601 58.744C439.041 58.168 440.609 57.88 442.305 57.88C444.001 57.88 445.553 58.168 446.961 58.744C448.369 59.32 449.585 60.184 450.609 61.336C451.633 62.456 452.417 63.832 452.961 65.464C453.537 67.096 453.825 68.968 453.825 71.08C453.825 73.192 453.537 75.064 452.961 76.696C452.417 78.328 451.633 79.72 450.609 80.872C449.585 81.992 448.353 82.84 446.913 83.416C445.505 83.992 443.953 84.28 442.257 84.28ZM484.516 75.352C482.788 75.352 481.22 75.144 479.812 74.728C478.404 74.28 477.188 73.656 476.164 72.856C475.172 72.024 474.388 71.032 473.812 69.88C473.268 68.696 472.996 67.368 472.996 65.896C472.996 64.424 473.268 63.112 473.812 61.96C474.388 60.776 475.172 59.784 476.164 58.984C477.188 58.152 478.404 57.528 479.812 57.112C481.22 56.664 482.788 56.44 484.516 56.44C486.244 56.44 487.812 56.664 489.22 57.112C490.628 57.528 491.828 58.152 492.82 58.984C493.844 59.784 494.628 60.776 495.172 61.96C495.748 63.112 496.036 64.424 496.036 65.896C496.036 67.368 495.748 68.696 495.172 69.88C494.628 71.032 493.844 72.024 492.82 72.856C491.828 73.656 490.628 74.28 489.22 74.728C487.812 75.144 486.244 75.352 484.516 75.352ZM502.468 84.184V55H506.836V90.52H502.468V87.88H492.052V84.184H502.468ZM483.124 94.744C484.692 94.744 486.5 94.728 488.548 94.696C490.596 94.664 492.708 94.6 494.884 94.504C497.092 94.408 499.284 94.264 501.46 94.072C503.636 93.88 505.668 93.624 507.556 93.304L507.988 97C506.036 97.288 503.972 97.528 501.796 97.72C499.62 97.912 497.396 98.056 495.124 98.152C492.852 98.28 490.564 98.36 488.26 98.392C485.988 98.424 483.78 98.44 481.636 98.44C479.62 98.44 478.148 97.976 477.22 97.048C476.324 96.152 475.876 94.696 475.876 92.68V85.864H480.244V91.864C480.244 93.016 480.436 93.784 480.82 94.168C481.204 94.552 481.972 94.744 483.124 94.744ZM483.316 89.032V81.4H470.596V77.704H499.012V81.4H487.684V89.032H483.316ZM484.516 71.656C486.82 71.656 488.596 71.192 489.844 70.264C491.092 69.304 491.716 67.848 491.716 65.896C491.716 63.944 491.092 62.504 489.844 61.576C488.596 60.616 486.82 60.136 484.516 60.136C482.212 60.136 480.436 60.616 479.188 61.576C477.94 62.504 477.316 63.944 477.316 65.896C477.316 67.848 477.94 69.304 479.188 70.264C480.436 71.192 482.212 71.656 484.516 71.656Z" fill="#DF7262"/>
<path d="M541.415 97.72H537.047V72.952H532.871C532.871 75.256 532.679 77.32 532.295 79.144C531.911 80.968 531.319 82.504 530.519 83.752C529.719 85 528.695 85.96 527.447 86.632C526.231 87.304 524.759 87.64 523.031 87.64C521.303 87.64 519.815 87.304 518.567 86.632C517.319 85.96 516.295 84.984 515.495 83.704C514.695 82.424 514.103 80.872 513.719 79.048C513.367 77.192 513.191 75.096 513.191 72.76C513.191 70.424 513.367 68.344 513.719 66.52C514.103 64.664 514.695 63.096 515.495 61.816C516.295 60.536 517.319 59.56 518.567 58.888C519.815 58.216 521.303 57.88 523.031 57.88C526.071 57.88 528.343 58.888 529.847 60.904C531.383 62.888 532.327 65.672 532.679 69.256H537.047V55.48H541.415V97.72ZM523.031 83.944C524.919 83.944 526.295 83.016 527.159 81.16C528.055 79.272 528.503 76.472 528.503 72.76C528.503 69.048 528.055 66.264 527.159 64.408C526.295 62.52 524.919 61.576 523.031 61.576C521.143 61.576 519.751 62.52 518.855 64.408C517.991 66.264 517.559 69.048 517.559 72.76C517.559 76.472 517.991 79.272 518.855 81.16C519.751 83.016 521.143 83.944 523.031 83.944ZM550.535 98.2H546.167V55H550.535V98.2ZM567.127 93.4V89.704H584.887V81.064C582.871 80.904 581.047 80.52 579.415 79.912C577.815 79.304 576.455 78.504 575.335 77.512C574.215 76.488 573.351 75.288 572.743 73.912C572.135 72.536 571.831 70.984 571.831 69.256C571.831 67.4 572.183 65.736 572.887 64.264C573.623 62.792 574.647 61.56 575.959 60.568C577.271 59.544 578.871 58.76 580.759 58.216C582.647 57.672 584.759 57.4 587.095 57.4C589.431 57.4 591.543 57.672 593.431 58.216C595.319 58.76 596.919 59.544 598.231 60.568C599.543 61.56 600.551 62.792 601.255 64.264C601.991 65.736 602.359 67.4 602.359 69.256C602.359 70.984 602.055 72.536 601.447 73.912C600.839 75.288 599.959 76.488 598.807 77.512C597.687 78.504 596.311 79.304 594.679 79.912C593.079 80.52 591.271 80.904 589.255 81.064V89.704H607.063V93.4H567.127ZM587.095 77.416C590.647 77.416 593.351 76.696 595.207 75.256C597.063 73.784 597.991 71.784 597.991 69.256C597.991 66.696 597.063 64.696 595.207 63.256C593.351 61.816 590.647 61.096 587.095 61.096C583.543 61.096 580.839 61.816 578.983 63.256C577.127 64.696 576.199 66.696 576.199 69.256C576.199 71.784 577.127 73.784 578.983 75.256C580.839 76.696 583.543 77.416 587.095 77.416ZM634.297 80.44C631.769 79.32 629.577 77.976 627.721 76.408C625.897 74.84 624.377 72.952 623.161 70.744C621.913 72.952 620.297 74.92 618.313 76.648C616.329 78.376 614.089 79.8 611.593 80.92L609.481 77.656C611.145 76.856 612.681 75.96 614.089 74.968C615.529 73.976 616.745 72.872 617.737 71.656C618.761 70.44 619.561 69.08 620.137 67.576C620.713 66.04 621.001 64.328 621.001 62.44V56.92H625.369V62.44C625.369 64.328 625.625 66.008 626.137 67.48C626.649 68.92 627.385 70.232 628.345 71.416C629.305 72.568 630.457 73.624 631.801 74.584C633.177 75.512 634.713 76.376 636.409 77.176L634.297 80.44ZM623.161 94.744C625.241 94.744 627.257 94.712 629.209 94.648C631.193 94.616 633.145 94.536 635.065 94.408C637.017 94.312 638.953 94.168 640.873 93.976C642.825 93.784 644.809 93.56 646.825 93.304L647.257 97C642.745 97.544 638.425 97.912 634.297 98.104C630.201 98.328 625.993 98.44 621.673 98.44C619.657 98.44 618.185 97.976 617.257 97.048C616.361 96.152 615.913 94.696 615.913 92.68V84.568H620.281V91.864C620.281 93.016 620.473 93.784 620.857 94.168C621.241 94.552 622.009 94.744 623.161 94.744ZM646.105 86.2H641.737V55H646.105V86.2ZM665.865 57.4H687.465V58.168C687.465 60.888 686.921 63.352 685.833 65.56C684.777 67.768 683.289 69.736 681.369 71.464C679.449 73.16 677.177 74.648 674.553 75.928C671.961 77.176 669.129 78.2 666.057 79L664.089 75.784C666.457 75.176 668.713 74.392 670.857 73.432C673.001 72.472 674.921 71.368 676.617 70.12C678.313 68.872 679.721 67.496 680.841 65.992C681.961 64.488 682.665 62.856 682.953 61.096H665.865V57.4ZM702.489 98.2C700.793 97.944 699.129 97.608 697.497 97.192C695.865 96.776 694.329 96.264 692.889 95.656C691.481 95.08 690.185 94.376 689.001 93.544C687.849 92.712 686.889 91.736 686.121 90.616C685.353 91.736 684.377 92.712 683.193 93.544C682.041 94.376 680.745 95.08 679.305 95.656C677.897 96.264 676.377 96.776 674.745 97.192C673.145 97.608 671.497 97.944 669.801 98.2L668.505 94.6C670.393 94.408 672.265 94.056 674.121 93.544C675.977 93.064 677.625 92.424 679.065 91.624C680.537 90.824 681.721 89.864 682.617 88.744C683.513 87.592 683.961 86.264 683.961 84.76V82.024H688.329V84.76C688.329 86.264 688.777 87.592 689.673 88.744C690.569 89.864 691.737 90.824 693.177 91.624C694.649 92.424 696.313 93.064 698.169 93.544C700.025 94.056 701.897 94.408 703.785 94.6L702.489 98.2ZM696.489 65.704V55H700.857V81.88H696.489V69.4H687.993V65.704H696.489ZM726.364 71.992C721.436 71.992 717.66 71.384 715.036 70.168C712.412 68.952 711.1 66.968 711.1 64.216C711.1 61.464 712.412 59.48 715.036 58.264C717.66 57.048 721.436 56.44 726.364 56.44C731.292 56.44 735.068 57.048 737.692 58.264C740.316 59.48 741.628 61.464 741.628 64.216C741.628 66.968 740.316 68.952 737.692 70.168C735.068 71.384 731.292 71.992 726.364 71.992ZM726.364 68.296C729.916 68.296 732.62 68.008 734.476 67.432C736.332 66.856 737.26 65.784 737.26 64.216C737.26 62.616 736.332 61.544 734.476 61C732.62 60.424 729.916 60.136 726.364 60.136C722.812 60.136 720.108 60.424 718.252 61C716.396 61.544 715.468 62.616 715.468 64.216C715.468 65.784 716.396 66.856 718.252 67.432C720.108 68.008 722.812 68.296 726.364 68.296ZM706.396 78.28V74.584H746.332V78.28H706.396ZM715.996 91.384V92.824C715.996 94.104 716.636 94.744 717.916 94.744C719.484 94.744 721.26 94.728 723.244 94.696C725.26 94.664 727.324 94.6 729.436 94.504C731.58 94.408 733.708 94.264 735.82 94.072C737.964 93.88 739.98 93.624 741.868 93.304L742.3 97C738.396 97.608 734.268 97.992 729.916 98.152C725.564 98.344 721.228 98.44 716.908 98.44C713.388 98.44 711.628 96.68 711.628 93.16V87.688H736.78V84.76H711.628V81.064H741.148V91.384H715.996ZM760.668 84.52V80.824H772.428V78.424C769.292 78.168 766.988 77.368 765.516 76.024C764.044 74.68 763.308 72.952 763.308 70.84C763.308 68.536 764.22 66.68 766.044 65.272C767.868 63.864 770.732 63.16 774.636 63.16C778.508 63.16 781.356 63.864 783.18 65.272C785.004 66.68 785.916 68.536 785.916 70.84C785.916 72.952 785.18 74.68 783.708 76.024C782.236 77.368 779.932 78.168 776.796 78.424V80.824H789.084V84.52H760.668ZM795.468 68.584H802.716V72.28H795.468V86.2H791.1V55H795.468V68.584ZM773.196 94.744C774.764 94.744 776.492 94.728 778.38 94.696C780.3 94.664 782.252 94.6 784.236 94.504C786.252 94.408 788.268 94.264 790.284 94.072C792.332 93.88 794.3 93.624 796.188 93.304L796.62 97C792.716 97.608 788.668 97.992 784.476 98.152C780.284 98.344 776.028 98.44 771.708 98.44C769.692 98.44 768.22 97.976 767.292 97.048C766.396 96.152 765.948 94.696 765.948 92.68V86.824H770.316V91.864C770.316 93.016 770.508 93.784 770.892 94.168C771.276 94.552 772.044 94.744 773.196 94.744ZM772.428 57.88V54.04H776.796V57.88H787.596V61.576H761.628V57.88H772.428ZM774.588 74.824C777.02 74.824 778.78 74.472 779.868 73.768C780.988 73.064 781.548 72.088 781.548 70.84C781.548 69.592 780.988 68.616 779.868 67.912C778.78 67.208 777.02 66.856 774.588 66.856C772.188 66.856 770.428 67.208 769.308 67.912C768.22 68.616 767.676 69.592 767.676 70.84C767.676 72.088 768.22 73.064 769.308 73.768C770.428 74.472 772.188 74.824 774.588 74.824ZM816.175 78.52C814.479 78.52 812.927 78.264 811.519 77.752C810.111 77.24 808.895 76.52 807.871 75.592C806.847 74.632 806.047 73.496 805.471 72.184C804.927 70.84 804.655 69.352 804.655 67.72C804.655 66.088 804.927 64.616 805.471 63.304C806.047 61.96 806.847 60.824 807.871 59.896C808.895 58.936 810.111 58.2 811.519 57.688C812.959 57.176 814.527 56.92 816.223 56.92C818.207 56.92 819.983 57.272 821.551 57.976C823.119 58.68 824.415 59.656 825.439 60.904H835.759V55H840.127V80.44H835.759V73.72H826.063C825.071 75.256 823.727 76.44 822.031 77.272C820.335 78.104 818.383 78.52 816.175 78.52ZM808.879 90.376C808.879 88.968 809.247 87.752 809.983 86.728C810.719 85.672 811.775 84.808 813.151 84.136C814.527 83.432 816.191 82.92 818.143 82.6C820.127 82.248 822.351 82.072 824.815 82.072C827.279 82.072 829.487 82.248 831.439 82.6C833.423 82.92 835.103 83.432 836.479 84.136C837.855 84.808 838.911 85.672 839.647 86.728C840.383 87.752 840.751 88.968 840.751 90.376C840.751 91.784 840.383 93 839.647 94.024C838.911 95.08 837.855 95.944 836.479 96.616C835.103 97.32 833.423 97.832 831.439 98.152C829.487 98.504 827.279 98.68 824.815 98.68C822.351 98.68 820.127 98.504 818.143 98.152C816.191 97.832 814.527 97.32 813.151 96.616C811.775 95.944 810.719 95.08 809.983 94.024C809.247 93 808.879 91.784 808.879 90.376ZM836.383 90.376C836.383 89.48 836.095 88.744 835.519 88.168C834.943 87.56 834.143 87.08 833.119 86.728C832.095 86.376 830.863 86.136 829.423 86.008C828.015 85.848 826.479 85.768 824.815 85.768C823.119 85.768 821.567 85.848 820.159 86.008C818.751 86.136 817.535 86.376 816.511 86.728C815.487 87.08 814.687 87.56 814.111 88.168C813.535 88.744 813.247 89.48 813.247 90.376C813.247 91.272 813.535 92.008 814.111 92.584C814.687 93.192 815.487 93.672 816.511 94.024C817.535 94.376 818.751 94.616 820.159 94.744C821.567 94.904 823.119 94.984 824.815 94.984C826.479 94.984 828.015 94.904 829.423 94.744C830.863 94.616 832.095 94.376 833.119 94.024C834.143 93.672 834.943 93.192 835.519 92.584C836.095 92.008 836.383 91.272 836.383 90.376ZM816.175 74.824C818.607 74.824 820.415 74.168 821.599 72.856C822.783 71.512 823.375 69.8 823.375 67.72C823.375 65.64 822.783 63.944 821.599 62.632C820.415 61.288 818.607 60.616 816.175 60.616C813.775 60.616 811.983 61.288 810.799 62.632C809.615 63.944 809.023 65.64 809.023 67.72C809.023 69.8 809.615 71.512 810.799 72.856C811.983 74.168 813.775 74.824 816.175 74.824ZM827.743 67.72C827.743 68.456 827.663 69.224 827.503 70.024H835.759V64.6H827.311C827.599 65.56 827.743 66.6 827.743 67.72ZM855.601 86.344H875.617V82.024H879.985V92.44C879.985 94.456 879.521 95.912 878.593 96.808C877.697 97.736 876.241 98.2 874.225 98.2H856.993C854.977 98.2 853.505 97.736 852.577 96.808C851.681 95.912 851.233 94.456 851.233 92.44V82.024H855.601V86.344ZM858.961 79.96C857.265 79.96 855.713 79.816 854.305 79.528C852.929 79.208 851.745 78.744 850.753 78.136C849.793 77.528 849.041 76.76 848.497 75.832C847.953 74.904 847.681 73.8 847.681 72.52C847.681 71.24 847.953 70.136 848.497 69.208C849.041 68.28 849.809 67.512 850.801 66.904C851.793 66.296 852.977 65.848 854.353 65.56C855.761 65.24 857.313 65.08 859.009 65.08C860.705 65.08 862.241 65.24 863.617 65.56C865.025 65.848 866.209 66.296 867.169 66.904C868.161 67.512 868.929 68.28 869.473 69.208C870.017 70.136 870.289 71.24 870.289 72.52C870.289 73.8 870.017 74.904 869.473 75.832C868.929 76.76 868.161 77.528 867.169 78.136C866.177 78.744 864.977 79.208 863.569 79.528C862.193 79.816 860.657 79.96 858.961 79.96ZM879.985 65.464H887.233V69.16H879.985V79.48H875.617V55H879.985V65.464ZM856.801 59.32V54.52H861.169V59.32H871.969V63.016H846.001V59.32H856.801ZM875.617 90.04H855.601V91.624C855.601 92.776 855.793 93.544 856.177 93.928C856.561 94.312 857.329 94.504 858.481 94.504H872.737C873.889 94.504 874.657 94.312 875.041 93.928C875.425 93.544 875.617 92.776 875.617 91.624V90.04ZM858.961 76.264C861.393 76.264 863.153 75.944 864.241 75.304C865.361 74.664 865.921 73.736 865.921 72.52C865.921 71.304 865.361 70.376 864.241 69.736C863.153 69.096 861.393 68.776 858.961 68.776C856.561 68.776 854.801 69.096 853.681 69.736C852.593 70.376 852.049 71.304 852.049 72.52C852.049 73.736 852.593 74.664 853.681 75.304C854.801 75.944 856.561 76.264 858.961 76.264ZM897.86 83.896C900.452 83.896 902.98 83.768 905.444 83.512C907.94 83.256 910.468 82.872 913.028 82.36L913.7 85.912C910.884 86.456 907.988 86.872 905.012 87.16C902.068 87.448 899.188 87.592 896.372 87.592C894.356 87.592 892.884 87.144 891.956 86.248C891.06 85.32 890.612 83.848 890.612 81.832V58.36H894.98V81.016C894.98 82.168 895.172 82.936 895.556 83.32C895.94 83.704 896.708 83.896 897.86 83.896ZM924.644 98.2H920.276V55H924.644V98.2ZM938.679 83.416C941.271 83.416 943.799 83.288 946.263 83.032C948.759 82.776 951.287 82.392 953.847 81.88L954.519 85.432C951.703 85.976 948.807 86.392 945.831 86.68C942.887 86.968 940.007 87.112 937.191 87.112C935.175 87.112 933.703 86.664 932.775 85.768C931.879 84.84 931.431 83.368 931.431 81.352V58.36H953.559V62.056H935.799V80.536C935.799 81.688 935.991 82.456 936.375 82.84C936.759 83.224 937.527 83.416 938.679 83.416ZM964.503 70.504H971.751V74.2H964.503V98.2H960.135V55H964.503V70.504ZM974.026 93.976C974.026 93.208 974.298 92.552 974.842 92.008C975.386 91.464 976.042 91.192 976.81 91.192C977.578 91.192 978.234 91.464 978.778 92.008C979.322 92.552 979.594 93.208 979.594 93.976C979.594 94.744 979.322 95.4 978.778 95.944C978.234 96.488 977.578 96.76 976.81 96.76C976.042 96.76 975.386 96.488 974.842 95.944C974.298 95.4 974.026 94.744 974.026 93.976Z" fill="#0D0302"/>
</svg>
