<svg width="708" height="45" viewBox="0 0 708 45" fill="none" xmlns="http://www.w3.org/2000/svg">
<path d="M0.31689 4.36H19.0849V16.216H23.7409V1.48H28.1089V43.72H23.7409V19.912H19.0849V27.4C19.0849 29.416 18.6209 30.888 17.6929 31.816C16.7969 32.712 15.3409 33.16 13.3249 33.16H6.07689C4.06089 33.16 2.58889 32.712 1.66089 31.816C0.76489 30.888 0.31689 29.416 0.31689 27.4V4.36ZM11.8369 29.464C12.9889 29.464 13.7569 29.272 14.1409 28.888C14.5249 28.504 14.7169 27.736 14.7169 26.584V8.056H4.68489V26.584C4.68489 27.736 4.87689 28.504 5.26089 28.888C5.64489 29.272 6.41289 29.464 7.56489 29.464H11.8369ZM37.2289 44.2H32.8609V0.999997H37.2289V44.2ZM50.7836 29.464C53.3756 29.464 55.9036 29.336 58.3676 29.08C60.8636 28.824 63.3916 28.44 65.9517 27.928L66.6237 31.48C63.8076 32.024 60.9116 32.44 57.9356 32.728C54.9916 33.016 52.1116 33.16 49.2956 33.16C47.2796 33.16 45.8076 32.712 44.8796 31.816C43.9836 30.888 43.5356 29.416 43.5356 27.4V4.36H65.6636V8.056H47.9036V26.584C47.9036 27.736 48.0956 28.504 48.4796 28.888C48.8636 29.272 49.6316 29.464 50.7836 29.464ZM78.0476 44.2H73.6796V0.999997H78.0476V44.2ZM118.338 20.68C118.338 22.696 117.874 24.168 116.946 25.096C116.05 25.992 114.594 26.44 112.578 26.44H105.714V35.704H123.522V39.4H83.5864V35.704H101.346V26.44H94.5304C92.5144 26.44 91.0424 25.992 90.1144 25.096C89.2184 24.168 88.7704 22.696 88.7704 20.68V3.88H118.338V20.68ZM113.97 7.576H93.1384V19.864C93.1384 21.016 93.3304 21.784 93.7144 22.168C94.0984 22.552 94.8664 22.744 96.0184 22.744H111.09C112.242 22.744 113.01 22.552 113.394 22.168C113.778 21.784 113.97 21.016 113.97 19.864V7.576ZM138.181 33.64C136.197 33.64 134.485 33.304 133.045 32.632C131.605 31.96 130.405 30.984 129.445 29.704C128.517 28.424 127.813 26.872 127.333 25.048C126.885 23.192 126.661 21.096 126.661 18.76C126.661 16.424 126.885 14.344 127.333 12.52C127.813 10.664 128.517 9.096 129.445 7.816C130.405 6.536 131.605 5.56 133.045 4.888C134.485 4.216 136.197 3.88 138.181 3.88C140.165 3.88 141.877 4.216 143.317 4.888C144.757 5.56 145.941 6.536 146.869 7.816C147.829 9.096 148.533 10.664 148.981 12.52C149.461 14.344 149.701 16.424 149.701 18.76C149.701 21.096 149.461 23.192 148.981 25.048C148.533 26.872 147.829 28.424 146.869 29.704C145.941 30.984 144.757 31.96 143.317 32.632C141.877 33.304 140.165 33.64 138.181 33.64ZM138.181 29.944C142.949 29.944 145.333 26.216 145.333 18.76C145.333 11.304 142.949 7.576 138.181 7.576C133.413 7.576 131.029 11.304 131.029 18.76C131.029 26.216 133.413 29.944 138.181 29.944ZM160.165 16.504H167.413V20.2H160.165V44.2H155.797V0.999997H160.165V16.504ZM168.584 39.4V35.704H197V39.4H168.584ZM204.824 44.2H200.456V0.999997H204.824V44.2ZM182.504 26.584C184.936 26.584 186.744 25.768 187.928 24.136C189.112 22.472 189.704 20.12 189.704 17.08C189.704 14.04 189.112 11.704 187.928 10.072C186.744 8.408 184.936 7.576 182.504 7.576C180.104 7.576 178.312 8.408 177.128 10.072C175.944 11.704 175.352 14.04 175.352 17.08C175.352 20.12 175.944 22.472 177.128 24.136C178.312 25.768 180.104 26.584 182.504 26.584ZM182.504 30.28C180.808 30.28 179.256 29.992 177.848 29.416C176.44 28.84 175.224 27.992 174.2 26.872C173.176 25.72 172.376 24.328 171.8 22.696C171.256 21.064 170.984 19.192 170.984 17.08C170.984 14.968 171.256 13.096 171.8 11.464C172.376 9.832 173.176 8.456 174.2 7.336C175.224 6.184 176.44 5.32 177.848 4.744C179.288 4.168 180.856 3.88 182.552 3.88C184.248 3.88 185.8 4.168 187.208 4.744C188.616 5.32 189.832 6.184 190.856 7.336C191.88 8.456 192.664 9.832 193.208 11.464C193.784 13.096 194.072 14.968 194.072 17.08C194.072 19.192 193.784 21.064 193.208 22.696C192.664 24.328 191.88 25.72 190.856 26.872C189.832 27.992 188.6 28.84 187.16 29.416C185.752 29.992 184.2 30.28 182.504 30.28ZM224.763 21.352C223.035 21.352 221.467 21.144 220.059 20.728C218.651 20.28 217.435 19.656 216.411 18.856C215.419 18.024 214.635 17.032 214.059 15.88C213.515 14.696 213.243 13.368 213.243 11.896C213.243 10.424 213.515 9.112 214.059 7.96C214.635 6.776 215.419 5.784 216.411 4.984C217.435 4.152 218.651 3.528 220.059 3.112C221.467 2.664 223.035 2.44 224.763 2.44C226.491 2.44 228.059 2.664 229.467 3.112C230.875 3.528 232.075 4.152 233.067 4.984C234.091 5.784 234.875 6.776 235.419 7.96C235.995 9.112 236.283 10.424 236.283 11.896C236.283 13.368 235.995 14.696 235.419 15.88C234.875 17.032 234.091 18.024 233.067 18.856C232.075 19.656 230.875 20.28 229.467 20.728C228.059 21.144 226.491 21.352 224.763 21.352ZM242.715 30.184V0.999997H247.083V36.52H242.715V33.88H232.299V30.184H242.715ZM223.371 40.744C224.939 40.744 226.747 40.728 228.795 40.696C230.843 40.664 232.955 40.6 235.131 40.504C237.339 40.408 239.531 40.264 241.707 40.072C243.883 39.88 245.915 39.624 247.803 39.304L248.235 43C246.283 43.288 244.219 43.528 242.043 43.72C239.867 43.912 237.643 44.056 235.371 44.152C233.099 44.28 230.811 44.36 228.507 44.392C226.235 44.424 224.027 44.44 221.883 44.44C219.867 44.44 218.395 43.976 217.467 43.048C216.571 42.152 216.123 40.696 216.123 38.68V31.864H220.491V37.864C220.491 39.016 220.683 39.784 221.067 40.168C221.451 40.552 222.219 40.744 223.371 40.744ZM223.563 35.032V27.4H210.843V23.704H239.259V27.4H227.931V35.032H223.563ZM224.763 17.656C227.067 17.656 228.843 17.192 230.091 16.264C231.339 15.304 231.963 13.848 231.963 11.896C231.963 9.944 231.339 8.504 230.091 7.576C228.843 6.616 227.067 6.136 224.763 6.136C222.459 6.136 220.683 6.616 219.435 7.576C218.187 8.504 217.563 9.944 217.563 11.896C217.563 13.848 218.187 15.304 219.435 16.264C220.683 17.192 222.459 17.656 224.763 17.656ZM253.101 39.4V35.704H281.517V39.4H253.101ZM289.341 44.2H284.973V0.999997H289.341V44.2ZM267.021 26.584C269.453 26.584 271.261 25.768 272.445 24.136C273.629 22.472 274.221 20.12 274.221 17.08C274.221 14.04 273.629 11.704 272.445 10.072C271.261 8.408 269.453 7.576 267.021 7.576C264.621 7.576 262.829 8.408 261.645 10.072C260.461 11.704 259.869 14.04 259.869 17.08C259.869 20.12 260.461 22.472 261.645 24.136C262.829 25.768 264.621 26.584 267.021 26.584ZM267.021 30.28C265.325 30.28 263.773 29.992 262.365 29.416C260.957 28.84 259.741 27.992 258.717 26.872C257.693 25.72 256.893 24.328 256.317 22.696C255.773 21.064 255.501 19.192 255.501 17.08C255.501 14.968 255.773 13.096 256.317 11.464C256.893 9.832 257.693 8.456 258.717 7.336C259.741 6.184 260.957 5.32 262.365 4.744C263.805 4.168 265.373 3.88 267.069 3.88C268.765 3.88 270.317 4.168 271.725 4.744C273.133 5.32 274.349 6.184 275.373 7.336C276.397 8.456 277.181 9.832 277.725 11.464C278.301 13.096 278.589 14.968 278.589 17.08C278.589 19.192 278.301 21.064 277.725 22.696C277.181 24.328 276.397 25.72 275.373 26.872C274.349 27.992 273.117 28.84 271.677 29.416C270.269 29.992 268.717 30.28 267.021 30.28ZM307.853 39.4V35.704H336.269V39.4H307.853ZM344.093 44.2H339.725V0.999997H344.093V44.2ZM321.773 26.584C324.205 26.584 326.013 25.768 327.197 24.136C328.381 22.472 328.973 20.12 328.973 17.08C328.973 14.04 328.381 11.704 327.197 10.072C326.013 8.408 324.205 7.576 321.773 7.576C319.373 7.576 317.581 8.408 316.397 10.072C315.213 11.704 314.621 14.04 314.621 17.08C314.621 20.12 315.213 22.472 316.397 24.136C317.581 25.768 319.373 26.584 321.773 26.584ZM321.773 30.28C320.077 30.28 318.525 29.992 317.117 29.416C315.709 28.84 314.493 27.992 313.469 26.872C312.445 25.72 311.645 24.328 311.069 22.696C310.525 21.064 310.253 19.192 310.253 17.08C310.253 14.968 310.525 13.096 311.069 11.464C311.645 9.832 312.445 8.456 313.469 7.336C314.493 6.184 315.709 5.32 317.117 4.744C318.557 4.168 320.125 3.88 321.821 3.88C323.517 3.88 325.069 4.168 326.477 4.744C327.885 5.32 329.101 6.184 330.125 7.336C331.149 8.456 331.933 9.832 332.477 11.464C333.053 13.096 333.341 14.968 333.341 17.08C333.341 19.192 333.053 21.064 332.477 22.696C331.933 24.328 331.149 25.72 330.125 26.872C329.101 27.992 327.869 28.84 326.429 29.416C325.021 29.992 323.469 30.28 321.773 30.28ZM349.632 39.4V35.704H359.712V27.88C356.448 27.784 354.816 26.024 354.816 22.6V13.912H380.016V7.576H354.816V3.88H384.384V17.608H359.184V22.264C359.184 23.544 359.824 24.184 361.104 24.184C362.672 24.184 364.448 24.168 366.432 24.136C368.448 24.104 370.512 24.04 372.624 23.944C374.768 23.848 376.896 23.704 379.008 23.512C381.152 23.32 383.168 23.064 385.056 22.744L385.488 26.44C384.496 26.6 383.488 26.744 382.464 26.872C381.472 27 380.464 27.112 379.44 27.208V35.704H389.568V39.4H349.632ZM375.072 27.496C373.248 27.624 371.408 27.72 369.552 27.784C367.728 27.816 365.904 27.848 364.08 27.88V35.704H375.072V27.496ZM417.955 3.4V7.096H407.875V11.8C407.875 13.016 408.131 14.2 408.643 15.352C409.155 16.472 409.891 17.528 410.851 18.52C411.811 19.48 412.963 20.36 414.307 21.16C415.683 21.928 417.219 22.6 418.915 23.176L416.803 26.44C414.147 25.512 411.939 24.408 410.179 23.128C408.451 21.816 406.947 20.248 405.667 18.424C404.355 20.28 402.755 21.928 400.867 23.368C398.979 24.808 396.723 25.992 394.099 26.92L391.987 23.656C393.683 23.08 395.235 22.376 396.643 21.544C398.051 20.68 399.267 19.736 400.291 18.712C401.315 17.688 402.099 16.584 402.643 15.4C403.219 14.216 403.507 13.016 403.507 11.8V7.096H393.427V3.4H417.955ZM405.667 40.744C407.747 40.744 409.763 40.712 411.715 40.648C413.699 40.616 415.651 40.536 417.571 40.408C419.523 40.312 421.459 40.168 423.379 39.976C425.331 39.784 427.315 39.56 429.331 39.304L429.763 43C425.251 43.544 420.931 43.912 416.803 44.104C412.707 44.328 408.499 44.44 404.179 44.44C402.163 44.44 400.691 43.976 399.763 43.048C398.867 42.152 398.419 40.696 398.419 38.68V30.568H402.787V37.864C402.787 39.016 402.979 39.784 403.363 40.168C403.747 40.552 404.515 40.744 405.667 40.744ZM428.611 32.2H424.243V0.999997H428.611V32.2ZM454.118 17.992C449.19 17.992 445.414 17.384 442.79 16.168C440.166 14.952 438.854 12.968 438.854 10.216C438.854 7.464 440.166 5.48 442.79 4.264C445.414 3.048 449.19 2.44 454.118 2.44C459.046 2.44 462.822 3.048 465.446 4.264C468.07 5.48 469.382 7.464 469.382 10.216C469.382 12.968 468.07 14.952 465.446 16.168C462.822 17.384 459.046 17.992 454.118 17.992ZM454.118 14.296C457.67 14.296 460.374 14.008 462.23 13.432C464.086 12.856 465.014 11.784 465.014 10.216C465.014 8.616 464.086 7.544 462.23 7C460.374 6.424 457.67 6.136 454.118 6.136C450.566 6.136 447.862 6.424 446.006 7C444.15 7.544 443.222 8.616 443.222 10.216C443.222 11.784 444.15 12.856 446.006 13.432C447.862 14.008 450.566 14.296 454.118 14.296ZM434.15 24.28V20.584H474.086V24.28H434.15ZM443.75 37.384V38.824C443.75 40.104 444.39 40.744 445.67 40.744C447.238 40.744 449.014 40.728 450.998 40.696C453.014 40.664 455.078 40.6 457.19 40.504C459.334 40.408 461.462 40.264 463.574 40.072C465.718 39.88 467.734 39.624 469.622 39.304L470.054 43C466.15 43.608 462.022 43.992 457.67 44.152C453.318 44.344 448.982 44.44 444.662 44.44C441.142 44.44 439.382 42.68 439.382 39.16V33.688H464.534V30.76H439.382V27.064H468.902V37.384H443.75ZM524.373 26.968C522.645 26.584 520.981 26.072 519.381 25.432C517.781 24.792 516.293 24.04 514.917 23.176C513.573 22.312 512.373 21.384 511.317 20.392C510.261 19.368 509.429 18.312 508.821 17.224C508.213 18.312 507.381 19.368 506.325 20.392C505.301 21.384 504.101 22.312 502.725 23.176C501.381 24.04 499.909 24.792 498.309 25.432C496.709 26.072 495.045 26.584 493.317 26.968L491.829 23.464C493.749 23.048 495.605 22.44 497.397 21.64C499.189 20.84 500.773 19.864 502.149 18.712C503.525 17.56 504.613 16.248 505.413 14.776C506.245 13.304 506.661 11.672 506.661 9.88V3.4H511.029V9.88C511.029 11.672 511.429 13.304 512.229 14.776C513.061 16.248 514.165 17.56 515.541 18.712C516.917 19.864 518.501 20.84 520.293 21.64C522.085 22.44 523.941 23.048 525.861 23.464L524.373 26.968ZM488.901 39.4V35.704H506.661V26.44H511.029V35.704H528.837V39.4H488.901ZM559.24 16.504H564.952V0.999997H569.32V44.2H564.952V20.2H559.24V43.72H554.872V1.48H559.24V16.504ZM532.408 4.36H551.176V6.472C551.176 13.096 549.592 18.696 546.424 23.272C543.288 27.816 538.696 31.432 532.648 34.12L530.68 30.808C533.208 29.656 535.464 28.312 537.448 26.776C539.432 25.24 541.112 23.528 542.488 21.64C543.896 19.72 544.968 17.64 545.704 15.4C546.44 13.128 546.808 10.712 546.808 8.152V8.056H532.408V4.36ZM583.355 32.344H603.371V28.024H607.739V38.44C607.739 40.456 607.275 41.912 606.347 42.808C605.451 43.736 603.995 44.2 601.979 44.2H584.747C582.731 44.2 581.259 43.736 580.331 42.808C579.435 41.912 578.987 40.456 578.987 38.44V28.024H583.355V32.344ZM586.715 25.96C585.019 25.96 583.467 25.816 582.059 25.528C580.683 25.208 579.499 24.744 578.507 24.136C577.547 23.528 576.795 22.76 576.251 21.832C575.707 20.904 575.435 19.8 575.435 18.52C575.435 17.24 575.707 16.136 576.251 15.208C576.795 14.28 577.563 13.512 578.555 12.904C579.547 12.296 580.731 11.848 582.107 11.56C583.515 11.24 585.067 11.08 586.763 11.08C588.459 11.08 589.995 11.24 591.371 11.56C592.779 11.848 593.963 12.296 594.923 12.904C595.915 13.512 596.683 14.28 597.227 15.208C597.771 16.136 598.043 17.24 598.043 18.52C598.043 19.8 597.771 20.904 597.227 21.832C596.683 22.76 595.915 23.528 594.923 24.136C593.931 24.744 592.731 25.208 591.323 25.528C589.947 25.816 588.411 25.96 586.715 25.96ZM607.739 11.464H614.987V15.16H607.739V25.48H603.371V0.999997H607.739V11.464ZM584.555 5.32V0.519998H588.923V5.32H599.723V9.016H573.755V5.32H584.555ZM603.371 36.04H583.355V37.624C583.355 38.776 583.547 39.544 583.931 39.928C584.315 40.312 585.083 40.504 586.235 40.504H600.491C601.643 40.504 602.411 40.312 602.795 39.928C603.179 39.544 603.371 38.776 603.371 37.624V36.04ZM586.715 22.264C589.147 22.264 590.907 21.944 591.995 21.304C593.115 20.664 593.675 19.736 593.675 18.52C593.675 17.304 593.115 16.376 591.995 15.736C590.907 15.096 589.147 14.776 586.715 14.776C584.315 14.776 582.555 15.096 581.435 15.736C580.347 16.376 579.803 17.304 579.803 18.52C579.803 19.736 580.347 20.664 581.435 21.304C582.555 21.944 584.315 22.264 586.715 22.264ZM625.614 29.896C628.206 29.896 630.734 29.768 633.198 29.512C635.694 29.256 638.222 28.872 640.782 28.36L641.454 31.912C638.638 32.456 635.742 32.872 632.766 33.16C629.822 33.448 626.942 33.592 624.126 33.592C622.11 33.592 620.638 33.144 619.71 32.248C618.814 31.32 618.366 29.848 618.366 27.832V4.36H622.734V27.016C622.734 28.168 622.926 28.936 623.31 29.32C623.694 29.704 624.462 29.896 625.614 29.896ZM652.398 44.2H648.03V0.999997H652.398V44.2ZM666.432 29.416C669.024 29.416 671.552 29.288 674.016 29.032C676.512 28.776 679.04 28.392 681.6 27.88L682.272 31.432C679.456 31.976 676.56 32.392 673.584 32.68C670.64 32.968 667.76 33.112 664.944 33.112C662.928 33.112 661.456 32.664 660.528 31.768C659.632 30.84 659.184 29.368 659.184 27.352V4.36H681.312V8.056H663.552V26.536C663.552 27.688 663.744 28.456 664.128 28.84C664.512 29.224 665.28 29.416 666.432 29.416ZM692.256 16.504H699.504V20.2H692.256V44.2H687.888V0.999997H692.256V16.504ZM701.779 39.976C701.779 39.208 702.051 38.552 702.595 38.008C703.139 37.464 703.795 37.192 704.563 37.192C705.331 37.192 705.987 37.464 706.531 38.008C707.075 38.552 707.347 39.208 707.347 39.976C707.347 40.744 707.075 41.4 706.531 41.944C705.987 42.488 705.331 42.76 704.563 42.76C703.795 42.76 703.139 42.488 702.595 41.944C702.051 41.4 701.779 40.744 701.779 39.976Z" fill="#0D0302"/>
</svg>
